<?xml version="1.0" encoding="UTF-8" standalone="no"?>
<svg
   xmlns:dc="http://purl.org/dc/elements/1.1/"
   xmlns:cc="http://creativecommons.org/ns#"
   xmlns:rdf="http://www.w3.org/1999/02/22-rdf-syntax-ns#"
   xmlns:svg="http://www.w3.org/2000/svg"
   xmlns="http://www.w3.org/2000/svg"
   xmlns:sodipodi="http://sodipodi.sourceforge.net/DTD/sodipodi-0.dtd"
   xmlns:inkscape="http://www.inkscape.org/namespaces/inkscape"
   sodipodi:docname="Flag_of_Albania_(1939-1943).svg"
   inkscape:version="0.48.4 r9939"
   sodipodi:version="0.32"
   id="svg2"
   preserveAspectRatio="xMidYMid meet"
   viewBox="0 0 468 313"
   height="400"
   width="600"
   version="1.0"
   inkscape:output_extension="org.inkscape.output.svg.inkscape"
   sodipodi:modified="true">
  <defs
     id="defs13" />
  <sodipodi:namedview
     inkscape:current-layer="svg2"
     inkscape:window-y="-8"
     inkscape:window-x="-8"
     inkscape:zoom="0.35355339"
     inkscape:cx="861.9446"
     inkscape:cy="184.51869"
     inkscape:window-height="988"
     inkscape:window-width="1680"
     inkscape:pageshadow="2"
     inkscape:pageopacity="0.0"
     borderopacity="1.0"
     bordercolor="#666666"
     pagecolor="#ffffff"
     id="base"
     inkscape:showpageshadow="false"
     width="500px"
     height="500px"
     showgrid="false"
     inkscape:window-maximized="1" />
  <metadata
     id="metadata4">
Created by potrace 1.7, written by Peter Selinger 2001-2005
<rdf:RDF>
  <cc:Work
     rdf:about="">
    <dc:format>image/svg+xml</dc:format>
    <dc:type
       rdf:resource="http://purl.org/dc/dcmitype/StillImage" />
  </cc:Work>
</rdf:RDF>
</metadata>
  <path
     style="fill:#cc1100;fill-opacity:1;fill-rule:nonzero;stroke:none"
     d="m -0.75,0 469.5,0 0,313 -469.5,0 z"
     id="rect1302" />
  <path
     inkscape:connector-curvature="0"
     id="path11960"
     d="m 233.82883,53.968991 0,0.02445 c -3.17236,0.07272 -6.01547,2.741788 -6.01547,6.431172 2e-5,2.120583 1.07183,4.303343 2.93437,6.431172 1.07377,-0.674405 1.85849,-1.373092 2.59204,-2.078516 -1.52925,-1.760335 -2.24969,-3.561165 -2.24969,-4.352656 1e-5,-2.081204 1.35613,-3.119906 2.78765,-3.154453 1.4393,0.03494 3.05664,1.149082 3.05664,3.154453 2e-5,0.845397 -0.75724,2.88392 -2.54312,4.719453 -0.98719,1.014551 -2.02606,1.832897 -3.20336,2.616485 -1.11281,0.740652 -2.50966,1.315883 -3.93695,1.785078 0.0296,0.977851 0.0166,2.217996 -0.12227,3.44789 0.14678,-0.02769 0.29883,-0.03287 0.44016,-0.07336 2.54912,-0.730182 4.60597,-1.953081 6.43117,-3.276719 1.02792,-0.745441 2.05472,-1.535695 2.93437,-2.445312 2.10462,-2.176281 3.27672,-4.53915 3.27672,-6.773516 10e-6,-3.768579 -3.08086,-6.362151 -6.26,-6.431172 l 0,-0.02445 c -0.0209,2e-6 -0.0526,-2.24e-4 -0.0734,0 -0.0204,-2.13e-4 -0.0285,0 -0.0489,0 z m -16.75039,7.629375 c -4.2644,0 -7.55218,3.013306 -10.24586,6.455625 -0.64965,0.830209 -1.2296,1.73402 -1.80953,2.616484 2e-5,0 4.01031,0 4.01031,0 0.12298,-0.181962 0.23687,-0.420828 0.3668,-0.586875 2.45159,-3.13295 5.02706,-5.208515 7.67828,-5.208515 1.3453,0 2.73348,0.336686 3.79023,1.075937 1.05657,0.739252 1.90933,1.842412 2.22524,3.863594 0.005,0.03385 -0.003,0.08571 0,0.122266 0.0175,0.144856 0.0148,0.307327 0.0245,0.464609 10e-4,0.01892 -0.002,0.03045 0,0.04891 0.0568,1.047353 -0.0741,2.310371 -0.46461,3.398985 -0.0453,0.11185 -0.0695,0.232778 -0.12227,0.342343 -0.0226,0.04701 -0.0249,0.09992 -0.0489,0.146719 l -0.0245,0 c -0.718,1.39159 -2.03101,2.706644 -4.93954,3.496797 -2.75585,0.748649 -7.23052,0.346076 -12.27547,0.220078 -0.47997,0.692458 -1.37346,2.061622 -2.17632,3.276719 0.50845,-0.01981 1.00368,-0.03419 1.49164,-0.02445 5.11763,0.10221 9.91405,0.748774 13.84047,-0.317891 3.73436,-1.014495 5.99263,-3.101008 7.0914,-5.379687 0.31591,-0.655383 0.46099,-1.290319 0.58688,-1.931797 0.003,-0.01881 -0.003,-0.05447 0,-0.07336 0.20535,-1.275881 0.28892,-2.676705 0.26898,-3.790234 -0.001,-0.08007 0.002,-0.192526 0,-0.268984 -0.003,-0.08244 -0.0137,-0.151179 -0.0245,-0.220078 -0.43281,-2.768462 -1.79266,-4.837932 -3.5457,-6.064375 -1.75302,-1.226436 -3.82998,-1.662813 -5.69758,-1.662813 z m 33.84312,0 c -1.86762,0 -3.89582,0.436369 -5.64867,1.662813 -1.66261,1.163217 -2.99501,3.092549 -3.4968,5.648671 1.00472,0.267076 2.1792,0.45745 3.20336,0.611329 0.35128,-1.826754 1.15007,-2.869334 2.15188,-3.570157 1.05657,-0.739251 2.44483,-1.075937 3.79023,-1.075937 2.65123,0 5.22658,2.075565 7.67828,5.208515 0.13621,0.174154 0.28301,0.348127 0.41571,0.537969 0.11382,0.162776 0.20518,0.348604 0.31789,0.513516 0.10372,0.151594 0.21389,0.293782 0.31789,0.440156 0.72882,1.076102 1.54423,2.296489 2.17633,3.301172 0.0196,-4.7e-5 0.0293,5.5e-5 0.0489,0 0.47881,0.763141 0.91638,1.481617 1.36938,2.200781 1.25822,5.95e-4 2.70116,0.04218 3.98586,0.09781 -0.31298,-0.493468 -0.62417,-0.982625 -0.95368,-1.516094 -0.16327,-0.264438 -0.30091,-0.491034 -0.4646,-0.758047 -0.65188,-1.028377 -1.49388,-2.250071 -2.20079,-3.301172 -0.16206,-0.247254 -0.35371,-0.485001 -0.51351,-0.733593 -0.61157,-0.951184 -1.18559,-1.921101 -1.88289,-2.81211 -2.69369,-3.442311 -6.03037,-6.455625 -10.29477,-6.455625 z m -13.52258,6.455625 c -0.70937,0.673326 -1.64142,1.395495 -2.59203,2.102969 1.62519,1.116479 3.40307,2.133979 5.59977,2.763203 0.291,0.08336 0.59214,0.140365 0.90476,0.195625 0.17412,0.03078 0.37342,0.05717 0.53797,0.09781 0.002,0.0093 -0.002,0.0151 0,0.02445 1.00444,0.225383 2.32493,0.454006 3.4968,0.635781 -0.003,-0.009 0.004,-0.01568 0,-0.02445 4.95676,0.811444 10.15937,1.015583 15.40547,1.027031 -0.72478,-1.107073 -1.57313,-2.36628 -2.22524,-3.325625 -4.57667,-0.0552 -9.00776,-0.300441 -13.08242,-1.002578 -0.16135,-0.02341 -0.38636,-0.07075 -0.56242,-0.09781 -1.00478,-0.154457 -2.13716,-0.35466 -3.20336,-0.635781 -0.009,-0.0024 -0.0398,0.002 -0.0489,0 -0.10333,-0.02304 -0.21877,-0.02053 -0.31789,-0.04891 -1.47043,-0.421196 -2.74877,-1.025075 -3.9125,-1.711719 z m -15.20984,2.543125 c -4.3115,0.712654 -8.99344,0.9857 -13.84047,0.978125 -1.44304,-0.0023 -2.88522,0.0211 -4.3282,0.02445 -2.82114,0.0066 -5.61884,-0.01948 -8.43633,0.07336 -5.86717,0.193348 -10.46933,2.152461 -13.44922,5.01289 -1.44917,1.391058 -2.44613,3.03254 -3.05664,4.743907 1.46968,-0.587134 3.52587,-1.37875 4.76836,-1.736172 0.19051,-0.216698 0.37051,-0.428083 0.58688,-0.635782 2.30856,-2.215985 6.07698,-3.888 11.27289,-4.059218 2.12247,-0.06995 4.33055,-0.09781 6.50453,-0.09781 1.47992,0 2.88361,-0.02445 4.35265,-0.02445 5.1639,0 10.28581,-0.176775 15.18539,-0.904766 l -0.0978,-0.02445 c 0.42758,-0.918811 0.58076,-2.291574 0.53797,-3.350078 z m 42.52398,1.002578 c 0.76772,1.124938 1.63569,2.377423 2.20079,3.301172 1.81712,0.0046 3.63674,0.03956 5.40414,0.09781 5.19602,0.171226 8.96439,1.843241 11.27289,4.059218 0.22183,0.212879 0.38477,0.442567 0.58687,0.660235 1.57552,1.696248 2.10193,3.815986 2.17633,6.039926 0.006,0.18917 -0.0125,0.37687 -0.0489,0.56242 -0.19038,0.97233 -0.61713,1.54914 -1.44273,2.05406 -0.82578,0.50489 -2.16393,0.88031 -4.05922,0.88031 -2.19087,-1e-5 -4.46686,-1.22552 -6.70016,-3.27672 -1.11307,-1.0224 -2.1634,-2.22459 -3.1789,-3.521246 -1.02168,-0.03974 -2.65003,-0.0802 -4.15703,-0.09781 1.51752,2.141139 3.18411,4.246069 5.1107,6.015469 2.56451,2.35526 5.54749,4.15703 8.92539,4.15703 2.29343,-10e-6 4.23333,-0.40475 5.77094,-1.34492 1.49461,-0.91397 2.62752,-2.37526 2.90992,-4.08367 0.25932,-1.56889 0.003,-3.1721 -0.29344,-4.719456 -0.0527,-0.275643 -0.14083,-0.537178 -0.24453,-0.806953 -0.60256,-1.761149 -1.59389,-3.463008 -3.08109,-4.890625 -2.98,-2.860421 -7.58202,-4.819542 -13.44922,-5.01289 -2.57378,-0.08481 -5.13124,-0.07489 -7.70274,-0.07336 z m -22.66804,2.640938 c 0.10605,0.455728 0.23969,0.903146 0.46461,1.369375 1.09868,2.278679 3.4058,4.365192 7.14031,5.379687 3.92643,1.066665 8.69832,0.420109 13.81602,0.317891 0.84722,-0.01693 1.73648,0.08897 2.61648,0.09781 1.38552,0.0046 2.88932,0.03168 4.10813,0.07336 0.009,2.97e-4 0.0154,-3.05e-4 0.0245,0 0.27342,0.0094 0.66801,0.01602 0.88031,0.02445 l 0,0.04891 c 2.62733,0.177714 5.10249,0.462661 6.99359,0.904766 2.09133,0.488896 4.6363,1.237636 7.36039,2.176326 -0.0966,-1.12845 -0.53162,-2.547779 -1.71171,-4.059217 -1.79408,-0.525519 -3.52003,-0.98861 -4.93954,-1.320469 -2.86058,-0.668732 -6.47283,-0.974509 -10.14804,-1.10039 l 0,0.02445 c -1.12559,-0.0447 -3.12316,-0.123393 -4.76836,-0.146719 -0.15257,0.0023 -0.33767,-0.003 -0.48906,0 -5.30398,0.105943 -10.04126,0.584066 -12.91125,-0.195625 -2.53688,-0.689187 -3.87015,-1.773004 -4.6461,-2.958828 -1.06525,-0.154732 -2.55574,-0.387173 -3.79023,-0.635781 z m -40.44547,1.638359 c -0.39806,0.650312 -0.8012,1.286806 -1.17375,1.858438 -0.9805,1.50452 -2.04123,2.990589 -3.22781,4.499375 -1.06275,1.351324 -2.09091,2.674704 -3.25227,3.741324 -2.23339,2.05119 -4.5581,3.27672 -6.74906,3.27672 -1.8953,-10e-6 -3.23352,-0.37539 -4.05922,-0.88031 -0.8257,-0.50494 -1.22781,-1.0817 -1.41828,-2.05406 -0.0248,-0.12666 -0.0383,-0.26277 -0.0489,-0.39125 -0.42882,0.16886 -0.8732,0.34332 -1.34492,0.53797 -0.68297,0.28181 -1.15323,0.49927 -1.73617,0.75804 0.39123,1.64565 1.37668,3.0687 2.83656,3.96141 1.53752,0.94015 3.47757,1.34492 5.77094,1.34492 3.3779,-10e-6 6.38537,-1.80174 8.94984,-4.15703 1.98636,-1.82432 3.70603,-4.00018 5.25742,-6.211094 0.94909,-1.352559 1.84224,-2.745025 2.73875,-4.132578 0.4703,-0.727874 0.90469,-1.408461 1.36938,-2.151875 2e-5,0 -3.9125,0 -3.9125,0 z m -2.51867,2.298594 c -3.57813,0.130325 -7.09488,0.425054 -9.87906,1.075937 -1.70697,0.399052 -3.78071,0.910204 -5.96657,1.613907 -1.63829,0.52742 -3.11733,1.202874 -4.71945,1.833984 -0.0678,0.0267 -0.12773,0.07084 -0.19563,0.09781 l 0.0734,3.52125 c 1.50996,-0.65882 3.03722,-1.32732 4.59719,-1.85844 2.56098,-0.87195 4.99317,-1.54322 6.96914,-2.005156 1.80255,-0.421408 4.11821,-0.700205 6.60235,-0.880313 0.64695,-0.822478 1.77495,-2.311411 2.51867,-3.398984 z m -37.70672,15.698903 c -0.91721,1.03121 -1.77171,2.13699 -2.56758,3.32563 -8.79634,13.137372 -13.99029,26.953482 -15.94344,40.885622 1.35025,-2.76307 2.92247,-5.29659 4.67055,-7.48265 0.002,-0.009 -0.002,-0.0397 0,-0.0489 2.52052,-10.71999 7.13972,-21.29337 13.98719,-31.520082 0.40293,-0.60177 0.82959,-1.17829 1.27156,-1.73617 -0.53537,-1.29662 -0.80972,-1.94083 -1.41828,-3.42344 z m 145.93625,0.80696 c 2e-5,0 -2.20078,2.46976 -2.20078,2.46976 0.48239,0.60113 0.93257,1.23053 1.36937,1.88289 6.80323,10.160632 11.40744,20.675362 13.93828,31.324462 1.76079,2.16165 3.32873,4.68416 4.695,7.43375 -1.98488,-13.83264 -7.16007,-27.54715 -15.89453,-40.592192 -0.59453,-0.88799 -1.24659,-1.71973 -1.90734,-2.51867 z m 15.18539,48.759532 c 0.46943,5.62991 0.37517,11.26039 -0.22008,16.87265 l 2.95883,0 c 0.47542,-4.41579 -0.23704,-9.64599 -1.90734,-14.62296 -0.25792,-0.7685 -0.52982,-1.51747 -0.83141,-2.24969 z m -176.99172,0.24453 c -0.26113,0.64816 -0.50661,1.32884 -0.73359,2.00516 -1.67031,4.97697 -2.38274,10.20717 -1.90735,14.62296 l 2.86102,0 c -0.58595,-5.52454 -0.6654,-11.08596 -0.22008,-16.62812 z m -2.46977,21.29867 c 0.39948,2.6351 0.89878,5.26124 1.5161,7.87391 2.67852,11.33642 7.39027,22.43024 13.88937,32.98726 l 0,-6.48008 c -4.89769,-8.83535 -8.49181,-17.97857 -10.68601,-27.26523 -0.55767,-2.36021 -1.04331,-4.74023 -1.41828,-7.11586 l -3.30118,0 z m 178.63008,0 c -0.37496,2.37563 -0.83618,4.75565 -1.39382,7.11586 -2.23047,9.44018 -5.93285,18.73465 -10.955,27.70539 l 0,6.48008 c 6.63941,-10.68783 11.41841,-21.93445 14.1339,-33.42742 0.61732,-2.61267 1.11663,-5.23881 1.51609,-7.87391 l -3.30117,0 z"
     style="fill:#000000;fill-opacity:1;fill-rule:evenodd;stroke:none" />
  <path
     inkscape:connector-curvature="0"
     sodipodi:nodetypes="ccccccccccccccccccccccccccccccccccccccccccccccccccccccccccccccccccccccccccccccccccccssccccccccsscccccccccccccccccccccccccccccccccccccccccccccccccccccccccccccccccccscccccccccccccccccccccccccccccccccscccccccccccccc"
     style="fill:#000000;fill-opacity:1;fill-rule:evenodd;stroke:none"
     d="m 171.85838,81.191108 0,8.97975 4.65075,0 0,-8.97975 -4.65075,0 z m 119.6325,0 0,8.97975 4.65075,0 0,-8.97975 -4.65075,0 z m -125.68725,11.20275 0,8.979752 4.65075,0 0,-8.979752 -4.65075,0 z m 6.05475,0 0,8.979752 4.65075,0 0,-8.979752 -4.65075,0 z m 6.05475,0 0,8.979752 4.68,0 0,-8.979752 -4.68,0 z m 107.49375,0 0,8.979752 4.68,0 0,-8.979752 -4.68,0 z m 6.084,0 0,8.979752 4.65075,0 0,-8.979752 -4.65075,0 z m 6.05475,0 0,8.979752 4.65075,0 0,-8.979752 -4.65075,0 z m -133.29225,11.349002 0,4.68 19.50975,0 0,-4.68 -19.50975,0 z m 119.9835,0 0,4.68 19.50975,0 0,-4.68 -19.50975,0 z m -118.43325,7.02 0,52.9425 4.65075,0 0,-52.9425 -4.65075,0 z m 6.05475,0 0,52.9425 4.65075,0 0,-52.9425 -4.65075,0 z m 6.05475,0 0,52.9425 4.68,0 0,-52.9425 -4.68,0 z m 107.49375,0 0,52.9425 4.68,0 0,-52.9425 -4.68,0 z m 6.084,0 0,52.9425 4.65075,0 0,-52.9425 -4.65075,0 z m 6.05475,0 0,52.9425 4.65075,0 0,-52.9425 -4.65075,0 z m -146.718,20.15325 c -7.1213,7.1615 -12.65234,22.14183 -10.50075,32.78925 l 24.07275,0 -0.14625,-27.4365 c -2e-5,0 -6.78415,-0.65441 -7.45875,2.72025 -0.67463,3.37466 2.98349,4.0215 2.9835,6.52275 2e-5,0 -1e-5,2.5155 0,2.5155 l -2.13525,0 c -5.29078,1e-5 -8.41301,-9.40028 -4.6215,-15.3855 l -2.19375,-1.72575 z m 166.34475,0 -2.19375,1.72575 c 3.79147,5.98522 0.66927,15.38551 -4.6215,15.3855 l -2.13525,0 c -2e-5,0 -2e-5,-2.5155 0,-2.5155 -2e-5,-2.50125 3.65812,-3.14809 2.9835,-6.52275 -0.67463,-3.37466 -7.45873,-2.72025 -7.45875,-2.72025 l -0.14625,27.4365 24.07275,0 c 2.15155,-10.64742 -3.37946,-25.62775 -10.50075,-32.78925 z m -159.354,35.12925 0,4.68 25.94475,0 0,-4.68 -25.94475,0 z m 126.4185,0 0,4.68 25.94475,0 0,-4.68 -25.94475,0 z m -124.488,7.02 0,61.8345 4.65075,0 0,-61.8345 -4.65075,0 z m 6.05475,0 0,61.8345 4.65075,0 0,-61.8345 -4.65075,0 z m 6.05475,0 0,61.8345 4.65075,0 0,-61.8345 -4.65075,0 z m 6.05475,0 0,61.8345 4.68,0 0,-61.8345 -4.68,0 z m 107.49375,0 0,61.8345 4.68,0 0,-61.8345 -4.68,0 z m 6.084,0 0,61.8345 4.65075,0 0,-61.8345 -4.65075,0 z m 6.05475,0 0,61.8345 4.65075,0 0,-61.8345 -4.65075,0 z m 6.05475,0 0,61.8345 4.65075,0 0,-61.8345 -4.65075,0 z m -145.782,64.1745 0,4.68 25.94475,0 0,-4.68 -25.94475,0 z m 126.4185,0 0,4.68 25.94475,0 0,-4.68 -25.94475,0 z m -124.488,7.04925 -2.8665,4.59225 3.4515,3.18825 c 0,0 2.07859,-1.43167 3.09503,-3.3768 1.01644,-1.94512 0.97072,-4.4037 0.97072,-4.4037 l -4.65075,0 z m 6.05475,0 0,5.265 4.65075,0 0,-5.265 -4.65075,0 z m 6.05475,0 0,5.265 4.65075,0 0,-5.265 -4.65075,0 z m 6.05475,0 0,5.265 4.68,0 0,-5.265 -4.68,0 z m 107.49375,0 0,5.265 4.68,0 0,-5.265 -4.68,0 z m 6.084,0 0,5.265 4.65075,0 0,-5.265 -4.65075,0 z m 6.05475,0 0,5.265 4.65075,0 0,-5.265 -4.65075,0 z m 6.05475,0 c 0,0 0.093,2.73593 1.1094,4.68105 1.01643,1.94513 2.95635,3.09945 2.95635,3.09945 l 3.4515,-3.18825 -2.8665,-4.59225 -4.65075,0 z m -131.742,7.63425 0,6.05475 4.65075,0 0,-6.05475 -4.65075,0 z m 119.6325,0 0,6.05475 4.65075,0 0,-6.05475 -4.65075,0 z"
     id="path9993" />
  <path
     inkscape:connector-curvature="0"
     style="fill:none;stroke:#000000;stroke-width:3.21352005;stroke-linecap:butt;stroke-linejoin:miter;stroke-miterlimit:4;stroke-opacity:1;stroke-dasharray:none"
     d="m 188.20912,98.068358 0,100.678502 c -1e-5,17.06852 33.03244,24.15331 45.8055,33.8715 12.77306,-9.71819 45.77625,-16.80298 45.77625,-33.8715 l 0,-100.678502 -91.58175,0 z"
     id="path2205"
     sodipodi:nodetypes="cccccc" />
  <path
     inkscape:connector-curvature="0"
     style="fill:#000000;fill-rule:evenodd;stroke:#cc1100;stroke-width:1.40400004;stroke-linecap:butt;stroke-linejoin:miter;stroke-miterlimit:4;stroke-opacity:1;stroke-dasharray:none"
     d="m 189.18254,234.04383 c -1.35924,3.53458 -2.04111,7.40785 -2.218,11.53361 l 9.09381,2.66161 3.327,-10.20281 -10.20281,-3.99241 z"
     id="path3141"
     sodipodi:nodetypes="ccccc" />
  <path
     inkscape:connector-curvature="0"
     sodipodi:nodetypes="ccccc"
     id="path6082"
     d="m 278.81758,234.04383 c 1.35924,3.53458 2.04111,7.40785 2.218,11.53361 l -9.09381,2.66161 -3.327,-10.20281 10.20281,-3.99241 z"
     style="fill:#000000;fill-rule:evenodd;stroke:#cc1100;stroke-width:1.40400004;stroke-linecap:butt;stroke-linejoin:miter;stroke-miterlimit:4;stroke-opacity:1;stroke-dasharray:none" />
  <path
     inkscape:connector-curvature="0"
     style="fill:#000000;fill-opacity:1;fill-rule:evenodd;stroke:#cc1100;stroke-width:1.40400004;stroke-linecap:butt;stroke-linejoin:miter;stroke-miterlimit:4;stroke-opacity:1;stroke-dasharray:none"
     d="m 234.00656,258.32911 c -15.4996,0 -43.4696,-4.26207 -46.30275,-12.19725 -1.37836,-3.86049 8.9296,1.37694 9.97425,-4.65075 0.57502,-3.31797 -6.36789,-6.8065 -16.614,-7.5465 -10.24611,-0.73999 -21.7035,-5.46975 -21.7035,-5.46975 -0.87118,-4.84032 -0.77382,-15.66701 0.117,-20.475 5.44997,4.27406 11.69994,6.78025 20.67975,8.658 8.95291,1.8721 20.55644,3.07303 22.84425,10.413 -1.86907,2.58767 -2.69462,5.61453 -2.8665,8.424 8.02447,4.54565 21.66502,6.669 33.8715,6.669 12.20648,0 25.84699,-2.12335 33.8715,-6.669 -0.17188,-2.80947 -1.02671,-5.83633 -2.89575,-8.424 2.28781,-7.33997 13.89136,-8.5409 22.84425,-10.413 8.97981,-1.87775 15.22981,-4.38394 20.67975,-8.658 0.89082,4.80799 1.0174,15.63468 0.14625,20.475 0,0 -11.45736,4.72976 -21.7035,5.46975 -10.24611,0.74 -17.21831,4.22853 -16.64325,7.5465 1.04465,6.02769 11.35258,0.79026 9.97425,4.65075 -2.83315,7.93518 -30.87988,12.19725 -46.2735,12.19725 z"
     id="path3139"
     sodipodi:nodetypes="csssccsccsccsccsssz" />
  <path
     inkscape:connector-curvature="0"
     d="m 297.28268,217.10148 c 2.93715,-0.0603 4.90709,-1.00004 7.13755,-2.70353 0.59887,3.06651 2.24274,5.18586 3.31208,7.79467 -1.53497,-1.09047 -2.89016,-2.89568 -3.87252,-4.7368 l -1.34498,0.64484 c 0.61298,2.74251 1.73151,5.68688 3.73735,7.63405 -1.95526,0.0783 -3.36481,0.56046 -5.15623,1.622 0.88289,-3.03549 0.15674,-6.13654 -0.41929,-8.63413 l -1.43445,0.36181 c 0.24315,2.64401 -0.27082,4.56102 -0.49938,6.29278 -0.33671,-2.7653 -0.65434,-5.53149 -1.46013,-8.27569 z m -3.82141,1.4487 c -1.95741,0.21916 -3.64739,0.78461 -5.47761,1.08197 1.82308,1.52104 2.52409,8.83635 1.2389,10.52403 1.5186,-0.64446 2.54599,-0.79688 4.1673,-0.75382 -0.7753,-0.9304 -0.84926,-2.14336 -1.0335,-3.42225 1.10653,-0.19227 1.76878,0.9453 2.62647,1.71882 0.79937,0.72094 2.05923,1.0889 4.1146,-0.0628 -1.25472,-0.64416 -2.94879,-1.81221 -3.69229,-3.42059 2.34127,-1.98149 1.33353,-6.03231 -1.94387,-5.66533 z m 0.77346,3.45337 c 0.17873,1.18263 -1.23277,1.63519 -2.20988,1.75509 l -0.33468,-2.43013 c 0.95811,-0.50568 2.36585,-0.50758 2.54456,0.67504 z m -12.69172,5.57602 c 1.89167,-0.42565 4.69624,-2.36922 5.66562,-4.00765 -0.50245,-1.51106 -1.66511,-3.29331 -4.18934,-3.03338 -1.97078,0.20294 -4.14075,1.81094 -4.22248,5.49282 -0.0887,3.99634 2.22853,5.76969 4.30382,5.68515 2.76788,-0.11468 4.26017,-2.05063 4.7889,-3.79388 -1.16026,1.03408 -2.26642,1.618 -3.40135,1.64498 -1.25461,0.0298 -2.34556,-0.43882 -2.94517,-1.98804 z m 0.82795,-5.06757 c -1.6632,0.996 -1.13881,3.29403 -1.13881,3.29403 1.46418,-0.41848 2.92836,-1.16498 4.18919,-2.46388 0,0 -1.2648,-1.89942 -3.05038,-0.83015 z m -13.92728,3.3107 c 3.07456,-1.01788 5.80784,-2.22892 9.05802,-4.34701 -0.52294,1.72718 -0.38932,3.08164 -0.1252,4.47579 -1.76988,-1.80775 -3.04462,-1.1422 -4.99361,-0.1706 0.26962,1.38611 0.52896,1.89983 1.13649,2.90686 1.09769,-0.57127 1.6857,-1.30067 2.22132,-2.72019 0.23355,1.81588 0.79948,3.43374 1.7657,4.81306 -1.18513,-0.37662 -2.26032,-0.92783 -3.26926,-0.29177 0.64586,1.48282 0.89353,2.56034 2.57254,2.93972 -1.68634,0.40578 -3.20473,1.10618 -4.75967,1.99122 1.48224,-3.0593 -1.11286,-8.97074 -3.60633,-9.59708 z m -76.0339,-3.17221 c 2.26264,1.94935 4.18794,2.55383 6.65781,2.73841 -0.93467,2.80401 -0.64462,5.57799 -1.01371,8.34403 -0.67373,-1.89573 -0.88654,-4.22794 -0.79933,-6.33479 l -1.31598,-0.41019 c -0.77704,2.56034 -1.26086,5.62211 -0.61724,8.50754 -1.52352,-1.26786 -2.81489,-1.84909 -4.65956,-2.23701 2.0483,-1.77256 2.90179,-4.69009 3.59589,-7.03387 l -1.25574,-0.69224 c -1.01382,2.23198 -2.2742,3.38104 -3.23337,4.57931 0.99761,-2.39038 2.01015,-4.76847 2.64123,-7.46119 z m -4.66307,-0.97874 c -1.89075,-0.69186 -3.64216,-0.92382 -5.43928,-1.48097 1.21534,2.31986 -0.44609,9.74846 -2.1758,10.79351 1.61694,0.076 2.62116,0.40285 4.11622,1.19403 -0.42717,-1.26194 -0.11235,-2.47415 0.12071,-3.80134 1.09046,0.3247 1.34691,1.7356 1.90035,2.88326 0.51581,1.06965 1.57177,2.00932 3.84863,1.84077 -0.96383,-1.20554 -2.17075,-3.12296 -2.35389,-5.02865 2.80534,-0.84227 3.14882,-5.24218 -0.0169,-6.40061 z m -0.37254,3.7114 c -0.20774,1.23117 -1.66432,1.0183 -2.61147,0.68312 l 0.4572,-2.51482 c 1.05148,-0.0483 2.36202,0.60054 2.15427,1.8317 z m -12.86401,0.56329 c 1.89167,-0.43092 4.69624,-2.39855 5.66562,-4.05725 -0.50245,-1.52976 -1.66511,-3.33406 -4.18934,-3.07092 -1.97078,0.20546 -4.14075,1.83335 -4.22248,5.56079 -0.0887,4.0458 2.22853,5.84109 4.30382,5.7555 2.76788,-0.11609 4.26017,-2.076 4.7889,-3.84082 -1.16026,1.04687 -2.26642,1.63802 -3.40135,1.66533 -1.25461,0.0302 -2.34556,-0.44425 -2.94517,-2.01263 z m 0.82795,-5.13028 c -1.6632,1.00832 -1.13881,3.33479 -1.13881,3.33479 1.46418,-0.42366 2.92836,-1.1794 4.18919,-2.49437 0,0 -1.2648,-1.92293 -3.05038,-0.84042 z m -12.87585,-6.83545 c 3.34706,1.67661 6.47132,2.88558 10.51581,3.69975 -1.32427,1.14376 -1.85831,2.50272 -2.29055,4.00903 -0.76386,-3.16608 -2.26989,-3.63729 -4.55016,-4.4 -0.42323,1.50358 -0.43219,2.19633 -0.35776,3.6385 1.29596,0.40745 2.19586,0.23642 3.38243,-0.61368 -0.66549,1.86813 -0.92639,3.8366 -0.70003,5.92589 -0.91659,-1.35333 -1.64635,-2.77377 -2.89146,-3.04624 -0.12114,1.91223 -0.41482,3.11346 0.95865,4.88896 -1.76171,-1.05979 -3.51072,-1.70599 -5.38335,-2.21346 2.86146,-1.55351 3.32558,-9.19409 1.31642,-11.88875 z m 61.64395,37.20172 c 2.46482,-0.26328 6.11914,-1.98484 7.38223,-3.56033 -0.65469,-1.57736 -2.16962,-3.48857 -5.45866,-3.44971 -2.56791,0.0303 -5.39535,1.46805 -5.50184,5.19519 -0.11558,4.04546 2.90374,6.05045 5.60782,6.14951 3.60652,0.13016 5.55095,-1.70053 6.23988,-3.42157 -1.51179,0.94551 -2.95312,1.43927 -4.43192,1.36557 -1.63474,-0.0815 -3.05622,-0.65395 -3.83751,-2.27866 z m 1.0788,-5.06615 c -2.16713,0.8621 -1.48386,3.23962 -1.48386,3.23962 1.90782,-0.29407 3.81563,-0.92084 5.45847,-2.126 0,0 -1.64802,-2.03915 -3.97461,-1.11362 z m 25.13695,-2.49351 c 3.9301,0.0656 6.68358,-0.71268 9.88484,-2.17857 0.39871,2.82844 2.31671,4.83384 3.40353,7.26313 -1.90717,-1.06014 -3.48077,-2.76644 -4.55181,-4.49023 l -1.88039,0.53433 c 0.45989,2.53279 1.56851,5.27093 3.9924,7.13375 -2.62123,-0.009 -4.56658,0.37415 -7.09761,1.27113 1.57597,-2.73918 1.01183,-5.60447 0.56924,-7.91179 l -1.96285,0.27186 c -0.0211,2.42753 -0.95811,4.15919 -1.48979,5.73323 -0.088,-2.54228 -0.15043,-5.08457 -0.86756,-7.62684 z m -8.34105,0.91581 c -2.71052,0.017 -5.09016,0.40275 -7.63425,0.50981 2.34366,1.68552 2.53926,8.97126 0.59774,10.50494 2.15263,-0.48108 3.57922,-0.52688 5.80078,-0.31949 -0.96696,-0.99644 -0.94135,-2.20021 -1.06023,-3.48017 1.53941,-0.0771 2.32945,1.11219 3.42597,1.9623 1.02196,0.79231 2.71321,1.28336 5.65599,0.35661 -1.65523,-0.76291 -3.85874,-2.08721 -4.71097,-3.74904 3.42234,-1.716 2.46333,-5.81345 -2.07503,-5.78496 z m 0.69994,3.48445 c 0.12141,1.18449 -1.86403,1.48723 -3.21819,1.50606 l -0.20475,-2.43066 c 1.36851,-0.40123 3.30154,-0.2599 3.42294,0.9246 z m -36.62278,-7.24034 c 4.24204,1.31507 8.20169,2.20253 13.32765,2.63414 -1.67838,1.20579 -2.35521,2.54952 -2.90304,4.02528 -0.9681,-2.95878 -2.87683,-3.28001 -5.76681,-3.81342 -0.53641,1.47238 -0.54776,2.13485 -0.45342,3.50599 1.64248,0.2783 2.783,0.0379 4.28685,-0.87557 -0.84344,1.84131 -1.1741,3.74385 -0.8872,5.72012 -1.16169,-1.21424 -2.08658,-2.50856 -3.66462,-2.66228 -0.15353,1.83687 -0.52573,3.00937 1.21499,4.58775 -2.23279,-0.86154 -4.44946,-1.32912 -6.82281,-1.65361 3.62658,-1.7287 4.21481,-9.06645 1.66841,-11.4684 z"
     style="fill:#cc1100;fill-opacity:1;fill-rule:evenodd;stroke:none"
     id="path8053" />
  <g
     id="g10949"
     transform="matrix(1.200384,0,0,1.200384,2098.9598,-566.76416)">
    <g
       id="g10953"
       transform="translate(3.275e-2,0)" />
  </g>
  <g
     id="g10969"
     style="fill:#00ff00"
     transform="matrix(1.200384,0,0,1.200384,2098.9598,-566.76416)">
    <g
       id="g10973"
       transform="translate(3.275e-2,0)"
       style="fill:#00ff00" />
  </g>
  <g
     id="g3179">
    <path
       id="path3088"
       d="m 241.23037,128.46892 c 0.19152,0.63837 -0.0426,1.36186 0.5639,1.76617 0.0426,0.48942 0.0106,1.11715 0.0106,1.56401 -0.3511,0.1596 -1.01076,0.48942 -1.85128,0.57454 -0.84053,0.0851 -1.73425,0.12767 -2.21303,0.12767 -1.63849,0 -3.27699,-0.23407 -4.7878,-0.25534 -1.61722,-0.0319 -4.5431,0.44686 -4.91548,-0.19152 -0.20215,-0.44686 -0.0532,-1.07459 -0.0213,-1.61721 -0.13831,-0.15959 -0.11703,-0.52134 -0.0958,-0.77669 0.0638,-1.28738 0.32982,-2.69181 0.85116,-3.73448 -0.0106,-0.73413 0.27663,-1.24483 0.71285,-1.54274 -0.0213,-0.46814 0.18087,-0.77669 0.52134,-0.80861 0.4043,-0.69157 1.07459,-0.58517 1.58529,-0.77668 0.21279,-0.0745 0.71286,-0.73413 1.03204,-1.0214 0.19151,-0.1596 0,-1.13844 0.21279,-1.51082 0.0426,-0.0851 0.0532,-0.23407 0.0213,-0.29791 -0.14895,-0.25535 -0.47878,-0.19151 -0.75541,-0.29791 -0.57454,-0.21279 -1.4257,-0.43622 -1.85128,-0.7554 -0.28727,-0.22344 -0.48942,-0.5107 -0.64901,-0.87245 -0.14896,-0.3511 -0.25536,-0.94692 -0.4575,-1.08523 0.79796,0.0958 1.27674,0.18087 1.69168,0.60645 0.21279,0.22343 0.71285,0.5107 1.08524,0.69157 -0.80861,-1.46826 -1.78745,-2.17047 -2.94716,-3.05355 -1.48953,-1.13843 -3.12802,-1.76617 -3.15994,-1.94704 -0.0426,-0.22343 0.31919,-0.22343 0.48942,-0.20215 0.84053,0.10639 3.03228,0.915 4.55373,1.92576 1.4257,0.95756 2.68117,2.20239 3.68129,3.35146 0,-0.53198 -0.77669,-1.58529 -1.25547,-1.9896 -0.46814,-0.39366 -0.74477,-1.07459 -0.70221,-1.74489 1.18099,0.55326 1.97896,1.94704 3.25571,3.23443 0.4043,0.23407 0.68093,0.5107 0.72349,0.88308 0.23407,0.23407 0.61709,0.63838 0.79796,0.73413 -0.0638,0.2128 0.1596,0.43623 0.0106,0.72349 -0.0319,0.0851 -0.0958,0.12768 -0.0851,0.22343 0.43622,0.25535 0.67029,1.25547 0.97884,1.76617 0.21279,0.34047 0.71285,0.68093 0.74477,0.90436 0.0532,0.42559 -0.31919,0.65966 -0.35111,1.05332 0.11703,0.22343 0.29791,0.29791 0.43622,0.36175 0.36175,0.26599 0.65966,0.56389 0.65966,1.01075 l 0.12767,0 c 0.73413,0.52134 0.915,1.30867 0.915,2.40455 0.32983,0 0.5639,0.34046 0.43622,0.57453 z"
       style="fill:#000000;fill-opacity:1;fill-rule:nonzero;stroke:none"
       inkscape:connector-curvature="0" />
    <path
       id="path3090"
       d="m 226.15412,113.04156 c -0.17024,0 -0.37239,0.0426 -0.34047,0.21279 0.0319,0.18087 1.67041,0.79797 3.15995,1.94704 1.15971,0.88308 2.13855,1.58529 2.94716,3.05355 -0.37239,-0.18087 -0.87245,-0.46814 -1.08524,-0.69157 -0.41494,-0.42558 -0.89372,-0.5107 -1.69169,-0.60645 0.20215,0.13831 0.30855,0.73413 0.45751,1.08523 0.15959,0.36175 0.36174,0.64901 0.64901,0.87245 0.42558,0.31918 1.27674,0.54261 1.84064,0.7554 0.28727,0.1064 0.61709,0.0426 0.76605,0.29791 0.0319,0.0638 0.0213,0.21279 -0.0213,0.29791 -0.21279,0.37238 -0.0213,1.35122 -0.21279,1.51082 -0.31919,0.28727 -0.81925,0.95756 -1.03204,1.03203 -0.5107,0.18088 -1.18099,0.0745 -1.58529,0.76605 -0.34047,0.0426 -0.54262,0.34047 -0.52134,0.79797 0.46814,-0.0958 0.72349,-0.71285 1.12779,-0.85116 -0.0851,0.20215 -0.47878,0.57453 -0.24471,0.69157 0.20216,0.0958 0.80861,-0.5639 0.90437,-0.65966 0.0532,0.14896 -0.29791,0.59582 -0.18088,0.65966 0.27663,0.15959 0.76605,-0.53198 0.87245,-0.70221 0.26599,0.94692 0.93628,0.72349 0.88308,-0.22343 0.1064,0.32982 0.38302,1.12779 0.78733,0.89372 0.41494,-0.24471 -0.11704,-0.70221 -0.19151,-0.93628 0.37238,0.36174 0.50006,0.84052 0.92564,1.12779 0.0745,0.0426 0.23407,0.0426 0.31918,0.0106 0.1596,-0.0638 0.0532,-0.26599 -0.0106,-0.34047 -0.0638,-0.0958 -0.20215,-0.26599 -0.20215,-0.26599 0.1596,0.0851 0.25535,0.23407 0.60646,0.55326 0.3511,0.30855 0.50006,0.32983 0.62773,0.26599 0.11704,-0.0532 -0.13831,-0.38302 -0.24471,-0.48942 0.11704,0.0638 0.34047,0.27663 0.5639,0.44686 0.22343,0.1596 0.5107,0.21279 0.57454,0.1064 0.0426,-0.0745 -0.1064,-0.18087 -0.25536,-0.29791 -0.14895,-0.11704 -0.25534,-0.20215 -0.2979,-0.24471 0,0 0.13831,0.0213 0.39366,0.18087 0.25535,0.14896 0.62773,0.43622 0.76605,0.46814 0.26599,0.0638 0.39366,0.0319 0.39366,-0.0532 -0.0106,-0.0851 -0.11703,-0.14896 -0.22343,-0.23407 -0.10639,-0.0851 -0.21279,-0.18088 -0.21279,-0.18088 0,0 0.77669,0.40431 1.08524,0.42558 0.24471,0.0106 0.36174,0 0.37238,-0.0957 0.0106,-0.0745 -0.19151,-0.25535 -0.19151,-0.25535 0.27663,0.15959 0.57453,0.26599 0.75541,0.18087 -0.0319,-0.0319 -0.0638,-0.0532 -0.0958,-0.0745 -0.12767,-0.0532 -0.29791,-0.12768 -0.41494,-0.30855 -0.41494,0.0638 -1.68105,0.10639 -2.72373,-0.50006 -1.64913,-0.95756 -2.11727,-1.08524 -2.36198,-1.08524 -0.9682,0 -1.48954,0.81925 -2.48966,0.64902 1.05332,0 1.71297,-1.0214 2.77693,-0.73413 1.21291,0.32982 2.48965,1.58529 4.11751,1.54273 0.0319,-0.31918 -0.39367,-0.38302 -0.37239,-0.72349 0.0213,-0.27663 0.21279,-0.41494 0.31919,-0.25535 0.0851,0.11704 -0.17023,0.35111 -0.0638,0.4575 0.0745,0.0745 0.25535,0.0106 0.25535,0.0106 0,0 -0.0213,0.25535 0.0426,0.32983 0.0532,0.0851 0.20215,0.11703 0.38302,0.13831 0,-0.37238 0.21279,-0.22343 0.0851,-0.77668 -0.0319,-0.1596 0.0426,-0.12768 0.11704,-0.13832 0.0745,0 0.13831,-0.0745 0.0532,-0.30855 -0.13831,-0.14895 -0.32982,-0.32982 -0.46814,-0.50005 -0.36174,-0.0532 -0.56389,-0.38303 -0.4575,-0.93629 -0.14895,-0.3511 -0.30855,-0.69157 -0.5107,-0.87244 -0.0106,0 -0.0532,0.0106 -0.0638,0.0213 -0.0958,0.0319 -0.21279,-0.12767 -0.12767,-0.20215 0.0319,-0.0319 0.0532,-0.22343 0.0532,-0.29791 -0.0106,-0.46814 -0.24471,-0.80861 -0.47878,-1.07459 -0.0745,-0.0745 -0.13832,-0.13832 -0.20215,-0.20216 -0.0426,-0.37238 -0.31919,-0.64901 -0.72349,-0.88308 -1.27675,-1.28739 -2.07472,-2.68117 -3.25571,-3.23443 -0.0426,0.6703 0.23407,1.35123 0.70221,1.74489 0.30855,0.26599 0.74477,0.79797 1.01076,1.28739 0,0 0.0106,0 0.0106,0 0,0.0106 0.38302,0.57453 0.27663,0.93628 -0.46814,-0.54262 -0.74477,-0.93628 -1.0746,-1.35122 0,0 0,0 0,0 -0.78732,-0.79797 -1.68105,-1.5853 -2.64925,-2.23431 -1.52144,-1.01076 -3.71319,-1.81937 -4.55372,-1.92576 -0.0426,-0.0106 -0.0958,-0.0106 -0.14895,-0.0106 z m 3.31954,4.09623 c 0.10639,0.0745 0.34047,0.62773 0.64901,1.03204 0.42558,0.56389 1.31931,0.95756 1.75553,1.06395 0.23407,0.0638 0.61709,0.12768 0.76605,0.21279 -0.32983,0.0851 -1.55338,-0.27662 -2.17047,-0.61709 -0.5107,-0.34047 -0.95756,-1.0746 -1.00012,-1.69169 z m 5.23466,2.96844 c 0.21279,0 0.1596,0.0851 0.31919,0.12767 0.15959,0.0426 0.32983,-0.0106 0.50006,0.0426 0.0638,0.0213 0.13831,0.0958 0.17023,0.14895 0.0426,0.0745 0.0958,0.0958 0.12768,0.14896 0.0638,0.10639 0.0532,0.21279 0.0532,0.30854 l -0.13831,0 0,-0.15959 c 0,-0.0319 -0.0106,-0.0638 -0.0745,-0.0638 -0.0745,0 -0.0745,0.0638 -0.0745,0.0958 0.0106,0.0319 0.0106,0.0638 -0.0106,0.0851 0,0.0213 -0.0106,0.0319 -0.0319,0.0319 -0.0213,0.0106 -0.0638,0.0106 -0.0638,0.0106 -0.11703,0 -0.23407,0.0106 -0.28727,-0.0319 -0.0638,-0.0425 -0.0851,-0.11703 -0.0851,-0.19151 0,-0.0319 -0.0106,-0.0426 -0.0213,-0.0532 -0.0106,-0.0106 -0.0213,-0.0213 -0.0426,-0.0319 -0.0426,-0.0213 -0.12767,-0.0426 -0.18087,-0.0958 -0.0426,-0.0426 -0.0426,-0.0851 -0.0532,-0.11704 0,-0.0213 0.0106,-0.0745 0,-0.0851 -0.0426,-0.0426 -0.0851,-0.0106 -0.14895,-0.0319 -0.0319,0 -0.0638,-0.0106 -0.0851,-0.0319 -0.0319,-0.0213 -0.0426,-0.0426 -0.0426,-0.0851 l 0,-0.0213 c 0,0 0.11704,0 0.17024,0 z m -1.79808,3.70256 c 0,0 -0.0958,0.44687 -0.36175,0.44687 -0.37238,0 -0.46814,-0.19152 -0.60645,-0.41495 0,0 -0.35111,0.53198 -0.63838,0.53198 -0.32982,0 -0.41494,-0.14895 -0.41494,-0.14895 0,0 -0.19151,0.13831 -0.41494,0.12767 -0.22343,-0.0106 -0.36175,-0.14895 -0.36175,-0.14895 0,0 -0.48942,0.37238 -0.63837,0.20215 -0.42558,0.28727 -0.71285,0.79797 -0.70221,1.52146 -0.52134,1.03203 -0.78733,2.4471 -0.85117,3.73448 -0.0213,0.25535 -0.0425,0.6171 0.0958,0.77669 -0.0319,0.54262 -0.18087,1.17035 0.0213,1.61721 0.37238,0.63838 3.29826,0.1596 4.91547,0.18088 1.51082,0.0319 3.14931,0.27662 4.78781,0.27662 0.47878,0 1.3725,-0.0532 2.21302,-0.13831 0.84053,-0.0851 1.50018,-0.41494 1.86193,-0.57454 0,-0.44686 0.0213,-1.07459 -0.0213,-1.56401 -0.60646,-0.40431 -0.37239,-1.1278 -0.5639,-1.76617 0.12768,-0.23407 -0.1064,-0.57453 -0.43622,-0.57453 0,-1.09588 -0.18088,-1.88321 -0.915,-2.40455 l -0.12768,0 c 0,-0.39366 -0.23407,-0.68093 -0.54262,-0.92564 0,0.1064 -0.27662,0.13832 -0.43622,0.0745 0,0.39366 -0.8086,0.19151 -0.98948,0.0213 0.12768,0.43622 -0.72349,0.29791 -1.0214,-0.0106 0.0319,0.36175 -0.64901,0.23407 -0.87244,-0.0638 0.0426,0.23407 -0.18087,0.25535 -0.42558,0.1596 -0.24471,-0.0958 -0.52134,-0.31919 -0.58518,-0.42559 -0.0106,0.11704 -0.0425,0.23408 -0.14895,0.26599 -0.44686,0.11704 -0.82989,-0.5107 -0.82989,-0.5107 0,0 -0.0745,0.23408 -0.38302,0.25535 -0.47878,0.0319 -0.60646,-0.52133 -0.60646,-0.52133 z"
       style="fill:#cc1100;fill-opacity:1;fill-rule:nonzero;stroke:none"
       inkscape:connector-curvature="0" />
    <path
       id="path3104"
       d="m 240.45369,131.26713 c -0.35111,-0.0106 -0.52134,-0.23407 -0.53198,-0.60646 -0.0106,-0.41494 0.21279,-0.69157 0.63837,-0.62773 0.22343,0.0319 0.40431,0.4043 0.40431,0.69157 0,0.29791 -0.23408,0.56389 -0.5107,0.54262 z"
       style="fill:none;stroke:#000000;stroke-width:0.06383736px;stroke-linecap:butt;stroke-linejoin:miter;stroke-miterlimit:4;stroke-opacity:1;stroke-dasharray:none"
       inkscape:connector-curvature="0" />
    <path
       id="path3108"
       d="m 232.48466,118.73372 c -0.20216,-0.19151 -0.37239,-0.31918 -0.5639,-0.47878 m 9.30961,10.21398 c 0.19152,0.63837 -0.0426,1.36186 0.5639,1.76617 0.0426,0.48942 0.0106,1.11715 0.0106,1.56401 -0.3511,0.1596 -1.01076,0.48942 -1.85128,0.57454 -0.84053,0.0851 -1.73425,0.12767 -2.21303,0.12767 -1.63849,0 -3.27699,-0.23407 -4.7878,-0.25534 -1.61722,-0.0319 -4.5431,0.44686 -4.91548,-0.19152 -0.20215,-0.44686 -0.0532,-1.07459 -0.0213,-1.61721 -0.13831,-0.15959 -0.11703,-0.52134 -0.0958,-0.77669 0.0638,-1.28738 0.32982,-2.69181 0.85116,-3.73448 -0.0106,-0.73413 0.27663,-1.24483 0.71285,-1.54274 -0.0213,-0.46814 0.18087,-0.77669 0.52134,-0.80861 0.4043,-0.69157 1.07459,-0.58517 1.58529,-0.77668 0.21279,-0.0745 0.71286,-0.73413 1.03204,-1.0214 0.19151,-0.1596 0,-1.13844 0.21279,-1.51082 0.0426,-0.0851 0.0532,-0.23407 0.0213,-0.29791 -0.14895,-0.25535 -0.47878,-0.19151 -0.75541,-0.29791 -0.57454,-0.21279 -1.4257,-0.43622 -1.85128,-0.7554 -0.28727,-0.22344 -0.48942,-0.5107 -0.64901,-0.87245 -0.14896,-0.3511 -0.25536,-0.94692 -0.4575,-1.08523 0.79796,0.0958 1.27674,0.18087 1.69168,0.60645 0.21279,0.22343 0.71285,0.5107 1.08524,0.69157 -0.80861,-1.46826 -1.78745,-2.17047 -2.94716,-3.05355 -1.48953,-1.13843 -3.12802,-1.76617 -3.15994,-1.94704 -0.0426,-0.22343 0.31919,-0.22343 0.48942,-0.20215 0.84053,0.10639 3.03228,0.915 4.55373,1.92576 1.4257,0.95756 2.68117,2.20239 3.68129,3.35146 0,-0.53198 -0.77669,-1.58529 -1.25547,-1.9896 -0.46814,-0.39366 -0.74477,-1.07459 -0.70221,-1.74489 1.18099,0.55326 1.97896,1.94704 3.25571,3.23443 0.4043,0.23407 0.68093,0.5107 0.72349,0.88308 0.23407,0.23407 0.61709,0.63838 0.79796,0.73413 -0.0638,0.2128 0.1596,0.43623 0.0106,0.72349 -0.0319,0.0851 -0.0958,0.12768 -0.0851,0.22343 0.37238,0.30855 0.67029,1.25547 0.97884,1.76617 0.21279,0.34047 0.71285,0.68093 0.74477,0.90436 0.0532,0.42559 -0.31919,0.65966 -0.35111,1.05332 0.11703,0.22343 0.29791,0.29791 0.43622,0.36175 0.36175,0.26599 0.65966,0.56389 0.65966,1.01075 l 0.12767,0 c 0.73413,0.52134 0.915,1.30867 0.915,2.40455 0.32983,0 0.5639,0.34046 0.43622,0.57453 z"
       style="fill:none;stroke:#000000;stroke-width:0.06383736px;stroke-linecap:butt;stroke-linejoin:miter;stroke-miterlimit:4;stroke-opacity:1;stroke-dasharray:none"
       inkscape:connector-curvature="0" />
    <path
       id="path3114"
       d="m 236.37873,128.28805 c -0.34046,0 -0.68093,0.0319 -1.04267,0.0958 -1.30867,0.2128 -1.9896,0.39367 -3.50042,0.26599 -1.10651,-0.0851 -1.61721,0.0745 -2.31942,0.40431 -0.15959,0.0745 -0.55326,0.0851 -0.88309,0.10639 -0.31918,0.0106 -0.55325,0 -0.55325,0 -0.13832,0 -0.27663,0.11704 -0.27663,0.25535 -0.0106,0.13832 0.11703,0.27663 0.25535,0.27663 0,0 0.25535,0.0106 0.60645,0 0.35111,-0.0213 0.75541,-0.0958 1.0746,-0.24471 0.68093,-0.31919 1.00012,-0.39366 2.0428,-0.30855 1.56401,0.12768 2.3407,-0.0532 3.63872,-0.27662 1.34059,-0.22344 2.45774,0.0638 3.50042,0.28726 0.90436,0.19152 2.27686,0.20215 2.27686,0.20215 0.13832,0 0.26599,-0.12767 0.27663,-0.26598 0,-0.13832 -0.12767,-0.26599 -0.26598,-0.26599 0,0 -1.38315,-0.0213 -2.17048,-0.19152 -0.78732,-0.15959 -1.65977,-0.36174 -2.65989,-0.34046 z"
       style="fill:#cc1100;fill-opacity:1;fill-rule:nonzero;stroke:none"
       inkscape:connector-curvature="0" />
    <path
       id="path3120"
       d="m 236.37873,128.28805 c -0.34046,0 -0.68093,0.0319 -1.04267,0.0958 -1.30867,0.2128 -1.9896,0.39367 -3.50042,0.26599 -1.10651,-0.0851 -1.61721,0.0745 -2.31942,0.40431 -0.15959,0.0745 -0.55326,0.0851 -0.88309,0.10639 -0.31918,0.0106 -0.55325,0 -0.55325,0 -0.13832,0 -0.27663,0.11704 -0.27663,0.25535 -0.0106,0.13832 0.11703,0.27663 0.25535,0.27663 0,0 0.25535,0.0106 0.60645,0 0.35111,-0.0213 0.75541,-0.0958 1.0746,-0.24471 0.68093,-0.31919 1.00012,-0.39366 2.0428,-0.30855 1.56401,0.12768 2.3407,-0.0532 3.63872,-0.27662 1.34059,-0.22344 2.45774,0.0638 3.50042,0.28726 0.90436,0.19152 2.27686,0.20215 2.27686,0.20215 0.13832,0 0.26599,-0.12767 0.27663,-0.26598 0,-0.13832 -0.12767,-0.26599 -0.26598,-0.26599 0,0 -1.38315,-0.0213 -2.17048,-0.19152 -0.78732,-0.15959 -1.65977,-0.36174 -2.65989,-0.34046 z"
       style="fill:none;stroke:#000000;stroke-width:0.06383736px;stroke-linecap:butt;stroke-linejoin:miter;stroke-miterlimit:4;stroke-opacity:1;stroke-dasharray:none"
       inkscape:connector-curvature="0" />
    <path
       id="path3122"
       d="m 234.81472,126.33037 c 0.27663,0.0851 0.44686,0.0213 0.56389,-0.15959 0.23408,0.22343 0.70222,0.18087 0.85117,-0.0319 0.35111,0.32982 0.79797,0.14895 0.92564,-0.0426 0.21279,0.32983 0.59582,0.28727 0.81925,0.0958 0.12767,0.20215 0.5107,0.34046 0.73413,0.19151 m 1.17035,-0.89373 c -0.79797,0 -1.4257,-0.12767 -2.19175,-0.19151 -0.76605,-0.0532 -1.60657,-0.0213 -2.69181,0.0958 -1.04268,0.11703 -2.08535,0.0213 -3.09611,0.11703 -1.06396,0.0958 -2.27687,0.25535 -3.18123,0.50006 m 0.64901,0.78733 c 0.17024,0.11704 0.54262,0 0.65966,-0.21279 0.18087,0.17023 0.59581,0.19151 0.69157,-0.1064 0.21279,0.23407 0.56389,0.19152 0.69157,-0.0638 0.26599,0.22343 0.54262,0.13831 0.71285,-0.0213"
       style="fill:none;stroke:#000000;stroke-width:0.06383736px;stroke-linecap:butt;stroke-linejoin:miter;stroke-miterlimit:4;stroke-opacity:1;stroke-dasharray:none"
       inkscape:connector-curvature="0" />
    <path
       id="path3128"
       d="m 229.67581,128.63915 c 0,0.13832 -0.10639,0.25535 -0.25535,0.25535 -0.13831,0 -0.24471,-0.11703 -0.24471,-0.25535 0,-0.13831 0.1064,-0.25535 0.24471,-0.25535 0.14896,0 0.25535,0.11704 0.25535,0.25535 z"
       style="fill:none;stroke:#000000;stroke-width:0.06383736px;stroke-linecap:butt;stroke-linejoin:miter;stroke-miterlimit:4;stroke-opacity:1;stroke-dasharray:none"
       inkscape:connector-curvature="0" />
    <path
       id="path3130"
       d="m 232.04843,126.10694 c 0,0.14895 -0.10639,0.25535 -0.24471,0.25535 -0.13831,0 -0.25535,-0.1064 -0.25535,-0.25535 0,-0.13832 0.11704,-0.24471 0.25535,-0.24471 0.13832,0 0.24471,0.10639 0.24471,0.24471 z"
       style="fill:none;stroke:#000000;stroke-width:0.06383736px;stroke-linecap:butt;stroke-linejoin:miter;stroke-miterlimit:4;stroke-opacity:1;stroke-dasharray:none"
       inkscape:connector-curvature="0" />
    <path
       id="path3136"
       d="m 235.35734,127.93694 c 0,0.13832 -0.11704,0.25535 -0.25535,0.25535 -0.13832,0 -0.24471,-0.11703 -0.24471,-0.25535 0,-0.13831 0.10639,-0.24471 0.24471,-0.24471 0.13831,0 0.25535,0.1064 0.25535,0.24471 z"
       style="fill:none;stroke:#000000;stroke-width:0.06383736px;stroke-linecap:butt;stroke-linejoin:miter;stroke-miterlimit:4;stroke-opacity:1;stroke-dasharray:none"
       inkscape:connector-curvature="0" />
    <path
       id="path3142"
       d="m 231.81436,128.0327 c 0,0.13831 -0.10639,0.25535 -0.24471,0.25535 -0.14895,0 -0.25535,-0.11704 -0.25535,-0.25535 0,-0.13831 0.1064,-0.24471 0.25535,-0.24471 0.13832,0 0.24471,0.1064 0.24471,0.24471 z"
       style="fill:none;stroke:#000000;stroke-width:0.06383736px;stroke-linecap:butt;stroke-linejoin:miter;stroke-miterlimit:4;stroke-opacity:1;stroke-dasharray:none"
       inkscape:connector-curvature="0" />
    <path
       id="path3144"
       d="m 241.23037,128.46892 c -0.36174,0 -0.4043,-0.25535 -0.64901,-0.36174 m -5.87304,-0.47878 c 0.25535,-0.23407 0.52134,-0.14896 0.62774,-0.0106 0.18087,-0.29791 0.69157,-0.43622 0.92564,-0.0745 0.15959,-0.28727 0.60645,-0.39366 0.79797,-0.1064 0.30854,-0.28726 0.63837,-0.23407 0.79796,0.0532 0.19152,-0.15959 0.35111,-0.15959 0.54262,-0.0638 m -9.29898,0.915 c 0.17024,-0.22343 0.46815,-0.20215 0.58518,-0.0213 0.18087,-0.28727 0.50006,-0.43622 0.75541,-0.21279 0.0745,-0.25535 0.43622,-0.44687 0.69157,-0.20216 0.0851,-0.24471 0.31919,-0.3511 0.54262,-0.27662"
       style="fill:none;stroke:#000000;stroke-width:0.06383736px;stroke-linecap:butt;stroke-linejoin:miter;stroke-miterlimit:4;stroke-opacity:1;stroke-dasharray:none"
       inkscape:connector-curvature="0" />
    <path
       id="path3150"
       d="m 230.40994,128.41572 c 0,0.13832 -0.11703,0.25535 -0.25535,0.25535 -0.13831,0 -0.24471,-0.11703 -0.24471,-0.25535 0,-0.13831 0.1064,-0.24471 0.24471,-0.24471 0.13832,0 0.25535,0.1064 0.25535,0.24471 z"
       style="fill:none;stroke:#000000;stroke-width:0.06383736px;stroke-linecap:butt;stroke-linejoin:miter;stroke-miterlimit:4;stroke-opacity:1;stroke-dasharray:none"
       inkscape:connector-curvature="0" />
    <path
       id="path3156"
       d="m 231.11215,128.21357 c 0,0.13832 -0.10639,0.25535 -0.24471,0.25535 -0.13831,0 -0.25535,-0.11703 -0.25535,-0.25535 0,-0.13831 0.11704,-0.24471 0.25535,-0.24471 0.13832,0 0.24471,0.1064 0.24471,0.24471 z"
       style="fill:none;stroke:#000000;stroke-width:0.06383736px;stroke-linecap:butt;stroke-linejoin:miter;stroke-miterlimit:4;stroke-opacity:1;stroke-dasharray:none"
       inkscape:connector-curvature="0" />
    <path
       id="path3162"
       d="m 236.1021,127.79863 c 0,0.13831 -0.11703,0.25535 -0.25534,0.25535 -0.13832,0 -0.25535,-0.11704 -0.25535,-0.25535 0,-0.13832 0.11703,-0.25535 0.25535,-0.25535 0.13831,0 0.25534,0.11703 0.25534,0.25535 z"
       style="fill:none;stroke:#000000;stroke-width:0.06383736px;stroke-linecap:butt;stroke-linejoin:miter;stroke-miterlimit:4;stroke-opacity:1;stroke-dasharray:none"
       inkscape:connector-curvature="0" />
    <path
       id="path3168"
       d="m 236.95327,127.72415 c 0,0.13832 -0.10639,0.25535 -0.24471,0.25535 -0.14895,0 -0.25535,-0.11703 -0.25535,-0.25535 0,-0.13831 0.1064,-0.24471 0.25535,-0.24471 0.13832,0 0.24471,0.1064 0.24471,0.24471 z"
       style="fill:none;stroke:#000000;stroke-width:0.06383736px;stroke-linecap:butt;stroke-linejoin:miter;stroke-miterlimit:4;stroke-opacity:1;stroke-dasharray:none"
       inkscape:connector-curvature="0" />
    <path
       id="path3174"
       d="m 237.7406,127.76671 c 0,0.13831 -0.1064,0.24471 -0.24471,0.24471 -0.13832,0 -0.25535,-0.1064 -0.25535,-0.24471 0,-0.13831 0.11703,-0.25535 0.25535,-0.25535 0.13831,0 0.24471,0.11704 0.24471,0.25535 z"
       style="fill:none;stroke:#000000;stroke-width:0.06383736px;stroke-linecap:butt;stroke-linejoin:miter;stroke-miterlimit:4;stroke-opacity:1;stroke-dasharray:none"
       inkscape:connector-curvature="0" />
    <path
       id="path3180"
       d="m 238.52792,127.87311 c 0,0.13831 -0.11703,0.24471 -0.25534,0.24471 -0.13832,0 -0.25535,-0.1064 -0.25535,-0.24471 0,-0.13832 0.11703,-0.25535 0.25535,-0.25535 0.13831,0 0.25534,0.11703 0.25534,0.25535 z"
       style="fill:none;stroke:#000000;stroke-width:0.06383736px;stroke-linecap:butt;stroke-linejoin:miter;stroke-miterlimit:4;stroke-opacity:1;stroke-dasharray:none"
       inkscape:connector-curvature="0" />
    <path
       id="path3186"
       d="m 229.84604,126.37293 c 0,0.13831 -0.11703,0.24471 -0.25535,0.24471 -0.13831,0 -0.25534,-0.1064 -0.25534,-0.24471 0,-0.13832 0.11703,-0.25535 0.25534,-0.25535 0.13832,0 0.25535,0.11703 0.25535,0.25535 z"
       style="fill:none;stroke:#000000;stroke-width:0.06383736px;stroke-linecap:butt;stroke-linejoin:miter;stroke-miterlimit:4;stroke-opacity:1;stroke-dasharray:none"
       inkscape:connector-curvature="0" />
    <path
       id="path3192"
       d="m 230.56954,126.27717 c 0,0.13832 -0.1064,0.25535 -0.24471,0.25535 -0.13832,0 -0.25536,-0.11703 -0.25536,-0.25535 0,-0.13831 0.11704,-0.24471 0.25536,-0.24471 0.13831,0 0.24471,0.1064 0.24471,0.24471 z"
       style="fill:none;stroke:#000000;stroke-width:0.06383736px;stroke-linecap:butt;stroke-linejoin:miter;stroke-miterlimit:4;stroke-opacity:1;stroke-dasharray:none"
       inkscape:connector-curvature="0" />
    <path
       id="path3198"
       d="m 231.3143,126.19206 c 0,0.13831 -0.11703,0.25534 -0.25535,0.25534 -0.13831,0 -0.24471,-0.11703 -0.24471,-0.25534 0,-0.13832 0.1064,-0.25535 0.24471,-0.25535 0.13832,0 0.25535,0.11703 0.25535,0.25535 z"
       style="fill:none;stroke:#000000;stroke-width:0.06383736px;stroke-linecap:butt;stroke-linejoin:miter;stroke-miterlimit:4;stroke-opacity:1;stroke-dasharray:none"
       inkscape:connector-curvature="0" />
    <path
       id="path3204"
       d="m 235.27222,125.93671 c 0,0.13831 -0.11704,0.24471 -0.25535,0.24471 -0.13831,0 -0.25535,-0.1064 -0.25535,-0.24471 0,-0.13832 0.11704,-0.25535 0.25535,-0.25535 0.13831,0 0.25535,0.11703 0.25535,0.25535 z"
       style="fill:none;stroke:#000000;stroke-width:0.06383736px;stroke-linecap:butt;stroke-linejoin:miter;stroke-miterlimit:4;stroke-opacity:1;stroke-dasharray:none"
       inkscape:connector-curvature="0" />
    <path
       id="path3210"
       d="m 236.09147,125.89415 c 0,0.13831 -0.1064,0.25535 -0.24471,0.25535 -0.14896,0 -0.25535,-0.11704 -0.25535,-0.25535 0,-0.13832 0.10639,-0.25535 0.25535,-0.25535 0.13831,0 0.24471,0.11703 0.24471,0.25535 z"
       style="fill:none;stroke:#000000;stroke-width:0.06383736px;stroke-linecap:butt;stroke-linejoin:miter;stroke-miterlimit:4;stroke-opacity:1;stroke-dasharray:none"
       inkscape:connector-curvature="0" />
    <path
       id="path3216"
       d="m 237.01711,125.89415 c 0,0.13831 -0.11704,0.25535 -0.25535,0.25535 -0.13832,0 -0.24471,-0.11704 -0.24471,-0.25535 0,-0.13832 0.10639,-0.25535 0.24471,-0.25535 0.13831,0 0.25535,0.11703 0.25535,0.25535 z"
       style="fill:none;stroke:#000000;stroke-width:0.06383736px;stroke-linecap:butt;stroke-linejoin:miter;stroke-miterlimit:4;stroke-opacity:1;stroke-dasharray:none"
       inkscape:connector-curvature="0" />
    <path
       id="path3222"
       d="m 237.88955,125.89415 c 0,0.13831 -0.11703,0.25535 -0.25535,0.25535 -0.13831,0 -0.25535,-0.11704 -0.25535,-0.25535 0,-0.13832 0.11704,-0.24471 0.25535,-0.24471 0.13832,0 0.25535,0.10639 0.25535,0.24471 z"
       style="fill:none;stroke:#000000;stroke-width:0.06383736px;stroke-linecap:butt;stroke-linejoin:miter;stroke-miterlimit:4;stroke-opacity:1;stroke-dasharray:none"
       inkscape:connector-curvature="0" />
    <path
       id="path3228"
       d="m 238.7088,125.96862 c 0,0.13832 -0.11704,0.25535 -0.25535,0.25535 -0.13832,0 -0.24471,-0.11703 -0.24471,-0.25535 0,-0.13831 0.10639,-0.25534 0.24471,-0.25534 0.13831,0 0.25535,0.11703 0.25535,0.25534 z"
       style="fill:none;stroke:#000000;stroke-width:0.06383736px;stroke-linecap:butt;stroke-linejoin:miter;stroke-miterlimit:4;stroke-opacity:1;stroke-dasharray:none"
       inkscape:connector-curvature="0" />
    <path
       id="path3230"
       d="m 228.77145,125.94735 c -0.35111,-0.0958 -0.64901,0.8086 -0.84053,1.56401 -0.19151,0.74477 -0.19151,1.61721 0.20215,1.61721 0.63838,0 1.10652,-0.89372 1.20228,-1.44698 0.19151,-1.06395 -0.20216,-1.63849 -0.5639,-1.73424 z"
       style="fill:#cc1100;fill-opacity:1;fill-rule:nonzero;stroke:none"
       inkscape:connector-curvature="0" />
    <path
       id="path3232"
       d="m 227.93092,128.46892 c 0,0.1064 0.0958,0.15959 0.26599,0.12768 0.14896,-0.0213 0.30855,-0.34047 0.13832,-0.42559"
       style="fill:none;stroke:#000000;stroke-width:0.06383736px;stroke-linecap:butt;stroke-linejoin:miter;stroke-miterlimit:4;stroke-opacity:1;stroke-dasharray:none"
       inkscape:connector-curvature="0" />
    <path
       id="path3234"
       d="m 228.50546,128.0859 c 0.0958,0.12767 0.22343,0.0851 0.29791,-0.0213 0.0532,-0.0958 0.11703,-0.26599 0.11703,-0.39367 0,-0.11703 -0.0958,-0.20215 -0.26599,-0.11703"
       style="fill:none;stroke:#000000;stroke-width:0.06383736px;stroke-linecap:butt;stroke-linejoin:miter;stroke-miterlimit:4;stroke-opacity:1;stroke-dasharray:none"
       inkscape:connector-curvature="0" />
    <path
       id="path3236"
       d="m 228.43098,126.87299 c -0.0532,-0.47878 0.43623,-0.43622 0.59582,-0.12768 0.13831,0.25535 -0.0851,0.72349 -0.23407,0.54262"
       style="fill:none;stroke:#000000;stroke-width:0.06383736px;stroke-linecap:butt;stroke-linejoin:miter;stroke-miterlimit:4;stroke-opacity:1;stroke-dasharray:none"
       inkscape:connector-curvature="0" />
    <path
       id="path3240"
       d="m 228.77145,125.94735 c -0.35111,-0.0958 -0.64901,0.8086 -0.84053,1.56401 -0.19151,0.74477 -0.19151,1.61721 0.20215,1.61721 0.63838,0 1.10652,-0.89372 1.20228,-1.44698 0.19151,-1.06395 -0.20216,-1.63849 -0.5639,-1.73424 z"
       style="fill:none;stroke:#000000;stroke-width:0.06383736px;stroke-linecap:butt;stroke-linejoin:miter;stroke-miterlimit:4;stroke-opacity:1;stroke-dasharray:none"
       inkscape:connector-curvature="0" />
    <path
       id="path3242"
       d="m 227.96284,128.12846 c -0.20215,0 -0.28727,-0.37239 -0.24471,-0.60646 0.0319,-0.23407 0.24471,-0.44686 0.4575,-0.44686 0.27663,0 0.32983,0.30855 0.30855,0.55326 -0.0106,0.25535 -0.19151,0.50006 -0.52134,0.50006 z"
       style="fill:#cc1100;fill-opacity:1;fill-rule:nonzero;stroke:none"
       inkscape:connector-curvature="0" />
    <path
       id="path3246"
       d="m 227.96284,128.12846 c -0.20215,0 -0.28727,-0.37239 -0.24471,-0.60646 0.0319,-0.23407 0.24471,-0.44686 0.4575,-0.44686 0.27663,0 0.32983,0.30855 0.30855,0.55326 -0.0106,0.25535 -0.19151,0.50006 -0.52134,0.50006 z"
       style="fill:none;stroke:#000000;stroke-width:0.06383736px;stroke-linecap:butt;stroke-linejoin:miter;stroke-miterlimit:4;stroke-opacity:1;stroke-dasharray:none"
       inkscape:connector-curvature="0" />
    <path
       id="path3248"
       d="m 234.80408,127.13898 c -0.0426,0.88308 -0.65965,1.54273 -1.67041,1.61721 -0.86181,0.0638 -1.5321,-0.50006 -1.48954,-1.4789 0.0532,-0.89372 0.70221,-1.63849 1.65977,-1.68105 0.87245,-0.0426 1.55338,0.64901 1.50018,1.54274 z"
       style="fill:#cc1100;fill-opacity:1;fill-rule:nonzero;stroke:none"
       inkscape:connector-curvature="0" />
    <path
       id="path3252"
       d="m 233.71885,127.22409 c 0,0.30855 -0.25536,0.5639 -0.5639,0.5639 -0.30855,0 -0.5639,-0.25535 -0.5639,-0.5639 0,-0.30854 0.25535,-0.56389 0.5639,-0.56389 0.30854,0 0.5639,0.25535 0.5639,0.56389 z"
       style="fill:none;stroke:#000000;stroke-width:0.06383736px;stroke-linecap:round;stroke-linejoin:round;stroke-opacity:1;stroke-dasharray:none"
       inkscape:connector-curvature="0" />
    <path
       id="path3254"
       d="m 232.76128,128.04334 c -0.30854,0.26599 0.24471,0.28727 0.47878,0.28727 0.35111,0 0.77669,-0.0213 0.58518,-0.40431"
       style="fill:none;stroke:#000000;stroke-width:0.06383736px;stroke-linecap:butt;stroke-linejoin:miter;stroke-miterlimit:4;stroke-opacity:1;stroke-dasharray:none"
       inkscape:connector-curvature="0" />
    <path
       id="path3256"
       d="m 232.82512,126.52188 c -0.28727,-0.23407 0.14895,-0.44686 0.44686,-0.44686 0.4043,0 0.65966,0.18087 0.31919,0.47878"
       style="fill:none;stroke:#000000;stroke-width:0.06383736px;stroke-linecap:butt;stroke-linejoin:miter;stroke-miterlimit:4;stroke-opacity:1;stroke-dasharray:none"
       inkscape:connector-curvature="0" />
    <path
       id="path3260-1"
       d="m 233.87844,127.56456 c 0.28726,0.21279 0.43622,-0.0851 0.43622,-0.62774 0,-0.38302 -0.38302,-0.72349 -0.4575,-0.21279"
       style="fill:none;stroke:#000000;stroke-width:0.06383736px;stroke-linecap:butt;stroke-linejoin:miter;stroke-miterlimit:4;stroke-opacity:1;stroke-dasharray:none"
       inkscape:connector-curvature="0" />
    <path
       id="path3262-7"
       d="m 232.65489,126.69211 c -0.39367,-0.31918 -0.50006,0.17024 -0.58518,0.57454 -0.14895,0.6171 0.23407,0.95756 0.47878,0.57454"
       style="fill:none;stroke:#000000;stroke-width:0.06383736px;stroke-linecap:butt;stroke-linejoin:miter;stroke-miterlimit:4;stroke-opacity:1;stroke-dasharray:none"
       inkscape:connector-curvature="0" />
    <path
       id="path3264-4"
       d="m 234.80408,127.13898 c -0.0426,0.88308 -0.65965,1.54273 -1.67041,1.61721 -0.86181,0.0638 -1.5321,-0.50006 -1.48954,-1.4789 0.0532,-0.89372 0.70221,-1.63849 1.65977,-1.68105 0.87245,-0.0426 1.55338,0.64901 1.50018,1.54274 z"
       style="fill:none;stroke:#000000;stroke-width:0.06383736px;stroke-linecap:round;stroke-linejoin:round;stroke-opacity:1;stroke-dasharray:none"
       inkscape:connector-curvature="0" />
    <path
       id="path3266"
       d="m 240.94311,127.24537 c -0.0532,0.72349 -0.52134,1.37251 -1.19163,1.27675 -0.76605,-0.11704 -1.20228,-0.69157 -1.22356,-1.46826 -0.0213,-0.80861 0.54262,-1.31931 1.22356,-1.26611 0.67029,0.0532 1.24482,0.76605 1.19163,1.45762 z"
       style="fill:#cc1100;fill-opacity:1;fill-rule:nonzero;stroke:none"
       inkscape:connector-curvature="0" />
    <path
       id="path3270"
       d="m 240.23025,127.07514 c 0,0.26599 -0.21279,0.47878 -0.47877,0.47878 -0.25536,0 -0.46815,-0.21279 -0.46815,-0.47878 0,-0.25535 0.21279,-0.46814 0.46815,-0.46814 0.26598,0 0.47877,0.21279 0.47877,0.46814 z"
       style="fill:none;stroke:#000000;stroke-width:0.06383736px;stroke-linecap:round;stroke-linejoin:round;stroke-opacity:1;stroke-dasharray:none"
       inkscape:connector-curvature="0" />
    <path
       id="path3272"
       d="m 239.23014,127.54328 c 0,0.26599 0.0319,0.34047 0.30854,0.4575 0.18088,0.0745 0.45751,0.0638 0.45751,-0.12767"
       style="fill:none;stroke:#000000;stroke-width:0.06383736px;stroke-linecap:butt;stroke-linejoin:miter;stroke-miterlimit:4;stroke-opacity:1;stroke-dasharray:none"
       inkscape:connector-curvature="0" />
    <path
       id="path3274"
       d="m 239.44293,126.51124 c -0.24471,-0.28727 -0.47878,-0.0532 -0.54262,0.26599 -0.0638,0.29791 0,0.58518 0.27663,0.5639"
       style="fill:none;stroke:#000000;stroke-width:0.06383736px;stroke-linecap:butt;stroke-linejoin:miter;stroke-miterlimit:4;stroke-opacity:1;stroke-dasharray:none"
       inkscape:connector-curvature="0" />
    <path
       id="path3276"
       d="m 239.55996,126.35165 c -0.39366,-0.39366 0.0851,-0.35111 0.39366,-0.24471 0.23408,0.0745 0.43623,0.31919 0.2128,0.44686"
       style="fill:none;stroke:#000000;stroke-width:0.06383736px;stroke-linecap:butt;stroke-linejoin:miter;stroke-miterlimit:4;stroke-opacity:1;stroke-dasharray:none"
       inkscape:connector-curvature="0" />
    <path
       id="path3278"
       d="m 240.29409,126.77723 c 0.24471,-0.0532 0.21279,0.29791 0.22343,0.48942 0.0106,0.24471 -0.0851,0.55326 -0.32982,0.47878"
       style="fill:none;stroke:#000000;stroke-width:0.06383736px;stroke-linecap:butt;stroke-linejoin:miter;stroke-miterlimit:4;stroke-opacity:1;stroke-dasharray:none"
       inkscape:connector-curvature="0" />
    <path
       id="path3282"
       d="m 240.94311,127.24537 c -0.0532,0.72349 -0.52134,1.37251 -1.19163,1.27675 -0.76605,-0.11704 -1.20228,-0.69157 -1.22356,-1.46826 -0.0213,-0.80861 0.54262,-1.31931 1.22356,-1.26611 0.67029,0.0532 1.24482,0.76605 1.19163,1.45762 z"
       style="fill:none;stroke:#000000;stroke-width:0.06383736px;stroke-linecap:round;stroke-linejoin:round;stroke-opacity:1;stroke-dasharray:none"
       inkscape:connector-curvature="0" />
    <path
       id="path3290"
       d="m 229.08,130.79899 c -0.0319,0.31918 -0.0106,0.48941 0.0638,0.61709 0.0745,0.12767 0.22343,0.25535 0.45751,0.25535 0.23406,0 0.48941,-0.13832 0.55325,-0.38303 0.0532,-0.20215 0.0426,-0.42558 -0.0745,-0.59581 -0.11704,-0.18087 -0.25536,-0.32983 -0.25536,-0.32983 -0.46813,0 -0.70221,0.1064 -0.74476,0.43623 z"
       style="fill:none;stroke:#000000;stroke-width:0.06383736px;stroke-linecap:butt;stroke-linejoin:miter;stroke-miterlimit:4;stroke-opacity:1;stroke-dasharray:none"
       inkscape:connector-curvature="0" />
    <path
       id="path3296"
       d="m 231.67605,131.66079 c -0.35111,0 -0.59582,-0.20215 -0.6171,-0.57454 -0.0213,-0.4575 0.13832,-0.72349 0.7235,-0.72349 0.32982,0.17024 0.41494,0.43623 0.39366,0.77669 -0.0213,0.27663 -0.21279,0.52134 -0.50006,0.52134 z"
       style="fill:none;stroke:#000000;stroke-width:0.06383736px;stroke-linecap:butt;stroke-linejoin:miter;stroke-miterlimit:4;stroke-opacity:1;stroke-dasharray:none"
       inkscape:connector-curvature="0" />
    <path
       id="path3302"
       d="m 234.38914,130.25637 c -0.54262,-0.0426 -0.82989,0.12767 -0.81925,0.65965 0.0106,0.32983 0.21279,0.60646 0.59581,0.60646 0.35111,0 0.53198,-0.25535 0.52134,-0.68094 -0.0106,-0.23407 -0.17023,-0.4575 -0.2979,-0.58517 z"
       style="fill:none;stroke:#000000;stroke-width:0.06383736px;stroke-linecap:butt;stroke-linejoin:miter;stroke-miterlimit:4;stroke-opacity:1;stroke-dasharray:none"
       inkscape:connector-curvature="0" />
    <path
       id="path3310"
       d="m 236.54897,129.82015 c -0.57454,0.0532 -0.84053,0.19151 -0.75541,0.81924 0.0426,0.29791 0.25535,0.55326 0.59581,0.52134 0.41495,-0.0319 0.53198,-0.42558 0.47878,-0.78733 -0.0319,-0.21279 -0.17023,-0.41494 -0.31918,-0.55325 z"
       style="fill:none;stroke:#000000;stroke-width:0.06383736px;stroke-linecap:butt;stroke-linejoin:miter;stroke-miterlimit:4;stroke-opacity:1;stroke-dasharray:none"
       inkscape:connector-curvature="0" />
    <path
       id="path3318"
       d="m 238.79391,129.82015 c -0.57453,-0.0106 -0.71285,0.15959 -0.70221,0.65965 0.0106,0.37238 0.18088,0.61709 0.54262,0.61709 0.36175,0.0106 0.57454,-0.34046 0.5639,-0.68093 -0.0106,-0.24471 -0.19152,-0.59581 -0.40431,-0.59581 z"
       style="fill:none;stroke:#000000;stroke-width:0.06383736px;stroke-linecap:butt;stroke-linejoin:miter;stroke-miterlimit:4;stroke-opacity:1;stroke-dasharray:none"
       inkscape:connector-curvature="0" />
    <path
       id="path3320"
       d="m 241.80491,131.7991 c 0,-0.44686 0.0319,-1.07459 -0.0106,-1.56401 -3.75577,-0.90436 -5.18147,-0.4575 -7.41577,-0.0319 -1.5853,0.29791 -4.3303,-0.0319 -6.36246,0.23407 -0.0319,0.54262 -0.18087,1.17035 0.0213,1.61721 0.89372,-0.62773 5.1921,-0.0106 6.87315,-0.47878 2.30879,-0.65965 4.19199,-0.65965 6.89444,0.22343 z"
       style="fill:none;stroke:#000000;stroke-width:0.06383736px;stroke-linecap:butt;stroke-linejoin:round;stroke-opacity:1;stroke-dasharray:none"
       inkscape:connector-curvature="0" />
    <path
       id="path3322"
       d="m 241.83683,130.3734 c -0.53198,0.25535 -0.41494,0.85117 -0.0319,1.14908 0.54262,-0.41495 0.46814,-0.84053 0.0319,-1.14908 z"
       style="fill:#cc1100;fill-opacity:1;fill-rule:nonzero;stroke:none"
       inkscape:connector-curvature="0" />
    <path
       id="path3326"
       d="m 241.83683,130.3734 c -0.53198,0.25535 -0.41494,0.85117 -0.0319,1.14908 0.54262,-0.41495 0.46814,-0.84053 0.0319,-1.14908 z"
       style="fill:none;stroke:#000000;stroke-width:0.06383736px;stroke-linecap:butt;stroke-linejoin:miter;stroke-miterlimit:4;stroke-opacity:1;stroke-dasharray:none"
       inkscape:connector-curvature="0" />
    <path
       id="path3328"
       d="m 228.21819,130.45852 c -0.18087,0 -0.21279,-0.0213 -0.3511,0.0958 -0.18088,0.14895 -0.30855,0.39366 -0.30855,0.62773 0,0.23407 0.14895,0.39366 0.29791,0.53198 0.10639,0.10639 0.20215,0.0958 0.31918,0.0958 0.17024,0 0.34047,-0.27663 0.37239,-0.60645 0.0319,-0.34047 -0.0851,-0.74477 -0.32983,-0.74477 z"
       style="fill:#cc1100;fill-opacity:1;fill-rule:nonzero;stroke:none"
       inkscape:connector-curvature="0" />
    <path
       id="path3332"
       d="m 228.21819,130.45852 c -0.18087,0 -0.21279,-0.0213 -0.3511,0.0958 -0.18088,0.14895 -0.30855,0.39366 -0.30855,0.62773 0,0.23407 0.14895,0.39366 0.29791,0.53198 0.10639,0.10639 0.20215,0.0958 0.31918,0.0958 0.17024,0 0.34047,-0.27663 0.37239,-0.60645 0.0319,-0.34047 -0.0851,-0.74477 -0.32983,-0.74477 z"
       style="fill:none;stroke:#000000;stroke-width:0.06383736px;stroke-linecap:butt;stroke-linejoin:miter;stroke-miterlimit:4;stroke-opacity:1;stroke-dasharray:none"
       inkscape:connector-curvature="0" />
  </g>
  <path
     inkscape:connector-curvature="0"
     style="fill:#000000;fill-opacity:1;fill-rule:nonzero;stroke:none"
     d="m 199.86376,136.00173 c -1.17035,0.0851 -2.57477,1.39378 -2.61733,3.09611 -0.0745,3.83024 3.10675,6.34118 6.49013,8.26694 3.37274,1.91512 6.95828,3.04291 7.67113,4.40478 -4.17071,-1.22355 -10.25654,-3.25571 -11.39497,-5.22402 -1.27675,-2.34071 -3.39402,0.0745 -2.71309,2.35134 0.70221,2.33006 3.38338,3.89408 7.49025,5.00059 3.34082,0.89372 6.46885,1.27675 6.58589,2.46838 -2.14919,0.0426 -8.03287,-0.22343 -9.40537,-1.60657 -0.67029,-0.6703 -1.60658,-1.6385 -2.62797,-1.71297 -2.53222,-0.19152 -2.00024,2.98971 -0.94692,4.31966 1.89384,2.41518 8.25629,2.42582 13.40584,2.26623 -2.3407,1.9364 -10.01183,1.30866 -12.42701,-0.36175 -3.04291,-0.26599 -2.47901,3.50042 0.22344,4.34094 2.745,0.85116 8.26693,0.87244 10.76723,-0.38302 1.67041,-0.82989 1.4789,0.52134 1.4789,0.52134 -1.85128,1.20227 -6.16031,2.05343 -9.54369,1.94703 -2.12791,-0.0638 -3.29826,-1.8832 -4.36222,-0.84052 -1.50017,1.4789 0.0638,4.52181 3.94728,4.52181 3.58553,-0.0638 8.80956,-1.72361 11.02258,-3.48977 -0.28726,2.76628 -11.29921,8.24566 -14.04421,4.53245 -3.22379,1.12779 -1.09588,5.43682 1.56401,5.78792 5.78792,0.77669 9.97991,-3.8728 14.02294,-6.56461 -3.74512,3.8196 -9.1713,11.33113 -15.05498,8.29886 -2.96843,1.25547 0,5.3517 2.38327,5.3517 7.52216,0 12.35252,-7.3413 15.35288,-10.43741 -1.27675,4.76652 -4.97931,8.86275 -9.35217,9.26706 -0.81925,2.27686 2.20239,3.33018 3.8728,2.71308 3.92599,-1.46826 7.64984,-6.10711 8.30949,-9.71392 1.01076,1.96832 -1.25547,5.5645 -3.02163,6.26671 0.97884,3.08547 5.07507,0.32982 5.14955,-2.89396 0.69157,2.59605 -0.0851,5.36234 -1.45762,6.76676 -1.89385,1.96832 -3.69193,2.15983 -7.14979,1.85128 -0.0532,1.11715 0.20215,2.53222 0.69157,3.42594 0,0 -3.66001,-0.0851 -4.94739,0.28727 -1.15972,0.34046 -1.21291,0.97884 -2.48966,0.87244 -0.59582,-0.52134 -0.94692,-0.93628 -1.77681,-1.15971 -0.68093,-0.65965 -1.30866,-2.20239 -2.24494,-2.21303 -0.43623,-0.0106 -0.70221,0.1064 -1.10652,0.46814 -0.90436,-0.54262 -2.47902,0.13831 -2.745,1.11715 1.94704,0.0106 1.50017,1.87257 2.89396,1.87257 0.38302,0 0.65965,0.43622 0.65965,0.84052 -2.38326,-0.19151 -4.90484,-0.87244 -4.3835,1.74489 -1.31931,0.4575 -2.15983,1.75553 -1.40442,2.84076 0.42558,-0.42558 0.77669,-0.89372 1.30866,-1.08523 1.61722,0.9682 2.46838,-0.40431 3.47914,-0.98948 0.63837,-0.37238 1.76617,-0.24471 1.41506,0.32983 -0.46814,0.78732 -4.81972,1.96831 -3.57489,3.8196 -0.52134,1.7768 -0.19151,3.01099 1.03204,3.90472 -0.0213,-0.84053 0.14895,-1.87257 0.52134,-2.48966 2.62797,0 1.98959,-1.03204 2.81948,-2.27687 0.4043,-0.61709 1.56401,-2.11727 2.59605,-2.11727 2.70245,0 0.98948,4.75588 4.96868,4.39414 0.21279,0.93628 -0.47878,1.65977 -0.84053,2.12791 1.46826,-0.18087 2.74501,-0.87244 2.74501,-2.43646 1.61721,-5.1389 -4.57501,-3.85152 -4.57501,-6.43693 7.73496,0 11.29921,-1.05332 11.29921,4.47925 6.25606,-3.2557 5.3517,-11.4588 6.91571,-12.0227 0.91501,-0.32983 2.05344,0.31919 2.13855,1.41506 0.32983,4.12815 -1.43634,7.53281 -3.55361,10.02247 -2.02152,2.38326 -5.09635,2.77692 -8.57548,2.59605 0.13831,1.56402 0.82988,2.91524 1.54273,3.96856 5.53257,0 8.07543,-3.21315 10.16078,-6.25606 -0.14895,4.24518 -5.62833,6.89443 -9.38409,7.57536 0.90436,1.56402 1.65977,2.69181 2.67053,3.83024 3.62809,-2.06407 6.671,-4.85164 8.18182,-8.61804 -0.5107,4.36222 -3.04291,7.60729 -6.20286,9.6288 1.01076,1.59593 2.25558,2.68117 3.50041,3.63873 3.08548,-3.84088 4.17071,-8.77764 5.53258,-13.32073 0.0426,3.89408 -0.77669,11.06514 -3.09612,14.0655 1.13843,1.21291 2.98972,2.73437 4.34094,2.73437 1.35123,0 3.20251,-1.52146 4.34094,-2.73437 -2.31942,-3.00036 -3.12803,-10.17142 -3.09611,-14.0655 1.36187,4.54309 2.45774,9.47985 5.53257,13.32073 1.24483,-0.95756 2.48966,-2.0428 3.51106,-3.63873 -3.17059,-2.02151 -5.69217,-5.26658 -6.20287,-9.6288 1.50018,3.7664 4.55374,6.55397 8.17118,8.61804 1.0214,-1.13843 1.77681,-2.26622 2.68118,-3.83024 -3.75577,-0.68093 -9.23514,-3.33018 -9.3841,-7.57536 2.07472,3.04291 4.61757,6.25606 10.16078,6.25606 0.70221,-1.05332 1.40443,-2.40454 1.54274,-3.96856 -3.48978,0.18087 -6.55397,-0.21279 -8.57549,-2.59605 -2.11727,-2.48966 -3.88344,-5.89432 -3.56425,-10.02247 0.0851,-1.09587 1.23419,-1.74489 2.14919,-1.41506 1.56402,0.5639 0.64902,8.767 6.90507,12.0227 0,-5.53257 3.56426,-4.47925 11.30986,-4.47925 0,2.58541 -6.20286,1.29803 -4.58565,6.43693 0,1.56402 1.28739,2.25559 2.75564,2.43646 -0.36174,-0.46814 -1.05331,-1.19163 -0.85116,-2.12791 3.98984,0.36174 2.26623,-4.39414 4.97931,-4.39414 1.03204,0 2.18111,1.50018 2.59606,2.11727 0.82988,1.24483 0.19151,2.27687 2.80884,2.27687 0.38302,0.61709 0.55326,1.64913 0.52134,2.48966 1.22355,-0.89373 1.56401,-2.12792 1.04267,-3.90472 1.23419,-1.85129 -3.10675,-3.03228 -3.58553,-3.8196 -0.34046,-0.57454 0.77669,-0.70221 1.4257,-0.32983 1.01076,0.58517 1.86193,1.95768 3.4685,0.98948 0.54262,0.19151 0.88308,0.65965 1.31931,1.08523 0.75541,-1.08523 -0.0958,-2.38326 -1.40442,-2.84076 0.52133,-2.61733 -2.00024,-1.9364 -4.39414,-1.74489 0,-0.4043 0.28726,-0.84052 0.65965,-0.84052 1.39378,0 0.95756,-1.86193 2.9046,-1.87257 -0.26599,-0.97884 -1.84065,-1.65977 -2.74501,-1.11715 -0.4043,-0.36174 -0.68093,-0.47878 -1.10651,-0.46814 -0.93628,0.0106 -1.57466,1.55338 -2.24495,2.21303 -0.84053,0.22343 -1.18099,0.63837 -1.78745,1.15971 -1.27674,0.1064 -1.32994,-0.53198 -2.48965,-0.87244 -1.28739,-0.37239 -4.93676,-0.28727 -4.93676,-0.28727 0.48942,-0.89372 0.73413,-2.30879 0.69157,-3.42594 -3.46849,0.30855 -5.25594,0.11704 -7.16042,-1.85128 -1.3725,-1.40442 -2.14919,-4.17071 -1.44698,-6.76676 0.0638,3.22378 4.17071,5.97943 5.14955,2.89396 -1.77681,-0.70221 -4.0324,-4.29839 -3.03228,-6.26671 0.65966,3.60681 4.39414,8.24566 8.32014,9.71392 1.65977,0.6171 4.68141,-0.43622 3.8728,-2.71308 -4.3835,-0.40431 -8.07543,-4.50054 -9.35218,-9.26706 2.98972,3.09611 7.82008,10.43741 15.34225,10.43741 2.38326,0 5.3517,-4.09623 2.3939,-5.3517 -5.88368,3.03227 -11.32049,-4.47926 -15.05498,-8.29886 4.04303,2.69181 8.22438,7.3413 14.0123,6.56461 2.67053,-0.3511 4.79845,-4.66013 1.57466,-5.78792 -2.75565,3.71321 -13.76759,-1.76617 -14.05486,-4.53245 2.21303,1.76616 7.43705,3.42594 11.03322,3.48977 3.8728,0 5.43682,-3.04291 3.93664,-4.52181 -1.05331,-1.04268 -2.22367,0.77669 -4.35158,0.84052 -3.39402,0.1064 -7.70304,-0.74476 -9.54368,-1.94703 0,0 -0.19151,-1.35123 1.46825,-0.52134 2.51094,1.25546 8.02223,1.23418 10.76724,0.38302 2.70245,-0.84052 3.26634,-4.60693 0.22343,-4.34094 -2.40454,1.67041 -10.0863,2.29815 -12.42701,0.36175 5.14955,0.15959 11.51201,0.14895 13.41649,-2.26623 1.05332,-1.32995 1.57466,-4.51118 -0.95756,-4.31966 -1.01076,0.0745 -1.94704,1.04267 -2.61733,1.71297 -1.38315,1.38314 -7.26682,1.64913 -9.40537,1.60657 0.10639,-1.19163 3.24506,-1.57466 6.58589,-2.46838 4.10686,-1.10651 6.77739,-2.67053 7.4796,-5.00059 0.69157,-2.27687 -1.4257,-4.69205 -2.71308,-2.35134 -1.13844,1.96831 -7.22426,4.00047 -11.38433,5.22402 0.70221,-1.36187 4.28774,-2.48966 7.67112,-4.40478 3.38338,-1.92576 6.56461,-4.4367 6.47949,-8.26694 -0.0426,-1.81936 -1.62785,-3.18123 -2.83012,-3.09611 -0.73413,0.0532 -1.31931,0.63837 -1.3725,1.9364 -0.11704,2.88332 -7.97967,7.05403 -11.71416,9.6288 -0.29791,-0.24471 -0.53198,-0.57453 -0.76605,-0.915 -2.06407,1.19163 -9.00106,4.83036 -5.90495,9.29898 0.9682,1.40442 -1.91512,2.93651 -3.21315,2.57477 0.19151,-0.54262 0.34046,-1.09588 0.47878,-1.63849 -4.7878,0 -5.20275,-3.81961 -3.56425,-7.13915 1.63849,-3.31954 5.09635,-6.56461 7.91583,-6.69228 1.28739,0.61709 3.12803,0.72349 4.25582,-0.44686 l 2.23431,0 c 1.08524,0 1.81937,-0.71285 2.00024,-1.69169 0.19151,-0.97884 -0.53198,-2.3939 -1.35122,-1.60658 -0.48942,0.4575 0.17023,2.58542 -0.6171,2.58542 l -2.68117,0 c -0.70221,0 -1.39378,-0.24471 -1.9896,-0.60646 1.03204,-1.46826 2.45774,-1.01076 3.78769,0 1.14907,-3.02163 -1.84065,-2.8514 -4.18135,-2.8514 -1.21291,-1.3725 -2.78757,-1.51082 -4.44734,-1.4257 -1.59593,0.0745 -4.28774,0.19151 -5.20274,-0.98948 -0.22343,0.82989 -0.27663,2.92588 0.59582,3.98983 -1.38315,0 -4.04304,1.46826 -4.97932,3.03228 0.5639,0 1.22355,-0.0745 1.75553,0.0106 -1.72361,0.69157 -3.30891,2.5003 -4.37286,3.8728 0.32982,-0.0319 0.82988,0 1.20227,0.0213 -0.88308,0.87244 -1.28739,1.40442 -1.78745,2.21303 -0.50006,-0.80861 -0.90436,-1.34059 -1.7768,-2.21303 0.37238,-0.0213 0.8618,-0.0532 1.19163,-0.0213 -1.05332,-1.3725 -2.64925,-3.18123 -4.37286,-3.8728 0.54261,-0.0851 1.19163,-0.0106 1.76616,-0.0106 -0.93628,-1.56402 -3.59617,-3.03228 -4.97931,-3.03228 0.86181,-1.06395 0.80861,-3.15994 0.58518,-3.98983 -0.90437,1.18099 -3.60681,1.06396 -5.20275,0.98948 -1.65977,-0.0851 -3.23442,0.0532 -4.43669,1.4257 -2.35135,0 -5.33042,-0.17023 -4.19199,2.8514 1.34058,-1.01076 2.75564,-1.46826 3.78768,0 -0.58517,0.36175 -1.28738,0.60646 -1.9896,0.60646 l -2.67053,0 c -0.79796,0 -0.13831,-2.12792 -0.62773,-2.58542 -0.81925,-0.78732 -1.5321,0.62774 -1.35122,1.60658 0.19151,0.97884 0.92564,1.69169 2.01087,1.69169 l 2.22367,0 c 1.12779,1.17035 2.97908,1.06395 4.25583,0.44686 2.81948,0.12767 6.27734,3.37274 7.91583,6.69228 1.63849,3.31954 1.22355,7.13915 -3.56425,7.13915 0.14895,0.54261 0.28726,1.09587 0.48941,1.63849 -1.30866,0.36174 -4.18134,-1.17035 -3.21314,-2.57477 3.08547,-4.46862 -3.85152,-8.10735 -5.9156,-9.29898 -0.22343,0.34047 -0.4575,0.67029 -0.75541,0.915 -3.73448,-2.57477 -11.60776,-6.74548 -11.72479,-9.6288 -0.0532,-1.29803 -0.63837,-1.8832 -1.36186,-1.9364 -0.0745,0 -0.14896,0 -0.22344,0 z m 20.9493,2.61733 c 0.20215,-0.0106 0.42558,-0.0106 0.64901,0 0.0426,1.1278 -0.9682,1.68105 -1.79808,1.56402 -0.81925,-0.1064 -1.06396,-0.69157 -0.54262,-1.08524 0.50006,-0.38302 1.06395,-0.47878 1.69169,-0.47878 z m 25.71581,0 c 0.22344,-0.0106 0.44687,-0.0106 0.65966,0 0.62773,0 1.19163,0.0958 1.69169,0.47878 0.5107,0.39367 0.26599,0.97884 -0.55326,1.08524 -0.81925,0.11703 -1.83001,-0.43622 -1.79809,-1.56402 z"
     id="path3334" />
</svg>
