<?xml version="1.0" encoding="UTF-8" standalone="no"?>
<svg
   xmlns:dc="http://purl.org/dc/elements/1.1/"
   xmlns:cc="http://creativecommons.org/ns#"
   xmlns:rdf="http://www.w3.org/1999/02/22-rdf-syntax-ns#"
   xmlns:svg="http://www.w3.org/2000/svg"
   xmlns="http://www.w3.org/2000/svg"
   xmlns:sodipodi="http://sodipodi.sourceforge.net/DTD/sodipodi-0.dtd"
   xmlns:inkscape="http://www.inkscape.org/namespaces/inkscape"
   width="700"
   height="500"
   viewBox="0 0 560 400"
   version="1.1"
   id="svg2"
   inkscape:version="0.48.1 "
   sodipodi:docname="ppsh.svg">
  <metadata
     id="metadata48">
    <rdf:RDF>
      <cc:Work
         rdf:about="">
        <dc:format>image/svg+xml</dc:format>
        <dc:type
           rdf:resource="http://purl.org/dc/dcmitype/StillImage" />
      </cc:Work>
    </rdf:RDF>
  </metadata>
  <defs
     id="defs46" />
  <sodipodi:namedview
     pagecolor="#ffffff"
     bordercolor="#666666"
     borderopacity="1"
     objecttolerance="10"
     gridtolerance="10"
     guidetolerance="10"
     inkscape:pageopacity="0"
     inkscape:pageshadow="2"
     inkscape:window-width="1366"
     inkscape:window-height="706"
     id="namedview44"
     showgrid="false"
     inkscape:zoom="0.64"
     inkscape:cx="518.05072"
     inkscape:cy="229.165"
     inkscape:window-x="-8"
     inkscape:window-y="-8"
     inkscape:window-maximized="1"
     inkscape:current-layer="svg2"
     fit-margin-top="0"
     fit-margin-left="0"
     fit-margin-right="0"
     fit-margin-bottom="0" />
  <g
     id="g3036"
     transform="translate(-615.41608,-781.74951)" />
  <path
     style="color:#000000;fill:#cc1100;fill-opacity:1;fill-rule:evenodd;stroke:none;stroke-width:0;marker:none;visibility:visible;display:inline;overflow:visible;enable-background:accumulate"
     d="m 0,-2.2381775e-6 560,0 L 560,400 0,400 z"
     id="rect3046"
     inkscape:connector-curvature="0" />
  <g
     id="g3021"
     transform="translate(-1432.651,-779.94309)" />
  <path
     style="fill:#000000;fill-opacity:1;stroke:none"
     d="m 180.70026,105.31751 c -0.2094,-0.0136 -0.4234,0 -0.65,0.0248 -5.12569,0.53417 -8.99418,5.4209 -7.39998,12.55002 1.96599,8.79177 10.93397,13.46321 19.87494,16.60001 5.94959,2.08729 18.20516,3.70297 19.67495,5.05001 0.9917,0.9088 0.6997,2.60784 -2.34999,3.42504 -3.48059,0.84001 -7.30608,1.04361 -10.92497,0.60001 -5.12479,-0.62833 -13.11977,-3.84489 -14.79996,-4.72505 -2.2992,-1.20432 -3.36479,-3.96489 -3.92499,-4.52504 -0.72,-0.64 -1.1248,-0.75496 -2.325,-0.67496 -1.79749,0.11984 -2.34319,0.31912 -3.52499,2.45 -1.07729,1.94265 -2.43359,4.2872 -0.97499,9.12497 1.38699,2.97152 3.31649,6.12257 9.29997,8.32504 6.73608,2.47953 17.13666,0.83313 22.92494,-0.17496 0,0 5.37259,-0.88543 6.04998,-0.82503 1.9471,0.17368 2.0968,2.3896 0.55,3.25 -0.5944,0.33056 -2.76779,0.82504 -3.39999,1.02496 -5.02639,1.59032 -10.72057,2.53944 -16.29996,2.45008 -5.37978,-0.0863 -10.22107,-0.7248 -12.39996,-2.25008 -1.2002,-0.84 -1.985,-1.72496 -2.425,-1.92496 -0.43999,-0.2 -2.50069,-0.25064 -2.82499,-0.0752 -2.53419,1.37328 -3.36789,5.35689 -2.72499,8.25009 2.70729,9.5332 12.59227,8.30361 23.59994,5.9 2.10469,-0.55152 4.76528,-0.598 6.72498,-1.12504 1.55539,-0.41831 7.99438,-2.54408 9.94997,-1.77496 1.701,0.6688 1.046,2.66264 -0.075,3.34992 -4.72539,2.64312 -11.77007,5.81952 -18.82495,6.52505 -8.15838,0.81584 -13.77116,-0.48168 -14.84996,-1.07496 -1.0789,-0.59344 -1.66319,-0.9 -2.24999,-0.9 -1.8505,0 -2.3705,0.51416 -3.54999,3.1 -1.798,3.94137 1.06519,7.03265 2.09999,8.82497 0.5831,1.00992 4.13039,4.33384 12.22487,3.32497 11.62977,-1.46377 19.38265,-9.60002 27.47503,-9.60002 2.14469,0 -0.018,2.93529 -0.6751,3.45008 -1.6229,1.26993 -6.53679,4.26369 -12.97487,7.60001 -7.98558,4.13785 -19.75655,6.10145 -25.47493,3.42496 -1.2318,-0.61591 -2.32549,1.32729 -2.47499,2.00001 -0.1628,1.78776 -0.2662,3.6292 -0.325,4.10001 -1.5386,6.98576 5.64648,11.71969 13.52496,10.22496 7.33758,-1.392 10.26697,-3.15432 18.59995,-9.07497 5.71199,-4.05839 8.76808,-8.51688 11.52487,-8.2 0.5835,0.11568 1.0035,0.86151 0.3751,1.95 -0.9685,1.67768 -6.32028,7.23464 -10.19997,10.05 0,0 -10.59357,6.76306 -13.44997,8.35002 -2.85649,1.58696 -9.73357,6.04313 -15.39996,3.72496 -1.74579,-0.714 -2.68479,-1.314 -3.87499,-0.6 -1.19019,0.71416 -1.12079,2.25873 -1.19999,3.92504 -0.079,1.66633 0.075,5.07501 0.075,5.07501 0.7738,4.89581 6.84478,7.98181 10.72497,7.95001 9.41897,-0.078 20.32424,-11.85653 26.79993,-18.97502 1.32159,-1.45281 6.16518,-6.77825 6.79998,-7.17505 0.5,-0.31248 1.53959,0.12888 1.5,1.20001 -0.04,1.07111 -2.4586,3.89063 -5.02499,7.87504 -4.30019,7.4479 -11.82107,15.80852 -21.67494,22.50002 -2.2628,1.53661 -6.85968,2.08001 -12.84997,0.475 -1.97979,-0.5305 -2.45219,-0.6782 -3.32499,0.75 -0.8566,1.38011 -1.5634,2.94501 -1.825,4.17501 -1.55419,7.30621 4.73159,9.88051 10.14998,11.47501 9.19677,0.1748 16.84815,-5.63121 20.94994,-11.05001 6.24528,-6.9869 10.68787,-16.43792 15.07496,-23.62503 1.2547,-2.09119 2.88279,-3.84504 3.49999,-4.35 2.0843,-1.70528 3.92489,-0.24192 4.39999,2.22505 0.4818,2.50112 -0.4624,5.17556 -1.65,7.97497 -1.68899,3.9813 -5.49058,8.0414 -7.39998,9.925 -4.21848,4.21841 -7.30958,4.18161 -7.62498,5.15001 -1.07989,3.3154 0.5164,5.7051 2.825,6.80001 2.30859,1.09489 5.41428,0.4686 7.64998,-0.52501 3.30169,-1.9018 6.19618,-4.6816 8.49997,-8.025 2.3038,-3.34351 4.02589,-7.26401 4.97499,-11.47502 0.5794,-2.5697 1.9169,-4.6568 3.59999,-4.82501 1.6833,-0.1684 2.29439,0.90281 2.57499,2.02501 0.2805,1.12221 0.1761,2.2828 0.05,3.175 -0.4247,3.01661 -1.82519,6.07861 -3.54999,7.92501 -2.16709,2.3198 -4.80018,3.23741 -4.94998,3.57501 -0.1513,0.3404 -0.4269,1.1408 -0.2,2.19999 0.79689,3.55291 5.18618,2.32681 7.64998,0.97501 4.90898,-2.6933 7.15628,-7.96901 8.84997,-13.05001 1.6329,-5.51661 8.16988,-1.94661 4.99999,3.125 -3.36309,6.0307 -9.24358,10.64241 -15.82496,14.45002 -6.21418,3.5951 -12.17027,5.9622 -17.99995,9.9 1.90409,2.13731 4.27909,3.99281 6.29998,5.72501 -7.86528,3.58101 -15.43406,7.11911 -23.09993,10.70001 -5.38119,-2.11511 -9.27888,-4.2731 -15.47496,-5.65001 -1.3905,-2.7133 -7.94998,-2.7025 -7.94998,1.07501 -3.48709,-0.076 -3.54999,3.3761 -3.54999,6.3 1.08369,-0.69379 2.16709,-2.075 3.69999,-2.075 2.08749,2.4455 5.31788,2.5867 7.29998,0.2 2.50939,-0.2878 5.38338,0.3417 7.19998,1.25 -2.41869,1.1236 -4.58569,1.9275 -7.27498,2.52501 -3.72119,-1.54021 -6.12369,-0.59361 -6.89998,2.9 -1.836,0.6228 -1.8399,4.0707 -1.4,6.05 0.8867,-0.77869 1.7714,-1.6357 2.59999,-2.05 1.7091,0.1075 4.06889,0.7592 5.49999,-0.1 3.45909,-2.0766 6.42148,-4.53851 10.34997,-4.97501 -1.3093,2.46161 -3.85819,4.32631 -5.39998,6.12502 -3.063,0.3921 -5.96689,2.19919 -4.89999,5.4 -1.1739,3.1698 -0.2848,5.65061 2.02499,6.95 -0.148,-1.33399 -0.1108,-2.3535 0.5,-3.575 4.17449,0.077 6.69718,-1.8499 6.19999,-6.32501 2.61399,-2.5963 6.75798,-6.7268 9.89997,-7.425 1.62589,0.2245 3.45139,0.9254 5.09998,1.475 -0.072,3.75941 3.77659,4.5083 6.34999,2.9 0.9838,0.99091 1.32969,2.4109 0.9,3.70001 1.82769,-0.96971 2.24479,-3.32581 1.49999,-4.50001 0.5905,-3.7801 -0.7403,-5.30581 -5.29998,-5.02501 -2.2298,-0.81789 -4.58009,-1.57529 -5.67499,-1.975 8.63378,-3.0453 17.89505,-5.56511 25.64993,-8.15001 2.93439,2.592 5.92569,5.03271 8.77498,7.47501 6.62408,-4.5598 10.78027,-11.49201 14.32496,-17.90001 1.3169,-2.381 6.32468,-10.50341 7.49998,-11.62502 1.177,-1.1232 3.64019,-1.004 4.14999,0.625 0.897,2.86581 0.6672,10.63941 -1.875,16.05002 -3.86779,8.2321 -11.48667,14.81502 -23.09993,17.42502 -6.20559,0.9093 -10.10668,0.6641 -12.29997,0.45 -1.0966,-0.1068 -3.68229,-0.6486 -4.14999,1.5 -0.7787,3.5772 2.83849,7.3352 4.39999,8.42501 3.43989,2.4007 8.85127,3.2966 13.27496,1.675 6.36659,-2.33371 8.79118,-6.14261 12.29997,-9.15001 0.7319,-0.626 1.77299,-0.052 2.19999,0.375 1.3085,1.30861 -1.20849,7.56831 -5.34998,10.32501 -4.21309,2.8043 -13.44007,2.05991 -14.39996,2.32501 -0.9631,0.2661 -1.764,1.22009 -1.55,2.825 0.9543,6.0288 8.33158,9.7966 14.17496,6.875 3.01939,-1.4919 4.98039,-3.0054 6.89998,-4.925 1.5676,-1.5674 3.2616,-3.56851 3.84999,-4.05001 0.5885,-0.48139 1.6219,-0.43099 2.05,0.425 0.428,0.85581 -0.1912,3.52181 -0.35,3.95001 -1.4621,3.9438 -5.26849,7.4459 -7.77498,8.17501 -5.90078,1.7163 -9.43037,-1.21141 -9.94997,1.875 -0.5684,3.37471 4.32589,8.44181 9.99997,7.65001 7.39998,-1.0327 10.47267,-7.21951 13.62496,-12.12501 1.4595,-2.27121 4.20419,-1.61831 3.79999,1.74999 -0.81209,6.77171 -5.32768,12.84732 -8.82497,17.40003 4.36439,5.7143 9.63417,12.1247 13.77496,17.22501 4.14079,-5.10031 9.41057,-11.51071 13.77496,-17.22501 -3.49719,-4.55271 -8.01268,-10.62832 -8.82497,-17.40003 -0.404,-3.3683 2.34059,-4.0212 3.79999,-1.74999 3.15239,4.9055 6.22518,11.09231 13.62496,12.12501 5.67418,0.7918 10.59327,-4.2753 10.02497,-7.65001 -0.5198,-3.08641 -4.04919,-0.1587 -9.94997,-1.875 -2.50669,-0.72911 -6.33778,-4.23121 -7.79998,-8.17501 -0.1588,-0.4282 -0.7781,-3.0942 -0.35,-3.95001 0.4281,-0.85599 1.4616,-0.90639 2.05,-0.425 0.58839,0.4815 2.28249,2.48261 3.84999,4.05001 1.91959,1.9196 3.88059,3.4331 6.89998,4.925 5.84338,2.9216 13.22066,-0.8462 14.17496,-6.875 0.2141,-1.60491 -0.5868,-2.5589 -1.55,-2.825 -0.95979,-0.2651 -10.18677,0.47929 -14.39996,-2.32501 -4.14149,-2.7567 -6.63338,-9.0164 -5.32498,-10.32501 0.4271,-0.427 1.44319,-1.001 2.17499,-0.375 3.50879,3.0074 5.93358,6.8163 12.29997,9.15001 4.42379,1.6216 9.83507,0.7257 13.27496,-1.675 1.5614,-1.08981 5.17869,-4.84781 4.39999,-8.42501 -0.4678,-2.1486 -3.05329,-1.6068 -4.14999,-1.5 -2.19329,0.2141 -6.09448,0.4593 -12.29997,-0.45 -11.61336,-2.61 -19.23214,-9.19292 -23.09993,-17.42502 -2.5423,-5.41061 -2.7719,-13.18421 -1.875,-16.05002 0.5097,-1.629 2.97309,-1.7482 4.14999,-0.625 1.1754,1.12161 6.18308,9.24402 7.49998,11.62502 3.54489,6.408 7.70078,13.34021 14.32496,17.90001 2.84929,-2.4423 5.84059,-4.88301 8.77498,-7.47501 7.75498,2.5849 17.01625,5.10471 25.64993,8.15001 -1.0949,0.39971 -3.44519,1.15711 -5.67499,1.975 -4.55958,-0.2808 -5.89048,1.24491 -5.29998,5.02501 -0.7448,1.1742 -0.3278,3.5303 1.49999,4.50001 -0.42979,-1.28911 -0.083,-2.7091 0.9,-3.70001 2.5734,1.6083 6.42169,0.85941 6.34999,-2.9 1.64859,-0.5496 3.47429,-1.2505 5.09998,-1.475 3.14199,0.6982 7.28608,4.8287 9.89998,7.425 -0.4972,4.47511 2.02559,6.40221 6.19998,6.32501 0.6107,1.2215 0.6479,2.24101 0.5,3.575 2.30979,-1.29939 3.19869,-3.7802 2.02499,-6.95 1.0669,-3.20081 -1.83689,-5.0079 -4.89999,-5.4 -1.54179,-1.79871 -4.09068,-3.66341 -5.39998,-6.12502 3.92839,0.4365 6.89088,2.89841 10.34997,4.97501 1.4311,0.8592 3.79089,0.2075 5.49999,0.1 0.82869,0.4143 1.73799,1.27131 2.62499,2.05 0.4398,-1.9793 0.436,-5.4272 -1.4,-6.05 -0.77639,-3.49361 -3.20389,-4.44021 -6.92498,-2.9 -2.68919,-0.59751 -4.85628,-1.40141 -7.27498,-2.52501 1.8165,-0.9083 4.69059,-1.5378 7.19998,-1.25 1.982,2.3867 5.21249,2.2455 7.29998,-0.2 1.5328,0 2.6162,1.38121 3.69999,2.075 0,-2.9239 -0.063,-6.3759 -3.54999,-6.3 0,-3.77751 -6.55958,-3.78831 -7.94998,-1.07501 -6.19618,1.37691 -10.09377,3.5349 -15.47495,5.65001 -7.66588,-3.5809 -15.23486,-7.119 -23.09994,-10.70001 2.02079,-1.7322 4.39589,-3.5877 6.29998,-5.72501 -5.82968,-3.9378 -11.78577,-6.3049 -17.99995,-9.9 -6.58138,-3.80761 -12.43687,-8.41932 -15.79996,-14.45002 -3.16969,-5.07161 3.34199,-8.64161 4.97499,-3.125 1.69359,5.081 3.94109,10.35671 8.84997,13.05001 2.4638,1.3518 6.85329,2.5779 7.64998,-0.97501 0.227,-1.05919 -0.049,-1.85959 -0.2,-2.19999 -0.1499,-0.3376 -2.78289,-1.25521 -4.94998,-3.57501 -1.725,-1.8464 -3.12519,-4.9084 -3.54999,-7.92501 -0.1257,-0.8922 -0.2302,-2.05279 0.05,-3.175 0.2805,-1.1222 0.89179,-2.19341 2.57499,-2.02501 1.6832,0.16821 3.02069,2.25531 3.59999,4.82501 0.9492,4.21101 2.67129,8.13151 4.97499,11.47502 2.30379,3.3434 5.19838,6.1232 8.49997,8.025 2.2357,0.99361 5.34139,1.6199 7.64998,0.52501 2.3087,-1.09491 3.90489,-3.48461 2.825,-6.80001 -0.3154,-0.9684 -3.4064,-0.9316 -7.62498,-5.15001 -1.9094,-1.8836 -5.71109,-5.9437 -7.39998,-9.925 -1.1876,-2.79941 -2.1318,-5.47385 -1.65,-7.97497 0.4751,-2.46697 2.31569,-3.93033 4.39999,-2.22505 0.6171,0.50496 2.24529,2.25881 3.49999,4.35 4.38709,7.18711 8.82958,16.63813 15.07496,23.62503 4.10169,5.4188 11.75317,11.22481 20.94994,11.05001 5.41829,-1.5945 11.72929,-4.1688 10.17498,-11.47501 -0.2616,-1.23 -0.9683,-2.7949 -1.825,-4.17501 -0.8727,-1.4282 -1.3702,-1.2805 -3.34999,-0.75 -5.99038,1.60501 -10.58717,1.06161 -12.84997,-0.475 -9.85387,-6.6915 -17.34995,-15.05212 -21.64994,-22.50002 -2.56639,-3.98441 -5.01018,-6.80393 -5.04998,-7.87504 -0.04,-1.07113 0.99979,-1.51249 1.49999,-1.20001 0.6347,0.3968 5.47839,5.72224 6.79998,7.17505 6.47579,7.11849 17.40586,18.89752 26.82493,18.97502 3.88019,0.032 9.92617,-3.0542 10.69999,-7.95001 0,0 0.1547,-3.40868 0.075,-5.07501 -0.079,-1.66631 0.015,-3.21088 -1.17501,-3.92504 -1.1903,-0.714 -2.1543,-0.114 -3.89999,0.6 -5.66649,2.31817 -12.54337,-2.138 -15.39996,-3.72496 -2.8565,-1.58696 -13.44997,-8.35002 -13.44997,-8.35002 -3.87959,-2.81536 -9.20627,-8.37232 -10.17497,-10.05 -0.6282,-1.08849 -0.2334,-1.83432 0.3501,-1.95 2.75679,-0.31688 5.81288,4.14161 11.52487,8.2 8.33298,5.92065 11.26227,7.68297 18.59995,9.07497 7.87848,1.49473 15.06378,-3.2392 13.52498,-10.22496 -0.058,-0.47081 -0.1622,-2.31225 -0.325,-4.10001 -0.1495,-0.67272 -1.21821,-2.61592 -2.45001,-2.00001 -5.71848,2.67649 -17.48955,0.71289 -25.47483,-3.42496 -6.43828,-3.33632 -11.35217,-6.33008 -12.97507,-7.60001 -0.6577,-0.51479 -2.84449,-3.45008 -0.7,-3.45008 8.09238,0 15.84516,8.13625 27.47503,9.60002 8.09448,1.00887 11.64197,-2.31505 12.22487,-3.32497 1.0349,-1.79232 3.89801,-4.8836 2.10001,-8.82497 -1.17961,-2.58584 -1.69951,-3.1 -3.55001,-3.1 -0.5871,0 -1.17109,0.30656 -2.24999,0.9 -1.0788,0.59328 -6.69148,1.8908 -14.84996,1.07496 -7.05508,-0.70553 -14.09946,-3.88193 -18.82495,-6.52505 -1.1206,-0.68728 -1.7754,-2.68112 -0.075,-3.34992 1.95559,-0.76912 8.39448,1.35665 9.94997,1.77496 1.9597,0.52704 4.62029,0.57352 6.72498,1.12504 11.00767,2.40361 20.89265,3.6332 23.59996,-5.9 0.6429,-2.8932 -0.1908,-6.87681 -2.72501,-8.25009 -0.3242,-0.1756 -2.3851,-0.12496 -2.82499,0.0752 -0.4401,0.2 -1.2248,1.08496 -2.425,1.92496 -2.17889,1.52528 -7.02008,2.16376 -12.39996,2.25008 -5.57929,0.0894 -11.27347,-0.85976 -16.29996,-2.45008 -0.6322,-0.19992 -2.80579,-0.6944 -3.39999,-1.02496 -1.5469,-0.8604 -1.3971,-3.07632 0.55,-3.25 0.6775,-0.0608 6.04998,0.82503 6.04998,0.82503 5.78819,1.00809 16.18876,2.65449 22.92494,0.17496 5.98338,-2.20247 7.91298,-5.35352 9.29999,-8.32504 1.4587,-4.83777 0.1025,-7.18232 -0.97501,-9.12497 -1.1817,-2.13088 -1.7274,-2.33016 -3.52499,-2.45 -1.2002,-0.08 -1.6049,0.0352 -2.325,0.67496 -0.5601,0.56015 -1.62579,3.32072 -3.92499,4.52504 -1.68009,0.88016 -9.67517,4.09672 -14.79996,4.72505 -3.61889,0.4436 -7.44438,0.24 -10.92497,-0.60001 -3.04959,-0.8172 -3.34169,-2.51624 -2.34999,-3.42504 1.46999,-1.34704 13.72546,-2.96272 19.67495,-5.05001 8.94107,-3.1368 17.90895,-7.80824 19.87496,-16.60001 1.5942,-7.12912 -2.27451,-12.01585 -7.4,-12.55002 -1.81299,-0.18896 -3.10219,0.86113 -3.42499,2.57497 -1.79069,6.68281 -5.79768,10.60385 -10.77497,13.60001 -4.97729,2.99633 -10.93807,5.07481 -16.67496,7.15009 l 0.05,-1.92504 c -10.90187,3.61769 -29.21352,8.21792 -32.35001,11.07498 -5.12858,4.67199 -1.173,11.40409 -1.2,17.00001 -3.02319,3.67064 -6.42828,6.09832 -13.19996,1.87504 -0.063,-4.03448 -1.0357,-6.45329 -0.4,-10.25001 0.4559,-2.72184 1.5215,-5.138 2.97499,-7.42505 4.33099,-6.81449 7.02208,-7.55561 10.57507,-9.34993 6.28019,-3.17208 24.38794,-0.93232 24.47484,-8.75009 3.76189,0 7.80428,-0.0312 9.39997,-3.42496 0.3986,-0.75528 0.4137,-1.64561 0.2251,-2.27504 -0.1888,-0.62928 -0.59659,-0.91776 -1.09999,-0.74992 -0.5036,0.16776 -2.3119,1.8536 -4.19999,2.52496 -1.8883,0.67136 -3.09999,0.92496 -3.09999,0.92496 0,0 0.2779,-3.73232 -0.4251,-4.94993 -0.8045,-1.39327 -2.7047,-2.96616 -4.42499,-3.05008 -1.7203,-0.0838 -7.72498,0.32504 -7.72498,0.32504 0.075,-2.00336 -1.4407,-3.34776 -3.19999,-4.17496 -0.8905,-0.41872 -4.23839,-0.0656 -8.47498,0.0496 -6.06218,0.16536 -11.39747,2.42856 -14.84986,3.85008 -1.94739,0.80169 -5.16079,0.60792 -6.52508,0.3 -1.3643,-0.30808 -3.17489,-1.12504 -3.17489,-1.12504 1.14999,3.14896 3.73839,5.96161 6.47488,8.40001 -1.4049,0.5088 -6.10248,3.83712 -6.47488,5.22505 0.4245,0.0784 0.95469,0.18472 1.34989,0.37495 -2.21099,2.14297 -5.26638,5.44153 -7.19998,7.37498 0.6031,0.37695 1.1246,0.84943 1.6,1.32503 -2.54999,2.06609 -5.86879,5.9521 -8.17498,10.07497 -2.30629,-4.12287 -5.62488,-8.00888 -8.17488,-10.07497 0.4754,-0.4756 0.9968,-0.94808 1.6,-1.32503 -1.9336,-1.93345 -4.98909,-5.23201 -7.19998,-7.37498 0.3952,-0.19023 0.92529,-0.29687 1.34989,-0.37495 -0.3723,-1.38793 -5.06998,-4.71625 -6.47498,-5.22505 2.73659,-2.4384 5.32489,-5.25105 6.47498,-8.40001 0,0 -1.81069,0.81696 -3.17499,1.12504 -1.36409,0.30792 -4.55249,0.50169 -6.49998,-0.3 -3.45249,-1.42152 -8.81268,-3.68472 -14.87486,-3.85008 -4.23639,-0.11536 -7.58468,-0.46872 -8.47508,-0.0496 -1.75949,0.8272 -3.27529,2.1716 -3.19999,4.17496 0,0 -6.00448,-0.40888 -7.72488,-0.32504 -1.72039,0.0839 -3.62079,1.65681 -4.42509,3.05008 -0.70309,1.21761 -0.425,4.94993 -0.425,4.94993 0,0 -1.21169,-0.2536 -3.09999,-0.92496 -1.88809,-0.67136 -3.69659,-2.3572 -4.19999,-2.52496 -0.50349,-0.16784 -0.91119,0.12064 -1.09999,0.74992 -0.1887,0.62943 -0.1735,1.51976 0.225,2.27504 1.59569,3.39384 5.63808,3.42496 9.39997,3.42496 0.086,7.81777 18.19445,5.57801 24.47494,8.75009 3.55289,1.79432 6.24408,2.53544 10.57497,9.34993 1.45339,2.28705 2.51919,4.70321 2.97509,7.42505 0.6357,3.79672 -0.3379,6.21553 -0.4,10.25001 -6.77178,4.22328 -10.17697,1.7956 -13.19996,-1.87504 -0.027,-5.59592 3.92839,-12.32802 -1.2,-17.00001 -3.13659,-2.85706 -21.44824,-7.45729 -32.35001,-11.07498 l 0.05,1.92504 c -5.73699,-2.07528 -11.69777,-4.15376 -16.67506,-7.15009 -4.97719,-2.99616 -8.98438,-6.9172 -10.77497,-13.60001 -0.2825,-1.4996 -1.3093,-2.50216 -2.77499,-2.60001 z m 61.22483,7.32505 c 2.2184,-0.11944 4.33829,0.59384 6.09999,2.27497 -3.59529,2.63768 -8.62938,1.20271 -10.14998,-1.17496 1.354,-0.64921 2.7189,-1.02833 4.04999,-1.10001 z m 75.4998,0 c 1.5364,-0.0344 3.12029,0.34264 4.69999,1.10001 -1.5206,2.37767 -6.55469,3.81264 -10.14998,1.17496 1.5856,-1.51305 3.4746,-2.23033 5.44999,-2.27497 z m -92.39975,3.92505 c 2.51029,0.0152 5.20518,0.9156 5.77498,2.62497 -3.66739,-0.22632 -7.16208,-0.30144 -10.19997,-1.00001 0.6374,-1.10584 2.47249,-1.63672 4.42499,-1.62496 z m 109.9497,0 c 1.9525,-0.012 3.78759,0.51912 4.42499,1.62496 -3.03789,0.69857 -6.53258,0.77369 -10.19997,1.00001 0.5698,-1.70937 3.26459,-2.60993 5.77498,-2.62497 z m -103.79972,3.32496 c -0.5622,2.95881 -9.89837,3.80968 -10.04997,0.8 3.46799,0.33208 7.08348,-0.14072 10.04997,-0.8 z m 97.67474,0 c 2.96659,0.65928 6.55688,1.13208 10.02497,0.8 -0.1517,3.00968 -9.46267,2.15881 -10.02497,-0.8 z"
     id="path3019"
     inkscape:connector-curvature="0"
     sodipodi:nodetypes="cccccccccccccccccccccccccccccccccccccccccccccccccccccccccccccccccccccccccccccccccccccccccccccccccccccccccccccccccccccccccccccccccccccccccccccccccccccccccccccccccccccccccccccccccccccccccccccccccccccccccccccccccccccccccccccccccccccccccccccccccccccccccccccccccccccccccccccccccccccccccccccccccccccccccccccccccccccccccccccccccccccccccscccsccccccccccccccc" />
  <path
     inkscape:connector-curvature="0"
     style="fill:none;stroke:#ffed00;stroke-width:2.40000439;stroke-linecap:butt;stroke-linejoin:miter;stroke-miterlimit:4;stroke-opacity:1;stroke-dashoffset:0"
     d="m 279.99984,56.157591 -5.17862,15.936161 -16.75642,6.35e-4 13.55585,9.849728 -5.17741,15.936554 13.55659,-9.848698 13.55661,9.848697 -5.17742,-15.936556 13.55586,-9.849725 -16.75642,-6.36e-4 z"
     id="path3070" />
</svg>
