<?xml version="1.0" encoding="UTF-8" standalone="no"?>
<svg
   xmlns:dc="http://purl.org/dc/elements/1.1/"
   xmlns:cc="http://creativecommons.org/ns#"
   xmlns:rdf="http://www.w3.org/1999/02/22-rdf-syntax-ns#"
   xmlns:svg="http://www.w3.org/2000/svg"
   xmlns="http://www.w3.org/2000/svg"
   xmlns:xlink="http://www.w3.org/1999/xlink"
   xmlns:sodipodi="http://sodipodi.sourceforge.net/DTD/sodipodi-0.dtd"
   xmlns:inkscape="http://www.inkscape.org/namespaces/inkscape"
   version="1.1"
   preserveAspectRatio="xMidYMid meet"
   zoomAndPan="magnify"
   id="Ensign_of_the_Royal_Australian_Air_Force"
   viewBox="-15 -7.5 30 15"
   width="1200"
   height="600"
   inkscape:version="0.91 r13725"
   sodipodi:docname="Drawing.svg">
  <metadata
     id="metadata36">
    <rdf:RDF>
      <cc:Work
         rdf:about="">
        <dc:format>image/svg+xml</dc:format>
        <dc:type
           rdf:resource="http://purl.org/dc/dcmitype/StillImage" />
        <dc:title></dc:title>
      </cc:Work>
    </rdf:RDF>
  </metadata>
  <sodipodi:namedview
     pagecolor="#ffffff"
     bordercolor="#666666"
     borderopacity="1"
     objecttolerance="10"
     gridtolerance="10"
     guidetolerance="10"
     inkscape:pageopacity="0"
     inkscape:pageshadow="2"
     inkscape:window-width="1920"
     inkscape:window-height="1057"
     id="namedview34"
     showgrid="false"
     fit-margin-top="0"
     fit-margin-left="0"
     fit-margin-right="0"
     fit-margin-bottom="0"
     inkscape:zoom="0.96"
     inkscape:cx="635.60318"
     inkscape:cy="279.86369"
     inkscape:window-x="-8"
     inkscape:window-y="-8"
     inkscape:window-maximized="1"
     inkscape:current-layer="Ensign_of_the_Royal_Australian_Air_Force" />
  <defs
     id="defs3">
    <clipPath
       id="border">
      <rect
         x="-15"
         y="-7.5"
         width="30"
         height="15"
         id="rect6" />
    </clipPath>
  </defs>
  <rect
     x="-15"
     y="-7.5"
     width="30"
     height="15"
     id="rect8"
     style="fill:#6399ab;stroke:none" />
  <g
     id="canton"
     transform="matrix(0.5,0,0,0.5,-7.4999986,-3.7500005)">
    <g
       clip-path="url(#border)"
       id="g11">
      <circle
         r="20"
         id="circle13"
         cx="0"
         cy="0"
         style="fill:#002f5e;fill-opacity:1" />
      <path
         d="m -20,-10 40,20 m -40,0 40,-20"
         id="diags_white"
         inkscape:connector-curvature="0"
         style="stroke:#ffffff;stroke-width:3" />
      <path
         d="m -20,-10 40,20 m -40,0 40,-20"
         id="diags_red"
         inkscape:connector-curvature="0"
         style="stroke:#e31736;stroke-width:2;stroke-opacity:1" />
      <path
         d="M 0,0 20,10 17,10 -3,0 m 3,0 20,-10 3,0 L 3,0 M 0,0 -20,10 -23,10 -3,0 m 3,0 -20,-10 3,0 20,10"
         id="eraser_white"
         inkscape:connector-curvature="0"
         style="fill:#ffffff;stroke:none" />
      <!--I think the above two lines give the simplest way to make the diagonals-->
      <path
         d="M -20,0 20,0 M 0,-10 0,10"
         id="cross_white"
         inkscape:connector-curvature="0"
         style="stroke:#ffffff;stroke-width:5" />
      <path
         d="M -20,0 20,0 M 0,-10 0,10"
         id="cross_red"
         inkscape:connector-curvature="0"
         style="stroke:#e31736;stroke-width:3;stroke-opacity:1" />
    </g>
  </g>
  <g
     id="stars"
     transform="translate(1.373291e-6,-4.3405762e-7)">
    <!--All the stars are grouped as one for convenience...-->
    <path
       d="m 5.3098676,3.8949626 0.044639,0.6733262 0.6701883,-0.0788 L 5.5260972,4.9442005 6.0055619,5.4190427 5.3391836,5.3127331 5.2668776,5.9836526 4.934515,5.3963744 4.3648867,5.7581543 4.6168148,5.1321406 3.9788061,4.9123537 4.6253169,4.7190056 4.3993613,4.0831556 4.953622,4.4680678 5.3098676,3.8949626 Z"
       id="StarAlphaCrucis"
       inkscape:connector-curvature="0"
       style="fill:#ffffff" />
    <path
       d="M 7.7953431,0.32806063 7.8446511,0.76604831 8.2672643,0.89119636 7.8659496,1.0734354 7.8775222,1.5140381 7.580189,1.18868 7.1647264,1.3358395 7.3822805,0.95251788 7.1139378,0.60286524 7.5457265,0.69131753 7.7953431,0.32806063 Z"
       id="StarEpsilonCrucis"
       inkscape:connector-curvature="0"
       style="fill:#ffffff" />
    <use
       transform="translate(-2.265649,-6.875003)"
       id="StarBetaCrucis"
       xlink:href="#StarAlphaCrucis"
       x="0"
       y="0"
       width="100%"
       height="100%" />
    <use
       transform="translate(5.067702,-6.104152)"
       id="StarDeltaCrucis"
       xlink:href="#StarAlphaCrucis"
       x="0"
       y="0"
       width="100%"
       height="100%" />
    <use
       transform="translate(2.500004,-10)"
       id="StarGammaCrucis"
       xlink:href="#StarAlphaCrucis"
       x="0"
       y="0"
       width="100%"
       height="100%" />
    <use
       transform="matrix(2.037313,-0.509319,0.50932,2.037309,-20.25164,-3.796425)"
       id="StarCommonwealthStar"
       xlink:href="#StarAlphaCrucis"
       x="0"
       y="0"
       width="100%"
       height="100%" />
  </g>
  <circle
     cx="11.685001"
     cy="4.1849995"
     r="2.5"
     id="circle4"
     style="fill:#002f5e;fill-opacity:1;stroke:none" />
  <circle
     cx="11.685001"
     cy="4.1849995"
     r="1.6750001"
     id="circle6"
     style="fill:#ffffff;stroke:none;stroke-width:38" />
  <path
     d="m 10.983719,3.9693478 c 0,0 0.01706,-0.0029 0.03117,-0.0158 0.01071,-0.0098 0.0212,-0.037069 0.0212,-0.037069 0,0 0.06528,-0.1600312 0.171551,-0.249536 0.168524,-0.1420125 0.285648,-0.1524983 0.285648,-0.1524983 0,0 0.16077,-0.045569 0.28587,-1.48e-4 0.175023,0.063659 0.266744,0.1498404 0.266744,0.1498404 0,0 0.09889,0.078948 0.108188,0.090758 0.0088,0.01115 0.13123,0.1149092 0.13123,0.1149092 l 0.05509,0.050809 c 0,0 0.340739,0.2844671 0.506309,0.3036676 0.293993,0.034049 0.315114,-0.2136448 0.315114,-0.2136448 0,0 0.005,-0.055089 0.02821,-0.053469 0.02984,0.0021 0.0754,0.246803 -0.123106,0.3613432 -0.157816,0.090978 -0.436374,0.0081 -0.436374,0.0081 0,0 -0.153976,-0.055019 -0.239862,-0.1032405 -0.08707,-0.048959 -0.193928,-0.1159432 -0.193928,-0.1159432 0,0 -0.0016,-0.005 -0.04128,-0.01351 -0.02851,-0.0061 -0.05997,0.028279 -0.05997,0.028279 0,0 -0.125322,0.1019115 -0.18322,0.1457774 -0.06528,0.049179 -0.25153,0.1329288 -0.25153,0.1329288 0,0 -0.05783,0.1394266 -0.06875,0.2500529 -0.01758,0.1765727 -0.0028,0.2538189 -0.0028,0.2538189 0,0 0.0064,0.062848 -0.01078,0.088248 -0.02075,0.030719 -0.08109,0.056049 -0.08109,0.056049 0,0 -0.101542,0.048449 -0.19821,0.1060464 -0.104497,0.062329 -0.225536,0.1765737 -0.225536,0.1765737 0,0 -0.02762,0.028579 -0.04645,0.032489 -0.01876,0.004 -0.01617,-0.031759 -0.01617,-0.031759 0,0 -0.04084,0.030649 -0.06093,0.032569 -0.02001,0.002 -0.01787,-0.029469 -0.01787,-0.029469 0,0 -0.01625,0.007 -0.03183,0.01891 -0.01027,0.0079 -0.03759,0.039069 -0.03759,0.039069 0,0 -0.01388,-0.01344 0.0083,-0.054209 0.0078,-0.01447 0.03899,-0.041649 0.03899,-0.041649 0,0 0.01027,-0.0098 0.01403,-0.01566 0.0055,-0.0083 0.0075,-0.01721 0.0075,-0.01721 0,0 0.01322,-0.038179 0.0579,-0.074738 0.01935,-0.01588 0.07112,-0.039949 0.07112,-0.039949 0,0 0.301304,-0.079018 0.365405,-0.3042576 0.04077,-0.1429715 0.04438,-0.4290636 0.04438,-0.4290636 0,0 -9e-4,-0.0069 -0.0074,-0.01366 -0.0063,-0.0066 -0.01004,-0.01034 -0.01004,-0.01034 l -0.04845,-0.048739 c 0,0 -0.0058,-0.0061 -0.01639,-0.0089 -0.0097,-0.0026 -0.02105,9e-4 -0.02105,9e-4 0,0 -0.02755,0.0072 -0.04594,0.01 -0.02031,0.0031 -0.04505,-0.004 -0.04505,-0.004 0,0 -0.02156,-0.01034 -0.03626,0.0015 -0.011,0.0088 -0.0042,0.024739 -0.0042,0.024739 0,0 0.03227,0.098738 0.03471,0.1092963 0.0044,0.0192 0.02053,0.1025765 0.02053,0.1025765 l 0.03153,0.050729 c 0,0 0.01093,-0.0021 0.01359,-0.003 0.0026,-7.33e-4 0.01514,-0.0037 0.01514,-0.0037 0,0 0.0018,-0.044239 0.01883,-0.046009 0.026,-0.0027 0.02105,0.094008 0.02105,0.094008 0,0 -9e-4,0.0049 -0.0049,0.009 -0.0047,0.0048 -0.0113,0.0076 -0.0113,0.0076 0,0 -0.02282,0.0062 -0.03449,0.0099 -0.02075,0.0066 -0.04416,0.01219 -0.07053,-0.0024 -0.01263,-0.007 -0.02718,-0.026879 -0.02718,-0.026879 0,0 -0.06292,-0.095638 -0.06632,-0.099618 -0.0033,-0.004 -0.07333,-0.099548 -0.112103,-0.1153522 -0.02548,-0.01056 -0.06469,-0.01846 -0.06469,-0.01846 0,0 -0.04062,-0.0099 -0.05554,-0.01329 -0.04431,-0.01012 -0.08449,-0.033089 -0.08449,-0.033089 0,0 -0.100657,-0.075918 -0.13123,-0.1032405 -0.0175,-0.01558 -0.118749,-0.098588 -0.124953,-0.1026505 -0.0072,-0.0048 -0.01957,-9e-4 -0.01957,-9e-4 0,0 -0.03803,0.01056 -0.07644,0.0048 -0.02289,-0.0034 -0.05457,-0.0092 -0.07969,-0.01071 -0.0095,-6.669e-4 -0.04069,0.0024 -0.04985,0.0029 -0.02348,0.0013 -0.08544,0.01676 -0.116312,-0.0078 -0.02334,-0.01846 -0.03973,-0.062549 -0.03774,-0.079908 0.0029,-0.024219 0.0178,-0.033819 0.0178,-0.033819 0,0 0.02038,-0.01462 0.05059,-0.032199 0.04077,-0.023779 0.06469,-0.031899 0.06469,-0.031899 0,0 0.02555,-0.0072 0.03973,-0.01263 0.01403,-0.0052 0.03323,-0.022749 0.03323,-0.022749 0,0 0.04453,-0.038259 0.06728,-0.049999 0.01676,-0.0087 0.05554,-0.021639 0.05554,-0.021639 0,0 0.0322,-0.01 0.03501,-0.0113 0.02053,-0.0098 0.03604,-0.026069 0.03604,-0.026069 0,0 0.06071,-0.082198 0.138615,-0.1118813 0.0081,-0.0031 0.02998,-0.01004 0.05125,-0.01654 0.02533,-0.0078 0.05,-0.01521 0.05,-0.01521 0,0 0.01647,-0.0076 0.02422,6.669e-4 0.0075,0.0081 -0.006,0.027319 -0.006,0.027319 0,0 -0.04276,0.086328 -0.09859,0.1304178 -0.0195,0.01536 -0.06935,0.029609 -0.06935,0.029609 0,0 -0.0209,0.0076 -0.0209,0.01728 2.37e-4,0.01211 0.01477,0.0192 0.01477,0.0192 l 0.08375,0.062769 c 0,0 0.01307,0.0081 0.01898,0.01 0.01219,0.0037 0.02504,-9.669e-4 0.02504,-9.669e-4 0,0 0.06056,-0.01499 0.06587,-0.01617 0.0054,-0.0013 0.08249,-0.01691 0.08249,-0.01691"
     style="fill:#e31736;fill-opacity:1;fill-rule:nonzero;stroke:none"
     id="path13767"
     inkscape:connector-curvature="0" />
</svg>
