<?xml version="1.0" encoding="UTF-8" standalone="no"?>
<!-- Created with Inkscape (http://www.inkscape.org/) -->

<svg
   xmlns:dc="http://purl.org/dc/elements/1.1/"
   xmlns:cc="http://creativecommons.org/ns#"
   xmlns:rdf="http://www.w3.org/1999/02/22-rdf-syntax-ns#"
   xmlns:svg="http://www.w3.org/2000/svg"
   xmlns="http://www.w3.org/2000/svg"
   xmlns:sodipodi="http://sodipodi.sourceforge.net/DTD/sodipodi-0.dtd"
   xmlns:inkscape="http://www.inkscape.org/namespaces/inkscape"
   width="1502.8328"
   height="900.95673"
   id="svg2"
   version="1.1"
   inkscape:version="0.48.2 r9819"
   sodipodi:docname="Royal Bahrain Navy4.svg">
  <defs
     id="defs4">
    <style
       id="style4921"
       type="text/css">
   
    .str3 {stroke:#AA8E0A;stroke-width:2}
    .str2 {stroke:white;stroke-width:8}
    .str1 {stroke:#AA8E0A;stroke-width:5}
    .str0 {stroke:#AA8E0A;stroke-width:8}
    .fil0 {fill:gold}
    .fil1 {fill:none}
    .fil2 {fill:#D81E05}
    .fil3 {fill:white}
   
  </style>
  </defs>
  <sodipodi:namedview
     id="base"
     pagecolor="#ffffff"
     bordercolor="#666666"
     borderopacity="1.0"
     inkscape:pageopacity="0.0"
     inkscape:pageshadow="2"
     inkscape:zoom="0.7071068"
     inkscape:cx="864.97229"
     inkscape:cy="377.10559"
     inkscape:document-units="px"
     inkscape:current-layer="#cc9900ff-4"
     showgrid="false"
     inkscape:window-width="1680"
     inkscape:window-height="988"
     inkscape:window-x="-8"
     inkscape:window-y="-8"
     inkscape:window-maximized="1"
     showguides="true"
     inkscape:guide-bbox="true"
     fit-margin-top="0"
     fit-margin-left="0"
     fit-margin-right="0"
     fit-margin-bottom="0" />
  <metadata
     id="metadata7">
    <rdf:RDF>
      <cc:Work
         rdf:about="">
        <dc:format>image/svg+xml</dc:format>
        <dc:type
           rdf:resource="http://purl.org/dc/dcmitype/StillImage" />
        <dc:title></dc:title>
      </cc:Work>
    </rdf:RDF>
  </metadata>
  <g
     inkscape:label="Layer 1"
     inkscape:groupmode="layer"
     id="layer1"
     transform="translate(10.559214,256.11618)">
    <g
       id="#cc9900ff-4"
       transform="matrix(2.9511834,0,0,3.0103261,291.63326,-623.28713)">
      <g
         id="g3089-1-7-0"
         transform="matrix(3.3884712,0,0,3.3218992,-101.43716,122.2883)"
         style="fill:#2e4183;fill-opacity:1">
        <path
           id="path3079-7-4-7"
           d="M 0,0 H 150 V 90 H 0"
           inkscape:connector-curvature="0"
           style="fill:#2e4183;fill-opacity:1" />
      </g>
      <g
         transform="matrix(0.14641725,0,0,0.1425471,-208.9219,-18.24828)"
         id="g5458-2-0"
         style="fill:#ffff00;fill-opacity:1">
        <g
           id="g7000-8-7"
           transform="matrix(5.0351015,0,0,7.3996798,1564.8005,1204.8003)"
           style="fill:#cc9900;fill-opacity:1">
          <path
             id="path8-8-1-0"
             d="m 174.33,49.77 c 1.94,-7.82 3.48,-15.74 5.66,-23.51 2.21,7.76 3.72,15.68 5.68,23.49 -3.78,0.09 -7.56,0.1 -11.34,0.02 z"
             inkscape:connector-curvature="0"
             style="fill:#cc9900;fill-opacity:1" />
          <path
             id="path10-8-2-5"
             d="m 195.17,49.83 c 4.4,-6.74 9.11,-13.27 13.69,-19.89 -2.55,6.67 -5.16,13.31 -7.85,19.92 -1.95,-0.02 -3.9,-0.02 -5.84,-0.03 z"
             inkscape:connector-curvature="0"
             style="fill:#cc9900;fill-opacity:1" />
          <path
             id="path12-2-5-6"
             d="m 151.84,31.35 c 4.65,5.89 8.81,12.16 12.9,18.45 -1.93,0.02 -3.84,0.04 -5.76,0.06 -2.43,-6.15 -5.05,-12.23 -7.14,-18.51 z"
             inkscape:connector-curvature="0"
             style="fill:#cc9900;fill-opacity:1" />
          <path
             id="path14-4-7-7"
             d="m 161.4,33.8 c 1.19,1.73 2.51,3.4 3.39,5.32 0.45,2.71 -0.24,5.46 -0.51,8.15 -1.59,-2.28 -3.7,-4.36 -4.56,-7.06 0.35,-2.18 1.07,-4.29 1.68,-6.41 z"
             inkscape:connector-curvature="0"
             style="fill:#cc9900;fill-opacity:1" />
          <path
             id="path16-5-4-3"
             d="m 172.27,33.45 c 1.27,1.9 2.53,3.8 3.8,5.71 -0.7,2.93 -1.42,5.87 -2.27,8.77 -1.39,-2.92 -2.73,-5.85 -4.05,-8.8 0.84,-1.9 1.68,-3.79 2.52,-5.68 z"
             inkscape:connector-curvature="0"
             style="fill:#cc9900;fill-opacity:1" />
          <path
             id="path18-5-4-8"
             d="m 183.95,39.14 c 1.26,-1.9 2.51,-3.8 3.78,-5.69 0.84,1.89 1.68,3.78 2.52,5.68 -1.34,2.97 -2.7,5.94 -4.12,8.87 -0.79,-2.94 -1.49,-5.9 -2.18,-8.86 z"
             inkscape:connector-curvature="0"
             style="fill:#cc9900;fill-opacity:1" />
          <path
             id="path20-1-4-4"
             d="m 195.19,39.15 c 0.88,-1.93 2.22,-3.6 3.41,-5.34 0.62,2.12 1.33,4.23 1.69,6.43 -0.86,2.66 -2.97,4.72 -4.57,6.96 -0.29,-2.66 -0.93,-5.36 -0.53,-8.05 z"
             inkscape:connector-curvature="0"
             style="fill:#cc9900;fill-opacity:1" />
          <path
             id="path22-7-4-9"
             d="m 166.44,34.81 c 2.98,4.74 4.95,10 7.38,15.03 -3,0.01 -5.99,-0.05 -8.97,-0.38 0.59,-4.88 0.93,-9.78 1.59,-14.65 z"
             inkscape:connector-curvature="0"
             style="fill:#cc9900;fill-opacity:1" />
          <path
             id="path24-1-4-2"
             d="m 186.23,49.9 c 2.32,-5.05 4.29,-10.3 7.33,-14.98 0.53,4.65 1.31,9.31 1.29,14 -2.45,1.76 -5.82,0.61 -8.62,0.98 z"
             inkscape:connector-curvature="0"
             style="fill:#cc9900;fill-opacity:1" />
          <path
             id="path26-1-2-6"
             d="m 156.23,50.96 c 10.23,-0.8 20.52,-0.18 30.77,-0.37 5.59,0.06 11.21,-0.26 16.78,0.39 -1.51,2.36 -4.36,1.81 -6.74,1.89 -12.35,-0.12 -24.71,0.03 -37.06,-0.06 -1.61,0.27 -2.78,-0.71 -3.75,-1.85 z"
             inkscape:connector-curvature="0"
             style="fill:#cc9900;fill-opacity:1" />
          <path
             id="path28-5-93-5"
             d="m 162.35,57.54 c -1.71,0.34 -2.21,-3.57 -0.26,-3.09 0.41,1 0.5,2.03 0.26,3.09 z"
             inkscape:connector-curvature="0"
             style="fill:#cc9900;fill-opacity:1" />
          <path
             id="path30-2-0-7"
             d="m 163.49,57.86 c -0.67,-0.87 -1.13,-3.6 0.47,-3.55 0.46,1.01 0.86,3.06 -0.47,3.55 z"
             inkscape:connector-curvature="0"
             style="fill:#cc9900;fill-opacity:1" />
          <path
             id="path32-7-7-7"
             d="m 165.65,57.82 c -1.38,-0.35 -1.39,-3.25 -0.03,-3.61 0.71,1.2 0.72,2.4 0.03,3.61 z"
             inkscape:connector-curvature="0"
             style="fill:#cc9900;fill-opacity:1" />
          <path
             id="path34-6-7-4"
             d="m 166.67,54.42 c 1.73,-0.37 2.03,3.59 0.16,3.14 -0.37,-1.03 -0.42,-2.08 -0.16,-3.14 z"
             inkscape:connector-curvature="0"
             style="fill:#cc9900;fill-opacity:1" />
          <path
             id="path36-1-87-5"
             d="m 169.04,54.49 c 1.39,-0.14 1.68,2.22 0.71,2.9 -1.36,0.13 -1.7,-2.23 -0.71,-2.9 z"
             inkscape:connector-curvature="0"
             style="fill:#cc9900;fill-opacity:1" />
          <path
             id="path38-4-3-7"
             d="m 171.42,54.54 c 1.39,-0.18 1.62,2.21 0.73,2.92 -1.41,0.2 -1.66,-2.22 -0.73,-2.92 z"
             inkscape:connector-curvature="0"
             style="fill:#cc9900;fill-opacity:1" />
          <path
             id="path40-2-0-9"
             d="m 174.03,57.53 c -1.7,0.35 -1.89,-3.54 -0.1,-3.12 0.46,1.02 0.49,2.07 0.1,3.12 z"
             inkscape:connector-curvature="0"
             style="fill:#cc9900;fill-opacity:1" />
          <path
             id="path42-3-3-8"
             d="m 175.33,54.22 c 1.39,0.32 1.39,3.23 0.01,3.56 -0.72,-1.19 -0.72,-2.38 -0.01,-3.56 z"
             inkscape:connector-curvature="0"
             style="fill:#cc9900;fill-opacity:1" />
          <path
             id="path44-2-8-3"
             d="m 177.11,54.38 c 1.53,-0.28 1.56,3.52 0.03,3.26 -0.61,-1.09 -0.62,-2.17 -0.03,-3.26 z"
             inkscape:connector-curvature="0"
             style="fill:#cc9900;fill-opacity:1" />
          <path
             id="path46-2-2-0"
             d="m 178.87,54.34 c 1.72,-0.4 1.75,3.65 0.02,3.29 -0.33,-1.09 -0.34,-2.19 -0.02,-3.29 z"
             inkscape:connector-curvature="0"
             style="fill:#cc9900;fill-opacity:1" />
          <path
             id="path48-1-5-2"
             d="m 180.9,57.43 c -0.96,-0.64 -0.87,-3.07 0.56,-2.94 0.95,0.64 0.85,3.07 -0.56,2.94 z"
             inkscape:connector-curvature="0"
             style="fill:#cc9900;fill-opacity:1" />
          <path
             id="path50-6-2-2"
             d="m 183.21,54.58 c 1.45,-0.24 1.44,2.26 0.5,2.86 -1.47,0.25 -1.46,-2.25 -0.5,-2.86 z"
             inkscape:connector-curvature="0"
             style="fill:#cc9900;fill-opacity:1" />
          <path
             id="path52-8-0-3"
             d="m 185.45,57.42 c -0.92,-0.69 -0.76,-3.12 0.66,-2.94 0.93,0.67 0.73,3.08 -0.66,2.94 z"
             inkscape:connector-curvature="0"
             style="fill:#cc9900;fill-opacity:1" />
          <path
             id="path54-5-3-6"
             d="m 188.2,57.56 c -1.72,0.56 -1.93,-3.24 -0.28,-3.12 0.59,1.04 0.69,2.08 0.28,3.12 z"
             inkscape:connector-curvature="0"
             style="fill:#cc9900;fill-opacity:1" />
          <path
             id="path56-7-7-7"
             d="m 189.81,57.46 c -1.75,0.37 -1.48,-3.31 -0.04,-3.1 0.67,1.02 0.68,2.05 0.04,3.1 z"
             inkscape:connector-curvature="0"
             style="fill:#cc9900;fill-opacity:1" />
          <path
             id="path58-6-2-1"
             d="m 191.15,54.33 c 0.24,0.18 0.72,0.54 0.96,0.72 0.37,1.38 0.01,2.21 -1.09,2.49 -0.54,-1.09 -0.49,-2.16 0.13,-3.21 z"
             inkscape:connector-curvature="0"
             style="fill:#cc9900;fill-opacity:1" />
          <path
             id="path60-1-9-5"
             d="m 193,54.46 c 1.87,-0.36 1.44,3.56 -0.27,3.12 -0.26,-1.07 -0.18,-2.11 0.27,-3.12 z"
             inkscape:connector-curvature="0"
             style="fill:#cc9900;fill-opacity:1" />
          <path
             id="path62-8-7-5"
             d="m 195.08,57.46 c -0.89,-0.77 -0.54,-3.13 0.85,-3 0.84,0.77 0.49,3.11 -0.85,3 z"
             inkscape:connector-curvature="0"
             style="fill:#cc9900;fill-opacity:1" />
          <path
             id="path64-9-5-4"
             d="m 197.78,57.58 c -1.76,0.38 -1.56,-3.5 0.14,-3.08 0.44,1.04 0.39,2.07 -0.14,3.08 z"
             inkscape:connector-curvature="0"
             style="fill:#cc9900;fill-opacity:1" />
          <path
             id="path66-2-3-0"
             d="m 199.03,57.49 c -0.33,-0.94 -1,-3.04 0.26,-3.43 1.24,0.59 1.18,3.22 -0.26,3.43 z"
             inkscape:connector-curvature="0"
             style="fill:#cc9900;fill-opacity:1" />
          <path
             id="path68-7-4-2"
             d="m 159.39,60.87 c 1.71,-2.56 4.99,-1.85 7.61,-2 8.67,0.2 17.33,0.21 26,0 2.62,0.13 5.87,-0.53 7.62,1.98 -7.51,0.78 -15.07,0.23 -22.6,0.39 -6.21,-0.1 -12.44,0.31 -18.63,-0.37 z"
             inkscape:connector-curvature="0"
             style="fill:#cc9900;fill-opacity:1" />
        </g>
        <path
           sodipodi:nodetypes="ccccc"
           id="path18-2-9-0-7-3-6"
           d="m 2262.1153,1710.7347 c -23.2141,15.9359 -87.2994,23.6248 -112.0588,36.1583 16.553,-18.0933 45.7021,-43.5326 66.268,-58.8453 31.5451,-29.8959 90.553,-30.8315 135.9795,-28.9599 -58.3113,23.6956 -74.6983,39.6377 -90.1887,51.6469 z"
           inkscape:connector-curvature="0"
           style="fill:#cc9900;fill-opacity:1;stroke:#000000;stroke-width:5.94335747;stroke-miterlimit:4;stroke-opacity:1;stroke-dasharray:none" />
        <path
           sodipodi:nodetypes="ccsccc"
           id="path18-2-3-0-5-4-21-0"
           d="m 2176.2272,1717.9732 c -19.6341,24.521 -52.4716,56.9306 -74.4847,77.894 7.3821,-15.0878 26.2307,-29.9021 24.7232,-54.7414 -0.9427,-15.536 8.1664,-41.2158 15.0758,-50.5505 24.7009,-42.9036 67.071,-46.3841 113.4304,-55.9314 -53.2411,42.6015 -65.9737,65.3677 -78.7447,83.3293 z"
           inkscape:connector-curvature="0"
           style="fill:#cc9900;fill-opacity:1;stroke:#000000;stroke-width:6.61056423;stroke-miterlimit:4;stroke-opacity:1;stroke-dasharray:none" />
        <path
           sodipodi:nodetypes="ccccc"
           id="path18-2-3-9-25-4-0-1-6"
           d="m 2172.6186,1783.6838 c -31.5765,-1.2035 -40.7311,-3.1805 -61.6297,7.2893 18.6017,-20.5618 16.6892,-22.2468 39.1988,-39.2368 35.0646,-33.7112 84.8772,-17.9094 131.5948,-12.8263 -62.1625,24.6305 -71.4763,39.9419 -109.1639,44.7738 z"
           inkscape:connector-curvature="0"
           style="fill:#cc9900;fill-opacity:1;stroke:#000000;stroke-width:6.61056423;stroke-miterlimit:4;stroke-opacity:1;stroke-dasharray:none" />
        <path
           sodipodi:nodetypes="ccccc"
           id="path18-2-3-2-3-4-9-3-1"
           d="m 2096.7303,1790.3406 c -28.8486,30.8549 -40.3934,56.3122 -50.9756,81.7138 1.8437,-24.5949 4.0353,-64.8665 -3.0063,-79.02 5.9825,-43.2775 45.5031,-79.2723 78.3083,-106.3903 -6.8029,53.1037 -19.9498,84.5383 -24.3264,103.6965 z"
           inkscape:connector-curvature="0"
           style="fill:#cc9900;fill-opacity:1;stroke:#000000;stroke-width:5.5986619;stroke-miterlimit:4;stroke-opacity:1;stroke-dasharray:none" />
        <path
           sodipodi:nodetypes="ccccc"
           id="path18-2-3-9-2-2-8-4-2-1"
           d="m 2122.9376,1844.7442 c -28.944,25.8779 -48.6506,19.0528 -79.9707,40.9549 8.233,-22.7292 7.889,-41.1702 33.411,-65.6207 38.4998,-45.6848 75.4361,-25.9833 135.4063,-34.4221 -72.9887,56.3429 -42.018,42.9139 -88.8466,59.0879 z"
           inkscape:connector-curvature="0"
           style="fill:#cc9900;fill-opacity:1;stroke:#000000;stroke-width:7.75847101;stroke-miterlimit:4;stroke-opacity:1;stroke-dasharray:none" />
        <path
           sodipodi:nodetypes="csscccc"
           id="path18-2-0-2-8-6-8-1-9-8-53-1"
           d="m 2001.2132,1997.9115 c -1.7483,-4.4852 -4.6791,-11.4192 -2.9762,-23.7702 1.6241,-11.7797 7.861,-28.9416 7.3314,-35.2565 -1.0733,-12.8049 -6.9622,-25.654 -9.0442,-37.4485 -11.4749,-33.2561 0.426,-73.932 36.4277,-133.6791 20.4978,100.3228 3.0851,54.5969 9.9731,117.372 -13.0079,33.7838 -19.858,86.7462 -41.7118,112.7823 z"
           inkscape:connector-curvature="0"
           style="fill:#cc9900;fill-opacity:1;stroke:#000000;stroke-width:5.37681532;stroke-miterlimit:4;stroke-opacity:1;stroke-dasharray:none" />
        <path
           sodipodi:nodetypes="ccccc"
           id="path18-2-3-9-2-2-8-4-8-5-7"
           d="m 2083.7239,1926.8064 c -36.3621,24.502 -37.0168,17.1823 -63.316,44.7185 14.1277,-30.3773 -7.391,-34.566 12.711,-63.4778 28.5543,-52.2421 68.7264,-40.0808 125.8201,-59.9672 -60.221,69.369 -34.7592,48.0492 -75.2151,78.7265 z"
           inkscape:connector-curvature="0"
           style="fill:#cc9900;fill-opacity:1;stroke:#000000;stroke-width:7.75847101;stroke-miterlimit:4;stroke-opacity:1;stroke-dasharray:none" />
        <path
           sodipodi:nodetypes="ccccc"
           id="path18-2-3-9-2-2-8-4-8-4-1-3"
           d="m 2054.1513,2017.9784 c -28.9909,32.6218 -31.484,25.6933 -49.9587,58.7924 5.9655,-32.8737 -15.938,-31.6675 -3.8143,-64.5831 14.383,-57.5768 56.3764,-55.6247 106.6168,-88.8469 -40.6999,81.9081 -21.4573,55.0334 -52.8438,94.6376 z"
           inkscape:connector-curvature="0"
           style="fill:#cc9900;fill-opacity:1;stroke:#000000;stroke-width:7.75847101;stroke-miterlimit:4;stroke-opacity:1;stroke-dasharray:none" />
        <path
           sodipodi:nodetypes="cscccc"
           id="path18-2-0-2-8-6-8-1-9-8-5-2-0"
           d="m 1992.1307,2123.1932 c -6.4437,-6.9309 -9.9104,-45.5704 -15.7394,-57.2222 -5.7701,-11.5336 -18.2374,-20.661 -24.5697,-30.8923 -23.0711,-26.8377 -12.4907,-92.6989 -1.2421,-161.225 56.457,86.0245 37.8713,71.2852 47.1499,135.8735 0.4799,36.1116 18.2339,48.3116 -5.5987,113.466 z"
           inkscape:connector-curvature="0"
           style="fill:#cc9900;fill-opacity:1;stroke:#000000;stroke-width:5.37681532;stroke-miterlimit:4;stroke-opacity:1;stroke-dasharray:none" />
        <path
           sodipodi:nodetypes="ccccc"
           id="path18-2-3-9-2-2-8-4-8-4-5-2-0"
           d="m 2045.3355,2138.0542 c -17.7898,39.607 -22.2706,33.7199 -29.8759,70.7128 -4.2694,-33.1267 -24.8158,-25.582 -23.2186,-60.5465 -3.7214,-59.1688 31.8326,-75.3148 69.7284,-121.6968 -14.0287,90.0798 1.3269,64.5586 -16.6339,111.5305 z"
           inkscape:connector-curvature="0"
           style="fill:#cc9900;fill-opacity:1;stroke:#000000;stroke-width:7.75847101;stroke-miterlimit:4;stroke-opacity:1;stroke-dasharray:none" />
        <path
           sodipodi:nodetypes="cscccc"
           id="path18-2-0-2-8-6-8-1-9-8-5-1-2-4"
           d="m 2018.0159,2256.6089 c -8.2529,-4.7365 -23.2758,-40.6155 -32.3729,-50.0383 -9.0052,-9.3279 -23.6748,-14.4031 -32.8219,-22.3231 -30.1624,-18.8893 -43.6903,-88.4533 -53.723,-157.1608 79.9786,65.6529 63.6292,54.1286 92.0667,113.0852 11.4047,34.3371 29.855,47.2754 26.8511,116.437 z"
           inkscape:connector-curvature="0"
           style="fill:#cc9900;fill-opacity:1;stroke:#000000;stroke-width:5.37681532;stroke-miterlimit:4;stroke-opacity:1;stroke-dasharray:none" />
        <g
           style="fill:#cc9900;fill-opacity:1"
           transform="matrix(1.0103298,0,0,0.70317951,1985.0099,594.03921)"
           id="#cc9933ff-7-6-8">
          <path
             sodipodi:type="arc"
             style="fill:none;stroke:#ffffff;stroke-width:12.2829752;stroke-miterlimit:4;stroke-opacity:1;stroke-dasharray:none;stroke-dashoffset:0"
             id="path4380-4-3"
             sodipodi:cx="-113.13708"
             sodipodi:cy="-542.87073"
             sodipodi:rx="38.890873"
             sodipodi:ry="35.355339"
             d="m -152.02439,-542.39216 c -0.29073,-19.52443 16.88402,-35.56636 38.36089,-35.83067 21.476866,-0.2643 39.122996,15.34911 39.413733,34.87353 0.290736,19.52443 -16.884018,35.56637 -38.360883,35.83067 -21.47286,0.26426 -39.11724,-15.34348 -39.4136,-34.86419"
             transform="matrix(4.3900976,0,0,6.6390422,968.03683,5672.0689)"
             sodipodi:start="3.1280563"
             sodipodi:end="9.4109773"
             sodipodi:open="true" />
          <path
             inkscape:connector-curvature="0"
             style="fill:#ffffff;fill-opacity:1"
             d="m 58.4375,-440.03125 c -0.58529,0.40248 -1.17289,0.79552 -1.84375,1.03125 -0.485173,0.1746 -1.028105,0.0888 -1.53125,0.0937 -3.396221,-0.0594 -6.791279,-0.12885 -10.1875,-0.21875 -0.401086,-0.18336 -2.415444,-0.41806 -2.40625,-0.59375 -0.24364,0.38496 -0.51076,0.7935 -0.8125,0.90625 -0.30755,0.13125 -0.62378,0.25536 -0.9375,0.15625 -0.84675,-0.23113 -1.683769,-0.43557 -2.53125,-0.65625 -0.25344,-0.0491 -0.52817,-0.20021 -0.78125,-0.0625 -0.362371,0.17397 -0.67307,0.72764 -0.8125,1.5 -0.11438,0.61451 -0.09799,1.34732 0.0625,1.90625 0.217131,0.78525 0.652561,1.22076 1.0625,1.21875 0.79773,0.0217 1.556551,-0.44444 2.34375,-0.65625 0.455691,-0.13526 0.91822,-0.12865 1.375,-0.0312 0.38416,0.0467 0.700103,0.63032 1.03125,1 -0.01202,-0.29721 1.893758,-0.28884 2.28125,-0.53125 3.18401,-0.0838 6.377635,-0.1438 9.5625,-0.1875 0.709367,0 1.420772,-0.0562 2.125,0.0625 0.783606,0.0863 1.342922,0.71364 2,1.09375 0.66658,-0.37889 1.207635,-1.00645 2,-1.09375 0.704229,-0.1187 1.446885,-0.0625 2.15625,-0.0625 2.443552,0.0335 4.875498,0.10013 7.3125,0.15625 -0.0091,0.0208 -0.02174,0.0419 -0.03125,0.0625 0.636761,-0.0168 1.270867,-0.0163 1.90625,-0.0312 0.11454,-0.003 0.229241,0.003 0.34375,0 2.426536,-0.0558 4.848136,-0.1229 7.28125,-0.15625 0.709365,0 1.452021,-0.0562 2.15625,0.0625 0.792366,0.0873 1.333421,0.71486 2,1.09375 0.657078,-0.38011 1.216394,-1.00741 2,-1.09375 0.704229,-0.11873 1.415633,-0.0625 2.125,-0.0625 3.184865,0.0437 6.37849,0.10369 9.5625,0.1875 0.387492,0.24241 2.293269,0.23403 2.28125,0.53125 0.331147,-0.36968 0.64709,-0.95328 1.03125,-1 0.45678,-0.0974 0.91931,-0.10406 1.375,0.0312 0.7872,0.21181 1.54602,0.678 2.34375,0.65625 0.40994,0.002 0.84537,-0.4335 1.0625,-1.21875 0.16049,-0.55893 0.17688,-1.29174 0.0625,-1.90625 -0.13943,-0.77236 -0.45013,-1.32603 -0.8125,-1.5 -0.25308,-0.13771 -0.52781,0.0134 -0.78125,0.0625 -0.84748,0.22068 -1.6845,0.42511 -2.53125,0.65625 -0.31372,0.0991 -0.62995,-0.025 -0.9375,-0.15625 -0.30174,-0.11275 -0.56886,-0.52128 -0.8125,-0.90625 0.0092,0.17569 -2.005164,0.41039 -2.40625,0.59375 -3.396221,0.0899 -6.791279,0.15938 -10.1875,0.21875 -0.503145,-0.005 -1.046077,0.0809 -1.53125,-0.0937 -0.67086,-0.23572 -1.258459,-0.62878 -1.84375,-1.03125 -0.58529,0.40247 -1.204142,0.79553 -1.875,1.03125 -0.485174,0.17461 -0.996855,0.0885 -1.5,0.0937 -2.729562,-0.0477 -5.458233,-0.12137 -8.1875,-0.1875 0.0052,-0.0205 -0.0054,-0.0421 0,-0.0625 -0.572942,0.0152 -1.145863,0.0172 -1.71875,0.0312 -0.09371,0.002 -0.187543,-0.002 -0.28125,0 -2.729267,0.0661 -5.457938,0.13976 -8.1875,0.1875 -0.503145,-0.005 -1.014826,0.0809 -1.5,-0.0937 -0.670857,-0.23572 -1.28971,-0.62878 -1.875,-1.03125 z"
             transform="matrix(8.1245003,0,0,11.454375,-101.33266,7084.9929)"
             id="path50-7-9-0-0" />
          <path
             inkscape:connector-curvature="0"
             style="fill:#ffffff;fill-opacity:1"
             d="m 432.84044,1943.4341 c -5.60035,-1.964 -11.15567,-4.0196 -16.20238,-7.9837 -3.67492,-2.8355 -6.07675,-8.1435 -8.81607,-12.4217 -17.92785,-29.5793 -35.78833,-59.2249 -53.53068,-89.0357 -1.04447,-4.8321 -10.46432,-23.8906 -9.34602,-25.1456 -3.65393,0.8331 -7.57772,1.6438 -9.88857,-0.088 -2.4546,-1.6414 -4.91255,-3.4113 -5.99909,-6.8545 -3.15382,-9.0171 -6.41763,-17.7481 -9.63901,-26.6921 -1.06613,-2.5465 -1.62633,-6.05 -3.82696,-7.175 -3.00974,-1.7872 -8.05107,-0.2483 -13.50047,4.4198 -4.35429,3.6846 -8.72394,9.3888 -11.25987,15.0089 -3.6077,7.8241 -3.91221,14.8652 -1.69236,18.3658 4.16389,7.0067 11.08596,9.9758 16.61369,15.1191 3.2768,2.8815 5.7274,6.8986 7.59442,11.5562 1.78463,3.6494 -0.0643,10.7902 -0.52993,16.437 1.74326,-2.3596 11.95534,14.0491 15.51668,15.5322 17.65624,26.6719 35.21947,53.6071 52.63633,80.5909 3.82006,6.0841 7.993,11.7588 11.06326,18.7 3.69487,7.3759 2.89054,16.936 4.11666,25.4574 5.89455,2.8405 12.62597,2.7162 17.42403,8.8492 4.51452,5.1388 8.17192,11.935 11.99198,18.019 12.95516,21.212 25.64626,42.5758 38.42854,63.9033 -0.17552,0.079 -0.372,0.1318 -0.5485,0.2065 3.53126,5.3339 6.943,10.7761 10.45529,16.1125 0.63487,0.9598 1.21646,1.9886 1.85116,2.9481 13.40673,20.3882 26.85565,40.648 40.16126,61.2628 3.82006,6.084 8.16125,12.0268 11.23156,18.968 3.73592,7.4587 2.83192,16.8637 4.11666,25.4574 5.85081,2.7497 12.67891,2.7842 17.42402,8.8493 4.51468,5.1386 8.00363,11.6668 11.82368,17.751 16.88518,27.6473 33.71848,55.4935 50.35505,83.4381 0.61202,5.1638 10.92594,21.4455 9.05315,23.5988 4.03216,0.034 9.28384,-1.6876 11.63679,1.2525 3.05239,3.1781 5.5837,7.0945 7.21485,12.0297 2.95066,8.3599 4.20103,18.4074 8.62923,25.0843 2.19539,3.5311 7.18962,3.9591 13.13591,-0.1406 4.26439,-2.867 8.81063,-8.2902 11.933,-13.9368 3.94771,-7.0599 5.64269,-13.9282 4.74959,-18.3569 -0.52513,-3.2162 -2.92387,-4.4252 -4.58738,-6.2261 -5.90628,-5.593 -11.65744,-11.2198 -17.6234,-16.7273 -2.29229,-1.9383 -3.24035,-5.5926 -4.0981,-9.2268 -0.93901,-3.444 0.10777,-8.8368 1.13762,-13.8492 -1.01932,1.4128 -13.29473,-14.0818 -16.5701,-16.1297 -18.8361,-28.4458 -37.54176,-57.0365 -56.19214,-85.7141 -2.67923,-4.3532 -6.12545,-8.3576 -7.676,-13.8445 -2.17873,-7.5434 -2.95195,-15.5673 -3.65543,-23.6429 -5.60031,-1.9641 -11.32403,-4.2875 -16.37068,-8.2516 -3.67497,-2.8355 -5.90665,-7.8778 -8.64777,-12.1537 -14.40902,-23.7727 -28.65518,-47.7349 -42.95044,-71.6451 0.15269,-0.1111 0.22701,-0.366 0.38022,-0.4745 -3.17786,-4.7986 -6.27529,-9.6972 -9.44558,-14.5043 -0.51686,-0.7885 -0.99774,-1.6237 -1.51459,-2.4121 -15.09965,-22.9064 -30.24214,-45.7499 -45.2317,-68.798 -2.67924,-4.3532 -5.95716,-8.0898 -7.50773,-13.5765 -2.17871,-7.5435 -3.12018,-15.8354 -3.82371,-23.9109 z"
             id="path50-7-9-8-7-1" />
          <path
             inkscape:connector-curvature="0"
             style="fill:#ffffff;fill-opacity:1"
             d="m 564.6922,1988.7187 c 0.66226,-8.0825 1.39474,-16.1139 3.53501,-23.6791 1.52256,-5.5025 4.94786,-9.5424 7.60541,-13.9218 18.50415,-28.8654 37.0636,-57.6448 55.75441,-86.2805 3.26485,-2.0809 15.46116,-17.6993 16.48758,-16.2968 -1.05529,-5.0018 -2.12948,-10.3839 -1.20811,-13.8373 0.83934,-3.6428 1.76866,-7.3068 4.05112,-9.2681 5.93776,-5.5677 11.66013,-11.2524 17.53779,-16.9052 1.65433,-1.8176 4.04681,-3.0508 4.55552,-6.2722 0.87062,-4.4378 -0.85933,-11.2889 -4.84282,-18.3085 -3.15104,-5.6149 -7.72467,-10.9918 -12.00364,-13.8157 -5.96694,-4.0393 -10.9589,-3.5609 -13.13619,-0.01 -4.39388,6.7218 -5.5934,16.7813 -8.50136,25.1706 -1.60608,4.9517 -4.11704,8.894 -7.15351,12.1025 -2.33785,2.964 -7.59831,1.2955 -11.63014,1.3701 1.88367,2.1343 -8.34698,18.52 -8.93283,23.6899 -16.49392,28.1121 -33.18499,56.128 -49.92906,83.9453 -3.78905,6.1226 -7.24481,12.6859 -11.73307,17.8702 -4.71381,6.1134 -11.54187,6.2166 -17.3785,9.0253 -1.24103,8.6064 -0.28909,18.0021 -3.98693,25.4984 -3.03494,6.9721 -7.34578,12.9586 -11.13477,19.0811 -13.25708,20.838 -26.65487,41.3261 -40.01539,61.9371 -0.078,-0.2352 -0.1405,-0.5032 -0.2157,-0.7402 -3.29843,5.6224 -6.68842,11.0914 -9.99106,16.6876 -0.59361,1.0108 -1.24259,1.9563 -1.836,2.9669 -12.61962,21.3634 -25.14349,42.7694 -37.93549,64.0206 -3.78899,6.1225 -7.41172,12.9556 -11.89997,18.1399 -4.76679,6.1813 -11.49854,6.1252 -17.3785,9.0252 -1.18278,8.5336 -0.33012,18.085 -3.98701,25.4984 -3.03476,6.9724 -7.17873,12.6888 -10.96786,18.8114 -17.27907,27.1593 -34.70471,54.2715 -52.22482,81.1215 -3.5537,1.5188 -13.68195,18.0306 -15.43713,15.6886 0.49395,5.6421 2.37941,12.7638 0.61347,16.4313 -1.84353,4.6758 -4.2733,8.718 -7.53532,11.6325 -5.50155,5.1992 -12.40858,8.2379 -16.5365,15.2868 -2.20189,3.5232 -1.86155,10.5608 1.78591,18.3484 2.56437,5.5941 6.96302,11.2541 11.33595,14.8945 5.47305,4.6129 10.52204,6.1007 13.52256,4.2833 2.1949,-1.1473 2.73726,-4.6565 3.7904,-7.2137 3.17567,-8.9764 6.39506,-17.7401 9.50293,-26.7889 1.06903,-3.4539 3.51778,-5.2489 5.96397,-6.915 2.30198,-1.7551 6.22981,-0.9842 9.8879,-0.1877 -1.1247,-1.2437 8.19796,-20.3969 9.21784,-25.2395 17.59018,-29.9895 35.29905,-59.8153 53.07614,-89.5749 2.71802,-4.3053 5.0922,-9.6379 8.75265,-12.5105 5.02634,-4.0151 10.57121,-6.1266 16.16139,-8.1474 0.66234,-8.0825 1.56156,-16.3837 3.70184,-23.9489 1.52256,-5.5024 4.78279,-9.2704 7.43851,-13.652 14.87159,-23.1995 29.89742,-46.1957 44.88036,-69.2539 0.0977,0.1992 0.28661,0.2704 0.38268,0.4706 2.96729,-5.0595 6.01525,-10.0193 8.98951,-15.0693 0.48825,-0.8239 1.01399,-1.6035 1.50218,-2.4275 14.17354,-24.0539 28.29734,-48.1596 42.58468,-72.0778 2.71803,-4.3052 4.92545,-9.3681 8.58575,-12.2408 5.02644,-4.0149 10.7382,-6.3963 16.32829,-8.4171 z"
             id="path50-7-9-8-6-0-2" />
        </g>
        <path
           sodipodi:nodetypes="ccccc"
           id="path18-2-3-9-2-2-8-4-8-4-5-0-3-9"
           d="m 2083.3015,2254.6084 c -0.7889,43.2762 -7.2421,39.5486 0.3298,76.5481 -16.9981,-28.9267 -32.9698,-14.1694 -45.2825,-47.0176 -26.7602,-53.1486 -0.3405,-81.5348 16.3172,-138.691 22.5795,88.391 26.6769,59.0278 28.6347,109.1605 z"
           inkscape:connector-curvature="0"
           style="fill:#cc9900;fill-opacity:1;stroke:#000000;stroke-width:7.75847101;stroke-miterlimit:4;stroke-opacity:1;stroke-dasharray:none" />
        <path
           sodipodi:nodetypes="cscccc"
           id="path18-2-0-2-8-6-8-1-9-8-5-1-6-4-0"
           d="m 2104.8517,2374.3023 c -9.4777,-1.2345 -37.4765,-28.6163 -49.5806,-33.8522 -11.9815,-5.1827 -27.5101,-4.2941 -39.0677,-8.125 -35.2611,-5.968 -75.1626,-64.9799 -111.5037,-124.5286 99.6358,30.1789 80.0158,25.7587 129.484,69.3293 24.0547,27.334 46.1692,32.2603 70.668,97.1765 z"
           inkscape:connector-curvature="0"
           style="fill:#cc9900;fill-opacity:1;stroke:#000000;stroke-width:5.37681532;stroke-miterlimit:4;stroke-opacity:1;stroke-dasharray:none" />
        <path
           sodipodi:nodetypes="ccccc"
           id="path18-2-3-9-2-2-8-4-8-4-5-0-0-0-3"
           d="m 2150.7056,2333.7515 c 13.0015,41.3606 5.6856,39.7929 24.6371,72.6314 -25.3419,-22.2841 -35.8286,-3.3765 -57.9652,-30.8201 -42.3137,-42.3125 -26.2303,-77.3661 -28.5642,-136.7693 49.5399,77.0769 44.1028,47.9238 61.8923,94.958 z"
           inkscape:connector-curvature="0"
           style="fill:#cc9900;fill-opacity:1;stroke:#000000;stroke-width:7.75847101;stroke-miterlimit:4;stroke-opacity:1;stroke-dasharray:none" />
        <path
           sodipodi:nodetypes="cscccc"
           id="path18-2-0-2-8-6-8-1-9-8-5-1-6-7-0-8"
           d="m 2209.2141,2440.8863 c -9.3975,1.7264 -44.7012,-15.7247 -57.8655,-16.996 -13.0313,-1.2591 -27.5033,4.336 -39.7018,4.2319 -35.3998,5.1177 -92.0632,-38.7456 -145.5138,-84.2075 104.2585,-1.808 84.2118,0 145.0584,26.2591 31.5411,18.6121 54.1185,16.5273 98.0227,70.7125 z"
           inkscape:connector-curvature="0"
           style="fill:#cc9900;fill-opacity:1;stroke:#000000;stroke-width:5.37681532;stroke-miterlimit:4;stroke-opacity:1;stroke-dasharray:none" />
        <path
           sodipodi:nodetypes="ccccc"
           id="path18-2-3-9-2-2-8-4-8-4-5-0-0-6-5-8"
           d="m 2243.8091,2392.4613 c 23.2938,36.7562 15.8124,37.0652 42.6521,64.0944 -30.2845,-15.227 -35.5257,5.6759 -64.0474,-15.3407 -51.8896,-30.3611 -45.4208,-68.2762 -63.0744,-125.1435 67.8883,62.1793 55.0741,35.3416 84.4697,76.3898 z"
           inkscape:connector-curvature="0"
           style="fill:#cc9900;fill-opacity:1;stroke:#000000;stroke-width:7.75847101;stroke-miterlimit:4;stroke-opacity:1;stroke-dasharray:none" />
        <path
           sodipodi:nodetypes="cscccc"
           id="path18-2-0-2-8-6-8-1-9-8-5-1-6-7-3-3-5"
           d="m 2328.1617,2481.4717 c -8.641,4.0152 -47.3071,-4.0518 -60.3678,-1.9963 -12.9292,2.0343 -25.4752,11.057 -37.2995,14.0007 -32.9092,13.784 -99.0783,-14.4964 -162.5549,-45.1239 100.3615,-27.7671 81.4427,-21.0156 147.095,-10.805 35.3278,10.1283 56.6223,2.4778 113.1272,43.9245 z"
           inkscape:connector-curvature="0"
           style="fill:#cc9900;fill-opacity:1;stroke:#000000;stroke-width:5.37681532;stroke-miterlimit:4;stroke-opacity:1;stroke-dasharray:none" />
        <path
           sodipodi:nodetypes="ccccc"
           id="path18-2-3-9-2-2-8-4-8-4-5-0-0-61-1-7"
           d="m 2357.5161,2436.2974 c 28.3876,33.1292 21.0271,34.4802 51.5133,57.4863 -32.1845,-10.8431 -34.3406,10.579 -65.62,-6.2414 -55.7646,-22.8059 -54.8605,-61.2384 -80.5819,-115.0621 76.215,52.0665 59.6393,27.2915 94.6886,63.8172 z"
           inkscape:connector-curvature="0"
           style="fill:#cc9900;fill-opacity:1;stroke:#000000;stroke-width:7.75847101;stroke-miterlimit:4;stroke-opacity:1;stroke-dasharray:none" />
        <path
           sodipodi:nodetypes="cscccc"
           id="path18-2-0-2-8-6-8-1-9-8-5-1-6-7-5-0-7"
           d="m 2465.0824,2517.1167 c -7.9709,5.181 -56.8858,-10.5482 -69.5156,-6.6882 -12.5024,3.8192 -25.3028,23.1502 -36.5798,27.7149 -30.5753,18.2388 -100.1724,-0.5136 -167.4446,-21.9654 95.3132,-41.4989 77.566,-32.1746 144.0305,-31.2355 36.4372,5.0922 67.5687,-0.9601 129.5095,32.1742 z"
           inkscape:connector-curvature="0"
           style="fill:#cc9900;fill-opacity:1;stroke:#000000;stroke-width:5.37681532;stroke-miterlimit:4;stroke-opacity:1;stroke-dasharray:none" />
        <path
           sodipodi:nodetypes="ccccc"
           id="path18-2-9-0-7-4-6-0"
           d="m 2678.1291,1715.8051 c 23.2141,15.9362 87.2994,23.6251 112.0588,36.1586 -16.553,-18.0936 -45.7017,-43.5329 -66.2677,-58.8457 -31.5453,-29.8958 -90.5532,-30.8314 -135.9797,-28.9598 58.3113,23.6956 74.6983,39.638 90.1886,51.6469 z"
           inkscape:connector-curvature="0"
           style="fill:#cc9900;fill-opacity:1;stroke:#000000;stroke-width:5.94335747;stroke-miterlimit:4;stroke-opacity:1;stroke-dasharray:none" />
        <path
           sodipodi:nodetypes="ccsccc"
           id="path18-2-3-0-5-4-2-7-8"
           d="m 2764.0172,1723.0436 c 19.6342,24.5213 52.472,56.9305 74.4848,77.8943 -7.3818,-15.0881 -26.2307,-29.9024 -24.7233,-54.7414 0.9428,-15.5363 -8.1664,-41.2161 -15.0757,-50.5509 -24.701,-42.9032 -67.0711,-46.3837 -113.4304,-55.931 53.241,42.6012 65.9736,65.3677 78.7446,83.329 z"
           inkscape:connector-curvature="0"
           style="fill:#cc9900;fill-opacity:1;stroke:#000000;stroke-width:6.61056423;stroke-miterlimit:4;stroke-opacity:1;stroke-dasharray:none" />
        <path
           sodipodi:nodetypes="ccccc"
           id="path18-2-3-9-25-4-0-0-5-9"
           d="m 2767.6261,1788.7545 c 31.5766,-1.2035 40.7312,-3.1808 61.6298,7.2893 -18.602,-20.5618 -16.6895,-22.2471 -39.1992,-39.2371 -35.0646,-33.7109 -84.8772,-17.9095 -131.5947,-12.8263 62.1625,24.6308 71.4763,39.9422 109.1641,44.7741 z"
           inkscape:connector-curvature="0"
           style="fill:#cc9900;fill-opacity:1;stroke:#000000;stroke-width:6.61056423;stroke-miterlimit:4;stroke-opacity:1;stroke-dasharray:none" />
        <path
           sodipodi:nodetypes="ccccc"
           id="path18-2-3-2-3-4-9-9-0-3"
           d="m 2843.5141,1795.4109 c 28.849,30.8553 40.3934,56.3126 50.9756,81.7142 -1.8437,-24.5949 -4.0353,-64.8665 3.0063,-79.02 -5.9825,-43.2779 -45.5027,-79.2726 -78.3083,-106.3903 6.8033,53.1037 19.9499,84.5379 24.3264,103.6961 z"
           inkscape:connector-curvature="0"
           style="fill:#cc9900;fill-opacity:1;stroke:#000000;stroke-width:5.5986619;stroke-miterlimit:4;stroke-opacity:1;stroke-dasharray:none" />
        <path
           sodipodi:nodetypes="ccccc"
           id="path18-2-3-9-2-2-8-4-7-0-0"
           d="m 2817.3068,1849.8146 c 28.9441,25.8779 48.6506,19.0531 79.9708,40.9552 -8.2331,-22.7295 -7.8891,-41.1702 -33.4111,-65.6206 -38.4998,-45.6849 -75.436,-25.9834 -135.4062,-34.4222 72.9887,56.3426 42.0179,42.9136 88.8465,59.0876 z"
           inkscape:connector-curvature="0"
           style="fill:#cc9900;fill-opacity:1;stroke:#000000;stroke-width:7.75847101;stroke-miterlimit:4;stroke-opacity:1;stroke-dasharray:none" />
        <path
           sodipodi:nodetypes="csscccc"
           id="path18-2-0-2-8-6-8-1-9-8-3-4-7"
           d="m 2939.0316,2002.9819 c 1.7479,-4.4849 4.6787,-11.4192 2.9758,-23.7699 -1.6241,-11.78 -7.8606,-28.9415 -7.3314,-35.2569 1.0733,-12.8048 6.9622,-25.6539 9.0442,-37.4481 11.4749,-33.2564 -0.4259,-73.932 -36.4273,-133.6794 -20.4978,100.3231 -3.0854,54.5972 -9.9731,117.3719 13.0075,33.7838 19.8576,86.7462 41.7118,112.7824 z"
           inkscape:connector-curvature="0"
           style="fill:#cc9900;fill-opacity:1;stroke:#000000;stroke-width:5.37681532;stroke-miterlimit:4;stroke-opacity:1;stroke-dasharray:none" />
        <path
           sodipodi:nodetypes="ccccc"
           id="path18-2-3-9-2-2-8-4-8-7-5-4"
           d="m 2856.5205,1931.8772 c 36.3621,24.5016 37.0169,17.1818 63.316,44.7184 -14.1276,-30.3776 7.391,-34.566 -12.711,-63.4781 -28.5543,-52.2418 -68.7264,-40.0808 -125.82,-59.9673 60.2209,69.3694 34.7592,48.0493 75.215,78.727 z"
           inkscape:connector-curvature="0"
           style="fill:#cc9900;fill-opacity:1;stroke:#000000;stroke-width:7.75847101;stroke-miterlimit:4;stroke-opacity:1;stroke-dasharray:none" />
        <path
           sodipodi:nodetypes="ccccc"
           id="path18-2-3-9-2-2-8-4-8-4-2-4-7"
           d="m 2886.0931,2023.0488 c 28.9909,32.6218 31.484,25.6933 49.9587,58.7927 -5.9655,-32.8741 15.938,-31.6675 3.8144,-64.5834 -14.383,-57.5769 -56.3765,-55.6244 -106.6168,-88.8469 40.6999,81.9081 21.4573,55.0337 52.8437,94.6376 z"
           inkscape:connector-curvature="0"
           style="fill:#cc9900;fill-opacity:1;stroke:#000000;stroke-width:7.75847101;stroke-miterlimit:4;stroke-opacity:1;stroke-dasharray:none" />
        <path
           sodipodi:nodetypes="cscccc"
           id="path18-2-0-2-8-6-8-1-9-8-5-6-9-8"
           d="m 2948.1138,2128.2636 c 6.4436,-6.9305 9.9103,-45.5701 15.7393,-57.2219 5.7701,-11.5336 18.2374,-20.6613 24.5697,-30.8926 23.0711,-26.8377 12.4908,-92.699 1.2421,-161.225 -56.457,86.0249 -37.8709,71.2852 -47.1499,135.8735 -0.4803,36.1116 -18.2339,48.3119 5.5988,113.466 z"
           inkscape:connector-curvature="0"
           style="fill:#cc9900;fill-opacity:1;stroke:#000000;stroke-width:5.37681532;stroke-miterlimit:4;stroke-opacity:1;stroke-dasharray:none" />
        <path
           sodipodi:nodetypes="ccccc"
           id="path18-2-3-9-2-2-8-4-8-4-5-01-5-3"
           d="m 2894.9089,2143.1246 c 17.7902,39.6069 22.2706,33.7198 29.8759,70.7132 4.2694,-33.1272 24.8158,-25.5824 23.2187,-60.5469 3.7214,-59.1688 -31.8327,-75.3149 -69.7284,-121.6968 14.0286,90.0797 -1.3269,64.5585 16.6338,111.5305 z"
           inkscape:connector-curvature="0"
           style="fill:#cc9900;fill-opacity:1;stroke:#000000;stroke-width:7.75847101;stroke-miterlimit:4;stroke-opacity:1;stroke-dasharray:none" />
        <path
           sodipodi:nodetypes="cscccc"
           id="path18-2-0-2-8-6-8-1-9-8-5-1-65-6-7"
           d="m 2922.2285,2261.6793 c 8.2529,-4.7365 23.2758,-40.6151 32.3729,-50.038 9.0052,-9.3278 23.6748,-14.4034 32.8219,-22.3235 30.1624,-18.8889 43.6903,-88.4532 53.723,-157.1607 -79.9785,65.6528 -63.6291,54.1285 -92.0667,113.0855 -11.4047,34.3371 -29.8546,47.2754 -26.8511,116.4367 z"
           inkscape:connector-curvature="0"
           style="fill:#cc9900;fill-opacity:1;stroke:#000000;stroke-width:5.37681532;stroke-miterlimit:4;stroke-opacity:1;stroke-dasharray:none" />
        <path
           sodipodi:nodetypes="ccccc"
           id="path18-2-3-9-2-2-8-4-8-4-5-0-7-4-1"
           d="m 2856.9433,2259.6788 c 0.7889,43.2765 7.2417,39.5485 -0.3298,76.5481 16.9978,-28.9264 32.9694,-14.1694 45.2825,-47.0176 26.7599,-53.1487 0.3405,-81.5344 -16.3175,-138.6907 -22.5796,88.391 -26.6769,59.0278 -28.6348,109.1602 z"
           inkscape:connector-curvature="0"
           style="fill:#cc9900;fill-opacity:1;stroke:#000000;stroke-width:7.75847101;stroke-miterlimit:4;stroke-opacity:1;stroke-dasharray:none" />
        <path
           sodipodi:nodetypes="cscccc"
           id="path18-2-0-2-8-6-8-1-9-8-5-1-6-5-8-0"
           d="m 2835.3928,2379.3731 c 9.4776,-1.2346 37.4768,-28.6167 49.5806,-33.8523 11.9817,-5.183 27.51,-4.2944 39.0676,-8.1254 35.2611,-5.9676 75.1626,-64.9798 111.5037,-124.5285 -99.6358,30.1792 -80.0158,25.759 -129.484,69.3293 -24.0547,27.334 -46.1692,32.2606 -70.6679,97.1769 z"
           inkscape:connector-curvature="0"
           style="fill:#cc9900;fill-opacity:1;stroke:#000000;stroke-width:5.37681532;stroke-miterlimit:4;stroke-opacity:1;stroke-dasharray:none" />
        <path
           sodipodi:nodetypes="ccccc"
           id="path18-2-3-9-2-2-8-4-8-4-5-0-0-4-2-0"
           d="m 2789.5389,2338.8222 c -13.0015,41.3607 -5.6857,39.7925 -24.6371,72.6311 25.3418,-22.2841 35.8286,-3.3761 57.9651,-30.8201 42.3141,-42.3122 26.2307,-77.3658 28.5646,-136.7693 -49.5399,77.0769 -44.1032,47.9238 -61.8926,94.9583 z"
           inkscape:connector-curvature="0"
           style="fill:#cc9900;fill-opacity:1;stroke:#000000;stroke-width:7.75847101;stroke-miterlimit:4;stroke-opacity:1;stroke-dasharray:none" />
        <path
           sodipodi:nodetypes="cscccc"
           id="path18-2-0-2-8-6-8-1-9-8-5-1-6-7-1-1-8"
           d="m 2731.0304,2445.9567 c 9.3974,1.7267 44.7011,-15.7244 57.8654,-16.996 13.0313,-1.2591 27.5033,4.3359 39.7018,4.2319 35.3998,5.1177 92.0632,-38.7453 145.5138,-84.2072 -104.2581,-1.808 -84.2117,0 -145.0584,26.2591 -31.5407,18.6118 -54.1185,16.5269 -98.0226,70.7122 z"
           inkscape:connector-curvature="0"
           style="fill:#cc9900;fill-opacity:1;stroke:#000000;stroke-width:5.37681532;stroke-miterlimit:4;stroke-opacity:1;stroke-dasharray:none" />
        <path
           sodipodi:nodetypes="ccccc"
           id="path18-2-3-9-2-2-8-4-8-4-5-0-0-6-2-6-3"
           d="m 2696.4354,2397.532 c -23.2939,36.7559 -15.8124,37.0652 -42.6522,64.0944 30.2845,-15.227 35.5257,5.6759 64.0474,-15.3411 51.8896,-30.361 45.4208,-68.2761 63.0748,-125.1434 -67.8887,62.1793 -55.0744,35.3416 -84.47,76.3901 z"
           inkscape:connector-curvature="0"
           style="fill:#cc9900;fill-opacity:1;stroke:#000000;stroke-width:7.75847101;stroke-miterlimit:4;stroke-opacity:1;stroke-dasharray:none" />
        <path
           sodipodi:nodetypes="cscccc"
           id="path18-2-0-2-8-6-8-1-9-8-5-1-6-7-3-0-8-4"
           d="m 2612.0828,2486.5421 c 8.6409,4.0151 47.307,-4.0518 60.3678,-1.996 12.9291,2.0343 25.4752,11.057 37.2994,14.0007 32.9092,13.7837 99.0786,-14.4964 162.5549,-45.1239 -100.3615,-27.7674 -81.4427,-21.0159 -147.0946,-10.8054 -35.3278,10.1287 -56.6227,2.4778 -113.1275,43.9246 z"
           inkscape:connector-curvature="0"
           style="fill:#cc9900;fill-opacity:1;stroke:#000000;stroke-width:5.37681532;stroke-miterlimit:4;stroke-opacity:1;stroke-dasharray:none" />
        <path
           sodipodi:nodetypes="ccccc"
           id="path18-2-3-9-2-2-8-4-8-4-5-0-0-61-0-3-5"
           d="m 2582.7283,2441.3681 c -28.3876,33.1292 -21.027,34.4799 -51.5133,57.486 32.1845,-10.8431 34.3407,10.5789 65.62,-6.2411 55.7646,-22.8063 54.8605,-61.2388 80.5819,-115.0621 -76.2149,52.0665 -59.6392,27.2912 -94.6886,63.8172 z"
           inkscape:connector-curvature="0"
           style="fill:#cc9900;fill-opacity:1;stroke:#000000;stroke-width:7.75847101;stroke-miterlimit:4;stroke-opacity:1;stroke-dasharray:none" />
        <path
           sodipodi:nodetypes="cscccc"
           id="path18-2-0-2-8-6-8-1-9-8-5-1-6-7-5-1-1-0"
           d="m 2481.8316,2518.1598 c 7.9706,5.181 50.2162,-6.5206 62.846,-2.661 12.5024,3.8192 25.3028,23.1502 36.5802,27.7153 30.5749,18.2388 100.1721,-0.514 167.4442,-21.9657 -95.3128,-41.499 -77.5659,-32.1746 -144.0305,-31.2352 -36.4372,5.0922 -60.8991,-4.9881 -122.8399,28.1466 z"
           inkscape:connector-curvature="0"
           style="fill:#cc9900;fill-opacity:1;stroke:#000000;stroke-width:5.37681532;stroke-miterlimit:4;stroke-opacity:1;stroke-dasharray:none" />
        <g
           transform="matrix(8.2084246,0,0,8.0544813,85.522018,16726.275)"
           id="g5438-5-4-1"
           style="fill:#cc9900;fill-opacity:1">
          <path
             style="font-size:12px;font-style:normal;font-weight:normal;fill:#ce1126;fill-opacity:1;fill-rule:evenodd;stroke:#ce1126;stroke-width:6.15019531pt;stroke-linecap:butt;stroke-linejoin:miter;stroke-miterlimit:10;stroke-opacity:1;stroke-dasharray:none;stroke-dashoffset:0;font-family:Dialog"
             sodipodi:nodetypes="ccccccccccccccccccccccccsccc"
             id="path630-5-8-4"
             d="m 3659.1701,10493.463 c 0,0 -2.6916,558.221 -2.6916,608.091 0,49.871 0,118.442 -41.5007,105.976 -41.501,-12.469 -92.2246,-12.469 -166.0038,-81.041 -73.7793,-68.571 -73.7793,-81.039 -73.7793,-81.039 l 69.1679,-31.169 c 0,0 -69.1679,-18.702 -115.2802,-62.339 -46.112,-43.637 -83.0021,-81.039 -83.0021,-81.039 0,0 -4.6114,93.507 18.4453,162.079 23.0561,68.572 69.1677,130.911 69.1677,130.911 l 0,-81.041 c 0,0 64.5572,81.041 87.6131,99.742 23.0562,18.702 115.2806,68.573 152.1704,99.741 36.8897,31.169 110.6689,88.391 110.6689,88.391 0,0 64.5574,-69.689 110.6691,-94.624 46.1121,-24.935 106.0583,-62.34 133.7253,-87.275 27.6674,-24.934 101.4468,-118.442 101.4468,-118.442 l 0,105.975 c 0,0 50.7238,-81.04 64.557,-137.145 13.8336,-56.104 18.4446,-155.844 18.4446,-155.844 0,0 -36.8894,37.403 -69.1677,56.103 -32.2786,18.702 -124.5032,68.573 -124.5032,68.573 l 73.7794,24.935 c 0,0 -119.8915,124.676 -161.3923,149.612 -29.0576,17.459 -88.6762,36.319 -117.0445,20.155 -12.1481,-6.921 -12.0694,-26.4 -12.0694,-45.091 0,-62.338 2.6914,-664.195 2.6914,-664.195 z"
             inkscape:connector-curvature="0"
             transform="matrix(0.1,0,0,0.1,-78,-2907.6378)" />
          <path
             style="font-size:12px;font-style:normal;font-weight:normal;fill:#ce1126;fill-opacity:1;fill-rule:evenodd;stroke:#ce1126;stroke-width:0.41705737pt;stroke-linecap:butt;stroke-linejoin:miter;stroke-miterlimit:10;stroke-opacity:1;stroke-dasharray:none;stroke-dashoffset:0;font-family:Dialog"
             sodipodi:nodetypes="cccccc"
             id="path630-9-3-4-5"
             d="m 267.85906,-1852.2218 c 0,0 39.18245,-0.1725 42.76063,-0.1725 11.14182,0.027 11.96098,1.5266 7.79441,7.7471 0.51984,-4.1198 -1.09373,-4.8019 -3.76894,-4.7919 -4.47276,0 -46.7861,0.1724 -46.7861,0.1724 z"
             inkscape:connector-curvature="0" />
          <path
             transform="matrix(-1.1315978,0,0,1.2015281,565.64891,373.21502)"
             sodipodi:open="true"
             sodipodi:end="9.4109773"
             sodipodi:start="3.1280563"
             d="m 260.96476,-1850.867 c -0.0306,-2.1227 1.77915,-3.8667 4.04227,-3.8955 2.26312,-0.029 4.12257,1.6688 4.15321,3.7914 0.0306,2.1227 -1.77915,3.8667 -4.04227,3.8954 -2.26269,0.029 -4.12197,-1.6681 -4.15319,-3.7903"
             sodipodi:ry="3.84375"
             sodipodi:rx="4.098115"
             sodipodi:cy="-1850.9191"
             sodipodi:cx="265.0625"
             id="path5415-3-9-6"
             style="fill:#ce1126;fill-opacity:1;stroke:none"
             sodipodi:type="arc" />
          <path
             transform="matrix(-0.00671852,-0.75792198,-0.82155085,0.00698792,-1228.6851,-1647.356)"
             sodipodi:open="true"
             sodipodi:end="9.4109773"
             sodipodi:start="3.1280563"
             d="m 260.96476,-1850.867 c -0.0306,-2.1227 1.77915,-3.8667 4.04227,-3.8955 2.26312,-0.029 4.12257,1.6688 4.15321,3.7914 0.0306,2.1227 -1.77915,3.8667 -4.04227,3.8954 -2.26269,0.029 -4.12197,-1.6681 -4.15319,-3.7903"
             sodipodi:ry="3.84375"
             sodipodi:rx="4.098115"
             sodipodi:cy="-1850.9191"
             sodipodi:cx="265.0625"
             id="path5415-2-3-2-2"
             style="fill:none;stroke:#ce1126;stroke-width:3.80167866;stroke-miterlimit:4;stroke-opacity:1;stroke-dasharray:none"
             sodipodi:type="arc" />
        </g>
      </g>
    </g>
  </g>
</svg>
