<?xml version="1.0" encoding="UTF-8"?>
<svg xmlns="http://www.w3.org/2000/svg" width="540" height="270">
	<rect width="540" height="270" fill="#fff"/>
	<path d="M 270,0 V 270 M 0,135 H 540" stroke="#c00" stroke-width="36"/>
	<rect width="252" height="117" fill="#00267f"/>
	<rect x="84" width="84" height="117" fill="#ffc726"/>
	<path d="M 126,20.708 C 128.73,27.622 131.509,34.814 137.466,40.331 C 135.618,39.764 132.382,39.257 130.312,39.308 L 130.312,68.376 L 139.141,69.595 C 139.461,69.564 139.568,69.108 139.569,68.481 C 140.415,59.46 142.722,51.864 145.364,44.024 C 145.551,42.948 148.898,38.859 146.32,39.576 C 146.009,39.613 142.542,40.924 143.091,40.298 C 147.8,35.777 154.672,32.521 161.353,31.552 C 161.943,31.411 162.291,31.684 161.759,32.32 C 152.907,44.989 145.489,59.936 145.55,77.67 C 142.101,77.67 133.761,75.783 130.312,75.783 C 130.25,80.732 130.375,91.343 130.312,96.292 L 121.688,96.292 C 121.625,91.343 121.75,80.732 121.688,75.783 C 118.239,75.783 109.898,77.67 106.449,77.67 C 106.511,59.936 99.092,44.989 90.241,32.32 C 89.709,31.684 90.057,31.411 90.647,31.552 C 97.327,32.521 104.2,35.777 108.908,40.298 C 109.458,40.924 105.99,39.613 105.68,39.576 C 103.102,38.859 106.449,42.948 106.636,44.024 C 109.278,51.864 111.585,59.46 112.431,68.481 C 112.432,69.108 112.539,69.564 112.859,69.595 L 121.688,68.376 L 121.688,39.308 C 119.617,39.257 116.382,39.764 114.534,40.331 C 120.49,34.814 123.269,27.622 126,20.708 z" fill="#000"/>
</svg>