<?xml version="1.0" encoding="UTF-8" standalone="no"?>
<svg
   xmlns:dc="http://purl.org/dc/elements/1.1/"
   xmlns:cc="http://creativecommons.org/ns#"
   xmlns:rdf="http://www.w3.org/1999/02/22-rdf-syntax-ns#"
   xmlns="http://www.w3.org/2000/svg"
   xmlns:xlink="http://www.w3.org/1999/xlink"
   xmlns:sodipodi="http://sodipodi.sourceforge.net/DTD/sodipodi-0.dtd"
   xmlns:inkscape="http://www.inkscape.org/namespaces/inkscape"
   version="1.0"
   width="800" height="400" viewBox="0 0 706.56958 353.28479"
   sodipodi:docname="Flag_of_Bosnia_and_Herzegovina_(1992-1998).svg"
   sodipodi:docbase="C:\Documents and Settings\Dr. Kijana\My Documents\My Pictures"
   inkscape:output_extension="org.inkscape.output.svg.inkscape">
  <metadata>
    <rdf:RDF>
      <cc:Work rdf:about="">
        <dc:format>image/svg+xml</dc:format>
        <dc:type rdf:resource="http://purl.org/dc/dcmitype/StillImage"/>
      </cc:Work>
    </rdf:RDF>
  </metadata>
  <rect width="706.56958" height="353.28479"
     style="fill:#ffffff;fill-opacity:1;fill-rule:nonzero;stroke:none"/>
  <g
     transform="translate(215.67355,-12.196002)scale(4.68003)translate(-5.007694,-16.49946)scale(1.194394)"
     id="Layer_x0020_1">
    <path
       d="M 13.9104,27.7837 L 42.947,27.7837 L 42.9469,44.8805 C 42.9469,57.5974 29.7306,67.0875 28.4099,67.0863 C 27.0793,67.0851 13.9104,57.679 13.9104,44.8805 L 13.9104,27.7837 L 13.9104,27.7837 z"
       style="fill:#003e9e;fill-opacity:1;stroke:#eeca00;stroke-width:1"
       id="path2029" />
    <path
       d="M 15.1225,29.2917 L 15.1192,31.7274 L 37.0807,57.103 C 37.6859,56.5366 38.7215,54.9407 38.9277,54.2715 L 17.3035,29.2869 L 15.1225,29.2917 L 15.1225,29.2917 z"
       style="fill:#ffffff"
       id="path2031" />
    <path
       d="M 37.7761,30.398 C 37.3335,30.6472 36.8357,31.0833 36.8357,31.9556 C 36.891,32.7032 37.5548,34.5724 37.4995,35.4447 L 37.4442,35.4447 C 37.3889,35.3201 37.3889,34.6347 37.0016,33.9493 C 36.6144,33.2017 36.2825,33.264 36.0059,33.264 C 35.508,33.264 35.0654,33.7624 35.0654,34.3232 C 35.0654,34.8216 35.5633,35.4447 36.0059,35.4447 C 35.8399,35.3201 35.7846,35.0085 35.8399,34.8216 C 35.8399,34.697 36.1165,34.5101 36.2825,34.5101 C 36.5037,34.5724 36.6697,34.697 36.8357,34.8839 C 37.0016,35.0708 37.1123,35.2577 37.2229,35.4447 L 37.0569,35.4447 L 36.5591,35.4447 C 36.3931,35.4447 36.2825,35.5693 36.2825,35.6939 C 36.2825,35.8808 36.3931,35.9431 36.5591,35.9431 L 37.2229,35.9431 C 37.6655,36.0054 37.2782,36.7531 37.1676,36.8777 C 37.2782,37.0023 37.3335,37.0646 37.4442,37.1892 C 37.4995,37.3138 37.5548,37.4384 37.5548,37.6253 C 37.5548,37.6253 37.5548,37.6253 37.5548,37.6253 C 37.5548,37.6253 37.5548,37.6253 37.5548,37.6253 C 37.6101,37.7499 37.6655,37.8123 37.7761,37.8123 C 37.8867,37.8123 37.8867,37.7499 37.9421,37.6253 C 37.9421,37.6253 37.9421,37.6253 37.9421,37.6253 C 37.9421,37.6253 37.9421,37.6253 37.9421,37.6253 C 37.9974,37.4384 37.9974,37.3138 38.108,37.1892 C 38.1633,37.0646 38.274,37.0023 38.3293,36.8777 C 38.274,36.7531 37.8314,36.0054 38.3293,35.9431 L 38.8825,35.9431 C 39.0485,35.9431 39.1591,35.8808 39.1591,35.6939 C 39.1591,35.5693 39.0485,35.4447 38.8825,35.4447 L 38.4953,35.4447 L 38.3293,35.4447 C 38.3846,35.2577 38.5506,35.0708 38.6059,34.8839 C 38.7719,34.697 38.9378,34.5724 39.1591,34.5101 C 39.3804,34.5101 39.6017,34.697 39.657,34.8216 C 39.7123,34.9462 39.657,35.3201 39.491,35.4447 C 39.9336,35.4447 40.4315,34.8216 40.4315,34.3232 C 40.4315,33.7624 39.9889,33.264 39.491,33.264 C 39.2144,33.264 38.8825,33.2017 38.4953,33.9493 C 38.108,34.6347 38.108,35.3201 38.108,35.4447 L 37.9974,35.4447 C 37.9974,34.5724 38.6059,32.7032 38.6612,31.9556 C 38.6059,31.0833 38.1633,30.6472 37.7761,30.398 L 37.7761,30.398 z"
       style="fill:#eec900"
       id="path2033" />
    <path
       d="M 29.0857,30.398 C 28.6431,30.6472 28.1452,31.0833 28.1452,31.9556 C 28.2006,32.7032 28.8644,34.5724 28.8091,35.4447 L 28.7538,35.4447 C 28.6984,35.3201 28.6984,34.6347 28.3112,33.9493 C 27.924,33.2017 27.592,33.264 27.3154,33.264 C 26.8176,33.264 26.375,33.7624 26.375,34.3232 C 26.375,34.8216 26.8729,35.4447 27.3154,35.4447 C 27.1495,35.3201 27.0942,35.0085 27.1495,34.8216 C 27.1495,34.697 27.4261,34.5101 27.592,34.5101 C 27.8133,34.5724 27.9793,34.697 28.1452,34.8839 C 28.3112,35.0708 28.4218,35.2577 28.5325,35.4447 L 28.3665,35.4447 L 27.8686,35.4447 C 27.7027,35.4447 27.592,35.5693 27.592,35.6939 C 27.592,35.8808 27.7027,35.9431 27.8686,35.9431 L 28.5325,35.9431 C 28.975,36.0054 28.5878,36.7531 28.4772,36.8777 C 28.5878,37.0023 28.6431,37.0646 28.7538,37.1892 C 28.8091,37.3138 28.8644,37.4384 28.8644,37.6253 C 28.8644,37.6253 28.8644,37.6253 28.8644,37.6253 C 28.8644,37.6253 28.8644,37.6253 28.8644,37.6253 C 28.9197,37.7499 28.975,37.8123 29.0857,37.8123 C 29.1963,37.8123 29.1963,37.7499 29.2516,37.6253 C 29.2516,37.6253 29.2516,37.6253 29.2516,37.6253 C 29.2516,37.6253 29.2516,37.6253 29.2516,37.6253 C 29.307,37.4384 29.307,37.3138 29.4176,37.1892 C 29.4729,37.0646 29.5836,37.0023 29.6389,36.8777 C 29.5836,36.7531 29.141,36.0054 29.6389,35.9431 L 30.1921,35.9431 C 30.3581,35.9431 30.4687,35.8808 30.4687,35.6939 C 30.4687,35.5693 30.3581,35.4447 30.1921,35.4447 L 29.8048,35.4447 L 29.6389,35.4447 C 29.6942,35.2577 29.8602,35.0708 29.9155,34.8839 C 30.0815,34.697 30.2474,34.5724 30.4687,34.5101 C 30.69,34.5101 30.9113,34.697 30.9666,34.8216 C 31.0219,34.9462 30.9666,35.3201 30.8006,35.4447 C 31.2432,35.4447 31.7411,34.8216 31.7411,34.3232 C 31.7411,33.7624 31.2985,33.264 30.8006,33.264 C 30.524,33.264 30.1921,33.2017 29.8048,33.9493 C 29.4176,34.6347 29.4176,35.3201 29.4176,35.4447 L 29.307,35.4447 C 29.307,34.5724 29.9155,32.7032 29.9708,31.9556 C 29.9155,31.0833 29.4729,30.6472 29.0857,30.398 L 29.0857,30.398 z"
       style="fill:#eec900"
       id="path2035" />
    <path
       d="M 37.7761,40.5031 C 37.3335,40.7523 36.8357,41.1884 36.8357,42.0607 C 36.891,42.8084 37.5548,44.6775 37.4995,45.5498 L 37.4442,45.5498 C 37.3889,45.4252 37.3889,44.7398 37.0016,44.0545 C 36.6144,43.3068 36.2825,43.3691 36.0059,43.3691 C 35.508,43.3691 35.0654,43.8675 35.0654,44.4283 C 35.0654,44.9267 35.5633,45.5498 36.0059,45.5498 C 35.8399,45.4252 35.7846,45.1136 35.8399,44.9267 C 35.8399,44.8021 36.1165,44.6152 36.2825,44.6152 C 36.5037,44.6775 36.6697,44.8021 36.8357,44.989 C 37.0016,45.1759 37.1123,45.3629 37.2229,45.5498 L 37.0569,45.5498 L 36.5591,45.5498 C 36.3931,45.5498 36.2825,45.6744 36.2825,45.799 C 36.2825,45.9859 36.3931,46.0482 36.5591,46.0482 L 37.2229,46.0482 C 37.6655,46.1105 37.2782,46.8582 37.1676,46.9828 C 37.2782,47.1074 37.3335,47.1697 37.4442,47.2943 C 37.4995,47.4189 37.5548,47.5435 37.5548,47.7305 C 37.5548,47.7305 37.5548,47.7305 37.5548,47.7305 C 37.5548,47.7305 37.5548,47.7305 37.5548,47.7305 C 37.6101,47.8551 37.6655,47.9174 37.7761,47.9174 C 37.8867,47.9174 37.8867,47.8551 37.9421,47.7305 C 37.9421,47.7305 37.9421,47.7305 37.9421,47.7305 C 37.9421,47.7305 37.9421,47.7305 37.9421,47.7305 C 37.9974,47.5435 37.9974,47.4189 38.108,47.2943 C 38.1633,47.1697 38.274,47.1074 38.3293,46.9828 C 38.274,46.8582 37.8314,46.1105 38.3293,46.0482 L 38.8825,46.0482 C 39.0485,46.0482 39.1591,45.9859 39.1591,45.799 C 39.1591,45.6744 39.0485,45.5498 38.8825,45.5498 L 38.4953,45.5498 L 38.3293,45.5498 C 38.3846,45.3629 38.5506,45.1759 38.6059,44.989 C 38.7719,44.8021 38.9378,44.6775 39.1591,44.6152 C 39.3804,44.6152 39.6017,44.8021 39.657,44.9267 C 39.7123,45.0513 39.657,45.4252 39.491,45.5498 C 39.9336,45.5498 40.4315,44.9267 40.4315,44.4283 C 40.4315,43.8675 39.9889,43.3691 39.491,43.3691 C 39.2144,43.3691 38.8825,43.3068 38.4953,44.0545 C 38.108,44.7398 38.108,45.4252 38.108,45.5498 L 37.9974,45.5498 C 37.9974,44.6775 38.6059,42.8084 38.6612,42.0607 C 38.6059,41.1884 38.1633,40.7523 37.7761,40.5031 L 37.7761,40.5031 z"
       style="fill:#eec900"
       id="path2037" />
    <path
       d="M 18.7785,40.5031 C 18.3359,40.7523 17.838,41.1884 17.838,42.0607 C 17.8933,42.8084 18.5572,44.6775 18.5019,45.5498 L 18.4465,45.5498 C 18.3912,45.4252 18.3912,44.7398 18.004,44.0545 C 17.6167,43.3068 17.2848,43.3691 17.0082,43.3691 C 16.5103,43.3691 16.0678,43.8675 16.0678,44.4283 C 16.0678,44.9267 16.5657,45.5498 17.0082,45.5498 C 16.8423,45.4252 16.7869,45.1136 16.8423,44.9267 C 16.8423,44.8021 17.1189,44.6152 17.2848,44.6152 C 17.5061,44.6775 17.6721,44.8021 17.838,44.989 C 18.004,45.1759 18.1146,45.3629 18.2253,45.5498 L 18.0593,45.5498 L 17.5614,45.5498 C 17.3955,45.5498 17.2848,45.6744 17.2848,45.799 C 17.2848,45.9859 17.3955,46.0482 17.5614,46.0482 L 18.2253,46.0482 C 18.6678,46.1105 18.2806,46.8582 18.1699,46.9828 C 18.2806,47.1074 18.3359,47.1697 18.4465,47.2943 C 18.5019,47.4189 18.5572,47.5435 18.5572,47.7305 C 18.5572,47.7305 18.5572,47.7305 18.5572,47.7305 C 18.5572,47.7305 18.5572,47.7305 18.5572,47.7305 C 18.6125,47.8551 18.6678,47.9174 18.7785,47.9174 C 18.8891,47.9174 18.8891,47.8551 18.9444,47.7305 C 18.9444,47.7305 18.9444,47.7305 18.9444,47.7305 C 18.9444,47.7305 18.9444,47.7305 18.9444,47.7305 C 18.9997,47.5435 18.9997,47.4189 19.1104,47.2943 C 19.1657,47.1697 19.2763,47.1074 19.3317,46.9828 C 19.2763,46.8582 18.8338,46.1105 19.3317,46.0482 L 19.8849,46.0482 C 20.0508,46.0482 20.1615,45.9859 20.1615,45.799 C 20.1615,45.6744 20.0508,45.5498 19.8849,45.5498 L 19.4976,45.5498 L 19.3317,45.5498 C 19.387,45.3629 19.553,45.1759 19.6083,44.989 C 19.7742,44.8021 19.9402,44.6775 20.1615,44.6152 C 20.3828,44.6152 20.604,44.8021 20.6594,44.9267 C 20.7147,45.0513 20.6594,45.4252 20.4934,45.5498 C 20.936,45.5498 21.4338,44.9267 21.4338,44.4283 C 21.4338,43.8675 20.9913,43.3691 20.4934,43.3691 C 20.2168,43.3691 19.8849,43.3068 19.4976,44.0545 C 19.1104,44.7398 19.1104,45.4252 19.1104,45.5498 L 18.9997,45.5498 C 18.9997,44.6775 19.6083,42.8084 19.6636,42.0607 C 19.6083,41.1884 19.1657,40.7523 18.7785,40.5031 L 18.7785,40.5031 z"
       style="fill:#eec900"
       id="path2039" />
    <path
       d="M 23.831,47.7788 C 23.3885,48.028 22.8906,48.4641 22.8906,49.3364 C 22.9459,50.084 23.6097,51.9532 23.5544,52.8255 L 23.4991,52.8255 C 23.4438,52.7009 23.4438,52.0155 23.0565,51.3301 C 22.6693,50.5825 22.3374,50.6448 22.0608,50.6448 C 21.5629,50.6448 21.1203,51.1432 21.1203,51.704 C 21.1203,52.2024 21.6182,52.8255 22.0608,52.8255 C 21.8948,52.7009 21.8395,52.3893 21.8948,52.2024 C 21.8948,52.0778 22.1714,51.8909 22.3374,51.8909 C 22.5587,51.9532 22.7246,52.0778 22.8906,52.2647 C 23.0565,52.4516 23.1672,52.6385 23.2778,52.8255 L 23.1119,52.8255 L 22.614,52.8255 C 22.448,52.8255 22.3374,52.9501 22.3374,53.0747 C 22.3374,53.2616 22.448,53.3239 22.614,53.3239 L 23.2778,53.3239 C 23.7204,53.3862 23.3331,54.1339 23.2225,54.2585 C 23.3331,54.3831 23.3885,54.4454 23.4991,54.57 C 23.5544,54.6946 23.6097,54.8192 23.6097,55.0061 C 23.6097,55.0061 23.6097,55.0061 23.6097,55.0061 C 23.6097,55.0061 23.6097,55.0061 23.6097,55.0061 C 23.6651,55.1308 23.7204,55.1931 23.831,55.1931 C 23.9417,55.1931 23.9417,55.1308 23.997,55.0061 C 23.997,55.0061 23.997,55.0061 23.997,55.0061 C 23.997,55.0061 23.997,55.0061 23.997,55.0061 C 24.0523,54.8192 24.0523,54.6946 24.1629,54.57 C 24.2183,54.4454 24.3289,54.3831 24.3842,54.2585 C 24.3289,54.1339 23.8863,53.3862 24.3842,53.3239 L 24.9374,53.3239 C 25.1034,53.3239 25.214,53.2616 25.214,53.0747 C 25.214,52.9501 25.1034,52.8255 24.9374,52.8255 L 24.5502,52.8255 L 24.3842,52.8255 C 24.4395,52.6385 24.6055,52.4516 24.6608,52.2647 C 24.8268,52.0778 24.9927,51.9532 25.214,51.8909 C 25.4353,51.8909 25.6566,52.0778 25.7119,52.2024 C 25.7672,52.327 25.7119,52.7009 25.5459,52.8255 C 25.9885,52.8255 26.4864,52.2024 26.4864,51.704 C 26.4864,51.1432 26.0438,50.6448 25.5459,50.6448 C 25.2693,50.6448 24.9374,50.5825 24.5502,51.3301 C 24.1629,52.0155 24.1629,52.7009 24.1629,52.8255 L 24.0523,52.8255 C 24.0523,51.9532 24.6608,50.084 24.7161,49.3364 C 24.6608,48.4641 24.2183,48.028 23.831,47.7788 L 23.831,47.7788 z"
       style="fill:#eec900"
       id="path2041" />
    <path
       d="M 28.4794,55.0544 C 28.0368,55.3037 27.5389,55.7398 27.5389,56.6121 C 27.5943,57.3597 28.2581,59.2289 28.2028,60.1011 L 28.1475,60.1011 C 28.0921,59.9765 28.0921,59.2912 27.7049,58.6058 C 27.3177,57.8582 26.9857,57.9205 26.7091,57.9205 C 26.2113,57.9205 25.7687,58.4189 25.7687,58.9797 C 25.7687,59.4781 26.2666,60.1011 26.7091,60.1011 C 26.5432,59.9765 26.4879,59.665 26.5432,59.4781 C 26.5432,59.3535 26.8198,59.1666 26.9857,59.1666 C 27.207,59.2289 27.373,59.3535 27.5389,59.5404 C 27.7049,59.7273 27.8155,59.9142 27.9262,60.1011 L 27.7602,60.1011 L 27.2623,60.1011 C 27.0964,60.1011 26.9857,60.2258 26.9857,60.3504 C 26.9857,60.5373 27.0964,60.5996 27.2623,60.5996 L 27.9262,60.5996 C 28.3687,60.6619 27.9815,61.4096 27.8709,61.5342 C 27.9815,61.6588 28.0368,61.7211 28.1475,61.8457 C 28.2028,61.9703 28.2581,62.0949 28.2581,62.2818 C 28.2581,62.2818 28.2581,62.2818 28.2581,62.2818 C 28.2581,62.2818 28.2581,62.2818 28.2581,62.2818 C 28.3134,62.4064 28.3687,62.4687 28.4794,62.4687 C 28.59,62.4687 28.59,62.4064 28.6453,62.2818 C 28.6453,62.2818 28.6453,62.2818 28.6453,62.2818 C 28.6453,62.2818 28.6453,62.2818 28.6453,62.2818 C 28.7007,62.0949 28.7007,61.9703 28.8113,61.8457 C 28.8666,61.7211 28.9773,61.6588 29.0326,61.5342 C 28.9773,61.4096 28.5347,60.6619 29.0326,60.5996 L 29.5858,60.5996 C 29.7517,60.5996 29.8624,60.5373 29.8624,60.3504 C 29.8624,60.2258 29.7517,60.1011 29.5858,60.1011 L 29.1985,60.1011 L 29.0326,60.1011 C 29.0879,59.9142 29.2539,59.7273 29.3092,59.5404 C 29.4751,59.3535 29.6411,59.2289 29.8624,59.1666 C 30.0837,59.1666 30.3049,59.3535 30.3603,59.4781 C 30.4156,59.6027 30.3603,59.9765 30.1943,60.1011 C 30.6369,60.1011 31.1347,59.4781 31.1347,58.9797 C 31.1347,58.4189 30.6922,57.9205 30.1943,57.9205 C 29.9177,57.9205 29.5858,57.8582 29.1985,58.6058 C 28.8113,59.2912 28.8113,59.9765 28.8113,60.1011 L 28.7007,60.1011 C 28.7007,59.2289 29.3092,57.3597 29.3645,56.6121 C 29.3092,55.7398 28.8666,55.3037 28.4794,55.0544 z"
       style="fill:#eec900"
       id="path2043" />
  </g>
</svg>