<?xml version="1.0" encoding="UTF-8" standalone="no"?>
<svg
   xmlns:dc="http://purl.org/dc/elements/1.1/"
   xmlns:cc="http://creativecommons.org/ns#"
   xmlns:rdf="http://www.w3.org/1999/02/22-rdf-syntax-ns#"
   xmlns:svg="http://www.w3.org/2000/svg"
   xmlns="http://www.w3.org/2000/svg"
   xmlns:sodipodi="http://sodipodi.sourceforge.net/DTD/sodipodi-0.dtd"
   xmlns:inkscape="http://www.inkscape.org/namespaces/inkscape"
   version="1.0"
   width="1000"
   height="500"
   id="svg2"
   inkscape:version="0.91 r13725"
   sodipodi:docname="20150629200550!RCAF-Roundel.svg">
  <metadata
     id="metadata22">
    <rdf:RDF>
      <cc:Work
         rdf:about="">
        <dc:format>image/svg+xml</dc:format>
        <dc:type
           rdf:resource="http://purl.org/dc/dcmitype/StillImage" />
        <dc:title></dc:title>
      </cc:Work>
    </rdf:RDF>
  </metadata>
  <defs
     id="defs20" />
  <sodipodi:namedview
     pagecolor="#ffffff"
     bordercolor="#666666"
     borderopacity="1"
     objecttolerance="10"
     gridtolerance="10"
     guidetolerance="10"
     inkscape:pageopacity="0"
     inkscape:pageshadow="2"
     inkscape:window-width="1920"
     inkscape:window-height="1057"
     id="namedview18"
     showgrid="false"
     inkscape:zoom="0.81458701"
     inkscape:cx="688.88075"
     inkscape:cy="247.30172"
     inkscape:window-x="-8"
     inkscape:window-y="-8"
     inkscape:window-maximized="1"
     inkscape:current-layer="svg2"
     fit-margin-top="0"
     fit-margin-left="0"
     fit-margin-right="0"
     fit-margin-bottom="0" />
  <rect
     width="1000"
     height="500"
     id="rect4"
     x="0"
     y="0"
     style="fill:#6399ab" />
  <rect
     width="500"
     height="250"
     id="rect6"
     x="0"
     y="0"
     style="fill:#d51f27;fill-opacity:1" />
  <rect
     x="125"
     width="250"
     height="250"
     id="rect8"
     y="0"
     style="fill:#ffffff" />
  <path
     d="m 249.9963,22.65625 -16.37431,31.930469 c -1.85801,3.470312 -5.18701,3.148437 -8.51601,1.210156 l -11.85455,-6.417969 8.83538,49.044532 c 1.85802,8.960152 -4.10332,8.960152 -7.04527,5.085942 l -20.6885,-24.214849 -3.35874,12.296875 c -0.38732,1.614844 -2.09032,3.310938 -4.6452,2.907032 l -26.16084,-5.750782 6.87131,26.118754 c 1.47097,5.81172 2.61835,8.21797 -1.485,9.75078 l -9.32457,4.58203 45.03421,38.24531 c 1.78248,1.44609 2.68306,4.04844 2.04849,6.40469 l -3.94146,13.52344 c 15.50595,-1.86875 29.40772,-3.54141 44.91331,-5.40782 1.37776,-0.018 3.66234,1.20625 3.65293,2.86563 l -2.0545,49.54453 7.53906,0 -1.18674,-49.43828 c -0.009,-1.65938 2.06238,-2.98985 3.44014,-2.97188 15.50559,1.86641 29.40738,3.53907 44.91333,5.40782 l -3.94145,-13.52344 c -0.63458,-2.35625 0.266,-4.9586 2.04848,-6.40469 l 45.0342,-38.24531 -9.32456,-4.58203 c -4.10336,-1.53282 -2.95597,-3.93907 -1.48501,-9.75078 l 6.87133,-26.118754 -26.16086,5.750781 c -2.55488,0.403907 -4.25788,-1.292187 -4.6452,-2.907031 l -3.35875,-12.296875 -20.68849,24.214839 c -2.94196,3.87422 -8.9033,3.87422 -7.04528,-5.085933 l 8.83537,-49.044531 -11.85453,6.417969 c -3.32909,1.938281 -6.658,2.260156 -8.51602,-1.210156"
     id="path10"
     inkscape:connector-curvature="0"
     style="fill:#d51f27;fill-opacity:1" />
  <circle
     r="190"
     cy="250"
     cx="750"
     id="circle9030-6"
     style="fill:#213563;fill-opacity:1;stroke:none" />
  <circle
     style="fill:#ffffff;fill-opacity:1;stroke:none"
     id="circle9042-5"
     cx="750"
     cy="250"
     r="129.086" />
  <path
     style="fill:#d51f27;fill-opacity:1;stroke:none"
     d="m 749.99988,138.597 18.00599,33.60547 c 2.04357,3.652 5.70601,3.31384 9.36746,1.27408 l 13.0388,-6.75506 -9.71755,51.61219 c -2.04357,9.42927 4.51264,9.42938 7.74828,5.35233 l 22.75517,-25.48262 3.69234,12.94107 c 0.426,1.69941 2.29987,3.48406 5.10982,3.05901 l 28.77298,-6.05121 -7.55659,27.48527 c -1.61787,6.116 -2.88026,8.64875 1.63287,10.26183 l 10.25555,4.82167 -49.53036,40.24822 c -1.96047,1.52181 -2.95296,4.2606 -2.25496,6.74021 l 4.33553,14.23123 c -17.05445,-1.96658 -32.33502,-4.92545 -49.39803,-6.74762 -1.50629,-0.16086 -4.02793,2.32583 -4.01762,4.07207 l 2.26325,52.13786 -9.0056,0 2.2633,-52.13786 c 0.0101,-1.74624 -2.51132,-4.23293 -4.01767,-4.07207 -17.06302,1.82217 -32.3436,4.78104 -49.398,6.74762 l 4.33554,-14.23123 c 0.69793,-2.47961 -0.29449,-5.2184 -2.25501,-6.74021 l -49.53037,-40.24822 10.25567,-4.82167 c 4.51314,-1.61308 3.25066,-4.14583 1.63278,-10.26183 l -7.55657,-27.48527 28.77292,6.05121 c 2.80999,0.42505 4.68387,-1.3596 5.1099,-3.05901 l 3.69228,-12.94107 22.75515,25.48262 c 3.23577,4.07705 9.79188,4.07694 7.74833,-5.35233 l -9.7176,-51.61219 13.03882,6.75506 c 3.66149,2.03976 7.32394,2.37792 9.36755,-1.27408 z"
     id="path8-8"
     inkscape:connector-curvature="0"
     sodipodi:nodetypes="ccccccccccccccccsccccscccccccccccccccc" />
</svg>
