<?xml version="1.0" encoding="UTF-8" standalone="no"?>
<!-- Creator: CorelDRAW -->
<svg
   xmlns:dc="http://purl.org/dc/elements/1.1/"
   xmlns:cc="http://web.resource.org/cc/"
   xmlns:rdf="http://www.w3.org/1999/02/22-rdf-syntax-ns#"
   xmlns:svg="http://www.w3.org/2000/svg"
   xmlns="http://www.w3.org/2000/svg"
   xmlns:sodipodi="http://sodipodi.sourceforge.net/DTD/sodipodi-0.dtd"
   xmlns:inkscape="http://www.inkscape.org/namespaces/inkscape"
   xml:space="preserve"
   width="1023px"
   height="682px"
   style="shape-rendering:geometricPrecision; text-rendering:geometricPrecision; image-rendering:optimizeQuality; fill-rule:evenodd"
   viewBox="0 0 10230 6820"
   id="svg2"
   sodipodi:version="0.32"
   inkscape:version="0.44"
   sodipodi:docbase="/home/claude/Desktop"
   sodipodi:docname="Flag_of_Quebec_City_2.svg"><metadata
   id="metadata94"><rdf:RDF><cc:Work
       rdf:about=""><dc:format>image/svg+xml</dc:format><dc:type
         rdf:resource="http://purl.org/dc/dcmitype/StillImage" /></cc:Work></rdf:RDF></metadata><sodipodi:namedview
   inkscape:window-height="949"
   inkscape:window-width="1280"
   inkscape:pageshadow="2"
   inkscape:pageopacity="0.0"
   guidetolerance="10.0"
   gridtolerance="10.0"
   objecttolerance="10.0"
   borderopacity="1.0"
   bordercolor="#666666"
   pagecolor="#ffffff"
   id="base"
   inkscape:zoom="0.84396616"
   inkscape:cx="425.48834"
   inkscape:cy="377.88602"
   inkscape:window-x="0"
   inkscape:window-y="25"
   inkscape:current-layer="svg2" />
 <defs
   id="defs4">
  <style
   type="text/css"
   id="style6">
   
    .str1 {stroke:#0000CC;stroke-width:24}
    .str2 {stroke:#0000CC;stroke-width:48}
    .str0 {stroke:#0000CC;stroke-width:214}
    .fil1 {fill:#0000CC}
    .fil2 {fill:#FFD700}
    .fil0 {fill:#FFFFFF}
   
  </style>
 
  
  
  
  
  
  
  
  
  
  
  
  
  
  
  
  
  
  
  
 </defs>
 <g
   id="g4656"><rect
     class="fil0 str0"
     x="0"
     y="0"
     width="10230"
     height="6820"
     id="rect9"
     style="fill:white;stroke:#002173;stroke-width:214;stroke-opacity:1" /><g
     id="g11">
   <rect
   class="fil1"
   x="428"
   y="424"
   width="454"
   height="454"
   id="rect13"
   style="fill:#002173;fill-opacity:1" />
   <rect
   class="fil1"
   x="1707"
   y="424"
   width="454"
   height="454"
   id="rect15"
   style="fill:#002173;fill-opacity:1" />
   <rect
   class="fil1"
   x="2982"
   y="424"
   width="454"
   height="454"
   id="rect17"
   style="fill:#002173;fill-opacity:1" />
   <rect
   class="fil1"
   x="4257"
   y="424"
   width="454"
   height="454"
   id="rect19"
   style="fill:#002173;fill-opacity:1" />
   <rect
   class="fil1"
   x="5509"
   y="424"
   width="454"
   height="454"
   id="rect21"
   style="fill:#002173;fill-opacity:1" />
   <rect
   class="fil1"
   x="6787"
   y="424"
   width="454"
   height="454"
   id="rect23"
   style="fill:#002173;fill-opacity:1" />
   <rect
   class="fil1"
   x="8057"
   y="424"
   width="454"
   height="454"
   id="rect25"
   style="fill:#002173;fill-opacity:1" />
   <rect
   class="fil1"
   x="9353"
   y="424"
   width="454"
   height="454"
   id="rect27"
   style="fill:#002173;fill-opacity:1" />
   <rect
   class="fil1"
   x="428"
   y="5895"
   width="454"
   height="454"
   id="rect29"
   style="fill:#002173;fill-opacity:1" />
   <rect
   class="fil1"
   x="1707"
   y="5895"
   width="454"
   height="454"
   id="rect31"
   style="fill:#002173;fill-opacity:1" />
   <rect
   class="fil1"
   x="2982"
   y="5895"
   width="454"
   height="454"
   id="rect33"
   style="fill:#002173;fill-opacity:1" />
   <rect
   class="fil1"
   x="4257"
   y="5895"
   width="454"
   height="454"
   id="rect35"
   style="fill:#002173;fill-opacity:1" />
   <rect
   class="fil1"
   x="5509"
   y="5895"
   width="454"
   height="454"
   id="rect37"
   style="fill:#002173;fill-opacity:1" />
   <rect
   class="fil1"
   x="6787"
   y="5895"
   width="454"
   height="454"
   id="rect39"
   style="fill:#002173;fill-opacity:1" />
   <rect
   class="fil1"
   x="8057"
   y="5895"
   width="454"
   height="454"
   id="rect41"
   style="fill:#002173;fill-opacity:1" />
   <rect
   class="fil1"
   x="9353"
   y="5895"
   width="454"
   height="454"
   id="rect43"
   style="fill:#002173;fill-opacity:1" />
   <rect
   class="fil1"
   x="9333"
   y="4552"
   width="454"
   height="454"
   id="rect45"
   style="fill:#002173;fill-opacity:1" />
   <rect
   class="fil1"
   x="9333"
   y="3166"
   width="454"
   height="454"
   id="rect47"
   style="fill:#002173;fill-opacity:1" />
   <rect
   class="fil1"
   x="9333"
   y="1764"
   width="454"
   height="454"
   id="rect49"
   style="fill:#002173;fill-opacity:1" />
   <rect
   class="fil1"
   x="428"
   y="4552"
   width="454"
   height="454"
   id="rect51"
   style="fill:#002173;fill-opacity:1" />
   <rect
   class="fil1"
   x="428"
   y="3166"
   width="454"
   height="454"
   id="rect53"
   style="fill:#002173;fill-opacity:1" />
   <rect
   class="fil1"
   x="428"
   y="1764"
   width="454"
   height="454"
   id="rect55"
   style="fill:#002173;fill-opacity:1" />
   <rect
   class="fil1"
   x="713"
   y="713"
   width="8792"
   height="5359"
   id="rect57"
   style="fill:#002173;fill-opacity:1" />
  </g><path
     class="fil2 str1"
     d="M 4508,3924 C 4150,3651 3290,3031 3291,3061 C 3266,3057 3994,3684 4313,3978 L 4508,3924 z "
     id="path59"
     style="fill:#f7b539;stroke:#002173;stroke-width:24;stroke-opacity:1;fill-opacity:1" /><path
     class="fil2"
     d="M 5369,2258 L 5406,1606 C 5412,1589 5440,1587 5442,1606 L 5453,2250 L 5369,2258 z "
     id="path61"
     style="fill:#f7b539;fill-opacity:1" /><path
     class="fil2 str1"
     d="M 5779,2142 C 5563,2182 5245,2264 5029,2305 C 4775,2474 4820,2681 4956,2871 C 5078,2559 5518,2645 5769,2749 C 5665,2557 5631,2334 5779,2142 z "
     id="path63"
     style="fill:#f7b539;stroke:#002173;stroke-width:24;stroke-opacity:1;fill-opacity:1" /><path
     class="fil2"
     d="M 4473,2495 L 4476,1844 C 4482,1826 4510,1825 4512,1844 L 4557,2488 L 4473,2495 z "
     id="path65"
     style="fill:#f7b539;fill-opacity:1" /><path
     class="fil2 str1"
     d="M 4843,2349 C 4627,2390 4412,2430 4196,2471 C 3991,2640 4028,2817 4165,3037 C 4286,2744 4575,2823 4826,2926 C 4722,2734 4696,2542 4843,2349 z "
     id="path67"
     style="fill:#f7b539;stroke:#002173;stroke-width:24;stroke-opacity:1;fill-opacity:1" /><path
     class="fil2"
     d="M 5767,2760 C 5551,2801 5181,2875 4965,2916 C 4692,3126 4669,3424 5187,3866 C 4997,3483 5460,3637 5739,3733 C 5473,3319 5568,3066 5767,2760 z "
     id="path69"
     style="fill:#f7b539;fill-opacity:1" /><path
     class="fil2"
     d="M 6388,2665 C 5748,2844 5436,3140 5847,3696 C 5805,3444 6092,3454 6407,3486 C 6102,3207 6114,2933 6388,2665 z "
     id="path71"
     style="fill:#f7b539;fill-opacity:1" /><path
     class="fil2 str2"
     d="M 4840,2919 C 4624,2959 4389,3030 4173,3071 C 3919,3349 4227,3718 4372,3836 C 4447,3509 4822,3772 5102,3869 C 4779,3556 4606,3285 4840,2919 z "
     id="path73"
     style="fill:#f7b539;stroke:#002173;stroke-width:48;stroke-opacity:1;fill-opacity:1" /><path
     class="fil2 str1"
     d="M 4509,4494 C 5120,4494 5731,4494 6342,4494 C 6312,4372 6250,4317 6273,4092 C 6283,3986 6507,3826 6500,3660 C 6501,3577 6503,3549 6505,3466 C 6408,3453 6332,3485 6265,3537 C 6176,3531 6127,3565 6118,3639 C 6041,3676 5919,3714 5777,3751 L 5721,3797 C 5679,3850 5640,3862 5578,3863 C 5566,3882 5549,3933 5476,3936 C 4733,3981 3980,3804 3612,3527 C 3817,3692 4233,3992 4249,4082 C 4320,4247 4401,4395 4509,4494 z "
     id="path75"
     style="fill:#f7b539;stroke:#002173;stroke-width:24;stroke-opacity:1;fill-opacity:1" /><path
     class="fil2 str1"
     d="M 3384,3304 C 3551,3302 3717,3301 3884,3299 C 3794,3567 3838,3767 3995,3910 C 3841,3819 3687,3732 3570,3751 C 3501,3764 3480,3893 3632,3910 C 3691,3920 3780,3901 3867,3860 C 3874,3857 3883,3859 3873,3873 C 3796,3960 3590,3980 3503,3923 C 3267,3766 3186,3570 3384,3304 z "
     id="path77"
     style="fill:#f7b539;stroke:#002173;stroke-width:24;stroke-opacity:1;fill-opacity:1" /><path
     class="fil2 str1"
     d="M 6349,4494 L 6529,4494 C 6506,4453 6484,4373 6422,4308 C 6382,4232 6370,4191 6331,4069 C 6298,4210 6278,4352 6349,4494 z "
     id="path79"
     style="fill:#f7b539;stroke:#002173;stroke-width:24;stroke-opacity:1;fill-opacity:1" /><path
     class="fil2"
     d="M 4120,2046 C 4302,2047 4321,1991 4448,1992 C 4431,2053 4428,2141 4451,2202 C 4355,2193 4241,2230 4146,2219 C 4155,2170 4152,2095 4120,2046 z "
     id="path81"
     style="fill:#f7b539;fill-opacity:1" /><path
     class="fil2"
     d="M 5362,1779 C 5328,1829 5309,1892 5324,1949 C 5224,1915 5085,1971 5026,1970 C 4959,1972 4852,1941 4765,1969 C 4777,1840 5106,1774 5199,1795 C 5255,1814 5317,1792 5362,1779 z "
     id="path83"
     style="fill:#f7b539;fill-opacity:1" /><path
     class="fil2"
     d="M 5955,2924 L 5970,2275 C 5976,2258 6004,2257 6007,2275 L 6039,2917 L 5955,2924 z "
     id="path85"
     style="fill:#f7b539;fill-opacity:1" /><path
     class="fil2"
     d="M 5957,2349 C 5916,2348 5869,2358 5806,2392 C 5771,2396 5725,2400 5690,2404 C 5761,2431 5745,2465 5691,2503 C 5773,2501 5866,2499 5948,2497 C 5935,2447 5936,2398 5957,2349 z "
     id="path87"
     style="fill:#f7b539;fill-opacity:1" /><path
     class="fil2"
     d="M 6447,3454 L 6524,3454 L 6524,3381 L 6556,3352 C 6564,3341 6545,3322 6528,3333 C 6497,3371 6470,3370 6445,3332 C 6432,3324 6417,3332 6420,3348 L 6448,3395 L 6447,3454 z "
     id="path89"
     style="fill:#f7b539;fill-opacity:1" /><circle
     class="fil2"
     cx="6487"
     cy="3313"
     r="38"
     id="circle91"
     sodipodi:cx="6487"
     sodipodi:cy="3313"
     sodipodi:rx="38"
     sodipodi:ry="38"
     style="fill:#f7b539;fill-opacity:1" /></g>
</svg>