<?xml version="1.0" encoding="UTF-8" standalone="no"?>
<svg
   xmlns:dc="http://purl.org/dc/elements/1.1/"
   xmlns:cc="http://creativecommons.org/ns#"
   xmlns:rdf="http://www.w3.org/1999/02/22-rdf-syntax-ns#"
   xmlns:svg="http://www.w3.org/2000/svg"
   xmlns="http://www.w3.org/2000/svg"
   xmlns:xlink="http://www.w3.org/1999/xlink"
   xmlns:sodipodi="http://sodipodi.sourceforge.net/DTD/sodipodi-0.dtd"
   xmlns:inkscape="http://www.inkscape.org/namespaces/inkscape"
   width="750"
   height="500"
   id="svg2"
   version="1.1"
   inkscape:version="0.47pre1"
   sodipodi:docname="Flag_of_Norte_de_Santander.svg"
   inkscape:output_extension="org.inkscape.output.svg.inkscape">
  <metadata
     id="metadata33">
    <rdf:RDF>
      <cc:Work
         rdf:about="">
        <dc:format>image/svg+xml</dc:format>
        <dc:type
           rdf:resource="http://purl.org/dc/dcmitype/StillImage" />
      </cc:Work>
    </rdf:RDF>
  </metadata>
  <sodipodi:namedview
     pagecolor="#ffffff"
     bordercolor="#666666"
     borderopacity="1"
     objecttolerance="10"
     gridtolerance="10"
     guidetolerance="10"
     inkscape:pageopacity="0"
     inkscape:pageshadow="2"
     inkscape:window-width="1920"
     inkscape:window-height="1018"
     id="namedview31"
     showgrid="false"
     inkscape:zoom="0.73553335"
     inkscape:cx="765.22437"
     inkscape:cy="202.7536"
     inkscape:window-x="-8"
     inkscape:window-y="-8"
     inkscape:window-maximized="1"
     inkscape:current-layer="svg2" />
  <defs
     id="defs4">
    <g
       id="stl"
       transform="scale(27,27)"
       style="fill:#ffff00">
      <g
         id="q">
        <polygon
           id="t"
           points="0.4,1 0,0 0,1 "
           transform="matrix(0.95105652,0.30901699,-0.30901699,0.95105652,0,-1)" />
        <use
           xlink:href="#t"
           transform="scale(-1,1)"
           id="use9"
           x="0"
           y="0"
           width="324"
           height="216" />
      </g>
      <use
         xlink:href="#q"
         transform="matrix(0.30901699,0.95105652,-0.95105652,0.30901699,0,0)"
         id="use11"
         x="0"
         y="0"
         width="324"
         height="216" />
      <use
         xlink:href="#q"
         transform="matrix(0.30901699,-0.95105652,0.95105652,0.30901699,0,0)"
         id="use13"
         x="0"
         y="0"
         width="324"
         height="216" />
      <use
         xlink:href="#q"
         transform="matrix(-0.80901699,0.58778525,-0.58778525,-0.80901699,0,0)"
         id="use15"
         x="0"
         y="0"
         width="324"
         height="216" />
      <use
         xlink:href="#q"
         transform="matrix(-0.80901699,-0.58778525,0.58778525,-0.80901699,0,0)"
         id="use17"
         x="0"
         y="0"
         width="324"
         height="216" />
    </g>
  </defs>
  <rect
     width="750"
     height="250"
     id="rect19"
     x="0"
     y="0"
     style="fill:#da121a;fill-opacity:1" />
  <rect
     width="750"
     height="250"
     y="250"
     id="rect21"
     x="0" />
  <g
     id="g4125"
     transform="translate(83.263539,-0.17160302)">
    <path
       transform="matrix(-0.39894071,-0.39894071,0.39894071,-0.39894071,337.01639,333.11744)"
       d="m 301.09316,187.59276 -39.41252,-19.72736 -31.38744,30.94098 6.5827,-43.57963 -39.12587,-20.28994 43.48085,-7.20632 7.20633,-43.480856 20.28994,39.125876 43.57962,-6.58271 -30.94098,31.38745 19.72737,39.41251 z"
       inkscape:randomized="0"
       inkscape:rounded="0"
       inkscape:flatsided="false"
       sodipodi:arg2="1.4137167"
       sodipodi:arg1="0.78539816"
       sodipodi:r2="23.681274"
       sodipodi:r1="60.976768"
       sodipodi:cy="144.47568"
       sodipodi:cx="257.97607"
       sodipodi:sides="5"
       id="path4117"
       style="color:#000000;fill:#fcdd09;fill-opacity:1;fill-rule:nonzero;stroke:#fcdd09;stroke-width:1;stroke-linecap:round;stroke-linejoin:round;stroke-miterlimit:4;stroke-opacity:1;stroke-dasharray:none;stroke-dashoffset:0;marker:none;visibility:visible;display:inline;overflow:visible;enable-background:accumulate"
       sodipodi:type="star" />
    <path
       sodipodi:type="star"
       style="color:#000000;fill:#fcdd09;fill-opacity:1;fill-rule:nonzero;stroke:#fcdd09;stroke-width:1;stroke-linecap:round;stroke-linejoin:round;stroke-miterlimit:4;stroke-opacity:1;stroke-dasharray:none;stroke-dashoffset:0;marker:none;visibility:visible;display:inline;overflow:visible;enable-background:accumulate"
       id="path4119"
       sodipodi:sides="5"
       sodipodi:cx="257.97607"
       sodipodi:cy="144.47568"
       sodipodi:r1="60.976768"
       sodipodi:r2="23.681274"
       sodipodi:arg1="0.78539816"
       sodipodi:arg2="1.4137167"
       inkscape:flatsided="false"
       inkscape:rounded="0"
       inkscape:randomized="0"
       d="m 301.09316,187.59276 -39.41252,-19.72736 -31.38744,30.94098 6.5827,-43.57963 -39.12587,-20.28994 43.48085,-7.20632 7.20633,-43.480856 20.28994,39.125876 43.57962,-6.58271 -30.94098,31.38745 19.72737,39.41251 z"
       transform="matrix(-0.39894071,-0.39894071,0.39894071,-0.39894071,337.01639,494.9048)" />
  </g>
  <g
     id="g4129"
     transform="translate(0.67040889,-10.368283)">
    <path
       sodipodi:type="star"
       style="color:#000000;fill:#fcdd09;fill-opacity:1;fill-rule:nonzero;stroke:#fcdd09;stroke-width:1;stroke-linecap:round;stroke-linejoin:round;stroke-miterlimit:4;stroke-opacity:1;stroke-dasharray:none;stroke-dashoffset:0;marker:none;visibility:visible;display:inline;overflow:visible;enable-background:accumulate"
       id="path4121"
       sodipodi:sides="5"
       sodipodi:cx="257.97607"
       sodipodi:cy="144.47568"
       sodipodi:r1="60.976768"
       sodipodi:r2="23.681274"
       sodipodi:arg1="0.78539816"
       sodipodi:arg2="1.4137167"
       inkscape:flatsided="false"
       inkscape:rounded="0"
       inkscape:randomized="0"
       d="m 301.09316,187.59276 -39.41252,-19.72736 -31.38744,30.94098 6.5827,-43.57963 -39.12587,-20.28994 43.48085,-7.20632 7.20633,-43.480856 20.28994,39.125876 43.57962,-6.58271 -30.94098,31.38745 19.72737,39.41251 z"
       transform="matrix(-0.39894071,-0.39894071,0.39894071,-0.39894071,252.04404,424.2078)" />
    <path
       transform="matrix(-0.39894071,-0.39894071,0.39894071,-0.39894071,587.175,424.2078)"
       d="m 301.09316,187.59276 -39.41252,-19.72736 -31.38744,30.94098 6.5827,-43.57963 -39.12587,-20.28994 43.48085,-7.20632 7.20633,-43.480856 20.28994,39.125876 43.57962,-6.58271 -30.94098,31.38745 19.72737,39.41251 z"
       inkscape:randomized="0"
       inkscape:rounded="0"
       inkscape:flatsided="false"
       sodipodi:arg2="1.4137167"
       sodipodi:arg1="0.78539816"
       sodipodi:r2="23.681274"
       sodipodi:r1="60.976768"
       sodipodi:cy="144.47568"
       sodipodi:cx="257.97607"
       sodipodi:sides="5"
       id="path4123"
       style="color:#000000;fill:#fcdd09;fill-opacity:1;fill-rule:nonzero;stroke:#fcdd09;stroke-width:1;stroke-linecap:round;stroke-linejoin:round;stroke-miterlimit:4;stroke-opacity:1;stroke-dasharray:none;stroke-dashoffset:0;marker:none;visibility:visible;display:inline;overflow:visible;enable-background:accumulate"
       sodipodi:type="star" />
  </g>
</svg>
