<?xml version="1.0" encoding="UTF-8" standalone="no"?>
<svg
   xmlns:dc="http://purl.org/dc/elements/1.1/"
   xmlns:cc="http://creativecommons.org/ns#"
   xmlns:rdf="http://www.w3.org/1999/02/22-rdf-syntax-ns#"
   xmlns:svg="http://www.w3.org/2000/svg"
   xmlns="http://www.w3.org/2000/svg"
   xmlns:xlink="http://www.w3.org/1999/xlink"
   xmlns:sodipodi="http://sodipodi.sourceforge.net/DTD/sodipodi-0.dtd"
   xmlns:inkscape="http://www.inkscape.org/namespaces/inkscape"
   width="750"
   height="500"
   id="svg2"
   version="1.1"
   inkscape:version="0.47pre1"
   sodipodi:docname="Flag_of_Caquetá.svg"
   inkscape:output_extension="org.inkscape.output.svg.inkscape">
  <metadata
     id="metadata64">
    <rdf:RDF>
      <cc:Work
         rdf:about="">
        <dc:format>image/svg+xml</dc:format>
        <dc:type
           rdf:resource="http://purl.org/dc/dcmitype/StillImage" />
      </cc:Work>
    </rdf:RDF>
  </metadata>
  <defs
     id="defs62" />
  <sodipodi:namedview
     pagecolor="#ffffff"
     bordercolor="#666666"
     borderopacity="1"
     objecttolerance="10"
     gridtolerance="10"
     guidetolerance="10"
     inkscape:pageopacity="0"
     inkscape:pageshadow="2"
     inkscape:window-width="1920"
     inkscape:window-height="1018"
     id="namedview60"
     showgrid="false"
     inkscape:zoom="0.70238095"
     inkscape:cx="291.02454"
     inkscape:cy="315.7252"
     inkscape:window-x="-8"
     inkscape:window-y="-8"
     inkscape:window-maximized="1"
     inkscape:current-layer="svg2" />
  <rect
     style="fill:#078930;fill-opacity:1"
     y="0"
     x="0"
     width="750"
     height="500"
     id="rect4" />
  <rect
     style="fill:#ffffff"
     id="rect8"
     y="71.428566"
     height="71.428566"
     width="750"
     x="0" />
  <rect
     style="fill:#ffffff"
     id="rect10"
     y="214.28571"
     height="71.428566"
     width="750"
     x="0" />
  <rect
     style="fill:#ffffff"
     id="rect12"
     y="357.14285"
     height="71.428566"
     width="750"
     x="0" />
  <rect
     style="fill:#ffffff;stroke:none"
     id="rect14"
     height="294.25662"
     width="294.25662"
     x="-8.5423727"
     y="-8.5423727" />
  <g
     transform="matrix(1.4880952,0,0,1.4880952,142.85714,142.85714)"
     id="g16"
     style="fill:#fcdd09;fill-opacity:1">
    <g
       style="fill:#fcdd09;fill-opacity:1"
       id="stl"
       transform="scale(14,14)">
      <g
         id="q"
         style="fill:#fcdd09;fill-opacity:1">
        <polygon
           id="t"
           points="0,0 0,1 0.4,1 "
           transform="matrix(0.95105652,0.30901699,-0.30901699,0.95105652,0,-1)"
           style="fill:#fcdd09;fill-opacity:1" />
        <use
           height="336"
           width="504"
           y="0"
           x="0"
           xlink:href="#t"
           transform="scale(-1,1)"
           id="use21"
           style="fill:#fcdd09;fill-opacity:1" />
      </g>
      <use
         height="336"
         width="504"
         y="0"
         x="0"
         xlink:href="#q"
         transform="matrix(0.30901699,0.95105652,-0.95105652,0.30901699,0,0)"
         id="use23"
         style="fill:#fcdd09;fill-opacity:1" />
      <use
         height="336"
         width="504"
         y="0"
         x="0"
         xlink:href="#q"
         transform="matrix(0.30901699,-0.95105652,0.95105652,0.30901699,0,0)"
         id="use25"
         style="fill:#fcdd09;fill-opacity:1" />
      <use
         height="336"
         width="504"
         y="0"
         x="0"
         xlink:href="#q"
         transform="matrix(-0.80901699,0.58778525,-0.58778525,-0.80901699,0,0)"
         id="use27"
         style="fill:#fcdd09;fill-opacity:1" />
      <use
         height="336"
         width="504"
         y="0"
         x="0"
         xlink:href="#q"
         transform="matrix(-0.80901699,-0.58778525,0.58778525,-0.80901699,0,0)"
         id="use29"
         style="fill:#fcdd09;fill-opacity:1" />
    </g>
    <use
       height="336"
       width="504"
       y="0"
       x="0"
       xlink:href="#stl"
       transform="translate(0,-70)"
       id="rtl"
       style="fill:#fcdd09;fill-opacity:1" />
    <use
       height="336"
       width="504"
       y="0"
       x="0"
       xlink:href="#rtl"
       transform="matrix(0.91354546,0.40673664,-0.40673664,0.91354546,0,0)"
       id="use32"
       style="fill:#fcdd09;fill-opacity:1" />
    <use
       height="336"
       width="504"
       y="0"
       x="0"
       xlink:href="#rtl"
       transform="matrix(0.66913061,0.74314483,-0.74314483,0.66913061,0,0)"
       id="use34"
       style="fill:#fcdd09;fill-opacity:1" />
    <use
       height="336"
       width="504"
       y="0"
       x="0"
       xlink:href="#rtl"
       transform="matrix(0.30901699,0.95105652,-0.95105652,0.30901699,0,0)"
       id="use36"
       style="fill:#fcdd09;fill-opacity:1" />
    <use
       height="336"
       width="504"
       y="0"
       x="0"
       xlink:href="#rtl"
       transform="matrix(-0.10452846,0.9945219,-0.9945219,-0.10452846,0,0)"
       id="use38"
       style="fill:#fcdd09;fill-opacity:1" />
    <use
       height="336"
       width="504"
       y="0"
       x="0"
       xlink:href="#rtl"
       transform="matrix(-0.5,0.8660254,-0.8660254,-0.5,0,0)"
       id="use40"
       style="fill:#fcdd09;fill-opacity:1" />
    <use
       height="336"
       width="504"
       y="0"
       x="0"
       xlink:href="#rtl"
       transform="matrix(-0.80901699,0.58778525,-0.58778525,-0.80901699,0,0)"
       id="use42"
       style="fill:#fcdd09;fill-opacity:1" />
    <use
       height="336"
       width="504"
       y="0"
       x="0"
       xlink:href="#rtl"
       transform="matrix(-0.9781476,0.20791169,-0.20791169,-0.9781476,0,0)"
       id="use44"
       style="fill:#fcdd09;fill-opacity:1" />
    <use
       height="336"
       width="504"
       y="0"
       x="0"
       xlink:href="#rtl"
       transform="matrix(-0.9781476,-0.20791169,0.20791169,-0.9781476,0,0)"
       id="use46"
       style="fill:#fcdd09;fill-opacity:1" />
    <use
       height="336"
       width="504"
       y="0"
       x="0"
       xlink:href="#rtl"
       transform="matrix(-0.80901699,-0.58778525,0.58778525,-0.80901699,0,0)"
       id="use48"
       style="fill:#fcdd09;fill-opacity:1" />
    <use
       height="336"
       width="504"
       y="0"
       x="0"
       xlink:href="#rtl"
       transform="matrix(-0.5,-0.8660254,0.8660254,-0.5,0,0)"
       id="use50"
       style="fill:#fcdd09;fill-opacity:1" />
    <use
       height="336"
       width="504"
       y="0"
       x="0"
       xlink:href="#rtl"
       transform="matrix(-0.10452846,-0.9945219,0.9945219,-0.10452846,0,0)"
       id="use52"
       style="fill:#fcdd09;fill-opacity:1" />
    <use
       height="336"
       width="504"
       y="0"
       x="0"
       xlink:href="#rtl"
       transform="matrix(0.30901699,-0.95105652,0.95105652,0.30901699,0,0)"
       id="use54"
       style="fill:#fcdd09;fill-opacity:1" />
    <use
       height="336"
       width="504"
       y="0"
       x="0"
       xlink:href="#rtl"
       transform="matrix(0.66913061,-0.74314483,0.74314483,0.66913061,0,0)"
       id="use56"
       style="fill:#fcdd09;fill-opacity:1" />
    <use
       height="336"
       width="504"
       y="0"
       x="0"
       xlink:href="#rtl"
       transform="matrix(0.91354546,-0.40673664,0.40673664,0.91354546,0,0)"
       id="use58"
       style="fill:#fcdd09;fill-opacity:1" />
  </g>
</svg>
