<?xml version="1.0" encoding="UTF-8" standalone="no"?>
<!-- Created with Inkscape (http://www.inkscape.org/) -->
<svg
   xmlns:dc="http://purl.org/dc/elements/1.1/"
   xmlns:cc="http://web.resource.org/cc/"
   xmlns:rdf="http://www.w3.org/1999/02/22-rdf-syntax-ns#"
   xmlns:svg="http://www.w3.org/2000/svg"
   xmlns="http://www.w3.org/2000/svg"
   xmlns:sodipodi="http://sodipodi.sourceforge.net/DTD/sodipodi-0.dtd"
   xmlns:inkscape="http://www.inkscape.org/namespaces/inkscape"
   width="324"
   height="216"
   id="svg2"
   inkscape:label="Pozadí"
   sodipodi:version="0.32"
   inkscape:version="0.44.1"
   sodipodi:docbase="G:\slady\pic\svg\wikipedia\todo"
   sodipodi:docname="Flag of Varnsdorf.svg"
   version="1.0">
  <defs
     id="defs3" />
  <sodipodi:namedview
     id="base"
     pagecolor="#ffffff"
     bordercolor="#666666"
     borderopacity="1.0"
     inkscape:pageopacity="0.0"
     inkscape:pageshadow="2"
     inkscape:zoom="3.5740741"
     inkscape:cx="162"
     inkscape:cy="108"
     inkscape:document-units="px"
     inkscape:current-layer="layer1"
     inkscape:window-width="1280"
     inkscape:window-height="968"
     inkscape:window-x="-4"
     inkscape:window-y="-4"
     width="324px"
     height="216px" />
  <metadata
     id="metadata6">
    <rdf:RDF>
      <cc:Work
         rdf:about="">
        <dc:format>image/svg+xml</dc:format>
        <dc:type
           rdf:resource="http://purl.org/dc/dcmitype/StillImage" />
      </cc:Work>
    </rdf:RDF>
  </metadata>
  <g
     inkscape:label="Vrstva 1"
     inkscape:groupmode="layer"
     id="layer1">
    <g
       id="g4552">
      <rect
         y="0"
         x="0"
         height="216"
         width="324"
         id="rect2779"
         style="fill:white;fill-opacity:1;stroke:none" />
      <rect
         y="0"
         x="0"
         height="108"
         width="324"
         id="rect1886"
         style="fill:#0008a9;fill-opacity:1;stroke:none" />
      <path
         transform="matrix(0.999316,-3.696704e-2,3.696704e-2,0.999316,-2.020669,1.741238)"
         d="M 56.258381,44.508737 L 49.443074,59.75894 L 43.700572,44.301444 L 27.085854,46.024317 L 37.601188,33.322417 L 27.801777,19.795086 L 44.059613,22.550681 L 50.874919,7.3004772 L 56.617422,22.757973 L 73.232139,21.0351 L 62.716806,33.737001 L 72.516216,47.264332 L 56.258381,44.508737 z "
         inkscape:randomized="0"
         inkscape:rounded="0"
         inkscape:flatsided="false"
         sodipodi:arg2="1.5980844"
         sodipodi:arg1="1.0637031"
         sodipodi:r2="26.239"
         sodipodi:r1="12.55952"
         sodipodi:cy="33.529709"
         sodipodi:cx="50.158997"
         sodipodi:sides="6"
         id="path2775"
         style="fill:white;fill-opacity:1;stroke:none"
         sodipodi:type="star" />
      <path
         id="path2777"
         d="M 22.03125 48 C 18.846543 53.016005 17 58.966345 17 65.34375 C 17 83.23655 31.513448 97.749996 49.40625 97.75 C 67.29905 97.75 81.812498 83.23655 81.8125 65.34375 C 81.8125 59.208165 80.121739 53.455691 77.15625 48.5625 C 77.45318 50.213632 77.59375 51.919068 77.59375 53.65625 C 77.593746 69.298378 65.023345 82 49.53125 82 C 34.039154 82.000001 21.46875 69.298379 21.46875 53.65625 C 21.46875 51.722196 21.665063 49.82552 22.03125 48 z "
         style="fill:white;fill-opacity:1;stroke:none" />
    </g>
  </g>
</svg>
