<?xml version="1.0" encoding="UTF-8" standalone="no"?>
<!-- Created with Inkscape (http://www.inkscape.org/) -->

<svg
   xmlns:dc="http://purl.org/dc/elements/1.1/"
   xmlns:cc="http://creativecommons.org/ns#"
   xmlns:rdf="http://www.w3.org/1999/02/22-rdf-syntax-ns#"
   xmlns:svg="http://www.w3.org/2000/svg"
   xmlns="http://www.w3.org/2000/svg"
   version="1.0"
   width="450"
   height="300"
   id="svg2">
  <metadata
     id="metadata1804">
    <rdf:RDF>
      <cc:Work
         rdf:about="">
        <dc:format>image/svg+xml</dc:format>
        <dc:type
           rdf:resource="http://purl.org/dc/dcmitype/StillImage" />
        <dc:title></dc:title>
      </cc:Work>
    </rdf:RDF>
  </metadata>
  <defs
     id="defs4" />
  <rect
     width="450.00018"
     height="300.00012"
     x="0"
     y="-0.000132"
     id="rect1306"
     style="fill:#005daa;fill-opacity:1;fill-rule:evenodd" />
  <path
     d="m 259.01621,202.03257 -33.9338,-24.95535 -33.82954,25.0965 13.24783,-39.98459 -34.32209,-24.41856 42.12141,0.24352 12.61732,-40.188001 12.78463,40.135091 42.12003,-0.41899 -34.22008,24.56133 13.41429,39.92905 z"
     id="path2035"
     style="fill:#ffd100;fill-opacity:1;fill-rule:evenodd" />
  <g
     transform="matrix(1.17363,0,0,1.17363,0.266616,-9.61307)"
     id="g2795"
     style="fill:#ffd100;fill-opacity:1">
    <g
       id="g2767"
       style="fill:#ffd100;fill-opacity:1">
      <path
         d="m -345.7143,24.571418 -77.04066,-56.656707 -76.80399,56.977149 30.07686,-90.777915 -77.92223,-55.438025 95.62919,0.55287 28.6454,-91.23973 29.02523,91.11961 95.62606,-0.95123 -77.69061,55.762141 30.45475,90.651837 z"
         transform="matrix(0.135076,0,0,0.135076,93.9412,48.6376)"
         id="path2763"
         style="fill:#ffd100;fill-opacity:1;fill-rule:evenodd" />
      <path
         d="m -345.7143,24.571418 -77.04066,-56.656707 -76.80399,56.977149 30.07686,-90.777915 -77.92223,-55.438025 95.62919,0.55287 28.6454,-91.23973 29.02523,91.11961 95.62606,-0.95123 -77.69061,55.762141 30.45475,90.651837 z"
         transform="matrix(0.135076,0,0,0.135076,93.9412,88.6376)"
         id="path2765"
         style="fill:#ffd100;fill-opacity:1;fill-rule:evenodd" />
    </g>
    <g
       transform="translate(-4.19504e-6,80.0001)"
       id="g2777"
       style="fill:#ffd100;fill-opacity:1">
      <path
         d="m -345.7143,24.571418 -77.04066,-56.656707 -76.80399,56.977149 30.07686,-90.777915 -77.92223,-55.438025 95.62919,0.55287 28.6454,-91.23973 29.02523,91.11961 95.62606,-0.95123 -77.69061,55.762141 30.45475,90.651837 z"
         transform="matrix(0.135076,0,0,0.135076,93.9412,48.6376)"
         id="path2779"
         style="fill:#ffd100;fill-opacity:1;fill-rule:evenodd" />
      <path
         d="m -345.7143,24.571418 -77.04066,-56.656707 -76.80399,56.977149 30.07686,-90.777915 -77.92223,-55.438025 95.62919,0.55287 28.6454,-91.23973 29.02523,91.11961 95.62606,-0.95123 -77.69061,55.762141 30.45475,90.651837 z"
         transform="matrix(0.135076,0,0,0.135076,93.9412,88.6376)"
         id="path2781"
         style="fill:#ffd100;fill-opacity:1;fill-rule:evenodd" />
    </g>
    <g
       transform="translate(-4.19504e-6,160)"
       id="g2789"
       style="fill:#ffd100;fill-opacity:1">
      <path
         d="m -345.7143,24.571418 -77.04066,-56.656707 -76.80399,56.977149 30.07686,-90.777915 -77.92223,-55.438025 95.62919,0.55287 28.6454,-91.23973 29.02523,91.11961 95.62606,-0.95123 -77.69061,55.762141 30.45475,90.651837 z"
         transform="matrix(0.135076,0,0,0.135076,93.9412,48.6376)"
         id="path2791"
         style="fill:#ffd100;fill-opacity:1;fill-rule:evenodd" />
      <path
         d="m -345.7143,24.571418 -77.04066,-56.656707 -76.80399,56.977149 30.07686,-90.777915 -77.92223,-55.438025 95.62919,0.55287 28.6454,-91.23973 29.02523,91.11961 95.62606,-0.95123 -77.69061,55.762141 30.45475,90.651837 z"
         transform="matrix(0.135076,0,0,0.135076,93.9412,88.6376)"
         id="path2793"
         style="fill:#ffd100;fill-opacity:1;fill-rule:evenodd" />
    </g>
  </g>
</svg>
