<?xml version="1.0" encoding="UTF-8"?>
<svg xmlns="http://www.w3.org/2000/svg" width="1200" height="800" style="fill-rule:evenodd" viewBox="0 0 900 600">
<g fill="#F00">
  <rect width="900" height="600"/>
  <rect fill="#3d117b" width="450" height="300"/>
  <path d="M46.722 175.389c0,14.5512 3.80787,50.5819 -13.9878,58.5626l-3.78071 0 0 43.376 17.7685 0 0 -22.7055 56.413 0 0 22.7055 17.8547 0 0 -43.376 -9.72283 0 0 -58.5626 9.72283 0 0 -16.187 -84.5799 0 0 16.187 10.3122 0zm37.3205 58.5626l0 -58.5626 -0.35315 -0.0519685 -16.4398 0.0519685c1.87913,39.6331 -2.9752,51.5421 -9.01535,58.5626l25.8083 0z"/>
  <path d="M225.535 19.4516l-64.2496 0 0 17.7508 8.74961 0 0 60.4996 -8.74961 0 0 18.4996 64.2496 0 0.636614 -0.261024c12.3177,-1.74449 16.7209,-9.82441 18.7382,-22.8047 0.266929,-13.7681 -8.3622,-21.9071 -19.3748,-26.3398 10.6807,-3.1878 19.4303,-8.47559 19.3748,-23.3339 -0.611811,-10.8106 -6.97795,-18.8575 -19.3748,-24.0106zm-26.5264 57.5705l0 19.9854 8.94449 0c3.90354,-0.779528 6.24567,-3.54567 6.37441,-9.12165 -0.207874,-5.91614 -2.63031,-9.18189 -6.37441,-10.8638l-8.94449 0zm0.0259843 -39.8197l0 21.1087 8.92913 0c3.89764,-0.824409 6.23504,-3.74528 6.36378,-9.63425 -0.207874,-6.24803 -2.62559,-9.69803 -6.36378,-11.4744l-8.92913 0z"/>
  <path d="M289.635 236.856l10.2531 0 0 -61.5189 -10.2531 0 0 -17.6776 57.2752 0c12.1193,5.54646 23.9469,11.5724 25.4563,34.6488 -1.21181,19.1941 -13.1717,23.6079 -25.4563,27.5764l-19.2496 0 0 16.9713 10.4114 0 0 17.6776 -48.437 0 0 -17.6776zm35.9303 -59.5465l0 23.6114 9.89291 0c4.31929,-0.922441 6.90827,-4.19055 7.05118,-10.7764 -0.230315,-6.98976 -2.90906,-10.8472 -7.05118,-12.835l-9.89291 0z"/>
  <circle cx="276.5" cy="100" r="17.5"/>
  <circle cx="156" cy="239" r="17.5"/>
  <circle cx="401" cy="239" r="17.5"/>
 </g>
</svg>