<?xml version="1.0" encoding="UTF-8" standalone="no"?>
<svg
   xmlns:dc="http://purl.org/dc/elements/1.1/"
   xmlns:cc="http://web.resource.org/cc/"
   xmlns:rdf="http://www.w3.org/1999/02/22-rdf-syntax-ns#"
   xmlns:svg="http://www.w3.org/2000/svg"
   xmlns="http://www.w3.org/2000/svg"
   xmlns:sodipodi="http://inkscape.sourceforge.net/DTD/sodipodi-0.dtd"
   xmlns:inkscape="http://www.inkscape.org/namespaces/inkscape"
   version="1.0"
   x="0"
   y="0"
   width="1000"
   height="600"
   id="Flag of Germany"
   sodipodi:version="0.32"
   inkscape:version="0.43"
   sodipodi:docname="Naval_Ensign_of_Germany.svg"
   sodipodi:docbase="C:\Documents and Settings\David Nelson\Archives\Svg">
  <metadata
     id="metadata2467">
    <rdf:RDF>
      <cc:Work
         rdf:about="">
        <dc:format>image/svg+xml</dc:format>
        <dc:type
           rdf:resource="http://purl.org/dc/dcmitype/StillImage" />
      </cc:Work>
    </rdf:RDF>
  </metadata>
  <defs
     id="defs2465">
    <style
       id="style2539"
       type="text/css">
   
    .str1 {stroke:#000000;stroke-width:3}
    .str0 {stroke:#000000;stroke-width:7}
    .fil1 {fill:#000000}
    .fil3 {fill:#FFFFFF}
    .fil2 {fill:#FF0017}
    .fil0 {fill:#FFA917}
   
  </style>
  </defs>
  <sodipodi:namedview
     inkscape:window-height="540"
     inkscape:window-width="756"
     inkscape:pageshadow="2"
     inkscape:pageopacity="0.0"
     borderopacity="1.0"
     bordercolor="#666666"
     pagecolor="#ffffff"
     id="base"
     inkscape:zoom="0.62166667"
     inkscape:cx="500"
     inkscape:cy="300"
     inkscape:window-x="109"
     inkscape:window-y="152"
     inkscape:current-layer="Flag of Germany"
     showgrid="true"
     gridspacingx="10px"
     gridspacingy="10px"
     inkscape:grid-points="true"
     gridtolerance="5px" />
  <g
     id="g2760"
     transform="scale(2,2)">
    <path
       sodipodi:nodetypes="ccccc"
       id="black stripe"
       d="M 0,0 L 500,0 L 400,100 L 0,100 L 0,0 z "
       style="fill:#000000;fill-opacity:1" />
    <path
       sodipodi:nodetypes="cccccc"
       id="red stripe"
       d="M 0,100 L 400,100 L 350,150 L 400,200 L 0,200 L 0,100 z "
       style="fill:#DD0000;fill-opacity:1" />
    <path
       sodipodi:nodetypes="ccccc"
       id="gold stripe"
       d="M 0,200 L 400,200 L 500,300 L 0,300 L 0,200 z "
       style="fill:#ffce00;fill-opacity:1" />
    <g
       transform="translate(-42.25781,0)"
       id="g3501">
      <path
         d="M 306.21328,82.528943 C 306.21328,82.528943 306.21328,148.41334 306.21328,168.35999 C 306.21328,195.40886 280.97775,217.47107 249.99999,217.47107 C 219.02224,217.47107 193.7867,195.40886 193.7867,168.35999 C 193.7867,148.41334 193.7867,82.528943 193.7867,82.528943 L 306.21328,82.528943 z "
         class="fil0 str0"
         id="21190848"
         style="fill:#ffce00;fill-opacity:1;stroke:#000000;stroke-width:1.05777705" />
      <path
         d="M 241.53777,105.64893 C 240.48,108.36892 239.42222,111.69337 240.02666,115.77336 C 237.91111,115.32003 232.62223,114.71559 230.35556,115.92447 C 229.60001,113.35559 227.03112,109.4267 225.21779,107.76448 C 230.35556,103.53337 230.35556,102.17337 227.63556,100.66226 C 224.91556,99.000042 220.83557,97.640043 217.96446,97.488932 C 215.09335,97.337821 214.18668,97.942265 212.67557,99.151153 C 211.31557,100.51115 207.99113,102.32448 204.51558,102.32448 C 204.8178,116.2267 203.76002,130.73335 202.0978,139.6489 C 201.49336,142.06668 201.04003,145.54223 201.34225,147.50667 C 203.76002,146.75112 205.27113,145.0889 207.68891,144.18223 C 208.74669,138.2889 210.10669,129.37335 210.86224,123.63114 C 211.6178,124.38669 212.82668,125.74669 213.43113,126.04891 C 213.73335,133.15113 208.29335,162.46666 207.84002,168.35999 C 210.2578,168.20888 212.82668,165.7911 214.79113,165.63999 C 216.00002,155.96889 219.62668,136.02224 219.47557,129.37335 C 220.23112,129.52446 221.2889,130.12891 222.04446,130.28002 C 221.89334,141.61334 217.96446,159.59555 217.81335,167.90666 C 219.77779,167.60444 221.2889,166.09333 223.70668,165.7911 C 225.06668,157.32889 227.63556,137.53335 228.0889,132.39557 C 228.84445,132.69779 230.20445,133.15113 230.96,133.45335 C 230.96,139.34668 228.69334,152.19111 229.14667,157.32889 C 230.65778,156.42222 232.62223,156.12 233.83111,154.91111 C 235.34222,148.86667 235.04,138.59112 236.24889,135.41779 C 236.85333,135.5689 237.60889,136.02224 238.21333,136.32446 C 238.36444,139.6489 237.45778,147.50667 237.76,150.37778 C 239.27111,150.07556 240.02666,149.01778 242.29333,148.56445 C 242.29333,146.60001 242.29333,142.3689 242.74666,140.85779 C 244.25777,143.57779 245.31555,146.14667 245.31555,150.07556 C 239.42222,153.70222 237.30667,160.35111 228.69334,160.65333 C 229.75112,162.92 232.16889,164.27999 235.34222,165.03555 C 235.79556,167.45333 235.94667,170.92888 237.00444,172.5911 C 239.57333,170.47554 240.32889,164.43111 245.01333,164.43111 C 244.25777,167.45333 244.10666,168.96444 243.80444,170.17332 C 243.2,173.49776 240.48,173.64888 238.96889,176.21776 C 241.53777,178.48443 244.10666,178.63554 246.0711,178.03109 C 244.25777,182.56443 237.30667,183.31998 234.28445,182.41331 C 233.52889,183.31998 233.68,184.67998 234.28445,185.28442 C 230.96,186.3422 227.93778,191.02664 232.47111,194.50219 C 232.77334,192.08442 233.98222,190.72442 236.09778,190.87553 C 236.24889,191.63108 236.55111,192.68886 236.4,193.59553 C 240.48,193.74664 246.37333,189.51553 247.58221,187.55109 C 249.09332,190.4222 245.76888,194.04886 243.04888,196.0133 C 244.55999,197.22219 245.76888,197.67552 247.58221,197.52441 C 246.67555,201.75552 250.90666,202.35997 249.54666,206.59107 C 251.96443,204.62663 253.62665,200.0933 252.26666,197.52441 C 254.07999,197.67552 255.5911,197.22219 257.10221,196.0133 C 254.38221,194.04886 251.05777,190.4222 252.56888,187.55109 C 253.77777,189.51553 259.67109,193.74664 263.59998,193.59553 C 263.44887,192.68886 263.75109,191.63108 264.05331,190.87553 C 266.16887,190.72442 267.37776,192.08442 267.67998,194.50219 C 272.21331,191.02664 269.19109,186.3422 265.86665,185.28442 C 266.47109,184.67998 266.47109,183.31998 265.86665,182.41331 C 262.84443,183.31998 255.89332,182.56443 254.07999,178.03109 C 256.04443,178.63554 258.61332,178.48443 261.1822,176.21776 C 259.67109,173.64888 256.9511,173.49776 256.19554,170.17332 C 256.04443,168.96444 255.89332,167.45333 255.13776,164.43111 C 259.82221,164.43111 260.42665,170.47554 263.14665,172.5911 C 264.20442,170.92888 264.35554,167.45333 264.80887,165.03555 C 267.9822,164.27999 270.39998,162.92 271.30664,160.65333 C 262.84443,160.35111 260.57776,153.70222 254.68443,150.07556 C 254.83554,146.14667 255.89332,143.57779 257.40443,140.85779 C 257.85776,142.3689 257.70665,146.60001 257.70665,148.56445 C 259.97332,149.01778 260.87998,150.07556 262.39109,150.37778 C 262.69331,147.50667 261.78665,139.6489 261.93776,136.32446 C 262.5422,136.02224 263.29776,135.5689 263.9022,135.41779 C 265.11109,138.59112 264.80887,148.86667 266.31998,154.91111 C 267.52887,156.12 269.49331,156.42222 271.00442,157.32889 C 271.45775,152.19111 269.19109,139.34668 269.19109,133.45335 C 269.94664,133.15113 271.15553,132.69779 272.0622,132.39557 C 272.51553,137.53335 275.08442,157.32889 276.44441,165.7911 C 278.71108,166.09333 280.3733,167.60444 282.18663,167.90666 C 282.03552,159.59555 278.25775,141.61334 278.10664,130.28002 C 278.71108,130.12891 279.91997,129.52446 280.67552,129.37335 C 280.3733,136.02224 283.99997,155.96889 285.35996,165.63999 C 287.32441,165.7911 289.74218,168.20888 292.31107,168.35999 C 291.85774,162.46666 286.41774,133.15113 286.71996,126.04891 C 287.32441,125.74669 288.5333,124.38669 289.28885,123.63114 C 290.04441,129.37335 291.4044,138.2889 292.46218,144.18223 C 294.87996,145.0889 296.39107,146.75112 298.80884,147.50667 C 299.11107,145.54223 298.50662,142.06668 298.05329,139.6489 C 296.39107,130.73335 295.33329,116.2267 295.4844,102.32448 C 292.15996,102.32448 288.83552,100.51115 287.47552,99.151153 C 285.96441,97.942265 285.05774,97.337821 282.18663,97.488932 C 279.31552,97.640043 275.23553,99.000042 272.51553,100.66226 C 269.79553,102.17337 269.79553,103.53337 274.93331,107.76448 C 273.11997,109.4267 270.55109,113.35559 269.79553,115.92447 C 267.52887,114.71559 262.08887,115.32003 260.12443,115.77336 C 260.72887,111.69337 259.36887,101.41782 257.55554,96.431155 C 258.15998,95.977822 259.06665,95.524489 259.67109,94.16449 C 260.27554,92.955602 258.91554,93.711157 257.40443,93.106713 C 253.77777,91.897825 247.73333,87.666717 243.50222,87.666717 C 243.2,88.573383 242.44444,89.782271 240.93333,91.14227 C 239.42222,92.351158 243.04888,95.977822 245.61777,99.453375 C 248.33777,102.77782 242.29333,102.4756 241.53777,105.64893 z "
         class="fil1 str1"
         id="21190760"
         style="fill:#000000;stroke:#000000;stroke-width:0.45333299" />
      <path
         style="fill:#DD0000;fill-opacity:1;stroke:#000000;stroke-width:0.45333299"
         id="21190584"
         class="fil2 str1"
         d="M 235.64445,167.1511 C 235.49333,166.39555 235.34222,165.7911 235.34222,165.03555 C 234.13334,164.88444 233.22667,164.43111 232.32,163.97777 C 228.69334,167.1511 223.40445,173.79999 220.08001,175.46221 C 219.32446,175.76443 218.11557,175.61332 216.75557,174.40443 C 215.54668,173.19554 210.86224,171.38221 209.20002,172.28888 C 207.5378,173.19554 207.84002,175.61332 209.35113,176.6711 C 211.01335,177.87998 212.37335,178.03109 213.58224,178.03109 C 214.79113,178.03109 216.00002,178.33332 214.18668,179.39109 C 211.6178,181.05332 209.50224,180.44887 208.74669,181.80887 C 207.84002,184.07554 209.65335,185.88887 212.07113,185.73776 C 215.09335,185.43553 214.03557,182.56443 217.51113,179.39109 C 219.47557,182.41331 216.90668,184.37776 218.26668,185.58665 C 219.77779,186.64442 222.19557,186.03998 222.80001,184.37776 C 224.0089,181.65776 220.83557,180.14665 221.89334,178.18221 C 223.10223,176.06665 224.61334,176.97332 225.06668,175.76443 C 227.93778,176.82221 226.57779,179.23998 228.0889,179.99554 C 229.60001,180.75109 231.71556,180.14665 231.86667,178.18221 C 231.86667,176.06665 229.90223,174.70665 228.54223,174.10221 C 230.50667,172.13777 234.28445,168.5111 235.64445,167.1511 z " />
      <path
         style="fill:#DD0000;fill-opacity:1;stroke:#000000;stroke-width:0.45333299"
         id="21190496"
         class="fil2 str1"
         d="M 264.50665,167.1511 C 264.65776,166.39555 264.65776,165.7911 264.80887,165.03555 C 265.86665,164.88444 266.92442,164.43111 267.83109,163.97777 C 271.30664,167.1511 276.74664,173.79999 280.07108,175.46221 C 280.67552,175.76443 282.03552,175.61332 283.24441,174.40443 C 284.60441,173.19554 289.28885,171.38221 290.95107,172.28888 C 292.46218,173.19554 292.31107,175.61332 290.79996,176.6711 C 289.13774,177.87998 287.77774,178.03109 286.56885,178.03109 C 285.35996,178.03109 284.15108,178.33332 285.96441,179.39109 C 288.5333,181.05332 290.64885,180.44887 291.25329,181.80887 C 292.31107,184.07554 290.49774,185.88887 288.07996,185.73776 C 284.90663,185.43553 286.11552,182.56443 282.63997,179.39109 C 280.52441,182.41331 283.24441,184.37776 281.7333,185.58665 C 280.3733,186.64442 277.95553,186.03998 277.19997,184.37776 C 276.14219,181.65776 279.31552,180.14665 278.25775,178.18221 C 277.04886,176.06665 275.53775,176.97332 275.08442,175.76443 C 272.21331,176.82221 273.57331,179.23998 272.0622,179.99554 C 270.55109,180.75109 268.28442,180.14665 268.28442,178.18221 C 268.13331,176.06665 270.24886,174.70665 271.60886,174.10221 C 269.64442,172.13777 265.86665,168.5111 264.50665,167.1511 z " />
      <path
         style="fill:#DD0000;fill-opacity:1;stroke:#000000;stroke-width:0.45333299"
         id="21190408"
         class="fil2 str1"
         d="M 204.8178,179.23998 C 203.91114,176.51998 204.96891,173.64888 207.38669,172.89332 C 209.80446,172.13777 210.10669,174.85776 209.35113,176.06665 C 208.44447,177.27554 205.57336,175.91554 204.8178,179.23998 z " />
      <path
         style="fill:#DD0000;fill-opacity:1;stroke:#000000;stroke-width:0.45333299"
         id="21190320"
         class="fil2 str1"
         d="M 210.40891,189.66664 C 207.5378,189.0622 206.1778,183.6222 208.14224,182.41331 C 210.10669,181.20443 211.76891,183.01776 211.6178,184.52887 C 211.6178,186.03998 209.65335,186.03998 210.40891,189.66664 z " />
      <path
         style="fill:#DD0000;fill-opacity:1;stroke:#000000;stroke-width:0.45333299"
         id="21190232"
         class="fil2 str1"
         d="M 224.91556,188.15553 C 221.89334,190.4222 217.96446,188.00442 218.5689,185.73776 C 219.17335,183.92442 221.74223,183.92442 222.49779,184.67998 C 223.55557,185.73776 222.04446,187.55109 224.91556,188.15553 z " />
      <path
         style="fill:#DD0000;fill-opacity:1;stroke:#000000;stroke-width:0.45333299"
         id="21190144"
         class="fil2 str1"
         d="M 230.05334,184.22665 C 232.01778,183.31998 233.22667,180.29776 232.16889,178.93776 C 231.11112,177.57776 228.69334,178.33332 228.69334,180.29776 C 228.84445,182.11109 230.80889,182.41331 230.05334,184.22665 z " />
      <path
         style="fill:#DD0000;fill-opacity:1;stroke:#000000;stroke-width:0.45333299"
         id="21190056"
         class="fil2 str1"
         d="M 295.33329,179.23998 C 296.23996,176.51998 295.18218,173.64888 292.7644,172.89332 C 290.34663,172.13777 290.04441,174.85776 290.79996,176.06665 C 291.70663,177.27554 294.42662,175.91554 295.33329,179.23998 z " />
      <path
         style="fill:#DD0000;fill-opacity:1;stroke:#000000;stroke-width:0.45333299"
         id="21189968"
         class="fil2 str1"
         d="M 289.59107,189.66664 C 292.61329,189.0622 293.97329,183.6222 292.00885,182.41331 C 289.89329,181.20443 288.38218,183.01776 288.38218,184.52887 C 288.5333,186.03998 290.49774,186.03998 289.59107,189.66664 z " />
      <path
         style="fill:#DD0000;fill-opacity:1;stroke:#000000;stroke-width:0.45333299"
         id="21189880"
         class="fil2 str1"
         d="M 275.23553,188.15553 C 278.25775,190.4222 282.18663,188.00442 281.58219,185.73776 C 280.97775,183.92442 278.40886,183.92442 277.6533,184.67998 C 276.59553,185.73776 278.10664,187.55109 275.23553,188.15553 z " />
      <path
         style="fill:#DD0000;fill-opacity:1;stroke:#000000;stroke-width:0.45333299"
         id="21189792"
         class="fil2 str1"
         d="M 269.94664,184.22665 C 268.13331,183.31998 266.92442,180.29776 267.9822,178.93776 C 269.03998,177.57776 271.45775,178.33332 271.30664,180.29776 C 271.30664,182.11109 269.3422,182.41331 269.94664,184.22665 z " />
      <path
         style="fill:#DD0000;fill-opacity:1;stroke:#000000;stroke-width:0.45333299"
         id="21189704"
         class="fil2 str1"
         d="M 245.61777,100.81337 C 241.53777,99.151153 240.32889,102.4756 231.86667,99.453375 C 233.52889,102.32448 238.96889,105.80004 244.55999,104.13782 C 248.63999,103.08004 247.88444,101.72004 245.61777,100.81337 z " />
      <path
         style="fill:#DD0000;fill-opacity:1;stroke:#000000;stroke-width:0.45333299"
         id="21189616"
         class="fil2 str1"
         d="M 236.24889,98.244487 C 235.34222,94.768934 235.94667,91.293381 238.66667,90.084493 C 241.38666,88.875605 242.29333,90.235604 244.10666,92.048936 C 247.27999,95.524489 248.18666,99.000042 248.33777,101.72004 C 248.33777,103.68448 249.09332,105.19559 249.99999,106.25337 C 245.46666,104.74226 239.87555,109.12448 237.00444,103.53337 C 240.93333,104.89337 241.99111,100.81337 245.16444,102.4756 C 243.35111,101.41782 244.86222,98.69782 242.59555,97.18671 C 240.63111,95.826711 237.60889,95.524489 236.24889,98.244487 z " />
      <path
         d="M 251.5111,93.257824 C 249.99999,93.257824 248.63999,92.048936 248.03555,91.444492 C 247.58221,90.840048 245.91999,90.991159 245.91999,92.048936 C 246.0711,93.711157 249.24444,94.768934 251.5111,93.257824 z "
         class="fil3"
         id="21189528"
         style="fill:#ffffff" />
    </g>
  </g>
</svg>
