<svg xmlns="http://www.w3.org/2000/svg" width="1200" height="720" viewBox="0 0 360 216">
<rect fill="#fff" height="216" width="360"/>
<path d="M 219.394,131.909 C 222.647,132.818 226.277,135.276 227.709,136.709 C 228.283,137.283 228.299,132.7 228.833,133.501 C 230.333,135.751 234.743,136.147 237.418,135.418 C 240.147,134.675 231.667,132.668 235.5,125.5 C 236.5,128.5 240.917,129.5 243.917,129.5 C 244.917,128.5 243.5,126.5 243.5,125.5 C 244.5,124.5 247.5,128.5 248.5,125.5 C 248.5,123.5 246.5,122.5 245.5,121.5 C 245.5,120.5 246.249,119.122 247.249,119.122 C 250.249,120.122 252.515,121.44 253,119.5 C 254.75,112.5 243.916,118.835 242.5,110.5 C 242.165,108.528 244.5,106.5 246.5,106.5 C 251.5,107.5 254.5,103.5 259.5,103.5 C 262.662,103.5 264.935,108 267.5,108.418 C 269.769,108.788 267.5,102.501 267.5,100.501 C 273.5,103.501 274.625,111.918 274.625,117.375 C 274.625,118.375 278.208,113.792 278.208,112.792 C 280.125,118.792 278,125.918 274.5,130.5 C 273.642,131.624 278.167,132.5 280.167,132.5 C 279.875,138.209 270.5,134.168 270.5,135.5 C 270.5,146.5 285.5,137.5 293.5,137.5 C 297.623,137.5 300.5,140.5 304.5,141.5 C 309.446,142.736 317.5,140.5 315.5,135.5 C 312.5,126.5 297.828,135.211 289.958,129.042 C 285.333,125.417 280.124,117.876 287.5,110.5 C 288.207,109.793 284.979,108.354 285.5,107.5 C 289.916,100.251 292.504,107.344 295.5,107.5 C 301.916,107.834 301.5,101.5 300.5,96.5 C 302.5,97.5 301.719,100.149 303.5,101.5 C 311.083,107.251 301.791,109.209 303.874,113.126 C 305.567,116.31 307.5,108.751 309.5,106.751 C 312.666,112.335 312.917,121.5 298.5,121.5 C 298.5,121.5 298.5,122.5 298.5,123.5 C 299.5,125.5 302.5,125.5 303.5,124.5 C 309.5,124.5 316.875,123.125 320.875,128.125 C 324.875,134.125 327.5,141.168 318.5,149.5 C 318.5,149.5 309.667,149.501 316.742,153.888 C 317.119,154.121 317.313,153.73 319.25,150.668 C 319.25,150.668 323.75,151.334 322.5,157.5 C 323.5,157.5 324.5,156.5 324.5,156.5 C 324.5,155.5 324.5,153.834 324.5,152.834 C 329.833,157.341 325.874,160.323 327.666,161.334 C 331.025,163.229 329.755,154.69 331.5,155.668 C 337.375,158.959 331.75,171.334 340.666,166.5 C 339.666,169.5 335.583,172.501 341.167,176.084 C 337.167,177.084 329.167,172.917 331.167,178.5 C 332.675,182.71 339.75,184.501 333.083,192.917 C 332.083,191.917 330.5,188.5 328.5,188.5 C 325.5,188.5 326.375,194.167 325.375,196.167 C 323.375,194.167 319.999,187.169 316.5,189.5 C 315.889,189.907 316.25,192.084 314.5,193.084 C 314.5,190.084 314.5,186.5 314.5,183.5 C 314.5,179.5 321.5,180.5 321.5,176.5 C 320.5,173.5 319.042,172.042 316.042,171.042 C 315.042,171.042 314.667,171.917 314.667,171.917 C 314.667,173.917 314.334,177.334 314.334,179.334 C 310.334,179.334 303.25,180.75 302.25,178.75 C 300.819,177.797 303.103,174.684 303.25,172.995 L 303.978,170.501 L 300.5,170.501 C 295.172,164.079 293.627,164.31 294.5,171.584 L 300.333,171.584 L 300.75,173.001 L 299.042,173.042 C 295.042,174.042 292.04,176.5 291.5,179.5 C 291.323,180.484 297,180.668 296.334,185.334 C 294.75,184.918 293.5,182.5 292.5,182.5 C 289.5,181.5 290.957,186.127 289.542,187.542 C 287.865,189.219 282.5,182.5 279.5,185.5 C 276.338,188.662 282.583,194.918 271.5,194.5 C 271.5,193.5 271.5,191.5 270.5,191.5 C 267.5,191.5 267.75,195.75 267.75,198.75 C 263.75,198.75 266.417,193.918 262.5,191.834 C 259.317,190.141 262.5,183.5 266.5,182.5 C 270.5,182.5 275.5,181.5 276.5,177.5 C 277.5,173.5 273.5,172.5 271.5,170.5 C 270.5,169.5 269.5,168.5 270.5,167.5 C 271.5,166.5 272.526,168.726 273.5,168.5 C 277.311,167.615 277.848,162.652 283.624,158.71 C 284.729,157.603 285.392,155.833 287,154.751 C 279,153.751 275.832,164.752 267.5,164.5 C 264.001,164.395 265.333,166.584 256.5,165.5 C 254.281,165.228 254.949,170.949 255.5,171.5 C 256.5,171.5 258.5,171.5 259.5,171.5 C 256.916,177.084 252.765,171.656 251.5,173.5 C 249.5,176.417 253.916,178.584 247.5,181.667 C 249.5,178.667 247.5,174.5 245.5,171.5 L 243.5,172.5 C 243.5,173.551 244.97,175.384 245.166,177.178 C 245.344,178.798 244.25,180.385 244.25,181.334 C 243.25,181.334 243.282,180.709 241.282,177.709 C 240.282,176.709 236.919,177.778 235.166,179.166 C 229.584,183.584 234.667,195.334 218.916,193.084 C 217.926,192.942 220.5,190.5 220.5,189.5 C 219.5,188.5 218.5,186.5 216.5,186.5 C 214.5,187.5 214,191.001 214,193.001 C 211,189.001 207.5,181.5 212.5,178.5 C 215.5,177.5 220.091,179.327 221.209,178.209 C 227.072,172.346 228.149,173.307 228.5,170.5 C 229,166.5 229.5,162.167 234.5,160.167 C 234.5,159.167 234.5,156.5 233.5,155.5 C 230.5,155.5 227.667,154.5 225.667,153.5 C 222.667,149.5 226.534,150.938 218.583,147.25 C 212.759,144.549 209.833,146.667 209.833,146.667 C 192.833,154.833 205.333,130.167 209.167,130.167 L 219.394,131.909 z"/>
<path fill="#da251d" d="M 223.147,149.709 C 221.885,149.07 217.5,146.076 217.5,144.5 C 216.5,143.5 218.5,140.5 217.5,139.5 C 214.5,136.5 210.783,134.783 212.783,130.783 L 219.393,131.909 L 220.499,132.272 L 220.499,131.667 C 220.499,131.667 218.749,126.584 222.939,128.297 C 226.743,129.852 233.113,126.937 235.332,122.5 C 236.332,120.5 233.109,115.986 235.499,117.5 C 242.031,121.637 245.505,119.942 248.522,118.549 L 253.419,118.153 C 248.498,113.232 244.833,115.584 244.833,115.584 C 242.155,114.459 240.49,112.031 241.498,105.501 C 237.498,106.501 236.498,110.501 234.498,113.501 C 232.498,116.501 230.498,120.501 225.498,119.501 C 224.498,119.501 224.498,117.501 224.498,116.501 C 223.498,114.501 221.331,113.501 219.331,112.501 C 216.331,108.501 219.498,100.168 214.498,99.168 C 209.498,98.168 211.197,109.99 208.498,110.834 C 203.164,112.501 203.441,118.561 199.164,121.167 C 196.427,122.835 195.248,113.751 192.248,111.751 C 192.248,117.751 190.08,126.083 196.414,130.417 C 200.106,132.941 206.5,128.5 208,127 L 208.833,130.334 L 209.5,130.334 L 209.5,147.5 C 208.5,149.5 201.396,151.624 203.416,152.584 C 211.833,156.584 208.226,155.56 214,161.334 C 216.292,163.626 215.5,154.834 224.834,154.834 C 227.486,154.834 224.517,151.265 223.345,149.86 L 223.147,149.709 z"/>
<rect fill="#da251d" height="126" width="156"/>
<rect height="84" width="156"/>
<rect fill="#fff" y="42" height="42" width="155.9"/>
<circle fill="#fff" r="2" cy="109" cx="259"/>
</svg>