<?xml version="1.0" encoding="UTF-8"?>
<svg xmlns="http://www.w3.org/2000/svg" xmlns:xlink="http://www.w3.org/1999/xlink" width="461pt" height="366pt" viewBox="0 0 461 366" version="1.1">
<defs>
<clipPath id="clip0">
  <rect width="461" height="366"/>
</clipPath>
</defs>
<g id="surface0" clip-path="url(#clip0)">
<path style="fill: none; stroke-width: 0.1; stroke-linecap: butt; stroke-linejoin: miter; stroke: rgb(92.549026%,1.176471%,42.352945%); opacity: 1;stroke-miterlimit: 10;" d="M 0 0 L 461 0 L 461 366 L 0 366 L 0 0 Z M 0 0 " transform="matrix(1,0,0,1,0,0)"/>
<path style="stroke: none; fill-rule: nonzero; fill: rgb(92.549026%,1.176471%,42.352945%); opacity: 1;" d="M 0 0 L 461 0 L 461 366 L 0 366 L 0 0 Z M 0 0 "/>
<path style="fill: none; stroke-width: 0.1; stroke-linecap: butt; stroke-linejoin: miter; stroke: rgb(100%,100%,100%); opacity: 1;stroke-miterlimit: 10;" d="M 198.758896 80.763657 C 210.228165 71.598724 220.160339 60.720978 230.000702 49.877914 C 242.065903 63.148621 254.135986 76.884888 269.406082 86.578568 C 273.965866 89.725098 279.985352 90.059982 284.030106 94.027725 C 289.551819 98.611481 292.632568 105.914276 291.927765 113.073929 C 291.378922 117.967422 290.429306 123.211731 287.0634 127.023376 C 275.781296 140.437241 264.654449 153.982361 253.396973 167.415787 C 251.109024 169.695282 251.323792 173.482986 252.881134 176.091003 C 255.534409 178.282639 259.920013 176.442017 262.02713 174.077805 C 273.068558 161.09523 283.702637 147.73909 294.894455 134.896774 C 303.808929 129.623367 315.332657 129.420456 324.867813 133.187561 C 328.8573 134.465302 331.168716 138.176193 334.063492 140.931931 C 343.889099 151.286926 354.947647 160.358963 366.256271 169.031647 C 358.20636 180.874603 350.607132 193.191986 345.832642 206.769043 C 344.755386 209.586578 344.168427 212.768814 341.904037 214.94252 C 336.157318 220.905426 329.239532 226.349518 320.986435 228.154846 C 308.189697 229.84227 294.844162 226.316528 284.700348 218.278946 C 281.972626 215.636383 277.542007 215.546906 274.299057 217.204285 C 271.071213 220.113327 273.733627 224.645767 275.07309 227.863556 C 285.379318 227.771042 296.178116 230.963669 303.48822 238.517548 C 307.63443 242.544876 310.159821 248.175537 310.257538 253.97226 C 310.337418 260.249619 309.781143 266.697891 307.466278 272.587234 C 305.757202 277.208984 300.961716 279.35083 297.955551 282.96582 C 293.577515 287.704422 291.815216 294.37999 292.719772 300.716797 C 282.104004 293.169434 268.507584 292.573456 256.010391 294.000549 C 245.219193 296.109741 234.383392 285.843994 234.965149 275.049683 C 234.905685 269.984909 234.974182 264.915115 235.588196 259.88356 C 235.836731 255.961548 235.767838 251.159988 232.502014 248.415878 C 230.147369 246.341583 226.730942 248.136353 225.6297 250.663391 C 223.03949 256.080841 224.761627 262.215027 224.745651 267.949356 C 224.600555 273.052658 225.58223 278.516953 223.1633 283.257248 C 220.536469 289.26796 214.516769 293.503998 208.081573 294.358765 C 194.329681 292.796631 179.031906 292.140137 167.261505 300.722412 C 167.84549 295.120941 166.739044 289.273453 163.350235 284.686264 C 160.124344 279.662369 153.537048 277.313766 151.982971 271.156219 C 149.396408 261.685608 147.733536 250.310455 153.761581 241.767929 C 160.794617 232.030548 173.237946 227.684036 184.918137 227.874313 C 186.088943 224.920013 187.867432 221.610458 186.615921 218.404251 C 185.246643 216.15094 182.312729 216.142044 179.992447 216.195969 C 177.136703 216.09317 175.208038 218.577682 172.925415 219.904999 C 163.173477 226.832932 150.827286 229.610947 139.01358 228.185959 C 130.736572 226.397751 123.863815 220.836792 118.189713 214.798355 C 116.215546 212.810394 115.540131 210.030914 114.600983 207.487701 C 109.681793 193.67334 101.954376 181.109863 93.747421 169.041122 C 105.099442 160.420975 116.142105 151.326294 126.027405 141.032928 C 128.658798 138.370682 130.772522 134.886276 134.409149 133.484985 C 141.586609 130.353149 149.813904 129.879776 157.388535 131.709198 C 160.655731 132.750092 164.397354 133.533707 166.59169 136.421051 C 176.869766 148.817017 187.202072 161.170425 197.493652 173.555542 C 199.421982 176.022079 202.63649 177.404327 205.757324 176.976822 C 208.929153 174.775284 208.872421 169.42308 206.168716 166.860367 C 195.021423 153.640717 184.080276 140.248367 172.938766 127.024292 C 169.583298 123.207581 168.711273 117.951813 168.098297 113.078018 C 166.898605 102.888016 173.9104 92.527222 183.758118 89.763962 C 189.329605 87.856567 194.151321 84.341263 198.758896 80.763657 Z M 198.758896 80.763657 " transform="matrix(1,0,0,1,0,0)"/>
<path style="stroke: none; fill-rule: nonzero; fill: rgb(100%,100%,100%); opacity: 1;" d="M 198.758896 80.763657 C 210.228165 71.598724 220.160339 60.720978 230.000702 49.877914 C 242.065903 63.148621 254.135986 76.884888 269.406082 86.578568 C 273.965866 89.725098 279.985352 90.059982 284.030106 94.027725 C 289.551819 98.611481 292.632568 105.914276 291.927765 113.073929 C 291.378922 117.967422 290.429306 123.211731 287.0634 127.023376 C 275.781296 140.437241 264.654449 153.982361 253.396973 167.415787 C 251.109024 169.695282 251.323792 173.482986 252.881134 176.091003 C 255.534409 178.282639 259.920013 176.442017 262.02713 174.077805 C 273.068558 161.09523 283.702637 147.73909 294.894455 134.896774 C 303.808929 129.623367 315.332657 129.420456 324.867813 133.187561 C 328.8573 134.465302 331.168716 138.176193 334.063492 140.931931 C 343.889099 151.286926 354.947647 160.358963 366.256271 169.031647 C 358.20636 180.874603 350.607132 193.191986 345.832642 206.769043 C 344.755386 209.586578 344.168427 212.768814 341.904037 214.94252 C 336.157318 220.905426 329.239532 226.349518 320.986435 228.154846 C 308.189697 229.84227 294.844162 226.316528 284.700348 218.278946 C 281.972626 215.636383 277.542007 215.546906 274.299057 217.204285 C 271.071213 220.113327 273.733627 224.645767 275.07309 227.863556 C 285.379318 227.771042 296.178116 230.963669 303.48822 238.517548 C 307.63443 242.544876 310.159821 248.175537 310.257538 253.97226 C 310.337418 260.249619 309.781143 266.697891 307.466278 272.587234 C 305.757202 277.208984 300.961716 279.35083 297.955551 282.96582 C 293.577515 287.704422 291.815216 294.37999 292.719772 300.716797 C 282.104004 293.169434 268.507584 292.573456 256.010391 294.000549 C 245.219193 296.109741 234.383392 285.843994 234.965149 275.049683 C 234.905685 269.984909 234.974182 264.915115 235.588196 259.88356 C 235.836731 255.961548 235.767838 251.159988 232.502014 248.415878 C 230.147369 246.341583 226.730942 248.136353 225.6297 250.663391 C 223.03949 256.080841 224.761627 262.215027 224.745651 267.949356 C 224.600555 273.052658 225.58223 278.516953 223.1633 283.257248 C 220.536469 289.26796 214.516769 293.503998 208.081573 294.358765 C 194.329681 292.796631 179.031906 292.140137 167.261505 300.722412 C 167.84549 295.120941 166.739044 289.273453 163.350235 284.686264 C 160.124344 279.662369 153.537048 277.313766 151.982971 271.156219 C 149.396408 261.685608 147.733536 250.310455 153.761581 241.767929 C 160.794617 232.030548 173.237946 227.684036 184.918137 227.874313 C 186.088943 224.920013 187.867432 221.610458 186.615921 218.404251 C 185.246643 216.15094 182.312729 216.142044 179.992447 216.195969 C 177.136703 216.09317 175.208038 218.577682 172.925415 219.904999 C 163.173477 226.832932 150.827286 229.610947 139.01358 228.185959 C 130.736572 226.397751 123.863815 220.836792 118.189713 214.798355 C 116.215546 212.810394 115.540131 210.030914 114.600983 207.487701 C 109.681793 193.67334 101.954376 181.109863 93.747421 169.041122 C 105.099442 160.420975 116.142105 151.326294 126.027405 141.032928 C 128.658798 138.370682 130.772522 134.886276 134.409149 133.484985 C 141.586609 130.353149 149.813904 129.879776 157.388535 131.709198 C 160.655731 132.750092 164.397354 133.533707 166.59169 136.421051 C 176.869766 148.817017 187.202072 161.170425 197.493652 173.555542 C 199.421982 176.022079 202.63649 177.404327 205.757324 176.976822 C 208.929153 174.775284 208.872421 169.42308 206.168716 166.860367 C 195.021423 153.640717 184.080276 140.248367 172.938766 127.024292 C 169.583298 123.207581 168.711273 117.951813 168.098297 113.078018 C 166.898605 102.888016 173.9104 92.527222 183.758118 89.763962 C 189.329605 87.856567 194.151321 84.341263 198.758896 80.763657 Z M 198.758896 80.763657 "/>
<path style="fill: none; stroke-width: 0.1; stroke-linecap: butt; stroke-linejoin: miter; stroke: rgb(92.549026%,1.176471%,42.352945%); opacity: 1;stroke-miterlimit: 10;" d="M 203.38237 103.405304 C 213.937561 97.852966 222.64093 89.459167 229.992828 80.175415 C 238.162033 90.729797 248.328796 99.965866 260.620941 105.437592 C 264.667969 106.916641 267.997238 110.526459 268.250916 114.960037 C 268.182037 119.503555 264.335556 122.447479 261.660568 125.629532 C 253.540741 135.202072 245.497452 144.840149 237.37645 154.411636 C 228.581863 165.159119 229.463547 182.133041 238.68663 192.332703 C 243.394119 196.444077 250.037231 196.744949 255.9841 196.537354 C 265.259933 196.614395 274.138565 192.083206 280.230835 185.214386 C 288.743225 175.689392 297.099197 166.020248 305.450806 156.353851 C 312.724884 156.115036 320.436981 157.082474 326.438538 161.546326 C 330.483261 164.542877 333.930573 168.535721 335.861771 173.214615 C 335.582596 184.335251 330.741211 195.170517 323.458237 203.486908 C 318.269257 207.648804 309.229095 210.685349 304.074493 204.926376 C 299.33374 200.068085 293.141129 195.722488 286.056442 195.956955 C 277.244537 195.842804 267.549286 197.628998 261.109512 204.11496 C 256.470993 209.647354 252.361542 216.034546 251.274963 223.307495 C 250.324448 229.503342 251.772751 236.278854 255.849457 241.135025 C 259.383911 245.365097 265.93428 245.013702 270.320389 242.368301 C 277.201324 238.13002 286.160706 242.858612 289.87352 249.198441 C 292.73674 254.407471 289.80571 260.311172 286.68779 264.651077 C 284.415192 268.044449 282.109482 271.415421 279.736038 274.739822 C 273.506104 274.711929 267.27446 274.849411 261.04837 274.710144 C 257.555359 274.722702 253.896927 272.301712 253.548828 268.628571 C 252.362274 260.959259 252.747528 253.159851 252.403992 245.433273 C 251.947113 239.990479 249.728134 234.043686 244.655258 231.336914 C 240.635101 229.300446 236.154312 228.454361 231.875931 227.137085 C 229.609772 226.203232 227.347595 227.540314 225.147583 228.030228 C 220.798309 229.455856 215.842896 230.073593 212.461288 233.451401 C 208.708679 237.232864 207.328384 242.747604 207.251953 247.939819 C 207.168274 254.83403 207.475708 261.78299 206.453369 268.6259 C 206.107315 272.298218 202.444183 274.721664 198.955536 274.709946 C 192.72583 274.849319 186.492279 274.712646 180.262024 274.739349 C 176.588867 269.097824 172.000626 263.910904 169.451248 257.631516 C 166.361908 249.130768 175.261612 241.626709 183.004852 240.745651 C 187.793137 239.946899 191.28627 244.472015 195.989014 244.291962 C 199.291214 244.649506 202.627457 243.261124 204.620438 240.593582 C 210.356903 233.083054 210.103088 222.38591 205.778625 214.266739 C 202.796158 208.870224 199.323395 203.263901 193.726532 200.256973 C 186.79689 196.534546 178.685577 195.474045 170.922852 196.134445 C 164.484695 197.069366 159.239532 201.36293 154.773987 205.812637 C 152.109146 208.615448 147.830261 208.380112 144.382355 207.509338 C 140.706039 206.340332 136.919937 204.62944 134.654007 201.358856 C 128.44693 193.354248 124.172012 183.43222 124.1371 173.210907 C 126.37854 167.895126 130.459488 163.372757 135.367004 160.367798 C 140.6353 157.121384 146.968842 156.255173 153.054855 156.351959 C 154.555038 156.257156 155.35582 157.760406 156.316559 158.648056 C 163.59758 167.029938 170.960663 175.340973 178.305817 183.66745 C 184.241577 190.690613 192.645218 195.988495 202.006866 196.465836 C 208.772705 196.78595 216.57312 196.829178 221.765793 191.765778 C 230.977005 180.964981 231.049698 163.232574 221.253433 152.76709 C 212.145523 142.190414 203.405792 131.295074 194.118225 120.877335 C 191.678619 118.158279 190.999619 114.020035 192.954742 110.835587 C 194.935944 106.678894 199.707489 105.531418 203.38237 103.405304 Z M 203.38237 103.405304 " transform="matrix(1,0,0,1,0,0)"/>
<path style="stroke: none; fill-rule: nonzero; fill: rgb(92.549026%,1.176471%,42.352945%); opacity: 1;" d="M 203.38237 103.405304 C 213.937561 97.852966 222.64093 89.459167 229.992828 80.175415 C 238.162033 90.729797 248.328796 99.965866 260.620941 105.437592 C 264.667969 106.916641 267.997238 110.526459 268.250916 114.960037 C 268.182037 119.503555 264.335556 122.447479 261.660568 125.629532 C 253.540741 135.202072 245.497452 144.840149 237.37645 154.411636 C 228.581863 165.159119 229.463547 182.133041 238.68663 192.332703 C 243.394119 196.444077 250.037231 196.744949 255.9841 196.537354 C 265.259933 196.614395 274.138565 192.083206 280.230835 185.214386 C 288.743225 175.689392 297.099197 166.020248 305.450806 156.353851 C 312.724884 156.115036 320.436981 157.082474 326.438538 161.546326 C 330.483261 164.542877 333.930573 168.535721 335.861771 173.214615 C 335.582596 184.335251 330.741211 195.170517 323.458237 203.486908 C 318.269257 207.648804 309.229095 210.685349 304.074493 204.926376 C 299.33374 200.068085 293.141129 195.722488 286.056442 195.956955 C 277.244537 195.842804 267.549286 197.628998 261.109512 204.11496 C 256.470993 209.647354 252.361542 216.034546 251.274963 223.307495 C 250.324448 229.503342 251.772751 236.278854 255.849457 241.135025 C 259.383911 245.365097 265.93428 245.013702 270.320389 242.368301 C 277.201324 238.13002 286.160706 242.858612 289.87352 249.198441 C 292.73674 254.407471 289.80571 260.311172 286.68779 264.651077 C 284.415192 268.044449 282.109482 271.415421 279.736038 274.739822 C 273.506104 274.711929 267.27446 274.849411 261.04837 274.710144 C 257.555359 274.722702 253.896927 272.301712 253.548828 268.628571 C 252.362274 260.959259 252.747528 253.159851 252.403992 245.433273 C 251.947113 239.990479 249.728134 234.043686 244.655258 231.336914 C 240.635101 229.300446 236.154312 228.454361 231.875931 227.137085 C 229.609772 226.203232 227.347595 227.540314 225.147583 228.030228 C 220.798309 229.455856 215.842896 230.073593 212.461288 233.451401 C 208.708679 237.232864 207.328384 242.747604 207.251953 247.939819 C 207.168274 254.83403 207.475708 261.78299 206.453369 268.6259 C 206.107315 272.298218 202.444183 274.721664 198.955536 274.709946 C 192.72583 274.849319 186.492279 274.712646 180.262024 274.739349 C 176.588867 269.097824 172.000626 263.910904 169.451248 257.631516 C 166.361908 249.130768 175.261612 241.626709 183.004852 240.745651 C 187.793137 239.946899 191.28627 244.472015 195.989014 244.291962 C 199.291214 244.649506 202.627457 243.261124 204.620438 240.593582 C 210.356903 233.083054 210.103088 222.38591 205.778625 214.266739 C 202.796158 208.870224 199.323395 203.263901 193.726532 200.256973 C 186.79689 196.534546 178.685577 195.474045 170.922852 196.134445 C 164.484695 197.069366 159.239532 201.36293 154.773987 205.812637 C 152.109146 208.615448 147.830261 208.380112 144.382355 207.509338 C 140.706039 206.340332 136.919937 204.62944 134.654007 201.358856 C 128.44693 193.354248 124.172012 183.43222 124.1371 173.210907 C 126.37854 167.895126 130.459488 163.372757 135.367004 160.367798 C 140.6353 157.121384 146.968842 156.255173 153.054855 156.351959 C 154.555038 156.257156 155.35582 157.760406 156.316559 158.648056 C 163.59758 167.029938 170.960663 175.340973 178.305817 183.66745 C 184.241577 190.690613 192.645218 195.988495 202.006866 196.465836 C 208.772705 196.78595 216.57312 196.829178 221.765793 191.765778 C 230.977005 180.964981 231.049698 163.232574 221.253433 152.76709 C 212.145523 142.190414 203.405792 131.295074 194.118225 120.877335 C 191.678619 118.158279 190.999619 114.020035 192.954742 110.835587 C 194.935944 106.678894 199.707489 105.531418 203.38237 103.405304 Z M 203.38237 103.405304 "/>
</g>
</svg>
