<?xml version="1.0" encoding="UTF-8"?>
<svg xmlns="http://www.w3.org/2000/svg" width="900" height="600">
	<rect width="900" height="600" fill="#060"/>
	<rect width="900" height="400" fill="#fff"/>
	<rect width="900" height="200" fill="#f60"/>
	<g fill="none" stroke="#000080">
		<ellipse cx="549.51434" cy="264.37357" rx="6.4250903" ry="61.376522" transform="matrix(8.41551,0,0,1,-4079.494,0)" stroke-width="1.03414404"/>
		<rect x="542.07477" y="204.03343" width="5.748765" height="47.975277" rx="5.7628436" ry="0" stroke-width="2.9513607"/>
		<rect x="164.59903" y="529.82501" width="6.2751427" height="109.96249" rx="5.7608519" ry="0" transform="matrix(.655877,-.754867,.742856,.669451,0,0)" stroke-width="3.47549367"/>
		<rect x="-390.95871" y="353.03946" width="6.5821266" height="106.25643" rx="5.6573753" ry="0" transform="matrix(-.384133,-.923278,.973798,-.227414,0,0)" stroke-width="3.49899387"/>
		<rect x="-565.24884" y="135.42191" width="6.3723187" height="108.57198" rx="5.6091509" ry="0" transform="matrix(-.718069,-.695972,.747759,-.66397,0,0)" stroke-width="3.48008704"/>
		<rect x="-607.60071" y="-136.03026" width="6.6098437" height="115.93497" rx="5.607163" ry="0" transform="matrix(-.948354,-.317212,.364785,-.931092,0,0)" stroke-width="3.66256452"/>
		<rect x="-406.78976" y="-530.88" width="6.692224" height="117.32572" rx="5.6070495" ry="0" transform="matrix(-.904577,.42631,-.380468,-.924794,0,0)" stroke-width="3.70735645"/>
		<rect x="162.00575" y="-624.30511" width="6.6033607" height="106.95035" rx="5.6063204" ry="0" transform="matrix(-.104156,.994561,-.984229,-.176899,0,0)" stroke-width="3.51605844"/>
		<rect x="-3.8325644" y="468.54413" width="297.20425" height="17.469273" rx=".058986187" ry=".054289572" transform="matrix(.996383,-8.49734e-2,.629636,.77689,0,0)" fill="#fff" stroke-width="2.49661684"/>
		<path d="M 521.75352,209.04353 L 323.76456,351.55733 L 556.66462,325.01533" stroke-width="3.75"/>
		<rect x="309.75699" y="346.99637" width="13.188344" height="19.613434" rx="5.7628436" ry="2.0289757" fill="#fff" stroke-width="3.1"/>
		<rect x="533.185" y="260.86722" width="14.848281" height="93.105431" rx="8.1299734" ry="5.7487597" fill="#fff" stroke-width="3.13352036"/>
		<rect x="582.56451" y="-42.342266" width="116.68275" height="15.139232" rx=".058982618" ry=".054286335" transform="matrix(.801521,.597966,-.589191,.807994,0,0)" fill="#fff" stroke-width="2.5"/>
		<path d="M 528.92704,323.10239 L 528.92704,342.23176" stroke-width="3.75"/>
		<path d="M 312.27178,345.99943 C 310.994,344.31387 309.16917,341.07601 307.20158,339.05474 C 305.9452,337.76408 304.8229,336.61116 303.58001,335.33437 C 302.27267,333.99137 300.79392,333.58511 299.71701,332.11005 C 299.00431,331.13387 297.10477,330.17063 296.09544,329.13377 C 294.97891,327.98676 293.23995,327.44049 292.23244,326.40549 C 291.44038,325.59183 289.96482,324.86871 289.09375,324.4213 C 287.77826,323.74561 286.90897,322.614 285.71362,321.69302 C 284.52778,320.77939 283.47172,319.88603 282.33349,318.71674 C 281.34546,317.70176 280.05282,317.11794 278.95336,315.98846 C 278.08847,315.09999 276.65089,314.06176 275.57323,313.50822 C 274.39275,312.90188 273.71762,312.59762 272.43453,312.26809 C 271.30267,311.97741 270.39256,311.12361 269.05441,310.77995 C 267.61252,310.40964 266.96562,309.62345 265.67427,309.2918" stroke-width="3.19808006"/>
		<path d="M 290.57766,325.30917 C 289.39895,325.00345 292.1051,327.48218 292.1051,328.74272 C 292.1051,330.78772 293.37797,332.59544 293.37797,334.81745 C 293.37797,336.285 293.35842,337.64159 293.63255,338.77924 C 294.01905,340.38319 295.3922,340.61066 296.43286,341.42042 C 297.46337,342.22228 300.0223,341.68453 301.26977,341.68453 C 302.68325,341.68453 303.70757,341.25033 305.08838,340.89218 C 306.21624,340.59965 307.78374,340.62807 308.90698,340.62807" stroke-width="3.125"/>
	</g>
</svg>