<?xml version="1.0" encoding="UTF-8" standalone="no"?>
<!-- Created with Inkscape (http://www.inkscape.org/) -->

<svg
   xmlns:dc="http://purl.org/dc/elements/1.1/"
   xmlns:cc="http://creativecommons.org/ns#"
   xmlns:rdf="http://www.w3.org/1999/02/22-rdf-syntax-ns#"
   xmlns:svg="http://www.w3.org/2000/svg"
   xmlns="http://www.w3.org/2000/svg"
   xmlns:sodipodi="http://sodipodi.sourceforge.net/DTD/sodipodi-0.dtd"
   xmlns:inkscape="http://www.inkscape.org/namespaces/inkscape"
   id="svg2985"
   version="1.1"
   inkscape:version="0.48.0 r9654"
   width="800"
   height="600"
   sodipodi:docname="alqaida.svg">
  <metadata
     id="metadata2991">
    <rdf:RDF>
      <cc:Work
         rdf:about="">
        <dc:format>image/svg+xml</dc:format>
        <dc:type
           rdf:resource="http://purl.org/dc/dcmitype/StillImage" />
        <dc:title />
      </cc:Work>
    </rdf:RDF>
  </metadata>
  <defs
     id="defs2989" />
  <sodipodi:namedview
     pagecolor="#ffffff"
     bordercolor="#666666"
     borderopacity="1"
     objecttolerance="10"
     gridtolerance="10"
     guidetolerance="10"
     inkscape:pageopacity="0"
     inkscape:pageshadow="2"
     inkscape:window-width="1280"
     inkscape:window-height="744"
     id="namedview2987"
     showgrid="false"
     inkscape:zoom="0.42868349"
     inkscape:cx="252.02399"
     inkscape:cy="405.11637"
     inkscape:window-x="-4"
     inkscape:window-y="-4"
     inkscape:window-maximized="1"
     inkscape:current-layer="svg2985"
     showguides="true"
     inkscape:guide-bbox="true" />
  <rect
     style="fill:#000000;fill-opacity:1;fill-rule:evenodd;stroke:none"
     id="rect3868"
     width="800"
     height="600"
     x="0"
     y="0" />
  <path
     style="fill:#ffffff;fill-opacity:1;stroke:none"
     d="m 377.32792,532.91942 c -2.38049,-0.16541 -6.5028,-0.71818 -7.79997,-1.05233 -0.8194,-0.21043 -2.37539,-0.57492 -3.45773,-0.80956 -1.08237,-0.23501 -2.51715,-0.6291 -3.18846,-0.87623 -0.67132,-0.24789 -1.80113,-0.59461 -2.51118,-0.77128 -0.70951,-0.1797 -2.78216,-0.91384 -4.60552,-1.63764 -1.82318,-0.72382 -3.59844,-1.40594 -3.94503,-1.5152 -0.34596,-0.11239 -1.5314,-0.65038 -2.6328,-1.19997 -1.1022,-0.55017 -2.59773,-1.24676 -3.32344,-1.54691 -1.55161,-0.64252 -3.45695,-1.64521 -4.672,-2.45828 -0.47604,-0.31887 -1.32612,-0.73978 -1.88946,-0.93523 -1.26459,-0.43825 -1.7325,-0.67249 -2.83417,-1.41682 -0.47597,-0.32227 -1.36176,-0.84258 -1.96798,-1.15682 -2.24609,-1.16259 -7.31399,-4.52652 -9.78315,-6.49374 -0.79072,-0.63024 -1.85341,-1.41198 -2.36159,-1.73708 -1.72186,-1.1002 -6.39685,-5.1155 -8.68223,-7.456 -1.68791,-1.72827 -3.95004,-4.8595 -6.39849,-8.85468 -0.51169,-0.83552 -1.31155,-1.99684 -1.77717,-2.58135 -0.46565,-0.58446 -1.06416,-1.46967 -1.32933,-1.96762 -0.26527,-0.49783 -0.79824,-1.27556 -1.18468,-1.72792 -0.38595,-0.45256 -0.87723,-1.16864 -1.09146,-1.59096 -0.21474,-0.42338 -0.62623,-1.03216 -0.91539,-1.35387 -0.28934,-0.32173 -0.77667,-1.08077 -1.08276,-1.68754 -0.30618,-0.60558 -0.87822,-1.51295 -1.27158,-2.01569 -0.40296,-0.51521 -0.93002,-1.47355 -1.20977,-2.1982 -0.27246,-0.7062 -0.72678,-1.74772 -1.0089,-2.3146 -1.15312,-2.30781 -2.60817,-6.00094 -2.98082,-7.56381 -0.21682,-0.90857 -0.60673,-2.25492 -0.86548,-2.99111 -0.25852,-0.7365 -0.85294,-2.43688 -1.32035,-3.77892 -0.99251,-2.85175 -1.60159,-4.22335 -2.55079,-5.74606 -1.45796,-2.3394 -1.67801,-3.43097 -2.06167,-10.2359 -0.24339,-4.30651 -0.2548,-5.72418 -0.10293,-12.04489 0.26539,-10.87206 0.60115,-12.88168 3.28082,-19.66109 0.21816,-0.55148 0.60542,-1.96909 0.86004,-3.14922 0.25523,-1.18051 0.74151,-3.35137 1.08006,-4.82323 0.7666,-3.32892 1.31905,-6.14216 1.7464,-8.89657 0.18156,-1.16921 0.7456,-3.93225 1.25266,-6.14059 0.50709,-2.20837 0.96718,-4.33429 1.02239,-4.72359 0.0574,-0.38977 0.26804,-1.31109 0.47301,-2.04735 0.20589,-0.73555 0.62609,-2.50733 0.93508,-3.93594 0.90765,-4.20328 1.17176,-5.16973 1.83842,-6.73557 0.70935,-1.66687 0.95293,-2.63706 1.3003,-5.1749 0.28389,-2.07859 2.13647,-7.87208 3.0258,-9.46154 0.39099,-0.69963 0.65947,-1.50892 0.92487,-2.78837 0.31997,-1.54324 0.54387,-2.14055 1.54967,-4.13406 0.64639,-1.28221 1.39001,-2.93829 1.65167,-3.6812 0.54092,-1.53486 1.05752,-2.6347 2.14049,-4.55414 1.86001,-3.29591 3.53187,-6.35465 4.34655,-7.9517 0.48577,-0.95239 1.5966,-2.86555 2.46894,-4.2509 0.87181,-1.38578 1.86998,-3.08657 2.21817,-3.77891 0.34831,-0.69311 0.91308,-1.57854 1.25597,-1.96842 0.34259,-0.38992 0.96131,-1.31065 1.37532,-2.04698 0.4141,-0.73615 1.09003,-1.79881 1.50217,-2.36185 0.41183,-0.56281 1.06506,-1.59008 1.45114,-2.28321 1.81353,-3.25292 4.58326,-7.3332 7.17023,-10.56304 0.68184,-0.85081 2.84007,-2.70717 4.65333,-4.00134 0.54556,-0.38967 1.21804,-0.89867 1.49361,-1.13121 0.27555,-0.2326 1.90072,-1.14929 3.61131,-2.03765 1.71045,-0.88794 3.5209,-1.87963 4.02304,-2.2037 0.50201,-0.32377 1.38757,-0.76832 1.96794,-0.98733 0.58041,-0.21922 2.96841,-1.13895 5.30658,-2.04392 4.05826,-1.57085 6.40187,-2.31915 7.95177,-2.53835 1.08891,-0.15727 9.73501,-2.26673 10.65971,-2.60415 0.7923,-0.29005 5.33473,-1.05076 8.39221,-1.40595 0.82298,-0.0979 2.13389,-0.28299 2.91298,-0.41677 0.77945,-0.13625 2.23225,-0.34248 3.22808,-0.46413 0.99575,-0.12477 2.27099,-0.29375 2.83427,-0.38155 1.26609,-0.1973 24.34082,-0.47403 34.48238,-0.41373 8.06328,0.0508 8.43282,0.0846 10.79809,0.97209 1.10607,0.41616 3.50213,0.98005 6.99459,1.6462 2.37239,0.45273 7.56243,2.06458 11.2581,3.49712 1.47929,0.57339 4.74137,2.23216 5.82557,2.96245 0.34667,0.23313 1.28553,0.75292 2.08656,1.15464 0.80104,0.40191 1.83366,1.07217 2.29467,1.48986 0.46105,0.41724 1.1872,0.9963 1.6136,1.2862 1.16917,0.79564 2.07621,1.52942 3.29655,2.6685 0.60686,0.5664 1.73763,1.52585 2.5128,2.13231 0.77527,0.60589 1.82735,1.61883 2.33791,2.25024 0.51105,0.63144 1.37468,1.60054 1.9197,2.15396 0.54496,0.55292 1.37667,1.48896 1.84796,2.07957 0.47144,0.59053 1.48799,1.75696 2.25925,2.59166 2.22536,2.40758 2.95888,3.28868 3.72063,4.46638 0.39212,0.60549 1.04325,1.46593 1.4472,1.9114 0.83809,0.92476 4.03909,5.5342 5.19921,7.48741 0.42702,0.71923 1.15712,2.04459 1.62222,2.94585 0.46499,0.90125 1.12108,1.95172 1.45761,2.33427 0.33663,0.38232 0.79734,1.17958 1.02351,1.77204 0.22644,0.59252 0.6966,1.47495 1.04525,1.96183 1.65642,2.31316 5.48519,9.92371 6.81683,13.54971 0.50877,1.3859 1.1945,3.05107 1.52411,3.70025 0.32962,0.64987 0.81753,1.99611 1.08436,2.99211 0.26699,0.99561 0.79713,2.63063 1.17854,3.63375 0.38104,1.00304 0.8712,2.52629 1.08915,3.38548 0.21791,0.85909 0.50903,1.88074 0.64714,2.27004 0.14074,0.39017 0.4285,1.54593 0.6449,2.56862 0.49047,2.31755 1.03493,3.86912 2.27522,6.48522 1.03443,2.18192 1.71863,4.47543 1.73245,5.80672 0.89061,23.4584 0.52405,14.53943 0.57388,37.88709 -2.30198,12.58578 4.24773,36.81303 -3.11668,47.78777 -0.6933,1.02057 -0.94161,1.57351 -1.3071,2.91273 -0.58991,2.16205 -1.39319,4.20406 -2.22996,5.66839 -0.37122,0.64976 -0.83205,1.67693 -1.02404,2.28369 -0.1921,0.60559 -0.5607,1.52714 -0.81889,2.04633 -0.78152,1.57268 -3.76626,6.34109 -4.56581,7.2942 -0.41215,0.49145 -0.94369,1.19948 -1.1808,1.5727 -1.70776,2.68967 -4.23422,5.81306 -6.58324,8.13817 -0.87505,0.86628 -1.85768,1.91482 -2.18385,2.33042 -0.3262,0.41453 -0.99324,1.04385 -1.48219,1.39819 -0.48906,0.35384 -1.45562,1.19417 -2.14861,1.86774 -1.83105,1.78036 -6.05894,5.22966 -7.81634,6.37617 -0.83528,0.54509 -2.18448,1.5111 -2.99852,2.14641 -0.81396,0.63505 -2.06663,1.47361 -2.78377,1.86304 -0.7171,0.39032 -2.09549,1.23518 -3.0636,1.8777 -0.96796,0.64325 -2.28041,1.41035 -2.91661,1.70494 -0.63605,0.29388 -1.73397,0.87571 -2.44044,1.29303 -0.7063,0.41726 -2.13425,1.09173 -3.17347,1.49913 -1.03924,0.40738 -3.18874,1.41275 -4.77691,2.2351 -1.58816,0.8222 -3.82,1.87205 -4.95994,2.33393 -1.1398,0.46183 -2.92277,1.1898 -3.96188,1.6173 -1.03914,0.42847 -2.81028,1.04256 -3.93629,1.36588 -2.67232,0.76711 -6.01645,1.83714 -7.40074,2.36795 -1.13392,0.435 -4.99327,1.34176 -8.73849,2.05313 -1.1692,0.22253 -2.8239,0.54737 -3.67712,0.72337 -3.12912,0.64534 -7.23968,0.76109 -26.0818,0.73528 -9.6562,-0.0129 -17.91056,-0.0511 -18.34377,-0.0807 z m 30.90506,-23.82903 c 2.16314,-0.49905 6.05313,-2.21358 10.70537,-4.71933 1.31831,-0.71006 1.55614,-0.78529 2.47185,-0.78529 0.55697,0 2.30963,0.25048 3.89425,0.55695 8.17627,1.58257 11.62404,1.96671 15.11111,1.68151 2.43586,-0.19937 6.81967,-1.04496 8.66918,-1.67283 1.52488,-0.51704 6.41581,-3.07106 7.42654,-3.87668 0.44225,-0.35245 1.19351,-0.91471 1.67003,-1.25041 1.62774,-1.14562 2.79882,-2.41679 3.40899,-3.70233 0.5457,-1.14814 0.56258,-1.23826 0.50016,-2.64299 -0.0579,-1.23569 -0.13605,-1.57983 -0.52226,-2.29163 -0.61482,-1.12622 -2.0924,-2.71108 -3.36686,-3.61111 -0.57387,-0.40552 -1.44682,-1.09368 -1.93975,-1.52945 -0.61053,-0.54015 -1.78877,-1.24332 -3.70007,-2.20959 -2.97926,-1.50528 -3.38664,-1.84568 -3.60476,-3.00813 -0.24019,-1.27983 0.4509,-1.89103 1.983,-1.75206 1.1772,0.10912 2.05924,0.57815 3.34699,1.78941 1.36556,1.2843 2.10284,1.74573 3.6584,2.28952 1.5463,0.54099 3.44064,0.61577 4.32484,0.17251 0.55542,-0.28043 2.60498,-2.59883 3.8919,-4.40247 0.39107,-0.54715 0.94887,-1.56075 1.24026,-2.25116 0.29088,-0.68986 0.77764,-1.64298 1.08128,-2.1173 1.34361,-2.1008 1.91594,-3.76328 2.14182,-6.21964 0.0864,-0.91345 0.19631,-2.02294 0.24939,-2.46638 0.0874,-0.70897 0.0267,-0.96649 -0.49583,-2.12569 -0.84343,-1.87797 -1.31353,-2.51806 -3.25909,-4.43717 -1.62131,-1.59837 -1.83934,-1.75582 -3.66172,-2.63472 -1.06577,-0.51484 -2.34953,-1.04272 -2.85281,-1.17356 -1.94105,-0.50596 -3.88709,-0.15715 -6.10405,1.10229 -1.44721,0.8199 -2.70609,2.00937 -4.66337,4.4049 -1.23374,1.50926 -3.84562,5.56631 -4.18707,6.5027 -0.76976,2.11143 -1.97764,4.11147 -2.77729,4.59777 -0.94155,0.57219 -1.60896,0.55603 -3.59025,-0.0921 -2.92804,-0.95397 -4.5399,-0.78491 -5.90904,0.62056 -1.38803,1.42497 -1.86543,2.95575 -1.51188,4.85156 0.18059,0.96643 1.51791,3.46031 2.5082,4.67623 1.16617,1.43255 4.77594,3.91283 7.67835,5.27677 2.90365,1.36486 3.72819,3.48448 2.02282,5.1995 -0.52484,0.52776 -2.551,1.51889 -3.90033,1.90745 -0.83781,0.24179 -1.22944,0.2493 -4.09381,0.0807 -2.64675,-0.16135 -3.52907,-0.2772 -5.36373,-0.72561 -1.20774,-0.29557 -2.48634,-0.53649 -2.8407,-0.53649 -0.89338,0 -2.35016,-0.40277 -3.27118,-0.90392 -1.14707,-0.62433 -2.16981,-1.83169 -2.70206,-3.18837 -0.61626,-1.57077 -2.24052,-3.91397 -3.7759,-5.4472 -2.2055,-2.20348 -3.6486,-3.09509 -6.62089,-4.0897 -1.51456,-0.50591 -1.7554,-0.54241 -3.64854,-0.54155 -1.11477,0 -2.70012,0.10608 -3.52306,0.22959 -1.84885,0.28321 -6.36406,1.66708 -7.63376,2.34031 -1.4556,0.77154 -2.81131,2.19774 -3.492,3.6729 -0.6166,1.3347 -1.83592,3.22853 -2.43823,3.78708 -0.20619,0.18982 -0.71555,0.49718 -1.13227,0.68114 l -0.75787,0.33549 -0.81473,-0.40281 c -2.22773,-1.10189 -2.99051,-2.15279 -4.12389,-5.68469 -0.54058,-1.68371 -0.90954,-2.52024 -1.56431,-3.54253 -3.11216,-4.86167 -5.18957,-7.02967 -9.37632,-9.78448 -1.42912,-0.94021 -2.972,-1.97537 -3.42911,-2.29976 -0.45717,-0.3249 -1.34296,-0.809 -1.96841,-1.07573 -0.62545,-0.26646 -1.50907,-0.67522 -1.96417,-0.90758 -1.30859,-0.6708 -4.33665,-1.7976 -5.38219,-2.00366 -0.59804,-0.12008 -1.73562,-0.16139 -3.04146,-0.11103 -1.93707,0.0763 -2.2134,0.12738 -3.87097,0.71721 -2.04997,0.73213 -2.43569,0.96636 -4.3061,2.61322 -1.7767,1.56359 -2.20981,2.38612 -2.30521,4.37793 -0.0862,1.73756 0.17983,2.51147 1.20766,3.55995 0.77103,0.78714 2.40687,1.93327 3.7557,2.6337 l 0.80153,0.41524 4.46501,-0.1922 4.46489,-0.19319 1.25965,0.43216 c 3.09613,1.06387 4.56126,2.18212 6.22663,4.75285 1.26949,1.95924 1.58438,2.7978 1.68533,4.48432 0.0687,1.09953 0.0183,1.56957 -0.25165,2.45525 -0.18288,0.60174 -0.47564,1.27632 -0.65022,1.4983 -0.7101,0.90285 -3.14331,1.28007 -5.357,0.8303 -2.69602,-0.54819 -5.81984,-1.74285 -7.64316,-2.92359 -1.50167,-0.97263 -2.57955,-1.28643 -4.16602,-1.2129 -1.62089,0.0773 -2.42268,0.40029 -3.59893,1.46276 -1.63904,1.48106 -2.42998,3.40958 -2.45029,5.97724 -0.02,2.39315 0.22072,2.93321 2.17734,4.90096 1.71551,1.72577 2.77703,2.38566 4.87447,3.0333 1.53419,0.47382 4.78605,0.85457 6.33152,0.74268 2.22518,-0.16509 6.51706,-0.8399 9.12014,-1.43985 1.38554,-0.31964 3.17122,-0.67294 3.96876,-0.7849 1.83105,-0.25645 2.34743,-0.42353 3.90402,-1.25774 0.69256,-0.37176 2.14506,-1.05117 3.22757,-1.50987 1.71234,-0.72499 2.1013,-0.8331 2.9918,-0.82777 0.56285,0.007 1.55479,0.15601 2.2045,0.33288 0.64904,0.1801 1.67663,0.40837 2.28306,0.50811 0.60913,0.1026 1.45404,0.37618 1.88952,0.6166 3.0083,1.66371 3.8263,2.22479 5.42822,3.72704 2.29455,2.15049 6.63298,4.86692 8.66901,5.42686 1.5395,0.42438 3.58697,0.55724 4.68351,0.3035 z m -2.76701,-9.68327 c -2.21509,-0.75488 -3.15067,-1.27332 -4.3083,-2.38963 -2.6576,-2.56226 -2.44613,-3.46555 1.63355,-6.97173 2.03688,-1.75125 2.65878,-2.07575 3.84412,-2.01082 1.61232,0.0918 2.41391,0.85732 3.41469,3.27285 0.30434,0.73382 0.73469,1.75932 0.95648,2.27937 0.52382,1.22817 0.52694,2.14449 0.0101,3.18094 -0.70401,1.4125 -2.83647,3.04451 -3.96409,3.03457 -0.24144,-0.007 -0.95538,-0.18051 -1.5873,-0.39555 z m 52.47918,-29.77583 c -1.9291,-0.45377 -2.81765,-1.54669 -2.2106,-2.7204 0.76458,-1.47886 2.67034,-1.43961 3.71289,0.079 0.85484,1.24196 0.90036,1.92641 0.1624,2.38948 -0.34999,0.21865 -1.23777,0.35508 -1.66143,0.25528 z M 327.69194,450.91776 c 2.32762,-0.27219 3.37744,-0.58922 5.53996,-1.6724 1.82007,-0.9114 3.57188,-2.27798 4.21536,-3.28892 1.1236,-1.7638 2.29725,-4.35907 2.63503,-5.82536 0.18972,-0.82295 0.58442,-2.29161 0.87773,-3.26506 0.60223,-1.99769 0.92691,-3.99577 1.17029,-7.20607 0.39174,-5.16207 0.66849,-8.29589 0.87599,-9.91942 0.26108,-2.04446 0.62302,-15.97865 0.48431,-18.65852 -0.29069,-5.62082 -0.5519,-8.45758 -0.87202,-9.47677 -0.89133,-2.83679 -3.44418,-4.18639 -6.31847,-3.3408 -1.10789,0.32629 -2.56423,1.21072 -3.05747,1.85767 -0.60544,0.79342 -1.59913,3.03461 -2.0628,4.65193 -0.69872,2.43405 -0.47962,4.6795 1.03527,10.6216 0.26251,1.02986 0.65992,3.11961 0.88331,4.64443 0.56544,3.85635 0.48514,7.19497 -0.26778,11.19648 -0.5051,2.68311 -0.51849,2.8685 -0.52653,7.08507 -0.009,4.84271 0.0796,4.43798 -1.3068,6.16193 -0.66601,0.83073 -1.37763,1.44224 -2.93953,2.52844 -3.46476,2.40981 -4.0059,2.54586 -6.43316,1.6193 -2.33545,-0.89123 -2.38746,-0.92663 -3.86554,-2.64884 -1.68439,-1.96222 -2.52779,-3.35553 -3.30853,-5.46727 -0.86236,-2.33162 -1.65934,-3.13833 -3.09922,-3.13833 -1.20301,0 -2.26451,1.06076 -2.61093,2.60704 -0.16091,0.70476 -0.14982,1.11813 0.0642,2.3896 0.1415,0.84556 0.29442,1.85153 0.34566,2.23484 0.0545,0.38358 0.45306,1.87163 0.89314,3.30671 0.43967,1.43508 1.0819,3.56619 1.42789,4.73535 1.18979,4.02403 2.11129,5.53763 4.20974,6.91539 1.58372,1.04001 2.30408,1.23743 5.20226,1.42325 3.00287,0.19312 4.70274,0.17897 6.81147,-0.0746 z m 31.41643,-4.80621 c 1.27441,-0.26099 3.27308,-0.7654 4.44225,-1.12015 1.16917,-0.35485 2.51546,-0.75056 2.99171,-0.87853 0.47615,-0.13027 1.68098,-0.60393 2.67675,-1.05855 0.99587,-0.45467 2.05894,-0.92118 2.36186,-1.0359 1.12606,-0.4284 3.0901,-1.46749 3.70034,-1.95816 0.34604,-0.27833 1.27823,-0.94078 2.07127,-1.47155 1.63354,-1.09419 1.69994,-1.17478 3.00224,-3.65408 0.76029,-1.44771 0.98587,-2.0471 1.12464,-2.99112 0.36628,-2.49374 0.7444,-3.15598 2.22563,-3.89889 1.62653,-0.8151 2.73239,-0.98057 4.80245,-0.71853 2.542,0.32204 6.15252,1.20264 7.99271,1.94905 3.01474,1.22319 4.20691,1.56577 6.25658,1.80056 1.0825,0.12619 2.74757,0.33219 3.70048,0.46267 0.9527,0.13298 2.72395,0.30755 3.93633,0.39383 5.26569,0.37465 7.92505,0.64432 8.65992,0.87769 0.47868,0.15534 1.83687,0.30702 3.46404,0.3938 3.57348,0.19023 6.66759,0.433 8.10913,0.63618 0.64953,0.094 2.9179,0.20749 5.04113,0.25805 4.15114,0.10069 4.9131,0.0219 6.34642,-0.64648 0.44835,-0.20832 1.51556,-0.70366 2.3718,-1.10014 1.49771,-0.69434 3.83739,-2.14898 6.45437,-4.01212 1.00093,-0.71281 1.49815,-1.23065 2.57906,-2.68394 1.92436,-2.58692 3.2234,-5.04214 3.84212,-7.26106 l 0.5029,-1.80271 0.0642,-5.56208 0.0645,-5.56156 -0.5031,-2.15346 c -0.27654,-1.18482 -0.5932,-2.33058 -0.70341,-2.54733 -0.11255,-0.21684 -0.63301,-0.865 -1.16147,-1.44182 -1.08082,-1.1785 -1.7351,-1.48777 -3.49291,-1.65154 -1.78013,-0.16881 -2.44021,0.092 -4.07563,1.57331 -0.98058,0.89016 -1.77672,1.81156 -2.59548,3.00483 -1.00148,1.45942 -1.2756,2.00997 -1.8032,3.62147 -0.89029,2.71864 -0.93971,3.07784 -1.05467,7.67441 -0.0697,2.68989 -0.17538,4.31456 -0.29763,4.6257 -0.33392,0.82425 -1.91026,2.37906 -2.92888,2.88806 -2.87132,1.43511 -5.59727,0.88834 -7.95659,-1.59579 -1.14876,-1.20914 -1.38492,-1.70321 -1.56261,-3.26784 -0.128,-1.10481 0.25342,-3.45961 0.8944,-5.56359 1.21752,-3.99488 0.58873,-7.4597 -1.8035,-9.9383 -1.20023,-1.24271 -1.72504,-1.41547 -3.96375,-1.3015 -2.26898,0.11862 -2.90217,0.38396 -4.35082,1.8447 -2.34426,2.36409 -3.32994,5.23609 -3.25829,9.49558 0.0435,2.48298 -0.0854,3.12706 -0.8139,4.23145 -0.94145,1.42097 -2.34797,2.0247 -4.79502,2.05676 -1.34016,0.0185 -1.70972,-0.0367 -2.41058,-0.34308 -1.56042,-0.68714 -2.34795,-2.17752 -2.19336,-4.15144 0.25357,-3.2417 0.4944,-8.24419 0.49784,-10.34432 0.007,-2.36287 -0.009,-2.46285 -0.4145,-3.1491 -0.49624,-0.83979 -2.31366,-2.45466 -3.20301,-2.8462 -1.10363,-0.48518 -2.42294,-0.66617 -3.46014,-0.47412 -1.52638,0.28197 -2.19169,0.70015 -3.24003,2.03769 -1.33129,1.69821 -1.68962,2.51318 -2.06087,4.68763 -0.50383,2.95112 -0.51876,3.44401 -0.15436,5.13769 0.50538,2.33125 0.40278,3.57636 -0.36891,4.48192 -0.20471,0.24065 -1.33924,0.934 -2.5208,1.53975 l -2.14778,1.10264 -2.86572,0 c -2.81425,0 -2.88212,-0.007 -3.75571,-0.43695 -1.58329,-0.77738 -2.84669,-2.52655 -3.73522,-5.17138 -1.26581,-3.76755 -3.50761,-7.43106 -6.27625,-10.25742 -1.43922,-1.46886 -2.00483,-1.69059 -4.3083,-1.69059 -4.20201,0 -6.87873,1.26728 -11.07468,5.24333 -2.13192,2.02092 -3.59769,3.82804 -4.40968,5.4394 -0.54233,1.07599 -1.03414,2.99487 -1.03161,4.02497 0.007,1.30086 0.56623,3.66117 1.16224,4.87537 0.77258,1.57397 2.39349,4.30905 2.99779,5.05833 0.27936,0.34695 0.92696,1.26513 1.44008,2.042 0.5451,0.82566 1.68468,2.17696 2.7432,3.25269 1.59614,1.62261 1.98055,1.92493 3.24531,2.5542 0.79416,0.39522 1.61991,0.93393 1.85016,1.20754 0.55181,0.65623 0.56369,1.5286 0.0315,2.16333 -0.64349,0.7645 -5.08008,3.15956 -8.7624,4.7296 -0.85534,0.36485 -3.15349,1.90313 -3.88195,2.59779 -0.28195,0.26881 -0.65372,0.86738 -0.82679,1.32995 -0.55782,1.49117 -0.36908,2.57883 0.64868,3.73864 1.14779,1.30711 2.32677,1.44766 5.93135,0.70876 z m 6.6817,-25.74167 c -0.63081,-0.27421 -2.26772,-1.51747 -2.6689,-2.02766 -0.16448,-0.20518 -0.42859,-0.77161 -0.5945,-1.25869 -0.35127,-1.03399 -0.24039,-1.70499 0.55033,-3.33439 0.67902,-1.39892 3.91227,-5.15032 4.81588,-5.58768 0.87608,-0.42378 1.599,-0.3255 2.31721,0.31633 0.44864,0.40061 0.50459,0.54444 0.50453,1.29053 0,0.69361 -0.13553,1.09967 -0.76417,2.33559 -0.93109,1.82282 -1.09035,2.94904 -0.64541,4.56861 0.58671,2.1363 0.42933,3.18676 -0.55307,3.69518 -0.5841,0.30172 -2.26932,0.303 -2.9619,0.007 z m 106.09427,22.67357 c 1.93263,-0.57672 3.30283,-1.28071 5.33499,-2.74032 0.98808,-0.70955 2.08838,-1.46214 2.44524,-1.67113 1.0744,-0.6295 1.86924,-1.40634 2.43603,-2.38032 0.29557,-0.508 0.81388,-1.36055 1.15204,-1.89501 1.09886,-1.73637 1.42542,-2.88013 1.69646,-5.93992 0.15279,-1.69182 0.27807,-2.20166 1.32769,-5.275 0.63918,-1.87048 1.2733,-3.66042 1.40907,-3.97743 0.13863,-0.31703 0.3806,-1.16723 0.54409,-1.88937 0.16648,-0.72228 0.59687,-2.34055 0.9632,-3.59644 0.88337,-3.02654 1.10483,-4.24618 1.21515,-6.69231 0.11521,-2.49584 -0.12672,-3.55457 -1.56333,-6.97417 -1.01394,-2.40991 -1.48882,-3.00701 -2.84053,-3.57145 -0.66819,-0.27921 -2.70696,-0.32225 -3.36804,-0.074 -0.89615,0.34108 -2.08892,1.42811 -3.30241,3.01043 -2.7608,3.60055 -2.87452,3.92075 -3.06433,8.63058 -0.0819,1.94821 -0.24853,4.56133 -0.3769,5.80687 -0.13105,1.24539 -0.23401,2.58518 -0.23401,2.97755 0,1.03215 -0.87937,6.40537 -1.41017,8.61444 -0.24965,1.03931 -0.50006,2.24354 -0.55676,2.67651 -0.14989,1.12664 -0.8418,3.82298 -1.13251,4.39545 -0.13848,0.26726 -1.30439,1.50494 -2.597,2.75163 -2.86828,2.76418 -3.16315,3.24771 -3.17919,5.2136 -0.009,0.95374 0.065,1.47383 0.24482,1.81046 0.27396,0.50542 0.84523,1.08018 1.23066,1.23694 0.43976,0.17967 2.28535,-0.0522 3.62574,-0.45002 z M 353.55245,373.9275 c 1.12586,-0.2026 2.82634,-0.48611 3.77892,-0.63116 2.87371,-0.43663 6.54253,-1.85877 8.38328,-3.24849 0.46258,-0.34896 1.51408,-1.47943 2.33613,-2.51176 0.822,-1.03213 1.65205,-1.96469 1.84338,-2.07249 0.4288,-0.24104 2.15685,-0.2276 3.07645,0.0251 0.37494,0.10463 1.12242,0.48839 1.66189,0.85737 1.42254,0.97405 5.2436,2.22015 8.00888,2.61238 1.93543,0.27448 3.09575,0.36703 9.95994,0.79378 1.38533,0.0885 4.53845,0.158 7.00643,0.15619 l 4.4877,-0.007 2.75522,-0.55583 c 1.51587,-0.30589 3.74766,-0.6558 4.96005,-0.77682 1.21238,-0.12329 2.67561,-0.36646 3.25155,-0.54484 1.82655,-0.56539 3.78554,-2.14503 4.77701,-3.85211 0.81433,-1.40262 1.67383,-3.89863 1.81771,-5.27869 0.2922,-2.79827 0.62978,-8.44607 0.78748,-13.15559 0.15313,-4.49618 0.14042,-5.12335 -0.16059,-7.95069 -0.45636,-4.37287 -0.45317,-12.82785 0.007,-18.5899 0.30974,-3.87682 0.31356,-4.17018 0.0731,-5.39113 -0.55031,-2.76145 -1.72868,-4.31487 -4.17593,-5.50675 -1.60848,-0.78286 -2.69112,-0.92187 -3.94312,-0.50607 -1.43625,0.47695 -2.9406,2.16011 -3.48745,3.90245 -0.77387,2.46573 -1.29187,9.02004 -1.53193,19.39909 -0.15513,6.57312 -0.10834,8.34301 0.29993,11.49391 0.092,0.69296 0.23244,2.90857 0.31833,4.92336 0.20375,4.79316 0.10125,5.29338 -1.40798,6.70302 -1.05858,0.9902 -1.89093,1.35622 -3.09532,1.36056 -1.84647,0.007 -3.98254,-1.46395 -4.9578,-3.41253 l -0.53638,-1.07171 0,-8.02997 c 0,-6.84272 0.0446,-8.39548 0.29133,-10.49807 0.25049,-2.10988 0.26519,-2.65746 0.10519,-3.77892 -0.10676,-0.72137 -0.24938,-3.2597 -0.32277,-5.64123 -0.0762,-2.38166 -0.20167,-4.72001 -0.28584,-5.19615 -0.3974,-2.24803 -1.36834,-3.76196 -2.61372,-4.07557 -1.01876,-0.25672 -2.39068,-0.21662 -3.05383,0.0921 -0.80398,0.37049 -3.492,3.10129 -4.08082,4.14509 -0.5265,0.93409 -2.08307,4.71573 -2.48553,6.03871 -0.28689,0.94343 -0.49975,3.97093 -0.70492,10.02041 -0.18232,5.38193 -0.40376,10.3269 -0.61071,13.63571 -0.18861,3.00967 -0.49199,4.03418 -1.49433,5.04283 -0.84028,0.8463 -2.87581,1.54766 -4.13088,1.42446 -1.64628,-0.16522 -3.08278,-1.15745 -4.04795,-2.80527 -0.51917,-0.88483 -1.1982,-3.67523 -1.91011,-7.84575 -0.47953,-2.81149 -0.57234,-3.75767 -0.62865,-6.41443 -0.0921,-4.24364 -0.29552,-5.31215 -1.48312,-7.68234 -0.52031,-1.03926 -1.1744,-2.40578 -1.45269,-3.03616 -0.75439,-1.70852 -2.21147,-2.85662 -3.63593,-2.86506 -2.24309,-0.0129 -4.25217,1.14917 -5.00023,2.8939 -0.35187,0.8206 -0.89018,3.17647 -1.02575,4.48829 -0.12568,1.19409 -0.71608,2.8531 -1.28681,3.60193 -0.62677,0.82149 -2.15722,1.87674 -4.1126,2.83631 l -1.77362,0.86977 -2.16266,0.12528 c -7.19519,0.40814 -8.9261,0.98673 -11.94064,3.98984 -2.08946,2.08152 -2.68189,3.06347 -3.36317,5.57287 -0.26662,0.98175 -0.58136,1.97377 -0.69954,2.20431 -0.12024,0.23088 -0.51085,1.50122 -0.87318,2.82274 -0.79642,2.90476 -1.04058,4.95359 -0.80386,6.73498 0.20915,1.57009 0.28575,1.83761 1.20985,4.21552 2.13269,5.48988 5.72321,8.76995 10.83493,9.898 3.02933,0.66862 3.81959,0.67502 7.25183,0.0608 z m -0.0819,-12.16099 c -1.63795,-0.27508 -2.77516,-1.03601 -3.78231,-2.53195 -0.42389,-0.62992 -0.812,-1.37358 -0.86204,-1.65327 -0.12495,-0.68159 1.31786,-6.35205 1.95714,-7.70492 0.33313,-0.70426 0.8799,-1.42806 1.7807,-2.35637 1.77695,-1.83189 2.55415,-2.33345 3.87157,-2.50062 0.57775,-0.0763 1.35992,-0.24246 1.73915,-0.37676 1.73413,-0.6156 3.61097,-0.0862 4.73787,1.34208 1.08467,1.37189 1.18927,2.86616 0.40787,5.81389 -0.21842,0.82241 -0.39812,1.82588 -0.39976,2.22958 -0.0101,2.83404 -1.5323,6.05946 -3.36362,7.13291 -0.58128,0.34036 -0.99668,0.42779 -2.64001,0.55541 -1.99634,0.15822 -2.75365,0.16938 -3.44656,0.0524 z m 88.97674,4.78143 c 1.43175,-0.7555 2.12572,-2.2286 2.64706,-5.61688 0.16986,-1.0825 0.59089,-3.11107 0.9434,-4.50774 0.35221,-1.39692 0.74953,-3.26594 0.88284,-4.15389 0.13587,-0.88726 0.26972,-1.65787 0.30302,-1.7122 0.0353,-0.0562 0.36149,-1.47973 0.72918,-3.16779 l 0.66806,-3.06997 -0.0295,-11.25836 c -0.0315,-12.17728 -0.11502,-13.73996 -0.90916,-17.2415 -0.21674,-0.95257 -0.59748,-2.77926 -0.84521,-4.05985 -0.24854,-1.28004 -0.62413,-2.69751 -0.83546,-3.14916 -0.59943,-1.28268 -1.83903,-2.55047 -2.87147,-2.93661 -1.215,-0.45456 -2.54316,-0.43412 -3.4989,0.0573 -1.83136,0.9364 -2.2518,1.93832 -2.78506,6.63685 -0.20874,1.83566 -0.23573,3.37106 -0.16291,8.99671 0.0768,5.44998 0.0485,7.15016 -0.14284,8.65087 -0.12958,1.027 -0.27556,2.39861 -0.32956,3.04819 -0.0568,0.64964 -0.23421,2.24633 -0.40017,3.54889 -0.75621,5.93475 -0.95984,13.73157 -0.4092,15.66048 0.13873,0.47664 0.32229,1.61001 0.4143,2.51939 0.49941,4.93942 0.83755,7.54572 1.1172,8.61323 0.70515,2.69263 1.54676,3.50954 3.61754,3.51059 0.94837,0 1.33921,-0.0776 1.88949,-0.36578 z M 559.7613,217.33202 c -1.09533,-0.39413 -2.23008,-1.12909 -2.91738,-1.88978 -0.88448,-0.97932 -1.09617,-2.22281 -0.63973,-3.7601 0.38464,-1.29462 1.08994,-1.93882 3.31116,-3.02324 2.48386,-1.21306 2.8999,-1.64713 2.89864,-3.02376 0,-1.70573 -0.21034,-2.12167 -2.4071,-4.7968 -0.74724,-0.90955 -1.24506,-2.09487 -1.24506,-2.96436 0,-0.31842 0.22477,-1.01941 0.51694,-1.61322 0.67513,-1.37122 4.47105,-5.29295 6.35483,-6.56513 1.70248,-1.15006 2.66822,-1.39605 5.51993,-1.40658 2.83207,-0.0101 3.99301,0.31019 5.41011,1.49431 1.1215,0.93707 1.52713,1.54296 1.75994,2.62798 0.22502,1.04962 -0.007,1.91421 -0.72407,2.70895 -0.73161,0.80958 -1.7289,1.20723 -3.78281,1.50783 -0.94516,0.14094 -1.97895,0.31968 -2.29732,0.40324 -1.53974,0.40399 -2.17099,2.87633 -1.1832,4.63344 0.54609,0.97107 2.38172,2.06359 5.01613,2.98526 1.8973,0.66385 2.58353,1.17454 3.13004,2.32994 0.55031,1.1633 0.56533,1.41263 0.15279,2.52272 -0.3655,0.97668 -0.76491,1.38992 -2.28247,2.35973 -2.0623,1.31827 -3.26311,1.81886 -8.61724,3.59134 -1.53521,0.50807 -3.14587,1.10373 -3.57904,1.32319 -0.81968,0.41561 -2.47478,0.86739 -3.15565,0.86148 -0.2165,0 -0.77294,-0.14257 -1.23656,-0.30644 z m -154.88046,-0.33961 c -0.72058,-0.2673 -2.53173,-1.50458 -2.97728,-2.03398 -0.77496,-0.92132 -0.91967,-2.28548 -0.39193,-3.69588 0.5288,-1.4143 1.12745,-1.92834 4.5429,-3.90487 1.14194,-0.66096 1.50297,-1.29091 1.50297,-2.6225 0,-1.24057 -0.33827,-1.89132 -1.86878,-3.59823 -2.23364,-2.49167 -2.2097,-4.28106 0.0974,-6.9682 2.81586,-3.28333 5.01197,-5.04817 7.03381,-5.65329 0.57113,-0.17448 1.91697,-0.41078 2.99096,-0.53313 2.16384,-0.24648 2.86981,-0.15445 4.54227,0.61231 0.87644,0.4003 2.45008,1.77528 2.79452,2.44164 0.6641,1.2845 0.40638,2.82996 -0.64792,3.88455 -0.96116,0.96109 -1.74563,1.27191 -3.66432,1.45249 -2.76245,0.25999 -3.66191,0.93965 -3.76956,2.84841 -0.0745,1.26666 0.15545,1.75124 1.2968,2.80647 0.77615,0.71518 1.45951,1.09556 3.03181,1.68709 0.59209,0.22294 1.6677,0.73711 2.39042,1.14264 1.49443,0.83876 2.02111,1.52103 2.17108,2.81331 0.0793,0.65862 0.0147,0.90531 -0.44197,1.78763 -0.4714,0.90828 -0.6899,1.13293 -1.94455,1.99885 -1.14275,0.78911 -2.09119,1.24501 -4.95603,2.3822 -1.94846,0.77381 -3.897,1.49641 -4.33,1.6061 -0.4332,0.11137 -1.60235,0.51922 -2.59812,0.91097 -1.51142,0.59392 -2.01893,0.71986 -3.07035,0.76115 -0.69272,0.0286 -1.47226,-0.0308 -1.73183,-0.12795 z m 58.73611,-32.09886 c -1.46949,-0.25746 -3.05491,-0.57913 -3.52352,-0.71533 -1.30048,-0.37807 -4.03476,-1.85729 -5.28362,-2.85862 -0.61511,-0.49268 -1.50753,-1.20664 -1.98387,-1.58667 -2.72316,-2.17134 -5.62548,-6.84105 -6.30811,-10.14882 -0.25015,-1.21099 -0.30104,-2.13626 -0.30161,-5.4724 0,-6.66984 0.2318,-8.6305 1.45953,-12.28181 0.21805,-0.64927 0.72652,-2.21578 1.12929,-3.48081 1.16556,-3.66109 2.85402,-6.4065 5.33789,-8.67982 1.50297,-1.37546 4.26863,-3.11429 5.68986,-3.57741 0.51946,-0.17258 2.04294,-0.4875 3.38536,-0.70721 2.03121,-0.33273 3.11376,-0.41026 6.45533,-0.46315 7.39253,-0.11881 10.48145,-0.71364 13.04577,-2.52085 1.55512,-1.09565 2.3225,-1.95099 3.00436,-3.34814 0.52089,-1.06737 0.64233,-1.57853 1.50052,-6.31464 0.58465,-3.22627 1.34598,-5.26 2.83843,-7.58263 2.36593,-3.6815 3.83093,-4.33568 6.53107,-2.91682 1.32232,0.69489 2.64456,2.08688 4.47957,4.71513 1.39424,1.99769 1.89016,2.97735 2.6698,5.27487 0.72594,2.13938 0.90395,3.78458 0.95378,8.81753 0.0376,3.58398 0.0966,4.37867 0.54454,7.4005 0.27774,1.86182 0.61063,3.88122 0.74018,4.48732 0.13194,0.60626 0.34271,1.66909 0.47375,2.36186 0.44761,2.36681 1.04684,4.88037 1.34417,5.63963 1.658,4.23288 5.98493,8.11485 9.06591,8.13371 0.82767,0.007 3.68074,-0.53929 4.16919,-0.7957 1.15448,-0.60549 3.19524,-2.17326 3.83838,-2.94888 1.37224,-1.65489 1.7952,-3.02289 2.10221,-6.80079 0.52411,-6.45127 0.65243,-8.22299 0.79189,-10.94334 0.21695,-4.22682 0.44621,-10.8629 0.64739,-18.73708 0.14521,-5.57574 0.22341,-6.97895 0.4588,-7.95157 0.51305,-2.11922 2.36912,-5.10004 5.67213,-9.10947 0.73602,-0.8937 1.63101,-1.990507 1.98874,-2.437616 0.35776,-0.447266 1.26477,-1.233877 2.01563,-1.74798 1.30796,-0.8955 1.40637,-0.934875 2.34137,-0.932726 1.13466,0.0068 1.73701,0.267604 2.44734,1.076569 1.02772,1.170562 1.49475,2.543123 1.84984,5.435933 0.20771,1.69134 0.25029,6.32003 0.30285,32.90808 0.0353,17.01713 0.10687,32.07377 0.16187,33.45949 0.0784,1.95146 0.0459,2.77686 -0.14472,3.66299 -0.47476,2.26773 -1.91942,4.21963 -3.76069,5.08119 -1.75595,0.82169 -3.19903,0.92143 -6.60815,0.45597 -0.58282,-0.0825 -2.46057,-0.25117 -4.17272,-0.38161 -1.71211,-0.13323 -3.75049,-0.30626 -4.52972,-0.39044 -0.77965,-0.0868 -2.2676,-0.22879 -3.3067,-0.32111 -1.0392,-0.0946 -2.42089,-0.27081 -3.07044,-0.39688 -0.64946,-0.12835 -2.16972,-0.37251 -3.37852,-0.5484 -3.09345,-0.44985 -5.77848,-1.26838 -7.38582,-2.25204 -5.30887,-3.24795 -5.1396,-3.17524 -7.10664,-3.0591 -0.77346,0.0479 -1.53465,0.19616 -1.97225,0.39011 -0.8307,0.36811 -2.24095,1.61305 -3.34692,2.95517 -1.80505,2.19017 -3.69438,4.09684 -4.67688,4.71971 -1.43082,0.90736 -4.60477,2.3649 -5.82835,2.67635 -0.5628,0.14616 -1.67754,0.46792 -2.477,0.7215 -1.47599,0.46791 -7.54403,1.64172 -10.98547,2.12525 -1.03908,0.14884 -2.9523,0.29079 -4.25117,0.32203 -2.07428,0.0524 -2.68704,0 -5.03334,-0.41103 z m 19.99151,-15.16247 c 1.31823,-0.36493 2.08736,-0.85302 2.82502,-1.79266 1.09472,-1.39491 2.08125,-3.27008 2.37421,-4.51248 0.14872,-0.6188 0.46462,-1.76263 0.70793,-2.54223 0.78744,-2.51925 1.54086,-5.64566 1.86296,-7.72826 0.78298,-5.06457 0.85788,-5.7235 0.76944,-6.77892 -0.11183,-1.30801 -0.59769,-2.6732 -1.27038,-3.55533 -0.27444,-0.35949 -1.08198,-1.09875 -1.79484,-1.64289 -1.73421,-1.32329 -2.9294,-1.70725 -5.23821,-1.68236 -1.88847,0.0213 -5.00966,0.62215 -6.3885,1.23197 -2.07645,0.91831 -4.36421,2.74283 -6.01287,4.79585 -1.00373,1.24942 -3.26078,4.63015 -4.31546,6.46386 -1.5574,2.70667 -2.04187,5.46583 -1.73972,9.90916 0.15845,2.28229 0.22319,2.66945 0.60746,3.45553 1.04621,2.13982 4.01808,3.96864 6.96017,4.2829 4.43089,0.47321 9.13635,0.51556 10.65279,0.0985 z m -328.76695,14.35731 c -3.55267,-0.44392 -8.17157,-2.64416 -10.84081,-5.16375 -2.18431,-2.06259 -5.34586,-6.42337 -6.55758,-9.04629 -1.43482,-3.10602 -1.84866,-6.19304 -1.40889,-10.51303 0.25061,-2.45735 0.67245,-4.15289 1.63743,-6.57165 0.4802,-1.20465 0.87311,-2.27816 0.87311,-2.38536 0,-0.10913 0.2744,-0.73479 0.60994,-1.39414 0.33502,-0.65957 0.78812,-1.69516 1.00735,-2.30146 0.21847,-0.60616 0.87,-2.02322 1.44839,-3.14911 1.60023,-3.11361 2.71185,-4.4193 5.09091,-5.97803 1.94311,-1.27323 2.98486,-1.79188 5.0164,-2.49848 2.12786,-0.74032 3.53546,-0.89078 9.73686,-1.04015 4.86302,-0.11916 5.31676,-0.15611 7.08306,-0.55908 3.18063,-0.73166 5.36898,-1.85958 6.90939,-3.56233 1.51622,-1.67503 2.24528,-3.58393 2.39772,-6.27993 0.11228,-1.93113 0.27449,-2.66454 1.1148,-4.95975 0.38082,-1.03938 0.80554,-2.20051 0.94401,-2.58064 0.31105,-0.85108 1.75517,-3.00825 2.63076,-3.92776 0.91956,-0.96615 2.01129,-1.49288 3.08957,-1.49054 1.59864,0.007 2.46336,0.58478 4.05165,2.72403 0.483,0.64952 1.17547,1.49981 1.54016,1.88947 0.88934,0.95085 2.67443,4.17106 3.22805,5.82594 0.63399,1.89222 0.76833,3.0822 0.94205,8.34508 0.1796,5.33604 0.21208,5.66487 1.1912,11.13052 0.40045,2.23509 0.83224,4.66613 0.96063,5.40244 0.27061,1.56205 1.05289,4.2139 1.50986,5.11715 1.12866,2.23076 3.76153,5.11695 5.44851,5.97162 2.14496,1.08714 3.81699,1.24949 5.84877,0.56807 2.94585,-0.98831 4.55315,-2.20521 5.89936,-4.46756 1.08538,-1.82349 1.30044,-2.66394 1.57957,-6.166 0.12677,-1.55869 0.29713,-3.68443 0.38494,-4.72375 0.34448,-4.06937 0.66168,-9.65351 0.79707,-14.01334 0.0811,-2.51156 0.21742,-7.04622 0.30962,-10.07731 0.18514,-6.09292 0.33099,-7.79413 0.78137,-9.10311 0.82339,-2.39252 4.0806,-7.1205 7.37176,-10.701073 2.50999,-2.72988 3.36781,-3.151035 5.13041,-2.519067 2.35111,0.842727 3.34178,3.21741 3.72988,8.93968 0.12946,1.87127 0.17226,9.42744 0.14248,25.11414 l -0.0444,22.43732 0.35592,0.90995 c 1.01146,2.58672 6.12416,6.4239 9.19748,6.90247 2.1165,0.32939 4.15564,-0.43298 6.03704,-2.25729 1.93518,-1.87668 3.04336,-3.75401 3.5431,-6.0012 0.55,-2.47247 0.24415,-7.30941 -1.00245,-15.85069 l -0.49407,-3.38508 0.20297,-2.67677 c 0.11378,-1.47217 0.22986,-4.48361 0.2627,-6.69182 0.17547,-11.48828 0.42809,-16.9287 1.1585,-24.641935 0.3548,-3.740906 0.64968,-5.207197 1.4186,-7.053997 0.65153,-1.56627 1.30573,-2.527616 2.16438,-3.183244 0.71917,-0.549202 2.08908,-1.141886 2.98256,-1.289902 0.64311,-0.109238 2.05952,0.340728 3.04565,0.962336 0.42505,0.268211 1.39625,0.869546 2.15724,1.336016 1.55074,0.951255 3.83423,3.073624 4.32581,4.021448 0.49112,0.947441 0.53562,2.1969 0.1564,4.306815 -0.79144,4.370403 -1.28624,24.039153 -0.73679,29.304523 0.69949,6.70681 0.59181,20.42625 -0.22407,28.51601 -0.2581,2.55503 -0.51322,5.42468 -0.56791,6.3772 -0.12308,2.1154 -0.46273,4.25858 -0.87454,5.48191 -0.42311,1.25509 -1.76878,3.57929 -2.62296,4.52924 -0.71711,0.79781 -3.35068,2.64298 -4.39393,3.07903 -1.00319,0.41904 -2.7286,0.65102 -5.64173,0.75917 -3.24295,0.12271 -4.8285,0.34795 -8.27465,1.19019 -1.34681,0.32899 -3.28549,0.68447 -4.30797,0.79 -2.53833,0.26157 -12.11919,0.10947 -19.30208,-0.31203 -8.4541,-0.49294 -9.67424,-0.58998 -11.80908,-0.93766 -1.08257,-0.17964 -2.88958,-0.42908 -4.01533,-0.56156 -4.0419,-0.47558 -5.36813,-0.6927 -6.17456,-1.01057 -1.5387,-0.6067 -3.69381,-1.76635 -5.4518,-2.9345 -2.5357,-1.68501 -3.87662,-1.96436 -6.00858,-1.25266 -1.30433,0.43534 -2.20545,1.12568 -3.45379,2.64547 -3.59634,4.37741 -4.2643,4.93773 -7.91571,6.64026 -2.07686,0.96872 -3.28936,1.36022 -7.99779,2.58376 -2.1228,0.55178 -6.54013,1.24095 -9.2005,1.43576 -2.40747,0.17963 -6.61794,0.16722 -8.11948,-0.0251 z m 18.65897,-14.94512 c 2.29209,-0.36268 3.85306,-1.62581 5.14787,-4.16569 0.94631,-1.85565 1.66276,-3.82433 2.01574,-5.53705 0.14238,-0.67849 0.52888,-2.30082 0.86475,-3.60518 0.33642,-1.30437 0.69091,-3.00483 0.78814,-3.77893 0.0993,-0.77394 0.32195,-2.46774 0.49921,-3.76383 0.18766,-1.37048 0.28102,-2.65527 0.22485,-3.07041 -0.0568,-0.39252 -0.44829,-1.43247 -0.87751,-2.31074 -0.92065,-1.88637 -1.52745,-2.48871 -3.40102,-3.37869 -2.95658,-1.40355 -4.71936,-1.42822 -8.96231,-0.12593 -2.02354,0.62197 -3.66675,1.48414 -4.99304,2.62009 -1.11126,0.95158 -3.02899,3.31235 -4.06512,5.00492 -0.33711,0.55201 -0.89099,1.41391 -1.22906,1.91553 -0.33923,0.50167 -1.0526,1.76249 -1.58573,2.80175 -1.37096,2.67012 -1.4746,3.28147 -1.39653,8.18763 0.0763,4.58982 0.0743,4.58204 1.55687,5.99235 1.23718,1.17363 2.31264,1.7964 4.18684,2.42442 1.29732,0.43462 1.7403,0.49814 4.38279,0.62887 1.61657,0.0831 2.97953,0.18546 3.02781,0.23422 0.15098,0.15106 2.72464,0.0996 3.81545,-0.0788 z m 451.81796,9.92618 c -4.9311,-0.12373 -9.98984,-0.4018 -15.82445,-0.87679 -1.6019,-0.13298 -3.88348,-0.30431 -5.06982,-0.38619 -2.3898,-0.16823 -3.32126,-0.33507 -4.36608,-0.79706 -1.55227,-0.68684 -2.31291,-1.63069 -2.77842,-3.44757 -0.22766,-0.88875 -0.23693,-1.28437 -0.0791,-3.22417 0.15051,-1.77874 0.14423,-2.6058 -0.0331,-4.23066 -0.48972,-4.59854 0.36542,-6.11382 4.46061,-7.90484 2.90357,-1.26992 4.17076,-2.42795 5.32998,-4.87093 0.82191,-1.732 0.9394,-2.40864 1.20238,-6.93339 0.12833,-2.16512 0.33871,-5.4597 0.47335,-7.32155 0.24732,-3.41836 0.37212,-6.7417 0.69498,-18.50108 0.13934,-4.98113 0.25054,-6.94132 0.49842,-8.58137 0.43223,-2.86135 0.70423,-3.43109 3.71228,-7.77936 0.93523,-1.35167 3.62378,-4.535728 4.50411,-5.334197 0.90863,-0.823995 3.2413,-2.159348 3.77215,-2.159483 0.54513,-2.02e-4 1.81494,0.632318 2.53008,1.260225 1.16779,1.025404 1.58503,2.697915 2.00178,8.029535 0.29515,3.77297 0.31223,5.32565 0.28467,25.74398 l -0.0308,21.72873 0.35278,0.91077 c 0.69887,1.80346 2.04581,3.26118 4.7097,5.09627 2.23414,1.53931 2.74152,1.7521 4.4955,1.88633 2.47,0.18901 4.09873,-0.50651 6.31465,-2.69729 1.06789,-1.05574 1.4083,-1.52735 2.10254,-2.91281 1.15229,-2.29952 1.33942,-3.42225 1.21724,-7.30437 -0.0732,-2.21477 -0.2317,-3.8829 -0.63531,-6.53428 -0.69904,-4.59322 -0.8784,-6.31495 -0.87906,-8.44142 0,-3.47884 0.5385,-22.01995 0.71264,-24.48433 0.52945,-7.49395 1.11633,-13.221975 1.51492,-14.784836 0.57993,-2.274277 2.03523,-4.278847 3.78268,-5.210179 0.90492,-0.482456 1.03442,-0.508083 2.21141,-0.439998 1.19139,0.07189 1.36688,0.134268 3.72101,1.329682 1.35894,0.691481 3.23543,1.566754 4.16988,1.944866 1.96037,0.79317 2.75382,1.400997 3.32541,2.54853 0.47585,0.954653 0.54947,2.40345 0.1872,3.679594 -0.41813,1.472063 -0.65028,18.414341 -0.59677,43.529531 0.0551,24.65952 0.0798,23.80898 -0.74414,25.98927 -0.41175,1.09324 -1.79814,2.73044 -3.38907,4.00201 -0.65013,0.51977 -1.71337,1.39045 -2.36245,1.93524 -1.41586,1.18801 -3.15325,2.28213 -4.31135,2.71543 -1.11054,0.41558 -2.45187,0.58641 -6.12453,0.78 -3.171,0.17066 -4.29812,0.34801 -8.86127,1.42078 -3.26901,0.76881 -4.30852,0.82226 -12.20269,0.62738 z m -272.16136,-1.0499 c -2.34378,-0.10451 -6.86772,-0.3964 -9.36843,-0.60886 -1.47252,-0.12764 -3.64794,-0.29632 -4.83509,-0.38056 -4.26115,-0.30141 -5.90297,-1.11168 -6.92231,-3.41708 -0.37896,-0.8559 -0.38263,-0.96167 -0.26745,-7.61194 0.0695,-3.85626 0.10136,-4.24001 0.42434,-5.06174 0.69217,-1.74463 1.86851,-2.65957 5.02299,-3.90602 2.03059,-0.80263 3.53626,-2.31749 4.41988,-4.44596 0.49665,-1.19671 0.50587,-1.26318 1.37431,-9.65362 0.34704,-3.35651 0.52509,-6.9482 0.78435,-15.82416 0.40076,-13.73159 0.50105,-15.88517 0.78932,-16.92638 0.36963,-1.33377 1.22269,-3.11976 2.10593,-4.40883 0.41584,-0.60629 0.956,-1.45647 1.20093,-1.88943 0.41703,-0.73797 0.7315,-1.15993 2.91801,-3.915047 0.4713,-0.59454 1.52283,-1.670378 2.3359,-2.390805 1.62733,-1.441946 2.40278,-1.772494 3.70269,-1.577464 1.41705,0.212501 2.84416,1.619629 3.4446,3.395745 0.53941,1.596741 1.01266,7.185511 0.93296,11.021931 -0.0128,0.6495 -0.0281,8.12465 -0.0315,16.61163 -0.007,8.48683 -0.0642,17.37895 -0.13253,19.76045 -0.13622,4.65208 -0.0875,5.4282 0.42461,6.77743 0.69104,1.82778 3.19054,4.20374 6.08871,5.78835 2.84709,1.55637 4.19311,1.63873 6.68221,0.40875 1.75711,-0.86823 3.28959,-2.29545 4.56928,-4.25589 0.99446,-1.52306 1.38931,-2.80208 1.59876,-5.17577 0.2341,-2.65996 0.0998,-4.6228 -0.72855,-10.45046 -0.3975,-2.80358 -0.73681,-5.74397 -0.75378,-6.53462 -0.0317,-1.40056 0.24591,-13.2396 0.43433,-18.60006 0.25071,-7.14684 0.73036,-13.96514 1.18429,-16.847541 0.0849,-0.519705 0.15286,-1.33434 0.15433,-1.810732 0.009,-3.273525 2.29397,-7.321973 4.6118,-8.16939 1.01586,-0.371453 2.43921,-0.436793 3.2772,-0.153 0.29395,0.103162 1.47495,0.782752 2.6239,1.515802 2.20018,1.403786 3.08385,2.272613 3.69477,3.632873 0.30385,0.675708 0.30828,1.240481 0.28913,35.269988 -0.0131,22.89748 -0.0781,35.08489 -0.18472,36.06809 -0.18592,1.67466 -1.03952,4.81687 -1.61631,5.95045 -0.98717,1.93902 -3.88502,4.3857 -6.1337,5.17909 -1.26792,0.44735 -3.54845,0.71516 -7.19193,0.84466 -3.46563,0.12543 -3.80233,0.16543 -5.31438,0.61279 -0.8877,0.2647 -2.46535,0.66104 -3.506,0.88062 -1.88889,0.39881 -1.90209,0.39922 -9.48602,0.36907 -4.17704,-0.0185 -8.05535,-0.053 -8.61839,-0.0781 z m 214.32968,-2.41247 c -0.55132,-0.25013 -0.74597,-0.4598 -1.05625,-1.13817 -0.49168,-1.0746 -0.78493,-2.39134 -1.09682,-4.92502 -0.14124,-1.12583 -0.38881,-2.89728 -0.55595,-3.93651 -0.87987,-5.46638 -1.09326,-6.85281 -1.18722,-7.71517 -0.0595,-0.51972 -0.30438,-2.43272 -0.55083,-4.25151 -0.56882,-4.19618 -0.7292,-8.29062 -0.48132,-12.28144 0.10463,-1.64538 0.25613,-4.12524 0.34179,-5.51084 0.22361,-3.61317 0.53588,-6.56428 1.29131,-12.20282 l 0.6643,-4.95975 -0.0516,-10.86465 c -0.0516,-10.848817 -0.0509,-10.868977 0.35603,-14.197481 0.49984,-4.11435 0.61166,-4.728127 1.11331,-6.121856 0.45481,-1.26351 1.62625,-2.827462 2.54131,-3.393292 0.87124,-0.5382 2.41464,-0.515532 3.36968,0.05096 0.97594,0.577294 1.8628,1.552185 2.83396,3.115372 1.01997,1.641488 1.56032,2.81466 2.44844,5.315952 0.83476,2.351227 1.06505,3.32073 1.3933,5.863567 0.14243,1.082363 0.42612,2.747508 0.63667,3.700038 0.21031,0.95253 0.4559,2.33252 0.54555,3.06629 0.10485,0.83975 0.16564,7.25951 0.16456,17.32008 0,16.91804 -0.0429,18.01683 -0.77122,22.00877 -0.17392,0.9309 -0.49994,2.75524 -0.73232,4.05414 -0.42588,2.38091 -2.2897,9.97087 -3.00919,12.25445 -0.61377,1.9488 -1.39151,4.89499 -1.85622,7.03402 -1.16773,5.37386 -1.89336,6.88169 -3.70648,7.70234 -0.89106,0.40324 -1.77608,0.4081 -2.64401,0.0146 z m -152.21359,-0.26231 c -1.08693,-0.57211 -1.81917,-1.58344 -2.10993,-2.91379 -0.0854,-0.37555 -0.26142,-1.85171 -0.39889,-3.28069 -0.13976,-1.42909 -0.39038,-3.37745 -0.56238,-4.33003 -1.97225,-10.93018 -2.07836,-11.8527 -2.15867,-18.73737 -0.0731,-5.99294 -0.0839,-5.76048 0.74904,-16.06034 0.35337,-4.38797 0.67034,-7.09431 1.14315,-9.76227 0.48776,-2.75039 0.50064,-2.93899 0.43578,-6.37695 -0.0385,-1.94844 -0.0753,-6.62486 -0.0813,-10.39207 -0.009,-5.594161 0.0443,-7.36868 0.27965,-9.683435 0.57583,-5.610521 1.89704,-9.137024 3.77294,-10.072012 1.08112,-0.538729 1.97085,-0.523294 3.19427,0.0576 0.82215,0.389003 1.10134,0.643298 1.94353,1.77138 1.21337,1.624804 1.44682,2.079281 2.73456,5.332252 1.04345,2.63583 1.41361,3.855713 1.59948,5.274642 0.0596,0.433057 0.239,1.318758 0.40535,1.968243 0.4758,1.86081 1.08457,5.9568 1.24732,8.39679 0.087,1.26564 0.12659,9.04651 0.0934,17.97705 -0.0673,17.48325 0.0147,16.01511 -1.25593,23.14541 -0.79616,4.46598 -0.88645,4.86267 -1.89685,8.34563 -0.37672,1.29906 -0.87492,3.20123 -1.10716,4.22715 -0.23226,1.02585 -0.69733,2.74588 -1.03277,3.82226 -0.33621,1.0764 -0.72038,2.64609 -0.85432,3.48805 -0.50819,3.19084 -1.47388,5.59168 -2.83399,7.0455 -0.91132,0.97397 -2.29453,1.29163 -3.30667,0.75915 z M 300.631,174.98017 c -0.52559,-0.2124 -1.4512,-1.4025 -1.78487,-2.2932 -0.17174,-0.45002 -0.4878,-2.01448 -0.70995,-3.47664 -0.22193,-1.46194 -0.54423,-3.50843 -0.71567,-4.54763 -1.49681,-9.05801 -1.75503,-11.01196 -2.0419,-15.43068 -0.26326,-4.05964 -0.27905,-5.02401 -0.14322,-8.34506 0.31238,-7.46426 0.94652,-13.96522 2.13554,-21.88634 0.21276,-1.418 0.24782,-2.61703 0.19173,-6.613 -0.15353,-10.708 -0.0813,-15.361035 0.29218,-18.917576 0.38525,-3.687986 0.99506,-6.474285 1.70244,-7.773862 0.86981,-1.598164 2.50298,-2.713303 3.94828,-2.695984 1.07056,0.01282 1.74893,0.336679 2.63456,1.257941 1.75528,1.825223 2.88114,3.859931 4.11387,7.433156 1.20358,3.490662 1.16958,3.327795 2.23359,10.619175 l 0.43677,2.99146 0,17.08406 0,17.08377 -0.43005,2.75561 c -0.23673,1.51534 -0.60847,3.95992 -0.82695,5.43212 -0.21808,1.47215 -0.64158,3.52708 -0.94199,4.56625 -0.29962,1.0392 -0.82994,3.05859 -1.17854,4.48756 -0.70526,2.89227 -1.47285,5.66224 -2.2905,8.26628 -0.29896,0.95261 -0.65955,2.33417 -0.8013,3.07037 -0.33227,1.72849 -0.9321,3.79701 -1.32249,4.56247 -0.38781,0.75939 -1.73852,2.15765 -2.28546,2.36553 -0.49522,0.1884 -1.75809,0.1907 -2.219,0.007 z"
     id="path3001"
     inkscape:connector-curvature="0"
     sodipodi:nodetypes="cscccccccccccscccccsccccccccsscscsccccssccccscscscscccccccccscscsccscscccccccscscsccccsccccccccccccccccccscccccsccssscsccccsccccsscccsccccsccscccccccccscccccccscssccsssscssccccccccccsccccccccscccccccccsccccscscccscscsscccccccccccccccsccccccscscscscccccccccccsscccccccccscscccscccccccccccccccscccccccccccccscccsccccscccccssscccscscscccscccccccccccccccsccccsccccsccsccccccsccsssscccccccccccccccccsccscccccccccsssccscccssccsscccsscccccccccsccccscccccccccscscccccccccccccccccccccccsscccccccccccccccscccccccccscccccccccscsssccccscccccccccccccccscccccccccsscscccscccccccccsccssccccscccccccccccccccccccsscccccccccccscscscccscccsscccccccccccsccccscscsssccsccscccccscscccccssscsscccccsscccscccccccscccccccsccccccscccccccccscccsccccccsssccsccccscccsccsccsccccsscccsccccccssccccsccccccccccscscscsccccccccccccccccccccccscsccsccscccccsscccccccsccccccsccccsccccccccacccccccccccssccccccccccscaccc" />
</svg>
