<?xml version="1.0" encoding="UTF-8" standalone="no"?>
<!-- Created with Inkscape (http://www.inkscape.org/) -->
<svg
   xmlns:dc="http://purl.org/dc/elements/1.1/"
   xmlns:cc="http://web.resource.org/cc/"
   xmlns:rdf="http://www.w3.org/1999/02/22-rdf-syntax-ns#"
   xmlns:svg="http://www.w3.org/2000/svg"
   xmlns="http://www.w3.org/2000/svg"
   xmlns:sodipodi="http://inkscape.sourceforge.net/DTD/sodipodi-0.dtd"
   xmlns:inkscape="http://www.inkscape.org/namespaces/inkscape"
   width="1000"
   height="665"
   id="svg2"
   sodipodi:version="0.32"
   inkscape:version="0.43"
   version="1.0"
   sodipodi:docbase="C:\Documents and Settings\nicholas_alphonso\Desktop"
   sodipodi:docname="Jammu-Kashmir-flag.svg">
  <defs
     id="defs4" />
  <sodipodi:namedview
     id="base"
     pagecolor="#ffffff"
     bordercolor="#666666"
     borderopacity="1.0"
     inkscape:pageopacity="0.0"
     inkscape:pageshadow="2"
     inkscape:zoom="1.1313708"
     inkscape:cx="670.99359"
     inkscape:cy="240.35738"
     inkscape:document-units="px"
     inkscape:current-layer="layer4"
     inkscape:showpageshadow="false"
     inkscape:window-width="1024"
     inkscape:window-height="708"
     inkscape:window-x="-4"
     inkscape:window-y="-4" />
  <metadata
     id="metadata7">
    <rdf:RDF>
      <cc:Work
         rdf:about="">
        <dc:format>image/svg+xml</dc:format>
        <dc:type
           rdf:resource="http://purl.org/dc/dcmitype/StillImage" />
        <dc:title>Flag of Jammu and Kashmir</dc:title>
        <dc:date>2006-05-10</dc:date>
        <dc:creator>
          <cc:Agent>
            <dc:title>Nicholas</dc:title>
          </cc:Agent>
        </dc:creator>
        <dc:language></dc:language>
        <dc:subject>
          <rdf:Bag>
            <rdf:li>Flag of Kashmir</rdf:li>
            <rdf:li>Kashmir</rdf:li>
            <rdf:li>flag</rdf:li>
            <rdf:li>Jammu</rdf:li>
          </rdf:Bag>
        </dc:subject>
        <dc:description>Flag of Jammu and Kashmir</dc:description>
        <cc:license
           rdf:resource="http://web.resource.org/cc/PublicDomain" />
      </cc:Work>
      <cc:License
         rdf:about="http://web.resource.org/cc/PublicDomain">
        <cc:permits
           rdf:resource="http://web.resource.org/cc/Reproduction" />
        <cc:permits
           rdf:resource="http://web.resource.org/cc/Distribution" />
        <cc:permits
           rdf:resource="http://web.resource.org/cc/DerivativeWorks" />
      </cc:License>
    </rdf:RDF>
  </metadata>
  <g
     inkscape:groupmode="layer"
     id="layer3"
     inkscape:label="Root"
     sodipodi:insensitive="true"
     style="display:inline">
    <rect
       style="opacity:1;fill:#ff0000;fill-opacity:1;fill-rule:nonzero;stroke:none;stroke-width:2.5;stroke-miterlimit:4;stroke-dasharray:none;stroke-dashoffset:0;stroke-opacity:1"
       id="rect1322"
       width="1000"
       height="665"
       x="0"
       y="0" />
  </g>
  <g
     inkscape:groupmode="layer"
     id="layer4"
     inkscape:label="White"
     style="display:inline">
    <rect
       style="fill:#ffffff;fill-opacity:1;fill-rule:nonzero;stroke:none;stroke-width:2.5;stroke-miterlimit:4;stroke-dasharray:none;stroke-dashoffset:0;stroke-opacity:1"
       id="rect1325"
       width="45.714287"
       height="594.25848"
       x="53.622189"
       y="34.95517" />
    <rect
       y="36.066849"
       x="141.80499"
       height="594.25848"
       width="45.714287"
       id="rect2200"
       style="fill:#ffffff;fill-opacity:1;fill-rule:nonzero;stroke:none;stroke-width:2.5;stroke-miterlimit:4;stroke-dasharray:none;stroke-dashoffset:0;stroke-opacity:1" />
    <rect
       style="fill:#ffffff;fill-opacity:1;fill-rule:nonzero;stroke:none;stroke-width:2.5;stroke-miterlimit:4;stroke-dasharray:none;stroke-dashoffset:0;stroke-opacity:1"
       id="rect2202"
       width="45.714287"
       height="594.25848"
       x="229.168"
       y="35.510998" />
    <path
       style="fill:#ffffff;fill-opacity:1;fill-rule:evenodd;stroke:none;stroke-width:1px;stroke-linecap:butt;stroke-linejoin:miter;stroke-opacity:1"
       d="M 490.77665,451.875 C 490.77665,451.875 477.79024,427.43584 556.25,337.5 C 634.70976,247.56416 698.60273,228.01018 796.25,186.25 C 827.46699,172.89963 856.25,174.375 856.25,174.375 L 872.5,176.25 L 862.5,186.875 L 852.72971,192.01903 C 852.72971,192.01903 763.76047,228.05067 720,262.5 C 678.07555,295.50397 637.42304,336.5185 611.25,391.25 C 584.75699,446.65061 594.375,437.5 588.75,455 C 583.125,472.5 588.75,461.25 588.75,461.25 L 851.375,462 C 851.375,462 865.9089,458.7179 881.375,476.375 C 890.82442,487.16307 896.22933,495.91325 896.46772,509.48223 C 896.70611,522.60927 887.10573,533.22898 873.90165,534.74437 C 873.90165,534.74437 560.51252,535.6275 446.71875,534.6875 C 369.4691,534.04937 377.13691,484.40243 386.71875,472.96875 C 397.64674,459.92876 452.5,461.25 452.5,461.25 C 452.5,461.25 451.875,246.25 453.125,230 C 454.375,213.75 430,219.78994 430,200.3125 C 430,182.79855 437.00506,179.59575 452.5,174.375 C 460.32574,171.73826 466.25,169.53125 477.1875,174.375 C 485.81293,178.19484 487.41581,178.88575 489.6875,186.5625 C 491.95313,194.21875 490.85938,186.64062 492.5,202.5 C 494.14062,218.35938 494.375,272.5 494.375,272.5 L 490.77665,451.875 z "
       id="path2214"
       sodipodi:nodetypes="czsccccszsccszcsscsssssscc" />
  </g>
</svg>
