<?xml version="1.0" encoding="UTF-8"?>
<svg xmlns="http://www.w3.org/2000/svg" xmlns:xlink="http://www.w3.org/1999/xlink"
height="1280" width="1830" viewBox="0 0 1830 1280">
<defs><path id="Loop" style="fill:#ffffff" d="M-265.587,528.153
C-265.585,690.957,-138.988,810.85,-0.0656124,810.848
C138.732,810.847,265.593,691.108,265.589,528.152
C265.589,411.669,203.407,307.799,133.365,215.875
C81.4184,147.697,23.1498,87.3606,-29.7572,41.2172
C-52.7453,89.7143,-81.2826,141.153,-114.641,191.919
C-77.049,227.486,-35.8998,271.569,-0.654494,317.827
C58.3771,395.304,97.2033,481.011,97.2013,528.154
C97.2039,605.216,40.7359,642.463,-0.0650384,642.463
C-40.8658,642.463,-97.199,605.217,-97.1982,528.154
C-97.1987,488.412,-69.5877,421.273,-25.5631,354.751
C-28.3555,350.905,-31.1606,347.111,-34.0578,343.303
C-66.4949,300.732,-105.358,259.223,-140.584,225.597
C-207.591,315.123,-265.588,415.731,-265.587,528.153Z"/></defs>
<rect fill="#0068b2" height="1280" width="1830"/>
<g transform="translate(915,668) scale(0.51,-0.51)"><use xlink:href="#Loop"/>
<use transform="rotate(72)" xlink:href="#Loop"/>
<use transform="rotate(144)" xlink:href="#Loop"/>
<use transform="rotate(216)" xlink:href="#Loop"/>
<use transform="rotate(288)" xlink:href="#Loop"/></g></svg>
