<?xml version="1.0" encoding="UTF-8" standalone="no"?>
<!-- Created with Inkscape (http://www.inkscape.org/) -->
<svg
   xmlns:dc="http://purl.org/dc/elements/1.1/"
   xmlns:cc="http://web.resource.org/cc/"
   xmlns:rdf="http://www.w3.org/1999/02/22-rdf-syntax-ns#"
   xmlns:svg="http://www.w3.org/2000/svg"
   xmlns="http://www.w3.org/2000/svg"
   xmlns:sodipodi="http://sodipodi.sourceforge.net/DTD/sodipodi-0.dtd"
   xmlns:inkscape="http://www.inkscape.org/namespaces/inkscape"
   width="450"
   height="300"
   id="svg2"
   sodipodi:version="0.32"
   inkscape:version="0.44.1"
   version="1.0"
   sodipodi:docbase="D:\program\svg\旗"
   sodipodi:docname="Flag_of_Saitama.svg">
  <defs
     id="defs4" />
  <sodipodi:namedview
     id="base"
     pagecolor="#ffffff"
     bordercolor="#666666"
     borderopacity="1.0"
     gridtolerance="10000"
     guidetolerance="10"
     objecttolerance="10"
     inkscape:pageopacity="0.0"
     inkscape:pageshadow="2"
     inkscape:zoom="0.7"
     inkscape:cx="452.4077"
     inkscape:cy="78.988115"
     inkscape:document-units="px"
     inkscape:current-layer="layer1"
     inkscape:window-width="799"
     inkscape:window-height="571"
     inkscape:window-x="110"
     inkscape:window-y="110" />
  <metadata
     id="metadata7">
    <rdf:RDF>
      <cc:Work
         rdf:about="">
        <dc:format>image/svg+xml</dc:format>
        <dc:type
           rdf:resource="http://purl.org/dc/dcmitype/StillImage" />
      </cc:Work>
    </rdf:RDF>
  </metadata>
  <g
     inkscape:label="Layer 1"
     inkscape:groupmode="layer"
     id="layer1">
    <rect
       style="opacity:1;color:black;fill:white;fill-opacity:1;fill-rule:evenodd;stroke:white;stroke-width:1px;stroke-linecap:butt;stroke-linejoin:miter;marker:none;marker-start:none;marker-mid:none;marker-end:none;stroke-miterlimit:4;stroke-dasharray:none;stroke-dashoffset:0;stroke-opacity:1;visibility:visible;display:inline;overflow:visible"
       id="rect1956"
       width="450"
       height="300"
       x="0"
       y="0" />
    <g
       id="g1909"
       style="fill:#e1273e;fill-opacity:1;stroke:#e1273e;stroke-opacity:1">
      <path
         sodipodi:nodetypes="czzzssc"
         id="path1900"
         d="M 221.034,97.527549 C 210.34972,98.697266 197.29752,88.215699 193.19167,76.503749 C 189.16458,65.016427 194.01004,45.798173 207.33381,45.694097 C 220.40504,45.590021 226.55039,60.052889 220.70038,67.700809 C 214.91565,75.263396 213.17743,74.182327 211.37442,78.228188 C 208.09367,85.590033 216.05394,92.279118 222.08638,95.34937 C 223.02256,95.825843 222.23744,97.424677 221.034,97.527549 z "
         style="fill:#e1273e;fill-rule:evenodd;stroke:#e1273e;stroke-width:1px;stroke-linecap:butt;stroke-linejoin:miter;stroke-opacity:1;fill-opacity:1" />
      <path
         sodipodi:nodetypes="czzzssc"
         id="path1907"
         d="M 236.24205,42.353067 C 246.39602,45.877153 253.69378,60.94254 252.38166,73.283776 C 251.09469,85.38831 238.47743,100.67309 226.39578,95.054609 C 214.54228,89.544398 215.19131,73.843487 223.75537,69.442329 C 232.22386,65.090277 233.33071,66.812197 236.69425,63.930097 C 242.81452,58.68583 238.49093,49.229809 234.35743,43.869685 C 233.71595,43.037839 235.11073,41.930032 236.24205,42.353067 z "
         style="fill:#e1273e;fill-rule:evenodd;stroke:#e1273e;stroke-width:1px;stroke-linecap:butt;stroke-linejoin:miter;stroke-opacity:1;fill-opacity:1" />
    </g>
    <g
       id="g1913"
       transform="matrix(-1,0,0,-1,447.9443,300.2379)"
       style="fill:#e1273e;fill-opacity:1;stroke:#e1273e;stroke-opacity:1">
      <path
         sodipodi:nodetypes="czzzssc"
         id="path1915"
         d="M 221.034,97.527549 C 210.34972,98.697266 197.29752,88.215699 193.19167,76.503749 C 189.16458,65.016427 194.01004,45.798173 207.33381,45.694097 C 220.40504,45.590021 226.55039,60.052889 220.70038,67.700809 C 214.91565,75.263396 213.17743,74.182327 211.37442,78.228188 C 208.09367,85.590033 216.05394,92.279118 222.08638,95.34937 C 223.02256,95.825843 222.23744,97.424677 221.034,97.527549 z "
         style="fill:#e1273e;fill-rule:evenodd;stroke:#e1273e;stroke-width:1px;stroke-linecap:butt;stroke-linejoin:miter;stroke-opacity:1;fill-opacity:1" />
      <path
         sodipodi:nodetypes="czzzssc"
         id="path1917"
         d="M 236.24205,42.353067 C 246.39602,45.877153 253.69378,60.94254 252.38166,73.283776 C 251.09469,85.38831 238.47743,100.67309 226.39578,95.054609 C 214.54228,89.544398 215.19131,73.843487 223.75537,69.442329 C 232.22386,65.090277 233.33071,66.812197 236.69425,63.930097 C 242.81452,58.68583 238.49093,49.229809 234.35743,43.869685 C 233.71595,43.037839 235.11073,41.930032 236.24205,42.353067 z "
         style="fill:#e1273e;fill-rule:evenodd;stroke:#e1273e;stroke-width:1px;stroke-linecap:butt;stroke-linejoin:miter;stroke-opacity:1;fill-opacity:1" />
    </g>
    <g
       id="g1919"
       transform="matrix(0,-1,1,0,72.34511,373.8307)"
       style="fill:#e1273e;fill-opacity:1;stroke:#e1273e;stroke-opacity:1">
      <path
         sodipodi:nodetypes="czzzssc"
         id="path1921"
         d="M 221.034,97.527549 C 210.34972,98.697266 197.29752,88.215699 193.19167,76.503749 C 189.16458,65.016427 194.01004,45.798173 207.33381,45.694097 C 220.40504,45.590021 226.55039,60.052889 220.70038,67.700809 C 214.91565,75.263396 213.17743,74.182327 211.37442,78.228188 C 208.09367,85.590033 216.05394,92.279118 222.08638,95.34937 C 223.02256,95.825843 222.23744,97.424677 221.034,97.527549 z "
         style="fill:#e1273e;fill-rule:evenodd;stroke:#e1273e;stroke-width:1px;stroke-linecap:butt;stroke-linejoin:miter;stroke-opacity:1;fill-opacity:1" />
      <path
         sodipodi:nodetypes="czzzssc"
         id="path1923"
         d="M 236.24205,42.353067 C 246.39602,45.877153 253.69378,60.94254 252.38166,73.283776 C 251.09469,85.38831 238.47743,100.67309 226.39578,95.054609 C 214.54228,89.544398 215.19131,73.843487 223.75537,69.442329 C 232.22386,65.090277 233.33071,66.812197 236.69425,63.930097 C 242.81452,58.68583 238.49093,49.229809 234.35743,43.869685 C 233.71595,43.037839 235.11073,41.930032 236.24205,42.353067 z "
         style="fill:#e1273e;fill-rule:evenodd;stroke:#e1273e;stroke-width:1px;stroke-linecap:butt;stroke-linejoin:miter;stroke-opacity:1;fill-opacity:1" />
    </g>
    <g
       id="g1925"
       transform="matrix(0,1,-1,0,375.8313,-73.9609)"
       style="fill:#e1273e;fill-opacity:1;stroke:#e1273e;stroke-opacity:1">
      <path
         sodipodi:nodetypes="czzzssc"
         id="path1927"
         d="M 221.034,97.527549 C 210.34972,98.697266 197.29752,88.215699 193.19167,76.503749 C 189.16458,65.016427 194.01004,45.798173 207.33381,45.694097 C 220.40504,45.590021 226.55039,60.052889 220.70038,67.700809 C 214.91565,75.263396 213.17743,74.182327 211.37442,78.228188 C 208.09367,85.590033 216.05394,92.279118 222.08638,95.34937 C 223.02256,95.825843 222.23744,97.424677 221.034,97.527549 z "
         style="fill:#e1273e;fill-rule:evenodd;stroke:#e1273e;stroke-width:1px;stroke-linecap:butt;stroke-linejoin:miter;stroke-opacity:1;fill-opacity:1" />
      <path
         sodipodi:nodetypes="czzzssc"
         id="path1929"
         d="M 236.24205,42.353067 C 246.39602,45.877153 253.69378,60.94254 252.38166,73.283776 C 251.09469,85.38831 238.47743,100.67309 226.39578,95.054609 C 214.54228,89.544398 215.19131,73.843487 223.75537,69.442329 C 232.22386,65.090277 233.33071,66.812197 236.69425,63.930097 C 242.81452,58.68583 238.49093,49.229809 234.35743,43.869685 C 233.71595,43.037839 235.11073,41.930032 236.24205,42.353067 z "
         style="fill:#e1273e;fill-rule:evenodd;stroke:#e1273e;stroke-width:1px;stroke-linecap:butt;stroke-linejoin:miter;stroke-opacity:1;fill-opacity:1" />
    </g>
    <g
       id="g1931"
       transform="matrix(0.707107,-0.707107,0.707107,0.707107,-41.14308,202.0816)"
       style="fill:#e1273e;fill-opacity:1;stroke:#e1273e;stroke-opacity:1">
      <path
         sodipodi:nodetypes="czzzssc"
         id="path1933"
         d="M 221.034,97.527549 C 210.34972,98.697266 197.29752,88.215699 193.19167,76.503749 C 189.16458,65.016427 194.01004,45.798173 207.33381,45.694097 C 220.40504,45.590021 226.55039,60.052889 220.70038,67.700809 C 214.91565,75.263396 213.17743,74.182327 211.37442,78.228188 C 208.09367,85.590033 216.05394,92.279118 222.08638,95.34937 C 223.02256,95.825843 222.23744,97.424677 221.034,97.527549 z "
         style="fill:#e1273e;fill-rule:evenodd;stroke:#e1273e;stroke-width:1px;stroke-linecap:butt;stroke-linejoin:miter;stroke-opacity:1;fill-opacity:1" />
      <path
         sodipodi:nodetypes="czzzssc"
         id="path1935"
         d="M 236.24205,42.353067 C 246.39602,45.877153 253.69378,60.94254 252.38166,73.283776 C 251.09469,85.38831 238.47743,100.67309 226.39578,95.054609 C 214.54228,89.544398 215.19131,73.843487 223.75537,69.442329 C 232.22386,65.090277 233.33071,66.812197 236.69425,63.930097 C 242.81452,58.68583 238.49093,49.229809 234.35743,43.869685 C 233.71595,43.037839 235.11073,41.930032 236.24205,42.353067 z "
         style="fill:#e1273e;fill-rule:evenodd;stroke:#e1273e;stroke-width:1px;stroke-linecap:butt;stroke-linejoin:miter;stroke-opacity:1;fill-opacity:1" />
    </g>
    <g
       id="g1937"
       transform="matrix(-0.707107,-0.707107,0.707107,-0.707107,275.6562,414.6731)"
       style="fill:#e1273e;fill-opacity:1;stroke:#e1273e;stroke-opacity:1">
      <path
         sodipodi:nodetypes="czzzssc"
         id="path1939"
         d="M 221.034,97.527549 C 210.34972,98.697266 197.29752,88.215699 193.19167,76.503749 C 189.16458,65.016427 194.01004,45.798173 207.33381,45.694097 C 220.40504,45.590021 226.55039,60.052889 220.70038,67.700809 C 214.91565,75.263396 213.17743,74.182327 211.37442,78.228188 C 208.09367,85.590033 216.05394,92.279118 222.08638,95.34937 C 223.02256,95.825843 222.23744,97.424677 221.034,97.527549 z "
         style="fill:#e1273e;fill-rule:evenodd;stroke:#e1273e;stroke-width:1px;stroke-linecap:butt;stroke-linejoin:miter;stroke-opacity:1;fill-opacity:1" />
      <path
         sodipodi:nodetypes="czzzssc"
         id="path1941"
         d="M 236.24205,42.353067 C 246.39602,45.877153 253.69378,60.94254 252.38166,73.283776 C 251.09469,85.38831 238.47743,100.67309 226.39578,95.054609 C 214.54228,89.544398 215.19131,73.843487 223.75537,69.442329 C 232.22386,65.090277 233.33071,66.812197 236.69425,63.930097 C 242.81452,58.68583 238.49093,49.229809 234.35743,43.869685 C 233.71595,43.037839 235.11073,41.930032 236.24205,42.353067 z "
         style="fill:#e1273e;fill-rule:evenodd;stroke:#e1273e;stroke-width:1px;stroke-linecap:butt;stroke-linejoin:miter;stroke-opacity:1;fill-opacity:1" />
    </g>
    <g
       id="g1943"
       transform="matrix(-0.707107,0.707107,-0.707107,-0.707107,489.763,98.63133)"
       style="fill:#e1273e;fill-opacity:1;stroke:#e1273e;stroke-opacity:1">
      <path
         sodipodi:nodetypes="czzzssc"
         id="path1945"
         d="M 221.034,97.527549 C 210.34972,98.697266 197.29752,88.215699 193.19167,76.503749 C 189.16458,65.016427 194.01004,45.798173 207.33381,45.694097 C 220.40504,45.590021 226.55039,60.052889 220.70038,67.700809 C 214.91565,75.263396 213.17743,74.182327 211.37442,78.228188 C 208.09367,85.590033 216.05394,92.279118 222.08638,95.34937 C 223.02256,95.825843 222.23744,97.424677 221.034,97.527549 z "
         style="fill:#e1273e;fill-rule:evenodd;stroke:#e1273e;stroke-width:1px;stroke-linecap:butt;stroke-linejoin:miter;stroke-opacity:1;fill-opacity:1" />
      <path
         sodipodi:nodetypes="czzzssc"
         id="path1947"
         d="M 236.24205,42.353067 C 246.39602,45.877153 253.69378,60.94254 252.38166,73.283776 C 251.09469,85.38831 238.47743,100.67309 226.39578,95.054609 C 214.54228,89.544398 215.19131,73.843487 223.75537,69.442329 C 232.22386,65.090277 233.33071,66.812197 236.69425,63.930097 C 242.81452,58.68583 238.49093,49.229809 234.35743,43.869685 C 233.71595,43.037839 235.11073,41.930032 236.24205,42.353067 z "
         style="fill:#e1273e;fill-rule:evenodd;stroke:#e1273e;stroke-width:1px;stroke-linecap:butt;stroke-linejoin:miter;stroke-opacity:1;fill-opacity:1" />
    </g>
    <g
       id="g1949"
       transform="matrix(0.707107,0.707107,-0.707107,0.707107,172.4586,-114.4653)"
       style="fill:#e1273e;fill-opacity:1;stroke:#e1273e;stroke-opacity:1">
      <path
         sodipodi:nodetypes="czzzssc"
         id="path1951"
         d="M 221.034,97.527549 C 210.34972,98.697266 197.29752,88.215699 193.19167,76.503749 C 189.16458,65.016427 194.01004,45.798173 207.33381,45.694097 C 220.40504,45.590021 226.55039,60.052889 220.70038,67.700809 C 214.91565,75.263396 213.17743,74.182327 211.37442,78.228188 C 208.09367,85.590033 216.05394,92.279118 222.08638,95.34937 C 223.02256,95.825843 222.23744,97.424677 221.034,97.527549 z "
         style="fill:#e1273e;fill-rule:evenodd;stroke:#e1273e;stroke-width:1px;stroke-linecap:butt;stroke-linejoin:miter;stroke-opacity:1;fill-opacity:1" />
      <path
         sodipodi:nodetypes="czzzssc"
         id="path1953"
         d="M 236.24205,42.353067 C 246.39602,45.877153 253.69378,60.94254 252.38166,73.283776 C 251.09469,85.38831 238.47743,100.67309 226.39578,95.054609 C 214.54228,89.544398 215.19131,73.843487 223.75537,69.442329 C 232.22386,65.090277 233.33071,66.812197 236.69425,63.930097 C 242.81452,58.68583 238.49093,49.229809 234.35743,43.869685 C 233.71595,43.037839 235.11073,41.930032 236.24205,42.353067 z "
         style="fill:#e1273e;fill-rule:evenodd;stroke:#e1273e;stroke-width:1px;stroke-linecap:butt;stroke-linejoin:miter;stroke-opacity:1;fill-opacity:1" />
    </g>
  </g>
</svg>
