<?xml version="1.0" encoding="UTF-8" standalone="no"?>
<svg
   xmlns:dc="http://purl.org/dc/elements/1.1/"
   xmlns:cc="http://creativecommons.org/ns#"
   xmlns:rdf="http://www.w3.org/1999/02/22-rdf-syntax-ns#"
   xmlns:svg="http://www.w3.org/2000/svg"
   xmlns="http://www.w3.org/2000/svg"
   xmlns:xlink="http://www.w3.org/1999/xlink"
   xmlns:sodipodi="http://sodipodi.sourceforge.net/DTD/sodipodi-0.dtd"
   xmlns:inkscape="http://www.inkscape.org/namespaces/inkscape"
   width="2100"
   height="1400"
   viewBox="-120 -80 560 373.33333"
   id="svg2"
   version="1.1"
   inkscape:version="0.48.2 r9819"
   sodipodi:docname="AJAX1.svg">
  <metadata
     id="metadata38">
    <rdf:RDF>
      <cc:Work
         rdf:about="">
        <dc:format>image/svg+xml</dc:format>
        <dc:type
           rdf:resource="http://purl.org/dc/dcmitype/StillImage" />
      </cc:Work>
    </rdf:RDF>
  </metadata>
  <sodipodi:namedview
     pagecolor="#ffffff"
     bordercolor="#666666"
     borderopacity="1"
     objecttolerance="10"
     gridtolerance="10"
     guidetolerance="10"
     inkscape:pageopacity="0"
     inkscape:pageshadow="2"
     inkscape:window-width="1280"
     inkscape:window-height="1004"
     id="namedview36"
     showgrid="false"
     fit-margin-top="0"
     fit-margin-left="0"
     fit-margin-right="0"
     fit-margin-bottom="0"
     inkscape:zoom="0.17888889"
     inkscape:cx="954.2039"
     inkscape:cy="465.47143"
     inkscape:window-x="-8"
     inkscape:window-y="-8"
     inkscape:window-maximized="1"
     inkscape:current-layer="svg2" />
  <defs
     id="defs4">
    <path
       id="spearshape"
       d="M -1,55.425626 H 1 V -38 c 2,-2 2,-5 2,-8 C 3,-48 3,-56 0,-64.66323 -3,-56 -3,-48 -3,-46 c 0,3 0,6 2,8 z"
       stroke-miterlimit="10"
       transform="matrix(0.8660254,0.5,-0.5,0.8660254,0,0)"
       inkscape:connector-curvature="0"
       style="stroke-miterlimit:10" />
    <!-- 32*sqrt(3), -112/sqrt(3)-->
  </defs>
  <path
     id="path3820"
     d="m -120,-80.000002 560,0 0,373.333332 -560,0 z"
     style="fill:#92c5e4;fill-opacity:1;stroke:none"
     inkscape:connector-curvature="0"
     sodipodi:nodetypes="ccccc" />
  <path
     id="path3835"
     d="m -120,-80.000001 240,0 0,160 -240,0 z"
     style="fill:#ffffff;stroke:none"
     inkscape:connector-curvature="0" />
  <path
     id="path3837"
     d="m -120,-80.000001 240,0 0,48 -240,0 z"
     style="stroke:none"
     inkscape:connector-curvature="0" />
  <path
     id="path3839"
     d="m -120,31.999999 240,0 0,48 -240,0 z"
     style="fill:#006600;stroke:none"
     inkscape:connector-curvature="0" />
  <g
     id="g3841">
    <use
       id="use3843"
       xlink:href="#spearshape"
       style="stroke:#000000"
       x="0"
       y="0"
       width="240"
       height="160" />
    <use
       style="fill:#ffffff;stroke:none"
       id="use3845"
       xlink:href="#spearshape"
       x="0"
       y="0"
       width="240"
       height="160" />
  </g>
  <g
     id="use3847"
     style="fill:#ffffff;stroke:none"
     transform="scale(-1,1)">
    <use
       id="use3935"
       xlink:href="#spearshape"
       style="stroke:#000000"
       x="0"
       y="0"
       width="1"
       height="1" />
    <use
       style="fill:#ffffff;stroke:none"
       id="use3937"
       xlink:href="#spearshape"
       x="0"
       y="0"
       width="1"
       height="1" />
  </g>
  <path
     style="fill:#bb0000;stroke:none"
     id="path3849"
     d="m -120,-24.000001 v 48 h 101 c 3,8 13,24 19,24 6,0 16,-16 19,-24 h 101 v -48 H 19 c -3,-8 -13,-24 -19,-24 -6,0 -16,16 -19,24 z"
     inkscape:connector-curvature="0" />
  <path
     style="fill:#000000"
     d="m 19,23.999998 c 3,-8 5,-15.9999985 5,-23.99999833333342 C 24,-8.0000005 22,-16.000002 19,-24.000002 c -3,8 -5,16.0000015 -5,24.00000166666658 C 14,7.9999995 16,15.999998 19,23.999998"
     id="path3851"
     inkscape:connector-curvature="0" />
  <path
     style="fill:#000000"
     d="m -19,23.999998 c -3,-8 -5,-15.9999985 -5,-23.99999833333342 C -24,-8.0000005 -22,-16.000002 -19,-24.000002 c 3,8 5,16.0000015 5,24.00000166666658 C -14,7.9999995 -16,15.999998 -19,23.999998"
     id="use3853"
     inkscape:connector-curvature="0" />
  <g
     id="g3855"
     style="fill:#ffffff">
    <ellipse
       style="stroke:none"
       id="ellipse3857"
       ry="6"
       rx="4"
       cx="0"
       cy="0"
       sodipodi:cx="0"
       sodipodi:cy="0"
       sodipodi:rx="4"
       sodipodi:ry="6"
       d="M 4,0 C 4,3.3137085 2.209139,6 0,6 -2.209139,6 -4,3.3137085 -4,0 c 0,-3.3137085 1.790861,-6 4,-6 2.209139,0 4,2.6862915 4,6 z" />
    <path
       style="fill:#ffffff;stroke:none"
       d="m 1,5.85 c 0,0 4,8 4,21 0,13 -4,21 -4,21 z"
       id="path3859"
       inkscape:connector-curvature="0" />
    <path
       style="fill:#ffffff;stroke:none"
       d="m -1,-5.85 c 0,0 -4,-8 -4,-21 0,-13 4,-21 4,-21 z"
       id="use3861"
       inkscape:connector-curvature="0" />
    <path
       style="fill:#ffffff;stroke:none"
       d="m -1,5.85 c 0,0 -4,8 -4,21 0,13 4,21 4,21 z"
       id="use3863"
       inkscape:connector-curvature="0" />
    <path
       style="fill:#ffffff;stroke:none"
       d="m 1,-5.85 c 0,0 4,-8 4,-21 0,-13 -4,-21 -4,-21 z"
       id="use3865"
       inkscape:connector-curvature="0" />
  </g>
  <path
     inkscape:connector-curvature="0"
     style="fill:#000000;stroke:none"
     d="m 376.31475,106.66663 c 0,53.19313 -43.12157,96.3147 -96.31471,96.3147 -53.19315,0 -96.31471,-43.12157 -96.31471,-96.3147 0,-53.19315 43.12156,-96.31469 96.31471,-96.31469 53.19314,0 96.31471,43.12154 96.31471,96.31469 z"
     id="circle6" />
  <path
     inkscape:connector-curvature="0"
     style="fill:#ffffff;stroke:none"
     d="m 347.42033,106.66663 c 0,37.2352 -30.18508,67.42028 -67.42029,67.42028 -37.2352,0 -67.4203,-30.18508 -67.4203,-67.42028 0,-37.2352 30.1851,-67.42029 67.4203,-67.42029 37.23521,0 67.42029,30.18509 67.42029,67.42029 z"
     id="circle8" />
  <path
     inkscape:connector-curvature="0"
     style="fill:#bb0000;fill-opacity:1;stroke:none"
     d="m 342.60459,106.66663 c 0,34.57555 -28.029,62.60455 -62.60455,62.60455 -34.57555,0 -62.60456,-28.029 -62.60456,-62.60455 0,-34.57555 28.02901,-62.60456 62.60456,-62.60456 34.57555,0 62.60455,28.02901 62.60455,62.60456 z"
     id="circle10" />
  <path
     inkscape:connector-curvature="0"
     style="fill:#ffffff;stroke:none"
     d="m 313.71019,106.66663 c 0,18.6176 -15.09255,33.71015 -33.71015,33.71015 -18.61761,0 -33.71016,-15.09255 -33.71016,-33.71015 0,-18.6176 15.09255,-33.71015 33.71016,-33.71015 18.6176,0 33.71015,15.09255 33.71015,33.71015 z"
     id="circle12" />
  <path
     style="fill:#006600;fill-opacity:1;stroke:none"
     d="m 308.89445,106.66663 c 0,15.95794 -12.93647,28.8944 -28.89441,28.8944 -15.95794,0 -28.89442,-12.93646 -28.89442,-28.8944 0,-15.95794 12.93648,-28.89441 28.89442,-28.89441 15.95794,0 28.89441,12.93647 28.89441,28.89441 z"
     id="circle14"
     inkscape:connector-curvature="0" />
</svg>
