<?xml version="1.0" encoding="UTF-8" standalone="no"?>
<!-- Created with Inkscape (http://www.inkscape.org/) -->

<svg
   xmlns:dc="http://purl.org/dc/elements/1.1/"
   xmlns:cc="http://creativecommons.org/ns#"
   xmlns:rdf="http://www.w3.org/1999/02/22-rdf-syntax-ns#"
   xmlns:svg="http://www.w3.org/2000/svg"
   xmlns="http://www.w3.org/2000/svg"
   xmlns:sodipodi="http://sodipodi.sourceforge.net/DTD/sodipodi-0.dtd"
   xmlns:inkscape="http://www.inkscape.org/namespaces/inkscape"
   width="1200"
   height="600"
   id="svg3024"
   version="1.1"
   inkscape:version="0.48.5 r10040"
   sodipodi:docname="Flag_of_the_Kingdom_of_Sarawak_%281870%29.svg">
  <defs
     id="defs3026" />
  <sodipodi:namedview
     id="base"
     pagecolor="#ffffff"
     bordercolor="#666666"
     borderopacity="1.0"
     inkscape:pageopacity="0.0"
     inkscape:pageshadow="2"
     inkscape:zoom="0.35"
     inkscape:cx="375"
     inkscape:cy="445.01738"
     inkscape:document-units="px"
     inkscape:current-layer="layer1"
     showgrid="false"
     inkscape:window-width="1366"
     inkscape:window-height="705"
     inkscape:window-x="-8"
     inkscape:window-y="-8"
     inkscape:window-maximized="1" />
  <metadata
     id="metadata3029">
    <rdf:RDF>
      <cc:Work
         rdf:about="">
        <dc:format>image/svg+xml</dc:format>
        <dc:type
           rdf:resource="http://purl.org/dc/dcmitype/StillImage" />
        <dc:title></dc:title>
      </cc:Work>
    </rdf:RDF>
  </metadata>
  <g
     inkscape:label="Layer 1"
     inkscape:groupmode="layer"
     id="layer1">
    <rect
       style="fill:#fcd116;fill-opacity:1;stroke:none"
       id="rect2308"
       width="1200"
       height="600"
       x="4.0209966e-007"
       y="-1.7382812e-005" />
    <path
       inkscape:connector-curvature="0"
       style="fill:#000000;fill-opacity:1;fill-rule:evenodd;stroke:none"
       d="M 600,-1e-5 600,600 l -75,0 0,-225.00001 -525,0 L 0,225 525,224.99999 525,0 600,-1e-5 z"
       id="path4250"
       sodipodi:nodetypes="ccccccccc" />
    <path
       inkscape:connector-curvature="0"
       style="fill:#ce1126;fill-opacity:1;fill-rule:evenodd;stroke:none"
       d="M 600,-1e-5 600,600 l 75,0 0,-225.00001 525,0 0,-150 -525,0 0,-225 -75,0 z"
       id="path3279"
       sodipodi:nodetypes="ccccccccc" />
    <g
       id="g9254"
       transform="matrix(2.768055,0,0,2.8151043,-720.95848,668.2969)">
      <path
         inkscape:connector-curvature="0"
         id="path9256"
         d="m 455.9375,-125.3125 -3.3125,-22 11,18.5625 0.4375,-0.125 0.0625,-23.25 8.0625,21.3125 0.9375,-2.1875 4.1875,-20.8125 4.4375,23.4375 0.75,-0.125 8.375,-22.4375 0.0625,23.625 0.6875,0 11.25,-19.375 -4.125,23.25 -0.375,14.875 -1.375,2.125 -3.0625,1.375 -3.5,1.1875 -5.5625,0.9375 -6.1875,0.125 -6.5,-0.0625 -5.875,-0.75 -4.9375,-1 -3,-1.125 -1.75,-1.375 -1.0625,-1.4375 0.25,-6.1875 0.25,-6.5625 -0.125,-2 z"
         style="fill:#fcd116;fill-opacity:1;fill-rule:evenodd;stroke:none" />
      <g
         id="g9258">
        <path
           inkscape:connector-curvature="0"
           style="fill:none;stroke:#000000;stroke-width:1px;stroke-linecap:butt;stroke-linejoin:miter;stroke-opacity:1"
           d="m 472.7656,-130.76418 4.5,-24.4375 4.5,24.6875 -9,-0.25 z"
           id="path9260"
           sodipodi:nodetypes="cccc" />
        <path
           inkscape:connector-curvature="0"
           style="fill:none;stroke:#000000;stroke-width:1px;stroke-linecap:butt;stroke-linejoin:miter;stroke-opacity:1"
           d="m 482.3906,-130.46685 8.75,-23.85983 -0.125,25.02903 -8.625,-1.1692 z"
           id="path9262"
           sodipodi:nodetypes="cccc" />
        <path
           inkscape:connector-curvature="0"
           style="fill:none;stroke:#000000;stroke-width:1px;stroke-linecap:butt;stroke-linejoin:miter;stroke-opacity:1"
           d="m 491.5156,-129.07668 11.875,-20.875 -4.53125,24.5 -7.34375,-3.625 z"
           id="path9264"
           sodipodi:nodetypes="cccc" />
        <path
           inkscape:connector-curvature="0"
           style="fill:none;stroke:#000000;stroke-width:1px;stroke-linecap:butt;stroke-linejoin:miter;stroke-opacity:1"
           d="m 472.2656,-130.70168 -8.5,-23.25 0.25,25.25 8.25,-2 z"
           id="path9266" />
        <path
           inkscape:connector-curvature="0"
           style="fill:none;stroke:#000000;stroke-width:1px;stroke-linecap:butt;stroke-linejoin:miter;stroke-opacity:1"
           d="m 463.3906,-128.57668 -11.375,-20.625 3.88258,24.02903 7.49242,-3.40403 z"
           id="path9268"
           sodipodi:nodetypes="cccc" />
        <path
           inkscape:connector-curvature="0"
           style="fill:none;stroke:#000000;stroke-width:1px;stroke-linecap:butt;stroke-linejoin:miter;stroke-opacity:1"
           d="m 456.0156,-125.01418 0.002,-0.11311 -0.25203,14.05061"
           id="path9270"
           sodipodi:nodetypes="ccc" />
        <path
           inkscape:connector-curvature="0"
           style="fill:none;stroke:#000000;stroke-width:1.00874507px;stroke-linecap:butt;stroke-linejoin:miter;stroke-opacity:1"
           d="m 498.82373,-125.19731 -0.42876,14.73118"
           id="path9272" />
        <path
           sodipodi:type="arc"
           style="fill:none;stroke:#000000;stroke-width:1;stroke-linecap:round;stroke-linejoin:round;stroke-miterlimit:4;stroke-opacity:1;stroke-dasharray:none"
           id="path9274"
           sodipodi:cx="211.75"
           sodipodi:cy="114.46875"
           sodipodi:rx="2.1875"
           sodipodi:ry="2.84375"
           d="m 213.9375,114.46875 a 2.1875,2.84375 0 1 1 -4.375,0 2.1875,2.84375 0 1 1 4.375,0 z"
           transform="translate(260.1406,-238.13918)" />
        <path
           sodipodi:type="arc"
           style="fill:none;stroke:#000000;stroke-width:1;stroke-linecap:round;stroke-linejoin:round;stroke-miterlimit:4;stroke-opacity:1;stroke-dasharray:none"
           id="path9276"
           sodipodi:cx="211.75"
           sodipodi:cy="114.46875"
           sodipodi:rx="2.1875"
           sodipodi:ry="2.84375"
           d="m 213.9375,114.46875 a 2.1875,2.84375 0 1 1 -4.375,0 2.1875,2.84375 0 1 1 4.375,0 z"
           transform="translate(272.2656,-238.17043)" />
        <path
           sodipodi:type="arc"
           style="fill:none;stroke:#000000;stroke-width:1;stroke-linecap:round;stroke-linejoin:round;stroke-miterlimit:4;stroke-opacity:1;stroke-dasharray:none"
           id="path9278"
           sodipodi:cx="211.75"
           sodipodi:cy="114.46875"
           sodipodi:rx="2.1875"
           sodipodi:ry="2.84375"
           d="m 213.9375,114.46875 a 2.1875,2.84375 0 1 1 -4.375,0 2.1875,2.84375 0 1 1 4.375,0 z"
           transform="matrix(0.8200042,0,0,1.0153879,321.4422,-236.49436)" />
        <path
           sodipodi:type="arc"
           style="fill:none;stroke:#000000;stroke-width:1;stroke-linecap:round;stroke-linejoin:round;stroke-miterlimit:4;stroke-opacity:1;stroke-dasharray:none"
           id="path9280"
           sodipodi:cx="211.75"
           sodipodi:cy="114.46875"
           sodipodi:rx="2.1875"
           sodipodi:ry="2.84375"
           d="m 213.9375,114.46875 a 2.1875,2.84375 0 1 1 -4.375,0 2.1875,2.84375 0 1 1 4.375,0 z"
           transform="matrix(0.8200042,0,0,1.0153879,286.25471,-236.68186)" />
        <path
           inkscape:connector-curvature="0"
           style="fill:none;stroke:#000000;stroke-width:1px;stroke-linecap:butt;stroke-linejoin:miter;stroke-opacity:1"
           d="m 456.2656,-123.38918 5,-2.5625 3.9375,-1.75 6.3125,-1.3125 5.8125,-0.375 7,0.6875 6.25,0.8125 3.8125,1.625 4.3125,2.3125"
           id="path9282"
           sodipodi:nodetypes="ccccccccc" />
        <path
           inkscape:connector-curvature="0"
           style="fill:none;stroke:#000000;stroke-width:1px;stroke-linecap:butt;stroke-linejoin:miter;stroke-opacity:1"
           d="m 464.1406,-121.51418 1.3125,-2.25 2.1875,1.5"
           id="path9284" />
        <path
           inkscape:connector-curvature="0"
           style="fill:none;stroke:#000000;stroke-width:1px;stroke-linecap:butt;stroke-linejoin:miter;stroke-opacity:1"
           d="m 475.8906,-123.20168 2.0625,-1.8125 1.875,1.9375"
           id="path9286" />
        <path
           inkscape:connector-curvature="0"
           style="fill:none;stroke:#000000;stroke-width:1px;stroke-linecap:butt;stroke-linejoin:miter;stroke-opacity:1"
           d="m 488.7031,-122.07668 1.625,-1.3125 1.25,2.375"
           id="path9288" />
        <path
           sodipodi:type="arc"
           style="fill:none;stroke:#000000;stroke-width:1;stroke-linecap:round;stroke-linejoin:round;stroke-miterlimit:4;stroke-opacity:1;stroke-dasharray:none"
           id="path9290"
           sodipodi:cx="476.67834"
           sodipodi:cy="-112.23013"
           sodipodi:rx="21.301592"
           sodipodi:ry="6.1429901"
           d="m 497.97994,-112.23013 a 21.301592,6.1429901 0 1 1 -42.60319,0 21.301592,6.1429901 0 1 1 42.60319,0 z"
           transform="translate(0.403883,1.4016504)" />
        <path
           sodipodi:type="arc"
           style="fill:none;stroke:#000000;stroke-width:1;stroke-linecap:round;stroke-linejoin:round;stroke-miterlimit:4;stroke-opacity:1;stroke-dasharray:none"
           id="path9292"
           sodipodi:cx="476.67834"
           sodipodi:cy="-112.23013"
           sodipodi:rx="21.301592"
           sodipodi:ry="6.1429901"
           d="m 497.97994,-112.23013 a 21.301592,6.1429901 0 1 1 -42.60319,0 21.301592,6.1429901 0 1 1 42.60319,0 z"
           transform="matrix(0.9202236,0,0,0.8096964,38.292841,-19.811001)" />
      </g>
    </g>
  </g>
</svg>
