<?xml version="1.0" encoding="UTF-8" standalone="no"?>
<svg xmlns="http://www.w3.org/2000/svg" version="1.0" width="900" height="600" viewBox="0 0 250 250">
<g>
	<rect x="-62.5" height="250" width="375" fill="#d70000" />
	<g transform="translate(0.291665, 2.70834)">
		<g transform="matrix(1.15795, 0, 0, 1.1574, 422.516, 266.784)">
			<rect fill="#fff" width="86" height="4" x="-300.29401" y="-52.341999" />
			<rect fill="#fff" width="76" height="4" x="-295.29401" y="-57.341999" />
			<rect fill="#fff" width="66" height="4" x="-290.29401" y="-62.341999" />
			<rect fill="#fff" width="56" height="4" x="-285.29401" y="-67.342003" />
			<rect fill="#fff" width="46" height="4" x="-280.29401" y="-72.342003" />

			<rect fill="#fff" width="60" height="4" x="-287.29501" y="-163.343" />
			<rect fill="#fff" width="52" height="4" x="-283.29501" y="-168.343" />
			<rect fill="#fff" width="44" height="4" x="-279.29501" y="-173.343" />
			<rect fill="#fff" width="36" height="4" x="-275.29501" y="-178.343" />
			<rect fill="#fff" width="28" height="4" x="-271.29501" y="-183.343" />
			<rect fill="#fff" width="20" height="4" x="-267.29501" y="-188.343" />
			<rect fill="#fff" width="12" height="4" x="-263.29501" y="-193.343" />
			<rect fill="#fff" width="4"  height="4" x="-259.29501" y="-198.343" />
			<rect fill="#fff" width="2"  height="2" x="-258.29501" y="-201.343" />
			<rect fill="#fff" width="8"  height="2" x="-261.29501" y="-158.343" />
			<rect fill="#fff" width="2"  height="2" x="-258.29501" y="-155.343" />
		</g>
		<g transform="matrix(0.416667, 0, 0, 0.416667, -511.953, -94.1391)">
			<g transform="matrix(2.88791, 0, 0, 2.89089, 926.599, 188.783)">
				<g transform="translate(86.659, 3.76234)">
					<path fill="#d70000" d="M 122.77,145.023 C 123.038,146.746 123.381,148.493 123.85,150.282 C 123.791,150.829 123.824,151.382 123.853,151.936 C 123.884,152.486 123.916,153.038 123.856,153.548 C 123.588,154.686 123.406,155.827 123.286,156.969 C 123.165,158.117 123.107,158.60064 123.09,159.73864 L 138.03948,159.73822 C 137.79448,157.97422 137.466,157.152 136.9,156.021 C 136.342,154.909 135.631,154.094 134.764,153.582 L 134.04,150.109 C 134.219,149.076 134.37,148.022 134.519,146.969 C 134.819,144.859 135.12,142.749 135.69,140.651 C 136.017,139.447 136.469,138.38 136.947,137.251 C 137.726,135.41 138.574,133.408 139.081,130.404 C 139.427,128.347 139.476,125.88 139.528,123.225 C 139.597,119.688 139.674,115.813 140.468,112.185 C 141.093,112.415 141.828,112.616 142.657,112.791 C 143.566,112.984 144.588,113.148 145.702,113.288 C 145.922,113.891 146.029,114.477 146.057,115.064 C 146.089,115.705 146.028,116.346 145.921,117.007 L 145.871,117.324 L 146.188,117.298 C 146.964,117.237 147.863,116.88 148.511,116.155 C 148.603,116.051 148.692,115.939 148.774,115.819 C 148.971,116.715 149.339,117.254 149.793,117.92 C 150.115,118.393 150.483,118.933 150.865,119.732 C 151.059,120.521 150.436,121.93 149.7,123.6 C 148.725,125.808 147.558,128.451 147.747,130.913 L 147.748,130.924 L 147.748,130.926 C 147.96,133.631 148.84,135.914 149.555,137.774 C 149.983,138.881 150.35,139.835 150.473,140.618 L 150.473,140.621 C 150.477,140.64 150.472,140.614 150.474,140.624 L 150.475,140.626 C 150.598,141.412 150.546,142.07 150.38,142.533 C 150.295,142.768 150.183,142.946 150.052,143.056 C 149.943,143.149 149.817,143.193 149.684,143.176 C 149.562,143.161 149.424,143.099 149.279,142.983 C 148.59,142.431 148.635,141.212 148.683,139.965 C 148.698,139.583 148.712,139.196 148.705,138.818 C 148.705,138.818 148.705,138.818 148.705,138.816 L 148.705,138.816 C 148.704,138.795 148.704,138.782 148.704,138.766 L 148.697,138.401 L 148.359,138.54 C 147.286,138.974 146.213,139.536 145.141,140.225 L 145.013,140.307 L 145.025,140.454 C 145.113,141.578 145.592,142.91 146.329,144.005 C 146.838,144.762 147.471,145.408 148.184,145.8 C 148.919,146.205 149.739,146.34 150.593,146.056 C 151.183,145.86 151.785,145.463 152.383,144.814 C 154.293,142.743 153.829,140.15 153.328,137.344 C 152.925,135.085 152.495,132.684 153.316,130.369 C 153.918,128.669 154.882,127.107 155.923,125.593 C 157.864,126.545 160.167,126.76 162.882,126.138 L 163.861,125.915 L 162.891,125.65 C 160.752,125.068 159.036,124.216 157.62,123.177 C 157.765,122.968 157.909,122.756 158.052,122.546 C 159.847,123.242 161.932,123.35 164.341,122.797 L 165.318,122.574 L 164.35,122.31 C 162.426,121.787 160.844,121.044 159.516,120.145 C 160.209,118.824 160.714,117.448 160.86,115.951 C 161.364,110.737 159.115,108.218 157.025,105.875 C 156.971,105.813 156.916,105.753 156.862,105.692 C 156.637,103.452 156.417,101.624 155.795,99.942 C 155.167,98.241 154.135,96.701 152.293,95.062 C 150.493,90.851 148.229,88.033 145.447,86.752 C 142.678,85.477 139.42,85.73 135.63,87.653 C 134.604,86.81 133.567,86.253 132.522,86.141 C 131.497,86.034 130.477,86.352 129.464,87.243 C 129.464,87.243 125.44837,84.5527 121.50512,84.54995 C 117.56187,84.5472 113.691,87.232 113.691,87.232 C 112.682,86.348 111.666,86.033 110.645,86.14 C 109.599,86.252 108.565,86.809 107.537,87.652 C 103.746,85.729 100.489,85.476 97.72,86.751 C 94.939,88.031 92.674,90.85 90.875,95.061 C 89.032,96.701 88,98.24 87.373,99.941 C 86.751,101.623 86.531,103.451 86.306,105.691 C 86.252,105.753 86.197,105.813 86.142,105.874 C 84.053,108.216 81.804,110.736 82.308,115.95 C 82.452,117.448 82.958,118.824 83.652,120.144 C 82.323,121.043 80.74,121.786 78.818,122.309 L 77.85,122.573 L 78.828,122.796 C 81.236,123.348 83.321,123.241 85.116,122.545 C 85.258,122.754 85.402,122.966 85.548,123.176 C 84.131,124.216 82.415,125.067 80.275,125.649 L 79.307,125.914 L 80.286,126.137 C 83,126.759 85.304,126.544 87.245,125.592 C 88.285,127.107 89.25,128.668 89.852,130.368 C 90.673,132.682 90.244,135.084 89.84,137.343 C 89.338,140.149 88.875,142.741 90.785,144.813 C 91.383,145.462 91.986,145.859 92.575,146.055 C 93.43,146.339 94.249,146.204 94.985,145.799 C 95.698,145.407 96.331,144.761 96.84,144.004 C 97.575,142.909 98.055,141.577 98.143,140.453 L 98.154,140.306 L 98.027,140.224 C 96.954,139.536 95.882,138.973 94.81,138.539 L 94.472,138.4 L 94.465,138.765 C 94.465,138.781 94.465,138.794 94.464,138.815 L 94.464,138.815 C 94.464,138.817 94.464,138.817 94.464,138.817 C 94.458,139.196 94.472,139.583 94.487,139.964 C 94.534,141.21 94.58,142.43 93.891,142.982 C 93.745,143.098 93.608,143.161 93.485,143.175 C 93.352,143.192 93.225,143.148 93.116,143.055 C 92.986,142.945 92.874,142.767 92.789,142.532 C 92.623,142.069 92.571,141.411 92.695,140.625 L 92.695,140.623 C 92.697,140.613 92.693,140.639 92.695,140.62 L 92.695,140.617 C 92.82,139.834 93.187,138.881 93.613,137.773 C 94.33,135.914 95.209,133.63 95.421,130.925 L 95.421,130.923 L 95.422,130.912 C 95.61,128.45 94.443,125.808 93.469,123.599 C 92.732,121.93 92.11,120.52 92.303,119.731 C 92.684,118.933 93.053,118.392 93.376,117.919 C 93.83,117.253 94.197,116.715 94.395,115.818 C 94.477,115.939 94.565,116.051 94.658,116.154 C 95.306,116.879 96.204,117.236 96.981,117.297 L 97.299,117.323 L 97.248,117.006 C 97.142,116.344 97.082,115.704 97.113,115.063 C 97.141,114.476 97.248,113.89 97.468,113.287 C 98.583,113.148 99.605,112.983 100.512,112.79 C 101.341,112.614 102.076,112.414 102.702,112.184 C 103.496,115.812 103.573,119.686 103.643,123.224 C 103.695,125.879 103.744,128.347 104.09,130.403 C 104.596,133.407 105.444,135.409 106.223,137.25 C 106.701,138.379 107.152,139.446 107.479,140.65 C 108.049,142.749 108.35,144.858 108.651,146.968 C 108.8,148.021 108.952,149.074 109.13,150.108 L 108.406,153.581 C 107.539,154.094 106.826,154.908 106.271,156.02 C 105.705,157.151 105.42074,157.97573 105.17374,159.73973 L 120.0249,159.7356 C 120.0069,158.5976 120.005,158.117 119.883,156.968 C 119.764,155.826 119.581,154.685 119.313,153.547 C 119.254,153.036 119.285,152.484 119.315,151.935 C 119.346,151.38 119.378,150.828 119.32,150.281 C 119.744,148.666 120.064,147.085 120.319,145.526 C 120.798,145.555 121.271,145.516 121.723,145.409 C 122.089,145.324 122.442,145.193 122.77,145.023 L 122.77,145.023 z"/>
					<path fill="#ffffff" d="M 159.348,120.589 C 160.48,121.347 161.786,121.996 163.318,122.499 C 161.471,122.787 159.84,122.646 158.41,122.116 C 158.742,121.611 159.058,121.104 159.348,120.589 L 159.348,120.589 z M 153.234,119.026 C 154.225,120.574 155.399,122.008 156.921,123.221 C 158.261,124.289 159.869,125.185 161.859,125.838 C 159.635,126.185 157.728,125.91 156.101,125.085 C 154.248,124.144 152.75,122.484 151.555,120.206 C 151.614,119.656 151.801,119.325 152.082,119.156 C 152.366,118.985 152.764,118.958 153.234,119.026 L 153.234,119.026 z M 83.77,120.589 C 82.639,121.347 81.332,121.996 79.8,122.499 C 81.647,122.787 83.278,122.646 84.709,122.116 C 84.376,121.611 84.059,121.104 83.77,120.589 L 83.77,120.589 z M 89.883,119.026 C 88.892,120.574 87.718,122.008 86.198,123.221 C 84.858,124.289 83.25,125.185 81.26,125.838 C 83.484,126.185 85.391,125.91 87.018,125.085 C 88.869,124.144 90.369,122.484 91.563,120.206 C 91.506,119.656 91.317,119.325 91.037,119.156 C 90.751,118.985 90.353,118.958 89.883,119.026 L 89.883,119.026 z M 121.558,134.545 L 121.56,134.563 C 121.691,135.721 121.801,136.841 121.912,137.959 C 121.917,138.003 121.922,138.048 121.926,138.094 C 121.67,138.083 121.421,138.105 121.187,138.156 C 121.193,138.091 121.201,138.025 121.207,137.96 C 121.317,136.842 121.428,135.722 121.558,134.564 L 121.558,134.545 L 121.558,134.545 z M 122.666,144.486 C 122.666,144.489 122.666,144.493 122.667,144.495 C 122.334,144.687 121.968,144.83 121.582,144.921 C 121.246,145 120.896,145.038 120.543,145.033 C 120.543,145.035 120.543,145.035 120.543,145.035 C 120.099,145.038 119.616,144.949 119.193,144.806 C 117.789,144.333 116.502,143.109 115.937,140.938 C 115.427,138.98 115.919,136.822 116.68,134.752 C 116.67628,134.75143 116.8318,134.34984 116.833,134.346 C 116.832,134.346 116.832,134.346 116.832,134.346 C 117.10307,133.71219 117.35031,133.07024 117.625,132.438 C 117.62385,132.43931 117.80124,132.0401 117.801,132.038 C 117.851,131.926 117.9,131.814 117.948,131.703 C 117.992,131.604 118.036,131.508 118.079,131.409 C 118.07731,131.40959 118.25823,131.00791 118.256,131.011 C 118.349,130.797 118.441,130.586 118.527,130.379 C 118.53112,130.37934 118.69304,129.97629 118.695,129.977 C 118.799,129.722 118.895,129.475 118.983,129.235 C 118.97921,129.23773 119.12372,128.83015 119.125,128.829 C 119.214,128.558 119.289,128.298 119.348,128.05 C 119.34704,128.04628 119.45004,127.53183 119.447,127.526 C 119.759,125.308 118.852,122.193 117.966,119.141 C 117.67,118.125 117.377,117.116 117.131,116.15 C 116.798,114.835 116.983,114.421 117.338,112.853 C 117.368,112.718 117.282,112.583 117.148,112.554 C 117.013,112.524 116.878,112.608 116.847,112.743 C 116.704,113.372 116.573,113.998 116.458,114.621 C 116.191,114.305 115.823,114.081 115.407,113.945 C 114.815,113.751 114.122,113.734 113.495,113.876 C 113.452,113.886 113.409,113.897 113.367,113.908 C 113.394,112.872 113.451,111.802 113.532,110.704 C 113.534,110.679 113.53,110.653 113.525,110.631 C 114.034,109.898 114.43,108.837 114.824,107.783 C 115.177,106.834 115.528,105.891 115.943,105.244 C 116.039,105.275 116.141,105.292 116.251,105.293 C 117.722,105.312 117.103,100.902 116.199,100.851 C 116.036,101.003 115.892,101.166 115.765,101.335 C 115.596,100.506 115.217,99.715 114.953,99.048 C 114.81261,98.694382 114.67998,98.334654 114.562,97.989 C 114.40075,96.006393 113.22497,93.625978 113.37296,91.84372 C 113.19373,90.547655 113.71325,88.409423 114.04688,87.591616 C 114.55132,87.446741 120.50788,81.992052 129.10856,87.506696 C 130.61277,90.880079 128.99769,95.622038 128.5,98.067 C 128.479,98.115 128.473,98.167 128.48,98.215 C 128.385,98.493 128.276,98.769 128.166,99.048 C 127.902,99.715 127.522,100.506 127.354,101.335 C 127.226,101.166 127.083,101.003 126.92,100.851 C 126.015,100.902 125.397,105.312 126.867,105.293 C 126.976,105.292 127.079,105.274 127.174,105.244 C 127.59,105.891 127.941,106.834 128.295,107.783 C 128.688,108.837 129.085,109.898 129.592,110.631 C 129.588,110.653 129.585,110.679 129.587,110.704 C 129.668,111.802 129.724,112.872 129.751,113.908 C 129.71,113.897 129.667,113.887 129.624,113.876 C 128.996,113.734 128.303,113.751 127.711,113.945 C 127.295,114.081 126.927,114.305 126.661,114.621 C 126.547,113.998 126.415,113.372 126.27,112.743 C 126.241,112.608 126.104,112.524 125.97,112.554 C 125.834,112.583 125.749,112.719 125.781,112.853 C 125.782,112.855 125.782,112.858 125.783,112.861 L 125.776,112.861 C 125.777,112.884 125.778,112.908 125.78,112.931 L 125.774,112.933 C 125.918,113.362 125.833,114.02 125.843,114.492 C 125.976,119.908 125.046,123.165 123.998,126.835 C 123.965,126.948 123.936,127.048 123.866,127.295 C 123.78175,127.57596 123.73174,127.82247 123.651,128.018 C 123.148,129.553 122.369,130.891 121.559,132.137 L 121.382,132.408 C 121.208,132.672 121.034,132.931 120.861,133.189 C 119.757,134.836 118.725,136.375 118.367,138.107 C 118.087,139.461 118.247,140.779 118.675,141.724 C 118.89,142.196 119.173,142.581 119.506,142.839 C 119.692,142.982 119.892,143.084 120.103,143.143 C 120.321,143.189 120.532,143.2 120.739,143.178 C 121.148,143.115 121.577,142.886 122.002,142.456 C 122.182,142.273 122.229,142.126 122.285,141.969 C 121.806,142.185 121.261,142.137 120.795,141.859 C 120.795,141.858 120.796,141.855 120.796,141.852 C 120.563,141.716 120.382,141.499 120.271,141.269 C 120.27,141.267 120.269,141.266 120.269,141.264 C 120.268,141.263 120.268,141.263 120.268,141.263 C 120.267,141.261 120.267,141.26 120.266,141.26 L 120.266,141.257 C 120.265,141.256 120.264,141.255 120.264,141.255 C 120.264,141.253 120.264,141.253 120.263,141.253 L 120.263,141.253 C 120.263,141.252 120.262,141.25 120.261,141.25 C 120.261,141.249 120.261,141.249 120.261,141.249 C 120.17,141.057 120.112,140.846 120.084,140.632 C 119.92,139.353 120.62,138.558 121.868,138.595 C 122.122,138.59 122.377,138.63 122.631,138.719 C 122.631,138.721 122.631,138.722 122.631,138.724 C 122.943,138.824 123.24,138.983 123.496,139.203 C 123.821,139.481 124.081,139.864 124.216,140.354 C 124.683,142.048 124.134,143.382 123.128,144.182 C 123.127,144.178 123.126,144.175 123.126,144.17 C 122.99,144.284 122.835,144.39 122.666,144.486 L 122.666,144.486 z M 109.145,147.293 C 109.125,147.162 109.107,147.031 109.088,146.9 C 108.784,144.77 108.481,142.64 107.902,140.518 C 107.568,139.294 107.107,138.205 106.618,137.056 C 105.849,135.243 105.011,133.271 104.513,130.321 C 104.173,128.306 104.125,125.854 104.073,123.215 C 104.011,120.118 103.944,116.76 103.394,113.514 C 105.233,116.023 105.329,120.796 105.411,124.922 C 105.46,127.377 105.505,129.606 105.911,131.05 C 106.633,133.613 107.349,135.53 107.953,137.147 C 109.281,140.704 110.06,142.791 109.145,147.293 L 109.145,147.293 z M 100.97473,93.33032 L 107.512,88.235 L 107.541,88.25 L 107.67,88.142 C 108.669,87.301 109.661,86.744 110.641,86.64 C 111.569,86.542 112.5,86.855 113.44,87.725 C 113.043,89.206 112.884,90.568 112.921,91.833 C 111.864,90.244 110.82,89.341 109.871,88.985 C 109.198,88.734 108.57,88.749 108.016,88.987 C 107.468,89.221 106.998,89.669 106.63,90.285 C 105.923,91.466 105.588,93.288 105.811,95.408 C 105.174,95.026 104.521,94.766 103.853,94.63 C 103.064,94.468 102.257,94.48 101.433,94.662 C 101.173,94.292 101.037,93.928 101.112,93.516 L 100.88447,93.198271 L 100.97473,93.33032 z M 115.514,104.978 C 115.073,105.671 114.713,106.636 114.351,107.607 C 113.93,108.735 113.504,109.874 112.965,110.539 C 112.476,111.141 111.861,111.327 111,110.662 C 110.344,108.283 109.466,106.467 108.446,105.015 C 107.44,103.583 106.295,102.503 105.089,101.584 C 104.922,98.372 103.418,96.808 102.278,95.624 C 102.103,95.442 101.937,95.27 101.788,95.103 C 102.457,94.985 103.112,94.991 103.751,95.122 C 104.512,95.277 105.256,95.611 105.983,96.12 C 106.156,96.242 106.407,96.089 106.377,95.878 C 106.049,93.646 106.352,91.732 107.061,90.545 C 107.375,90.02 107.766,89.642 108.212,89.451 C 108.65,89.263 109.152,89.252 109.696,89.456 C 110.533,89.77 111.467,90.58 112.433,92.01 C 112.43367,92.010236 112.71657,92.437765 112.714,92.44 C 112.811,92.592 112.905,92.751 113.001,92.916 C 113.087,93.63 113.235,94.313 113.437,94.971 C 113.43902,94.970904 113.59406,95.449283 113.594,95.451 C 113.89879,96.290487 113.87684,97.179918 114.056,98.067 C 114.05787,98.069234 114.21488,98.551888 114.217,98.553 C 114.301,98.782 114.39,99.008 114.481,99.237 C 114.638,99.633 114.798,100.036 114.927,100.463 C 114.92871,100.46098 115.05379,100.95609 115.053,100.95 C 115.11,101.201 115.309,101.619 115.331,101.894 C 115.334,101.934 115.347,101.97 115.366,102.001 C 114.838,103.14 114.944,104.404 115.514,104.978 L 115.514,104.978 z M 115.996,118.682 C 115.978,119.377 115.996,120.065 116.059,120.743 C 116.284,123.126 117.06,125.387 118.725,127.45 C 116.373,126.966 114.941,125.137 114.154,122.426 C 113.851,121.386 113.644,120.216 113.515,118.942 C 113.529,118.913 113.539,118.883 113.543,118.849 C 113.582,118.483 113.759,118.222 113.999,118.061 C 114.176,117.943 114.393,117.877 114.618,117.861 C 114.848,117.844 115.085,117.881 115.296,117.967 C 115.611,118.094 115.876,118.334 115.996,118.682 L 115.996,118.682 z M 116.321,115.401 C 116.189,116.224 116.09,117.041 116.035,117.848 C 115.875,117.7 115.688,117.584 115.487,117.502 C 115.2,117.384 114.886,117.335 114.584,117.357 C 114.277,117.379 113.976,117.475 113.721,117.644 C 113.614,117.716 113.515,117.798 113.428,117.896 C 113.355,116.802 113.333,115.643 113.354,114.432 C 113.437,114.406 113.522,114.383 113.607,114.364 C 114.148,114.24 114.744,114.256 115.249,114.421 C 115.73,114.578 116.124,114.875 116.294,115.317 C 116.304,115.346 116.313,115.372 116.321,115.401 L 116.321,115.401 z M 118.811,150.54117 C 118.804,150.76517 118.792,151.682 118.779,151.907 C 118.778,151.936 118.777,152.65483 118.775,152.68183 C 117.452,152.41983 116.17,152.32983 114.926,152.39283 C 113.576,152.45883 112.266,152.70483 110.99,153.10883 C 110.649,153.01483 110.288,152.93683 109.901,152.87783 C 109.669,152.84183 109.424,152.81283 109.169,152.79283 L 109.52494,150.68375 C 109.70294,150.70075 109.674,150.69217 109.838,150.71717 C 110.236,150.77817 110.598,150.85917 110.94,150.95217 L 111.002,150.97017 L 111.06,150.95017 C 112.316,150.54917 113.61,150.30317 114.947,150.23617 C 116.198,150.17617 117.486,150.27017 118.811,150.54117 L 118.811,150.54117 z M 118.832,153.844 C 119.049,154.792 119.205,155.739 119.315,156.685 C 119.02,156.846 118.763,157.095 118.559,157.408 C 118.347,157.732 118.192,158.128 118.108,158.569 C 118.075,158.48 118.039,158.393 118.001,158.308 C 117.499,157.189 116.588,156.412 115.621,156.412 C 115.563,156.412 115.501,156.416 115.435,156.424 C 114.851,156.485 114.356,156.83 114.011,157.358 C 113.867,157.577 113.751,157.826 113.664,158.102 C 113.579,157.847 113.467,157.613 113.332,157.409 C 112.987,156.881 112.493,156.536 111.908,156.474 C 111.844,156.468 111.781,156.464 111.722,156.464 C 110.757,156.464 109.845,157.239 109.342,158.36 C 109.303,158.449 109.266,158.538 109.233,158.631 C 109.17,158.061 108.995,157.554 108.733,157.153 C 108.388,156.624 107.894,156.28 107.309,156.219 C 107.245,156.211 107.183,156.208 107.123,156.208 C 106.96,156.208 106.8,156.23 106.642,156.272 C 106.647,156.262 106.651,156.252 106.655,156.244 C 107.189,155.181 107.866,154.421 108.691,153.962 L 108.782,153.912 C 109.162,153.929 109.511,153.965 109.839,154.015 C 110.237,154.076 110.599,154.158 110.941,154.252 L 111.003,154.268 L 111.061,154.248 C 112.317,153.847 113.611,153.602 114.948,153.534 C 116.205,153.474 117.499,153.568 118.832,153.844 L 118.832,153.844 z M 105.69,159.211 C 105.863,158.359 106.082,157.601 106.346,156.936 C 106.595,156.791 106.857,156.711 107.123,156.711 C 107.173,156.711 107.218,156.714 107.258,156.717 C 107.682,156.761 108.05,157.023 108.312,157.425 C 108.588,157.85 108.752,158.432 108.752,159.088 C 108.752,159.129 108.752,159.17 108.751,159.211 L 105.69,159.211 L 105.69,159.211 z M 119.376,157.244 C 119.44,157.898 119.484,158.552 119.512,159.211 L 118.543,159.211 C 118.564,158.608 118.722,158.076 118.981,157.681 C 119.094,157.507 119.227,157.358 119.376,157.244 L 119.376,157.244 z M 113.993,159.211 C 114.006,158.586 114.167,158.036 114.432,157.628 C 114.696,157.228 115.062,156.966 115.486,156.922 C 115.526,156.918 115.571,156.915 115.621,156.915 C 116.382,156.915 117.119,157.568 117.542,158.513 C 117.626,158.7 117.697,158.903 117.755,159.112 C 117.764,159.145 117.773,159.177 117.78,159.212 L 113.993,159.212 L 113.993,159.211 z M 109.577,159.211 C 109.582,159.194 109.586,159.178 109.59,159.163 C 109.648,158.952 109.719,158.752 109.803,158.564 C 110.226,157.62 110.964,156.965 111.724,156.965 C 111.774,156.965 111.819,156.968 111.859,156.972 C 112.283,157.017 112.649,157.277 112.913,157.68 C 113.172,158.076 113.331,158.608 113.351,159.21 L 109.577,159.21 L 109.577,159.211 z M 96.313,116.681 C 95.627,116.476 95.016,116.034 94.64,115.424 L 94.639,115.424 C 94.468,115.148 94.351,114.859 94.243,114.564 C 94.367,113.091 94.871,112.39 95.351,111.723 C 95.524,111.483 95.694,111.246 95.845,110.982 C 95.786,111.383 95.672,111.773 95.56,112.163 C 95.175,113.492 94.791,114.823 96.313,116.681 L 96.313,116.681 z M 91.775,120.869 C 91.975,121.696 92.417,122.695 92.907,123.803 C 93.849,125.932 94.975,128.476 94.828,130.794 C 94.826,130.817 94.806,131.073 94.804,131.098 C 94.569,133.648 93.73,135.816 93.045,137.592 C 92.608,138.724 92.231,139.699 92.098,140.538 L 92.097,140.538 C 92.096,140.546 92.096,140.547 92.096,140.549 L 92.096,140.549 C 91.959,141.423 92.021,142.166 92.213,142.698 C 92.328,143.019 92.492,143.271 92.691,143.437 C 92.91,143.623 93.167,143.707 93.445,143.673 C 93.661,143.647 93.886,143.551 94.108,143.373 C 94.997,142.662 94.946,141.319 94.894,139.944 C 94.884,139.676 94.873,139.408 94.872,139.146 C 95.76,139.528 96.65,140 97.539,140.561 C 97.429,141.573 96.989,142.749 96.332,143.723 C 95.865,144.416 95.289,145.005 94.647,145.356 C 94.028,145.696 93.343,145.81 92.632,145.575 C 92.119,145.404 91.587,145.052 91.049,144.472 C 89.304,142.582 89.748,140.108 90.227,137.428 C 90.319,136.916 90.413,136.396 90.493,135.871 L 90.54,135.539 C 90.603,135.096 90.654,134.649 90.684,134.199 L 90.703,133.866 C 90.715,133.598 90.72,133.332 90.714,133.064 L 90.703,132.728 C 90.682,132.329 90.64,131.927 90.568,131.528 L 90.502,131.196 C 90.429,130.864 90.335,130.53 90.217,130.198 C 90.207,130.169 90.196,130.138 90.186,130.11 L 90.067,129.796 C 89.802,129.121 89.486,128.468 89.136,127.833 L 88.971,127.541 C 88.8,127.242 88.622,126.947 88.439,126.658 L 88.259,126.375 C 88.037,126.031 87.809,125.691 87.577,125.354 C 89.256,124.408 90.644,122.89 91.775,120.869 L 91.775,120.869 z M 133.973,147.293 C 133.992,147.162 134.009,147.031 134.028,146.9 C 134.333,144.77 134.636,142.64 135.216,140.518 C 135.55,139.294 136.011,138.205 136.499,137.056 C 137.269,135.243 138.106,133.271 138.603,130.321 C 138.943,128.306 138.993,125.854 139.044,123.215 C 139.106,120.118 139.172,116.76 139.723,113.514 C 137.884,116.023 137.786,120.796 137.705,124.922 C 137.655,127.377 137.611,129.606 137.206,131.05 C 136.484,133.613 135.768,135.53 135.164,137.147 C 133.837,140.704 133.057,142.791 133.973,147.293 L 133.973,147.293 z M 142.001,93.492 L 135.604,88.235 L 135.576,88.25 L 135.447,88.142 C 134.449,87.301 133.456,86.744 132.476,86.64 C 131.549,86.542 130.617,86.855 129.677,87.725 C 130.074,89.206 130.232,90.568 130.197,91.833 C 131.252,90.244 132.297,89.341 133.246,88.985 C 133.919,88.734 134.547,88.749 135.101,88.987 C 135.65,89.221 136.12,89.669 136.488,90.285 C 137.193,91.466 137.529,93.288 137.306,95.408 C 137.944,95.026 138.596,94.766 139.264,94.63 C 140.052,94.468 140.859,94.48 141.684,94.662 C 141.944,94.292 142.08,93.928 142.005,93.516 C 142.004,93.508 142.002,93.5 142.001,93.492 L 142.001,93.492 z M 127.602,104.978 C 128.044,105.671 128.405,106.636 128.766,107.607 C 129.187,108.735 129.613,109.874 130.153,110.539 C 130.641,111.141 131.255,111.327 132.117,110.662 C 132.773,108.283 133.651,106.467 134.672,105.015 C 135.678,103.583 136.821,102.503 138.027,101.584 C 138.195,98.372 139.7,96.808 140.838,95.624 C 141.014,95.442 141.18,95.27 141.329,95.103 C 140.66,94.985 140.005,94.991 139.366,95.122 C 138.605,95.277 137.861,95.611 137.134,96.12 C 136.962,96.242 136.71,96.089 136.74,95.878 C 137.068,93.646 136.766,91.732 136.056,90.545 C 135.743,90.02 135.351,89.642 134.904,89.451 C 134.466,89.263 133.965,89.252 133.421,89.456 C 132.583,89.77 131.65,90.58 130.684,92.01 C 130.67887,92.008346 130.40916,92.436698 130.403,92.44 C 130.308,92.592 130.214,92.751 130.117,92.916 C 130.031,93.63 129.883,94.313 129.68,94.971 C 129.68217,94.971393 129.53119,95.451447 129.522,95.451 C 129.21744,96.290501 129.23958,97.179772 129.061,98.067 C 129.05986,98.064293 128.90022,98.560461 128.899,98.553 C 128.815,98.782 128.726,99.008 128.635,99.237 C 128.478,99.633 128.318,100.036 128.19,100.463 C 128.18953,100.46702 128.06371,100.95666 128.062,100.95 C 128.006,101.201 127.806,101.619 127.784,101.894 C 127.782,101.934 127.77,101.97 127.751,102.001 C 128.279,103.14 128.173,104.404 127.602,104.978 L 127.602,104.978 z M 118.845,127.983 C 116.15,127.532 114.536,125.548 113.67,122.566 C 112.811,119.601 112.692,115.645 112.986,111.235 C 112.362,111.756 111.606,111.798 110.619,111.001 C 110.6,110.985 110.541,110.895 110.534,110.872 C 109.893,108.517 109.033,106.727 108.032,105.303 C 107.032,103.881 105.892,102.817 104.691,101.912 C 104.654,101.885 104.591,101.768 104.589,101.722 C 104.461,98.618 103.01,97.11 101.916,95.972 C 101.225,95.253 100.664,94.67 100.593,93.92 L 107.35706,87.906406 C 107.18045,88.538828 97.626927,80.673791 91.161252,95.276052 C 89.051951,97.439632 87.960148,98.770318 87.215,101.934 C 86.967,103.101 86.825,104.372 86.68,105.822 L 86.672,105.905 L 86.618,105.964 C 86.545,106.046 86.473,106.128 86.4,106.209 C 85.643,107.056 84.863,107.927 84.211,108.946 C 84.210641,108.94582 84.016821,109.26005 84.018,109.26 C 83.763,109.687 83.532,110.14 83.335,110.629 C 83.333919,110.62967 83.208755,110.95374 83.21,110.954 C 83.111,111.229 83.022,111.516 82.944,111.813 C 82.94433,111.81498 82.86524,112.13681 82.866,112.14 C 82.671,113.016 82.579,113.997 82.627,115.113 C 82.617917,115.11462 82.642952,115.44897 82.646,115.449 C 82.655,115.598 82.668,115.749 82.683,115.904 C 82.751,116.604 82.905,117.281 83.123,117.939 C 83.125901,117.94347 83.234872,118.26247 83.236,118.263 C 83.359,118.595 83.497,118.924 83.648,119.248 C 83.647756,119.25092 83.794947,119.55194 83.793,119.551 C 83.926,119.819 84.067,120.085 84.216,120.348 C 84.212374,120.35061 84.392346,120.66225 84.395,120.658 C 84.832,121.405 85.322,122.137 85.833,122.869 C 85.85,122.853 85.868,122.84 85.885,122.826 C 87.361,121.649 88.501,120.259 89.462,118.754 C 89.463,118.753 89.463,118.751 89.463,118.75 C 89.697,117.63 90.039,116.656 90.477,115.815 C 90.919,114.967 91.461,114.254 92.093,113.661 C 92.194,113.566 92.354,113.571 92.449,113.672 C 92.544,113.773 92.539,113.931 92.438,114.026 C 91.848,114.58 91.34,115.25 90.924,116.046 C 90.552,116.76 90.254,117.576 90.035,118.502 C 90.523,118.459 90.954,118.517 91.298,118.724 C 91.525,118.86 91.71,119.055 91.843,119.32 C 92.206,118.597 92.555,118.087 92.863,117.637 C 93.395,116.858 93.798,116.267 93.917,114.999 C 93.824,113.733 94.254,112.676 95.084,111.525 C 95.395,111.092 95.697,110.673 95.876,110.077 C 95.873,110.03 95.89,109.986 95.921,109.953 C 96.207,109.231 96.606,109.018 96.99,108.814 C 97.316,108.641 97.63,108.475 97.816,107.903 C 97.845,107.816 97.94,107.768 98.028,107.797 C 98.116,107.826 98.164,107.92 98.135,108.008 C 97.907,108.706 97.535,108.904 97.148,109.11 C 96.847,109.269 96.536,109.436 96.298,109.926 C 97.13,109.887 97.86,109.766 98.466,109.545 C 99.11,109.31 99.616,108.961 99.953,108.478 C 100.006,108.402 100.112,108.384 100.187,108.437 C 100.263,108.49 100.282,108.594 100.229,108.67 C 99.85,109.212 99.291,109.601 98.58,109.859 C 97.919,110.1 97.125,110.23 96.225,110.266 C 96.256,110.974 96.072,111.613 95.888,112.251 C 95.528,113.495 95.169,114.74 96.58,116.468 C 96.524,115.985 96.498,115.51 96.522,115.038 C 96.556,114.356 96.688,113.672 96.966,112.963 L 97.021,112.824 L 97.17,112.805 C 98.336,112.663 99.397,112.495 100.33,112.298 C 101.26,112.101 102.063,111.874 102.718,111.611 L 102.991,111.502 L 103.013,111.6 C 103.484,111.29 103.627,110.365 103.635,109.189 C 103.611,109.127 103.612,109.06 103.636,109.001 C 103.635,108.911 103.634,108.821 103.632,108.729 C 103.619,108 103.564,107.181 103.507,106.363 C 103.414,104.995 103.321,103.625 103.426,102.555 C 103.43,102.514 103.434,102.476 103.434,102.474 C 103.449,102.337 103.574,102.237 103.711,102.252 C 103.849,102.266 103.949,102.39 103.934,102.527 C 103.929,102.577 103.927,102.592 103.926,102.604 C 103.849,103.386 103.887,104.372 103.95,105.405 L 105.399,106.97 C 105.493,107.071 105.487,107.231 105.385,107.324 C 105.282,107.418 105.123,107.412 105.029,107.311 L 104.003,106.202 C 104.006,106.245 104.009,106.287 104.012,106.33 C 104.067,107.144 104.122,107.957 104.136,108.721 C 104.139,108.832 104.14,108.943 104.14,109.051 L 105.182,110.667 C 105.257,110.784 105.223,110.939 105.106,111.014 C 104.988,111.089 104.833,111.055 104.758,110.939 L 104.11,109.933 C 104.028,111.025 103.762,111.843 103.13,112.116 C 103.162,112.266 103.193,112.415 103.224,112.566 C 103.246,112.576 103.268,112.591 103.287,112.607 C 103.289,112.609 103.32,112.641 103.323,112.643 C 105.724,115.104 105.83,120.389 105.921,124.91 C 105.969,127.333 106.013,129.534 106.4,130.913 C 107.118,133.466 107.829,135.367 108.428,136.971 C 109.909,140.94 110.724,143.122 109.352,148.672 C 109.393,148.945 109.437,149.217 109.482,149.489 C 109.628,149.505 109.768,149.524 109.906,149.545 C 110.293,149.605 110.654,149.684 110.995,149.776 C 111.01,149.77 111.023,149.766 111.037,149.762 C 111.689,144.214 110.61,139.675 109.476,134.913 C 107.892,128.268 106.206,121.19 108.914,110.326 C 108.948,110.192 109.084,110.11 109.219,110.143 C 109.355,110.176 109.437,110.312 109.403,110.446 C 106.725,121.19 108.396,128.208 109.966,134.798 C 111.097,139.543 112.174,144.069 111.562,149.607 C 112.658,149.304 113.781,149.116 114.931,149.06 C 116.244,148.995 117.599,149.099 118.998,149.394 C 119.323,148.066 119.579,146.76 119.793,145.468 C 119.77,145.463 119.747,145.461 119.725,145.456 C 117.916,145.129 116.159,143.768 115.454,141.06 C 114.808,138.574 115.657,135.85 116.689,133.355 C 116.694,133.319 116.708,133.287 116.729,133.259 C 117.008,132.589 117.216,132.119 117.492,131.497 C 117.714,130.996 117.935,130.497 118.157,129.963 C 118.453,129.244 118.701,128.575 118.845,127.983 L 118.845,127.983 z M 122.062,134.526 C 122.188,135.635 122.3,136.773 122.412,137.91 C 122.421,137.992 122.429,138.072 122.436,138.153 C 122.445,138.155 122.454,138.159 122.462,138.16 C 122.947,138.263 123.428,138.479 123.827,138.823 C 124.223,139.166 124.54,139.629 124.703,140.223 C 125.236,142.152 124.588,143.678 123.418,144.594 C 123.352,144.647 123.282,144.697 123.212,144.744 C 123.446,146.272 123.737,147.819 124.124,149.395 C 125.523,149.1 126.878,148.996 128.19,149.061 C 129.341,149.117 130.463,149.305 131.559,149.608 C 130.947,144.07 132.025,139.545 133.155,134.799 C 134.723,128.209 136.395,121.191 133.717,110.447 C 133.685,110.313 133.766,110.177 133.901,110.144 C 134.037,110.111 134.173,110.193 134.206,110.327 C 136.914,121.191 135.228,128.269 133.646,134.914 C 132.512,139.676 131.431,144.215 132.084,149.763 C 132.099,149.767 132.112,149.771 132.125,149.777 C 132.468,149.684 132.828,149.605 133.215,149.546 C 133.353,149.525 133.494,149.506 133.639,149.49 C 133.685,149.218 133.729,148.946 133.769,148.673 C 132.398,143.123 133.212,140.941 134.694,136.972 C 135.294,135.368 136.004,133.467 136.722,130.914 C 137.109,129.535 137.153,127.334 137.201,124.911 C 137.291,120.39 137.397,115.105 139.799,112.644 C 139.801,112.642 139.832,112.61 139.834,112.608 C 139.854,112.592 139.875,112.577 139.897,112.567 C 139.927,112.417 139.96,112.268 139.991,112.117 C 139.357,111.844 139.093,111.026 139.011,109.934 L 138.364,110.94 C 138.289,111.056 138.134,111.089 138.016,111.015 C 137.898,110.94 137.866,110.785 137.94,110.668 L 138.982,109.052 C 138.982,108.944 138.983,108.833 138.985,108.722 C 139,107.958 139.054,107.145 139.11,106.331 C 139.113,106.288 139.116,106.246 139.118,106.203 L 138.093,107.312 C 137.999,107.413 137.84,107.419 137.738,107.325 C 137.635,107.232 137.63,107.073 137.722,106.971 L 139.171,105.406 C 139.235,104.373 139.273,103.387 139.195,102.605 C 139.195,102.594 139.192,102.578 139.187,102.528 C 139.172,102.391 139.271,102.267 139.411,102.253 C 139.548,102.237 139.673,102.337 139.687,102.475 C 139.687,102.477 139.692,102.515 139.696,102.556 C 139.801,103.626 139.707,104.996 139.615,106.364 C 139.559,107.182 139.503,108.001 139.489,108.73 C 139.488,108.822 139.486,108.912 139.486,109.002 C 139.51,109.061 139.51,109.128 139.486,109.19 C 139.495,110.366 139.637,111.291 140.109,111.601 L 140.131,111.503 L 140.403,111.612 C 141.056,111.875 141.861,112.102 142.792,112.299 C 143.725,112.496 144.786,112.664 145.951,112.806 L 146.1,112.825 L 146.155,112.964 C 146.434,113.673 146.567,114.357 146.599,115.039 C 146.622,115.511 146.597,115.986 146.541,116.469 C 147.952,114.741 147.594,113.496 147.233,112.252 C 147.049,111.614 146.864,110.975 146.895,110.267 C 145.995,110.231 145.202,110.101 144.541,109.86 C 143.83,109.602 143.271,109.213 142.892,108.671 C 142.839,108.595 142.858,108.491 142.933,108.438 C 143.01,108.385 143.115,108.403 143.167,108.479 C 143.505,108.962 144.01,109.311 144.655,109.546 C 145.261,109.767 145.991,109.888 146.823,109.927 C 146.586,109.437 146.273,109.27 145.973,109.111 C 145.586,108.905 145.214,108.707 144.986,108.009 C 144.957,107.921 145.006,107.827 145.092,107.798 C 145.181,107.77 145.276,107.818 145.305,107.904 C 145.491,108.476 145.804,108.642 146.131,108.815 C 146.514,109.019 146.913,109.232 147.2,109.954 C 147.23,109.987 147.248,110.031 147.245,110.078 C 147.423,110.674 147.725,111.093 148.036,111.526 C 148.864,112.677 149.294,113.734 149.202,115 C 149.32,116.268 149.723,116.858 150.256,117.638 C 150.564,118.088 150.913,118.598 151.276,119.321 C 151.409,119.056 151.594,118.861 151.821,118.725 C 152.166,118.518 152.596,118.46 153.085,118.503 C 152.866,117.578 152.566,116.762 152.195,116.047 C 151.778,115.251 151.27,114.581 150.681,114.027 C 150.579,113.932 150.575,113.774 150.669,113.673 C 150.765,113.572 150.923,113.567 151.024,113.662 C 151.657,114.255 152.2,114.969 152.641,115.816 C 153.079,116.657 153.42,117.631 153.655,118.751 C 153.655,118.752 153.655,118.754 153.656,118.755 C 154.618,120.26 155.757,121.65 157.232,122.827 C 157.251,122.841 157.267,122.854 157.285,122.87 C 157.796,122.137 158.286,121.405 158.723,120.659 C 158.72269,120.65866 158.90298,120.34744 158.902,120.349 C 159.051,120.085 159.193,119.819 159.325,119.552 C 159.32748,119.55185 159.47748,119.24681 159.473,119.249 C 159.623,118.925 159.762,118.596 159.883,118.264 C 159.88645,118.2639 159.99986,117.9415 159.998,117.94 C 160.216,117.282 160.369,116.605 160.436,115.905 C 160.452,115.75 160.463,115.599 160.473,115.45 C 160.47563,115.44494 160.49201,115.11452 160.491,115.114 C 160.538,113.999 160.446,113.017 160.252,112.141 C 160.25359,112.14009 160.17509,111.81327 160.173,111.814 C 160.095,111.517 160.006,111.23 159.905,110.955 C 159.90492,110.95503 159.78348,110.63052 159.783,110.63 C 159.585,110.141 159.352,109.688 159.099,109.261 C 159.08796,109.2487 158.90639,108.94933 158.905,108.947 C 158.253,107.928 157.473,107.057 156.716,106.21 C 156.644,106.129 156.57,106.047 156.498,105.965 L 156.444,105.906 L 156.436,105.823 C 156.29,104.373 156.19488,103.00825 155.94888,101.84125 C 154.79419,97.509146 152.80766,96.282566 151.91727,95.372631 C 148.6679,88.200762 144.21766,84.059464 135.88192,87.987175 L 142.52,93.922 C 142.45,94.672 141.888,95.255 141.198,95.974 C 140.103,97.112 138.652,98.62 138.523,101.724 C 138.522,101.77 138.46,101.887 138.423,101.914 C 137.222,102.819 136.08,103.883 135.081,105.305 C 134.081,106.73 133.22,108.519 132.579,110.874 C 132.573,110.896 132.512,110.987 132.494,111.003 C 131.508,111.8 130.751,111.758 130.128,111.237 C 130.42,115.647 130.304,119.603 129.442,122.568 C 128.568,125.581 126.928,127.576 124.184,128 C 123.61,129.845 122.658,131.393 121.703,132.831 L 122.062,134.526 L 122.062,134.526 z M 124.306,150.54117 C 124.313,150.76517 124.326,152.37383 124.339,152.59883 C 124.34,152.62783 124.341,152.65483 124.343,152.68183 C 125.665,152.41983 126.947,152.32983 128.191,152.39283 C 129.542,152.45883 130.852,152.70483 132.126,153.10883 C 132.469,153.01483 132.829,152.93683 133.216,152.87783 C 133.449,152.84183 133.694,152.81283 133.949,152.79283 L 133.47953,150.67649 C 133.04323,150.74914 132.60694,150.84453 132.176,150.95217 L 132.116,150.97017 L 132.056,150.95017 C 130.801,150.54917 129.507,150.30317 128.17,150.23617 C 126.92,150.17617 125.632,150.27017 124.306,150.54117 L 124.306,150.54117 z M 124.286,153.844 C 124.069,154.792 123.912,155.739 123.803,156.685 C 124.098,156.846 124.355,157.095 124.56,157.408 C 124.771,157.732 124.926,158.128 125.01,158.569 C 125.044,158.48 125.079,158.393 125.117,158.308 C 125.619,157.189 126.531,156.412 127.497,156.412 C 127.556,156.412 127.618,156.416 127.684,156.424 C 128.267,156.485 128.762,156.83 129.108,157.358 C 129.251,157.577 129.368,157.826 129.455,158.102 C 129.54,157.847 129.652,157.613 129.786,157.409 C 130.131,156.881 130.625,156.536 131.21,156.474 C 131.275,156.468 131.337,156.464 131.396,156.464 C 132.362,156.464 133.274,157.239 133.777,158.36 C 133.815,158.449 133.851,158.538 133.886,158.631 C 133.949,158.061 134.122,157.554 134.384,157.153 C 134.73,156.624 135.225,156.28 135.809,156.219 C 135.874,156.211 135.937,156.208 135.995,156.208 C 136.159,156.208 136.319,156.23 136.477,156.272 C 136.472,156.262 136.468,156.252 136.463,156.244 C 135.93,155.181 135.251,154.421 134.429,153.962 L 134.336,153.912 C 133.957,153.929 133.607,153.965 133.28,154.015 C 132.883,154.076 132.519,154.158 132.177,154.252 L 132.117,154.268 L 132.057,154.248 C 130.802,153.847 129.508,153.602 128.171,153.534 C 126.913,153.474 125.619,153.568 124.286,153.844 L 124.286,153.844 z M 137.427,159.211 C 137.255,158.359 137.035,157.601 136.77,156.936 C 136.522,156.791 136.259,156.711 135.993,156.711 C 135.943,156.711 135.899,156.714 135.859,156.717 C 135.434,156.761 135.068,157.023 134.805,157.425 C 134.528,157.85 134.365,158.432 134.365,159.088 C 134.365,159.129 134.366,159.17 134.367,159.211 L 137.427,159.211 L 137.427,159.211 z M 123.741,157.244 C 123.678,157.898 123.634,158.552 123.607,159.211 L 124.575,159.211 C 124.554,158.608 124.395,158.076 124.137,157.681 C 124.023,157.507 123.89,157.358 123.741,157.244 L 123.741,157.244 z M 129.126,159.211 C 129.112,158.586 128.952,158.036 128.687,157.628 C 128.422,157.228 128.056,156.966 127.632,156.922 C 127.592,156.918 127.547,156.915 127.497,156.915 C 126.736,156.915 126,157.568 125.576,158.513 C 125.491,158.7 125.421,158.903 125.363,159.112 C 125.354,159.145 125.346,159.177 125.338,159.212 L 129.126,159.212 L 129.126,159.211 z M 133.541,159.211 C 133.537,159.194 133.533,159.178 133.528,159.163 C 133.471,158.952 133.398,158.752 133.315,158.564 C 132.892,157.62 132.154,156.965 131.394,156.965 C 131.344,156.965 131.298,156.968 131.259,156.972 C 130.834,157.017 130.468,157.277 130.205,157.68 C 129.946,158.076 129.787,158.608 129.767,159.21 L 133.541,159.21 L 133.541,159.211 z M 146.804,116.681 C 147.49,116.476 148.102,116.034 148.478,115.424 L 148.479,115.424 C 148.649,115.148 148.766,114.859 148.874,114.564 C 148.752,113.091 148.247,112.39 147.767,111.723 C 147.594,111.483 147.424,111.246 147.274,110.982 C 147.334,111.383 147.447,111.773 147.559,112.163 C 147.942,113.492 148.327,114.823 146.804,116.681 L 146.804,116.681 z M 151.342,120.869 C 151.142,121.696 150.7,122.695 150.21,123.803 C 149.268,125.932 148.143,128.476 148.289,130.794 C 148.292,130.817 148.311,131.073 148.314,131.098 C 148.548,133.648 149.387,135.816 150.072,137.592 C 150.51,138.724 150.886,139.699 151.019,140.538 L 151.02,140.538 C 151.022,140.546 151.022,140.547 151.022,140.549 L 151.02,140.549 C 151.159,141.423 151.096,142.166 150.904,142.698 C 150.79,143.019 150.625,143.271 150.426,143.437 C 150.207,143.623 149.951,143.707 149.672,143.673 C 149.455,143.647 149.231,143.551 149.009,143.373 C 148.12,142.662 148.171,141.319 148.223,139.944 C 148.234,139.676 148.244,139.408 148.245,139.146 C 147.357,139.528 146.468,140 145.578,140.561 C 145.688,141.573 146.13,142.749 146.786,143.723 C 147.253,144.416 147.828,145.005 148.47,145.356 C 149.089,145.696 149.775,145.81 150.486,145.575 C 150.998,145.404 151.531,145.052 152.067,144.472 C 153.813,142.582 153.37,140.108 152.889,137.428 C 152.798,136.916 152.704,136.396 152.624,135.871 L 152.575,135.539 C 152.513,135.096 152.463,134.649 152.431,134.199 L 152.411,133.866 C 152.399,133.598 152.395,133.332 152.4,133.064 L 152.41,132.728 C 152.43,132.329 152.473,131.927 152.544,131.528 L 152.611,131.196 C 152.684,130.864 152.778,130.53 152.897,130.198 C 152.907,130.169 152.916,130.138 152.927,130.11 L 153.046,129.796 C 153.312,129.121 153.627,128.468 153.977,127.833 L 154.144,127.541 C 154.313,127.242 154.493,126.947 154.675,126.658 L 154.854,126.375 C 155.076,126.031 155.304,125.691 155.536,125.354 C 153.861,124.408 152.474,122.89 151.342,120.869 L 151.342,120.869 z M 126.796,115.401 C 126.928,116.224 127.028,117.041 127.081,117.848 C 127.241,117.7 127.429,117.584 127.629,117.502 C 127.916,117.384 128.232,117.335 128.534,117.357 C 128.841,117.379 129.14,117.475 129.396,117.644 C 129.502,117.716 129.603,117.798 129.69,117.896 C 129.762,116.802 129.784,115.643 129.762,114.432 C 129.679,114.406 129.595,114.383 129.51,114.364 C 128.97,114.24 128.373,114.256 127.868,114.421 C 127.388,114.578 126.992,114.875 126.823,115.317 C 126.814,115.346 126.804,115.372 126.796,115.401 L 126.796,115.401 z M 116.681,116.423 C 116.585,117.162 116.523,117.894 116.5,118.616 C 116.504,118.645 116.503,118.673 116.497,118.701 C 116.48,119.376 116.497,120.043 116.56,120.698 C 116.769,122.925 117.48,125.041 118.994,126.979 C 119.113,124.893 118.291,122.061 117.481,119.281 C 117.2,118.31 116.919,117.346 116.681,116.423 L 116.681,116.423 z M 124.719,126.142 C 125.827,124.438 126.378,122.609 126.557,120.698 C 126.619,120.044 126.637,119.376 126.62,118.701 C 126.615,118.673 126.613,118.645 126.618,118.616 C 126.59,117.718 126.498,116.804 126.361,115.881 C 126.32,120.164 125.587,123.076 124.719,126.142 L 124.719,126.142 z M 127.123,118.682 C 127.142,119.377 127.122,120.065 127.058,120.743 C 126.835,123.126 126.058,125.387 124.393,127.45 C 126.746,126.966 128.177,125.137 128.964,122.426 C 129.267,121.386 129.475,120.216 129.604,118.942 C 129.589,118.913 129.578,118.883 129.575,118.849 C 129.536,118.483 129.36,118.222 129.118,118.061 C 128.941,117.943 128.725,117.877 128.5,117.861 C 128.269,117.844 128.034,117.881 127.822,117.967 C 127.507,118.094 127.242,118.334 127.123,118.682 L 127.123,118.682 z M 121.128,142.513 C 120.682,142.768 120.243,142.772 119.815,142.442 C 119.548,142.237 119.317,141.918 119.135,141.517 C 118.745,140.659 118.603,139.453 118.862,138.206 C 119.191,136.613 120.154,135.148 121.2,133.588 L 121.054,134.526 C 120.929,135.635 120.817,136.773 120.704,137.91 C 120.69,138.052 120.677,138.191 120.662,138.333 C 120.436,138.44 120.24,138.585 120.086,138.764 C 119.675,139.239 119.496,139.992 119.586,140.697 C 119.62,140.967 119.695,141.233 119.809,141.47 C 120.066,142.005 120.541,142.401 121.128,142.513 L 121.128,142.513 z M 120.016,159.211 L 123.102,159.211 C 123.132,158.466 123.185,157.719 123.264,156.97 C 123.384,155.828 123.568,154.687 123.837,153.549 C 123.895,153.038 123.864,152.486 123.833,151.937 C 123.803,151.382 123.772,150.83 123.829,150.283 C 123.359,148.494 123.016,146.747 122.747,145.024 C 122.418,145.194 122.063,145.325 121.696,145.411 C 121.244,145.518 120.768,145.557 120.289,145.528 C 120.032,147.087 119.712,148.668 119.287,150.283 C 119.346,150.83 119.313,151.383 119.283,151.937 C 119.252,152.487 119.22,153.039 119.28,153.549 C 119.549,154.687 119.732,155.828 119.852,156.97 C 119.932,157.719 119.984,158.466 120.016,159.211 L 120.016,159.211 z" />
					<path fill="#d70000" d="M 148.509,100.898 C 150.2,101.46 152.943,102.969 151.965,104.354 C 151.536,104.96 150.129,104.877 149.697,104.365 C 148.979,103.512 149.229,101.618 148.509,100.898 L 148.509,100.898 z M 148.717,99.121 C 148.679,98.987 148.54,98.91 148.407,98.947 C 148.274,98.985 148.195,99.123 148.233,99.256 C 148.556,100.393 149.407,100.477 150.342,100.569 C 151.467,100.679 152.738,100.805 153.014,103.455 C 153.028,103.593 153.152,103.693 153.289,103.679 C 153.427,103.666 153.526,103.542 153.514,103.404 C 153.196,100.346 151.706,100.199 150.391,100.07 C 149.635,99.995 148.945,99.927 148.717,99.121 L 148.717,99.121 z M 95.18,100.898 C 93.489,101.46 90.746,102.969 91.725,104.354 C 92.154,104.96 93.561,104.877 93.992,104.365 C 94.71,103.512 94.46,101.618 95.18,100.898 L 95.18,100.898 z M 122.34,140.175 C 122.898,140.18 123.231,139.361 123.73,139.805 C 124.23,140.248 123.477,141.537 122.192,141.606 C 120.908,141.676 120.509,140.309 120.951,139.935 C 121.393,139.56 121.782,140.172 122.34,140.175 L 122.34,140.175 z M 94.972,99.121 C 95.01,98.987 95.149,98.91 95.282,98.947 C 95.416,98.985 95.493,99.123 95.454,99.256 C 95.132,100.393 94.282,100.477 93.345,100.569 C 92.22,100.679 90.949,100.805 90.673,103.455 C 90.659,103.593 90.536,103.693 90.398,103.679 C 90.261,103.666 90.16,103.542 90.174,103.404 C 90.492,100.346 91.981,100.199 93.296,100.07 C 94.054,99.995 94.743,99.927 94.972,99.121 L 94.972,99.121 z" />
				</g>
				<path style="stroke:#d70000;stroke-width:0.4;" d="M 194.14336,91.794287 L 187.15092,97.555661" />
				<path style="stroke:#d70000;stroke-width:0.4;" d="M 222.28935,91.794276 L 229.28179,97.55565" />
			</g>
			<path style="fill:none;stroke:#d70000;stroke-width:1;" d="M 1451.6902,456.21084 C 1458.6246,457.38109 1469.563,457.62835 1476.2622,456.21084" />
			<path style="fill:none;stroke:#d70000;stroke-width:1;" d="M 1578.964,456.21039 C 1585.8984,457.38064 1596.8368,457.6279 1603.536,456.21039" />
			<path style="fill:none;stroke:#d70000;stroke-width:1;" d="M 1508.7007,456.21057 C 1521.0387,457.42439 1533.6632,457.58734 1546.7077,456.21057" />
		</g>
	</g>
</g>
</svg>