<?xml version="1.0" encoding="UTF-8" standalone="no"?>
<!-- Created with Inkscape (http://www.inkscape.org/) -->

<svg
   xmlns:dc="http://purl.org/dc/elements/1.1/"
   xmlns:cc="http://creativecommons.org/ns#"
   xmlns:rdf="http://www.w3.org/1999/02/22-rdf-syntax-ns#"
   xmlns:svg="http://www.w3.org/2000/svg"
   xmlns="http://www.w3.org/2000/svg"
   xmlns:sodipodi="http://sodipodi.sourceforge.net/DTD/sodipodi-0.dtd"
   xmlns:inkscape="http://www.inkscape.org/namespaces/inkscape"
   version="1.0"
   width="324"
   height="216"
   id="svg1889"
   inkscape:version="0.48.1 "
   sodipodi:docname="Seal.svg">
  <metadata
     id="metadata26">
    <rdf:RDF>
      <cc:Work
         rdf:about="">
        <dc:format>image/svg+xml</dc:format>
        <dc:type
           rdf:resource="http://purl.org/dc/dcmitype/StillImage" />
      </cc:Work>
    </rdf:RDF>
  </metadata>
  <sodipodi:namedview
     pagecolor="#ffffff"
     bordercolor="#666666"
     borderopacity="1"
     objecttolerance="10"
     gridtolerance="10"
     guidetolerance="10"
     inkscape:pageopacity="0"
     inkscape:pageshadow="2"
     inkscape:window-width="1280"
     inkscape:window-height="1004"
     id="namedview24"
     showgrid="false"
     inkscape:zoom="27.341462"
     inkscape:cx="154.90357"
     inkscape:cy="19.891558"
     inkscape:window-x="-8"
     inkscape:window-y="-8"
     inkscape:window-maximized="1"
     inkscape:current-layer="svg1889" />
  <defs
     id="defs1892" />
  <rect
     width="324"
     height="216"
     x="0"
     y="1.9073486e-006"
     style="fill:#0041ad;fill-opacity:1;fill-rule:nonzero;stroke:none;stroke-width:5;stroke-miterlimit:4;stroke-dasharray:none;stroke-opacity:1"
     id="rect2845" />
  <path
     d="M 182.97483,98.845937 C 182.97483,98.845937 172.85823,86.820553 173.43088,74.031656 C 173.96362,61.956067 183.11799,54.227949 194.61846,54.18023 C 206.11892,54.132511 214.96185,60.455428 214.85164,72.504619 C 214.70848,88.156705 205.11681,98.845937 205.11681,98.845937 L 182.97483,98.845937 z "
     style="fill:none;fill-opacity:0.75;fill-rule:evenodd;stroke:white;stroke-width:5.00000143;stroke-linecap:butt;stroke-linejoin:miter;stroke-miterlimit:4;stroke-dasharray:none;stroke-opacity:1"
     id="path2782" />
  <path
     d="M 194.04583,46.545061 L 191.18264,48.644732 L 191.18264,65.251213 C 186.4596,66.602048 184.0088,69.373039 183.35658,73.268143 L 189.27384,74.79517 L 189.08296,92.737807 L 149.95275,131.67715 L 238.13889,131.67715 L 199.00868,92.928683 L 199.00868,74.604294 L 205.30769,73.268143 C 203.32991,66.335905 199.67606,65.812449 196.71813,65.251213 L 197.09989,48.835612 L 194.04583,46.545061 z "
     style="fill:white;fill-opacity:1;fill-rule:evenodd;stroke:white;stroke-width:1.00000036px;stroke-linecap:butt;stroke-linejoin:miter;stroke-opacity:1"
     id="path1881" />
  <path
     d="M 149.18922,131.2954 L 144.79901,131.2954 L 138.5,142.55725 C 138.5,142.55725 147.268,160.44409 195.57285,160.49989 C 242.7163,160.55435 251.50044,140.83935 251.50044,140.83935 L 243.29262,131.10451 C 243.29262,131.10451 239.28417,131.67715 238.52066,131.67715 C 237.75713,131.67715 149.18922,131.48626 149.18922,131.2954 z "
     style="fill:white;fill-opacity:1;fill-rule:evenodd;stroke:white;stroke-width:1.00000036px;stroke-linecap:butt;stroke-linejoin:miter;stroke-opacity:1"
     id="path1885" />
  <path
     style="fill:#0041ad;fill-opacity:1;fill-rule:evenodd;stroke:#0041ad;stroke-width:0.50000018000000002;stroke-linecap:butt;stroke-linejoin:miter;stroke-miterlimit:4;stroke-dasharray:none;stroke-opacity:1"
     d="M 149.1875 134.34375 L 149.1875 142.9375 L 155.875 138.15625 L 149.1875 134.34375 z M 235.84375 137.03125 L 229.5625 140.28125 L 235.09375 144.65625 L 235.84375 137.03125 z M 240.8125 140.0625 L 240.8125 146.75 L 246.34375 141.21875 L 240.8125 140.0625 z M 162.15625 141.21875 L 164.46875 148.46875 L 169.8125 143.3125 L 162.15625 141.21875 z M 224 142.1875 L 216.5625 144.65625 L 221.34375 149.4375 L 224 142.1875 z M 157.40625 143.90625 L 151.09375 148.46875 L 158.9375 151.53125 L 157.40625 143.90625 z M 210.84375 144.09375 L 203.40625 145.21875 L 207.03125 150.96875 L 210.84375 144.09375 z M 175.53125 144.46875 L 178.96875 150.75 L 182.96875 145.21875 L 175.53125 144.46875 z M 188.90625 145.40625 L 194.03125 150.75 L 197.6875 145.625 L 188.90625 145.40625 z M 227.625 145.40625 L 225.71875 152.875 L 233.1875 149.4375 L 227.625 145.40625 z M 172.46875 149.0625 L 167.71875 153.4375 L 175.71875 155.90625 L 172.46875 149.0625 z M 213.71875 149.25 L 210.84375 155.34375 L 218.28125 154.59375 L 213.71875 149.25 z M 185.84375 151.15625 L 181.625 156.875 L 190.03125 156.875 L 185.84375 151.15625 z M 200.34375 151.15625 L 196.53125 156.875 L 205.3125 156.5 L 200.34375 151.15625 z "
     id="path1887" />
  <rect
     width="32"
     height="216"
     x="0"
     y="0"
     style="fill:#00a531;fill-opacity:1;fill-rule:nonzero;stroke:none;stroke-width:5;stroke-miterlimit:4;stroke-dasharray:none;stroke-opacity:1"
     id="rect1955" />
  <rect
     width="32"
     height="216"
     x="32"
     y="0"
     style="fill:#ce1021;fill-opacity:1;fill-rule:nonzero;stroke:none;stroke-width:5;stroke-miterlimit:4;stroke-dasharray:none;stroke-opacity:1"
     id="rect2843" />
</svg>
