<?xml version="1.0" encoding="UTF-8" standalone="no"?>
<!-- Created with Inkscape (http://www.inkscape.org/) -->

<svg
   xmlns:dc="http://purl.org/dc/elements/1.1/"
   xmlns:cc="http://creativecommons.org/ns#"
   xmlns:rdf="http://www.w3.org/1999/02/22-rdf-syntax-ns#"
   xmlns:svg="http://www.w3.org/2000/svg"
   xmlns="http://www.w3.org/2000/svg"
   xmlns:xlink="http://www.w3.org/1999/xlink"
   version="1.1"
   width="2700"
   height="1800"
   viewBox="0 0 494.99999 330"
   id="svg2">
  <metadata
     id="metadata27">
    <rdf:RDF>
      <cc:Work
         rdf:about="">
        <dc:format>image/svg+xml</dc:format>
        <dc:type
           rdf:resource="http://purl.org/dc/dcmitype/StillImage" />
        <dc:title></dc:title>
      </cc:Work>
    </rdf:RDF>
  </metadata>
  <defs
     id="defs25" />
  <rect
     width="2700"
     height="1800"
     x="0"
     y="0"
     transform="matrix(0.18333333,0,0,0.18333333,-5e-6,0)"
     id="rect3834"
     style="fill:#8bb9e5;fill-opacity:1;stroke:none" />
  <path
     d="m 2354.2919,401.13798 c -2.7992,0.0209 23.6008,119.03147 20.8328,118.61422 -2.768,-0.41726 57.5418,-106.35687 54.8732,-107.202 -2.6687,-0.84513 -14.3371,120.4987 -16.8407,119.24651 -2.5036,-1.25219 87.5917,-83.36999 85.3148,-84.99841 -2.2769,-1.62842 -50.8715,110.17068 -52.8656,108.20612 -1.9941,-1.96455 109.0673,-52.22226 107.4051,-54.47457 -1.6622,-2.25231 -82.4263,89.05837 -83.7157,86.57376 -1.2894,-2.4846 119.8667,-15.96266 118.9819,-18.61839 -0.8849,-2.65573 -105.9126,59.22842 -106.3712,56.46696 -0.4585,-2.76145 118.9328,21.85947 118.9119,19.06029 -0.021,-2.79918 -119.0314,23.60077 -118.6142,20.83278 0.4173,-2.76799 106.3569,57.54185 107.202,54.87321 0.8452,-2.66863 -120.4987,-14.33708 -119.2465,-16.84066 1.2522,-2.50357 83.37,87.59163 84.9984,85.31477 1.6284,-2.27687 -110.1707,-50.87152 -108.2061,-52.86562 1.9645,-1.99409 52.2223,109.06734 54.4746,107.40512 2.2523,-1.66222 -89.0584,-82.4263 -86.5738,-83.71572 2.4846,-1.28941 15.9627,119.86676 18.6184,118.9819 2.6557,-0.88486 -59.2284,-105.91262 -56.467,-106.37114 2.7615,-0.45852 -21.8594,118.9328 -19.0602,118.91191 2.7991,-0.0209 -23.6008,-119.03147 -20.8328,-118.61421 2.768,0.41725 -57.5419,106.35686 -54.8732,107.20199 2.6686,0.84513 14.337,-120.4987 16.8406,-119.24651 2.5036,1.2522 -87.5916,83.36999 -85.3147,84.99841 2.2768,1.62842 50.8715,-110.17067 52.8656,-108.20612 1.9941,1.96455 -109.0674,52.22226 -107.4051,54.47457 1.6622,2.25231 82.4263,-89.05837 83.7157,-86.57376 1.2894,2.48461 -119.8668,15.96266 -118.9819,18.61839 0.8848,2.65573 105.9126,-59.22841 106.3711,-56.46696 0.4585,2.76145 -118.9328,-21.85947 -118.9119,-19.06029 0.021,2.79919 119.0315,-23.60077 118.6142,-20.83278 -0.4172,2.76799 -106.3569,-57.54185 -107.202,-54.87321 -0.8451,2.66864 120.4987,14.33708 119.2465,16.84066 -1.2522,2.50357 -83.37,-87.59163 -84.9984,-85.31477 -1.6284,2.27687 110.1707,50.87153 108.2061,52.86562 -1.9645,1.99409 -52.2222,-109.06733 -54.4745,-107.40512 -2.2523,1.66222 89.0583,82.42631 86.5737,83.71572 -2.4846,1.28942 -15.9626,-119.86676 -18.6184,-118.9819 -2.6557,0.88486 59.2285,105.91262 56.467,106.37114 -2.7615,0.45852 21.8595,-118.9328 19.0603,-118.91191 z"
     transform="matrix(0.18539989,0,0,0.18539989,-4.8691076,43.632205)"
     id="path3830"
     style="fill:#fecb00;fill-opacity:1;stroke:none" />
  <path
     d="m 154,58.666677 c 14.62636,2.925272 37.27219,18.371439 49.31954,27.166285 13.01378,9.500381 24.01378,35.167048 30.29141,37.634768 15.12526,5.94571 32.92007,-7.29932 48.64981,-3.21272 5.99643,1.55787 9.60096,8.56753 15.60467,10.09713 6.46789,1.64787 10.13456,-5.68546 28.46789,-2.0188 27.5,5.5 31.44825,32.22719 49.5,36.66667 13.19846,3.24591 17.65606,-8.93733 32.32255,-9.0111 30.92745,-0.15557 86.84412,60.34443 86.84412,60.34443 L 494.99999,330 -5e-6,330 -5e-6,9.2999999e-6 C -5e-6,9.2999999e-6 117.33333,51.333344 154,58.666677 z"
     id="path3060"
     style="fill:#10693c;fill-opacity:1;stroke:none" />
  <path
     d="m 199.26396,243.34937 c 0,0 29.50631,38.27285 46.89519,38.13277 9.10017,-0.0733 18.11969,-5.17552 27.42314,-5.19253 14.34145,-0.0262 27.87499,18.31161 38.05164,31.4798 4.08551,5.28649 6.60253,5.40254 18.09276,5.35482 11.92356,-0.0495 19.90179,-1.68436 33.63344,-1.69804 21.30335,-0.0212 34.61997,7.73801 50.97319,18.57381 l 80.66667,0 0,-17.41666 c -20.77756,-13.23907 -74.74929,-41.4896 -101.44127,-40.87133 -22.03569,0.51042 -46.46136,13.01227 -61.95968,12.8509 -13.40535,-0.13957 -27.36899,-26.53772 -47.50244,-26.39025 -12.36157,0.0906 -22.99555,11.90241 -35.33995,11.24455 -15.65243,-0.83413 -49.49269,-26.06784 -49.49269,-26.06784 z"
     id="path3832"
     style="fill:#0038a6;fill-opacity:1;stroke:none" />
  <g
     id="g3840">
    <path
       d="m 913.41615,1402.5932 c 31.53502,-7.6492 72.7212,-20.4927 112.40685,-41.5994 -12.7031,21.259 -15.9427,33.0545 -22.1273,47.795 20.0607,-13.6436 46.7252,-34.7165 58.4161,-38.9441 0.1168,17.3484 7.1322,31.2476 14.1615,45.1398 2.8791,-20.5243 9.2221,-39.0692 20.3571,-54.8758 14.44,40.0479 59.7698,40.0895 97.8028,48.6801 -100.443,-99.5969 -73.7587,-233.5584 -73.9053,-308.7888 l -96.4751,0 c -1.7132,144.3577 2.484,166.423 -110.63665,302.5932 z"
       transform="matrix(0.18333333,0,0,0.18333333,-5e-6,0)"
       id="path3836"
       style="fill:#833c0b;fill-opacity:1;stroke:#000000;stroke-width:5;stroke-linecap:butt;stroke-linejoin:miter;stroke-miterlimit:4;stroke-opacity:1;stroke-dasharray:none" />
    <path
       d="m 1050.163,1104.3168 c -27.9523,15.9681 -115.37085,31.2776 -114.61952,-30.9783 -139.9177,65.2464 -123.03275,-209.86406 22.01526,-200.85618 61.05086,-59.44437 127.72896,-30.25509 152.70866,5.00685 63.5766,-76.59632 178.6892,-35.74109 150.2053,93.8783 38.8628,12.63486 0.7561,59.28553 -20.6532,83.23883 18.0566,30.5074 64.4039,72.4888 -82.6129,60.7079 -37.064,31.142 -71.568,5.5118 -107.0436,-10.9974 z"
       transform="matrix(0.18333333,0,0,0.18333333,-5e-6,0)"
       id="path3838"
       style="fill:#10693c;fill-opacity:1;stroke:#000000;stroke-width:5;stroke-linecap:butt;stroke-linejoin:miter;stroke-miterlimit:4;stroke-opacity:1;stroke-dasharray:none" />
  </g>
  <use
     transform="matrix(0.74920256,0,0,0.74920256,117.95877,-66.148834)"
     id="use3844"
     x="0"
     y="0"
     width="495"
     height="330"
     xlink:href="#g3840" />
  <use
     transform="matrix(0.74920256,0,0,0.74920256,199.1948,-34.021591)"
     id="use3846"
     x="0"
     y="0"
     width="495"
     height="330"
     xlink:href="#g3840" />
  <path
     d="M -4.9999999e-6,0 183.33333,0 l 0,110 L -4.9999999e-6,110 z"
     id="path3780"
     style="fill:#bf0a30;stroke:none" />
  <path
     d="m -4.9999999e-6,10 0,10 L 183.33333,20 l 0,-10 z m 0,20.000003 0,10 183.3333349999999,0 0,-10 z m 0,20 0,10 183.3333349999999,0 0,-10 z m 0,20 0,10 183.3333349999999,0 0,-10 z m 0,20 0,9.999997 L 183.33333,100 l 0,-9.999997 z"
     id="path3782"
     style="font-size:medium;font-style:normal;font-variant:normal;font-weight:normal;font-stretch:normal;text-indent:0;text-align:start;text-decoration:none;line-height:normal;letter-spacing:normal;word-spacing:normal;text-transform:none;direction:ltr;block-progression:tb;writing-mode:lr-tb;text-anchor:start;baseline-shift:baseline;color:#000000;fill:#ffffff;fill-opacity:1;fill-rule:nonzero;stroke:none;stroke-width:10;marker:none;visibility:visible;display:inline;overflow:visible;enable-background:accumulate;font-family:Sans;-inkscape-font-specification:Sans" />
  <path
     d="M -4.9999999e-6,0 49.999995,0 l 0,50.000003 -49.9999999999999,0 z"
     id="path3784"
     style="fill:#002868;stroke:none" />
  <g
     transform="matrix(15,0,0,15,24.999995,25)"
     id="g3786"
     style="stroke:none">
    <g
       id="g3788"
       style="stroke:none">
      <polygon
         points="0,1 0.5,1 0,0 "
         transform="matrix(0.95105652,0.30901699,-0.30901699,0.95105652,0,-1)"
         id="polygon3790"
         style="fill:#ffffff;stroke:none" />
      <polygon
         points="0,0 0,1 0.5,1 "
         transform="matrix(-0.95105652,0.30901699,0.30901699,0.95105652,0,-1)"
         id="use3792"
         style="fill:#ffffff;stroke:none" />
    </g>
    <g
       transform="matrix(0.30901699,0.95105652,-0.95105652,0.30901699,0,0)"
       id="use3794"
       style="stroke:none">
      <polygon
         points="0,0 0,1 0.5,1 "
         transform="matrix(0.95105652,0.30901699,-0.30901699,0.95105652,0,-1)"
         id="polygon3849"
         style="fill:#ffffff;stroke:none" />
      <polygon
         points="0,0 0,1 0.5,1 "
         transform="matrix(-0.95105652,0.30901699,0.30901699,0.95105652,0,-1)"
         id="use3851"
         style="fill:#ffffff;stroke:none" />
    </g>
    <g
       transform="matrix(0.30901699,-0.95105652,0.95105652,0.30901699,0,0)"
       id="use3796"
       style="stroke:none">
      <polygon
         points="0,0 0,1 0.5,1 "
         transform="matrix(0.95105652,0.30901699,-0.30901699,0.95105652,0,-1)"
         id="polygon3855"
         style="fill:#ffffff;stroke:none" />
      <polygon
         points="0,0 0,1 0.5,1 "
         transform="matrix(-0.95105652,0.30901699,0.30901699,0.95105652,0,-1)"
         id="use3857"
         style="fill:#ffffff;stroke:none" />
    </g>
    <g
       transform="matrix(-0.80901699,0.58778525,-0.58778525,-0.80901699,0,0)"
       id="use3798"
       style="stroke:none">
      <polygon
         points="0,0 0,1 0.5,1 "
         transform="matrix(0.95105652,0.30901699,-0.30901699,0.95105652,0,-1)"
         id="polygon3861"
         style="fill:#ffffff;stroke:none" />
      <polygon
         points="0,0 0,1 0.5,1 "
         transform="matrix(-0.95105652,0.30901699,0.30901699,0.95105652,0,-1)"
         id="use3863"
         style="fill:#ffffff;stroke:none" />
    </g>
    <g
       transform="matrix(-0.80901699,-0.58778525,0.58778525,-0.80901699,0,0)"
       id="use3800"
       style="stroke:none">
      <polygon
         points="0,0 0,1 0.5,1 "
         transform="matrix(0.95105652,0.30901699,-0.30901699,0.95105652,0,-1)"
         id="polygon3867"
         style="fill:#ffffff;stroke:none" />
      <polygon
         points="0,0 0,1 0.5,1 "
         transform="matrix(-0.95105652,0.30901699,0.30901699,0.95105652,0,-1)"
         id="use3869"
         style="fill:#ffffff;stroke:none" />
    </g>
  </g>
</svg>
