<?xml version="1.0" encoding="utf-8"?><!DOCTYPE svg PUBLIC "-//W3C//DTD SVG 1.1//EN" "http://www.w3.org/Graphics/SVG/1.1/DTD/svg11.dtd"><svg version="1.1" xmlns="http://www.w3.org/2000/svg" width="1000px" height="600px">
<rect id="rect5043_1_" fill="#ED1C24" width="1000" height="600"/><path fill="#FFFFFF" d="M717.606,395.229c34.941-6.091,23.324-45.122,30.362-52.964c-2.843-1.733-5.737-0.944-7.758,1.437
	c-1.745-18.91-20.448-32.572-26.979-48.858c-1.797,1.239-3.233,3.919-4.615,6.811c-14.673-18.07-16.238-36.138-11.18-54.202
	c-15.17,3.041-22.241,20.472-22.604,49.827c-5.127-7.161-5.676-16.613-5.838-26.25c-6.906,12.405-12.559,24.898-2.915,42.288
	c6.957,9.946,15.149,18.646,26.011,29.411c3.587,3.952,12.409,10.441,4.858,15.249c-9.704,3.115-17.404,1.271-25.033-2.606
	c-15.498-9.371-28.95-20.496-41.563-32.326c-9.668-7.137-20.218-11.644-31.115-15.074c4.276-7.164,9.39-14.442,0.249-19.93
	c-2.998-0.972-6.003-1.943-8.996-2.918v-13.365c11.219,8.268,23.178,15.509,36.459,20.901
	c37.127-39.382,43.256-89.629,13.125-141.702c-7.212,1.214-14.424,2.432-21.633,3.644c-3.322-5.604-10.615-6.879-18.475-7.533
	c0.965-1.362,1.412-3.467,0.731-5.233c-20.37,2.822-3.473-14.394-0.42-18.532c5.587-7.565,5.112-13.446,1.322-20.097
	c-4.534-7.539-10.04-14.406-16.22-20.308c-8.25,0.354-16.221,3.245-24.063,7.296l-4.614-3.161
	c-5.59,6.723-11.801,14.529-17.39,21.255c1.703,0.483,4.021-0.108,6.495-0.084c-0.687,3.461-2.987,6.813-4.906,9.455
	c-0.62,1.421-0.216,2.636,1.215,3.646c-1.518,1.574-1.604,3.358-0.243,5.344c0.255,2.144-0.624,5.728-2.012,8.286
	c-1.4-0.345-3.215-0.141-4.573,0.938c-1.745,1.391-2.753,4.237-1.19,9.248l-1.461,0.731c-9.281-6.075-18.259-11.845-26.311-17.92
	c1.134-0.65,2.573-1.604,3.709-2.252c-2.836-1.619-5.515-3.856-8.351-5.481c-0.813-3.4-1.932-6.804-2.741-10.208
	c-1.053,0.566-1.952,1.754-3.002,2.321l-5.373-10.696l4.152-4.618c-7.151-2.495-8.198-9.488-7.535-17.744
	c51.854-0.726,103.705-1.457,155.559-2.186c13.146-0.786,25.288-2.798,32.569-10.696c-7.527-7.389-19.426-10.399-34.029-10.696
	c-51.446-0.321-102.896-0.645-154.342-0.969c-0.354-7.869-0.456-16.508,7.911-18.961l-9.123-8.744
	c-7.73,3.442-11.074,14.669-13.437,25.957c-3.806-1.946-7.309-4.816-11.113-6.759c-2.123-0.345-2.601,2.045-3.401,3.889
	c-10.313-0.507-15.155,4.276-18.475,9.941l-25.276,0.027l-0.354-8.111c-18.619,1.397-17.825,27.36-0.135,28.041l0.423-7.47
	l25.099-0.063c1.227,4.45,4.159,8.912,8.265,13.365c-3.125,6.906-6.504,13.683-10.45,20.172c9.716,1.221,20.4,1.476,31.354,1.458
	c1.76,4.207,3.728,8.51,7.137,13.125c-0.891,0.324-1.628,0.65-2.519,0.971c2.617,5.092,4.786,10.37,5.344,16.286l12.819,9.236
	l2.096-0.948c6.31,8.957,13.647,17.941,23.246,25.255c4.043,20.475,13.324,42.18,16.283,60.802c-9.56,2.273-19.119,2.813-28.68,3.85
	c0.243-8.918-1.958-17.107-5.832-24.793c2.32-0.12,3.865-0.857,5.104-2.672c-7.014-5.841-4.471-13.224-9.476-17.989
	c0.888-0.972,1.781-1.937,2.669-2.915c-5.485-3.838-4.499-12.916-10.448-17.987c-13.74-23.144-26.71-29.885-39.619-35.244
	c-0.081-0.969-0.162-1.943-0.243-2.915c-5.104-1.751-10.207-2.648-15.312-3.164l-0.245-3.158
	c-7.938-2.909-15.879-3.382-23.819-2.186c-5.602-10.184-19.681-8.187-26.979-14.826c-7.497,1.682-2.174,6.687,1.232,10.049
	c-2.917-0.57-7.53-2.522-9.982-3.245c-1.886,3.116,0.545,6.438,7.29,9.965l-12.879,7.293c0.267,2.651,3.08,4.738,7.044,6.561
	c-4.777,5.428-9.56,10.858-14.34,16.286c-5.589,6.483-11.179,12.96-16.769,19.444c-2.189,2.432-4.375,4.861-6.564,7.29
	c-2.756,3.488-5.506,6.972-8.265,10.451c-2.681,3.893-1.688,7.779,0.975,11.668c-0.51,5.191-1.883,10.241,3.158,16.289
	c2.819,1.733,5.767,2.054,8.996-0.731c0.648-2.351,1.292-4.699,1.94-7.047c2.756-2.271,5.512-4.537,8.268-6.807
	c1.541,2.108,3.08,4.216,4.618,6.318c-1.379,1.458-2.756,2.918-4.135,4.375l2.189,4.375c-0.891,0.729-1.781,1.458-2.672,2.189
	c-1.266,6.286,3.125,5.65,6.558,4.132c9.761-0.818,16.943-5.101,18.478-17.015c3.083,2.429,4.891,5.491,3.886,9.965
	c-2.594,5.185-5.185,10.37-7.778,15.554c-4.525,0.342-7.188,3.94-7.581,7.656c-0.387,3.712,1.49,7.554,6.042,8.367
	c2.966,0.527,6.342-0.804,8.588-4.354c1.521-2.711,1.601-5.628,0.24-8.75c5.431,1.541,10.858,3.08,16.286,4.618
	c-1.538,2.834-3.077,5.671-4.618,8.508c-6.633,0.44-12.433,4.219-17.012,12.882c-3.242,4.939-6.483,9.884-9.722,14.826
	c-4.495-4.426-10.007-7.527-16.388-9.779c-3.812-1.34-6.414-1.964-8.594-1.985c-3.185-0.036-5.467,1.19-9.29,3.257
	c-17.744,10.777-35.487,21.552-53.228,32.326c-2.854,2.582-5.353,5.347-6.564,8.75c-5.431,13.533-10.855,27.063-16.283,40.594
	c0.729,2.672,1.458,5.344,2.183,8.021c4.135-1.136,8.268-2.267,12.396-3.403c-1.967,5.083-3.13,9.38-3.685,13.734
	c-0.69,5.38-0.447,10.841,0.348,17.959c0.972,8.667,1.544,17.324,2.609,25.909c1.784,2.024,3.565,4.052,5.35,6.078
	c9.233-10.45,18.472-20.906,27.706-31.357c-1.812-2.233-3.701-4.024-5.722-5.541c-2.606-1.952-5.434-3.458-8.618-4.909
	c-1.439-6.211,0.839-10.664,4.396-10.916c2.138-0.155,4.738,1.203,7.272,4.598c5.011-4.468,5.868-10.643,3.889-17.983
	c5.275-7.842,10.981-15.468,17.228-22.814c3.887-4.576,6.003-7.518,12.397-8.019c7.056-0.555,10.475,3.683,13.56,9.254
	c2.474,4.459,4.111,9.422,4.696,15.012c8.912,11.506,17.827,23.013,26.739,34.516c1.544,2.099,3.608,3.683,6.804,4.132
	c2.996,0.279,5.995,0.3,8.99-0.243c3.428-1.421,5.848-3.502,6.807-6.561c7.129,2.507,14.263,5.02,21.388,7.532l3.403,1.704
	c-0.647,1.619-1.296,3.241-1.94,4.857c-4.243,0.012-7.713,1.691-9.484,7.053c-17.654,1.203-33.139,9.087-45.446,26.734
	c2.51,1.865,5.023,3.727,7.533,5.592c4.744-7.014,10.621-9.215,17.015-9.238c0.078,1.544,0.159,3.082,0.24,4.621
	c10.373,0.968,20.743,1.939,31.115,2.917c0.482-1.379,0.969-2.756,1.457-4.135c3.485,0.972,7.122,2.252,10.607,3.229
	c0.968-1.787,1.79-3.877,2.762-5.658c8.342,2.914,16.69,5.832,25.033,8.75c-4.78,3.56-10.64,7.59-15.423,11.152
	c7.377-0.321,15.83-1.109,23.201-1.434c5.104,6.888,10.211,13.776,15.314,20.661l-3.163-25.762
	c5.916-3.649,11.83-7.293,17.743-10.939c-7.047-0.243-14.097-0.177-21.145-0.423c-4.051-5.668-8.099-11.647-12.153-17.317
	c0.162,5.344,0.327,10.69,0.485,16.04c-8.828-3.002-17.662-5.995-26.49-8.996c3.179-6.841,8.99-11.833,16.283-15.795
	c16.349,4.75,33.456,7.212,51.041,8.262c0.327,16.61,0.65,33.217,0.975,49.827c-0.186,14.628,2.714,28.358,12.396,40.104
	c7.917-10.058,10.825-23.807,10.934-39.619c-0.24-16.85-0.482-33.702-0.729-50.556c2.642,0.066,5.341,0.447,6.336,2.402
	c0.513,1.025,1.116,2.129,1.781,3.29c2.747,4.804,2.042,4.779,7.221,3.574c4.909-1.14,10.104-1.8,14.757-1.974
	c0.297,7.569,2.147,13.765,5.665,18.691c3.521,4.93,8.714,8.595,15.707,11.116c9.491,4.975,17.188,10.328,23.402,16.127
	c3.308,7.206,5.361,14.502,2.911,22.119c-5.199,9.284-10.255,18.525-16.066,27.63c-2.882,4.52-4.511,7.266-9.038,10.007
	c-15.899,9.617-33.526,20.763-41.491,37.955c-0.326,2.678-0.647,5.35-0.968,8.021l18.472-0.486v5.59
	c13.854,0.078,27.705,0.162,41.56,0.24c0.075-4.369,0.162-8.744,0.24-13.123c4.102-10.345,10.265-11.235,18.469-2.672
	c4.444-4.924,7.209-10.843,7.542-18.231c12.234-19.36,24.467-38.729,36.698-58.089c2.171-2.852,3.49-5.725,3.845-8.621
	c0.611-4.885-0.895-8.103-3.476-10.45c-3.772-3.431-9.83-4.999-14.949-7.183c-5.305-3.157-9.19-7.479-9.968-14.337
	c1.722-13.8,15.504-25.6,22.365-39.864c2.063-10.862,2.485-20.316,1.874-30.98c1.34,0.582,3.134,1.374,3.748,2.87
	c10.198,24.739,48.543,50.21,70.761,23.099C730.873,398.231,723.673,398.145,717.606,395.229z"/><path id="path2944_1_" fill="#ED1C24" d="M380.406,205.548c2.099-2.198,4.198-4.399,6.291-6.6c7.341,0.21,14.397-0.714,21.333-2.144
	c2.123,12.187-0.187,22.742-5.833,32.065c-5.371-1.634-10.741-3.275-16.115-4.909C387.234,216.748,386.214,210.304,380.406,205.548"/><path id="path247_1_" fill="#ED1C24" d="M503.122,246.021c-0.236,1.697-0.474,3.389-0.71,5.086
	c5.292,1.812,9.979,4.201,12.504,8.648c7.687-4.513,14.208-9.974,18.839-16.964C523.544,243.869,513.336,244.945,503.122,246.021"/><path id="path2960_1_" fill="#00ADEF" d="M583.077,322.84c2.349,5.761,2.834,14.646,1.898,21.828
	c9.662,3.463,18.793,7.287,27.391,11.383c0.608-15.944,0.533-32.302-6.576-45.209c3.331,1.251,5.568,2.816,8.909,4.066
	c6.894,11.141,6.402,28.806,6.097,45.317c16.469,8.498,30.829,17.926,43.136,27.519c-0.782,4.111-1.562,8.231-2.342,12.349
	c-9.338-10.84-23.102-20.961-41.169-30.392c-0.495,15.684,0.222,29.046,9.284,32.89c0.051,2.187,0.102,4.375,0.155,6.564
	c-1.67,0.627-3.331,1.251-5.002,1.877c-13.557-8.207-13.674-25.936-12.885-45.541c-8.382-3.994-17.57-7.854-27.553-11.587
	c-0.645,13.02-0.162,26.742,9.026,35.87c-0.156,2.24-0.315,4.483-0.471,6.721c-2.66,0.054-5.314,0.102-7.971,0.158
	c-12.28-16.757-10.457-32.137-9.317-45.913c-9.442-3.313-21.491-6.96-32.455-10.115c-1.823,0.478-3.523,0.895-5.086,1.269
	c-0.162-9.809-0.32-19.617-0.491-29.423c5.763-4.783,11.523-9.563,17.293-14.346c14.331-0.561,24.284-4.711,27.825-14.097
	c5.068,0.33,10.133,0.516,15.204,3.185c7.967,3.904,7.493,9.341,4.656,15.204C597.046,310.932,590.257,317.592,583.077,322.84"/><path id="path2958_1_" fill="#00ADEF" d="M559.424,171.509l77.864-15.536c23.091,33.96,26.596,91.119-11.341,131.551
	C580.34,269.064,553.999,226.254,559.424,171.509"/><path id="path2956_1_" fill="#FFFFFF" d="M558.155,335.978c5.929,1.712,13.152,4.103,18.028,5.686
	c0.021-3.622-0.867-8.909-2.045-13.063C568.734,331.659,563.298,334.062,558.155,335.978"/><path id="path2954_1_" fill="#00ADEF" d="M495.308,347.699c0.351,3.812-0.294,7.623-2.393,11.435
	c-1.137-0.459-2.271-0.921-3.407-1.383c-1.469,7.275-4.566,13.936-8.006,20.473c5.677,0.06,11.35,0.123,17.026,0.186
	c1.044-6.153,3.929-9.842,8.651-11.068l-0.186-27.759C504.268,343.594,500.237,346.146,495.308,347.699"/><path id="path2952_1_" fill="#00ADEF" d="M357.094,288.708c-1.308,2.39-2.612,4.783-3.919,7.176
	c2.972,3.244,5.946,6.492,8.918,9.742c31.154-12.756,67.124-16.286,106.728-12.861l1.754,8.396l-51.89,85.56
	c1.847,0.944,3.163,1.893,5.011,2.843c12.97-17.239,25.938-34.477,38.908-51.713c0.18-3.344,0.36-6.684,0.54-10.019
	c3.563-5.022,9.233-8.627,17.023-10.831c9.851-16.832,21.016-32.723,35.802-46.031c-0.188-17.836-9.725-20.811-21.885-19.63
	c-12.93,3.631-19.569,13.065-23.345,25.142C431.471,273.631,393.543,277.487,357.094,288.708"/><path id="path2950_1_" fill="#00ADEF" d="M378.462,220.967c-2.627,4.852-5.254,9.71-7.877,14.565
	c48.087,15.002,105.51,16.349,171.428,5.25c12.085-2.822,5.649-10.975-0.95-9.788C478.128,242.846,424.196,239.038,378.462,220.967"/><path id="path249_1_" fill="#00ADEF" d="M341.29,175.126c-1.982,2.147-3.958,4.3-5.94,6.45c8.619,3.589,15.813,8.897,22.029,15.372
	c4.423-5.572,9.392-6.187,14.055-0.222c10.15-9.839,19.845-19.944,29.99-29.78c1.487,0,2.611,0.357,4.096,0.357
	c4.097,6.333,7.527,13.53,7.785,23.471c2.519-0.942,5.161-1.791,7.92-2.006c-0.108-12.844-4.058-21.402-10.643-27.031
	c0.165-1.49,0.333-2.975,0.494-4.462c7.362-5.023,10.739-12.469,11.384-21.576c-2.612-1.746-5.578-2.405-8.906-1.985
	c-0.465,7.065-3.59,13.722-10.531,18.622c-6.313-6.585-13.318-12.333-21.549-16.751c-5.494,1.484-7.617,2.87-9.743,5.074
	c8.271,3.835,16.466,8.942,24.5,16.862c-0.165,1.322-0.42,2.102-0.588,3.424c-10.31,9.839-21.249,20.844-31.564,30.686
	C356.128,184.62,349,178.526,341.29,175.126"/><path id="path2982_1_" fill="#FDB913" d="M412.873,405.439c-5.82,8.352-13.881,13.963-22.67,18.68
	c0.267,1.389,0.534,2.776,0.8,4.168c10.241,1.07,20.476,2.139,30.713,3.206c0.426-1.229,0.854-2.459,1.28-3.686
	c-2.455-2.966-4.107-6.066-4.003-9.461l43.035,15.869l-14.88,10.585l22.557-1.124l15.518,21.162l-3.199-25.811l17.756-11.704
	l-21.594,0.321l-11.84-17.477l0.318,15.074c-15.995-5.188-31.993-10.369-47.988-15.551c0.141-0.648,0.332-0.387,0.962-0.387
	c4.237,0,7.677-3.29,7.677-7.338c0-4.055-3.439-7.345-7.677-7.345c-4.243,0-7.677,3.29-7.677,7.345
	C411.961,403.221,412.288,404.405,412.873,405.439"/><path id="path2980_1_" fill="#FDB913" d="M636.47,236.117l-12.514,2.693l3.101,13.813c0.854,3.458,1.907,4.525,4.504,6.03
	l-21.572,4.78c1.916-2.933,2.21-4.945,1.625-7.212l-3.044-14.328l-16.214,3.389c-2.992,1.085-3.697,1.403-5.629,4.087l-4.065-19.744
	c1.646,1.182,2.92,1.386,6.078,1.107l16.751-3.329l-3.949-17.854l-15.717,3.188c-2.33,0.567-4.249,1.589-5.887,4.348l-4.317-19.666
	c2.336,1.316,4.53,1.661,7.059,1.169l16.064-3.248l-2.517-12.757c-0.875-2.333-1.82-3.568-4.312-5.368l20.274-4.201
	c-1.814,2.213-1.224,4.876-0.819,6.882L613.901,192l12.586-2.813c3.676-0.753,5.266-1.833,7.269-4.678l4.441,20.479
	c-2.52-2.045-4.507-1.628-7.281-1.389l-13.767,2.828l3.521,17.284l14.145-2.854c2.423-0.507,4.282-1.046,5.758-3.917l4.381,19.891
	C641.942,234.708,638.716,235.697,636.47,236.117"/><path id="path2978_1_" fill="#FDB913" d="M371.238,236.369c4.195,0,7.59,3.398,7.59,7.593c0,4.189-3.395,7.587-7.59,7.587
	c-4.192,0-7.589-3.397-7.589-7.587C363.649,239.767,367.046,236.369,371.238,236.369"/><path id="path2976_1_" fill="#FDB913" d="M369.043,205.158c5.632,3.059,10.378,7.005,10.139,15.953l7.365,3.059
	c0.417-12.556-4.531-20.568-14.844-24.041c0.021-0.207,0.03-0.417,0.03-0.633c0-4.027-3.269-7.296-7.296-7.296
	s-7.296,3.269-7.296,7.296s3.269,7.296,7.296,7.296C366.183,206.792,367.784,206.184,369.043,205.158"/><path id="path2974_1_" fill="#FDB913" d="M403.475,152.375c4.027,0,7.299,3.266,7.299,7.296c0,4.027-3.271,7.293-7.299,7.293
	s-7.296-3.266-7.296-7.293C396.179,155.64,399.447,152.375,403.475,152.375"/><path id="path2972_1_" fill="#FDB913" d="M485.466,106.143c-16.475-8.006-17.815-69.741,0.189-79.865l8.588,9.191
	c-1.988,1.304-6.801,2.6-7.038,8.261l-0.743,43.709c0.18,4.933,6.255,8.163,8.63,9.221L485.466,106.143z"/><path id="path2970_1_" fill="#FDB913" d="M413.674,79.536c-19.936-1.781-17.804-26.056-0.378-26.242l0.102,7.083L447.7,60.62
	c2.474,2.576,4.171,8.6,4.129,11.647l-38.264-0.201L413.674,79.536z"/><path id="path2968_1_" fill="#FDB913" d="M579.998,341.165c4.141,0,7.5,3.358,7.5,7.503c0,4.142-3.359,7.503-7.5,7.503
	c-4.145,0-7.503-3.361-7.503-7.503C572.495,344.523,575.854,341.165,579.998,341.165"/><path id="path2966_1_" fill="#FDB913" d="M616.259,355.232c4.144,0,7.499,3.358,7.499,7.5c0,4.141-3.355,7.509-7.499,7.509
	c-4.142,0-7.509-3.368-7.509-7.509C608.75,358.591,612.12,355.232,616.259,355.232"/><path id="path2964_1_" fill="#FDB913" d="M507.012,289.848h23.303c0.069,2.792,0.147,5.581,0.22,8.369
	c-9.81,0.054-10.226,11.531-0.111,12.448c-0.072,2.495-0.144,4.996-0.216,7.494c-7.806,0.146-15.611,0.291-23.414,0.438
	c-0.069-2.387-0.147-4.773-0.219-7.158c11.536-1.223,11.914-12.738,0.326-12.888C506.937,295.65,506.97,292.748,507.012,289.848"/><path id="path251_1_" fill="#FDB913" d="M362.284,304.959c1.742,2.255,3.479,4.513,5.218,6.771
	c26.173-7.646,51.947-15.497,103.714-10.063c-0.704-2.903-1.415-5.806-2.123-8.708C436.959,289.266,396.029,292.973,362.284,304.959"/><path d="M741.605,379.398c2.948-6.045,3.632-12.996,4.105-19.636c0.435-6.012,0.558-12.103,3.713-17.422
	c-2.924-2.15-5.743-2.333-8.49-1.164c-4.549-21.081-23.765-33.118-26.955-48.495c-2.267,1.238-4.016,3.305-5.41,5.94
	c-15.665-15.86-15.755-40.567-7.215-53.692c-20.373,6.261-27.061,20.382-27.624,49.572c-2.687-5.083-2.837-14.967-2.456-26.842
	c-8.585,6.318-11.506,19.507-11.512,29.192c-0.006,7.035,2.018,12.847,5.185,18.067c4.873,8.024,11.482,14.574,17.962,21.255
	c1.736,1.803,14.841,14.373,14.841,17.678c0.003,2.612-2.186,3.422-4.186,4.042c-8.061,2.504-15.815,0.327-23.349-4.474
	c-4.318-2.75-8.423-6.108-12.559-9.161c-6.061-4.478-11.806-9.284-17.611-14.034c-4.129-3.367-7.82-7.407-12.118-10.517
	c-7.02-5.086-17.875-8.861-26.628-12.091c4.369-7.998,5.154-12.913,3.598-16.238c-1.763-3.775-6.537-5.515-12.525-7.4
	c-0.144-2.936-0.42-6.711-0.566-9.65c10.066,8.187,22.809,15.516,36.116,21.534c22.871-26.845,33.973-54.919,32.923-83.991
	c-0.731-20.218-7.35-40.921-19.978-62.02c-7.355,0.984-14.663,2.174-22.022,3.551c-4.12-5.323-10.727-6.052-16.981-6.303
	c0.339-1.841,0.12-3.922-0.312-5.761c-2.201,0.507-7.818,1.101-9.188-1.523c-1.688-3.242,5.509-10.672,7.296-13.089
	c2.261-3.05,4.552-5.59,5.416-9.383c0.707-3.116,0.497-6.363-0.522-9.722c-1.511-4.978-4.426-8.93-7.571-12.981
	c-3.623-4.666-7.566-9.122-11.71-13.446c-8.163,1.724-15.726,4.69-23.369,8.097c-1.736-1.235-3.431-2.882-4.646-4.378
	c-6.333,8.459-13.086,16.837-20.586,25.039c1.812,0.642,4.759,0.36,7.08,0.483c-0.563,2.585-2.084,5.173-3.683,7.476
	c-0.915,1.064-1.008,2.408-0.213,3.071c0.734,0.525,0.837,1.218,0.534,2.018c-0.285,0.567-0.441,0.636-0.723,1.203
	c-0.357,0.972-0.207,2.042,0.821,2.729c0.614,1.073-0.222,1.898-0.366,3.196c-0.129,1.176,0.255,0.987-0.504,1.88
	c-0.339,0.405-0.563,0.912-0.533,1.413c0,1.133-0.507,1.085-1.565,1.151c-1.157,0.045-2.058,0.306-2.726,0.696
	c-2.816,1.634-2.369,7.047-1.94,9.704c-8.369-5.847-18.064-10.496-24.515-16.343c1.098-0.813,2.195-1.625,3.293-2.438
	c-2.693-2.195-5.581-4.139-8.808-5.623c-0.869-4.486-2.204-8.04-3.61-11.461c-1.056,0.6-2.252,1.466-3.313,2.066
	c-1.308-2.828-2.483-5.926-3.794-8.753c1.806-2.027,3.611-4.159,5.41-6.363c-8.738-0.951-11.071-6.538-9.021-15.282
	c50.367,0,100.409-1.595,150.779-1.595c6.517-0.078,12.502-0.528,18.142-1.757c7.734-1.682,14.823-4.819,21.771-10.441
	c-3.686-2.78-7.536-5.227-11.642-7.113c-3.196-1.469-6.552-2.6-10.111-3.286c-12.363-1.883-25.265-1.476-37.772-1.614
	c-30.493-0.333-60.984-0.716-91.476-1.043c-13.191-0.21-26.587-0.354-39.781-0.57c0.019-2.03,0.039-4.057,0.058-6.09
	c0.032-3.595-0.559-5.295,2.569-7.563c1.655-1.2,3.706-2.051,6.061-2.54c-3.677-4.177-7.356-8.349-11.038-12.522
	c-5.482,4.045-12.514,11.674-14.059,26.434c-4.264-0.405-5.938-3.17-7.661-4.945c-1.607-1.652-3.761-2.705-5.521-0.519
	c-0.78,0.963-1.368,2.258-1.896,3.146c-7.8,1.536-16.221,3.926-18.101,10.52h-24.086V51.38c-8.391-0.18-13.248,2.798-15.458,8.708
	c-1.713,4.594-1.644,9.509,0.356,14.019c2.072,4.675,6.399,7.83,15.102,8.045V74.62h22.497c1.973,3.757,4.09,7.458,7.851,10.501
	c0.401,0.3,0.543,0.867,0.426,1.697c-3.374,7.011-6.844,13.968-11.461,20.266c-0.795,0.693-0.618,1.119,0.527,1.277
	c9.872,0.714,20.02,1.095,30.772,0.744c0.885-0.144,1.593,0.243,2.124,1.164c1.427,3.518,3.739,7.35,5.877,10.511
	c-0.527,0.59-1.557,1.238-1.949,1.52c2.927,5.131,4.858,11.947,5.836,17.789c4.899,2.36,9.419,5.631,13.794,9.23l1.631-0.891
	c6.229,7.944,12.316,15.768,21.195,23.636c1.266,1.125,1.709,2.492,2.061,4.12c0.639,3.011,1.382,5.998,2.219,8.972
	c3.335,11.899,12.531,36.296,12.67,47.149c-8.741,1.355-17.234,2.762-25.799,3.35c-0.413-7.896-1.235-16.484-4.849-22.242
	c1.767-1.43,2.98-3.221,4.042-4.831c-6.603-5.334-3.037-11.284-8.078-16.496c0.978-1.208,1.712-2.54,2.339-3.928
	c-7.134-3.653-5.245-14.355-11.251-18.143c-7.317-16.325-24.557-28.131-39.58-36.398c0.291-0.675,0.275-1.343,0.213-2.015
	c-4.918-2.111-10.217-2.876-15.491-3.718c0.102-0.99-0.294-2.048-0.585-3.035c-8.724-3.031-15.938-3.109-24.179-2.678
	c-2.391-3.133-5.395-5.646-8.654-7.113c-6.499-2.924-14.781-1.877-19.534-8.087c-2.123,1.076-3.613,2.141-4.372,3.133
	c-1.577,2.063,2.183,5.62,3.311,7.359c-2.881-0.825-6.099-2.177-8.25-3.466c-1.658,2.594-1.517,4.546-0.5,6.225
	c1.224,2.027,4.183,3.596,6.339,5.476c-4.492,2.231-9.437,4.975-13.932,7.206c2.072,2.756,4.594,5.065,8.01,6.873
	c-10.118,11.674-20.389,23.126-30.506,34.797c-3.113,1.553-5.395,5.167-6.243,8.465c-4.066,3.56-6.516,7.116-9.14,11.488
	c-1.125,2.399-1.146,5.089,0.687,8.261c1.374,2.369,1.313,2.813,0.852,5.614c-0.645,3.898,0.207,7.707,2.552,11.428
	c2.33,3.691,5.041,4.189,8.975,3.062c2.207-0.636,3.838-1.937,4.354-4.675c0.708-3.757,2.807-7.245,8.388-10.115
	c0.486,0.588,3.193,3.616,3.193,4.357c0,1.005-3.694,3.557-4.489,4.246c0.618,1.05,1.238,2.099,1.856,3.155
	c0.474,0.807,0.66,1.271-0.105,1.949c-2.276,2.033-2.861,2.663-1.64,5.119c1.287,2.588,3.25,3.692,6.417,2.633
	c3.778-1.269,7.746-1.257,11.545-3.413c5.481-3.11,7.278-7.536,8.78-13.561c3.127,3.488,3.235,6.969-1.143,13.935
	c-1.599,2.951-3.32,5.902-4.804,8.858c-5.967,1.544-9.323,7.905-6.537,13.524c1.406,2.84,4.324,4.81,8.1,4.633
	c2.915-0.141,5.164-1.367,6.672-3.146c1.937-2.282,2.647-5.569,1.949-9.074c4.069,1.062,8.136,2.123,12.205,3.185
	c-0.92,1.805-1.841,3.61-2.759,5.416c-7.056,1.175-12.925,6.6-16.295,12.669c-2.936,5.284-6.375,10.43-10.237,15.446
	c-6.324-6.99-12.652-8.723-18.979-10.651c-4.153-1.263-6.756-1.691-10.795,0.333c-19.927,9.979-39.856,22.328-59.786,36.527
	c-1.814,1.646-3.329,3.707-4.633,6.15c-1.607,3.012-2.912,6.325-4.324,9.446c-4.66,10.31-8.648,22.73-13.533,33.742
	c1.199,3.434,2.402,6.336,3.604,9.767c3.571-1.196,7.146-2.399,10.717-3.604c-0.941,3.392-2.597,7.143-2.975,10.606
	c-0.957,8.912,2.117,27.987,3.805,46.391c2.231,2.123,4.261,4.44,6.492,6.563c9.905-11.068,19.807-22.14,29.711-33.214
	c-2.825-3.146-5.914-5.854-9.116-8.369c-1.841-1.442-3.625-1.532-5.341-2.738c-1.712-1.199-1.268-3.865-0.765-5.595
	c1.599-5.485,7.629-5.038,9.59,2.488c4.084-3.022,6.984-7.772,6.933-13.428c-0.018-1.787-0.636-3.578-0.492-5.341
	c0.078-0.996,0.456-1.94,1.416-2.777c3.847-6.468,11.011-18.769,18.574-24.868c2.624-2.12,5.299-3.49,7.901-3.613
	c5.797-0.303,9.893,3.865,12.583,8.633c2.411,4.271,3.685,9.419,4.453,14.97c8.543,12.049,16.985,24.134,27.34,35.577
	c2.752,3.047,3.883,4.345,8.366,4.268c3.023-0.052,6.045-0.108,9.071-0.159c0.633-0.138,1.151-0.336,1.583-0.591
	c1.614-0.954,3.032-3.212,4.252-4.609c0.486-0.759,1.434-0.899,2.441-0.953c8.42,3.218,15.2,4.894,18.076,6.438
	c2.297,1.235,1.263,2.588,0.039,4.32c-4.327,0.336-6.777,2.666-7.833,6.412c-18.396,0.888-32.707,10.558-44.351,25.417
	c-1.673,2.084-2.942,3.322-0.558,5.224c2.603,2.081,5.272,3.778,8.525,4.498c2.837-3.781,9.212-10.612,14.919-8.822
	c0.108,1.202,0.147,3.059,0.255,4.264c11.176,1.095,22.355,2.189,33.532,3.287l0.953-4.349l10.397,3.104
	c0.776-1.56,1.79-3.89,2.566-5.446l22.218,7.605l-16.169,11.829l25.555-0.965l18.04,23.983l-3.319-30.164l20.406-12.937
	l-24.781-0.162l-14.268-19.135l0.219,17.356l-23.066-8.072c2.405-5.335,8.459-9.656,14.354-13.107
	c15.411,3.79,32.246,6.594,49.749,7.767c0.525,15.521,0.54,31.343,1.064,46.864c0.555,16.43,2.039,31.937,14.022,44.588
	c9.884-11.113,11.566-30.035,11.566-44.216v-46.934c3.35-0.284,4.749,1.772,6.39,5.56c1.302,2.942,1.322,5.677,5.419,3.965
	c4.061-1.707,8.411-2.705,13.138-2.753c2.365-0.024,2.75,0.818,3.179,3.269c0.891,5.151,1.976,9.764,4.407,13.989
	c1.287,2.23,2.648,3.838,4.688,5.386c5.641,4.294,13.083,7.202,20.257,11.521c8.879,5.344,18.331,13.818,18.325,25.079
	c0,1.4-0.147,2.846-0.456,4.336c-0.312,1.547-0.93,3.232-1.706,4.983c-2.36,5.254-6.318,11.093-8.919,15.507
	c-1.004,1.511-2.015,3.014-2.98,4.489c-1.604,2.429-2.759,4.879-4.187,7.376c-1.112,1.949-2.417,3.452-4.815,5.206
	c-5.803,4.237-12.871,8.396-19.459,12.661c-6.831,4.614-12.373,10.271-17.701,16.583c-3.101,3.673-5.755,7.761-8.46,12.039
	c0.072,2.864,0.147,5.729,0.213,8.598h18.464c0.036,1.979,0.068,3.962,0.104,5.935h43.929c-0.168-3.274-0.168-6.489,0.162-9.575
	c0.521-4.905,2.006-12.618,8.731-11.691c3.503,0.482,6.886,3.712,8.406,7.476c3.939-4.876,6.941-10.363,8.081-16.256
	c0.894-4.598,1.778-7.312,4.63-11.521c9.53-14.052,18.056-28.794,27.715-43.106c2.756-3.862,5.325-7.73,8.024-11.597
	c1.056-1.517,2.057-2.642,2.288-4.533c0.477-3.982-2.735-10.346-4.708-13.663c-1.565-2.572-4.273-2.272-6.855-2.917
	c-2.731-0.684-5.104-1.649-7.185-2.84c-5.186-2.963-11.003-8.385-10.496-14.855c0.223-2.9,1.251-5.309,2.549-7.866
	c4.808-9.491,12.305-17.938,17.773-27.349c3.314-5.706,3.155-9.445,3.425-15.734c0.222-5.082,0.39-10.162,0.066-15.267
	c0.021-0.815,0.384-1.163,1.202-0.503c0.588,0.477,0.915,1.391,1.19,2.398c1.47,5.332,5.218,9.947,8.777,14.106
	c4.777,5.574,10.514,9.791,17.018,13.233c17.075,9.035,37.583,10.495,48.217-9.6c-7.236,2.837-14.961,3.587-20.979,2.931
	C729.775,394.471,737.435,387.945,741.605,379.398z M614.301,316.536c4.727,12.361,6.981,25.738,5.904,38.854
	c-1.826-1.056-4.717-1.127-7.104-0.491c1.056-13.516-0.657-27.732-5.125-41.316C609.943,314.393,612.334,315.352,614.301,316.536z
	 M616.193,369.985c-3.742,0-6.789-3.04-6.789-6.789c0-3.748,3.047-6.792,6.789-6.792c3.751,0,6.795,3.044,6.795,6.792
	C622.988,366.945,619.944,369.985,616.193,369.985z M619.009,371.593c0.006,13.944,0.201,26.389,9.92,32.656
	c-0.024,1.722-0.288,2.963-0.306,4.69l-3.865,1.346c-11.911-6.879-13.104-22.4-12.304-39.238
	C614.396,371.758,616.9,372.019,619.009,371.593z M607.662,363.122c-6.9-3.086-13.701-5.839-20.806-8.517
	c1.395-1.82,2.052-3.881,1.859-6.498c6.96,2.84,14.556,6.078,21.519,8.924C608.618,358.846,607.461,360.504,607.662,363.122z
	 M608.466,322.096c3.523,11.162,3.499,21.837,2.672,33.001c-7.878-3.787-15.282-6.615-23.394-9.68
	c-0.3-0.95-1.473-1.893-2.168-2.642c0.863-6.601,0.21-12.583-1.712-18.586c5.76-4.085,10.903-8.915,15.668-14.205
	C605.397,311.808,606.811,316.881,608.466,322.096z M592.225,390.92c-0.105,1.7-0.223,3.397-0.327,5.098
	c-2.24-0.191-4.177-0.417-6.417-0.611c-8.01-9.53-11.482-22.125-9.491-38.417c1.973,1.125,4.765,1.04,7.173,0.414
	C582.809,374.079,585.097,384.409,592.225,390.92z M580.017,355.699c-3.577,0-6.478-2.902-6.478-6.479
	c0-3.581,2.896-6.48,6.478-6.48c3.58,0,6.48,2.899,6.48,6.48C586.497,352.797,583.597,355.699,580.017,355.699z M573.791,343.024
	c-1.437,1.781-2.378,3.676-2.516,6.033c-7.635-2.633-15.645-5.029-23.282-7.668c3.535-0.846,6.969-1.904,10.22-3.331
	C563.106,339.726,568.897,341.356,573.791,343.024z M561.79,336.523c4.304-1.644,7.848-3.926,11.852-5.794
	c1.352,3.425,1.565,6.603,1.46,10.424C570.55,339.384,566.333,338.292,561.79,336.523z M575.81,329.485
	c2.078-1.161,4.462-2.591,6.336-3.953c2.021,5.263,2.78,10.609,2.016,16.073c-1.991-1.091-4.517-1.367-6.906-0.86
	C577.384,336.958,576.748,333.27,575.81,329.485z M592.389,287.814c5.941,1.35,10.073,2.966,10.403,7.803
	c0.656,9.53-11.018,19.081-17.627,24.266c-14.156,11.104-32.458,18.725-46.357,20.616c-0.035-8.819-0.074-17.636-0.113-26.461
	c5.68-4.611,11.353-9.227,17.018-13.842c11.455-0.312,21.549-3.442,28.284-13.509C586.578,286.735,589.486,287.155,592.389,287.814z
	 M367.329,310.926c-1.085-1.506-2.171-3.008-3.253-4.514c22.466-10.618,78.153-15.755,103.783-12.276
	c0.465,2.12,0.933,4.25,1.397,6.372C433.052,297.702,398.975,300.88,367.329,310.926z M382.82,309.027
	c-2.144,3.604-4.168,7.485-5.761,12.376c-3.928-1.484-5.227-5.176-7.544-8.318C373.764,311.45,378.208,310.116,382.82,309.027z
	 M467.804,291.665c-37.454-1.895-72.638,2-105.453,12.714c-2.618-2.893-4.837-5.034-7.605-8.303c1.101-1.494,2.06-3.221,2.888-4.711
	c36.123-12.316,73.353-15.054,111.466-13.432C467.939,282.492,467.64,287.104,467.804,291.665z M461.531,337.491l-26.029,35.037
	l-5.83-0.387l40.237-68.176c1.932,4.646,4.643,9.274,8.229,13.083c-5.952,1.977-11.206,5.312-15.83,9.93
	C461.345,330.223,461.168,333.755,461.531,337.491z M434.44,374.531l-10.085,13.531l-4.103-1.557l8.241-12.499L434.44,374.531z
	 M462.173,340.208c0.407,2.039,1.017,3.94,1.715,5.695c-12.405,17.27-24.688,34.389-37.094,51.658
	c-1.119-1.511-2.573-2.62-4.223-3.395C435.805,376.109,448.942,358.267,462.173,340.208z M426.719,407.784
	c1.202,0.747,2.408,1.5,3.61,2.246c-0.531,0.937-1.059,1.871-1.589,2.811c-1.722-0.769-3.446-1.539-5.17-2.313
	C424.803,409.722,425.9,408.84,426.719,407.784z M427.969,405.347c0.513-1.745,0.402-3.56,0.094-5.479
	c12.478-17.272,24.958-34.543,37.436-51.813c4.54-1.151,8.9-1.22,12.874,1.071c-1.602,9.796-7.245,17.566-13.74,24.913
	c-5.236,5.922-10.7,10.934-16.577,16.188c-6.343,5.649-12.295,11.484-16.454,18.136C430.35,407.355,429.223,406.354,427.969,405.347
	z M466.439,345.396c-3.35-6.813-2.624-11.342-2.132-16.002c10.769,3.56,20.658,9.659,29.472,18.803
	c0.908,4.138,0.162,7.235-1.332,9.868C483.26,346.074,474.716,344.106,466.439,345.396z M490.234,360.429
	c1.044,0.267,2.084,0.537,3.125,0.807c2.051-3.868,3.526-7.791,2.944-11.896c3.35-1.254,6.415-3.071,9.284-5.278
	c0.09,7.425,0.177,14.847,0.264,22.269c-4.132,1.493-6.954,5.128-8.474,10.915c-4.55,0.963-9.102,1.002-13.659,0.531
	C486.327,372.066,489.095,366.384,490.234,360.429z M505.588,339.768c-2.051,4.09-5.563,5.671-9.284,6.885
	c-10.033-8.31-20.193-15.479-30.703-19.494c3.247-3.446,7.487-6.576,15.263-8.586C486.492,328.682,492.525,338.311,505.588,339.768z
	 M493.003,331.362c3.604-5.856,7.602-12.109,12.405-16.28c0.09,7.245,0.09,14.847,0.18,22.092
	C501.234,337.087,496.607,335.771,493.003,331.362z M480.563,316.054c-5.157-4.882-8.675-12.366-9.761-20.791
	c-2.314-17.944,9.305-46.261,31.757-42.045c7.503,1.409,13.194,7.536,12.537,18.199C501.63,282.999,490.118,298.019,480.563,316.054
	z M489.551,248.954c4.03-0.456,7.971-0.786,12.091-1.214c-0.117,1.139-0.303,1.877-0.423,3.014
	c-4.042-0.192-7.806,0.594-11.485,1.718C489.674,251.32,489.611,250.103,489.551,248.954z M515.046,258.655
	c-3.238-4.306-6.957-6.795-11.359-7.593c0.192-1.007,0.384-2.402,0.579-3.406l27.294-3.113
	C527.788,249.938,521.736,254.424,515.046,258.655z M516.881,260.004c6.841-4.186,13.003-8.807,16.76-14.967
	c0.948-0.096,1.896-0.198,2.844-0.293c1.307,1.877,3.289,3.367,5.46,4.747c-4.53,4.105-8.207,8.546-11.512,13.144
	C526.732,258.736,521.832,259.297,516.881,260.004z M527.8,263.492c-3.919,1.697-7.434,4.066-10.37,6.135
	c-0.018-2.252-0.398-4.876-0.962-7.056C520.534,261.336,524.597,260.898,527.8,263.492z M543.852,250.367
	c1.719,0.345,3.521,0.87,5.071,2.093c-10.559,6.801-16.724,19.141-19.237,36.54l-4.74-0.063
	C526.174,273.403,531.131,260.139,543.852,250.367z M548.827,249.365c-3.179-1.535-7.704-2.093-9.737-5.143
	c-0.552-0.983-0.759-1.811,1.313-1.539c2.18,0.438,5.116-0.447,7.14-2.063c5.845-4.648,0.498-9.743-4.605-10.049
	c1.655-3.637,4.647-5.305,8.567-4.402c2.453,0.327,5.118,0.657,7.571,0.989c2.837,7.323,6.088,14.757,10.574,21.831
	c-4.208,1.799-6.322,8.271-12.217,5.25C554.594,252.475,551.738,250.774,548.827,249.365z M571.503,251.71
	c5.044,7.362,10.796,13.734,17.582,20.028c0.141,3.707,0.287,7.977,0.44,11.683c-17.549-2.99-34.684-2.228-49.887,3.302
	c-0.288-11.818,5.422-21.876,17.144-30.17C562.902,260.766,566.987,252.727,571.503,251.71z M560.815,284.333
	c2.369-0.216,19.087-1.349,19.96,1.676c0.459,1.583-2.237,3.625-3.32,4.504c-6.369,5.148-14.187,6.903-22.703,7.026
	c-4.783,4.768-10.343,9.065-16.25,13.152c-0.117-6.731-0.228-13.458-0.339-20.187C545.51,287.017,553.076,285.053,560.815,284.333z
	 M638.123,153.69c21.815,29.127,33.279,88.735-11.323,138.035c-57.378-21.522-76.345-77.517-69.886-122.219
	C583.98,164.234,611.06,158.959,638.123,153.69z M615.911,154.797c-12.957,2.63-25.924,5.253-38.882,7.883
	C579.636,150.341,608.651,144.068,615.911,154.797z M584.196,84.798c6.976,6.804,14.062,13.461,18.193,24.071
	c2.237,5.835,0.213,10.166-2.849,14.205c-2.129,2.807-4.753,5.473-6.795,8.402c-2.381,3.416-5.833,10.238,0.216,12.121
	c1.838,0.576,4.181,0.545,6.394,0.443c0.345,3.722-4.606,4.208-7.689,4.666c-19.914,2.981-22.934-16.721-13.881-33.178
	c1.005,0.036,2.019,0.543,3.032,1.521c0.021,3.305,1.421,5.53,3.379,6.579c3.593,1.931,7.152,0.129,9.242-2.885
	c2.375-3.413,2.858-8.388-0.605-11.251c-1.847-1.52-4.597-1.901-7.814-0.159c-10.727-3.922-17.054-10.525-22.161-17.881
	C569.389,88.069,576.424,85.691,584.196,84.798z M541.753,107.465c5.17-5.65,10.727-11.845,15.272-18.112
	c8.004,9.719,16.948,17.66,27.753,22.085c2.156-1.538,4.408-1.634,6.097-0.783c2.474,1.242,3.754,4.507,1.787,8.229
	c-1.814,3.425-5.098,4.016-7.377,2.747c-1.772-0.987-3.008-3.143-2.717-6.103C572.469,109.855,558.687,107.216,541.753,107.465z
	 M542.722,117.547c1.774-2.696,3.062-5.302,3.979-8.202c2.33,0.045,5.194,0.045,7.524,0.087c-1.622,2.417-0.51,3.355,1.232,3.673
	c0.414,0.075,2.6,0.168,4.411,0.015c1.409-0.117,2.585-0.387,2.519-0.923c-0.071-0.573-1.403-0.825-1.925-0.996
	c0.144-0.267,0.291-0.531,0.438-0.797c2.837,0.354,7.08,0.317,8.175,3.622c1.523,4.597-4.825,12.424-8.124,14.733
	c-1.247-1.248-2.605-2.018-4.207-1.728c-0.152-3.829-1.595-6.546-5.884-6.828c0.567-1.601-0.113-2.471-0.968-3.235
	c-1.143-0.522-1.509,0.234-0.933,0.755c1.406,1.563,1.037,2.621,0.21,3.068c-1.131,0.606-1.943-0.294-3.056-0.063
	c-0.52,0.108-1.056,0.333-1.473,0.429c-1.05,0.252-1.548,0.084-2.315-0.461C541.408,119.805,541.98,118.555,542.722,117.547z
	 M541.944,124.144c0.39-0.684,1.206-1.271,2.195-1.538c1.964-0.519,4.591-0.834,6.609-0.558c4.534,0.63,4.771,3.698,3.985,7.008
	c-0.1,0.429-0.731,1.592,0.123,1.784c0.714,0.159,0.885-1.442,1.017-1.691c0.413-0.779,1.247-0.825,2.375-0.408
	c1.133,0.423,1.001,1.316,0.314,2.234c-0.765,1.029-2.423,2.309-4.087,2.807c-1.137,0.333-2.268,0.309-3.122-0.411
	c-0.885-0.737-1.37-2.063-1.541-3.374c-0.294-2.324,0.291-2.978-2.51-3.032C545.879,126.945,540.169,127.275,541.944,124.144z
	 M542.772,129.983c-0.228-1.518,1.373-1.851,2.947-1.659c2.441,0.288,2.714,1.017,2.885,2.303c0.181,1.391,0.405,1.961,1.374,3.056
	c0.804,1.721-2.621,1.811-3.632,1.817c-1.188,0.003-3.974-0.159-4.612-1.442c-0.239-0.477,0.12-0.959,1.074-1.439
	c0.474-0.282,0.726-0.573,0.756-0.885C543.615,131.164,542.877,130.672,542.772,129.983z M539.183,149.738
	c5.671,2.561,12.739,1.083,19.582,0.255c1.148-0.474,1.118-0.828-0.087-1.062c-7.593,1.064-15.333,1.838-21.276-2.3
	c-4.027-3.245-3.854-6.93-0.617-10.175c19.548,3.329,29.996-5.919,34.779-23.261c1.438,0.384,2.882,0.822,4.32,1.679
	c-8.45,21.678-4.465,32.572,8.037,36.09c-4.459,3.26-7.956,7.032-9.356,11.941c-30.439,7.686-39.307,2.831-44.063-4.252
	c-2.855-4.246-1.271-6.654,1.256-9.278C534.787,146.239,535.743,148.179,539.183,149.738z M643.883,76.351
	c-52.184,0.474-104.088,0.954-156.266,1.433l-0.066-9.518c61.195,0.069,122.837-0.375,184.035-0.303
	C664.412,74.845,653.132,76.264,643.883,76.351z M646.594,58.709c8.478,0.084,18.364,0.957,24.755,7.23
	c-61.264,0.072-122.531,0.141-183.798,0.216v-9.098C540.563,57.608,593.58,58.157,646.594,58.709z M485.263,28.929
	c2.288,2.288,4.573,4.582,6.861,6.876c-4.253,2.138-7.099,5.254-6.861,10.511c0.087,13.584,0.171,27.165,0.258,40.75
	c0.267,4.348,1.667,8.237,7.122,10.514c-2.285,2.417-4.573,4.84-6.864,7.266C470.677,97.104,468.698,38.318,485.263,28.929z
	 M456.715,52.088c1.025,0.306,1.568,0.878,1.982,1.535c0.692,1.101,1.017,2.438,2.621,3.185c2.393,1.113,2.785,7.704,0.158,7.977
	c-1.889,0.03-3.787,0.141-5.604,0.561c-1.946,0.447-3.386,1.511-4.669-0.864c-0.911-2.168-2.237-3.994-4.605-4.075
	c-1.962-0.069-3.923-0.138-5.884-0.207C443.293,54.987,451.695,50.604,456.715,52.088z M412.502,78.225
	c-7.11,0.204-12.055-5.728-11.461-12.606c0.545-6.258,4.846-10.735,11.461-10.418V78.225z M414.307,71.328v-9.23h32.998
	c2.055,2.759,3.397,5.904,3.185,9.23H414.307z M438.642,105.75c3.325-5.665,6.453-11.722,9.779-17.39
	c3.493,0.642,7.313,0.663,10.813,0.261c0.084-0.345,0.168-0.692,0.259-1.038c-11.216-0.612-14.703-6.009-17.741-11.68
	c-1.298-1.772-0.95-2.51,1.035-2.207l5.212,0.375c0.681,0.048,1.361,0.096,2.042,0.144c1.346,0.945,1.97,0.843,2.281,0.297
	c0.405-0.705,0.304-2.15,0.585-3.077c1.05-3.479,4.265-5.185,10.858-4.357c1.47,0.114,1.677-0.575,1.422-1.556
	c-0.846-2.885-0.597-5.599-0.255-8.306c-2.021-0.669-3.386-2.348-4.091-4.019c-1.166-2.78-0.501-5.523,2.021-3.508
	c1.331,0.993,2.711,1.919,4.132,2.777c0.604,0.363,1.266,0.741,1.946,1.104c3.649,1.97,2.436,2.92,2.315,7.077
	c-0.432,14.853,1.484,28.188,6.495,39.395C472.74,107.855,455.312,106.796,438.642,105.75z M469.786,108.793
	c3.323-1.382,6.631-2.854,9.779-4.93c1.553,1.709,3.325,3.308,5.565,4.672c1.991-1.277,3.736-2.789,5.377-4.411l4.015,8.63
	c-4.549,4.546-10.405,7.479-18.586,7.527C473.199,116.626,471.147,112.797,469.786,108.793z M474.578,122.876
	c8.486,0.063,16.424-2.96,23.702-9.992c0.975,2.57,1.764,5.176,1.874,7.914c-6.861,5.278-13.725,10.556-20.589,15.833
	C478.261,131.956,476.578,127.377,474.578,122.876z M491.089,146.688c-3.35-2.941-6.924-5.554-10.618-7.979
	c6.816-5.362,13.642-10.729,20.46-16.091c2.441,0.798,4.637,2.075,6.735,3.568C499.675,130.727,494.07,137.482,491.089,146.688z
	 M493.81,145.591c2.21-6.723,6.294-11.968,11.784-16.091c8.328,6.033,17.093,11.854,25.774,17.716
	c-3.419,3.76-6.438,6.702-3.764,10.897c-3.775,3.439-7.224,8.177-10.354,12.717C508.323,163.583,499.627,154.914,493.81,145.591z
	 M517.724,174.034c3.041-5.365,6.753-10.208,10.7-14.118c1.154,1.58,2.438,3.323,4.135,4.549
	c-3.868,6.972-7.407,14.541-10.369,23.15C519.682,183.429,518.6,178.766,517.724,174.034z M525.041,197.985
	c-3.038-10.229,4.894-23.759,9.644-32.368c5.533,2.33,11.849,3.403,18.806,3.433c-2.153,17.537-1.164,36.399,4.404,55.081
	c-4.258-0.081-8.009-1.958-12.226-0.054c-1.502,0.675-2.827,1.898-3.88,4.201c-0.813,3.236-6.024,3.239-8.385,3.607
	C531.821,219.789,527.904,209.005,525.041,197.985z M408.34,124.927c7.173-0.926,14.211-0.267,21.102,2.132
	c0.024,1.206-0.342,2.312-0.888,3.376c5.353,0.345,10.654,0.222,16.313,2.846c-0.738,2.366-2.858,2.831-4.786,3.554
	c2.972,0.482,5.604-0.681,8.648,0.27c3.215,1.002,6.183,3.287,8.903,5.095c11.413,7.578,20.223,16.955,26.764,27.093
	c-1.893-0.192-2.927-0.168-4.061,0.237c4.689,1.736,6.597,3.833,7.722,6.231c1.91,4.069,2.684,11.074,7.61,12.885
	c-1.774,1.368-4.252,1.922-6.783,0.045c0.279,2.873,6.208,3.02,7.533,10.052c0.744,3.931,1.481,8.339,4.843,10.021
	c-1.169,4.117-5.419,0.3-8.514,1.284c9.345,4.534,8.948,14.952,9.233,25.975c-3.725,0.294-7.854,0.549-11.584,0.846
	c-1.683-68.938-30.772-96.34-72.947-103.51C412.628,132.538,406.108,131.917,408.34,124.927z M372.346,197.823
	c9.617-9.671,19.521-19.468,29.136-29.139c0.621,0.141,1.269,0.219,1.931,0.219c0.465,0,0.924-0.039,1.368-0.108
	c4.702,6.072,7.686,13.14,7.263,22.164c-6.501,7.296-16.619,8.546-28.746,6.453c0.237,0.917,0.858,1.682,1.875,2.288
	c-1.736,1.565-3.473,3.127-5.209,4.693c-2.324-1.601-4.882-2.999-7.203-4.282C372.858,199.349,372.718,198.587,372.346,197.823z
	 M367.362,192.26c-0.267-0.144-0.537-0.285-0.807-0.423l28.629-28.923c0.087,0.198,0.183,0.408,0.282,0.606
	c0.783,1.952,2.258,3.547,4.126,4.483l-27.912,28.038c-0.264-0.465-0.579-0.891-0.942-1.286
	C369.854,193.661,368.693,192.791,367.362,192.26z M370.735,199.982c0,3.568-2.896,6.465-6.465,6.465
	c-0.168,0-0.333-0.006-0.495-0.018l-0.048-0.006h-0.009c-3.232-0.333-5.76-3.068-5.76-6.394c0-3.547,2.875-6.423,6.426-6.423
	c1.661,0,3.178,0.636,4.321,1.67l0.027,0.027C369.965,196.482,370.735,198.144,370.735,199.982z M407.229,152.68
	c-0.407-0.198-0.83-0.372-1.268-0.51c5.826-5.683,7.484-10.424,8.187-16.793c2.569-0.345,5.067,0.156,7.493,1.502
	c-0.267,7.932-4.306,14.367-10.256,20.143C410.771,155.16,409.176,153.562,407.229,152.68z M419.782,188.875
	c-1.931,0.444-3.868,0.888-5.703,1.379c-0.705-8.3-2.663-15.983-7.299-22.043c2.021-0.867,3.641-2.486,4.501-4.501
	C418.308,171.542,420.185,180.259,419.782,188.875z M409.68,160.345c0,3.458-2.807,6.264-6.268,6.264
	c-3.463,0-6.27-2.807-6.27-6.264c0-1.613,0.611-3.083,1.613-4.192c1.109-1.062,2.633-1.844,4.33-2.069
	c0.107-0.003,0.216-0.009,0.326-0.009C406.873,154.074,409.68,156.881,409.68,160.345z M395.661,156.716
	c-6.516-6.825-13.851-11.839-21.941-15.264c1.511-2.123,3.976-3.571,7.581-4.216c7.056,3.203,13.299,8.603,19.504,14.958
	C398.527,152.923,396.662,154.578,395.661,156.716z M387.534,201.025c5.958,0.633,12.382,0.321,18.871-2.585
	c3.331,10.574-0.723,20.787-5.985,29.672c-4.208-1.364-9.017-2.72-13.051-4.438c-0.057-6.555-1.16-13.144-5.721-17.572
	C383.363,204.576,385.816,202.552,387.534,201.025z M409.218,196.495c2.825-4.402,8.259-6.837,17.423-5.614
	c-1.616-0.774-3.355-1.55-4.966-2.324c0.237-11.227-3.464-20.223-9.854-26.623c0.102-0.519,0.149-1.049,0.149-1.589
	c0-0.459-0.039-0.906-0.104-1.343c5.874-5.839,10.562-12.403,11.479-21.357c46.928,9.881,63.811,49.677,64.662,99.375
	c-29.04,1.778-57.555-0.27-84.525-7.998C409.149,218.625,412.265,207.722,409.218,196.495z M377.393,111.798
	c-0.054-0.57,0.192-1.041,0.594-1.322c1.235-0.864,2.363,0.342,3.323,1.004c3.038,2.129,7.065,3.68,11.929,4.735
	c4.363,1.029,8.208,2.924,10.594,6.003c0.966,1.251,1.266,2.525,1.416,3.838c0.275,2.537,0.351,4.834,1.574,6.276
	c1.112,1.311,2.666,1.218,4.039,1.631c0.621,0.183,1.209,0.474,1.697,1.047c-0.837,6.594-3.395,12.394-9.018,16.775l-0.129-0.003
	l-0.245,0.003c-5.74-5.956-11.978-11.194-19.024-15.282c1.694-1.73,4.04-2.87,7.821-2.702c2.927-0.639,3.934-2.453,3.814-4.522
	c-0.177-3.017-2.768-6.582-5.311-7.793c-4.159-2.153-8.42-4.258-11.251-7.017C378.52,113.795,377.482,112.83,377.393,111.798z
	 M371.98,119.478c-1.203-1.541-0.927-3.281,1.52-2.441c4.618,3.092,12.868,4.045,16.388,6.942c-3.109,0.585-6.222,1.17-9.329,1.754
	C377.081,123.682,373.662,121.634,371.98,119.478z M368.231,134.376c-0.684-0.681-0.807-1.269-0.138-1.655
	c7.359-4.25,13.344-6.108,21.794-6.924c1.418-0.069,2.633,0.39,3.311,1.263c1.227,1.598,1.026,3.116,0.114,4.099
	c-0.627,0.672-1.583,1.098-2.654,1.127c-3.298,0.132-6.174,1.305-9.044,2.543c-2.252,0.978-4.501,1.994-6.945,2.582
	C371.878,137.561,370.076,136.205,368.231,134.376z M358.926,157.19c5.482,5.626,11.225,11.137,17.636,3.038
	c1.598-2.015,3.218-4.021,5.812-4.915c1.61-0.549,1.769-0.588,0.165-1.796c-4.205-3.169-7.26-3.982-9.884-2.714
	c-2.189,1.062-3.305,4.498-5.629,6.903c-2.132,2.249-4.912,1.289-5.904-0.48c-1.754-3.134,2.867-6.219,4.78-8.118
	c2-1.985,4.012-3.979,5.964-5.931c7.425,2.423,16.334,8.117,23.145,15.542c-0.105,0.524-0.156,1.07-0.156,1.625
	c0,0.333,0.018,0.666,0.057,0.987c-9.962,9.776-20.886,19.926-30.83,29.693c-6.849-7.563-13.947-11.92-21.102-15.498
	C347.987,168.417,353.412,162.663,358.926,157.19z M365.56,160.075c2.093-0.789,4.075-2.093,5.074-4.327
	c0.693,1.805,2.264,3.191,4.597,3.482C370.787,164.417,367.866,163.122,365.56,160.075z M341.462,177.375
	c6.843,3.035,13.866,7.545,20.442,14.634c-2.087,0.618-3.83,2.033-4.879,3.896c-7.494-7.005-14.607-12.103-20.34-13.929
	C337.765,180.076,339.069,178.337,341.462,177.375z M349.22,205.578c-4.462,2.744-9.095,5.236-9.764,10.591
	c-0.293,2.357-2.054,4.096-4.033,4.471c-1.445,0.27-3.005-0.186-4.201-1.652c-2.98-3.665-2.78-7.332-2.354-10.993
	c0.324-2.813,1.098-1.976-0.582-4.51c-2.015-3.047-2.019-6.414-0.219-10.061c1.305-2.636,4.078-5.266,6.786-8.307
	c1.203-1.349,2.462-0.986,3.919-0.21c5.743,3.044,12.04,8.066,17.482,12.853c-0.195,0.705-0.303,1.452-0.303,2.222
	c0,0.459,0.042,0.906,0.111,1.346C353.813,202.756,351.511,204.165,349.22,205.578z M351.546,207.263
	c1.502-1.601,3.257-2.854,5.08-4.009c0.671,1.568,1.808,2.885,3.235,3.782c-1.475,1.721-2.975,3.412-4.975,4.486
	C353.892,210.04,352.806,208.609,351.546,207.263z M361.025,207.646c0.411,0.285,1.005,0.441,1.473,0.627
	c-0.903,4.951-4.366,8.499-8.094,11.461c-1.391-0.51-2.258-1.388-2.501-2.705C355.13,214.409,358.465,211.239,361.025,207.646z
	 M362.87,225.288c-2.297,0.756-4.732,1.263-7.065,1.901c-0.996,0.27-1.85,0.51-2.873,0.114c-1.287-0.495-1.946-1.733-1.641-2.768
	c0.318-1.083,1.502-1.368,2.39-1.83c5.563-2.873,8.831-8.051,10.895-14.22c1.757-0.165,3.368-0.906,5.005-1.808
	c1.679,0.771,3.214,2.012,4.39,3.481C372.37,219.153,368.103,223.576,362.87,225.288z M370.667,205.743
	c0.765-1.038,1.532-2.315,1.922-3.602c9.782,3.571,13.524,11.59,12.844,20.784c-1.634-0.393-3.673-1.382-5.047-1.94
	C379.75,213.623,375.914,208.858,370.667,205.743z M371.182,251.098c-3.62,0-6.552-2.936-6.552-6.555s2.933-6.555,6.552-6.555
	s6.555,2.936,6.555,6.555S374.802,251.098,371.182,251.098z M372.708,235.19c2.156-3.896,4.465-8.229,6.621-12.124
	c45.008,19.959,108.425,19.348,157.439,10.451c3.044-0.456,7.626-1.745,9.98,0.873c1.088,1.206,1.157,2.342,0.165,3.74
	c-1.701,2.399-6.828,2.668-9.726,3.136C466.167,251.59,412.211,249.368,372.708,235.19z M388.053,253.653
	c-0.132,3.811-4.486,7.065-4.525,11.977c7.329-4.561,15.386-7.653,23.087-8.166c-4.876-3.595-12.685,2.372-18.199,1.904
	c1.334-5.449,5.979-9.242,7.958-14.694c28.092,4.027,58.013,6.273,91.269,4.627c0.117,1.299,0.177,2.465,0.3,3.767
	c-8.93,3.991-14.379,12.31-18.136,22.176c-39.296-1.583-76.972,1.571-110.068,12.895
	C369.308,277.463,375.701,256.091,388.053,253.653z M269.771,315.981c1.217,1.338,2.917,2.177,4.924,2.729
	c1.397,0.251,1.532-0.492,0.384-0.912c-7.263-4.201-1.203-10.663,3.08-13.729c16.295-11.653,33.289-20.787,50.145-30.395
	c0.243,1.25,0.471,2.501,0.833,3.751c0.147,0.506,1.022,3.682,1.955,2.252c0.216-0.33,0.297-0.915,0.063-1.721
	c-0.938-8.247,5.197-9.11,11.476-7.674c9.746,2.231,14.46,6.366,18.052,10.921c-2.765,4.237-5.526,8.477-8.292,12.714
	c-3.791-3.14-7.053-4.372-12.028-4.537c-5.242-0.174-10.04,0.003-14.826,0.558c-5.431,0.63-9.335,1.646-12.787,5.86
	c-3.497,4.273-7.239,9.032-10.735,13.302c-1.616,1.928-3.25,3.487-4.903,4.621c-1.874,1.286-4.138,1.631-5.898,3.005
	c-1.365,1.053-1.859,2.336-1.662,3.809c0.222,1.64,1.425,2.572,0.441,4.252c-0.51,0.869-1.319,1.679-1.793,2.261
	c-1.763,2.165-3.467,4.349-5.287,6.501c-5.694-3.259-12.103-4.734-18.583-5.241C265.702,323.949,267.486,319.823,269.771,315.981z
	 M263.402,331.416c6.792,0.141,13.417,0.633,17.996,5.227c-6.294,10.229-14.577,11.707-26.137,15.042
	C257.117,344.781,259.51,337.978,263.402,331.416z M255.899,359.538c-0.531-1.67-1.064-3.347-1.596-5.014
	c6.25-2.093,12.499-4.192,18.748-6.279c-1.691,2.513-3.619,5.028-6.045,7.542C263.303,357.037,259.603,358.288,255.899,359.538z
	 M294.163,386.887l4.054,3.715l-26.005,29.271l-4.163-4.054C268.05,415.932,294.163,386.887,294.163,386.887z M292.274,385.792
	c-7.809,8.627-15.971,17.566-23.774,26.197c-1.487-6.813-2.312-14.121-2.588-21.837c6.39-3.484,12.892-6.646,19.584-9.23
	C287.827,382.263,290.354,383.627,292.274,385.792z M418.473,385.996c-6.133-1.991-12.553-4.178-18.68-6.165
	c1.943-4.166,4.597-6.939,9.309-8.067c6.009-1.439,5.082-3.334-1.062-2.003c-3.488,0.759-7.81,3.358-13.204,12.066
	c-1.262,2.036-1.442,3.312-4.108,3.713h-7.563c-3.053,0-4.612-0.285-6.516-2.771c-8.861-11.533-17.723-23.069-26.583-34.603
	c-1.383-7.917-4.072-16.925-9.539-21.81c-6.996-6.259-14.517-3.982-20.316,1.784c-7.35,7.311-13.536,15.923-19.357,24.955
	c-1.077-1.622-0.836-3.193-0.237-4.867c0.213-0.594,0.369-1.157,0.108-1.295c-0.624-0.327-1.688,1.686-1.943,2.267
	c-1.83,4.223,1.388,8.399,1.832,13.272c0.411,4.486-1.364,6.99-3.907,8.793c-6.276-10.766-14.628-0.942-12.946,7.787
	c-6.129,2.349-12.262,5.026-18.391,8.304c-0.752-4.414-1.311-8.825-0.516-13.236c1.421,1.244,2.912,2.141,4.504,2.456
	c1.005,0.194,1.76,0.365,2.297,0.348c1.233-0.039,1.334-0.63,0.726-1.115c-0.462-0.366-1.431-0.501-2.429-0.918
	c-2.435-1.002-3.34-3.389-3.7-5.803c-1.11-7.565,5.592-15.989,10.717-23.06c11.293-15.563,23.063-30.536,34.995-44.498
	c0.51,2.119,1.829,3.855,3.586,5.059c2.735,1.871,2.819,0.501,1.125-1.266c-1.286-1.344-2.357-2.936-2.357-4.912
	c0.174-1.82,0.717-3.214,1.526-4.303c2.378-3.188,7.734-3.854,11.392-3.938c6.693-0.15,14.085-0.852,19.726,1.556
	c3.197,1.361,6.402,4.408,9.641,7.875c6.624,7.092,13.029,16.679,17.288,22.425c10.646,4.465,18.397,13.77,16.577,27.162
	c-0.794,5.875,0.09,6.495,1.536,0.105c2.378-10.522-1.553-20.607-12.415-28.303c1.062-5.568,2.933-10.207,5.844-14.853
	c25.576-5.949,52.891-8.492,82.477-4.872L418.473,385.996z M419.456,396.039c3.604,0,6.531,2.923,6.531,6.527
	c0,3.61-2.927,6.531-6.531,6.531c-3.607,0-6.531-2.921-6.531-6.531C412.925,398.962,415.849,396.039,419.456,396.039z
	 M373.689,431.771c-1.655-0.243-2.888-0.98-3.97-1.877c-1.832-1.521-1.395-2.075-0.051-3.817
	c10.405-13.432,23.336-22.446,41.622-22.128c-3.616,7.641-10.114,14.154-20.826,19.015
	C382.943,423.186,378.124,427.207,373.689,431.771z M420.644,431.145c-9.584-0.911-19.168-1.817-28.752-2.726
	c-0.051-0.936-0.102-1.868-0.156-2.804c8.499-4.327,15.647-9.797,21.045-17.237c1.161,1.602,3.035,2.333,5.032,2.895
	c-1.616,6.159-0.479,11.686,3.916,16.598L420.644,431.145z M433.774,430.053c-3.68-1.325-7.358-2.647-11.035-3.973
	c-1.557-1.896-2.744-3.868-2.642-5.761c5.022,1.868,10.36,3.812,15.387,5.683C434.911,427.357,434.342,428.704,433.774,430.053z
	 M468.038,428.571l-1.319-15.728l10.643,16.738l20.28-1.011l-17.401,9.734l4.191,24.916l-14.063-20.787l-20.979,2.255l16.241-10.045
	l-46.075-16.353c-0.156-2.23-0.051-4.153,0.543-6.307C436.078,417.516,452.058,423.045,468.038,428.571z M439.001,416.103
	c-2.255-0.827-4.507-1.651-6.759-2.474c1.901-6.983,7.674-12.67,13.965-18.184c14.521-12.739,28.974-26.063,34.309-45.455
	c3.344,0.585,5.991,2.678,7.62,6.984c-1.503,13.062-9.177,22.787-18.131,31.825C459.132,399.188,445.148,405.386,439.001,416.103z
	 M458.586,401.286c8.066-6.495,16.271-13.041,22.904-20.736c5.971,0.441,12.085,0.456,18.299,0.184
	c0.284-6.114,2.542-9.396,6.156-10.732c0.119,12.789,0.236,25.579,0.359,38.368C489.029,407.407,472.764,405.106,458.586,401.286z
	 M505.013,289.083c0.077,7.542,0.155,15.081,0.233,22.619c-5.028,4.847-9.565,11.41-14.115,17.957
	c-3.266-3.101-6.081-6.948-7.913-12.437c9.026-19.704,25.891-42.33,45.932-52.369c-3.257,7.473-5.968,15.65-6.834,24.074
	C516.545,288.984,510.782,289.032,505.013,289.083z M507.906,312.911c9.974-0.822,11.775-13.824,0.18-14.706v-6.411
	c7.05-0.105,14.104-0.207,21.156-0.312v6.229c-8.97,1.172-10.241,12.907,0,14.616v5.484c-7.056,0.045-14.286,0.114-21.336,0.156
	V312.911z M508.119,310.401v-9.521C516.591,301.055,515.757,310.722,508.119,310.401z M529.086,299.947v9.71
	C522.159,309.45,522.321,300.325,529.086,299.947z M530.01,470.611c-0.996,10.633-4.006,19.687-8.564,27.534
	c-7.206-6.939-10.382-18.607-11.32-31.373c-0.404-5.448-0.348-10.927-0.42-16.388l-1.736-130.322h21.282
	c0.222,44.553,0.795,89.485,1.056,134.076C530.343,459.627,530.517,465.132,530.01,470.611z M531.503,359.115v-53.92
	c0-8.786-0.446-17.138,1.716-25.723c2.878-11.449,8.528-20.253,16.942-26.395c1.589,0.45,3.109,1.074,4.129,2.159
	c-11.035,8.738-15.815,18.517-17.326,30.53c-0.768,6.087-0.519,12.211-0.477,18.331c0.107,16.062,0.213,32.125,0.32,48.189
	C535.629,354.581,533.272,357.415,531.503,359.115z M557.104,415.992c-4.727,0.44-9.248,1.505-13.759,2.597
	c-1.499,0.387-2.11-1.487-2.888-3.518c-0.497-1.298-1.059-2.663-1.967-3.535c6.094-0.462,12.192-0.921,18.286-1.38
	c0.882,0.066,1.742,0.168,1.862,1.542c0.12,0.933,0.24,1.865,0.365,2.795C559.028,415.326,558.588,415.92,557.104,415.992z
	 M584.218,524.33c4.735-2.696,8.246-6.405,10.55-11.131c4.033-7.158,8.069-14.322,12.105-21.483
	c1.823-3.235,3.409-6.024,4.084-9.752c1.109-6.09-0.39-11.578-3.043-18.001c8.447,5.269,16.091,11.344,16.382,20.19
	c0.12,3.722-1.164,7.143-2.57,10.511c-3.796,9.047-9.137,17.632-14.223,26.143c-2.708,3.58-4.69,5.49-8.522,7.929
	c-9.569,6.1-20.257,10.909-27.646,19.611c-3.146-2.507-6.474-5.16-10.828-7.269C566.685,534.85,574.793,529.341,584.218,524.33z
	 M575.827,548.77c8.304,1.098,25.459,6.072,23.591,17.435c-12.108-0.144-24.224-0.291-36.335-0.435
	C566.327,559.727,570.262,553.634,575.827,548.77z M557.838,543.435c4.594,1.026,9.074,3.311,12.31,7.446
	c-2.582,3.002-5.011,6.168-7.209,9.56c-6.021,0-12.402-0.146-18.424-0.146C547.99,553.97,552.233,548.203,557.838,543.435z
	 M560.023,566.717h-16.676v-4.309l18.064,0.144L560.023,566.717z M599.784,572.774h-38.303v-4.453l38.303-0.144V572.774z
	 M641.487,431.556c-3.568,5.991-4.246,10.675-0.534,16.853c4.373,7.278,9.926,9.536,18.758,13.048c4.21,1.67,3.919,2.141,5.37,6.048
	c0.414,1.116,0.852,2.231,1.251,3.338c0.896,2.471-0.489,5.143-1.856,7.218c-10.453,15.824-20.253,32.009-30.191,48.172
	c-1.826,3.269-3.655,6.534-5.476,9.803c-1.238,2.207-1.686,2.408-2.177-0.398c-0.474-2.685-0.084-5.08,1.175-7.188
	c0.879-1.196,0.184-1.46-0.821-0.243c-1.604,2.346-2.285,3.599-2.362,6.55c-0.175,6.564,2.314,14.289-4.357,21.552
	c-7.557-8.777-14.805-6.84-19.99,1.925c-5.82-6.6-13.991-10.472-23.054-11.869c7.089-7.563,16.984-11.074,25.363-17.122
	c4.081-2.945,5.655-5.59,8.184-9.875c5.428-9.191,10.903-18.373,14.906-27.885c1.691-3.14,2.007-6.328,1.322-9.546
	c-0.81-3.859-2.737-6.546-5.169-9.551c-2.915-3.592-5.359-5.829-7.671-7.668c-3.677-2.93-7.438-5.517-11.455-7.964
	c-5.455-3.326-10.939-6.453-16.445-9.461c-3.758-2.048-7.809-3.809-11.449-6.04c-3.772-2.314-6.765-5.331-8.543-9.464
	c-1.071-2.501-1.764-5.484-2.375-8.147c-1.997-8.708-3.617-23.989-9.956-29.843c-1.793-1.5-2.315-0.108-1.487,0.617
	c2.6,3.365,5.008,7.404,4.357,12.939c-8.886,0.776-17.528,1.35-24.512,0.492v-45.353c2.297-2.927,4.591-5.856,6.882-8.787
	c-0.021-2.684-0.048-5.37-0.075-8.051c1.422-1.038,2.84-2.081,4.262-3.122c9.4,2.813,18.631,5.386,28.028,8.777
	c0.501,1.476,1.572,3.077,2.882,4.282c-1.964,15.632-0.675,30.422,10.274,42.381c3.062-0.081,6.255,0.18,9.319,0.096
	c0.273-2.821,0.543-5.644,0.819-8.459c-8.838-6.189-10.484-18.754-9.836-33.357c7.677,2.972,15.18,5.809,22.859,9.467
	c0.536,1.395,2.054,3.454,3.238,4.531c-2.405,23.665,3.074,36.063,13.932,42.455c2.058-0.933,3.743-1.388,5.797-2.314
	c-0.027-2.825-0.174-5.341-0.204-8.159c-8.543-3.803-10.276-17.063-9.368-30.267c21.969,11.836,34.045,22.355,39.38,28.677
	C654.874,410.918,647.458,421.524,641.487,431.556z M661.351,398.479c-11.865-13.099-25.866-20.514-39.424-28.494
	c1.679-1.682,2.957-3.109,2.93-5.646c13.239,7.626,25.918,14.619,37.454,24.599C662.829,392.233,662.325,395.391,661.351,398.479z
	 M712.881,394.548c6.253,7.071,14.897,5.404,22.719,4.249c-16.062,16.125-48.903,7.293-65.447-23.009
	c-2.216-4.444-3.713-6.33-7.438-9.62c-0.057,6.651-0.11,13.309-0.158,19.96c-11.755-9.138-23.369-17.585-37.841-24.77
	c-0.444-1.286-1.481-3.41-2.69-4.693c0.36-13.095-0.905-26.07-5.076-39.169c3.535,1.874,7.235,3.674,10.471,6.223
	c12.97,10.22,26.015,22.679,41.686,32.266c8.909,5.392,18.008,7.824,27.52,4.088c5.274-2.069,7.148-5.554,2.813-10.364
	c-9.41-11.952-26.865-25.765-34.077-39.331c-5.691-10.717-3.898-23.018,2.947-35.937c-0.695,11.824,1.571,21.462,8.163,27.903
	c-1.277-26.431,2.83-46.253,18.805-51.555c-4.909,14.922-2.902,30.536,7.896,47.032c6.352,9.704,14.085,18.812,22.028,27.217
	c-0.161-0.537-0.317-1.074-0.479-1.604c-4.552-5.302-17.626-17.998-12.001-25.501c2.307,5.89,5.872,9.68,9.642,14.604
	c3.814,4.983,7.185,10.063,10.007,15.278c6.804,12.577,11.361,30.848-4.363,39.154c16.268-3.134,9.251-24.202,17.521-23.492
	c-2.013,2.792-1.646,6.475-1.791,9.74C742.574,380.286,732.657,394.587,712.881,394.548z"/><path d="M643.555,460.934c-9.184-6.039-13.404-13.629-18.297-21.003c3.381,7.107,5.268,14.05,15.969,21.966
	c-0.545,1.134-1.094,2.264-1.641,3.392c14.182-4.036,16.734,7.61,9.291,16.067C659.963,474.752,655.504,461.857,643.555,460.934z"/><path d="M340.304,196.002c-1.865-2.471-4.396-1.748-7.203,0.048c-1.008,0.902-0.041,2.129,1.068,1.349
	c1.454-1.433,2.959-2.21,4.621-0.884c0.953,0.761,1.525,1.799,1.433,3.059c-0.087,1.223-0.482,2.045-1.601,2.54
	c-0.909,0.408-1.971,0.545-3.107,0.579c-1.008,0.078-0.953,1.08,0.111,1.178c1.137,0.039,2.213-0.087,3.182-0.498
	c1.211-0.522,2.096-1.445,2.552-2.696C341.959,199.034,341.309,197.325,340.304,196.002z"/><path d="M625.975,288.966c39.557-41.407,33.256-101.408,11.088-132.841c-24.801,4.99-53.133,10.595-77.93,15.59
	C553.721,199.73,563.367,264.62,625.975,288.966z M559.625,172.543c24.125-4.759,53.021-10.549,77.148-15.314
	c26.359,38.573,21.986,96.322-11.227,130.478C574.881,267.315,554.197,217.024,559.625,172.543z"/><path d="M633.211,259.671c-3.58-2.039-5.293-4.597-5.797-7.494l-2.668-12.319l11.754-2.333c3.164-0.747,6.436-0.114,9.41,1.494
	c-1.568-7.68-3.35-15.471-4.914-23.15c-1.631,2.072-3.754,4.261-6.834,5.062c-4.088,1.067-8.682,1.754-12.82,2.579l-3.355-15.794
	l13.324-2.669c2.768-0.453,5.564,0.741,7.961,2.405c-1.709-8.021-3.531-16.262-5.244-24.277c-1.541,2.936-3.725,5.035-7.322,5.808
	c-3.982,0.861-8.221,1.742-12.232,2.462c-0.783-3.703-1.602-7.554-2.393-11.257c-0.604-2.816-0.184-5.386,1.301-7.68l-22.805,4.951
	c2.338,1.853,4.455,3.958,4.953,6.756c0.662,3.598,1.365,7.239,1.895,10.858l-14.205,2.828c-3.475,0.801-6.705-0.354-9.111-1.847
	c1.625,7.788,3.684,16.343,5.311,24.131c1.395-3.059,3.643-5.599,7.08-6.097c4.684-0.681,9.691-1.982,14.34-2.87l3.576,15.983
	l-13.662,2.888c-3.957,0.842-7.418-0.411-9.701-1.557c1.523,7.233,3.477,16.004,4.996,23.243c1.949-2.168,4.301-4.804,7.561-5.467
	l14.25-3.038l2.543,12.658c0.705,3.491-0.107,6.459-2.09,9.329C616.613,263.396,624.91,261.534,633.211,259.671z M609.246,241.724
	c-5.602,1.064-11.225,2.036-16.805,3.194c-2.053,0.426-4.076,1.703-5.389,3.083c-1.221-5.248-2.223-11.2-3.443-16.451
	c1.85,0.681,3.914,1.026,6.031,0.621c5.619-1.077,11.205-2.315,16.811-3.473c-1.455-6.615-2.906-13.23-4.357-19.846
	c-5.787,1.298-11.621,2.399-17.357,3.898c-1.756,0.459-3.486,1.751-4.453,3.134c-1.189-5.197-2.383-11.203-3.57-16.403
	c1.428,0.561,3.105,1.158,4.951,0.792c5.93-1.179,11.826-2.495,17.74-3.743c-0.906-4.432-1.809-8.864-2.717-13.299
	c-0.697-1.799-1.787-3.565-3.322-5.083c5.525-1.169,11.744-2.447,17.271-3.616c-0.627,1.967-0.783,4.084-0.41,6.048
	c0.977,4.342,1.951,8.685,2.918,13.026c4.494-0.912,8.992-1.823,13.475-2.735c2.48-0.5,4.922-1.889,6.484-3.919
	c1.373,5.5,2.43,11.368,3.803,16.868c-1.584-0.773-3.293-0.792-5.02-0.702c-5.332,1.104-10.664,2.21-15.996,3.313
	c1.355,6.331,2.701,12.661,4.051,18.994l14.281-2.966c2.27-0.663,4.594-1.658,6.002-3.035c1.197,5.484,2.229,11.08,3.422,16.565
	c-1.912-0.537-4.057-0.639-6.111-0.315c-4.918,1.028-9.83,2.057-14.744,3.083c0.969,4.564,1.854,9.146,2.914,13.687
	c0.527,2.264,1.605,4.522,3.668,6.336c-5.914,1.389-12.145,2.726-18.064,4.114c1.248-2.33,1.451-4.669,1.014-6.978
	C611.41,251.161,610.273,246.453,609.246,241.724z"/></svg>