<?xml version="1.0" encoding="UTF-8" standalone="no"?>
<svg
   xmlns:rdf="http://www.w3.org/1999/02/22-rdf-syntax-ns#"
   xmlns:svg="http://www.w3.org/2000/svg"
   xmlns="http://www.w3.org/2000/svg"
   version="1.0"
   x="0.0000000"
   y="0.0000000"
   width="500.00000"
   height="300.00000"
   >
  <rect
	 width="500.00000"
	 height="300.000000"
	 x="0,0"
	 y="0,0"
	 style="fill:#dd2222;stroke:none;"
	 />
<!-- soyombo -->
<g transform="translate(175,10)">
<g transform="scale(0.75)">
  <rect
	 width="27.272724"
	 height="130.90907"
	 x="40.000004"
	 y="141.69202"
	 style="fill:#6666ff;stroke:none;"
	 />
  <rect
	 width="27.272724"
	 height="130.90907"
	 x="132.72726"
	 y="141.69202"
	 style="fill:#6666ff;stroke:none;"
	 />
  <path
	 d="M 72.727275,256.23745 L 127.27272,256.23745 L 100,272.60109 L 72.727275,256.23745 z "
	 style="fill:#6666ff;stroke:none;"
	 />
  <path
	 d="M 72.727275,141.69201 L 127.27272,141.69201 L 100,158.05564 L 72.727275,141.69201 z "
	 style="fill:#6666ff;stroke:none;"
	 />
  <rect
	 width="54.545448"
	 height="10.90909"
	 x="72.727272"
	 y="239.87383"
	 style="fill:#6666ff;stroke:none;"
	 />
  <rect
	 width="54.545448"
	 height="10.90909"
	 x="72.727272"
	 y="163.51019"
	 style="fill:#6666ff;stroke:none;"
	 />
  <path
	 d="M 127.27243,207.14821 C 127.27243,222.21043 115.06203,234.42076 99.999724,234.42076 C 84.937419,234.42076 72.727015,222.21043
	 72.727015,207.14821 C 72.727015,192.08598 84.937419,179.87565 99.999724,179.87565 C 115.06203,179.87565 127.27243,192.08598 127.27243,207.14821 z
	 "
	 style="fill:#6666ff;stroke:none;"
	 />
  <path
	 d="M 99.999758,237.1462 C 91.334124,237.153 84.305624,230.13008 84.305624,221.4645 C 84.305624,212.79892 91.334124,205.776 99.999758,205.78279 L
	 99.999758,221.4645 L 99.999758,237.1462 z "
	 style="fill:#dd2222;stroke:none;"
	 />
  <path
	 d="M 112.92715,221.46463 C 112.92715,228.61924 107.12721,234.41918 99.972626,234.41918 C 92.818038,234.41918 87.018101,228.61924
	 87.018101,221.46463 C 87.018101,214.31002 92.818038,208.51007 99.972626,208.51007 C 107.12721,208.51007 112.92715,214.31002 112.92715,221.46463 z
	 "
	 style="fill:#6666ff;stroke:none;"
	 />
  <path
	 d="M 99.999758,177.14779 C 108.65579,177.15459 115.66929,184.17353 115.66929,192.8295 C 115.66929,201.48547 108.65579,208.5044 99.999758,208.5112
	 L 99.999758,192.8295 L 99.999758,177.14779 z "
	 style="fill:#dd2222;stroke:none;"
	 />
  <path
	 d="M 112.95421,192.82913 C 112.95421,199.98374 107.15427,205.78368 99.999686,205.78368 C 92.845098,205.78368 87.045161,199.98374
	 87.045161,192.82913 C 87.045161,185.67452 92.845098,179.87457 99.999686,179.87457 C 107.15427,179.87457 112.95421,185.67452 112.95421,192.82913 z
	 "
	 style="fill:#6666ff;stroke:none;"
	 />
  <path
	 d="M 105.45429,221.6016 C 105.45429,224.61405 103.01221,227.05613 99.999757,227.05613 C 96.987302,227.05613 94.545225,224.61405
	 94.545225,221.6016 C 94.545225,218.58914 96.987302,216.14707 99.999757,216.14707 C 103.01221,216.14707 105.45429,218.58914 105.45429,221.6016 z "
	 style="fill:#dd2222;stroke:none;"
	 />
  <path
	 d="M 105.45429,192.6925 C 105.45429,195.70495 103.01221,198.14703 99.999757,198.14703 C 96.987302,198.14703 94.545225,195.70495
	 94.545225,192.6925 C 94.545225,189.68004 96.987302,187.23797 99.999757,187.23797 C 103.01221,187.23797 105.45429,189.68004 105.45429,192.6925 z "
	 style="fill:#dd2222;stroke:none;"
	 />
  <path
	 d="M 130.00027,106.2383 C 130.00027,122.80685 116.56882,136.2383 100.00026,136.2383 C 83.431713,136.2383 70.000254,122.80685 70.000254,106.2383 C
	 70.000254,89.66974 83.431713,76.238297 100.00026,76.238297 C 116.56882,76.238297 130.00027,89.66974 130.00027,106.2383 z "
	 style="fill:#6666ff;stroke:none;"
	 />
  <path
	 d="M 132.72729,92.601487 C 132.72729,110.67626 118.07479,125.32873 100.00001,125.32873 C 81.925226,125.32873 67.272725,110.67626
	 67.272725,92.601487 C 67.272725,74.526713 81.925226,59.874241 100.00001,59.874241 C 118.07479,59.874241 132.72729,74.526713 132.72729,92.601487 z
	 "
	 style="fill:#dd2222;stroke:none;"
	 />
  <path
	 d="M 121.81807,98.057093 C 121.81807,110.10695 112.04975,119.87528 99.999897,119.87528 C 87.950048,119.87528 78.181719,110.10695
	 78.181719,98.057093 C 78.181719,86.007232 87.950048,76.238909 99.999897,76.238909 C 112.04975,76.238909 121.81807,86.007232 121.81807,98.057093 z
	 "
	 style="fill:#6666ff;stroke:none;"
	 />
  <path
	 style="fill:#6666ff;stroke:none;"
	 d="M 99.46875 27.4375 C 95.320206 30.447598 98.430088 35.293256 98.125 37.875 C 97.795762 40.66092 96.408653 41.224189 95.78125 43.5 C 94.985456
	 46.386589 95.377564 49.3769 95.96875 50.5625 C 96.505735 51.6394 96.900677 52.579786 97.09375 53.40625 C 97.108893 53.471071 97.143912 53.530121
	 97.15625 53.59375 C 97.16067 53.607993 97.152058 53.641908 97.15625 53.65625 C 97.157642 53.664144 97.154903 53.679624 97.15625 53.6875 C
	 97.162366 53.709086 97.181906 53.7282 97.1875 53.75 C 97.198687 53.7936 97.209693 53.830586 97.21875 53.875 C 97.221014 53.886103 97.216621
	 53.895098 97.21875 53.90625 C 97.2203 53.919116 97.217332 53.924681 97.21875 53.9375 C 97.220344 53.94646 97.217244 53.95976 97.21875 53.96875 C
	 97.243604 54.117082 97.281372 54.250834 97.28125 54.40625 C 97.282428 55.913313 96.038315 57.15625 94.53125 57.15625 C 93.024184 57.156252
	 91.811319 55.913315 91.8125 54.40625 C 91.812482 54.382702 91.811925 54.367155 91.8125 54.34375 C 91.813075 54.320345 91.811339 54.304506 91.8125
	 54.28125 C 91.813777 54.255669 91.841772 54.244141 91.84375 54.21875 C 91.844289 54.211825 91.843159 54.19441 91.84375 54.1875 C 91.844633
	 54.172913 91.842631 54.13954 91.84375 54.125 C 91.844906 54.113533 91.842452 54.105175 91.84375 54.09375 C 91.8451 54.079255 91.842174 54.076951
	 91.84375 54.0625 C 91.846627 54.039737 91.840315 54.022585 91.84375 54 C 91.849147 53.956776 91.867673 53.917865 91.875 53.875 C 91.877264
	 53.863897 91.872601 53.854804 91.875 53.84375 C 91.876324 53.836625 91.873625 53.819616 91.875 53.8125 C 91.877026 53.803697 91.872889 53.79002
	 91.875 53.78125 C 91.87785 53.767035 91.903202 53.76418 91.90625 53.75 C 91.909047 53.7391 91.903322 53.729597 91.90625 53.71875 C 91.912733
	 53.690456 91.930267 53.653169 91.9375 53.625 C 91.939443 53.618571 91.935511 53.600159 91.9375 53.59375 C 91.943196 53.572667 91.962658 53.552271
	 91.96875 53.53125 C 91.974842 53.510229 91.962276 53.458464 91.96875 53.4375 C 92.404675 52.025953 93.691942 50.755204 93.6875 48.90625 C
	 93.681609 46.459909 92.028948 45.231427 91.65625 44.46875 C 91.393544 43.931033 90.962701 42.423143 91.59375 40.90625 C 90.440958 42.324808
	 89.148892 43.410078 89.15625 44.96875 C 89.161744 46.133144 89.81131 47.303811 89.75 49 C 89.678874 50.968042 86.491901 52.228352 86.375 57.15625
	 C 86.375 64.687418 92.468836 70.781253 100 70.78125 C 107.53116 70.78125 113.625 64.687419 113.625 57.15625 C 113.5081 52.228352 110.32113
	 50.968042 110.25 49 C 110.18869 47.303811 110.83825 46.133144 110.84375 44.96875 C 110.85111 43.410078 109.55904 42.324808 108.40625 40.90625 C
	 109.0373 42.423143 108.60645 43.931033 108.34375 44.46875 C 107.97105 45.231427 106.31839 46.459909 106.3125 48.90625 C 106.30806 50.755204
	 107.59532 52.025953 108.03125 53.4375 C 108.03438 53.445822 108.02819 53.46039 108.03125 53.46875 C 108.03337 53.475744 108.02918 53.493
	 108.03125 53.5 C 108.03494 53.51051 108.02768 53.520682 108.03125 53.53125 C 108.03734 53.552271 108.0568 53.572667 108.0625 53.59375 C 108.07389
	 53.635916 108.08403 53.676308 108.09375 53.71875 C 108.10839 53.772984 108.11368 53.819483 108.125 53.875 C 108.12988 53.903577 108.15221
	 53.940016 108.15625 53.96875 C 108.16502 54.022778 108.1507 54.069957 108.15625 54.125 C 108.15849 54.15408 108.15496 54.189481 108.15625
	 54.21875 C 108.15823 54.244141 108.18622 54.255669 108.1875 54.28125 C 108.18764 54.288604 108.18742 54.305133 108.1875 54.3125 C 108.18793
	 54.324166 108.18721 54.332047 108.1875 54.34375 C 108.18807 54.367155 108.18752 54.382702 108.1875 54.40625 C 108.18868 55.913313 106.97582
	 57.15625 105.46875 57.15625 C 104.29136 57.156251 103.28817 56.388775 102.90625 55.34375 C 102.90319 55.33539 102.90923 55.320898 102.90625
	 55.3125 C 102.80508 55.02696 102.7185 54.726501 102.71875 54.40625 C 102.71862 54.241415 102.75335 54.094296 102.78125 53.9375 C 102.78524
	 53.915101 102.77672 53.897207 102.78125 53.875 C 102.7885 53.839469 102.80389 53.816264 102.8125 53.78125 C 102.81751 53.753359 102.83817
	 53.71529 102.84375 53.6875 C 102.84987 53.665914 102.83712 53.615115 102.84375 53.59375 C 102.84988 53.566067 102.86835 53.558818 102.875
	 53.53125 C 102.88571 53.499546 102.89442 53.46867 102.90625 53.4375 C 102.90863 53.428351 102.90382 53.415385 102.90625 53.40625 C 103.16668
	 52.428817 103.7228 51.534355 103.96875 50.875 C 104.4114 49.688267 105.32817 47.737448 105.3125 45.25 C 105.30067 43.371279 104.86091 39.16545
	 102.5625 35.90625 C 100.72384 33.29902 99.533653 32.180524 98.90625 30.5 C 98.586341 29.643267 98.839729 28.537797 99.46875 27.4375 z "
	 />
</g>
</g>
<!-- lotos -->
<g transform="translate(183,220)">
<g transform="scale(0.011)">

<g style="stroke:#0000ff;stroke-width:80;">
 <g style="fill:#6666ff">
  <polygon points="10545,2183 10592,2296 10705,2567 10839,2889 10952,3160 11000,3274 10884,3352 10756,3393 10636,3407 10545,3410 10536,3424 10510,3455
  10468,3486 10409,3501 10349,3486 10306,3455 10280,3424 10272,3410 10181,3407 10061,3393 9933,3352 9818,3274 9865,3160 9977,2889 10112,2567
  10224,2296 10272,2183 10545,2183"/>
  <polygon points="1863,2183 1910,2296 2023,2567 2157,2889 2270,3160 2318,3274 2202,3352 2074,3393 1954,3407 1863,3410 1854,3424 1828,3455 1786,3486
  1727,3501 1667,3486 1624,3455 1598,3424 1590,3410 1499,3407 1379,3393 1251,3352 1136,3274 1183,3160 1295,2889 1430,2567 1542,2296 1590,2183
  1863,2183"/>
  <polygon points="2272,1773 2042,1753 1843,1725 1672,1687 1528,1642 1409,1591 1343,1529 1284,1438 1242,1354 1227,1318 1205,1334 1158,1380 1111,1452
  1090,1545 1104,1638 1135,1710 1166,1756 1181,1773 1173,1787 1158,1824 1143,1868 1136,1909 1143,1949 1158,1993 1173,2030 1181,2045 1122,2062
  982,2113 816,2198 681,2318 593,2441 530,2556 486,2689 454,2864 364,3069 210,3210 64,3291 0,3318 33,3335 131,3376 288,3421 500,3454 805,3446
  1066,3382 1284,3280 1459,3161 1590,3045 1726,2878 1865,2672 2015,2460 2181,2273 2348,2153 2572,2031 2799,1923 2974,1847 3045,1818 2272,1773"/>
 </g>
 <g style="fill:none">
  <polyline points="2772,1864 2576,1873 2342,1915 2106,2005 1903,2164 1772,2409 1659,2644 1487,2858 1298,3029 1136,3136 920,3215 722,3246 560,3247
  449,3235 409,3227 433,3213 497,3165 585,3069 682,2913 772,2682 850,2470 943,2313 1053,2215 1181,2182 1262,2189 1323,2204 1392,2219 1500,2227
  1566,2211 1624,2170 1665,2111 1681,2045 1665,1978 1624,1920 1566,1879 1500,1864 1440,1871 1397,1892 1371,1920 1363,1954 1377,2025 1408,2050
  1439,2049 1454,2045" style="fill:none"/>
 </g>
 <g style="fill:#6666ff">
  <polygon points="9818,1773 10047,1753 10246,1725 10417,1687 10561,1642 10681,1591 10746,1529 10805,1438 10847,1354 10863,1318 10884,1334 10931,1380
  10978,1452 11000,1545 10985,1638 10954,1710 10923,1756 10909,1773 10916,1787 10931,1824 10946,1868 10954,1909 10946,1949 10931,1993 10916,2030
  10909,2045 10968,2062 11108,2113 11273,2198 11409,2318 11496,2441 11559,2556 11603,2689 11636,2864 11725,3069 11879,3210 12025,3291 12090,3318
  12056,3335 11958,3376 11801,3421 11590,3454 11284,3446 11023,3382 10805,3280 10630,3161 10500,3045 10363,2878 10224,2672 10074,2460 9909,2273
  9741,2153 9517,2031 9290,1923 9115,1847 9045,1818 9818,1773"/>
 </g>
 <g style="fill:none">
  <polyline points="9318,1864 9513,1873 9747,1915 9983,2005 10186,2164 10318,2409 10430,2644 10602,2858 10791,3029 10954,3136 11169,3215 11367,3246
  11529,3247 11640,3235 11681,3227 11656,3213 11592,3165 11504,3069 11407,2913 11318,2682 11239,2470 11146,2313 11036,2215 10909,2182 10827,2189
  10766,2204 10697,2219 10590,2227 10523,2211 10465,2170 10424,2111 10409,2045 10424,1978 10465,1920 10523,1879 10590,1864 10649,1871 10692,1892
  10718,1920 10727,1954 10712,2025 10681,2050 10650,2049 10636,2045" style="fill:none"/>
 </g>
 <g style="fill:#6666ff">
  <polygon points="5045,1409 5092,1295 5205,1024 5339,702 5452,431 5500,318 5384,239 5256,199 5136,184 5045,182 5036,167 5010,136 4968,105 4909,91
  4849,105 4806,136 4780,167 4772,182 4681,184 4561,199 4433,239 4318,318 4365,431 4477,702 4612,1024 4724,1295 4772,1409 5045,1409"/>
  <polygon points="7317,1409 7364,1295 7477,1024 7611,702 7724,431 7772,318 7656,239 7528,199 7408,184 7317,182 7308,167 7282,136 7240,105 7181,91
  7121,105 7078,136 7052,167 7044,182 6953,184 6833,199 6705,239 6590,318 6637,431 6749,702 6884,1024 6996,1295 7044,1409 7317,1409"/>
  <polygon points="5045,2182 5092,2295 5205,2566 5339,2888 5452,3159 5500,3273 5384,3351 5256,3392 5136,3406 5045,3409 5036,3423 5010,3454 4968,3485
  4909,3500 4849,3485 4806,3454 4780,3423 4772,3409 4681,3406 4561,3392 4433,3351 4318,3273 4365,3159 4477,2888 4612,2566 4724,2295 4772,2182
  5045,2182"/>
  <polygon points="7317,2182 7364,2295 7477,2566 7611,2888 7724,3159 7772,3273 7656,3351 7528,3392 7408,3406 7317,3409 7308,3423 7282,3454 7240,3485
  7181,3500 7121,3485 7078,3454 7052,3423 7044,3409 6953,3406 6833,3392 6705,3351 6590,3273 6637,3159 6749,2888 6884,2566 6996,2295 7044,2182
  7317,2182"/>
  <polygon points="3454,1410 3501,1296 3614,1025 3748,703 3861,432 3909,319 3793,240 3665,200 3545,185 3454,183 3445,168 3419,137 3377,106 3318,92
  3258,106 3215,137 3189,168 3181,183 3090,185 2970,200 2842,240 2727,319 2774,432 2886,703 3021,1025 3133,1296 3181,1410 3454,1410"/>
  <polygon points="3454,2183 3501,2296 3614,2567 3748,2889 3861,3160 3909,3274 3793,3352 3665,3393 3545,3407 3454,3410 3445,3424 3419,3455 3377,3486
  3318,3501 3258,3486 3215,3455 3189,3424 3181,3410 3090,3407 2970,3393 2842,3352 2727,3274 2774,3160 2886,2889 3021,2567 3133,2296 3181,2183
  3454,2183"/>
  <polygon points="5136,1817 4845,1814 4572,1814 4317,1829 4081,1872 3863,1953 3671,2086 3530,2254 3434,2438 3380,2617 3363,2772 3375,2960 3425,3118
  3535,3251 3727,3363 3801,3407 3875,3468 3931,3521 3954,3544 3981,3518 4046,3461 4121,3400 4181,3363 4444,3266 4640,3177 4776,3074 4863,2931
  4909,2726 4935,2596 4990,2437 5073,2275 5181,2135 5323,2027 5505,1925 5660,1847 5727,1817 5136,1817"/>
 </g>
 <g style="fill:none">
  <polyline points="5000,1818 4778,1817 4612,1822 4475,1840 4340,1881 4181,1954 3970,2099 3813,2281 3714,2469 3681,2636 3679,2794 3683,2928 3709,3041
  3772,3136 3819,3183 3880,3244 3932,3296 3954,3318 3982,3292 4049,3233 4124,3172 4181,3136 4400,3044 4549,2949 4649,2835 4717,2690 4772,2500
  4811,2353 4855,2240 4914,2142 5000,2045 5127,1959 5294,1887 5438,1836 5500,1818" style="fill:none"/>
 </g>
 <g style="fill:#6666ff">
  <polygon points="5136,1812 4845,1814 4572,1814 4317,1799 4081,1756 3863,1676 3671,1542 3530,1374 3434,1190 3380,1011 3363,857 3375,668 3425,510
  3535,377 3727,266 3801,221 3875,160 3931,107 3954,85 3981,110 4046,167 4121,228 4181,266 4444,362 4640,451 4776,554 4863,697 4909,903 4935,1032
  4990,1191 5073,1353 5181,1494 5323,1601 5505,1704 5660,1781 5727,1812 5136,1812"/>
 </g>
 <g style="fill:none">
  <polyline points="5000,1813 4778,1813 4612,1808 4475,1790 4340,1749 4181,1677 3970,1531 3813,1349 3714,1161 3681,995 3679,836 3683,702 3709,589
  3772,495 3819,447 3880,386 3932,334 3954,313 3982,338 4049,397 4124,458 4181,495 4400,586 4549,681 4649,795 4717,940 4772,1131 4811,1277 4855,1390
  4914,1488 5000,1586 5127,1671 5294,1743 5438,1794 5500,1813" style="fill:none"/>
 </g>
 <g style="fill:#6666ff">
  <polygon points="8954,1410 9001,1296 9114,1025 9248,703 9361,432 9409,319 9293,240 9165,200 9045,185 8954,183 8945,168 8919,137 8877,106 8818,92
  8758,106 8715,137 8689,168 8681,183 8590,185 8470,200 8342,240 8227,319 8274,432 8386,703 8521,1025 8633,1296 8681,1410 8954,1410"/>
  <polygon points="8954,2183 9001,2296 9114,2567 9248,2889 9361,3160 9409,3274 9293,3352 9165,3393 9045,3407 8954,3410 8945,3424 8919,3455 8877,3486
  8818,3501 8758,3486 8715,3455 8689,3424 8681,3410 8590,3407 8470,3393 8342,3352 8227,3274 8274,3160 8386,2889 8521,2567 8633,2296 8681,2183
  8954,2183"/>
  <polygon points="6953,1818 7243,1815 7516,1815 7771,1830 8007,1873 8226,1954 8417,2087 8558,2255 8654,2439 8708,2618 8726,2773 8713,2961 8663,3119
  8553,3252 8362,3364 8287,3408 8214,3469 8157,3522 8135,3545 8107,3519 8042,3462 7967,3401 7908,3364 7644,3267 7448,3178 7312,3075 7225,2932
  7180,2727 7153,2597 7098,2438 7015,2276 6908,2136 6765,2028 6584,1926 6428,1848 6362,1818 6953,1818"/>
 </g>
 <g style="fill:none">
  <polyline points="7089,1819 7310,1818 7476,1823 7613,1841 7748,1882 7908,1955 8118,2100 8275,2282 8374,2470 8408,2637 8409,2795 8405,2929 8379,3042
  8317,3137 8269,3184 8208,3245 8156,3297 8135,3319 8106,3293 8039,3234 7964,3173 7908,3137 7689,3045 7539,2950 7439,2836 7371,2691 7317,2501
  7277,2354 7233,2241 7174,2143 7089,2046 6961,1960 6794,1888 6650,1837 6589,1819" style="fill:none"/>
 </g>
 <g style="fill:#6666ff">
  <polygon points="6953,1813 7243,1815 7516,1815 7771,1800 8007,1757 8226,1677 8417,1543 8558,1375 8654,1191 8708,1012 8726,858 8713,669 8663,511
  8553,378 8362,267 8287,222 8214,161 8157,108 8135,86 8107,111 8042,168 7967,229 7908,267 7644,363 7448,452 7312,555 7225,698 7180,904 7153,1033
  7098,1192 7015,1354 6908,1495 6765,1602 6584,1705 6428,1782 6362,1813 6953,1813"/>
 </g>
 <g style="fill:none">
  <polyline points="7085,1814 7306,1814 7472,1809 7609,1791 7744,1750 7904,1678 8114,1532 8271,1350 8370,1162 8404,996 8405,837 8401,703 8375,590
  8313,496 8265,448 8204,387 8152,335 8131,314 8102,339 8035,398 7960,459 7904,496 7685,587 7535,682 7435,796 7367,941 7313,1132 7273,1278 7229,1391
  7170,1489 7085,1587 6957,1672 6790,1744 6646,1795 6585,1814" style="fill:none"/>
 </g>
 <g style="fill:#6666ff">
  <polygon points="6272,1818 6394,1809 6499,1784 6604,1741 6727,1682 6883,1564 6997,1399 7066,1205 7090,1000 7081,825 7055,698 7013,596 6954,500
  6870,398 6760,301 6634,212 6500,136 6390,95 6238,51 6103,14 6045,0 5989,13 5860,46 5709,90 5590,136 5455,212 5329,301 5219,398 5136,500 5076,596
  5034,697 5008,825 5000,1000 5023,1224 5092,1416 5206,1570 5363,1682 5485,1741 5590,1784 5695,1809 5818,1818 6272,1818"/>
 </g>
 <g style="fill:none">
  <polyline points="6272,1818 6375,1802 6472,1761 6560,1702 6636,1636 6719,1534 6776,1422 6807,1291 6818,1136 6780,950 6690,804 6585,699 6500,636
  6371,554 6221,465 6096,392 6045,363 5993,392 5868,465 5718,554 5590,636 5504,699 5399,804 5309,950 5272,1136 5281,1290 5312,1420 5368,1532
  5454,1636 5529,1702 5616,1761 5714,1802 5818,1818" style="fill:none"/>
 </g>
 <g style="fill:#6666ff">
  <polygon points="6272,1818 6394,1826 6499,1851 6604,1894 6727,1954 6883,2071 6997,2236 7066,2430 7090,2636 7081,2810 7055,2937 7013,3039 6954,3136
  6870,3237 6760,3334 6634,3423 6500,3500 6390,3540 6238,3584 6103,3621 6045,3636 5989,3622 5860,3589 5709,3545 5590,3500 5455,3423 5329,3334
  5219,3237 5136,3136 5076,3039 5034,2938 5008,2810 5000,2636 5023,2411 5092,2220 5206,2065 5363,1954 5485,1894 5590,1851 5695,1826 5818,1818
  6272,1818"/>
 </g>
 <g style="fill:none">
  <polyline points="6272,1818 6375,1833 6472,1874 6560,1933 6636,2000 6719,2101 6776,2213 6807,2344 6818,2500 6780,2685 6690,2831 6585,2936 6500,3000
  6371,3081 6221,3170 6096,3243 6045,3273 5993,3243 5868,3170 5718,3081 5590,3000 5504,2936 5399,2831 5309,2685 5272,2500 5281,2345 5312,2215
  5368,2103 5454,2000 5529,1933 5616,1874 5714,1833 5818,1818" style="fill:none"/>
 </g>
 <g style="fill:#6666ff">
  <polygon points="3681,1817 3390,1814 3117,1814 2862,1829 2626,1872 2408,1953 2216,2086 2075,2254 1979,2438 1925,2617 1908,2772 1920,2960 1970,3118
  2080,3251 2272,3363 2346,3407 2420,3468 2476,3521 2499,3544 2526,3518 2591,3461 2666,3400 2726,3363 2989,3266 3185,3177 3321,3074 3408,2931
  3454,2726 3480,2596 3535,2437 3618,2275 3726,2135 3868,2027 4050,1925 4205,1847 4272,1817 3681,1817"/>
 </g>
 <g style="fill:none">
  <polyline points="3545,1818 3323,1817 3157,1822 3020,1840 2885,1881 2726,1954 2515,2099 2358,2281 2259,2469 2226,2636 2224,2794 2228,2928 2254,3041
  2317,3136 2364,3183 2425,3244 2477,3296 2499,3318 2527,3292 2594,3233 2669,3172 2726,3136 2945,3044 3094,2949 3194,2835 3262,2690 3317,2500
  3356,2353 3400,2240 3459,2142 3545,2045 3672,1959 3839,1887 3983,1836 4045,1818" style="fill:none"/>
 </g>
 <g style="fill:#6666ff">
  <polygon points="3681,1812 3390,1814 3117,1814 2862,1799 2626,1756 2408,1676 2216,1542 2075,1374 1979,1190 1925,1011 1908,857 1920,668 1970,510
  2080,377 2272,266 2346,221 2420,160 2476,107 2499,85 2526,110 2591,167 2666,228 2726,266 2989,362 3185,451 3321,554 3408,697 3454,903 3480,1032
  3535,1191 3618,1353 3726,1494 3868,1601 4050,1704 4205,1781 4272,1812 3681,1812"/>
 </g>
 <g style="fill:none">
  <polyline points="3545,1813 3323,1813 3158,1808 3020,1790 2885,1749 2726,1677 2515,1531 2358,1349 2259,1161 2226,995 2224,836 2228,702 2254,589
  2317,495 2364,447 2425,386 2477,334 2499,313 2527,338 2594,397 2669,458 2726,495 2945,586 3094,681 3194,795 3262,940 3317,1131 3356,1277 3400,1390
  3459,1488 3545,1586 3672,1671 3839,1743 3983,1794 4045,1813" style="fill:none"/>
 </g>
 <g style="fill:#6666ff">
  <polygon points="8408,1813 8698,1815 8971,1815 9226,1800 9462,1757 9681,1677 9872,1543 10013,1375 10109,1191 10163,1012 10181,858 10168,669
  10118,511 10008,378 9817,267 9742,222 9669,161 9612,108 9590,86 9562,111 9497,168 9422,229 9363,267 9099,363 8903,452 8767,555 8680,698 8635,904
  8608,1033 8553,1192 8470,1354 8363,1495 8220,1602 8039,1705 7883,1782 7817,1813 8408,1813"/>
 </g>
 <g style="fill:none">
  <polyline points="8540,1814 8761,1814 8927,1809 9064,1791 9199,1750 9359,1678 9569,1532 9726,1350 9825,1162 9859,996 9860,837 9856,703 9830,590
  9768,496 9720,448 9659,387 9607,335 9586,314 9557,339 9490,398 9415,459 9359,496 9140,587 8990,682 8890,796 8822,941 8768,1132 8728,1278 8684,1391
  8625,1489 8540,1587 8412,1672 8245,1744 8101,1795 8040,1814" style="fill:none"/>
 </g>
 <g style="fill:#6666ff">
  <polygon points="8408,1818 8698,1815 8971,1815 9226,1830 9462,1873 9681,1954 9872,2087 10013,2255 10109,2439 10163,2618 10181,2773 10168,2961
  10118,3119 10008,3252 9817,3364 9742,3408 9669,3469 9612,3522 9590,3545 9562,3519 9497,3462 9422,3401 9363,3364 9099,3267 8903,3178 8767,3075
  8680,2932 8635,2727 8608,2597 8553,2438 8470,2276 8363,2136 8220,2028 8039,1926 7883,1848 7817,1818 8408,1818"/>
 </g>
 <g style="fill:none">
  <polyline points="8544,1819 8765,1818 8931,1823 9068,1841 9203,1882 9363,1955 9573,2100 9730,2282 9829,2470 9863,2637 9864,2795 9860,2929 9834,3042
  9772,3137 9724,3184 9663,3245 9611,3297 9590,3319 9561,3293 9494,3234 9419,3173 9363,3137 9144,3045 8994,2950 8894,2836 8826,2691 8772,2501
  8732,2354 8688,2241 8629,2143 8544,2046 8416,1960 8249,1888 8105,1837 8044,1819" style="fill:none"/>
 </g>
</g>

</g>
</g>
</svg>
