<?xml version="1.0" encoding="UTF-8" standalone="no"?>
<!-- Created with Inkscape (http://www.inkscape.org/) -->

<svg
   xmlns:dc="http://purl.org/dc/elements/1.1/"
   xmlns:cc="http://creativecommons.org/ns#"
   xmlns:rdf="http://www.w3.org/1999/02/22-rdf-syntax-ns#"
   xmlns:svg="http://www.w3.org/2000/svg"
   xmlns="http://www.w3.org/2000/svg"
   xmlns:xlink="http://www.w3.org/1999/xlink"
   version="1.0"
   width="900"
   height="600"
   id="svg2"
   xml:space="preserve"
   style="fill-rule:evenodd"><metadata
   id="metadata67"><rdf:RDF><cc:Work
       rdf:about=""><dc:format>image/svg+xml</dc:format><dc:type
         rdf:resource="http://purl.org/dc/dcmitype/StillImage" /><dc:title></dc:title></cc:Work></rdf:RDF></metadata><defs
   id="defs4" />
 
<rect
   width="900"
   height="300"
   x="0"
   y="300"
   id="rect2964"
   style="fill:#d81e05" /><rect
   width="900"
   height="300"
   x="0"
   y="0"
   id="rect2968"
   style="fill:#ffdb00" /><rect
   width="900"
   height="199.99983"
   x="0"
   y="200.00017"
   id="rect2966"
   style="fill:#3a7728" /><path
   d="m 1446.1495,730.67316 a 433.22815,494.89761 0 1 1 -866.45632,0 433.22815,494.89761 0 1 1 866.45632,0 z"
   transform="matrix(-0.4616505,0,0,0.404124,917.61564,4.7174412)"
   id="path4096"
   style="fill:#dbb957;fill-opacity:1" /><path
   d="m 450.00031,229.26516 c -39.04046,0 -70.72547,31.68501 -70.72547,70.72547 0,39.04046 31.68501,70.72547 70.72547,70.72547 39.04048,0 70.7255,-31.68501 70.7255,-70.72547 0,-39.04046 -31.68502,-70.72547 -70.7255,-70.72547 l 0,0 z m 0,6.73576 c 35.32233,0 63.98974,28.66739 63.98974,63.98971 0,35.32232 -28.66741,63.98971 -63.98974,63.98971 -35.32232,0 -63.98971,-28.66739 -63.98971,-63.98971 0,-35.32232 28.66739,-63.98971 63.98971,-63.98971 z"
   id="path3653"
   style="fill:#dbb957;fill-opacity:1;stroke:none" /><path
   d="m 1446.1495,730.67316 a 433.22815,494.89761 0 1 1 -866.45632,0 433.22815,494.89761 0 1 1 866.45632,0 z"
   transform="matrix(-0.4501097,0,0,-0.3940213,905.92571,587.90079)"
   id="path3733"
   style="fill:#ffffff;fill-opacity:1" /><path
   d="m 626,291 a 88,88 0 1 1 -176,0 88,88 0 1 1 176,0 z"
   transform="matrix(0.9090909,0,0,0.9090909,-39.090904,35.454548)"
   id="path4142"
   style="fill:#dbb957;fill-opacity:1;stroke:none" /><path
   d="m 626,291 a 88,88 0 1 1 -176,0 88,88 0 1 1 176,0 z"
   transform="matrix(0.8522727,0,0,0.8522727,-8.5227126,51.988644)"
   id="path4147"
   style="fill:#ffffff;fill-opacity:1;fill-rule:evenodd;stroke:none" /><path
   d="M 449.96875,105 424.9375,154.03125 449.96875,240.9375 475,154.03125 449.96875,105 z m 0,26.25 11.625,22.78125 -23.25,0 11.625,-22.78125 z"
   id="rect3413"
   style="fill:#dbb957;fill-opacity:1;stroke:none" /><polygon
   points="2.29882,1.19252 2.29882,1.19252 2.34822,1.15832 2.34063,1.26852 "
   transform="matrix(223.13357,0,0,223.13357,-70.643945,2.4801613)"
   id="polygon2972"
   style="fill:#dbb957;fill-rule:evenodd;stroke:none" /><path
   d="m 436.42301,291.46556 -1.70499,5.93589 -13.57676,5.93589 24.59604,3.3784 -3.3784,56.6751 -0.18944,0.15787 -16.95517,9.3143 -43.25621,-5.0834 -23.74355,26.26946 35.61533,95.82671 31.38443,-64.44228 16.10267,67.85225 -15.25018,-9.34586 -1.70499,9.75632 19.05619,2.81952 3.83487,-1.55656 0,-64.44227 1.16823,0 3.15739,0 1.16823,0 0,64.44227 9.37392,1.86152 13.51714,-3.12448 -1.70499,-9.75632 -15.25018,9.34586 16.10268,-67.85225 31.38442,64.44228 35.61533,-95.82671 -23.74355,-26.26946 -43.2562,5.0834 -16.95517,-9.3143 -0.22102,-0.15787 0,-0.0316 -4.2309,-66.81031 -16.95517,-5.0834 z"
   id="polygon4257"
   style="fill:#dbb957;fill-opacity:1;fill-rule:evenodd;stroke:none" /><use
   transform="matrix(-1,0,0,1,899.9375,0)"
   id="use3105"
   x="0"
   y="0"
   width="900"
   height="600"
   xlink:href="#path2537" /><use
   transform="matrix(-1,0,0,1,899.9375,0)"
   id="use3103"
   x="0"
   y="0"
   width="900"
   height="600"
   xlink:href="#path2543" /><use
   transform="matrix(-1,0,0,1,899.9375,0)"
   id="use3101"
   x="0"
   y="0"
   width="900"
   height="600"
   xlink:href="#path2549" /><use
   transform="matrix(-1,0,0,1,899.9375,0)"
   id="use3099"
   x="0"
   y="0"
   width="900"
   height="600"
   xlink:href="#path2555" /><path
   d="m 352.46875,131.09375 2.84375,54.96875 65.125,62.75 -21.78125,-87.78125 -46.1875,-29.9375 z m 13.125,22.71875 21.46875,13.9375 -20.15625,11.625 -1.3125,-25.5625 z"
   id="path2537"
   style="fill:#dbb957;fill-opacity:1;fill-rule:evenodd;stroke:none" /><path
   d="m 281.0625,202.46875 29.96875,46.1875 87.78125,21.78125 -62.78125,-65.125 -54.96875,-2.84375 z m 22.75,13.125 25.53125,1.3125 -11.625,20.125 -13.90625,-21.4375 z"
   id="path2543"
   style="fill:#dbb957;fill-opacity:1;fill-rule:evenodd;stroke:none" /><path
   d="M 303.96875,274.90625 254.9375,299.9375 303.96875,324.96875 390.875,299.9375 303.96875,274.90625 z m 0,13.40625 0,23.25 -22.78125,-11.625 22.78125,-11.625 z"
   id="path2549"
   style="fill:#dbb957;fill-opacity:1;fill-rule:evenodd;stroke:none" /><path
   d="M 398.78125,329.46875 311,351.25 281.03125,397.46875 336,394.59375 l 62.78125,-65.125 z M 317.6875,362.875 329.3125,383 303.78125,384.3125 317.6875,362.875 z"
   id="path2555"
   style="fill:#dbb957;fill-opacity:1;fill-rule:evenodd;stroke:none" /></svg>