<?xml version="1.0" encoding="UTF-8" standalone="no"?>
<!-- Created with Inkscape (http://www.inkscape.org/) -->

<svg
   xmlns:dc="http://purl.org/dc/elements/1.1/"
   xmlns:cc="http://creativecommons.org/ns#"
   xmlns:rdf="http://www.w3.org/1999/02/22-rdf-syntax-ns#"
   xmlns:svg="http://www.w3.org/2000/svg"
   xmlns="http://www.w3.org/2000/svg"
   xmlns:sodipodi="http://sodipodi.sourceforge.net/DTD/sodipodi-0.dtd"
   xmlns:inkscape="http://www.inkscape.org/namespaces/inkscape"
   version="1.0"
   width="900"
   height="450"
   id="svg1307"
   inkscape:version="0.48.4 r9939"
   sodipodi:docname="PH_flag_9_Rays.svg">
  <metadata
     id="metadata23">
    <rdf:RDF>
      <cc:Work
         rdf:about="">
        <dc:format>image/svg+xml</dc:format>
        <dc:type
           rdf:resource="http://purl.org/dc/dcmitype/StillImage" />
        <dc:title></dc:title>
      </cc:Work>
    </rdf:RDF>
  </metadata>
  <sodipodi:namedview
     pagecolor="#ffffff"
     bordercolor="#666666"
     borderopacity="1"
     objecttolerance="10"
     gridtolerance="10"
     guidetolerance="10"
     inkscape:pageopacity="0"
     inkscape:pageshadow="2"
     inkscape:window-width="1366"
     inkscape:window-height="705"
     id="namedview21"
     showgrid="false"
     inkscape:zoom="0.24198765"
     inkscape:cx="116.97588"
     inkscape:cy="243.21935"
     inkscape:window-x="-8"
     inkscape:window-y="-8"
     inkscape:window-maximized="1"
     inkscape:current-layer="svg1307" />
  <defs
     id="defs3" />
  <rect
     width="900"
     height="450"
     x="0"
     y="0"
     id="blue"
     style="fill:#0038a8" />
  <rect
     width="900"
     height="225"
     x="0"
     y="225"
     id="red"
     style="fill:#ce1126" />
  <rect
     width="314.12338"
     height="450"
     x="0"
     y="0"
     id="blue-1"
     style="fill:#ffffff;fill-opacity:1" />
  <g
     transform="matrix(0.99102135,-0.1337037,0.1337037,0.99102135,-194.39313,-493.73741)"
     id="g2988"
     style="fill:#fcd116;fill-opacity:1">
    <path
       d="m 236.11724,720.02947 -13.72597,-28.9345 -8.44031,-1.67702 19.14253,33.14875 3.02375,-2.53723 z m -12.86163,10.79219 -30.58491,-29.16071 0.46441,-14.14868 13.91933,2.0793 23.39092,35.19718 -7.18975,6.03291 z m -5.67666,4.76329 -25.82946,-18.77848 -0.11897,-8.65945 28.97695,24.8967 -3.02852,2.54123 z"
       id="path2876"
       style="fill:#fcd116;fill-opacity:1"
       inkscape:connector-curvature="0" />
    <path
       d="m 242.36974,717.75744 -8.08404,-30.988 5.38769,-6.71 6.64357,37.698 -3.94722,0 z m 16.78966,0 4.68526,-41.998 -9.45035,-10.54 -9.32628,10.54 4.70583,41.998 9.38554,0 z m 7.41036,0 7.71594,-30.988 -5.47505,-6.71 -6.19434,37.698 3.95345,0 z"
       id="path2954-1"
       style="fill:#fcd116;fill-opacity:1"
       inkscape:connector-curvature="0" />
    <path
       d="m 214.53435,741.10703 -29.11344,-13.34224 -7.54362,4.14066 35.97164,13.08883 0.68542,-3.88725 z m -2.91549,16.53458 -42.17354,-2.67879 -8.73884,-11.13703 11.99936,-7.35434 40.5428,11.92721 -1.62978,9.24295 z m -1.2868,7.29778 -31.85708,2.21771 -5.65733,-6.55705 38.20092,0.44595 -0.68651,3.89339 z"
       id="path2890"
       style="fill:#fcd116;fill-opacity:1"
       inkscape:connector-curvature="0" />
    <circle
       cx="82.530502"
       cy="149.8075"
       r="30.915501"
       transform="matrix(1.0292508,1.0292508,-1.0292508,1.0292508,323.5306,521.08514)"
       id="circle2962-7"
       style="fill:#fcd116;fill-opacity:1"
       d="m 113.446,149.8075 c 0,17.07415 -13.841338,30.9155 -30.915498,30.9155 -17.074159,0 -30.9155,-13.84135 -30.9155,-30.9155 0,-17.07416 13.841341,-30.91551 30.9155,-30.91551 17.07416,0 30.915498,13.84135 30.915498,30.91551 z"
       sodipodi:cx="82.530502"
       sodipodi:cy="149.8075"
       sodipodi:rx="30.915501"
       sodipodi:ry="30.915501" />
    <path
       d="m 211.54661,771.13283 -30.87841,8.49301 -3.11719,8.02087 35.96922,-13.0955 -1.97362,-3.41838 z m 8.39483,14.54026 -34.0287,25.05656 -13.85308,-2.91424 4.46476,-13.34679 38.72425,-16.92364 4.69277,8.12811 z m 3.70518,6.41756 -22.97843,22.17621 -8.54855,-1.38653 29.55025,-24.21347 1.97673,3.42379 z"
       id="path2922"
       style="fill:#fcd116;fill-opacity:1"
       inkscape:connector-curvature="0" />
    <path
       d="m 228.55808,796.0544 -18.19503,26.35428 2.76781,8.14803 19.1364,-33.1523 -3.70918,-1.35001 z m 15.77712,5.74239 -9.96146,41.06766 -12.48531,6.67216 -5.15894,-13.09413 18.78619,-37.85573 8.81952,3.21004 z m 6.96346,2.53449 -3.34791,31.75821 -7.43981,4.43276 7.07268,-37.54313 3.71504,1.35216 z"
       id="path2936"
       style="fill:#fcd116;fill-opacity:1"
       inkscape:connector-curvature="0" />
    <path
       d="m 272.45416,720.02947 13.72597,-28.9345 8.44031,-1.67702 -19.14253,33.14875 -3.02375,-2.53723 z m 12.86163,10.79219 30.58491,-29.16071 -0.46441,-14.14868 -13.91933,2.0793 -23.39092,35.19718 7.18975,6.03291 z m 5.67666,4.76329 25.82946,-18.77848 0.11897,-8.65945 -28.97695,24.8967 3.02852,2.54123 z"
       id="path2952"
       style="fill:#fcd116;fill-opacity:1"
       inkscape:connector-curvature="0" />
    <path
       d="m 294.03705,741.10703 29.11344,-13.34224 7.54362,4.14066 -35.97164,13.08883 -0.68542,-3.88725 z m 2.91549,16.53458 42.17354,-2.67879 8.73884,-11.13703 -11.99936,-7.35434 -40.5428,11.92721 1.62978,9.24295 z m 1.2868,7.29778 31.85708,2.21771 5.65733,-6.55705 -38.20092,0.44595 0.68651,3.89339 z"
       id="path2956"
       style="fill:#fcd116;fill-opacity:1"
       inkscape:connector-curvature="0" />
    <path
       d="m 297.02479,771.13283 30.87841,8.49301 3.11719,8.02087 -35.96922,-13.0955 1.97362,-3.41838 z m -8.39483,14.54026 34.0287,25.05656 13.85308,-2.91424 -4.46476,-13.34679 -38.72425,-16.92364 -4.69277,8.12811 z m -3.70518,6.41756 22.97843,22.17621 8.54855,-1.38653 -29.55025,-24.21347 -1.97673,3.42379 z"
       id="path2960-4"
       style="fill:#fcd116;fill-opacity:1"
       inkscape:connector-curvature="0" />
    <path
       d="m 280.01332,796.0544 18.19503,26.35428 -2.76781,8.14803 -19.1364,-33.1523 3.70918,-1.35001 z m -15.77712,5.74239 9.96146,41.06766 12.48531,6.67216 5.15894,-13.09413 -18.78619,-37.85573 -8.81952,3.21004 z m -6.96346,2.53449 3.34791,31.75821 7.43981,4.43276 -7.07268,-37.54313 -3.71504,1.35216 z"
       id="path2962"
       style="fill:#fcd116;fill-opacity:1"
       inkscape:connector-curvature="0" />
  </g>
  <g
     id="g3039"
     transform="translate(-3.2005513,-5.113638)">
    <path
       inkscape:connector-curvature="0"
       style="fill:#fcd116"
       id="path3879"
       d="M 60.74334,52.69838 40.712585,50.501974 32.636646,68.963719 28.535741,49.234543 8.4820252,47.25887 25.972583,37.252144 21.654547,17.569266 36.568665,31.119875 53.96005,20.941856 45.681134,39.313313 60.74376,52.699107 z" />
    <path
       inkscape:connector-curvature="0"
       style="fill:#fcd116;fill-opacity:1"
       id="path3899"
       d="M 60.74334,407.5289 40.712585,409.7253 32.636646,391.26356 28.535741,410.99273 8.4820252,412.9684 25.972583,422.97513 21.654547,442.65801 36.568665,429.1074 53.96005,439.28542 45.681134,420.91396 60.74376,407.52817 z" />
    <path
       inkscape:connector-curvature="0"
       style="fill:#fcd116"
       id="path3879-7"
       d="m 259.78114,52.69838 20.03076,-2.196406 8.07594,18.461745 4.1009,-19.729176 20.05372,-1.975673 -17.49056,-10.006726 4.31803,-19.682878 -14.91411,13.550609 -17.39139,-10.178019 8.27892,18.371457 -15.06263,13.385794 z" />
    <path
       inkscape:connector-curvature="0"
       style="fill:#fcd116;fill-opacity:1"
       id="path3899-4"
       d="m 259.78114,407.5289 20.03076,2.1964 8.07594,-18.46174 4.1009,19.72917 20.05372,1.97567 -17.49056,10.00673 4.31803,19.68288 -14.91411,-13.55061 -17.39139,10.17802 8.27892,-18.37146 -15.06263,-13.38579 z" />
  </g>
</svg>
