<?xml version="1.0" encoding="UTF-8" standalone="no"?>
<!-- Created with Inkscape (http://www.inkscape.org/) -->
<svg
   xmlns:svg="http://www.w3.org/2000/svg"
   xmlns="http://www.w3.org/2000/svg"
   xmlns:xlink="http://www.w3.org/1999/xlink"
   version="1.0"
   width="1200"
   height="600"
   id="svg1399">
  <defs
     id="defs1413" />
  <rect
     width="1200"
     height="600"
     x="0"
     y="0"
     id="rect4890"
     style="opacity:1;fill:#000066;fill-opacity:1;fill-rule:evenodd;stroke:none;stroke-width:2;stroke-linecap:square;stroke-linejoin:round;stroke-miterlimit:4;stroke-dasharray:none;stroke-dashoffset:0.99999998;stroke-opacity:1" />
  <path
     d="M 900.00001,272.69439 L 900.00001,401.95309 L 920.70276,351.97223 L 900.00001,272.69439 z"
     id="path3787"
     style="fill:#ffffff;fill-opacity:1;fill-rule:evenodd;stroke:none;stroke-width:1px;stroke-linecap:butt;stroke-linejoin:miter;stroke-opacity:1" />
  <path
     d="M 900.00001,272.69439 L 900.00001,401.95309 L 879.29726,351.97223 L 900.00001,272.69439 z"
     id="path4662"
     style="fill:#f42a41;fill-opacity:1;fill-rule:evenodd;stroke:none;stroke-width:1px;stroke-linecap:butt;stroke-linejoin:miter;stroke-opacity:1" />
  <path
     d="M 900.00001,531.21179 L 900.00001,401.95309 L 879.29726,451.93394 L 900.00001,531.21179 z"
     id="path4676"
     style="fill:#ffffff;fill-opacity:1;fill-rule:evenodd;stroke:none;stroke-width:1px;stroke-linecap:butt;stroke-linejoin:miter;stroke-opacity:1" />
  <path
     d="M 900.00001,531.21179 L 900.00001,401.95309 L 920.70276,451.93394 L 900.00001,531.21179 z"
     id="path4678"
     style="fill:#f42a41;fill-opacity:1;fill-rule:evenodd;stroke:none;stroke-width:1px;stroke-linecap:butt;stroke-linejoin:miter;stroke-opacity:1" />
  <path
     d="M 770.74123,401.95285 L 899.99993,401.95285 L 850.01907,381.25009 L 770.74123,401.95285 z"
     id="path4740"
     style="fill:#ffffff;fill-opacity:1;fill-rule:evenodd;stroke:none;stroke-width:1px;stroke-linecap:butt;stroke-linejoin:miter;stroke-opacity:1" />
  <path
     d="M 770.74123,401.95285 L 899.99993,401.95285 L 850.01907,422.6556 L 770.74123,401.95285 z"
     id="path4742"
     style="fill:#f42a41;fill-opacity:1;fill-rule:evenodd;stroke:none;stroke-width:1px;stroke-linecap:butt;stroke-linejoin:miter;stroke-opacity:1" />
  <path
     d="M 1029.2586,401.95285 L 899.99993,401.95285 L 949.98078,422.6556 L 1029.2586,401.95285 z"
     id="path4744"
     style="fill:#ffffff;fill-opacity:1;fill-rule:evenodd;stroke:none;stroke-width:1px;stroke-linecap:butt;stroke-linejoin:miter;stroke-opacity:1" />
  <path
     d="M 1029.2586,401.95285 L 899.99993,401.95285 L 949.98078,381.25009 L 1029.2586,401.95285 z"
     id="path4746"
     style="fill:#f42a41;fill-opacity:1;fill-rule:evenodd;stroke:none;stroke-width:1px;stroke-linecap:butt;stroke-linejoin:miter;stroke-opacity:1" />
  <path
     d="M 830.5083,471.44422 L 899.99976,401.95276 L 850.0189,422.65551 L 830.5083,471.44422 z"
     id="path4750"
     style="fill:#ffffff;fill-opacity:1;fill-rule:evenodd;stroke:none;stroke-width:1px;stroke-linecap:butt;stroke-linejoin:miter;stroke-opacity:1" />
  <path
     d="M 830.5083,471.44422 L 899.99976,401.95276 L 879.29701,451.93362 L 830.5083,471.44422 z"
     id="path4752"
     style="fill:#f42a41;fill-opacity:1;fill-rule:evenodd;stroke:none;stroke-width:1px;stroke-linecap:butt;stroke-linejoin:miter;stroke-opacity:1" />
  <path
     d="M 969.49121,332.46131 L 899.99976,401.95276 L 949.98061,381.25002 L 969.49121,332.46131 z"
     id="path4754"
     style="fill:#ffffff;fill-opacity:1;fill-rule:evenodd;stroke:none;stroke-width:1px;stroke-linecap:butt;stroke-linejoin:miter;stroke-opacity:1" />
  <path
     d="M 969.49121,332.46131 L 899.99976,401.95276 L 920.7025,351.97191 L 969.49121,332.46131 z"
     id="path4756"
     style="fill:#f42a41;fill-opacity:1;fill-rule:evenodd;stroke:none;stroke-width:1px;stroke-linecap:butt;stroke-linejoin:miter;stroke-opacity:1" />
  <path
     d="M 830.50822,332.46122 L 899.99967,401.95268 L 879.29693,351.97182 L 830.50822,332.46122 z"
     id="path4760"
     style="fill:#ffffff;fill-opacity:1;fill-rule:evenodd;stroke:none;stroke-width:1px;stroke-linecap:butt;stroke-linejoin:miter;stroke-opacity:1" />
  <path
     d="M 830.50822,332.46122 L 899.99967,401.95268 L 850.01881,381.24993 L 830.50822,332.46122 z"
     id="path4762"
     style="fill:#f42a41;fill-opacity:1;fill-rule:evenodd;stroke:none;stroke-width:1px;stroke-linecap:butt;stroke-linejoin:miter;stroke-opacity:1" />
  <path
     d="M 969.49113,471.44413 L 899.99967,401.95268 L 920.70242,451.93353 L 969.49113,471.44413 z"
     id="path4764"
     style="fill:#ffffff;fill-opacity:1;fill-rule:evenodd;stroke:none;stroke-width:1px;stroke-linecap:butt;stroke-linejoin:miter;stroke-opacity:1" />
  <path
     d="M 969.49113,471.44413 L 899.99967,401.95268 L 949.98053,422.65542 L 969.49113,471.44413 z"
     id="path4766"
     style="fill:#f42a41;fill-opacity:1;fill-rule:evenodd;stroke:none;stroke-width:1px;stroke-linecap:butt;stroke-linejoin:miter;stroke-opacity:1" />
  <rect
     width="600"
     height="300"
     x="-600"
     y="-4.1839599e-14"
     transform="scale(-1,1)"
     id="rect3470"
     style="fill:#f42a41;fill-opacity:1" />
  <path
     d="M 281.75853,243.81348 C 229.94685,243.81348 187.94505,201.81176 187.94505,150 C 187.94505,98.18824 229.94685,56.186521 281.75853,56.186521 C 333.57021,56.186521 375.572,98.18824 375.572,150 C 375.572,201.81176 333.57021,243.81348 281.75853,243.81348 z"
     id="path6"
     style="fill:#ffffff" />
  <path
     d="M 317.80714,240.59947 C 267.7705,240.59947 227.20765,200.0367 227.20765,149.99999 C 227.20765,99.963268 267.7705,59.400501 317.80714,59.400501 C 367.84379,59.400501 408.40663,99.963268 408.40663,149.99999 C 408.40663,200.0367 367.84379,240.59947 317.80714,240.59947 z"
     id="path8"
     style="fill:#f42a41" />
  <path
     d="M 348.79997,116.29173 L 335.26962,105.9122 L 321.74267,116.29661 L 326.95044,99.559577 L 313.37706,89.242351 L 330.12599,89.277807 L 335.26414,72.516994 L 340.40778,89.275944 L 357.1567,89.234419 L 343.5867,99.556564 L 348.79997,116.29173 z"
     id="star"
     style="fill:#ffffff" />
  <use
     transform="translate(-36.656744,102.49988)"
     id="use11"
     x="0"
     y="0"
     width="1200"
     height="600"
     xlink:href="#star" />
  <use
     transform="translate(36.656744,102.49988)"
     id="use13"
     x="0"
     y="0"
     width="1200"
     height="600"
     xlink:href="#star" />
  <use
     transform="translate(54.898252,41.694874)"
     id="use15"
     x="0"
     y="0"
     width="1200"
     height="600"
     xlink:href="#star" />
  <use
     transform="translate(-54.898252,41.694874)"
     id="use17"
     x="0"
     y="0"
     width="1200"
     height="600"
     xlink:href="#star" />
</svg>
