<?xml version="1.0" encoding="UTF-8" standalone="no"?>
<!-- Created with Inkscape (http://www.inkscape.org/) -->

<svg
   xmlns:dc="http://purl.org/dc/elements/1.1/"
   xmlns:cc="http://creativecommons.org/ns#"
   xmlns:rdf="http://www.w3.org/1999/02/22-rdf-syntax-ns#"
   xmlns:svg="http://www.w3.org/2000/svg"
   xmlns="http://www.w3.org/2000/svg"
   xmlns:sodipodi="http://sodipodi.sourceforge.net/DTD/sodipodi-0.dtd"
   xmlns:inkscape="http://www.inkscape.org/namespaces/inkscape"
   width="299.50085"
   height="199.50124"
   id="svg2"
   sodipodi:version="0.32"
   inkscape:version="0.47 r22583"
   version="1.0"
   sodipodi:docname="ZZ2.svg"
   inkscape:output_extension="org.inkscape.output.svg.inkscape">
  <defs
     id="defs4">
    <inkscape:perspective
       sodipodi:type="inkscape:persp3d"
       inkscape:vp_x="0 : 526.18109 : 1"
       inkscape:vp_y="0 : 1000 : 0"
       inkscape:vp_z="744.09448 : 526.18109 : 1"
       inkscape:persp3d-origin="372.04724 : 350.78739 : 1"
       id="perspective10" />
    <inkscape:perspective
       id="perspective2483"
       inkscape:persp3d-origin="372.04724 : 350.78739 : 1"
       inkscape:vp_z="744.09448 : 526.18109 : 1"
       inkscape:vp_y="0 : 1000 : 0"
       inkscape:vp_x="0 : 526.18109 : 1"
       sodipodi:type="inkscape:persp3d" />
    <inkscape:perspective
       id="perspective2498"
       inkscape:persp3d-origin="372.04724 : 350.78739 : 1"
       inkscape:vp_z="744.09448 : 526.18109 : 1"
       inkscape:vp_y="0 : 1000 : 0"
       inkscape:vp_x="0 : 526.18109 : 1"
       sodipodi:type="inkscape:persp3d" />
  </defs>
  <sodipodi:namedview
     id="base"
     pagecolor="#ffffff"
     bordercolor="#666666"
     borderopacity="1.0"
     gridtolerance="10000"
     guidetolerance="10"
     objecttolerance="10"
     inkscape:pageopacity="0.0"
     inkscape:pageshadow="2"
     inkscape:zoom="2.1213203"
     inkscape:cx="191.39248"
     inkscape:cy="72.281638"
     inkscape:document-units="px"
     inkscape:current-layer="layer1"
     showgrid="false"
     inkscape:window-width="1280"
     inkscape:window-height="1004"
     inkscape:window-x="-8"
     inkscape:window-y="-8"
     inkscape:window-maximized="1" />
  <metadata
     id="metadata7">
    <rdf:RDF>
      <cc:Work
         rdf:about="">
        <dc:format>image/svg+xml</dc:format>
        <dc:type
           rdf:resource="http://purl.org/dc/dcmitype/StillImage" />
      </cc:Work>
    </rdf:RDF>
  </metadata>
  <g
     inkscape:label="Layer 1"
     inkscape:groupmode="layer"
     id="layer1"
     transform="translate(-0.24948031,-0.24927969)">
    <rect
       style="fill:#003478;fill-opacity:1;stroke:none"
       id="rect3941"
       width="299.50085"
       height="199.50124"
       x="0.24948031"
       y="0.24927969" />
    <path
       style="fill:#ffffff;fill-opacity:1"
       d="m 130.10517,159.79669 c -1.11496,-0.10579 -2.0119,-0.36903 -3.02812,-0.88872 -1.32108,-0.67558 -2.4666,-1.5499 -3.89098,-2.96977 l -0.92262,-0.9197 -0.7688,0.1395 c -0.94602,0.17165 -2.97125,0.23487 -3.94804,0.12323 -2.39412,-0.27363 -4.13555,-1.0776 -5.64654,-2.60687 -0.35518,-0.35948 -0.83274,-0.91762 -1.06125,-1.24032 -0.84724,-1.19646 -1.66559,-3.12361 -2.04155,-4.80772 -0.12873,-0.57665 -0.40155,-2.25872 -0.40257,-2.48203 -1.9e-4,-0.0401 -0.39702,-0.27949 -0.88185,-0.53205 -1.39991,-0.72925 -2.20945,-1.3155 -3.17037,-2.29592 -1.50017,-1.53062 -2.24827,-3.22683 -2.47358,-5.60855 -0.10789,-1.14049 -0.0428,-1.89423 0.34324,-3.97651 0.0418,-0.22573 0.0524,-0.44748 0.0239,-0.5045 -0.0279,-0.0559 -0.21053,-0.19248 -0.40581,-0.3034 -0.52119,-0.29606 -1.39458,-1.21825 -1.78423,-1.88396 -0.541126,-0.92449 -0.947748,-2.11276 -1.220465,-3.56657 -0.07063,-0.37653 -0.107873,-1.05652 -0.130614,-2.385 -0.03508,-2.04886 0.04149,-3.71058 0.230633,-5.00584 0.186121,-1.27454 0.225673,-1.14819 -0.516469,-1.64985 -2.010763,-1.35918 -3.497099,-2.8881 -4.221466,-4.34241 -0.995439,-1.99854 -1.209974,-3.93401 -0.678091,-6.11761 l 0.177989,-0.73073 -0.28842,-0.24123 c -0.630081,-0.52699 -2.09113,-2.07961 -2.484849,-2.64059 -0.793601,-1.13075 -1.344223,-2.2955 -1.684111,-3.562497 -0.144826,-0.539895 -0.169852,-0.768894 -0.194429,-1.779275 -0.05669,-2.330614 0.190783,-3.61361 1.08429,-5.621312 0.173394,-0.389631 0.31527,-0.73223 0.31527,-0.76133 0,-0.02911 -0.247419,-0.330862 -0.549813,-0.670576 -1.165589,-1.309422 -1.859924,-2.64151 -2.259568,-4.334983 -0.229334,-0.971769 -0.269799,-2.700752 -0.08828,-3.771866 0.327564,-1.93292 1.19373,-3.678107 2.462021,-4.960572 1.394119,-1.409694 3.180462,-2.473521 5.439484,-3.239391 0.512194,-0.173646 0.976638,-0.354903 1.032098,-0.402789 0.05605,-0.04841 0.160807,-0.353842 0.235899,-0.687826 0.387345,-1.72281 1.332795,-3.897739 2.128717,-4.89694 0.75476,-0.947533 1.865584,-1.824303 3.002654,-2.369984 1.17013,-0.561545 2.29893,-0.799586 3.7946,-0.800194 l 0.89819,-3.66e-4 0.26988,-0.601801 c 0.85592,-1.908642 2.64269,-3.770253 4.45421,-4.640768 1.85869,-0.89319 4.30213,-1.243482 7.02745,-1.007455 0.44916,0.0389 0.82681,0.05989 0.83923,0.04666 0.0124,-0.01324 0.055,-0.386565 0.0947,-0.829615 0.33121,-3.700284 1.31371,-6.023246 3.36714,-7.961092 0.80239,-0.757224 1.38957,-1.17817 2.27117,-1.628192 1.2371,-0.631505 2.42174,-1.035129 3.67859,-1.253359 0.66506,-0.115476 0.71288,-0.154722 1.20739,-0.991001 1.15595,-1.954833 2.71734,-3.446568 4.57202,-4.368035 0.72553,-0.360468 1.44061,-0.606389 2.46528,-0.847827 0.6773,-0.159586 0.8393,-0.174013 1.96812,-0.175276 0.67654,-7.56e-4 1.5622,0.0183 1.96812,0.04234 l 0.73805,0.04371 0.46128,-0.588514 c 0.2537,-0.323684 0.83491,-0.959206 1.29157,-1.412271 1.7903,-1.776179 3.36708,-2.683335 5.35963,-3.083492 0.65874,-0.132294 2.24558,-0.09876 3.00488,0.06351 2.49126,0.532382 4.85078,2.02295 7.22029,4.561229 l 0.70759,0.757981 0.97173,0.04143 c 3.58616,0.152879 4.05148,0.201848 5.06728,0.533264 0.70744,0.230809 1.88444,0.807096 2.54686,1.246994 1.46224,0.971057 2.7415,2.909382 3.1073,4.708171 0.0626,0.307902 0.14539,0.598132 0.18397,0.644957 0.0386,0.04683 0.22714,0.116017 0.41905,0.153753 1.6411,0.322726 3.61727,1.163785 4.9279,2.097318 1.00274,0.714227 2.2858,2.130042 2.9785,3.286669 0.58378,0.974774 1.25591,2.729411 1.54912,4.044058 0.0863,0.386832 0.18998,0.737319 0.23046,0.778868 0.0579,0.05939 0.14587,0.05655 0.41158,-0.01328 0.18589,-0.04886 0.69777,-0.151383 1.13752,-0.22784 1.08732,-0.189052 3.41868,-0.204071 4.36676,-0.02814 2.75166,0.510624 5.19032,2.293851 6.70142,4.9003 0.1787,0.308227 0.45764,0.857195 0.61988,1.219935 l 0.29497,0.659529 0.58938,0.0422 c 2.74592,0.196611 4.04778,0.743956 5.66519,2.381855 1.43867,1.456889 2.17571,2.80732 3.06971,5.624496 l 0.37709,1.188279 0.99345,0.32337 c 1.71001,0.55661 3.24037,1.42697 4.26971,2.428324 1.19558,1.163064 1.99501,2.659709 2.42406,4.538225 0.16517,0.723161 0.22958,2.483821 0.12281,3.357005 -0.23475,1.919745 -0.85836,3.690581 -2.21518,6.290295 l -0.66914,1.282084 0.27608,0.700784 c 1.42276,3.611487 1.19115,6.791975 -0.70615,9.697106 -0.48744,0.74636 -1.02594,1.37796 -1.91857,2.25026 l -0.72919,0.71259 -0.0668,1.73501 c -0.12335,3.20164 -0.22562,3.91409 -0.77596,5.40584 -0.90311,2.448 -2.18491,4.00293 -4.89184,5.93422 -0.41861,0.29866 -0.77258,0.55311 -0.78661,0.56545 -0.014,0.0123 0.18401,0.46166 0.44011,0.9985 0.70965,1.48766 1.21241,2.97079 1.44307,4.25711 0.13349,0.74439 0.13189,2.43773 -0.003,3.30536 -0.33622,2.16072 -1.60853,4.10949 -3.63285,5.56438 l -0.74335,0.53425 -0.004,1.43404 c -0.002,0.78872 -0.038,1.67105 -0.0791,1.96073 -0.29436,2.07496 -0.87888,3.77992 -1.73103,5.04918 -1.1244,1.67477 -3.05529,3.18232 -4.83347,3.77376 l -0.49753,0.16548 -0.13599,0.97416 c -0.42605,3.05199 -1.40738,5.5638 -2.73027,6.98832 -1.24346,1.339 -2.55034,2.16518 -4.0185,2.5404 -2.136,0.5459 -4.34274,0.43937 -7.08191,-0.34186 -0.48256,-0.13763 -0.92162,-0.25023 -0.97571,-0.25023 -0.0541,0 -0.40652,0.29778 -0.78322,0.66174 -1.47058,1.42087 -2.53414,2.12133 -3.93475,2.59142 -1.65599,0.55582 -3.56466,0.5108 -5.50589,-0.12986 -0.72256,-0.23847 -2.32015,-0.99613 -2.99983,-1.42268 -0.24139,-0.15149 -0.48256,-0.27544 -0.53595,-0.27544 -0.0534,0 -0.54494,0.16846 -1.09236,0.37436 -1.76104,0.66236 -2.76699,0.84969 -4.20618,0.78328 -1.74551,-0.0805 -2.37727,-0.31153 -4.95289,-1.81087 -1.55896,-0.9075 -2.55047,-1.39633 -2.91655,-1.43791 l -0.28377,-0.0322 -0.6913,0.70755 c -1.04257,1.06707 -2.04499,1.68126 -3.41154,2.09027 -2.03811,0.61002 -4.29935,0.57117 -7.03714,-0.1209 -0.39549,-0.1 -0.79468,-0.18177 -0.8871,-0.18177 -0.10649,0 -0.44431,0.18234 -0.9225,0.4979 -1.32079,0.87164 -2.42399,1.30917 -3.59095,1.42419 -0.66054,0.0651 -0.86036,0.0644 -1.5991,-0.006 z m 39.57764,-4.72897 c 1.81642,-0.47202 3.21306,-1.74112 4.31976,-3.92527 0.17808,-0.35145 0.3242,-0.70105 0.32471,-0.77688 0.002,-0.35541 0.0936,-0.31776 0.77752,0.32104 0.90721,0.84738 1.29541,1.13451 2.01996,1.49415 1.2917,0.64114 2.65807,0.76341 4.17181,0.37331 1.90569,-0.4911 3.66176,-1.85113 4.21454,-3.26404 0.54418,-1.39095 0.47163,-3.7624 -0.17295,-5.65379 -0.10294,-0.30205 -0.18716,-0.56029 -0.18716,-0.57387 0,-0.0136 0.47742,-0.0242 1.06094,-0.0236 1.50327,0.002 2.32119,-0.1935 3.30959,-0.78906 1.34882,-0.81273 2.67605,-2.49451 3.04407,-3.85722 0.13489,-0.49947 0.18341,-1.78662 0.0935,-2.47986 -0.10238,-0.78929 -0.35073,-1.87333 -0.5949,-2.59674 -0.21996,-0.65165 -0.26052,-0.95487 -0.1324,-0.98981 0.0423,-0.0115 0.24294,-0.0519 0.4459,-0.0896 0.7687,-0.14302 2.12063,-0.96908 2.76031,-1.68661 1.14892,-1.28876 1.75671,-3.03633 1.67955,-4.82913 -0.0707,-1.64254 -0.60701,-2.82299 -1.64986,-3.63146 -1.28461,-0.99589 -2.9484,-1.63438 -5.31165,-2.03839 -2.68919,-0.45973 -5.44284,-0.55496 -8.75134,-0.30266 -1.64237,0.12525 -1.68216,0.13812 -2.09332,0.67705 -0.7684,1.0072 -2.22249,2.65838 -4.29474,4.87688 l -1.37435,1.47133 7.2e-4,0.35663 c 8.8e-4,0.43225 0.17691,1.67788 0.97863,6.92486 0.33848,2.21524 0.6285,4.11833 0.64447,4.22909 0.016,0.11076 0.004,0.20138 -0.0274,0.20138 -0.0978,0 -3.11746,-2.06605 -6.01948,-4.1185 l -2.79321,-1.97551 -0.18972,0.11272 c -0.62284,0.37009 -1.2766,0.6857 -2.03483,0.98233 -1.51237,0.59166 -3.91774,1.35831 -5.96586,1.90146 -0.40592,0.10765 -0.85458,0.26359 -0.99701,0.34654 -0.73508,0.42808 -2.36932,3.21179 -3.12354,5.32052 -0.65286,1.82536 -0.91154,3.30583 -0.91522,5.23798 -0.004,2.13405 0.37363,3.76234 1.19407,5.14788 1.34011,2.26313 3.2668,3.053 5.56381,2.28096 0.87318,-0.29347 1.42726,-0.61981 2.61127,-1.53794 0.291,-0.22566 0.41769,-0.29077 0.47406,-0.24363 0.0423,0.0354 0.26108,0.32605 0.48614,0.64593 0.95783,1.36137 2.24783,2.2686 3.68693,2.59292 0.65807,0.14831 1.97081,0.0955 2.7667,-0.11134 z m -37.51953,-0.38007 c 1.00314,-0.20876 2.53945,-1.01721 3.48775,-1.83537 0.19183,-0.1655 0.37173,-0.30106 0.39977,-0.30125 0.028,-1.9e-4 0.54916,0.25061 1.15805,0.55731 0.60889,0.30671 1.35616,0.63243 1.6606,0.72383 0.49213,0.14774 0.65928,0.16668 1.50684,0.17077 0.89225,0.004 0.99073,-0.007 1.5376,-0.17971 0.42009,-0.13251 0.73461,-0.28538 1.11923,-0.54399 0.63575,-0.42745 1.53541,-1.31661 1.82466,-1.80337 0.66549,-1.11991 1.03052,-3.35248 0.97405,-5.95749 -0.0252,-1.16178 -0.061,-1.59985 -0.19383,-2.37028 -0.45977,-2.66684 -1.21625,-4.87044 -2.35586,-6.86244 l -0.49629,-0.86751 -0.88188,-0.22615 c -1.4621,-0.37493 -3.43542,-1.10524 -7.0006,-2.59086 -0.99739,-0.41562 -1.8302,-0.76045 -1.85068,-0.7663 -0.0205,-0.006 -1.9029,1.38592 -4.18316,3.09283 -3.95016,2.9569 -4.69463,3.49032 -4.76807,3.41632 -0.0231,-0.0233 2.58602,-10.36892 2.84164,-11.26741 0.0186,-0.0653 -0.22173,-0.36826 -0.68796,-0.86751 -0.39407,-0.42197 -0.97999,-1.07394 -1.30204,-1.44883 -0.64968,-0.75626 -3.01389,-3.91199 -3.82747,-5.10888 -0.82773,-1.21769 -0.76215,-1.16519 -1.62985,-1.30492 -1.41777,-0.22829 -2.15216,-0.26825 -4.88954,-0.26595 -3.66431,0.003 -6.02413,0.15255 -7.15743,0.4534 -1.58705,0.42132 -2.88293,1.51228 -3.44154,2.89731 -0.31546,0.78217 -0.37976,1.23515 -0.37579,2.64743 0.003,1.137 0.0206,1.36383 0.13777,1.79697 0.27343,1.0106 0.96113,2.14345 1.7077,2.81308 0.35653,0.31978 1.14641,0.84959 1.62583,1.09052 0.18605,0.0935 0.34976,0.18054 0.3638,0.19342 0.014,0.0129 -0.11724,0.30929 -0.29173,0.65867 -0.46605,0.93315 -0.53483,1.34352 -0.52707,3.1448 0.009,2.20261 0.21678,3.14992 0.93557,4.27556 0.99107,1.55205 2.48794,2.70549 4.5891,3.53623 0.36968,0.14616 0.71881,0.31276 0.77584,0.37022 0.0973,0.098 0.0892,0.16173 -0.12954,1.02692 -0.37666,1.48968 -0.38087,2.41421 -0.0163,3.57836 0.58071,1.85443 1.90213,3.34524 3.82042,4.31016 0.81718,0.41106 1.09871,0.46422 2.47315,0.46705 l 1.19932,0.002 0.66843,-0.2331 c 0.88881,-0.30995 1.92516,-0.82587 2.72261,-1.35539 0.35808,-0.23777 0.65864,-0.42378 0.6679,-0.41335 0.009,0.0104 0.14803,0.28387 0.30835,0.60763 0.79538,1.60619 2.41039,3.58738 3.3799,4.14626 0.59239,0.34148 1.0975,0.54699 1.51704,0.6172 0.56416,0.0944 2.10143,0.0799 2.60372,-0.0247 z m 17.48304,-13.19696 c 1.88104,-3.26345 3.24536,-5.72202 3.20042,-5.76731 -0.0435,-0.0438 -4.06482,-0.14736 -5.78606,-0.14893 l -1.52637,-0.001 0.0422,0.13943 c 0.0739,0.24435 2.86037,6.4541 3.14493,7.00862 0.11079,0.2159 0.027,0.3274 0.9249,-1.23042 z m 2.47718,-10.31839 c 8.53254,-0.59332 16.50308,-4.99518 21.65575,-11.95974 1.19555,-1.61595 1.88934,-2.80384 3.12944,-5.35809 1.168,-2.40574 2.20276,-5.98921 2.4871,-8.61308 0.24519,-2.26247 0.31555,-5.06888 0.16545,-6.599229 -0.28867,-2.943287 -0.97297,-5.831031 -2.00428,-8.458166 -0.41072,-1.046232 -1.52271,-3.320252 -2.09074,-4.275555 -3.01048,-5.063028 -7.24982,-8.995458 -12.48731,-11.583301 -4.39217,-2.170168 -9.0791,-3.137161 -14.23811,-2.937578 -5.87365,0.227237 -11.54034,2.293414 -16.29849,5.942725 -1.98311,1.520964 -4.11457,3.607447 -5.442,5.327156 -2.73913,3.548591 -4.47297,7.134594 -5.59163,11.564861 -0.50935,2.017157 -0.70151,3.777858 -0.75681,6.933947 -0.0376,2.14868 10e-4,2.90222 0.23132,4.48438 1.01953,7.01045 4.44124,13.40324 9.68326,18.0913 4.03183,3.60576 9.02059,6.05772 14.31575,7.03615 1.97095,0.36418 5.21382,0.54521 7.2413,0.40422 z m 31.40843,-15.18155 c 2.70157,-0.33496 4.65191,-0.60635 4.82731,-0.67173 0.0896,-0.0334 -0.0239,-0.18997 -0.63577,-0.87653 -1.73177,-1.94332 -4.74957,-5.26235 -4.76792,-5.24386 -0.0318,0.032 -2.35583,6.98347 -2.35583,7.04648 0,0.0966 0.33784,0.0673 2.93221,-0.25436 z m -64.5599,-2.39509 c -1.03005,-3.29481 -1.66617,-5.22505 -1.72193,-5.22505 -0.11743,0 -1.27743,1.04447 -3.5041,3.15511 -1.44256,1.36739 -2.28322,2.18793 -2.26215,2.20801 0.009,0.009 1.60786,0.33875 3.55291,0.73361 3.42693,0.69569 4.37681,0.86163 4.41652,0.77155 0.0104,-0.0237 -0.20611,-0.76317 -0.48125,-1.64323 z m 78.14144,0.2571 c 1.27121,-0.33074 2.19349,-1.11906 3.36102,-2.87285 0.78353,-1.17697 0.98959,-1.69971 1.10401,-2.80073 0.1305,-1.25572 -0.086,-2.78764 -0.6247,-4.41922 -0.16773,-0.50806 -0.29328,-0.93553 -0.279,-0.94991 0.0143,-0.0144 0.25671,-0.0772 0.53871,-0.13958 0.70065,-0.15497 1.46552,-0.4455 1.98529,-0.75407 0.5695,-0.33811 1.46301,-1.24241 1.84699,-1.86932 0.78896,-1.288073 1.27694,-3.162998 1.1322,-4.350184 -0.15578,-1.277869 -0.61927,-2.467735 -1.57528,-4.044022 -0.25412,-0.419019 -0.45176,-0.7715 -0.43918,-0.783289 0.0126,-0.01179 0.36883,-0.187079 0.79167,-0.389517 1.9637,-0.940149 3.05625,-2.285814 3.48535,-4.29279 0.0899,-0.420431 0.11261,-0.80174 0.11261,-1.889918 0,-1.253014 -0.0116,-1.400795 -0.14322,-1.827955 -0.45918,-1.489932 -1.74708,-2.94643 -3.30099,-3.733125 -0.76325,-0.38641 -1.38197,-0.547536 -2.24488,-0.584613 -0.783,-0.03365 -2.64183,0.05808 -2.85365,0.140805 -0.13318,0.05202 -0.13083,0.02747 0.0627,-0.656309 0.17441,-0.616119 0.15932,-2.579717 -0.0265,-3.448191 -0.27867,-1.302441 -0.79333,-2.514292 -1.37578,-3.23953 -0.40132,-0.499701 -1.42197,-1.261757 -2.17245,-1.622024 -1.03894,-0.498743 -2.02482,-0.67512 -3.77372,-0.67512 l -0.90077,0 -0.19461,-0.769991 c -0.4711,-1.864079 -1.60816,-3.2781 -3.34164,-4.155617 -1.80539,-0.913919 -3.70947,-0.914151 -5.574,-6.91e-4 -1.43396,0.702521 -2.63159,1.874379 -3.64104,3.562673 -1.43406,2.398441 -2.34275,5.492435 -2.84463,9.685593 l -0.13943,1.165052 0.67841,1.003704 c 0.90937,1.345417 1.91839,2.920297 3.54123,5.527126 0.74256,1.192819 1.35947,2.178819 1.3709,2.191113 0.0114,0.0123 1.09481,0.04565 2.40749,0.07411 7.45307,0.161595 8.84868,0.19862 8.88839,0.235805 0.0241,0.02255 -0.3766,0.361338 -0.8904,0.75286 -2.02978,1.546711 -4.45447,3.424588 -5.90343,4.572117 l -1.52221,1.205544 0,0.321475 c 0,1.669519 -0.36622,7.684019 -0.58401,9.591389 l -0.15049,1.31801 0.21651,0.31877 c 1.15702,1.70352 5.69294,6.13037 7.62167,7.43842 0.95534,0.6479 2.25564,1.1111 3.59796,1.2817 0.37873,0.0481 1.37178,-0.0186 1.75286,-0.1177 z m -93.08587,-1.82793 c 0.72828,-0.0644 1.65152,-0.26053 2.46015,-0.52249 2.03815,-0.66028 5.12797,-2.45571 7.32492,-4.25634 1.09914,-0.90086 2.31219,-2.27966 2.43329,-2.76575 0.0213,-0.0855 0.004,-0.53484 -0.0379,-0.99845 -0.0421,-0.46361 -0.0911,-1.73613 -0.10875,-2.82783 -0.0448,-2.771351 0.0773,-4.261675 0.47963,-5.852269 0.099,-0.391186 0.1799,-0.750041 0.1799,-0.797453 0,-0.106619 -0.28927,-0.382366 -4.9818,-4.748752 -2.08036,-1.935775 -3.79321,-3.548092 -3.80634,-3.582933 -0.0342,-0.09084 6.73342,0.0591 10.70041,0.237073 l 0.83595,0.0375 0.45138,-0.788962 c 1.60461,-2.804661 3.16221,-4.970836 4.17496,-5.806165 0.51606,-0.425666 0.4887,-0.2385 0.31434,-2.1496 -0.27901,-3.05817 -0.62046,-4.889789 -1.30529,-7.002002 -1.13737,-3.50796 -2.9344,-5.713602 -5.32157,-6.531619 -0.71265,-0.244204 -1.28017,-0.30476 -2.41463,-0.257641 -0.83958,0.03487 -1.09183,0.06834 -1.46423,0.194287 -1.95972,0.662785 -3.41358,2.308397 -4.13564,4.681075 -0.10772,0.353991 -0.23174,0.681926 -0.27559,0.728741 -0.0672,0.07177 -0.17945,0.07234 -0.71572,0.0036 -1.99757,-0.255884 -4.21609,0.09922 -5.50214,0.880696 -0.93632,0.568964 -1.57262,1.275839 -2.08356,2.314662 -0.53094,1.079486 -0.73484,2.024514 -0.81918,3.796711 l -0.0421,0.884369 -1.476094,0.02321 c -1.040932,0.01636 -1.611557,0.05235 -1.935609,0.122066 -2.803529,0.603151 -4.412909,2.408503 -4.945906,5.548148 -0.127943,0.753663 -0.130634,2.02553 -0.0053,2.510278 0.417868,1.616341 1.545283,3.177325 3.344435,4.630613 0.400753,0.323715 0.466357,0.420751 0.415878,0.615156 -0.02128,0.08195 -0.276652,0.427851 -0.56749,0.768657 -0.687254,0.805326 -1.112486,1.452809 -1.533619,2.335163 -0.408534,0.855965 -0.520486,1.340234 -0.521909,2.257595 -0.0036,2.344293 1.108979,4.738826 2.852083,6.138186 0.614855,0.4936 1.663635,1.02156 2.387053,1.20165 l 0.535173,0.13322 -0.357705,0.53597 c -0.478687,0.71724 -0.711001,1.19486 -0.899148,1.84857 -0.564278,1.96051 0.08899,4.06506 1.651026,5.3189 1.192022,0.95683 2.695722,1.32095 4.716612,1.14211 z m 23.80193,-36.30461 c 1.51971,-1.154386 5.13001,-4.251266 5.07004,-4.349033 -0.10213,-0.166485 -6.93473,-3.464396 -7.01337,-3.385162 -0.0556,0.05598 1.33726,7.837455 1.4306,7.992588 0.0484,0.08042 0.1028,0.053 0.51273,-0.258393 z m 45.26108,-0.113394 c 0.43839,-1.681282 1.25985,-5.364408 1.53712,-6.891885 l 0.1112,-0.61256 -0.55994,0.205659 c -1.12256,0.412295 -5.0037,2.059494 -6.30992,2.677994 l -0.5849,0.276957 0.21526,0.18746 c 0.24254,0.211218 4.50403,3.650507 5.07406,4.095087 0.20296,0.158292 0.38871,0.289122 0.41278,0.29073 0.0241,0.0016 0.071,-0.101642 0.10434,-0.229442 z m -8.44567,-6.826986 c 1.284,-0.618809 2.48137,-1.392458 4.42283,-2.857705 3.48154,-2.627552 5.53607,-4.828552 6.35999,-6.813388 0.20167,-0.485841 0.21807,-0.572361 0.21134,-1.115362 -0.009,-0.721296 -0.19702,-1.410982 -0.64071,-2.349333 -0.64309,-1.360091 -1.48246,-2.36833 -2.57297,-3.090625 -1.01904,-0.67496 -1.97785,-0.964294 -3.54216,-1.068898 -0.54123,-0.0362 -1.04287,-0.09006 -1.11476,-0.119706 -0.10838,-0.0447 -0.13799,-0.126167 -0.17335,-0.47702 -0.0902,-0.894489 -0.5063,-2.337884 -0.90684,-3.145472 -0.47735,-0.962429 -1.28884,-1.95091 -1.98231,-2.414652 -0.6901,-0.461501 -1.9072,-0.829409 -2.93104,-0.886008 -1.14578,-0.06334 -2.06649,0.141072 -3.57341,0.79336 -0.48455,0.20974 -0.96913,0.419208 -1.07688,0.465484 l -0.19588,0.08414 -0.21976,-0.685906 c -0.43056,-1.343843 -0.91148,-2.169521 -1.81353,-3.113621 -0.89874,-0.940631 -1.69089,-1.457709 -2.80275,-1.829512 -1.74997,-0.585187 -3.78502,-0.319308 -5.42152,0.708322 -1.20474,0.756506 -1.96596,1.77528 -2.63627,3.528218 -0.40434,1.057407 -0.58922,1.456168 -0.67515,1.456168 -0.0412,0 -0.40412,-0.150193 -0.80653,-0.333762 -1.48368,-0.67682 -2.79286,-0.988494 -4.1451,-0.986812 -0.72374,9e-4 -0.90135,0.02258 -1.38384,0.168919 -0.69938,0.21212 -1.5926,0.636028 -2.08285,0.988487 -1.29017,0.92754 -2.11931,2.685217 -2.24544,4.760076 -0.0287,0.472744 -0.0699,0.877347 -0.0916,0.899116 -0.0216,0.02177 -0.14305,0.0043 -0.26987,-0.03876 -0.14578,-0.04953 -0.75294,-0.09034 -1.65072,-0.110947 -1.18571,-0.02722 -1.5055,-0.0152 -1.93737,0.07281 -1.06727,0.217519 -1.90037,0.700743 -2.82906,1.640944 -0.59745,0.604851 -0.88789,1.116671 -1.10982,1.955771 -0.17353,0.656087 -0.18695,2.105341 -0.0264,2.850374 0.6756,3.134956 3.96858,6.496639 8.76812,8.951024 0.98265,0.502504 2.29158,1.071386 3.22032,1.399594 0.607,0.214506 0.69394,0.230282 0.9533,0.172993 0.15697,-0.03468 1.42014,-0.401053 2.80705,-0.814173 1.38691,-0.41312 3.22361,-0.944875 4.08155,-1.181679 0.85795,-0.236805 1.57999,-0.453902 1.60454,-0.482441 0.0246,-0.02854 0.2606,-0.69322 0.52454,-1.477071 0.41069,-1.219704 1.43151,-4.152902 2.93858,-8.443657 0.20668,-0.588425 0.39574,-1.048514 0.42014,-1.022412 0.0727,0.07776 0.67314,1.829475 2.2996,6.708645 l 1.53886,4.616361 1.56835,0.407514 c 2.89841,0.753117 5.35295,1.515076 7.34969,2.281553 0.43975,0.168808 0.85076,0.30901 0.91336,0.311571 0.0626,0.0026 0.45666,-0.160585 0.87568,-0.362529 z"
       id="path2489" />
    <path
       style="fill:#ffc224;fill-opacity:1"
       d="m 140.56975,126.30795 c -0.46843,-0.11389 -1.05915,-0.41861 -1.76449,-0.91025 l -0.56584,-0.3944 -0.64191,0.15406 c -1.67204,0.40133 -2.8133,0.36511 -3.79315,-0.12034 -1.02892,-0.50976 -1.43813,-1.23906 -1.66318,-2.9641 -0.0469,-0.35987 -0.10782,-0.67422 -0.13527,-0.69853 -0.0274,-0.0243 -0.3074,-0.22374 -0.62214,-0.44317 -1.06116,-0.73982 -1.54897,-1.22802 -1.87325,-1.87473 -0.28321,-0.5648 -0.35497,-1.00641 -0.37109,-2.28354 l -0.0145,-1.14984 -0.3083,-0.4453 c -0.88826,-1.28302 -1.06789,-2.18002 -0.62405,-3.11628 0.25778,-0.54377 1.17724,-1.48379 1.95636,-2.0001 1.15151,-0.76313 2.97033,-1.57988 4.44416,-1.99572 1.50707,-0.42521 2.73227,-0.57989 4.59085,-0.5796 1.28932,2e-4 2.62658,0.0845 2.78852,0.17571 0.0967,0.0545 0.034,0.0828 -1.62531,0.73481 -2.16509,0.85074 -4.00768,1.85438 -4.71876,2.57024 -0.36828,0.37077 -0.43565,0.55171 -0.33337,0.89538 0.0568,0.19082 0.11799,0.26114 0.29039,0.33366 0.4112,0.17296 0.87518,0.0197 3.83984,-1.26802 1.33882,-0.58154 2.92677,-1.21034 3.24514,-1.28502 l 0.1731,-0.0406 -0.18302,0.23043 c -0.20134,0.25352 -1.11656,1.15918 -2.88599,2.85584 -1.90499,1.82664 -2.41109,2.60306 -2.11837,3.24984 0.0944,0.20854 0.35924,0.31323 0.54391,0.21497 0.24301,-0.12929 0.77365,-0.55969 1.64095,-1.33098 1.80209,-1.60259 4.07186,-3.45687 4.07186,-3.32648 0,0.10376 -0.73067,1.48802 -1.38834,2.63021 -0.61752,1.07247 -0.88559,1.62298 -1.0761,2.20998 -0.28685,0.88377 -0.27789,1.51287 0.0235,1.65112 0.49218,0.22576 0.98822,-0.34079 3.03546,-3.46693 0.7376,-1.12633 1.21149,-1.79741 1.21189,-1.71619 9.2e-4,0.18243 -0.19601,1.20113 -0.51822,2.68051 -0.34235,1.57195 -0.40597,2.06232 -0.32117,2.47584 0.11029,0.53779 0.53534,0.73473 0.85332,0.39538 0.30757,-0.32825 0.4838,-0.68439 1.79302,-3.6233 0.40116,-0.90052 0.76763,-1.67615 0.81438,-1.72361 0.0734,-0.0745 0.0929,-0.0655 0.14253,0.066 0.11333,0.30008 0.26034,1.7398 0.2993,2.93108 0.10193,3.11665 -0.17834,5.90254 -0.70857,7.04324 -0.20174,0.43401 -0.63777,0.93441 -0.99653,1.14363 -0.38557,0.22487 -0.87559,0.33724 -1.59412,0.36559 -0.7681,0.0303 -0.8325,0.0558 -2.00077,0.79179 -1.19915,0.75547 -1.88999,1.06144 -2.37053,1.04991 -0.0994,-0.002 -0.34335,-0.0439 -0.54213,-0.0922 z m 17.2877,-0.0818 c -0.59282,-0.12785 -1.53903,-0.62157 -2.10825,-1.10005 -0.44678,-0.37556 -0.59404,-0.41776 -1.67449,-0.47985 -0.90743,-0.0521 -0.99683,-0.0683 -1.35003,-0.2433 -0.54611,-0.27066 -0.93681,-0.68119 -1.22254,-1.28457 -0.3046,-0.64325 -0.40601,-1.05688 -0.48002,-1.95795 -0.0787,-0.95761 -0.0781,-4.24768 8.7e-4,-5.56616 0.10006,-1.66978 0.2924,-3.07519 0.42087,-3.07519 0.0631,0 0.33346,0.65871 0.9333,2.27404 0.96725,2.60475 1.46231,3.68212 1.93536,4.2118 0.3009,0.33692 0.56427,0.43113 0.86027,0.30769 0.52131,-0.21738 0.41609,-1.00405 -0.6528,-4.88033 -0.20188,-0.73211 -0.36705,-1.38275 -0.36705,-1.44587 0,-0.0936 0.0579,-0.0662 0.31408,0.1486 0.51561,0.43235 1.87122,1.70666 3.06215,2.87849 1.19589,1.17671 1.47354,1.375 1.88336,1.34499 l 0.252,-0.0184 0,-0.43008 c 0,-0.36092 -0.0296,-0.48768 -0.18397,-0.78833 -0.20192,-0.39324 -2.32542,-3.44178 -2.98188,-4.28085 l -0.41208,-0.5267 0.37343,0.17163 c 0.20537,0.0944 1.20015,0.5724 2.21061,1.06222 3.62416,1.75683 3.61403,1.7523 3.98762,1.77951 0.32275,0.0235 0.35008,0.015 0.4153,-0.12912 0.0384,-0.0849 0.0532,-0.22083 0.0329,-0.30215 -0.0555,-0.22261 -0.73627,-0.83502 -1.86788,-1.68031 -0.55812,-0.4169 -1.41168,-1.05415 -1.8968,-1.41609 -0.84876,-0.63328 -1.23193,-0.95037 -1.19426,-0.9883 0.01,-0.01 0.83881,0.14557 1.84226,0.34538 2.12324,0.42281 3.541,0.66427 3.90027,0.66427 0.39227,0 0.55087,-0.0844 0.59405,-0.31625 0.0749,-0.40178 -0.15984,-0.74562 -0.69346,-1.01587 -0.41978,-0.21259 -2.79557,-1.11496 -4.63817,-1.76165 -0.77855,-0.27325 -1.45209,-0.517 -1.49678,-0.54167 -0.22233,-0.12277 1.89852,-0.16287 3.27374,-0.0619 2.96142,0.21743 4.97354,0.74001 7.34878,1.90858 1.18731,0.58413 1.7504,0.96477 2.41508,1.63258 0.71092,0.71425 0.95901,1.18707 0.95634,1.82252 -0.002,0.5636 -0.15026,0.84673 -0.73729,1.41148 l -0.45728,0.43993 0.10242,1.01545 c 0.14963,1.48359 0.126,2.04178 -0.12508,2.95486 -0.0864,0.31423 -0.16059,0.42452 -0.55473,0.82485 -0.52271,0.53092 -1.05241,0.93618 -1.67028,1.2779 l -0.43223,0.23904 -0.0355,0.40632 c -0.0971,1.11061 -0.16417,1.64084 -0.25023,1.97755 -0.41584,1.62705 -1.62374,2.45658 -3.5783,2.45741 -0.82201,3.6e-4 -1.37908,-0.0872 -2.0531,-0.32256 l -0.59154,-0.20657 -0.40613,0.32581 c -0.88704,0.7116 -2.17915,1.11487 -3.00294,0.9372 z m -8.53236,-17.34046 c -0.56717,-0.23833 -0.88268,-0.43675 -1.2058,-0.7583 -0.62304,-0.61999 -0.87599,-1.19544 -0.96909,-2.20469 -0.0828,-0.89766 0.0338,-4.8719 0.16237,-5.53183 0.22408,-1.15056 0.27337,-1.502495 0.36119,-2.579049 0.10603,-1.299783 0.15306,-1.512737 0.52198,-2.363193 l 0.26306,-0.606408 -0.018,-1.152176 c -0.0119,-0.759341 0.0145,-1.451979 0.0773,-2.031475 0.0625,-0.576225 0.0905,-1.307774 0.0815,-2.122436 -0.015,-1.356171 0.0415,-1.748233 0.34541,-2.394937 0.20567,-0.437666 0.48052,-0.670498 0.8934,-0.756786 0.42647,-0.08913 0.73268,-0.0096 0.98143,0.254941 0.40812,0.434019 0.49719,0.833918 0.56417,2.532934 0.0468,1.186398 0.075,1.443545 0.21658,1.970832 0.23269,0.866743 0.26639,2.148672 0.0889,3.381339 -0.15744,1.093222 -0.15795,1.329218 -0.004,1.778817 0.24241,0.707462 0.35511,1.28704 0.48234,2.480616 0.0849,0.796269 0.19221,1.452341 0.31247,1.910191 0.23627,0.89948 0.28776,1.92622 0.1428,2.84764 -0.0538,0.34202 -0.12536,1.0351 -0.159,1.54016 -0.10684,1.60386 -0.1661,2.01953 -0.33612,2.3573 -0.18871,0.37489 -0.65985,0.88832 -1.03917,1.13241 -0.26876,0.17294 -1.11937,0.49548 -1.28351,0.48668 -0.0438,-0.002 -0.25997,-0.08 -0.48025,-0.17258 z M 127.07686,108.372 c -0.92432,-0.29167 -1.39254,-1.10447 -1.504,-2.61087 -0.0221,-0.29825 -0.0661,-0.59102 -0.0977,-0.65062 -0.0317,-0.0596 -0.22206,-0.22078 -0.42308,-0.3582 -0.43568,-0.29786 -1.03437,-0.90093 -1.22941,-1.23839 -0.31438,-0.54397 -0.29487,-1.20094 0.065,-2.1904 0.38898,-1.06938 0.38554,-0.89753 0.034,-1.691824 -0.40066,-0.905252 -0.51038,-1.370767 -0.47142,-1.999958 0.0547,-0.883715 0.3541,-1.435615 1.40546,-2.591032 l 0.65128,-0.715742 -0.0183,-0.713052 c -0.0332,-1.294676 0.19112,-1.976365 0.85663,-2.603094 0.46697,-0.439773 1.41192,-0.946991 2.02311,-1.085947 0.53371,-0.121339 0.85551,-0.360065 1.19253,-0.884699 0.63242,-0.98447 1.37928,-1.356211 2.62784,-1.307974 0.78104,0.03017 1.11616,0.129918 2.1074,0.627254 2.10782,1.057552 5.35776,3.719058 8.16583,6.687329 0.92828,0.98125 1.19782,1.294759 1.02451,1.19167 -0.0471,-0.02804 -0.51941,-0.328899 -1.04949,-0.668566 -1.22522,-0.785124 -2.93552,-1.82353 -4.38858,-2.664521 -0.90118,-0.521584 -1.19531,-0.663151 -1.42362,-0.68524 -0.23564,-0.02279 -0.31085,-0.0046 -0.41522,0.100488 -0.33877,0.341048 -0.0951,0.681689 1.16761,1.632035 0.46381,0.349091 1.15349,0.897178 1.5326,1.217967 0.6845,0.579193 3.09862,2.914815 3.05655,2.957168 -0.0121,0.01216 -0.27706,-0.117656 -0.58884,-0.288484 -1.61854,-0.886837 -5.15058,-2.437001 -5.73707,-2.51793 -0.46881,-0.06469 -0.8835,0.144103 -0.8835,0.444834 0,0.230956 0.32038,0.498964 1.187,0.992935 1.29425,0.737727 2.8104,1.709791 4.71104,3.020424 1.28089,0.883279 1.28021,0.899739 -0.0257,0.620109 -1.07649,-0.2305 -3.64555,-0.693634 -4.91778,-0.886545 -1.12618,-0.170761 -1.71124,-0.189171 -2.0106,-0.06325 -0.38268,0.160961 -0.25121,0.43173 0.40927,0.842895 0.63305,0.39409 0.93549,0.51179 3.92965,1.52922 l 2.71062,0.92108 -0.69271,0.0369 c -0.38099,0.0203 -1.15353,0.052 -1.71673,0.0704 -1.50063,0.0492 -3.13632,0.1472 -3.58403,0.21482 -0.4763,0.072 -0.74243,0.30258 -0.71123,0.61636 0.0402,0.40422 0.32547,0.48797 2.93996,0.86302 1.55631,0.22325 3.42836,0.5343 4.90922,0.81566 0.27201,0.0517 0.12431,0.0675 -1.77696,0.18982 -3.41362,0.21969 -4.75824,0.53165 -9.11803,2.11538 -1.64325,0.59692 -2.42452,0.79385 -3.12899,0.78869 -0.30421,-0.002 -0.66156,-0.0383 -0.7941,-0.0801 z m 44.24332,-0.52327 c -0.18804,-0.026 -0.63084,-0.18246 -1.02401,-0.36191 -2.33959,-1.06777 -4.26021,-1.58001 -6.92713,-1.84749 -1.95423,-0.19601 -3.27792,-0.2819 -4.89417,-0.31756 -0.91935,-0.0203 -1.67155,-0.0593 -1.67155,-0.0868 0,-0.0767 0.95104,-0.51623 1.56589,-0.72361 1.10437,-0.37248 1.82322,-0.44048 4.80311,-0.45436 2.95837,-0.0138 2.87113,-0.002 3.06968,-0.42097 0.0903,-0.19063 0.0899,-0.21698 -0.006,-0.36359 -0.0566,-0.0869 -0.16633,-0.18236 -0.24386,-0.21203 -0.43434,-0.16625 -4.71678,-0.33065 -7.5308,-0.28911 -2.03779,0.0301 -2.09947,0.0276 -1.89744,-0.0755 0.77424,-0.39508 3.30123,-1.09936 7.7202,-2.15162 1.34333,-0.31988 1.4939,-0.39606 1.4939,-0.755897 0,-0.13876 -0.0482,-0.291627 -0.12141,-0.38537 -0.20146,-0.257831 -0.47983,-0.316352 -1.47484,-0.310082 -0.96973,0.0061 -1.29139,0.03555 -3.97106,0.363353 -0.95829,0.117223 -1.82569,0.203541 -1.92756,0.191809 -0.16737,-0.01927 -0.13321,-0.04638 0.35479,-0.281435 0.71425,-0.344052 2.02607,-0.879093 4.15841,-1.69608 1.92864,-0.738927 2.94851,-1.172224 3.11396,-1.322952 0.16354,-0.149003 0.13959,-0.420849 -0.048,-0.544574 -0.2013,-0.132782 -0.95081,-0.129042 -1.69379,0.0084 -1.39638,0.258404 -3.6302,0.940748 -6.08294,1.858082 -1.33775,0.500319 -1.54114,0.555126 -1.39551,0.376064 0.37541,-0.46163 4.52234,-3.205642 5.89329,-3.899574 0.63847,-0.323174 0.90575,-0.562529 0.90546,-0.81086 -2.7e-4,-0.223769 -0.18139,-0.548736 -0.35927,-0.644571 -0.38683,-0.208415 -2.35549,0.58045 -5.5358,2.218256 -0.87363,0.449903 -1.61044,0.81001 -1.63736,0.80022 -0.0875,-0.03181 0.85255,-1.149023 1.71801,-2.04175 2.20301,-2.272396 4.72803,-4.055253 7.53137,-5.317701 2.04831,-0.922435 3.3669,-1.329336 4.17739,-1.289081 1.14782,0.057 1.89314,0.821943 2.17395,2.231168 0.0608,0.304863 0.12029,0.56188 0.13229,0.57116 0.012,0.0093 0.32,0.175181 0.68444,0.36868 1.22769,0.651872 2.15645,1.414465 2.43947,2.003024 0.18769,0.390321 0.23464,1.180901 0.0956,1.608983 -0.12124,0.373127 -0.11701,0.382227 0.48252,1.039931 0.79351,0.870484 1.1178,1.509748 1.1581,2.283001 0.0346,0.663125 -0.0528,1.034825 -0.42428,1.803925 l -0.30268,0.626744 0.13635,0.585927 c 0.27748,1.19231 0.0272,2.23193 -0.74777,3.10631 l -0.33749,0.38078 -4.5e-4,0.74056 c -8.4e-4,1.36772 -0.15587,1.83964 -0.82295,2.50502 -0.45267,0.45151 -1.18597,0.83795 -1.76674,0.93103 -0.42932,0.0688 -0.47938,0.0689 -0.96377,0.002 z M 143.75254,93.799027 c -2.94007,-3.105824 -4.37863,-4.505826 -6.38231,-6.211278 -0.5015,-0.426856 -1.02013,-0.906705 -1.15251,-1.066316 -0.76071,-0.917258 -0.9959,-1.73057 -0.85998,-2.974032 0.21209,-1.940406 0.77322,-2.628969 2.85813,-3.507202 1.22036,-0.514055 1.11564,-0.406896 1.38699,-1.419421 0.0849,-0.316852 0.29417,-0.862621 0.46502,-1.212825 0.26997,-0.553425 0.38223,-0.708781 0.85801,-1.187486 0.44326,-0.445982 0.64481,-0.59891 1.05941,-0.803852 0.80875,-0.39977 1.3091,-0.505019 2.40943,-0.506827 0.51351,-8.4e-4 0.98074,-0.02657 1.03828,-0.05718 0.0575,-0.0306 0.38621,-0.322175 0.73035,-0.647947 0.92064,-0.871472 1.99683,-1.554409 2.84301,-1.804135 0.49274,-0.145412 1.16084,-0.131701 1.65369,0.03394 0.83114,0.279337 1.44559,0.74867 2.64071,2.017079 l 0.44268,0.469817 0.57943,-0.0688 c 0.31868,-0.03783 0.89195,-0.05369 1.27394,-0.03523 2.5574,0.123591 3.65384,1.040153 4.39703,3.675702 0.13538,0.48006 0.35455,1.151996 0.48705,1.493188 0.23754,0.611601 0.2441,0.62087 0.46523,0.657674 0.12336,0.02053 0.35172,0.03763 0.50745,0.03799 2.08811,0.0049 3.62724,2.170812 2.94465,4.143756 -0.27695,0.800509 -1.2079,1.852764 -2.28309,2.580583 -0.30555,0.206833 -0.75153,0.543842 -0.99107,0.748918 -1.33319,1.141346 -4.00443,3.720955 -5.01346,4.841474 -1.35041,1.499634 -1.46187,1.610638 -1.53927,1.532903 -0.0494,-0.04955 -0.0624,-0.352213 -0.0444,-1.030893 0.0305,-1.151336 0.0742,-1.297706 0.74554,-2.499804 0.5603,-1.003282 1.05725,-1.786973 2.14189,-3.377748 0.91947,-1.348539 1.19599,-1.832041 1.19599,-2.091259 0,-0.683193 -1.40243,-0.07166 -2.46938,1.076776 -0.242,0.260475 -0.89268,1.019363 -1.44596,1.686414 -1.12113,1.351672 -1.2208,1.455096 -1.35306,1.404 -0.11961,-0.04621 -0.11903,-0.310361 0.002,-0.95317 0.22235,-1.179973 0.46162,-1.72365 1.75598,-3.989849 0.92244,-1.615042 1.32813,-2.423347 1.38105,-2.751694 0.0316,-0.196327 0.0179,-0.23224 -0.1119,-0.291765 -0.21131,-0.09693 -0.55638,0.0106 -1.02094,0.318161 -0.22269,0.147431 -0.87276,0.754389 -1.55789,1.454586 -0.64667,0.660874 -1.20477,1.201588 -1.24023,1.201588 -0.11488,0 -0.20429,-0.299963 -0.20421,-0.685064 5e-5,-0.20688 0.0814,-1.027158 0.18071,-1.822839 0.20036,-1.604774 0.22796,-2.415114 0.0933,-2.739494 -0.0747,-0.179912 -0.116,-0.210234 -0.28612,-0.209894 -0.5809,0.0012 -1.1654,0.93947 -1.88751,3.030064 -0.43917,1.271403 -0.54526,1.517616 -0.65401,1.517616 -0.10697,0 -0.29855,-0.488737 -0.9478,-2.418004 -0.68056,-2.022258 -0.88797,-2.418648 -1.18203,-2.259063 -0.23284,0.126363 -0.3782,0.358407 -0.44409,0.708956 -0.0783,0.41651 -0.0301,2.77606 0.0804,3.937789 0.10652,1.119607 0.0999,1.447986 -0.0299,1.473908 -0.0739,0.01477 -0.57169,-0.439207 -1.59625,-1.455813 -0.81886,-0.812504 -1.62461,-1.563735 -1.79056,-1.669411 -0.29462,-0.187604 -0.41762,-0.2189 -1.12888,-0.287283 l -0.34636,-0.03329 0,0.390289 c 0,0.519523 0.15864,0.819073 1.34337,2.536793 1.20544,1.747722 1.57656,2.331954 1.85833,2.925418 0.25732,0.541972 0.45938,1.263149 0.51408,1.834808 0.0323,0.33756 0.0245,0.379006 -0.0717,0.379006 -0.0602,0 -0.49735,-0.404922 -0.98753,-0.914665 -1.45621,-1.514339 -3.40179,-3.209945 -4.06488,-3.5426 -0.5849,-0.293429 -0.98197,-0.136348 -0.92571,0.366203 0.0676,0.60331 0.67693,1.610173 1.51401,2.50157 1.44937,1.543409 3.39326,4.558824 3.85363,5.977828 0.18119,0.558521 0.35555,1.384947 0.32869,1.557995 -0.0148,0.09521 -0.47595,-0.359091 -2.01666,-1.98667 z"
       id="path2504" />
  </g>
</svg>
