<?xml version="1.0" encoding="UTF-8" standalone="no"?>
<!-- Created with Inkscape (http://www.inkscape.org/) -->
<svg
   xmlns:dc="http://purl.org/dc/elements/1.1/"
   xmlns:cc="http://creativecommons.org/ns#"
   xmlns:rdf="http://www.w3.org/1999/02/22-rdf-syntax-ns#"
   xmlns:svg="http://www.w3.org/2000/svg"
   xmlns="http://www.w3.org/2000/svg"
   xmlns:sodipodi="http://sodipodi.sourceforge.net/DTD/sodipodi-0.dtd"
   xmlns:inkscape="http://www.inkscape.org/namespaces/inkscape"
   width="300"
   height="200"
   id="svg2"
   sodipodi:version="0.32"
   inkscape:version="0.46"
   version="1.0"
   sodipodi:docname="Flag_of_the_Government_of_the_Republic_of_Korea.svg"
   inkscape:output_extension="org.inkscape.output.svg.inkscape">
  <defs
     id="defs4">
    <inkscape:perspective
       sodipodi:type="inkscape:persp3d"
       inkscape:vp_x="0 : 526.18109 : 1"
       inkscape:vp_y="0 : 1000 : 0"
       inkscape:vp_z="744.09448 : 526.18109 : 1"
       inkscape:persp3d-origin="372.04724 : 350.78739 : 1"
       id="perspective10" />
    <inkscape:perspective
       id="perspective2483"
       inkscape:persp3d-origin="372.04724 : 350.78739 : 1"
       inkscape:vp_z="744.09448 : 526.18109 : 1"
       inkscape:vp_y="0 : 1000 : 0"
       inkscape:vp_x="0 : 526.18109 : 1"
       sodipodi:type="inkscape:persp3d" />
    <inkscape:perspective
       id="perspective2498"
       inkscape:persp3d-origin="372.04724 : 350.78739 : 1"
       inkscape:vp_z="744.09448 : 526.18109 : 1"
       inkscape:vp_y="0 : 1000 : 0"
       inkscape:vp_x="0 : 526.18109 : 1"
       sodipodi:type="inkscape:persp3d" />
  </defs>
  <sodipodi:namedview
     id="base"
     pagecolor="#ffffff"
     bordercolor="#666666"
     borderopacity="1.0"
     gridtolerance="10000"
     guidetolerance="10"
     objecttolerance="10"
     inkscape:pageopacity="0.0"
     inkscape:pageshadow="2"
     inkscape:zoom="7.74"
     inkscape:cx="132.67198"
     inkscape:cy="109.9881"
     inkscape:document-units="px"
     inkscape:current-layer="layer1"
     showgrid="false"
     inkscape:window-width="1418"
     inkscape:window-height="1021"
     inkscape:window-x="308"
     inkscape:window-y="53" />
  <metadata
     id="metadata7">
    <rdf:RDF>
      <cc:Work
         rdf:about="">
        <dc:format>image/svg+xml</dc:format>
        <dc:type
           rdf:resource="http://purl.org/dc/dcmitype/StillImage" />
      </cc:Work>
    </rdf:RDF>
  </metadata>
  <g
     inkscape:label="Layer 1"
     inkscape:groupmode="layer"
     id="layer1">
    <g
       id="g2483">
      <rect
         y="0.24927969"
         x="0.24957275"
         height="199.50124"
         width="299.50085"
         id="rect3941"
         style="fill:#003478;fill-opacity:1;stroke:#ffffff;stroke-width:0.49896055;stroke-opacity:1" />
      <g
         id="g2479">
        <path
           style="fill:#ffffff;fill-opacity:1"
           d="M 130.10528,159.79669 C 128.99032,159.6909 128.09338,159.42766 127.07716,158.90797 C 125.75608,158.23239 124.61056,157.35807 123.18618,155.9382 L 122.26356,155.0185 L 121.49476,155.158 C 120.54874,155.32965 118.52351,155.39287 117.54672,155.28123 C 115.1526,155.0076 113.41117,154.20363 111.90018,152.67436 C 111.545,152.31488 111.06744,151.75674 110.83893,151.43404 C 109.99169,150.23758 109.17334,148.31043 108.79738,146.62632 C 108.66865,146.04967 108.39583,144.3676 108.39481,144.14429 C 108.39462,144.10422 107.99779,143.8648 107.51296,143.61224 C 106.11305,142.88299 105.30351,142.29674 104.34259,141.31632 C 102.84242,139.7857 102.09432,138.08949 101.86901,135.70777 C 101.76112,134.56728 101.82617,133.81354 102.21225,131.73126 C 102.2541,131.50553 102.26461,131.28378 102.23616,131.22676 C 102.20824,131.17082 102.02563,131.03428 101.83035,130.92336 C 101.30916,130.6273 100.43577,129.70511 100.04612,129.0394 C 99.504989,128.11491 99.098367,126.92664 98.82565,125.47283 C 98.755019,125.0963 98.717777,124.41631 98.695036,123.08783 C 98.65996,121.03897 98.736522,119.37725 98.925669,118.08199 C 99.11179,116.80745 99.151342,116.9338 98.4092,116.43214 C 96.398437,115.07296 94.912101,113.54404 94.187734,112.08973 C 93.192295,110.09119 92.97776,108.15572 93.509643,105.97212 L 93.687632,105.24139 L 93.399212,105.00016 C 92.769131,104.47317 91.308082,102.92055 90.914363,102.35957 C 90.120762,101.22882 89.57014,100.06407 89.230252,98.797073 C 89.085426,98.257178 89.0604,98.028179 89.035823,97.017798 C 88.979131,94.687184 89.226606,93.404188 90.120113,91.396486 C 90.293507,91.006855 90.435383,90.664256 90.435383,90.635156 C 90.435383,90.60605 90.187964,90.304294 89.88557,89.96458 C 88.719981,88.655158 88.025646,87.32307 87.626002,85.629597 C 87.396668,84.657828 87.356203,82.928845 87.537719,81.857731 C 87.865283,79.924811 88.731449,78.179624 89.99974,76.897159 C 91.393859,75.487465 93.180202,74.423638 95.439224,73.657768 C 95.951418,73.484122 96.415862,73.302865 96.471322,73.254979 C 96.527375,73.206572 96.632129,72.901137 96.707221,72.567153 C 97.094566,70.844343 98.040016,68.669414 98.835938,67.670213 C 99.590698,66.72268 100.70153,65.84591 101.8386,65.300229 C 103.00873,64.738684 104.13753,64.500643 105.6332,64.500035 L 106.53139,64.499669 L 106.80127,63.897868 C 107.65719,61.989226 109.44396,60.127615 111.25548,59.2571 C 113.11417,58.36391 115.55761,58.013618 118.28293,58.249645 C 118.73209,58.288545 119.10974,58.309536 119.12216,58.2963 C 119.13458,58.283058 119.17718,57.909735 119.21684,57.466685 C 119.54805,53.766401 120.53055,51.443439 122.58398,49.505593 C 123.38637,48.748369 123.97355,48.327423 124.85515,47.877401 C 126.09225,47.245896 127.27689,46.842272 128.53374,46.624042 C 129.1988,46.508566 129.24662,46.46932 129.74113,45.633041 C 130.89708,43.678208 132.45847,42.186473 134.31315,41.265006 C 135.03868,40.904538 135.75376,40.658617 136.77843,40.417179 C 137.45573,40.257593 137.61773,40.243166 138.74655,40.241903 C 139.42309,40.241147 140.30875,40.2602 140.71467,40.284243 L 141.45272,40.327957 L 141.914,39.739443 C 142.1677,39.415759 142.74891,38.780237 143.20557,38.327172 C 144.99587,36.550993 146.57265,35.643837 148.5652,35.24368 C 149.22394,35.111386 150.81078,35.144924 151.57008,35.307186 C 154.06134,35.839568 156.42086,37.330136 158.79037,39.868415 L 159.49796,40.626396 L 160.46969,40.667821 C 164.05585,40.8207 164.52117,40.869669 165.53697,41.201085 C 166.24441,41.431894 167.42141,42.008181 168.08383,42.448079 C 169.54607,43.419136 170.82533,45.357461 171.19113,47.15625 C 171.25373,47.464152 171.33652,47.754382 171.3751,47.801207 C 171.41367,47.848032 171.60224,47.917224 171.79415,47.95496 C 173.43525,48.277686 175.41142,49.118745 176.72205,50.052278 C 177.72479,50.766505 179.00785,52.18232 179.70055,53.338947 C 180.28433,54.313721 180.95646,56.068358 181.24967,57.383005 C 181.33594,57.769837 181.43965,58.120324 181.48013,58.161873 C 181.53799,58.22126 181.626,58.218421 181.89171,58.148591 C 182.0776,58.099735 182.58948,57.997208 183.02923,57.920751 C 184.11655,57.731699 186.44791,57.71668 187.39599,57.892614 C 190.14765,58.403238 192.58631,60.186465 194.09741,62.792914 C 194.27611,63.101141 194.55505,63.650109 194.71729,64.012849 L 195.01226,64.672378 L 195.60164,64.714581 C 198.34756,64.911192 199.64942,65.458537 201.26683,67.096436 C 202.7055,68.553325 203.44254,69.903756 204.33654,72.720932 L 204.71363,73.909211 L 205.70708,74.232581 C 207.41709,74.789191 208.94745,75.659551 209.97679,76.660905 C 211.17237,77.823969 211.9718,79.320614 212.40085,81.19913 C 212.56602,81.922291 212.63043,83.682951 212.52366,84.556135 C 212.28891,86.47588 211.6653,88.246716 210.30848,90.84643 L 209.63934,92.128514 L 209.91542,92.829298 C 211.33818,96.440785 211.10657,99.621273 209.20927,102.5264 C 208.72183,103.27276 208.18333,103.90436 207.2907,104.77666 L 206.56151,105.48925 L 206.49466,107.22426 C 206.37131,110.4259 206.26904,111.13835 205.7187,112.6301 C 204.81559,115.0781 203.53379,116.63303 200.82686,118.56432 C 200.40825,118.86298 200.05428,119.11743 200.04025,119.12977 C 200.02622,119.14211 200.22426,119.59143 200.48036,120.12827 C 201.19001,121.61593 201.69277,123.09906 201.92343,124.38538 C 202.05692,125.12977 202.05532,126.82311 201.92031,127.69074 C 201.58409,129.85146 200.31178,131.80023 198.28746,133.25512 L 197.54411,133.78937 L 197.53977,135.22341 C 197.53739,136.01213 197.50181,136.89446 197.46071,137.18414 C 197.16635,139.2591 196.58183,140.96406 195.72968,142.23332 C 194.60528,143.90809 192.67439,145.41564 190.89621,146.00708 L 190.39868,146.17256 L 190.26269,147.14672 C 189.83664,150.19871 188.85531,152.71052 187.53242,154.13504 C 186.28896,155.47404 184.98208,156.30022 183.51392,156.67544 C 181.37792,157.22134 179.17118,157.11481 176.43201,156.33358 C 175.94945,156.19595 175.51039,156.08335 175.4563,156.08335 C 175.40223,156.08335 175.04978,156.38113 174.67308,156.74509 C 173.2025,158.16596 172.13894,158.86642 170.73833,159.33651 C 169.08234,159.89233 167.17367,159.84731 165.23244,159.20665 C 164.50988,158.96818 162.91229,158.21052 162.23261,157.78397 C 161.99122,157.63248 161.75005,157.50853 161.69666,157.50853 C 161.64328,157.50853 161.15172,157.67699 160.6043,157.88289 C 158.84326,158.54525 157.83731,158.73258 156.39812,158.66617 C 154.65261,158.58562 154.02085,158.35464 151.44523,156.8553 C 149.88627,155.9478 148.89476,155.45897 148.52868,155.41739 L 148.24491,155.38517 L 147.55361,156.09272 C 146.51104,157.15979 145.50862,157.77398 144.14207,158.18299 C 142.10396,158.79301 139.84272,158.75416 137.10493,158.06209 C 136.70944,157.96211 136.31025,157.88032 136.21783,157.88032 C 136.11134,157.88032 135.77352,158.06266 135.29533,158.37822 C 133.97454,159.24986 132.87134,159.68739 131.70438,159.80241 C 131.04384,159.86751 130.84402,159.86679 130.10528,159.79669 z M 169.68292,155.06772 C 171.49934,154.5957 172.89598,153.3266 174.00268,151.14245 C 174.18076,150.791 174.32688,150.4414 174.32739,150.36557 C 174.32982,150.01016 174.421,150.04781 175.10491,150.68661 C 176.01212,151.53399 176.40032,151.82112 177.12487,152.18076 C 178.41657,152.8219 179.78294,152.94417 181.29668,152.55407 C 183.20237,152.06297 184.95844,150.70294 185.51122,149.29003 C 186.0554,147.89908 185.98285,145.52763 185.33827,143.63624 C 185.23533,143.33419 185.15111,143.07595 185.15111,143.06237 C 185.15111,143.04879 185.62853,143.03816 186.21205,143.03874 C 187.71532,143.04024 188.53324,142.84524 189.52164,142.24968 C 190.87046,141.43695 192.19769,139.75517 192.56571,138.39246 C 192.7006,137.89299 192.74912,136.60584 192.65919,135.9126 C 192.55681,135.12331 192.30846,134.03927 192.06429,133.31586 C 191.84433,132.66421 191.80377,132.36099 191.93189,132.32605 C 191.97418,132.31452 192.17483,132.27419 192.37779,132.23643 C 193.14649,132.09341 194.49842,131.26735 195.1381,130.54982 C 196.28702,129.26106 196.89481,127.51349 196.81765,125.72069 C 196.74695,124.07815 196.21064,122.8977 195.16779,122.08923 C 193.88318,121.09334 192.21939,120.45485 189.85614,120.05084 C 187.16695,119.59111 184.4133,119.49588 181.1048,119.74818 C 179.46243,119.87343 179.42264,119.8863 179.01148,120.42523 C 178.24308,121.43243 176.78899,123.08361 174.71674,125.30211 L 173.34239,126.77344 L 173.34311,127.13007 C 173.34399,127.56232 173.52002,128.80795 174.32174,134.05493 C 174.66022,136.27017 174.95024,138.17326 174.96621,138.28402 C 174.98219,138.39478 174.96986,138.4854 174.93881,138.4854 C 174.84102,138.4854 171.82135,136.41935 168.91933,134.3669 L 166.12612,132.39139 L 165.9364,132.50411 C 165.31356,132.8742 164.6598,133.18981 163.90157,133.48644 C 162.3892,134.0781 159.98383,134.84475 157.93571,135.3879 C 157.52979,135.49555 157.08113,135.65149 156.9387,135.73444 C 156.20362,136.16252 154.56938,138.94623 153.81516,141.05496 C 153.1623,142.88032 152.90362,144.36079 152.89994,146.29294 C 152.89588,148.42699 153.27357,150.05528 154.09401,151.44082 C 155.43412,153.70395 157.36081,154.49382 159.65782,153.72178 C 160.531,153.42831 161.08508,153.10197 162.26909,152.18384 C 162.56009,151.95818 162.68678,151.89307 162.74315,151.94021 C 162.78547,151.97559 163.00423,152.26626 163.22929,152.58614 C 164.18712,153.94751 165.47712,154.85474 166.91622,155.17906 C 167.57429,155.32737 168.88703,155.27453 169.68292,155.06772 z M 132.16339,154.68765 C 133.16653,154.47889 134.70284,153.67044 135.65114,152.85228 C 135.84297,152.68678 136.02287,152.55122 136.05091,152.55103 C 136.07895,152.55084 136.60007,152.80164 137.20896,153.10834 C 137.81785,153.41505 138.56512,153.74077 138.86956,153.83217 C 139.36169,153.97991 139.52884,153.99885 140.3764,154.00294 C 141.26865,154.00724 141.36713,153.99573 141.914,153.82323 C 142.33409,153.69072 142.64861,153.53785 143.03323,153.27924 C 143.66898,152.85179 144.56864,151.96263 144.85789,151.47587 C 145.52338,150.35596 145.88841,148.12339 145.83194,145.51838 C 145.80676,144.3566 145.77094,143.91853 145.63811,143.1481 C 145.17834,140.48126 144.42186,138.27766 143.28225,136.28566 L 142.78596,135.41815 L 141.90408,135.192 C 140.44198,134.81707 138.46866,134.08676 134.90348,132.60114 C 133.90609,132.18552 133.07328,131.84069 133.0528,131.83484 C 133.03233,131.82899 131.1499,133.22076 128.86964,134.92767 C 124.91948,137.88457 124.17501,138.41799 124.10157,138.34399 C 124.07843,138.32067 126.68759,127.97507 126.94321,127.07658 C 126.96178,127.01132 126.72148,126.70832 126.25525,126.20907 C 125.86118,125.7871 125.27526,125.13513 124.95321,124.76024 C 124.30353,124.00398 121.93932,120.84825 121.12574,119.65136 C 120.29801,118.43367 120.36359,118.48617 119.49589,118.34644 C 118.07812,118.11815 117.34373,118.07819 114.60635,118.08049 C 110.94204,118.08355 108.58222,118.23304 107.44892,118.53389 C 105.86187,118.95521 104.56599,120.04617 104.00738,121.4312 C 103.69192,122.21337 103.62762,122.66635 103.63159,124.07863 C 103.63478,125.21563 103.65217,125.44246 103.76936,125.8756 C 104.04279,126.8862 104.73049,128.01905 105.47706,128.68868 C 105.83359,129.00846 106.62347,129.53827 107.10289,129.7792 C 107.28894,129.8727 107.45265,129.95974 107.46669,129.97262 C 107.48073,129.98552 107.34945,130.28191 107.17496,130.63129 C 106.70891,131.56444 106.64013,131.97481 106.64789,133.77609 C 106.65738,135.9787 106.86467,136.92601 107.58346,138.05165 C 108.57453,139.6037 110.0714,140.75714 112.17256,141.58788 C 112.54224,141.73404 112.89137,141.90064 112.9484,141.9581 C 113.04566,142.05608 113.03762,142.11983 112.81886,142.98502 C 112.4422,144.4747 112.43799,145.39923 112.80255,146.56338 C 113.38326,148.41781 114.70468,149.90862 116.62297,150.87354 C 117.44015,151.2846 117.72168,151.33776 119.09612,151.34059 L 120.29544,151.34306 L 120.96387,151.10996 C 121.85268,150.80001 122.88903,150.28409 123.68648,149.75457 C 124.04456,149.5168 124.34512,149.33079 124.35438,149.34122 C 124.36365,149.35166 124.50241,149.62509 124.66273,149.94885 C 125.45811,151.55504 127.07312,153.53623 128.04263,154.09511 C 128.63502,154.43659 129.14013,154.6421 129.55967,154.71231 C 130.12383,154.80674 131.6611,154.79218 132.16339,154.68765 z M 149.64643,141.49069 C 151.52747,138.22724 152.89179,135.76867 152.84685,135.72338 C 152.80331,135.67953 148.78203,135.57602 147.06079,135.57445 L 145.53442,135.57306 L 145.5766,135.71249 C 145.65051,135.95684 148.43697,142.16659 148.72153,142.72111 C 148.83232,142.93701 148.7485,143.04851 149.64643,141.49069 z M 152.12361,131.1723 C 160.65615,130.57898 168.62669,126.17712 173.77936,119.21256 C 174.97491,117.59661 175.6687,116.40872 176.9088,113.85447 C 178.0768,111.44873 179.11156,107.86526 179.3959,105.24139 C 179.64109,102.97892 179.71145,100.17251 179.56135,98.642161 C 179.27268,95.698874 178.58838,92.81113 177.55707,90.183995 C 177.14635,89.137763 176.03436,86.863743 175.46633,85.90844 C 172.45585,80.845412 168.21651,76.912982 162.97902,74.325139 C 158.58685,72.154971 153.89992,71.187978 148.74091,71.387561 C 142.86726,71.614798 137.20057,73.680975 132.44242,77.330286 C 130.45931,78.85125 128.32785,80.937733 127.00042,82.657442 C 124.26129,86.206033 122.52745,89.792036 121.40879,94.222303 C 120.89944,96.23946 120.70728,98.000161 120.65198,101.15625 C 120.61434,103.30493 120.65321,104.05847 120.8833,105.64063 C 121.90283,112.65108 125.32454,119.04387 130.56656,123.73193 C 134.59839,127.33769 139.58715,129.78965 144.88231,130.76808 C 146.85326,131.13226 150.09613,131.31329 152.12361,131.1723 z M 183.53204,115.99075 C 186.23361,115.65579 188.18395,115.3844 188.35935,115.31902 C 188.44897,115.28562 188.33542,115.12905 187.72358,114.44249 C 185.99181,112.49917 182.97401,109.18014 182.95566,109.19863 C 182.92389,109.23063 180.59983,116.1821 180.59983,116.24511 C 180.59983,116.34173 180.93767,116.31243 183.53204,115.99075 z M 118.97214,113.59566 C 117.94209,110.30085 117.30597,108.37061 117.25021,108.37061 C 117.13278,108.37061 115.97278,109.41508 113.74611,111.52572 C 112.30355,112.89311 111.46289,113.71365 111.48396,113.73373 C 111.49301,113.74236 113.09182,114.07248 115.03687,114.46734 C 118.4638,115.16303 119.41368,115.32897 119.45339,115.23889 C 119.46384,115.21518 119.24728,114.47572 118.97214,113.59566 z M 197.11358,113.85276 C 198.38479,113.52202 199.30707,112.7337 200.4746,110.97991 C 201.25813,109.80294 201.46419,109.2802 201.57861,108.17918 C 201.70911,106.92346 201.49257,105.39154 200.95391,103.75996 C 200.78618,103.2519 200.66063,102.82443 200.67491,102.81005 C 200.6892,102.79565 200.93162,102.73284 201.21362,102.67047 C 201.91427,102.5155 202.67914,102.22497 203.19891,101.9164 C 203.76841,101.57829 204.66192,100.67399 205.0459,100.04708 C 205.83486,98.759007 206.32284,96.884082 206.1781,95.696896 C 206.02232,94.419027 205.55883,93.229161 204.60282,91.652874 C 204.3487,91.233855 204.15106,90.881374 204.16364,90.869585 C 204.17622,90.857791 204.53247,90.682506 204.95531,90.480068 C 206.91901,89.539919 208.01156,88.194254 208.44066,86.187278 C 208.53055,85.766847 208.55327,85.385538 208.55327,84.29736 C 208.55327,83.044346 208.54169,82.896565 208.41005,82.469405 C 207.95087,80.979473 206.66297,79.522975 205.10906,78.73628 C 204.34581,78.34987 203.72709,78.188744 202.86418,78.151667 C 202.08118,78.118022 200.22235,78.209745 200.01053,78.292472 C 199.87735,78.344496 199.8797,78.319939 200.07327,77.636163 C 200.24768,77.020044 200.23259,75.056446 200.04677,74.187972 C 199.7681,72.885531 199.25344,71.67368 198.67099,70.948442 C 198.26967,70.448741 197.24902,69.686685 196.49854,69.326418 C 195.4596,68.827675 194.47372,68.651298 192.72482,68.651298 L 191.82405,68.651298 L 191.62944,67.881307 C 191.15834,66.017228 190.02128,64.603207 188.2878,63.72569 C 186.48241,62.811771 184.57833,62.811539 182.7138,63.724999 C 181.27984,64.42752 180.08221,65.599378 179.07276,67.287672 C 177.6387,69.686113 176.73001,72.780107 176.22813,76.973265 L 176.0887,78.138317 L 176.76711,79.142021 C 177.67648,80.487438 178.6855,82.062318 180.30834,84.669147 C 181.0509,85.861966 181.66781,86.847966 181.67924,86.86026 C 181.69067,86.872559 182.77405,86.905905 184.08673,86.934367 C 191.5398,87.095962 192.93541,87.132987 192.97512,87.170172 C 192.9992,87.192724 192.59852,87.53151 192.08472,87.923032 C 190.05494,89.469743 187.63025,91.34762 186.18129,92.495149 L 184.65908,93.700693 L 184.65908,94.022168 C 184.65908,95.691687 184.29286,101.70619 184.07507,103.61356 L 183.92458,104.93157 L 184.14109,105.25034 C 185.29811,106.95386 189.83403,111.38071 191.76276,112.68876 C 192.7181,113.33666 194.0184,113.79986 195.36072,113.97046 C 195.73945,114.01859 196.7325,113.9519 197.11358,113.85276 z M 104.02771,112.02483 C 104.75599,111.96038 105.67923,111.7643 106.48786,111.50234 C 108.52601,110.84206 111.61583,109.04663 113.81278,107.246 C 114.91192,106.34514 116.12497,104.96634 116.24607,104.48025 C 116.26738,104.39471 116.25033,103.94541 116.20819,103.4818 C 116.16604,103.01819 116.1171,101.74567 116.09944,100.65397 C 116.05459,97.882619 116.17673,96.392295 116.57907,94.801701 C 116.67802,94.410515 116.75897,94.05166 116.75897,94.004248 C 116.75897,93.897629 116.4697,93.621882 111.77717,89.255496 C 109.69681,87.319721 107.98396,85.707404 107.97083,85.672563 C 107.93659,85.581721 114.70425,85.731661 118.67124,85.909636 L 119.50719,85.94714 L 119.95857,85.158178 C 121.56318,82.353517 123.12078,80.187342 124.13353,79.352013 C 124.64959,78.926347 124.62223,79.113513 124.44787,77.202413 C 124.16886,74.144243 123.82741,72.312624 123.14258,70.200411 C 122.00521,66.692451 120.20818,64.486809 117.82101,63.668792 C 117.10836,63.424588 116.54084,63.364032 115.40638,63.411151 C 114.5668,63.446017 114.31455,63.479492 113.94215,63.605438 C 111.98243,64.268223 110.52857,65.913835 109.80651,68.286513 C 109.69879,68.640504 109.57477,68.968439 109.53092,69.015254 C 109.46369,69.087022 109.35147,69.087594 108.8152,69.018902 C 106.81763,68.763018 104.59911,69.118122 103.31306,69.899598 C 102.37674,70.468562 101.74044,71.175437 101.2295,72.21426 C 100.69856,73.293746 100.49466,74.238774 100.41032,76.010971 L 100.36824,76.89534 L 98.892141,76.918546 C 97.851209,76.93491 97.280584,76.970895 96.956532,77.040612 C 94.153003,77.643763 92.543623,79.449115 92.010626,82.58876 C 91.882683,83.342423 91.879992,84.61429 92.005315,85.099038 C 92.423183,86.715379 93.550598,88.276363 95.34975,89.729651 C 95.750503,90.053366 95.816107,90.150402 95.765628,90.344807 C 95.744346,90.426761 95.488976,90.772658 95.198138,91.113464 C 94.510884,91.91879 94.085652,92.566273 93.664519,93.448627 C 93.255985,94.304592 93.144033,94.788861 93.14261,95.706222 C 93.138979,98.050515 94.251589,100.44505 95.994693,101.84441 C 96.609548,102.33801 97.658328,102.86597 98.381746,103.04606 L 98.916919,103.17928 L 98.559214,103.71525 C 98.080527,104.43249 97.848213,104.91011 97.660066,105.56382 C 97.095788,107.52433 97.74906,109.62888 99.311092,110.88272 C 100.50312,111.83955 102.00682,112.20367 104.02771,112.02483 z M 127.82964,75.72022 C 129.34935,74.565834 132.95965,71.468954 132.89968,71.371187 C 132.79755,71.204702 125.96495,67.906791 125.88631,67.986025 C 125.83075,68.042 127.22357,75.82348 127.31691,75.978613 C 127.3653,76.059032 127.41971,76.031611 127.82964,75.72022 z M 173.09072,75.606826 C 173.52911,73.925544 174.35057,70.242418 174.62784,68.714941 L 174.73904,68.102381 L 174.1791,68.30804 C 173.05654,68.720335 169.1754,70.367534 167.86918,70.986034 L 167.28428,71.262991 L 167.49954,71.450451 C 167.74208,71.661669 172.00357,75.100958 172.5736,75.545538 C 172.77656,75.70383 172.96231,75.83466 172.98638,75.836268 C 173.01045,75.837875 173.0574,75.734626 173.09072,75.606826 z M 164.64505,68.77984 C 165.92905,68.161031 167.12642,67.387382 169.06788,65.922135 C 172.54942,63.294583 174.60395,61.093583 175.42787,59.108747 C 175.62954,58.622906 175.64594,58.536386 175.63921,57.993385 C 175.63028,57.272089 175.44219,56.582403 174.9985,55.644052 C 174.35541,54.283961 173.51604,53.275722 172.42553,52.553427 C 171.40649,51.878467 170.44768,51.589133 168.88337,51.484529 C 168.34214,51.448333 167.8405,51.394465 167.76861,51.364823 C 167.66023,51.320126 167.63062,51.238656 167.59526,50.887803 C 167.5051,49.993314 167.08896,48.549919 166.68842,47.742331 C 166.21107,46.779902 165.39958,45.791421 164.70611,45.327679 C 164.01601,44.866178 162.79891,44.49827 161.77507,44.441671 C 160.62929,44.37833 159.70858,44.582743 158.20166,45.235031 C 157.71711,45.444771 157.23253,45.654239 157.12478,45.700515 L 156.9289,45.784655 L 156.70914,45.098749 C 156.27858,43.754906 155.79766,42.929228 154.89561,41.985128 C 153.99687,41.044497 153.20472,40.527419 152.09286,40.155616 C 150.34289,39.570429 148.30784,39.836308 146.67134,40.863938 C 145.4666,41.620444 144.70538,42.639218 144.03507,44.392156 C 143.63073,45.449563 143.44585,45.848324 143.35992,45.848324 C 143.31873,45.848324 142.9558,45.698131 142.55339,45.514562 C 141.06971,44.837742 139.76053,44.526068 138.40829,44.52775 C 137.68455,44.52865 137.50694,44.550329 137.02445,44.696669 C 136.32507,44.908789 135.43185,45.332697 134.9416,45.685156 C 133.65143,46.612696 132.82229,48.370373 132.69616,50.445232 C 132.66742,50.917976 132.62623,51.322579 132.60461,51.344348 C 132.58301,51.366122 132.46156,51.348681 132.33474,51.305591 C 132.18896,51.256061 131.5818,51.215254 130.68402,51.194644 C 129.49831,51.167424 129.17852,51.179445 128.74665,51.267458 C 127.67938,51.484977 126.84628,51.968201 125.91759,52.908402 C 125.32014,53.513253 125.0297,54.025073 124.80777,54.864173 C 124.63424,55.52026 124.62082,56.969514 124.78137,57.714547 C 125.45697,60.849503 128.74995,64.211186 133.54949,66.665571 C 134.53214,67.168075 135.84107,67.736957 136.76981,68.065165 C 137.37681,68.279671 137.46375,68.295447 137.72311,68.238158 C 137.88008,68.203482 139.14325,67.837105 140.53016,67.423985 C 141.91707,67.010865 143.75377,66.47911 144.61171,66.242306 C 145.46966,66.005501 146.1917,65.788404 146.21625,65.759865 C 146.24081,65.731326 146.47685,65.066645 146.74079,64.282794 C 147.15148,63.06309 148.1723,60.129892 149.67937,55.839137 C 149.88605,55.250712 150.07511,54.790623 150.09951,54.816725 C 150.17219,54.89448 150.77265,56.6462 152.39911,61.52537 L 153.93797,66.141731 L 155.50632,66.549245 C 158.40473,67.302362 160.85927,68.064321 162.85601,68.830798 C 163.29576,68.999606 163.70677,69.139808 163.76937,69.142369 C 163.83197,69.144925 164.22603,68.981784 164.64505,68.77984 z"
           id="path2489" />
        <path
           style="fill:#ffffff;fill-opacity:1"
           d="M 147.01252,122.42857 L 147.01252,118.85714 L 137.75625,118.85714 L 128.5,118.85714 L 128.5,117.49999 L 128.5,116.14287 L 150,116.14287 L 171.5,116.14287 L 171.5,117.49999 L 171.5,118.85714 L 162.19476,118.85714 L 152.88951,118.85714 L 152.88951,122.42857 L 152.88951,126 L 149.95103,126 L 147.01252,126 L 147.01252,122.42857 z M 132.25132,114.2315 C 131.41623,114.12729 130.83011,113.88577 130.46194,113.49409 C 130.01439,113.01794 130.04477,113.37098 130.0293,108.46427 L 130.01572,104.14284 L 132.95474,104.14284 L 135.89378,104.14284 L 135.90673,105.58332 L 135.9197,107.0238 L 150,107.0238 L 164.08029,107.0238 L 164.09325,105.58332 L 164.10621,104.14284 L 167.04525,104.14284 L 169.98427,104.14284 L 169.97067,108.46427 C 169.95523,113.36935 169.98532,113.01821 169.53978,113.49224 C 169.16076,113.89547 168.58138,114.12722 167.68123,114.23569 C 167.16128,114.29838 132.75453,114.29429 132.25132,114.2315 z M 164.08029,110.66667 L 164.08029,109.69046 L 149.98774,109.67848 L 135.89521,109.6665 L 135.89521,110.66667 L 135.89521,111.66683 L 149.98774,111.65485 L 164.08029,111.64287 L 164.08029,110.66667 z M 148.2124,102.3988 C 144.22725,102.2482 140.41245,101.77616 137.8136,101.11207 C 137.5531,101.04548 137.26284,100.97496 137.16857,100.9553 C 136.73214,100.86438 134.87348,100.28721 134.83817,100.23166 C 134.82378,100.20901 134.7788,100.19047 134.73826,100.19047 C 134.69774,100.19047 134.54411,100.13692 134.39689,100.07141 C 134.24967,100.00597 134.11792,99.95238 134.10413,99.95238 C 134.01428,99.95238 133.33041,99.60018 132.83427,99.298381 C 132.27708,98.959441 131.53644,98.338001 131.53644,98.209402 C 131.53644,98.179212 131.50091,98.125842 131.45748,98.090811 C 131.3423,97.99786 131.14465,97.553057 131.14465,97.386805 C 131.14465,97.3081 131.1226,97.230475 131.09568,97.214297 C 131.0319,97.175968 131.0319,96.728792 131.09568,96.690475 C 131.1226,96.674275 131.14477,96.592667 131.14495,96.50908 C 131.14511,96.425515 131.17818,96.295768 131.2184,96.220742 C 131.25865,96.145727 131.29156,96.065042 131.29156,96.04144 C 131.29156,95.956345 131.77863,95.353255 131.98578,95.181872 C 132.60523,94.669322 132.81462,94.535335 133.53677,94.189555 C 134.48408,93.735942 136.14379,93.173522 137.38894,92.884172 C 137.68525,92.815322 138.00481,92.739047 138.0991,92.71468 C 138.19336,92.690312 138.60107,92.603427 139.00511,92.521617 C 144.52653,91.403606 152.0927,91.174781 158.49714,91.932131 C 159.89946,92.097956 162.28783,92.49148 162.73347,92.630157 C 162.82776,92.659497 162.94896,92.688927 163.00284,92.695555 C 163.14989,92.71369 163.75647,92.852457 164.00682,92.925235 C 164.12804,92.96047 164.48066,93.058107 164.79043,93.142202 C 165.10019,93.226285 165.46384,93.333947 165.5985,93.381445 C 165.7332,93.428952 165.96459,93.504475 166.11274,93.549282 C 166.2609,93.594092 166.40305,93.649542 166.42864,93.672505 C 166.45422,93.695487 166.50501,93.714287 166.54151,93.714287 C 166.57801,93.714287 166.70211,93.756025 166.81727,93.807042 C 166.93243,93.85804 167.1351,93.941402 167.26762,93.992252 C 168.02642,94.283447 168.96331,94.862417 169.43145,95.329427 C 169.8405,95.737497 170.1287,96.238787 170.1287,96.542188 C 170.1287,96.633752 170.15073,96.721907 170.17766,96.738085 C 170.23737,96.773972 170.24361,97.142848 170.18451,97.142848 C 170.16135,97.142848 170.13033,97.25653 170.1156,97.395478 C 170.05574,97.959328 169.41204,98.702292 168.50364,99.256011 C 167.6388,99.78318 166.03243,100.43032 164.83941,100.73224 C 164.69125,100.7697 164.39373,100.8472 164.17823,100.90443 C 163.96274,100.96166 163.74235,101.01701 163.68849,101.02743 C 163.63462,101.03782 163.53543,101.06644 163.4681,101.09099 C 163.40075,101.11556 163.25751,101.15141 163.14976,101.17071 C 163.04202,101.18997 162.93182,101.21211 162.90489,101.21985 C 162.16459,101.43279 159.80142,101.83855 158.25228,102.01874 C 155.89105,102.29336 154.20864,102.38495 151.22437,102.40132 C 149.81021,102.40911 148.45483,102.40796 148.2124,102.3988 z M 153.77106,99.87835 C 156.09469,99.69543 157.51934,99.481491 159.3542,99.039901 C 159.79839,98.933001 160.84924,98.608951 161.09283,98.503752 C 161.68691,98.247191 161.8632,98.160312 162.13098,97.992167 C 162.41775,97.8121 162.6975,97.53292 162.82382,97.300753 C 162.85494,97.243547 162.88042,97.079893 162.88042,96.937075 C 162.88042,96.723122 162.85241,96.636902 162.72124,96.44716 C 162.48992,96.112495 161.84432,95.67271 161.31319,95.488007 C 161.21892,95.455212 161.09771,95.407962 161.04385,95.383 C 160.74404,95.244072 159.6206,94.936442 158.54612,94.699045 C 157.53023,94.474617 155.91136,94.237772 154.75057,94.143777 C 154.41386,94.116507 154.0392,94.084345 153.91798,94.072285 C 153.79677,94.060225 153.54334,94.038805 153.35477,94.024675 C 153.16623,94.010567 152.89073,93.98818 152.74259,93.97495 C 152.38336,93.942865 148.97079,93.943562 148.6287,93.975792 C 148.48056,93.989742 148.172,94.012435 147.94304,94.026227 C 147.71409,94.039997 147.44963,94.060405 147.35534,94.071565 C 147.26108,94.082747 146.89743,94.115035 146.54726,94.143362 C 143.83933,94.362287 140.83113,94.993152 139.75369,95.568085 C 139.603,95.648487 139.45464,95.714277 139.42399,95.714277 C 139.39337,95.714277 139.34168,95.736272 139.30913,95.76316 C 139.27662,95.790047 139.14295,95.879292 139.01209,95.961507 C 138.88126,96.043723 138.6884,96.216512 138.58357,96.345493 C 138.40408,96.566252 138.39294,96.599057 138.39294,96.905935 C 138.39294,97.085215 138.4144,97.286815 138.44065,97.353955 C 138.49838,97.501543 138.94217,97.921652 139.14947,98.024941 C 139.23171,98.065902 139.46426,98.184901 139.66629,98.289391 C 139.8683,98.393881 140.12175,98.511161 140.2295,98.550012 C 140.96088,98.813781 141.48919,98.963051 142.58029,99.214251 C 143.90865,99.52008 146.44771,99.84052 148.23426,99.92781 C 148.54258,99.94287 148.80475,99.96483 148.81685,99.9766 C 148.82895,99.98838 149.61251,99.99752 150.5581,99.99697 C 151.94314,99.99613 152.56769,99.97309 153.77106,99.87835 z M 164.04407,89.369042 L 164.03131,87.309527 L 160.51735,87.297299 L 157.00341,87.285092 L 157.00341,85.976189 L 157.00341,84.667286 L 160.51735,84.65508 L 164.03131,84.642851 L 164.04414,82.821431 L 164.05695,81 L 167.01937,81 L 169.98178,81 L 169.98178,86.214284 L 169.98178,91.428568 L 167.01929,91.428568 L 164.05685,91.428568 L 164.04407,89.369042 z M 129.72437,89.953289 L 129.72437,88.573241 L 129.83456,88.551269 C 129.89515,88.539176 130.16516,88.516382 130.4345,88.500599 C 132.31963,88.390136 134.48608,88.004261 135.91145,87.525089 C 137.83073,86.879891 139.05553,85.852541 139.48963,84.523815 C 139.55379,84.327377 139.62186,84.054161 139.64089,83.916662 L 139.67548,83.666666 L 134.84685,83.666666 L 130.01821,83.666666 L 130.01821,82.333337 L 130.01821,81 L 142.92312,81 L 155.828,81 L 155.828,82.333337 L 155.828,83.666666 L 150.99938,83.666666 L 146.17074,83.666666 L 146.20534,83.916662 C 146.30713,84.652425 146.6886,85.394396 147.26541,85.978586 C 148.11542,86.839457 149.32487,87.428237 151.1754,87.882029 C 152.31576,88.161671 154.11759,88.424762 155.41173,88.500599 C 155.68109,88.516382 155.95105,88.539176 156.01167,88.551269 L 156.12185,88.573241 L 156.12185,89.953289 L 156.12185,91.333338 L 155.69334,91.333136 C 154.81735,91.332753 152.80801,91.147331 151.51965,90.948002 C 148.07099,90.414461 145.18626,89.493647 143.36388,88.344662 L 142.92312,88.066754 L 142.48234,88.344596 C 140.65896,89.493974 137.77542,90.414437 134.32659,90.948002 C 133.03824,91.147331 131.02888,91.332753 130.15289,91.333136 L 129.72437,91.333338 L 129.72437,89.953289 z"
           id="path4004" />
      </g>
    </g>
  </g>
</svg>
