<?xml version="1.0" encoding="UTF-8" ?>
<!DOCTYPE svg PUBLIC "-//W3C//DTD SVG 1.1//EN" "http://www.w3.org/Graphics/SVG/1.1/DTD/svg11.dtd">
<svg width="1000pt" height="667pt" viewBox="0 0 1000 667" version="1.1" xmlns="http://www.w3.org/2000/svg">
<g id="#ffffffff">
<path fill="#ffffff" opacity="1.00" d=" M 0.00 0.00 L 1000.00 0.00 L 1000.00 667.00 L 0.00 667.00 L 0.00 0.00 M 470.83 133.44 C 466.24 133.56 461.65 133.00 457.08 133.49 C 450.39 134.52 443.97 137.48 439.02 142.12 C 435.15 145.38 432.69 149.83 429.77 153.86 C 421.25 155.81 412.44 158.75 406.42 165.46 C 399.07 172.82 396.96 183.49 396.26 193.49 C 388.08 192.60 379.55 192.79 371.81 195.86 C 363.73 199.14 357.66 206.15 354.22 214.02 C 346.76 213.66 338.98 215.32 333.16 220.23 C 326.18 225.45 323.35 234.11 321.15 242.17 C 320.95 243.61 319.33 243.80 318.27 244.29 C 310.84 246.73 303.62 250.47 298.33 256.35 C 291.42 263.97 289.09 275.09 291.37 285.01 C 292.73 291.20 296.35 296.56 300.62 301.14 C 297.78 307.37 295.50 314.04 295.95 321.00 C 295.26 332.71 302.99 342.71 311.41 349.96 C 309.39 356.95 309.30 364.67 312.48 371.34 C 315.80 379.07 322.88 384.04 329.38 388.92 C 328.02 401.40 326.33 414.77 331.37 426.66 C 333.05 430.98 336.63 434.06 340.17 436.85 C 337.92 445.71 337.76 455.53 342.22 463.75 C 346.10 470.94 353.07 475.73 360.26 479.20 C 361.85 490.60 365.28 502.82 374.73 510.27 C 383.63 517.66 396.00 517.58 406.84 515.92 C 411.56 520.63 416.36 525.46 422.37 528.52 C 429.17 532.13 437.70 533.14 444.85 529.91 C 447.70 528.69 450.17 526.75 452.97 525.41 C 459.59 526.52 466.22 528.36 473.02 527.56 C 481.00 527.13 488.41 523.05 493.37 516.84 C 502.68 519.46 509.89 527.69 519.94 527.95 C 526.24 528.66 532.11 526.03 537.96 524.19 C 545.97 528.17 554.61 532.86 563.93 531.18 C 572.04 530.29 578.23 524.62 583.92 519.32 C 588.27 520.38 592.58 521.67 597.05 522.15 C 605.63 523.26 615.02 521.47 621.56 515.49 C 630.06 508.30 632.39 496.75 633.92 486.28 C 643.79 483.19 652.26 475.29 655.33 465.31 C 657.71 458.82 657.68 451.88 657.61 445.07 C 665.82 439.83 672.65 431.16 672.53 421.02 C 673.24 412.23 669.60 403.96 665.93 396.21 C 672.99 391.30 680.15 385.72 683.62 377.58 C 687.78 369.33 687.34 359.87 687.61 350.90 C 693.42 345.36 699.07 339.06 700.95 331.01 C 703.31 322.70 701.25 313.94 697.98 306.18 C 701.54 299.40 705.23 292.54 706.89 285.00 C 708.94 275.41 707.54 264.62 701.14 256.89 C 696.24 250.82 688.83 247.65 681.56 245.44 C 678.91 236.68 675.83 227.46 668.60 221.35 C 663.52 216.25 656.13 214.97 649.24 214.66 C 645.91 206.42 640.15 198.89 632.05 194.89 C 623.46 190.38 613.29 191.33 604.10 193.13 C 602.10 185.27 599.60 177.14 593.84 171.16 C 588.34 164.62 580.24 160.97 572.10 159.00 C 570.07 159.04 570.07 156.95 569.58 155.52 C 567.67 147.89 562.21 141.19 554.92 138.12 C 547.47 134.10 538.79 135.35 530.69 134.44 C 522.55 125.33 511.96 116.35 499.06 116.40 C 487.22 115.92 477.55 124.58 470.83 133.44 Z" />
<path fill="#ffffff" opacity="1.00" d=" M 483.02 139.99 C 486.85 134.77 493.39 132.15 499.73 131.91 C 489.93 162.33 479.99 192.71 470.15 223.12 C 465.76 224.18 461.52 226.06 457.02 226.55 C 444.82 222.59 433.28 216.01 424.19 206.89 C 418.61 201.08 413.85 193.43 414.83 185.04 C 414.83 178.26 420.33 172.73 426.38 170.53 C 431.23 169.15 436.33 170.00 441.28 170.18 C 441.33 162.34 444.00 153.28 451.73 149.82 C 459.78 145.25 469.36 148.33 477.08 152.06 C 479.17 148.09 480.28 143.61 483.02 139.99 Z" />
<path fill="#ffffff" opacity="1.00" d=" M 500.03 131.88 C 511.12 132.13 519.85 141.43 522.34 151.74 C 527.05 149.76 531.78 147.20 537.03 147.28 C 542.65 147.25 548.72 149.20 552.05 154.00 C 555.90 158.63 557.09 164.67 558.25 170.41 C 563.10 170.84 568.26 170.92 572.57 173.49 C 577.96 176.42 581.61 181.76 583.65 187.42 C 584.77 190.59 585.13 194.31 583.39 197.34 C 579.78 204.37 573.81 209.80 567.84 214.81 C 560.76 220.46 553.51 226.14 545.09 229.66 C 540.25 227.88 535.41 226.09 530.47 224.62 C 520.30 193.71 510.15 162.80 500.03 131.88 Z" />
<path fill="#ffffff" opacity="1.00" d=" M 598.26 220.16 C 603.08 213.26 611.45 208.33 620.05 209.46 C 629.46 210.57 637.24 218.53 638.53 227.87 C 644.39 227.99 650.70 227.78 655.82 231.14 C 665.83 236.57 668.06 249.86 665.58 260.07 C 671.47 259.52 677.91 258.69 683.28 261.80 C 689.13 265.09 694.40 271.00 694.36 278.05 C 694.64 283.72 694.02 289.83 690.37 294.43 C 687.72 298.04 683.62 300.10 679.71 302.02 C 682.92 307.57 686.51 313.38 686.52 320.01 C 686.06 326.26 683.73 332.67 678.91 336.88 C 676.03 339.79 671.93 340.80 668.10 341.77 C 670.39 349.34 673.01 357.93 669.48 365.54 C 666.35 370.95 662.51 377.10 655.97 378.60 C 648.17 380.17 640.14 376.77 634.37 371.60 C 626.44 364.66 618.58 357.46 612.29 348.96 C 613.67 336.45 614.29 323.88 614.78 311.31 C 622.77 305.11 630.68 298.82 638.76 292.74 C 640.02 291.81 641.17 290.74 642.23 289.58 C 629.72 289.13 617.20 289.18 604.70 288.53 C 598.62 278.83 592.63 269.07 586.16 259.63 C 587.64 245.93 590.06 231.61 598.26 220.16 Z" />
<path fill="#ffffff" opacity="1.00" d=" M 373.83 213.79 C 381.34 208.41 392.57 209.50 399.31 215.70 C 406.08 221.83 409.27 230.79 411.42 239.43 C 413.13 246.82 413.97 254.42 414.35 261.99 C 407.46 268.74 402.26 276.98 397.69 285.43 C 384.80 285.35 371.92 284.37 359.03 284.61 C 368.70 293.89 378.58 302.95 388.36 312.12 C 385.81 321.85 385.79 331.98 386.46 341.95 C 386.38 344.48 387.33 347.46 385.36 349.53 C 380.09 356.33 372.77 361.14 365.44 365.46 C 357.55 370.08 348.47 373.57 339.17 372.39 C 332.03 371.67 325.64 366.13 324.36 359.00 C 323.00 353.30 325.50 347.60 328.84 343.09 C 322.91 341.60 317.31 338.23 314.10 332.90 C 309.85 326.17 307.74 317.00 311.82 309.71 C 313.58 306.08 316.35 303.12 318.71 299.89 C 312.99 294.74 306.57 289.02 305.58 280.91 C 305.08 272.34 308.10 262.42 316.14 258.15 C 321.47 255.04 327.81 255.49 333.74 255.47 C 333.82 248.04 334.80 239.80 340.49 234.41 C 346.83 228.64 356.12 228.42 364.17 229.39 C 366.17 223.59 368.57 217.42 373.83 213.79 Z" />
<path fill="#ffffff" opacity="1.00" d=" M 418.84 225.74 C 426.78 229.20 434.60 232.95 442.24 237.05 C 436.31 242.56 430.11 247.80 423.65 252.67 C 421.79 243.74 420.13 234.77 418.84 225.74 Z" />
<path fill="#ffffff" opacity="1.00" d=" M 556.80 236.66 C 564.94 232.87 573.20 229.29 581.62 226.15 C 579.99 234.82 578.09 243.43 575.88 251.97 C 569.41 247.01 563.13 241.80 556.80 236.66 Z" />
<path fill="#ffffff" opacity="1.00" d=" M 405.03 308.92 C 413.12 279.79 435.37 255.12 463.40 243.86 C 447.66 292.46 431.86 341.05 416.09 389.65 C 407.94 376.52 402.91 361.45 401.51 346.06 C 401.16 333.62 401.16 320.90 405.03 308.92 Z" />
<path fill="#ffffff" opacity="1.00" d=" M 536.94 244.32 C 552.76 251.03 566.88 261.78 577.30 275.47 C 588.47 290.04 595.47 307.70 597.50 325.94 C 599.67 347.30 595.07 369.33 584.06 387.83 C 568.35 339.99 552.63 292.16 536.94 244.32 Z" />
<path fill="#ffffff" opacity="1.00" d=" M 370.88 378.21 C 376.96 371.95 383.35 365.95 389.98 360.26 C 392.69 367.85 395.15 375.54 397.32 383.30 C 388.44 382.01 379.69 379.93 370.88 378.21 Z" />
<path fill="#ffffff" opacity="1.00" d=" M 609.02 363.19 C 615.21 369.81 621.50 376.37 627.16 383.45 C 618.54 384.79 609.87 385.98 601.17 386.68 C 603.68 378.81 606.30 370.98 609.02 363.19 Z" />
<path fill="#ffffff" opacity="1.00" d=" M 349.05 399.05 C 353.31 394.33 359.95 393.31 365.97 393.07 C 376.70 392.75 387.53 391.99 398.18 393.68 C 400.37 393.75 401.42 395.84 402.58 397.38 C 405.00 400.95 407.59 404.40 410.17 407.87 C 400.51 437.68 390.81 467.49 381.15 497.31 C 377.49 493.44 374.60 488.50 374.37 483.07 C 374.12 479.38 375.27 475.84 375.92 472.26 C 367.23 468.99 358.04 463.47 355.46 453.92 C 354.34 446.77 353.63 438.88 357.37 432.35 C 351.14 429.43 345.73 423.97 344.77 416.93 C 344.17 410.78 344.28 403.63 349.05 399.05 Z" />
<path fill="#ffffff" opacity="1.00" d=" M 597.19 399.15 C 599.97 398.07 603.08 398.32 606.02 398.03 C 619.11 397.58 632.84 397.68 645.01 403.13 C 650.60 405.50 655.07 410.75 655.11 417.02 C 656.38 427.49 649.25 438.45 638.64 440.32 C 640.24 447.02 642.84 454.00 640.84 460.92 C 639.13 465.97 635.37 470.17 631.01 473.13 C 626.73 476.05 621.35 475.85 616.40 476.00 C 618.24 481.30 619.15 486.95 618.46 492.56 C 609.08 464.08 599.75 435.58 590.38 407.09 C 592.75 404.52 594.69 401.59 597.19 399.15 Z" />
<path fill="#ffffff" opacity="1.00" d=" M 475.74 433.55 C 483.87 427.66 491.99 421.74 500.15 415.89 C 508.28 421.67 516.32 427.56 524.42 433.37 C 508.52 437.41 491.66 437.56 475.74 433.55 Z" />
<path fill="#ffffff" opacity="1.00" d=" M 384.22 499.78 C 409.29 481.64 434.35 463.49 459.42 445.35 C 464.55 447.51 469.96 448.91 475.19 450.72 C 482.47 462.31 486.04 476.24 485.14 489.91 C 484.82 494.71 484.33 499.73 481.95 504.02 C 478.69 508.49 473.81 512.50 467.99 512.46 C 462.41 512.92 457.54 509.81 452.71 507.53 C 446.34 513.07 437.55 516.99 429.09 514.18 C 421.60 511.18 417.29 503.64 413.68 496.86 C 409.65 499.39 405.51 501.87 400.91 503.22 C 395.15 504.22 388.94 503.48 384.22 499.78 Z" />
<path fill="#ffffff" opacity="1.00" d=" M 527.01 449.95 C 531.83 448.67 536.58 447.13 541.32 445.58 C 566.23 463.56 591.14 481.53 616.04 499.51 C 610.37 506.41 600.46 510.21 591.80 507.22 C 587.34 505.81 584.05 502.37 580.63 499.38 C 578.10 506.11 573.58 512.76 566.58 515.35 C 561.68 516.95 556.01 517.23 551.34 514.77 C 547.11 512.76 544.19 508.96 541.44 505.31 C 536.52 509.21 530.67 513.20 524.06 512.28 C 516.50 511.17 511.80 503.87 510.01 497.01 C 506.41 481.85 511.23 465.75 520.35 453.45 C 521.81 451.15 524.59 450.66 527.01 449.95 Z" />
<path fill="#ffffff" opacity="1.00" d=" M 484.28 451.00 C 492.41 450.99 500.54 450.91 508.65 451.55 C 504.36 459.56 499.95 467.52 495.18 475.26 C 491.43 467.23 487.72 459.17 484.28 451.00 Z" />
</g>
<g id="#fbb425ff">
<path fill="#fbb425" opacity="1.00" d=" M 470.83 133.44 C 477.55 124.58 487.22 115.92 499.06 116.40 C 511.96 116.35 522.55 125.33 530.69 134.44 C 538.79 135.35 547.47 134.10 554.92 138.12 C 562.21 141.19 567.67 147.89 569.58 155.52 C 570.07 156.95 570.07 159.04 572.10 159.00 C 580.24 160.97 588.34 164.62 593.84 171.16 C 599.60 177.14 602.10 185.27 604.10 193.13 C 613.29 191.33 623.46 190.38 632.05 194.89 C 640.15 198.89 645.91 206.42 649.24 214.66 C 656.13 214.97 663.52 216.25 668.60 221.35 C 675.83 227.46 678.91 236.68 681.56 245.44 C 688.83 247.65 696.24 250.82 701.14 256.89 C 707.54 264.62 708.94 275.41 706.89 285.00 C 705.23 292.54 701.54 299.40 697.98 306.18 C 701.25 313.94 703.31 322.70 700.95 331.01 C 699.07 339.06 693.42 345.36 687.61 350.90 C 687.34 359.87 687.78 369.33 683.62 377.58 C 680.15 385.72 672.99 391.30 665.93 396.21 C 669.60 403.96 673.24 412.23 672.53 421.02 C 672.65 431.16 665.82 439.83 657.61 445.07 C 657.68 451.88 657.71 458.82 655.33 465.31 C 652.26 475.29 643.79 483.19 633.92 486.28 C 632.39 496.75 630.06 508.30 621.56 515.49 C 615.02 521.47 605.63 523.26 597.05 522.15 C 592.58 521.67 588.27 520.38 583.92 519.32 C 578.23 524.62 572.04 530.29 563.93 531.18 C 554.61 532.86 545.97 528.17 537.96 524.19 C 532.11 526.03 526.24 528.66 519.94 527.95 C 509.89 527.69 502.68 519.46 493.37 516.84 C 488.41 523.05 481.00 527.13 473.02 527.56 C 466.22 528.36 459.59 526.52 452.97 525.41 C 450.17 526.75 447.70 528.69 444.85 529.91 C 437.70 533.14 429.17 532.13 422.37 528.52 C 416.36 525.46 411.56 520.63 406.84 515.92 C 396.00 517.58 383.63 517.66 374.73 510.27 C 365.28 502.82 361.85 490.60 360.26 479.20 C 353.07 475.73 346.10 470.94 342.22 463.75 C 337.76 455.53 337.92 445.71 340.17 436.85 C 336.63 434.06 333.05 430.98 331.37 426.66 C 326.33 414.77 328.02 401.40 329.38 388.92 C 322.88 384.04 315.80 379.07 312.48 371.34 C 309.30 364.67 309.39 356.95 311.41 349.96 C 302.99 342.71 295.26 332.71 295.95 321.00 C 295.50 314.04 297.78 307.37 300.62 301.14 C 296.35 296.56 292.73 291.20 291.37 285.01 C 289.09 275.09 291.42 263.97 298.33 256.35 C 303.62 250.47 310.84 246.73 318.27 244.29 C 319.33 243.80 320.95 243.61 321.15 242.17 C 323.35 234.11 326.18 225.45 333.16 220.23 C 338.98 215.32 346.76 213.66 354.22 214.02 C 357.66 206.15 363.73 199.14 371.81 195.86 C 379.55 192.79 388.08 192.60 396.26 193.49 C 396.96 183.49 399.07 172.82 406.42 165.46 C 412.44 158.75 421.25 155.81 429.77 153.86 C 432.69 149.83 435.15 145.38 439.02 142.12 C 443.97 137.48 450.39 134.52 457.08 133.49 C 461.65 133.00 466.24 133.56 470.83 133.44 M 483.02 139.99 C 480.28 143.61 479.17 148.09 477.08 152.06 C 469.36 148.33 459.78 145.25 451.73 149.82 C 444.00 153.28 441.33 162.34 441.28 170.18 C 436.33 170.00 431.23 169.15 426.38 170.53 C 420.33 172.73 414.83 178.26 414.83 185.04 C 413.85 193.43 418.61 201.08 424.19 206.89 C 433.28 216.01 444.82 222.59 457.02 226.55 C 461.52 226.06 465.76 224.18 470.15 223.12 C 467.91 230.03 465.65 236.94 463.40 243.86 C 435.37 255.12 413.12 279.79 405.03 308.92 C 401.16 320.90 401.16 333.62 401.51 346.06 C 402.91 361.45 407.94 376.52 416.09 389.65 C 414.12 395.72 412.15 401.80 410.17 407.87 C 407.59 404.40 405.00 400.95 402.58 397.38 C 401.42 395.84 400.37 393.75 398.18 393.68 C 387.53 391.99 376.70 392.75 365.97 393.07 C 359.95 393.31 353.31 394.33 349.05 399.05 C 344.28 403.63 344.17 410.78 344.77 416.93 C 345.73 423.97 351.14 429.43 357.37 432.35 C 353.63 438.88 354.34 446.77 355.46 453.92 C 358.04 463.47 367.23 468.99 375.92 472.26 C 375.27 475.84 374.12 479.38 374.37 483.07 C 374.60 488.50 377.49 493.44 381.15 497.31 C 380.47 499.45 379.71 501.56 378.90 503.66 C 380.66 502.35 382.44 501.06 384.22 499.78 C 388.94 503.48 395.15 504.22 400.91 503.22 C 405.51 501.87 409.65 499.39 413.68 496.86 C 417.29 503.64 421.60 511.18 429.09 514.18 C 437.55 516.99 446.34 513.07 452.71 507.53 C 457.54 509.81 462.41 512.92 467.99 512.46 C 473.81 512.50 478.69 508.49 481.95 504.02 C 484.33 499.73 484.82 494.71 485.14 489.91 C 486.04 476.24 482.47 462.31 475.19 450.72 C 469.96 448.91 464.55 447.51 459.42 445.35 C 464.85 441.40 470.30 437.48 475.74 433.55 C 491.66 437.56 508.52 437.41 524.42 433.37 C 530.05 437.45 535.69 441.50 541.32 445.58 C 536.58 447.13 531.83 448.67 527.01 449.95 C 524.59 450.66 521.81 451.15 520.35 453.45 C 511.23 465.75 506.41 481.85 510.01 497.01 C 511.80 503.87 516.50 511.17 524.06 512.28 C 530.67 513.20 536.52 509.21 541.44 505.31 C 544.19 508.96 547.11 512.76 551.34 514.77 C 556.01 517.23 561.68 516.95 566.58 515.35 C 573.58 512.76 578.10 506.11 580.63 499.38 C 584.05 502.37 587.34 505.81 591.80 507.22 C 600.46 510.21 610.37 506.41 616.04 499.51 C 618.02 500.97 620.03 502.39 622.08 503.76 C 620.94 500.00 619.66 496.29 618.46 492.56 C 619.15 486.95 618.24 481.30 616.40 476.00 C 621.35 475.85 626.73 476.05 631.01 473.13 C 635.37 470.17 639.13 465.97 640.84 460.92 C 642.84 454.00 640.24 447.02 638.64 440.32 C 649.25 438.45 656.38 427.49 655.11 417.02 C 655.07 410.75 650.60 405.50 645.01 403.13 C 632.84 397.68 619.11 397.58 606.02 398.03 C 603.08 398.32 599.97 398.07 597.19 399.15 C 594.69 401.59 592.75 404.52 590.38 407.09 C 588.26 400.67 586.16 394.25 584.06 387.83 C 595.07 369.33 599.67 347.30 597.50 325.94 C 595.47 307.70 588.47 290.04 577.30 275.47 C 566.88 261.78 552.76 251.03 536.94 244.32 C 534.80 237.74 532.61 231.19 530.47 224.62 C 535.41 226.09 540.25 227.88 545.09 229.66 C 553.51 226.14 560.76 220.46 567.84 214.81 C 573.81 209.80 579.78 204.37 583.39 197.34 C 585.13 194.31 584.77 190.59 583.65 187.42 C 581.61 181.76 577.96 176.42 572.57 173.49 C 568.26 170.92 563.10 170.84 558.25 170.41 C 557.09 164.67 555.90 158.63 552.05 154.00 C 548.72 149.20 542.65 147.25 537.03 147.28 C 531.78 147.20 527.05 149.76 522.34 151.74 C 519.85 141.43 511.12 132.13 500.03 131.88 L 499.88 131.41 L 499.73 131.91 C 493.39 132.15 486.85 134.77 483.02 139.99 M 598.26 220.16 C 590.06 231.61 587.64 245.93 586.16 259.63 C 592.63 269.07 598.62 278.83 604.70 288.53 C 617.20 289.18 629.72 289.13 642.23 289.58 C 641.17 290.74 640.02 291.81 638.76 292.74 C 630.68 298.82 622.77 305.11 614.78 311.31 C 614.29 323.88 613.67 336.45 612.29 348.96 C 618.58 357.46 626.44 364.66 634.37 371.60 C 640.14 376.77 648.17 380.17 655.97 378.60 C 662.51 377.10 666.35 370.95 669.48 365.54 C 673.01 357.93 670.39 349.34 668.10 341.77 C 671.93 340.80 676.03 339.79 678.91 336.88 C 683.73 332.67 686.06 326.26 686.52 320.01 C 686.51 313.38 682.92 307.57 679.71 302.02 C 683.62 300.10 687.72 298.04 690.37 294.43 C 694.02 289.83 694.64 283.72 694.36 278.05 C 694.40 271.00 689.13 265.09 683.28 261.80 C 677.91 258.69 671.47 259.52 665.58 260.07 C 668.06 249.86 665.83 236.57 655.82 231.14 C 650.70 227.78 644.39 227.99 638.53 227.87 C 637.24 218.53 629.46 210.57 620.05 209.46 C 611.45 208.33 603.08 213.26 598.26 220.16 M 373.83 213.79 C 368.57 217.42 366.17 223.59 364.17 229.39 C 356.12 228.42 346.83 228.64 340.49 234.41 C 334.80 239.80 333.82 248.04 333.74 255.47 C 327.81 255.49 321.47 255.04 316.14 258.15 C 308.10 262.42 305.08 272.34 305.58 280.91 C 306.57 289.02 312.99 294.74 318.71 299.89 C 316.35 303.12 313.58 306.08 311.82 309.71 C 307.74 317.00 309.85 326.17 314.10 332.90 C 317.31 338.23 322.91 341.60 328.84 343.09 C 325.50 347.60 323.00 353.30 324.36 359.00 C 325.64 366.13 332.03 371.67 339.17 372.39 C 348.47 373.57 357.55 370.08 365.44 365.46 C 372.77 361.14 380.09 356.33 385.36 349.53 C 387.33 347.46 386.38 344.48 386.46 341.95 C 385.79 331.98 385.81 321.85 388.36 312.12 C 378.58 302.95 368.70 293.89 359.03 284.61 C 371.92 284.37 384.80 285.35 397.69 285.43 C 402.26 276.98 407.46 268.74 414.35 261.99 C 413.97 254.42 413.13 246.82 411.42 239.43 C 409.27 230.79 406.08 221.83 399.31 215.70 C 392.57 209.50 381.34 208.41 373.83 213.79 M 418.84 225.74 C 420.13 234.77 421.79 243.74 423.65 252.67 C 430.11 247.80 436.31 242.56 442.24 237.05 C 434.60 232.95 426.78 229.20 418.84 225.74 M 556.80 236.66 C 563.13 241.80 569.41 247.01 575.88 251.97 C 578.09 243.43 579.99 234.82 581.62 226.15 C 573.20 229.29 564.94 232.87 556.80 236.66 M 370.88 378.21 C 379.69 379.93 388.44 382.01 397.32 383.30 C 395.15 375.54 392.69 367.85 389.98 360.26 C 383.35 365.95 376.96 371.95 370.88 378.21 M 609.02 363.19 C 606.30 370.98 603.68 378.81 601.17 386.68 C 609.87 385.98 618.54 384.79 627.16 383.45 C 621.50 376.37 615.21 369.81 609.02 363.19 M 484.28 451.00 C 487.72 459.17 491.43 467.23 495.18 475.26 C 499.95 467.52 504.36 459.56 508.65 451.55 C 500.54 450.91 492.41 450.99 484.28 451.00 Z" />
</g>
<g id="#263473ff">
<path fill="#263473" opacity="1.00" d=" M 499.73 131.91 L 499.88 131.41 L 500.03 131.88 C 510.15 162.80 520.30 193.71 530.47 224.62 C 532.61 231.19 534.80 237.74 536.94 244.32 C 552.63 292.16 568.35 339.99 584.06 387.83 C 586.16 394.25 588.26 400.67 590.38 407.09 C 599.75 435.58 609.08 464.08 618.46 492.56 C 619.66 496.29 620.94 500.00 622.08 503.76 C 620.03 502.39 618.02 500.97 616.04 499.51 C 591.14 481.53 566.23 463.56 541.32 445.58 C 535.69 441.50 530.05 437.45 524.42 433.37 C 516.32 427.56 508.28 421.67 500.15 415.89 C 491.99 421.74 483.87 427.66 475.74 433.55 C 470.30 437.48 464.85 441.40 459.42 445.35 C 434.35 463.49 409.29 481.64 384.22 499.78 C 382.44 501.06 380.66 502.35 378.90 503.66 C 379.71 501.56 380.47 499.45 381.15 497.31 C 390.81 467.49 400.51 437.68 410.17 407.87 C 412.15 401.80 414.12 395.72 416.09 389.65 C 431.86 341.05 447.66 292.46 463.40 243.86 C 465.65 236.94 467.91 230.03 470.15 223.12 C 479.99 192.71 489.93 162.33 499.73 131.91 Z" />
</g>
</svg>
