<?xml version="1.0" encoding="UTF-8" standalone="no"?>
<!-- Creator: CorelDRAW -->

<svg
   xmlns:dc="http://purl.org/dc/elements/1.1/"
   xmlns:cc="http://creativecommons.org/ns#"
   xmlns:rdf="http://www.w3.org/1999/02/22-rdf-syntax-ns#"
   xmlns:svg="http://www.w3.org/2000/svg"
   xmlns="http://www.w3.org/2000/svg"
   xmlns:sodipodi="http://sodipodi.sourceforge.net/DTD/sodipodi-0.dtd"
   xmlns:inkscape="http://www.inkscape.org/namespaces/inkscape"
   xml:space="preserve"
   width="750"
   height="500"
   style="shape-rendering:geometricPrecision; text-rendering:geometricPrecision; image-rendering:optimizeQuality; fill-rule:evenodd; clip-rule:evenodd"
   viewBox="0 0 420 297"
   id="svg2244"
   sodipodi:version="0.32"
   inkscape:version="0.47pre1"
   sodipodi:docname="BanderaSevilla1.svg"
   inkscape:output_extension="org.inkscape.output.svg.inkscape"
   version="1.0"><metadata
   id="metadata2290"><rdf:RDF><cc:Work
       rdf:about=""><dc:format>image/svg+xml</dc:format><dc:type
         rdf:resource="http://purl.org/dc/dcmitype/StillImage" /></cc:Work></rdf:RDF></metadata><sodipodi:namedview
   inkscape:window-height="712"
   inkscape:window-width="1024"
   inkscape:pageshadow="2"
   inkscape:pageopacity="0.0"
   guidetolerance="10.0"
   gridtolerance="10.0"
   objecttolerance="10.0"
   borderopacity="1.0"
   bordercolor="#666666"
   pagecolor="#ffffff"
   id="base"
   inkscape:zoom="0.71222028"
   inkscape:cx="517.51135"
   inkscape:cy="273.30027"
   inkscape:window-x="452"
   inkscape:window-y="143"
   inkscape:current-layer="svg2244"
   width="750px"
   height="500px"
   showgrid="false"
   inkscape:window-maximized="0" />
 <defs
   id="defs2246"><style
     type="text/css"
     id="style2267">
   
    @font-face { font-family:&quot;Times New Roman MT Extra Bold&quot;;src:url(&quot;#FontID0&quot;) format(svg)}
    .str0 {stroke:#FFB95C;stroke-width:0.0762}
    .str1 {stroke-width:1.8506}
    .fil0 {fill:#B90609}
    .fil1 {fill:#FFE575}
    .fnt0 {font-weight:800;font-size:41.1759;font-family:'Times New Roman MT Extra Bold'}
   
  </style></defs>
 <rect
   id="_161209056"
   class="fil0"
   x="-12.75"
   y="3.9968029e-15"
   width="445.5"
   height="297"
   style="fill:#b81626;fill-opacity:1" /><g
   id="g2273"
   transform="matrix(1.7948671,0,0,1.9376363,-174.42648,-110.97563)"
   style="fill:#fcdd09">
    <path
   id="_161208480"
   class="fil1 str0"
   d="m 206.849,135.531 c -0.7269,-2.7067 13.1339,-0.9959 14.2902,-3.2232 0.575,-1.1951 0.0851,-2.6876 -0.545,-2.798 0.7432,2.7843 -12.8593,0.2532 -13.721,2.8567 -0.2099,0.5623 -0.5534,2.1787 -0.0242,3.1645 z"
   style="fill:#fcdd09;stroke:#ffb95c;stroke-width:0.07306349" />
    <path
   id="_161207656"
   class="fil1 str0"
   d="m 207.499,138.496 c -0.7268,-2.7067 12.887,-0.7033 14.0433,-2.9306 0.575,-1.1951 0.6246,-2.7333 0.1013,-3.0924 -1.3468,2.767 -13.3856,0.8254 -14.4969,3.1301 -0.2099,0.5623 -0.1226,1.9824 0.3523,2.8929 z"
   style="fill:#fcdd09;stroke:#ffb95c;stroke-width:0.07306349" />
    <path
   id="_161206952"
   class="fil1 str0"
   d="m 217.752,137.992 c -1.2017,0.1806 -4.0749,-0.0221 -4.2024,0.0829 0.1198,0.201 1.044,0.8837 1.9579,3.8004 0.9824,7.7099 1.4587,11.2673 1.144,15.2235 -0.4316,5.4255 -3.273,6.8563 -6.4954,5.6511 -4.8314,-4.4572 -3.9152,-14.8456 0.8772,-24.5279 -0.841,-0.0687 -2.3385,0.3007 -2.4379,0.2684 -2.0784,2.3987 -9.9875,18.2674 -1.6768,26.6885 5.0107,3.481 11.124,1.5083 13.0418,-4.0584 1.9807,-7.5327 -1.0401,-20.2083 -2.2084,-23.1285 l 0,0 z"
   style="fill:#fcdd09;stroke:#ffb95c;stroke-width:0.07306349" />
    <path
   id="_161206360"
   class="fil1 str0"
   d="m 206.776,166.157 c 3.7696,7.0405 14.9815,5.8462 18.4806,-2.8078 2.7476,-8.0896 0.0424,-19.6578 -3.0119,-26.8997 0.0747,0.3214 -2.1154,0.9888 -3.3043,1.0872 2.288,9.6844 3.3025,16.7293 2.6605,21.749 -1.594,8.5168 -9.8388,10.4113 -14.8249,6.8713 z"
   style="fill:#fcdd09;stroke:#ffb95c;stroke-width:0.07306349" />
    <path
   id="_161167928"
   class="fil1 str0"
   d="m 214.373,161.579 c -4.6225,-3.299 -5.6849,-11.4349 -0.6205,-20.5452 -0.131,-0.8334 -0.4236,-2.2093 -1.4128,-2.8859 -2.8477,5.1738 -4.0663,10.4054 -4.5549,14.1044 -0.1533,5.432 1.9864,12.2792 6.5882,9.3267 z"
   style="fill:#fcdd09;stroke:#ffb95c;stroke-width:0.07306349" />
    <path
   id="_161167360"
   class="fil1 str0"
   d="m 210.61,129.835 c 1.2016,-0.1806 4.0748,0.022 4.2023,-0.0829 -0.1197,-0.201 -1.044,-0.8838 -1.9579,-3.8004 -0.9824,-7.7099 -1.4587,-11.2674 -1.1439,-15.2235 0.4316,-5.4256 3.2729,-6.8563 6.4953,-5.6511 4.8314,4.4572 3.9153,14.8456 -0.8771,24.5279 0.8409,0.0687 2.3384,-0.3007 2.4379,-0.2684 2.0784,-2.3987 9.9874,-18.2674 1.6767,-26.6885 -5.0107,-3.481 -11.1239,-1.5084 -13.0418,4.0583 -1.9807,7.5328 1.0402,20.2084 2.2085,23.1286 z"
   style="fill:#fcdd09;stroke:#ffb95c;stroke-width:0.07306349" />
    <path
   id="_161166800"
   class="fil1 str0"
   d="m 221.586,101.67 c -3.7696,-7.0405 -14.9815,-5.8463 -18.4805,2.8078 -2.7477,8.0895 -0.0424,19.6578 3.0118,26.8997 -0.0746,-0.3214 2.1155,-0.9888 3.3044,-1.0872 -2.2881,-9.6844 -3.3026,-16.7294 -2.6606,-21.749 1.594,-8.5168 9.8389,-10.4113 14.8249,-6.8713 z"
   style="fill:#fcdd09;stroke:#ffb95c;stroke-width:0.07306349" />
    <path
   id="_160353840"
   class="fil1 str0"
   d="m 213.99,106.248 c 4.6225,3.2991 5.6849,11.4349 0.6205,20.5453 0.131,0.8334 0.4236,2.2092 1.4129,2.8858 2.8477,-5.1737 4.0662,-10.4054 4.5548,-14.1043 0.1533,-5.4321 -1.9864,-12.2793 -6.5882,-9.3268 z"
   style="fill:#fcdd09;stroke:#ffb95c;stroke-width:0.07306349" />
   </g><g
   transform="scale(0.92339837,1.0829562)"
   style="font-size:87.39360046px;font-style:normal;font-variant:normal;font-weight:normal;font-stretch:normal;text-indent:0;text-align:start;text-decoration:none;line-height:normal;letter-spacing:normal;word-spacing:normal;text-transform:none;direction:ltr;block-progression:tb;writing-mode:lr-tb;text-anchor:start;color:#000000;fill:#fcdd09;fill-opacity:1;fill-rule:nonzero;stroke:#ffb95c;stroke-width:0.15507329;stroke-linecap:butt;stroke-linejoin:miter;stroke-miterlimit:4;stroke-dashoffset:0;stroke-opacity:1;marker:none;visibility:visible;display:inline;overflow:visible;enable-background:accumulate;font-family:Times New Roman;-inkscape-font-specification:Times New Roman"
   id="_161742488"><path
     d="m 261.67289,166.05669 0,-1.57889 2.17631,0 c 2.44656,0 4.18191,-0.78233 5.20606,-2.347 0.62586,-0.93879 0.93879,-3.04397 0.9388,-6.31555 l 0,-37.38125 c -10e-6,-3.6129 -0.39828,-5.87455 -1.19483,-6.78495 -1.1095,-1.25168 -2.75951,-1.87754 -4.95003,-1.8776 l -2.17631,0 0,-1.57889 23.55531,0 c 8.64829,6e-5 15.22699,0.98153 19.7361,2.94442 4.50903,1.96299 8.13621,5.23456 10.88153,9.81471 2.74522,4.58024 4.11785,9.87164 4.11791,15.87423 -6e-5,8.05093 -2.44662,14.77897 -7.33969,20.18416 -5.4906,6.03108 -13.85443,9.04661 -25.09153,9.04661 z m 16.51432,-4.18192 c 3.61293,0.79656 6.64269,1.19483 9.08928,1.19483 6.6,0 12.07632,-2.31854 16.42897,-6.95564 4.35256,-4.63708 6.52887,-10.92418 6.52892,-18.86132 -5e-5,-7.99397 -2.17636,-14.29529 -6.52892,-18.90398 -4.35265,-4.6086 -9.94276,-6.91292 -16.77035,-6.91297 -2.56039,5e-5 -5.47635,0.41255 -8.7479,1.2375 z"
     style="font-size:87.39360046px;font-style:normal;font-variant:normal;font-weight:normal;font-stretch:normal;text-indent:0;text-align:start;text-decoration:none;line-height:normal;letter-spacing:normal;word-spacing:normal;text-transform:none;direction:ltr;block-progression:tb;writing-mode:lr-tb;text-anchor:start;color:#000000;fill:#fcdd09;fill-opacity:1;fill-rule:nonzero;stroke:#ffb95c;stroke-width:0.15507329;stroke-linecap:butt;stroke-linejoin:miter;stroke-miterlimit:4;stroke-dashoffset:0;stroke-opacity:1;marker:none;visibility:visible;display:inline;overflow:visible;enable-background:accumulate;font-family:Times New Roman;-inkscape-font-specification:Times New Roman"
     id="path2931" /><path
     d="m 355.2967,106.86971 c 7.51035,6e-5 14.01793,2.85201 19.52274,8.55587 5.50472,5.70396 8.2571,12.82317 8.25716,21.35766 -6e-5,8.79059 -2.77378,16.08761 -8.32116,21.89108 -5.5475,5.80348 -12.26132,8.70522 -20.1415,8.70522 -7.96558,0 -14.65807,-2.83062 -20.07748,-8.49186 -5.41944,-5.66123 -8.12915,-12.98669 -8.12914,-21.97642 -1e-5,-9.1888 3.12932,-16.68496 9.38798,-22.48849 5.43363,-5.03531 11.9341,-7.553 19.5014,-7.55306 z m -0.81078,3.11511 c -5.17764,5e-5 -9.33111,1.92032 -12.46041,5.7608 -3.89745,4.77939 -5.84617,11.7777 -5.84616,20.99495 -10e-6,9.4449 2.01983,16.71347 6.05952,21.80573 3.10086,3.86899 7.19743,5.80348 12.28973,5.80348 5.43361,0 9.92135,-2.1194 13.46322,-6.35823 3.54178,-4.2388 5.3127,-10.92418 5.31275,-20.05614 -5e-5,-9.90002 -1.94877,-17.28238 -5.84616,-22.14711 -3.12937,-3.86894 -7.45353,-5.80343 -12.97249,-5.80348 z"
     style="font-size:87.39360046px;font-style:normal;font-variant:normal;font-weight:normal;font-stretch:normal;text-indent:0;text-align:start;text-decoration:none;line-height:normal;letter-spacing:normal;word-spacing:normal;text-transform:none;direction:ltr;block-progression:tb;writing-mode:lr-tb;text-anchor:start;color:#000000;fill:#fcdd09;fill-opacity:1;fill-rule:nonzero;stroke:#ffb95c;stroke-width:0.15507329;stroke-linecap:butt;stroke-linejoin:miter;stroke-miterlimit:4;stroke-dashoffset:0;stroke-opacity:1;marker:none;visibility:visible;display:inline;overflow:visible;enable-background:accumulate;font-family:Times New Roman;-inkscape-font-specification:Times New Roman"
     id="path2933" /></g><g
   transform="scale(0.92339837,1.0829562)"
   style="font-size:87.39360046px;font-weight:normal;fill:#fcdd09;stroke:#ffb95c;stroke-width:0.15507329;font-family:Times New Roman;-inkscape-font-specification:Times New Roman"
   id="_161741552"><path
     d="m 71.765006,108.19256 15.703538,0 35.375636,43.3981 0,-33.37002 c -5e-5,-3.556 -0.39833,-5.77498 -1.19484,-6.65694 -1.05264,-1.19477 -2.71687,-1.79219 -4.9927,-1.79225 l -2.00561,0 0,-1.57889 20.14149,0 0,1.57889 -2.04829,0 c -2.44662,6e-5 -4.18197,0.73972 -5.20606,2.21898 -0.62592,0.9104 -0.93885,2.98714 -0.9388,6.23021 l 0,48.77484 -1.53622,0 -38.149351,-46.59854 0,35.63167 c -1.4e-5,3.55606 0.38404,5.77504 1.152162,6.65694 1.081024,1.19483 2.745256,1.79225 4.992701,1.79225 l 2.048287,0 0,1.57889 -20.141494,0 0,-1.57889 2.005615,0 c 2.475008,0 4.224585,-0.73966 5.248737,-2.21898 0.625855,-0.91035 0.938788,-2.98708 0.938798,-6.23021 l 0,-40.24031 c -1.678466,-1.96289 -2.951532,-3.2573 -3.819203,-3.88321 -0.867682,-0.62582 -2.140749,-1.20901 -3.819202,-1.74958 -0.825007,-0.25598 -2.076737,-0.384 -3.755194,-0.38406 z"
     style="font-size:87.39360046px;font-weight:normal;fill:#fcdd09;stroke:#ffb95c;stroke-width:0.15507329;font-family:Times New Roman;-inkscape-font-specification:Times New Roman"
     id="path2936" /><path
     d="m 168.03452,106.86971 c 7.51035,6e-5 14.01792,2.85201 19.52274,8.55587 5.50472,5.70396 8.2571,12.82317 8.25716,21.35766 -6e-5,8.79059 -2.77378,16.08761 -8.32117,21.89108 -5.54749,5.80348 -12.26131,8.70522 -20.14149,8.70522 -7.96559,0 -14.65808,-2.83062 -20.07749,-8.49186 -5.41943,-5.66123 -8.12914,-12.98669 -8.12914,-21.97642 0,-9.1888 3.12932,-16.68496 9.38799,-22.48849 5.43363,-5.03531 11.93409,-7.553 19.5014,-7.55306 z m -0.81078,3.11511 c -5.17764,5e-5 -9.33111,1.92032 -12.46042,5.7608 -3.89745,4.77939 -5.84616,11.7777 -5.84615,20.99495 -1e-5,9.4449 2.01982,16.71347 6.05952,21.80573 3.10086,3.86899 7.19743,5.80348 12.28972,5.80348 5.43362,0 9.92135,-2.1194 13.46323,-6.35823 3.54178,-4.2388 5.31269,-10.92418 5.31274,-20.05614 -5e-5,-9.90002 -1.94876,-17.28238 -5.84615,-22.14711 -3.12937,-3.86894 -7.45353,-5.80343 -12.97249,-5.80348 z"
     style="font-size:87.39360046px;font-weight:normal;fill:#fcdd09;stroke:#ffb95c;stroke-width:0.15507329;font-family:Times New Roman;-inkscape-font-specification:Times New Roman"
     id="path2938" /></g>
</svg>