<svg xmlns="http://www.w3.org/2000/svg" width="1200" height="600" style="fill-rule: evenodd;" viewBox="0 0 10240 5120">
<defs>
 <clipPath id="border">
  <rect width="60" height="30"/>
 </clipPath>
 <style type="text/css">
  <![CDATA[
   .str0 {stroke:#523300;stroke-width:23}
   .fil6 {fill:none}
   .fil0 {fill:#FFFFFF}
   .fil7 {fill:#CF142B}
   .fil1 {fill:#FFCC00}
   .fil4 {fill:#000D85}
   .fil3 {fill:#5E3800}
   .fil5 {fill:#915E00}
   .fil2 {fill:#E6E47E}
  ]]>
 </style>
</defs>
 <rect class="fil0" width="100%" height="100%"/>
 <path class="fil1 str0" d="M7311 3663c37,-476 70,-914 91,-1266 -37,-30 -74,-60 -112,-90 -227,-69 -332,-237 -314,-504 80,-62 196,93 293,140 51,38 101,103 133,154 55,-96 46,-191 42,-287 -63,-164 67,-205 126,-126 68,266 165,213 180,168 -23,-163 2,-221 114,-175 59,95 35,322 112,364 62,-177 217,-240 398,-273 -10,242 -155,337 -273,462 -11,2 -23,4 -35,7 24,87 -30,95 -70,118 0,47 0,94 0,140 82,74 135,154 140,245 54,72 3,121 -63,168 -107,80 -214,-2 -321,-77 2,310 4,620 7,930 -149,-33 -298,-66 -448,-98z"/>
 <path class="fil2" d="M8076 2763c-43,33 -106,-148 -56,-167 58,-16 104,127 56,167z"/>
 <path class="fil3" d="M8068 2750c-51,-41 -65,-88 -33,-139 40,46 55,93 33,139z"/>
 <path class="fil2" d="M7945 2783c-43,33 -134,-150 -84,-170 55,-16 129,130 84,170z"/>
 <path class="fil3" d="M7939 2763c-51,-24 -79,-80 -67,-134 55,33 83,90 67,134z"/>
 <path class="fil3" d="M7713 3631c-52,16 -92,-91 -63,-129 40,-25 114,119 63,129z"/>
 <path class="fil3" d="M7591 3422c40,-10 6,-148 -28,-147 -27,14 -10,145 28,147z"/>
 <path class="fil3" d="M7581 3547c-38,36 -186,-85 -165,-129 24,-24 193,74 165,129z"/>
 <path class="fil3" d="M7490 3663c-79,-3 -112,-50 -98,-151 15,-14 126,138 98,151z"/>
 <path class="fil3" d="M7514 3320c15,-51 -19,-67 -77,-66 1,33 20,59 77,66z"/>
 <path class="fil3" d="M7595 3152c-42,2 -46,-156 -11,-160 30,0 29,168 11,160z"/>
 <path class="fil3" d="M7504 3142c-63,-2 -90,-47 -81,-136 78,23 96,71 81,136z"/>
 <path class="fil3" d="M7612 2953c-32,5 -96,-85 -70,-108 16,-13 85,98 70,108z"/>
 <path class="fil3" d="M7501 2956c-20,21 -110,-99 -81,-122 37,-21 105,110 81,122z"/>
 <path class="fil0 str0" d="M8073 2298c-30,6 -49,3 -80,-35 31,-32 47,-26 78,-21l2 56z"/>
 <path class="fil0 str0" d="M7330 2267c59,-53 117,-63 175,19 -58,40 -116,34 -175,-19z"/>
 <path class="fil4" d="M7390 2297c-6,-29 2,-37 13,-62 19,-2 36,0 55,15 4,34 4,35 -4,52 -22,3 -42,1 -64,-5z"/>
 <path class="fil4" d="M8024 2250c-5,15 -5,18 0,34 14,9 25,6 39,7 2,-10 2,-26 1,-40 -13,-4 -27,-6 -40,-1z"/>
 <path class="fil5" d="M7477 2468c-68,211 13,294 194,290 -13,20 -26,40 -39,60 48,-15 96,-31 144,-15 57,-79 80,-155 90,-230 5,-70 3,-140 -5,-209 5,-30 -10,-60 -45,-90 1,-134 -24,-157 -20,-270 -21,-40 -55,-80 -100,-120 -80,139 -128,205 -149,210 -58,-5 -27,-278 -85,-414 -12,-20 -46,24 -17,130 19,116 3,225 -42,292 -10,-12 -4,-3 -37,-47 -46,70 -28,114 146,104 71,36 135,78 159,155 -1,73 40,136 125,189 9,92 -36,115 -75,145 -31,38 46,77 45,100 -140,-17 -249,-134 -289,-280z"/>
 <path class="fil6 str0" d="M7999 2355c-35,20 -64,29 -87,24"/>
 <path class="fil6 str0" d="M7392 2387c32,-8 73,-13 105,-41"/>
 <path class="fil6 str0" d="M7535 2253c-14,-25 -35,-43 -64,-53"/>
 <path class="fil5" d="M8082 2187c-115,-117 -52,-189 61,-249 -21,33 -34,67 -35,100 18,-19 42,-34 70,-48 -26,37 -38,73 -43,110 14,-5 29,-9 43,-14 -16,49 -58,73 -96,101z"/>
 <path class="fil5" d="M7116 2139c20,37 47,157 178,57 30,-227 -151,-254 -254,-355 -18,-5 -11,27 5,42 66,64 168,135 195,212 -33,-22 -66,-39 -99,-51 23,36 43,73 61,114 -29,1 -58,-4 -86,-19z"/>
 <path class="fil3" d="M7664 3398c-18,-12 -36,-85 0,-122 35,5 27,124 0,122z"/>
 <path class="fil5" d="M7806 1669c20,101 -5,154 -29,213 -17,-3 -30,-9 -24,-27 -11,-111 -8,-189 53,-186z"/>
 <path class="fil6 str0" d="M7995 2495c-22,-30 -44,-55 -66,-75"/>
 <path class="fil6 str0" d="M7716 3275c-18,-55 -13,-110 16,-165"/>
 <path class="fil6 str0" d="M7665 2964c-3,-61 26,-108 70,-149"/>
 <path class="fil5" d="M7368 2923c30,78 180,148 91,245 -17,16 -64,365 -102,501l-43 -22c18,-241 36,-483 54,-724z"/>
 <path class="fil6 str0" d="M7999 2121c-62,8 -125,-37 -188,-135"/>
 <path class="fil2" d="M7672 2619c1,-193 -75,-262 -171,-139 37,55 111,107 171,139z"/>
 <path class="fil7" d="M0 0l10240 0 0 5120 -10240 0 0 -5120zm7680 1422c628,0 1138,510 1138,1138 0,628 -510,1138 -1138,1138 -628,0 -1138,-510 -1138,-1138 0,-628 510,-1138 1138,-1138z"/>
<g transform="scale(85.333)" clip-path="url(#border)">
 <rect fill="#00247D" width="60" height="30"/>
 <path stroke-width="6" stroke="white" d="M0,0 L60,30 M0,30 L60,0"/>
 <path stroke-width="4" stroke="#CF142B" d="M0,0 L60,30 M0,30 L60,0"/>
 <path fill="white" d="M0,0 5,0 35,15 65,0 60,0 30,15 M-5,30 25,15 55,30 60,30 30,15 0,30"/>
 <path stroke-width="10" stroke="white" d="M0,15 H60 M30,0 V30"/>
 <path stroke-width="6" stroke="#CF142B" d="M0,15 H60 M30,0 V30"/>
</g>
</svg>