<?xml version="1.0" encoding="UTF-8" standalone="no"?>
<svg
   xmlns:dc="http://purl.org/dc/elements/1.1/"
   xmlns:cc="http://creativecommons.org/ns#"
   xmlns:rdf="http://www.w3.org/1999/02/22-rdf-syntax-ns#"
   xmlns:svg="http://www.w3.org/2000/svg"
   xmlns="http://www.w3.org/2000/svg"
   xmlns:sodipodi="http://sodipodi.sourceforge.net/DTD/sodipodi-0.dtd"
   xmlns:inkscape="http://www.inkscape.org/namespaces/inkscape"
   version="1.1"
   id="Flag_of_the_Tajik_SSR"
   width="1200"
   height="600"
   viewBox="0 0 1200 600"
   style="overflow: visible;"
   xml:space="preserve"
   inkscape:version="0.48.3.1 r9886"
   sodipodi:docname="Flag_of_Transcaucasian_SFSR.svg"><metadata
   id="metadata31"><rdf:RDF><cc:Work
       rdf:about=""><dc:format>image/svg+xml</dc:format><dc:type
         rdf:resource="http://purl.org/dc/dcmitype/StillImage" /></cc:Work></rdf:RDF></metadata><defs
   id="defs29" /><sodipodi:namedview
   pagecolor="#ffffff"
   bordercolor="#666666"
   borderopacity="1"
   objecttolerance="10"
   gridtolerance="10"
   guidetolerance="10"
   inkscape:pageopacity="0"
   inkscape:pageshadow="2"
   inkscape:window-width="1600"
   inkscape:window-height="848"
   id="namedview27"
   showgrid="false"
   inkscape:zoom="0.43604918"
   inkscape:cx="635.73468"
   inkscape:cy="74.957018"
   inkscape:window-x="-8"
   inkscape:window-y="-8"
   inkscape:window-maximized="1"
   inkscape:current-layer="layer1" />
<path
   style="fill:#de0000"
   d="M1200 0 l0 600 l-1200 0 l0 -600 l1200 0 z"
   id="path3" />











<g
   inkscape:groupmode="layer"
   id="layer1"
   inkscape:label="Taso"
   style="display:inline"><path
     style="fill:none;stroke:#ffd700;stroke-width:9;stroke-linecap:butt;stroke-linejoin:miter;stroke-miterlimit:4;stroke-opacity:1;stroke-dasharray:none"
     d="M 252.16216,358.37838 282.97297,261.48649 390,257.43243 l -92.02703,-64.05405 28.37838,-94.054056 -81.89189,59.999996 -87.56757,-55.13513 36.08108,94.05405 -81.08108,66.08108 103.37838,-1.21621 z"
     id="path3009"
     inkscape:connector-curvature="0"
     sodipodi:nodetypes="ccccccccccc" /><path
     style="fill:#ffd700;fill-opacity:1;stroke:#ffd700;stroke-opacity:1"
     d="m 437.21875,244.46875 c 0,0 -32.08463,60.7817 21.9375,68.40625 0,0 50.4976,8.16243 34.84375,-62.625 l -10.03125,-0.9375 c 0,0 23.38309,54.9889 -23.9375,52.65625 0,0 -46.26692,-2.94812 -13.125,-56.625 z m -329.875,140.6875 -4.71875,7.875 c 16.05323,2.14999 41.1387,15.62506 32.96875,26.375 -8.16995,10.74993 -31.53125,-7.59375 -31.53125,-7.59375 l -3.4375,5.28125 c 26.51651,15.0499 27.6524,32.39751 11.3125,33.6875 -16.339902,1.29 -34.53125,-24.5 -34.53125,-24.5 l -5.03125,7.3125 c 10.46327,12.61325 33.96594,33.10328 52.3125,23.5 18.34655,-9.60327 0.3125,-28.8125 0.3125,-28.8125 6.30663,3.29664 25.92498,3.8853 21.625,-14.03125 -4.29997,-17.91656 -39.28125,-29.09375 -39.28125,-29.09375 z M 243.3125,425.125 c -16.19388,0.46515 -32.58784,7.73649 -33.5,35 0,0 -2.74746,51.07686 65.96875,27.96875 l -0.15625,-10.0625 c 0,0 -52.18293,29.08096 -54.90625,-18.21875 0,0 -1.99673,-46.29567 54.90625,-19.0625 L 275.5,431 c 0,0 -15.99362,-6.34015 -32.1875,-5.875 z m 163.46501,13.48265 8.45661,-6.59329 -4.58663,-6.01996 c 0,0 31.61742,-22.88916 11.0366,-46.58305 -17.05656,-19.63655 -46.00973,2.14998 -46.00973,2.14998 l -4.0133,-5.15996 -8.31328,6.59329 3.86997,5.01663 c 0,0 -28.37982,22.21654 -12.89991,45.4364 15.4799,23.21985 47.72969,-0.85999 47.72969,-0.85999 z m 90.04682,-290.22927 -4.86487,-11.14865 -25.54054,11.35135 c 0,0 -18.44595,-49.459459 -44.18919,-35.47297 0,0 -14.79729,6.28378 -9.93243,27.36486 l 17.22973,39.12162 z"
     id="path3799"
     inkscape:connector-curvature="0"
     sodipodi:nodetypes="cccccccccsccsccscscsccccccscccsccccsccccccccc" /></g><g
   inkscape:groupmode="layer"
   id="layer2"
   inkscape:label="Taso#1"
   style="display:inline"><path
     style="fill:#de0000;fill-opacity:1;stroke:none;overflow:visible"
     d="M 397.125,379.8125 C 387.66421,379.8643 380.0625,387 380.0625,387 l 25.96875,31.84375 c 0,0 20.66218,-15.16675 6.6875,-31.21875 -5.15625,-5.92272 -10.6381,-7.83965 -15.59375,-7.8125 z M 370.34375,394.25 c 0,0 -19.1914,16.57577 -5.46875,32.84375 13.56668,16.08307 31.69291,-0.57 31.69291,-0.57 z m 88.46344,-241.73392 c 0,0 -13.82545,-40.08235 -32.2498,-31.96314 -16.91323,7.45329 5.01663,44.5764 5.01663,44.5764 z"
     id="path3823-0"
     inkscape:connector-curvature="0"
     sodipodi:nodetypes="sccsscscccscc" /></g><g
   style="fill-rule:evenodd"
   id="g3019"
   transform="matrix(0.3541348,0,0,0.3541348,137.58197,167.37425)"><path
     sodipodi:nodetypes="ccccccccc"
     inkscape:connector-curvature="0"
     id="hammer_head"
     d="m 270.92298,88.355159 -33.98504,32.370421 18.12536,18.12534 15.65136,-15.75551 c 30.52185,30.97994 54.24551,55.06533 83.71885,84.97748 8.15951,8.45996 22.36846,-3.04386 13.26894,-12.8119 -31.13941,-30.3468 -52.72211,-52.25081 -85.16466,-84.06684 l 19.23453,-19.348081 z"
     style="fill:#ffd700;fill-opacity:1;fill-rule:evenodd;stroke:none" /><g
     transform="matrix(0.83334944,0,0,0.83334944,89.122595,-182.30111)"
     id="g3852"><path
       sodipodi:nodetypes="cccccccccccc"
       inkscape:connector-curvature="0"
       id="sickle_handle"
       d="m 216.7812,433.75 c 72.96097,67.686 191.19511,-54.3637 40.09375,-142.8125 l 5e-5,0 c 112.44686,124.9296 4.49418,163.2273 -34.59375,124.6875 L 220.3125,414 c -1.5958,1.79152 -3.19491,3.58011 -4.78871,5.37341 -3.02847,-2.85878 -7.73236,-3.69883 -9.18009,1.18909 -5.95051,-0.4117 -9.44226,2.885 -11,9.0625 -11.06856,7.3329 -23.05082,13.76655 -29.9375,25.28125 -3.93605,12.18 3.84864,17.47725 12.65625,16.46875 14.43702,-5.9976 18.89869,-18.96115 26.625,-29.65625 5.46174,-1.7386 10.0877,-4.07577 10.93599,-9.048"
       style="fill:#ffd700;fill-opacity:1;fill-rule:evenodd;stroke:none" /></g></g></svg>