<?xml version="1.0" encoding="UTF-8" standalone="no"?>
<!-- Created with Inkscape (http://www.inkscape.org/) -->
<svg
   xmlns:dc="http://purl.org/dc/elements/1.1/"
   xmlns:cc="http://creativecommons.org/ns#"
   xmlns:rdf="http://www.w3.org/1999/02/22-rdf-syntax-ns#"
   xmlns:svg="http://www.w3.org/2000/svg"
   xmlns="http://www.w3.org/2000/svg"
   xmlns:xlink="http://www.w3.org/1999/xlink"
   version="1.0"
   width="1000"
   height="500"
   id="svg2">
<rect
     width="1000"
     height="500"
     x="0"
     y="0"
     id="rect2614"
     style="fill:#ce1021;fill-opacity:1"/>
<rect
     width="1000"
     height="300"
     y="100"
     id="rect2612"
     style="fill:#fff;fill-opacity:1"/><rect
     width="1000"
     height="260"
     x="0"
     y="120"
     id="rect2616"
     style="font-size:12px;fill:#4da1c7;fill-opacity:1;fill-rule:evenodd;stroke-width:1pt" /><path
     d="M 0,100 0,400 375,250 0,100 z"
     id="path932"
     style="font-size:12px;fill:#ffffff;fill-opacity:1;fill-rule:evenodd;stroke-width:1pt" /><g
     transform="matrix(1.9607842,0,0,1.9607842,268.38234,-2.0706861e-4)"
     id="g5402"><path
       d="M -64.832243,89.351326 C -64.832243,97.970057 -64.832243,102.27787 -64.832243,116.72847 -64.832243,133.07638 -73.830435,147.14441 -92.461326,156.77711 -111.09222,147.14441 -120.09041,133.07638 -120.09041,116.72847 -120.09041,102.27787 -120.09041,97.970057 -120.09041,89.351326 L -64.832243,89.351326 z"
       id="path16"
       style="fill:#f7d117;stroke:#000000;stroke-width:0.20242883;stroke-linecap:butt" /><path
       d="M -74.337105,116.34702 C -74.337105,107.85581 -74.337105,103.29296 -74.337105,97.971177 L -110.58492,97.971177 C -110.58492,103.29296 -110.58492,107.85581 -110.58492,116.34702 L -74.337105,116.34702 z"
       id="path21"
       style="fill:#255792;stroke:#000000;stroke-width:0.20242883;stroke-linecap:butt" /><path
       d="M -92.461013,144.22988 C -80.548439,138.14607 -74.592152,129.14787 -74.337105,118.75625 L -110.58492,118.75625 C -110.33298,129.14787 -104.37359,138.14607 -92.461013,144.22988 z"
       id="path26"
       style="fill:#f7d117;stroke:none" /><path
       d="M -74.337105,118.75504 C -74.337105,118.5031 -74.337105,118.24806 -74.337105,117.99612 -74.337105,117.36161 -74.337105,116.85463 -74.337105,116.34764 L -110.58492,116.34764 C -110.58492,116.85463 -110.58492,117.36161 -110.58492,117.99612 -110.58492,118.24806 -110.58492,118.5031 -110.58492,118.75504 L -74.337105,118.75504 z"
       id="path31"
       style="fill:#009200;stroke:#000000;stroke-width:0.20242883;stroke-linecap:butt" /><path
       d="M -107.41643,112.16456 -100.19113,105.57376 -92.713888,112.16456 -107.41643,112.16456 z"
       id="path36"
       style="fill:#ffb310;stroke:#000000;stroke-width:0.20242883;stroke-linecap:butt" /><path
       d="M -92.715001,112.16456 -100.19224,105.57376 -82.830364,106.46021 -76.239569,112.16456 -92.715001,112.16456 z"
       id="path41"
       style="fill:#ffb310;stroke:#000000;stroke-width:0.20242883;stroke-linecap:butt" /><path
       d="M -92.839883,112.16362 -106.65598,112.16362 -106.65598,116.34702 -92.839883,116.34702 -92.839883,112.16362 z"
       id="path46"
       style="fill:#ffb310;stroke:#000000;stroke-width:0.20242883;stroke-linecap:butt" /><path
       d="M -92.841191,116.34702 -77.631665,116.34702 -77.631665,112.16362 -92.841191,112.16362 -92.841191,116.34702 z"
       id="path51"
       style="fill:#ffb310;stroke:#000000;stroke-width:0.20242883;stroke-linecap:butt" /><path
       d="M -104.6273,112.16362 -104.6273,116.34702 -105.76879,116.34702 -105.76879,112.16362 -104.6273,112.16362 z"
       id="path56"
       style="fill:#000000;stroke:#000000;stroke-width:0.20242883;stroke-linecap:butt" /><path
       d="M -100.44567,112.29115 -100.44567,116.34702 -101.45964,116.34702 -101.45964,112.2756 -100.44567,112.29115 z"
       id="path61"
       style="fill:#000000;stroke:#000000;stroke-width:0.20242883;stroke-linecap:butt" /><path
       d="M -95.250891,112.16362 -95.250891,116.34702 -96.516796,116.34702 -96.516796,112.16362 -95.250891,112.16362 z"
       id="path66"
       style="fill:#000000;stroke:#000000;stroke-width:0.20242883;stroke-linecap:butt" /><path
       d="M -87.390645,112.16362 -87.390645,116.34702 -88.532137,116.34702 -88.532137,112.16362 -87.390645,112.16362 z"
       id="path71"
       style="fill:#000000;stroke:#000000;stroke-width:0.20242883;stroke-linecap:butt" /><path
       d="M -82.067622,112.16362 -82.067622,116.34702 -83.209114,116.34702 -83.209114,112.16362 -82.067622,112.16362 z"
       id="path76"
       style="fill:#000000;stroke:#000000;stroke-width:0.20242883;stroke-linecap:butt" /><path
       d="M -77.63322,112.16362 -77.63322,116.34702 -78.519665,116.34702 -78.519665,112.16362 -77.63322,112.16362 z"
       id="path81"
       style="fill:#000000;stroke:#000000;stroke-width:0.20242883;stroke-linecap:butt" /><path
       d="M -97.532163,112.16518 -97.532163,114.57258 -99.305053,114.57258 -99.305053,112.16518 -97.532163,112.16518 z"
       id="path86"
       style="fill:#000000;stroke:#000000;stroke-width:0.20242883;stroke-linecap:butt" /><path
       d="M -89.798664,112.16518 -89.798664,114.57258 -91.44714,114.57258 -91.44714,112.16518 -89.798664,112.16518 z"
       id="path91"
       style="fill:#000000;stroke:#000000;stroke-width:0.20242883;stroke-linecap:butt" /><path
       d="M -84.34874,112.16518 -84.34874,114.57258 -85.997216,114.57258 -85.997216,112.16518 -84.34874,112.16518 z"
       id="path96"
       style="fill:#000000;stroke:#000000;stroke-width:0.20242883;stroke-linecap:butt" /><path
       d="M -79.533633,112.16456 -79.533633,114.69948 -81.054586,114.69948 -81.054586,112.16456 -79.533633,112.16456 z"
       id="path101"
       style="fill:#000000;stroke:#000000;stroke-width:0.20242883;stroke-linecap:butt" /><path
       d="M -102.34752,112.16518 -102.34752,114.57258 -103.74095,114.57258 -103.74095,112.16518 -102.34752,112.16518 z"
       id="path106"
       style="fill:#000000;stroke:#000000;stroke-width:0.20242883;stroke-linecap:butt" /><path
       d="M -77.633409,116.34795 -106.65592,116.34795 -107.66989,117.2344 -76.23687,117.2344 -77.633409,116.34795 z"
       id="path111"
       style="fill:#ffffff;stroke:#000000;stroke-width:0.20242883;stroke-linecap:butt" /><path
       d="M -79.787965,121.54314 C -81.688378,120.90863 -85.364791,120.27724 -88.151649,121.79819 -90.941617,123.44356 -93.093967,123.19162 -96.008349,121.9226 -98.798317,120.6567 -101.58518,120.78422 -103.74064,121.54314 -105.76857,122.05013 -108.05156,122.30517 -110.33143,121.67067 -110.20391,122.81216 -109.95197,123.95054 -109.69692,125.09203 -108.05156,125.21956 -106.65502,125.09203 -104.88213,124.33311 -102.34721,123.31914 -99.305301,123.6986 -96.515333,125.09203 -93.728475,126.48546 -90.941617,126.61298 -88.024125,125.21956 -85.109744,123.82613 -81.815902,123.95054 -79.532918,124.58505 -77.504981,125.21956 -76.618536,125.47149 -75.352631,125.47149 -74.97006,124.33311 -74.718123,123.19162 -74.590599,122.05013 -76.111552,122.42959 -78.011965,121.9226 -79.787965,121.54314 z"
       id="path116"
       style="fill:#255792;stroke:none" /><path
       d="M -76.617849,129.02256 C -78.266325,128.89504 -80.166739,128.133 -81.435754,127.62602 -83.208644,126.99462 -84.984644,126.73958 -88.150962,128.38805 -91.320391,129.909 -93.855312,129.52954 -96.897217,128.133 -99.939122,126.73958 -102.219,126.73958 -103.995,127.62602 -105.2609,128.51558 -106.65744,128.76751 -108.43033,128.63999 -107.92335,129.78148 -107.41636,130.66793 -106.90938,131.68189 -105.89541,131.68189 -104.75392,131.55748 -103.61554,131.0505 -101.96706,130.41599 -99.304614,130.16094 -96.769693,131.0505 -93.727788,132.3164 -92.206836,132.82339 -88.912994,131.42996 -85.491628,130.16094 -83.970675,129.78148 -82.449723,130.66793 -80.92877,131.42996 -79.532231,132.06446 -78.266325,132.06446 -77.631818,131.0505 -77.124833,130.03653 -76.617849,129.02256 z"
       id="path121"
       style="fill:#255792;stroke:none" /><path
       d="M -80.673133,135.23193 C -81.814625,135.23193 -83.208054,134.72495 -84.222022,134.4699 -85.491038,133.96292 -87.139514,133.96292 -89.419388,134.85247 -91.574848,135.61139 -93.347738,135.48387 -95.375674,134.72495 -97.403611,133.83851 -98.924564,133.83851 -100.82498,134.21797 -102.47345,134.59743 -102.85291,134.72495 -104.50139,134.97689 -103.61495,135.99086 -102.60098,137.13235 -101.45948,138.14632 -100.82498,137.89438 -100.19358,137.76685 -99.431548,137.38739 -98.165643,136.75289 -96.389643,136.75289 -94.996214,137.51181 -93.727198,138.27384 -92.461293,138.6533 -90.56088,137.63933 -88.78488,136.62536 -87.263927,136.88041 -86.125546,137.38739 -85.23599,137.76685 -84.349546,138.01879 -83.335577,138.01879 -82.449133,137.13235 -81.435164,136.2459 -80.673133,135.23193 z"
       id="path126"
       style="fill:#255792;stroke:none" /><path
       d="M -90.053431,140.30078 C -91.319337,140.80776 -92.081368,140.93529 -93.347274,140.4283 -94.616289,139.92132 -95.882195,140.17326 -98.037655,140.93529 -96.896163,141.69421 -95.502734,142.58376 -94.109305,143.34269 -92.840289,142.45624 -92.081368,142.20119 -90.305368,143.09075 -89.039463,142.32872 -87.897971,141.5698 -86.756479,140.80776 -87.770447,140.30078 -89.166987,140.04884 -90.053431,140.30078 z"
       id="path131"
       style="fill:#255792;stroke:none" /><path
       d="M -110.83804,91.631697 -110.96556,90.872776 C -111.47255,91.0003 -112.23147,91.124713 -112.48652,91.252237 -112.61404,91.37976 -112.86598,91.759221 -112.9935,91.886744 -112.9935,92.014268 -112.9935,91.886744 -112.9935,91.886744 L -113.12103,91.631697 C -113.62801,91.759221 -114.00747,92.014268 -114.13499,92.138681 -114.25941,92.393729 -114.38693,92.773189 -114.51445,93.028236 -114.64198,92.900713 -114.76639,92.773189 -114.89391,92.645666 -115.4009,93.028236 -115.78036,93.659634 -116.03541,94.042205 -116.16293,94.294142 -116.16293,94.801126 -116.16293,95.056173 -116.28734,94.92865 -116.41487,94.673602 -116.54239,94.673602 -117.42884,95.563157 -117.93582,96.701539 -117.93582,97.591094 -117.8083,97.970555 -117.30131,98.857 -117.30131,99.23646 -116.79433,99.23646 -115.90788,99.112047 -115.4009,99.363984 -115.14896,99.363984 -114.89391,99.23646 -114.89391,99.112047 -114.76639,98.477539 -114.76639,97.843031 -114.51445,97.336047 -114.38693,97.336047 -114.25941,97.463571 -114.13499,97.463571 -113.75242,97.08411 -113.24544,96.449602 -112.86598,96.194555 -112.9935,96.070142 -112.9935,95.815094 -112.9935,95.687571 -112.86598,95.687571 -112.73845,95.687571 -112.61404,95.687571 -112.10706,95.056173 -111.72449,94.673602 -111.60007,94.166618 -111.60007,94.042205 -111.72449,93.787158 -111.85201,93.659634 -111.60007,93.659634 -111.60007,93.659634 -111.34503,93.659634 -110.96556,93.15265 -110.45858,92.521252 -110.07912,92.138681 -110.33106,92.014268 -110.71052,91.759221 -110.83804,91.631697 z"
       id="path136"
       style="fill:#009200;stroke:#000000;stroke-width:0.20242883;stroke-linecap:butt" /><path
       d="M -117.81063,101.772 C -117.55559,98.985145 -114.0067,93.660256 -110.83727,91.632319 -112.8652,92.773811 -117.42806,97.336669 -118.06257,101.64448 -117.93505,101.64448 -117.93505,101.64448 -117.81063,101.772 z"
       id="path141"
       style="fill:#000000;stroke:#000000;stroke-width:0.20242883;stroke-linecap:butt" /><path
       d="M -108.05003,93.407075 C -109.064,93.786536 -109.82603,94.421044 -110.07797,94.800504 -109.69851,96.448981 -107.54305,96.955965 -106.90854,96.828441 -106.14962,96.704028 -106.0221,96.704028 -105.51511,96.828441 -105.13565,96.955965 -104.62867,96.576504 -104.12168,95.941996 -102.72825,96.321457 -101.8387,95.562536 -101.07978,95.183075 -100.31775,95.307489 -100.06581,95.183075 -99.686349,95.055552 -99.303778,94.800504 -98.924318,94.800504 -98.672381,94.800504 -98.28981,94.928028 -97.403365,94.548567 -97.275841,94.169107 -97.151428,93.662123 -97.910349,92.772568 -98.672381,92.648154 -99.431302,92.648154 -99.686349,92.520631 -99.938286,92.265583 -100.31775,92.013646 -101.2073,91.886123 -101.8387,91.886123 -102.72825,90.872154 -103.48718,91.127202 -103.86664,91.506662 -104.50114,90.872154 -105.51511,90.999678 -106.0221,91.251615 -106.52908,91.506662 -106.52908,91.758599 -106.90854,91.886123 -107.29111,91.886123 -108.05003,92.520631 -108.05003,93.407075 z"
       id="path146"
       style="fill:#ffffff;stroke:#000000;stroke-width:0.20242883;stroke-linecap:butt" /><path
       d="M -101.07922,95.180587 C -101.84125,95.563158 -102.72769,96.322079 -104.12112,95.942618 -103.9936,95.180587 -104.24865,94.549189 -105.13509,94.166618 -104.62811,94.294142 -103.86918,94.92865 -103.86918,95.180587 -103.86918,94.801126 -103.9936,94.421666 -104.24865,94.166618 -103.74166,94.801126 -103.48661,95.180587 -103.23468,95.435634 -103.23468,95.056173 -103.3622,94.421666 -103.61414,94.042205 -103.23468,94.421666 -102.85522,94.801126 -102.85522,94.92865 -102.72769,95.180587 -102.60017,95.180587 -102.60017,95.056173 -102.60017,94.801126 -102.72769,94.549189 -102.85522,94.421666 -102.97963,94.166618 -102.97963,94.042205 -102.72769,94.294142 -102.47265,94.549189 -102.22071,94.801126 -102.22071,94.92865 -102.09318,94.92865 -101.96566,94.673603 -102.09318,94.421666 -102.22071,94.042205 -102.09318,94.042205 -101.96566,94.421666 -101.71372,94.673603 -101.45868,94.92865 -101.07922,95.180587 z"
       id="path151"
       style="fill:#9f0000;stroke:#000000;stroke-width:0.20242883;stroke-linecap:butt" /><path
       d="M -103.86673,91.505106 C -104.50124,90.873709 -105.51521,90.998122 -106.02219,91.253169 -106.52918,91.505106 -106.52918,91.760154 -106.90864,91.887677 -107.29121,91.887677 -108.05013,92.519075 -108.05013,93.40863 -107.54315,93.40863 -107.29121,93.281106 -107.03616,93.40863 -106.78422,93.533043 -106.52918,93.660567 -106.6567,93.40863 -106.78422,93.153583 -106.90864,92.901646 -107.03616,92.901646 -107.16369,92.774122 -106.90864,92.774122 -106.78422,92.774122 -106.6567,92.901646 -106.27724,93.153583 -106.27724,92.901646 -106.27724,92.646598 -106.27724,92.267138 -106.52918,92.267138 -106.14972,92.267138 -105.77026,92.267138 -105.51521,92.774122 -105.51521,92.519075 -105.64273,92.139614 -105.64273,91.760154 -105.38769,91.760154 -104.62876,92.012091 -104.75629,92.646598 -104.8807,93.281106 -104.75629,93.153583 -104.50124,92.774122 -104.37372,92.394661 -104.37372,92.012091 -104.50124,91.63263 -104.2493,91.760154 -103.86673,92.012091 -103.74232,92.394661 -103.74232,92.139614 -103.74232,91.760154 -103.86673,91.505106 z"
       id="path156"
       style="fill:#9f0000;stroke:#000000;stroke-width:0.20242883;stroke-linecap:butt" /><path
       d="M -96.644288,96.322078 -97.023749,96.070141 C -96.896225,95.563157 -96.516765,94.801126 -96.264828,94.549189 -96.009781,94.549189 -95.882257,94.421665 -95.757844,94.549189 -95.757844,94.294142 -95.757844,94.166618 -95.757844,94.166618 -95.502796,93.914681 -95.123336,93.407697 -94.995812,93.280173 -94.743875,93.280173 -94.616352,93.280173 -94.361304,93.280173 -94.361304,93.15265 -94.361304,92.900713 -94.361304,92.773189 -93.85432,92.521252 -93.222923,92.014268 -92.460891,92.393728 -92.460891,92.266205 -92.333368,92.014268 -92.333368,91.886744 -91.826383,91.631697 -90.812415,91.507284 -90.053494,91.631697 -89.674033,91.886744 -89.291462,92.521252 -89.039525,92.900713 -89.798447,93.659634 -89.418986,94.673602 -90.181017,95.180586 -90.688002,95.056173 -90.812415,94.801126 -91.319399,94.801126 -91.446923,94.928649 -91.574446,95.180586 -91.574446,95.30811 -92.208954,95.563157 -92.588415,95.815094 -92.840352,95.942618 -92.840352,95.942618 -92.967875,95.815094 -93.095399,95.687571 -93.222923,95.815094 -93.347336,96.070141 -93.47486,96.194555 -93.729907,96.194555 -94.236891,96.701539 -94.616352,96.701539 -94.743875,96.577126 -94.868289,96.322078 -94.868289,96.194555 -95.123336,96.577126 -95.757844,97.08411 -96.644288,97.336047 -96.644288,97.08411 -96.644288,96.577126 -96.644288,96.322078 z"
       id="path161"
       style="fill:#009200;stroke:#000000;stroke-width:0.20242883;stroke-linecap:butt" /><path
       d="M -87.26589,92.773189 C -90.307795,92.266205 -94.615605,94.421666 -96.643542,96.322079 -94.743129,94.801126 -90.180271,92.266205 -87.26589,93.15265 -87.138366,93.15265 -87.138366,92.900713 -87.26589,92.773189 z"
       id="path166"
       style="fill:#000000;stroke:#000000;stroke-width:0.20242883;stroke-linecap:butt" /><path
       d="M -86.5042,94.041583 C -87.390645,94.29352 -88.2802,95.055551 -88.532137,95.307488 -87.773216,96.828441 -87.138708,97.335425 -86.376677,97.335425 -85.490232,97.211012 -84.855724,97.211012 -84.476263,97.335425 -84.096803,97.335425 -83.334771,97.462949 -82.703374,96.44898 -81.434358,96.576504 -80.42039,96.321457 -79.913406,95.690059 -79.278898,95.814473 -78.899437,95.690059 -78.519977,95.562536 -78.140516,95.435012 -77.757945,95.307488 -77.250961,95.307488 -76.8715,95.307488 -75.985056,95.055551 -75.985056,94.421044 -75.985056,93.914059 -76.743977,92.900091 -78.140516,93.155138 -78.6475,92.648154 -79.533945,92.265583 -80.42039,92.393107 -81.054898,91.506662 -81.813819,91.506662 -82.320803,91.886123 -83.589819,91.379138 -84.34874,91.758599 -84.731311,92.013646 -85.110771,92.14117 -85.238295,92.393107 -85.617755,92.393107 -85.997216,92.52063 -86.376677,93.027615 -86.5042,94.041583 z"
       id="path171"
       style="fill:#ffffff;stroke:#000000;stroke-width:0.20242883;stroke-linecap:butt" /><path
       d="M -79.912783,95.689126 C -80.419767,96.323634 -81.433736,96.575571 -82.702751,96.448047 -82.323291,95.689126 -82.575228,95.309665 -82.954688,94.927095 -82.830275,95.054618 -82.323291,95.434079 -82.323291,95.689126 -82.447704,95.054618 -82.702751,94.927095 -82.830275,94.675158 -83.082212,94.295697 -82.954688,94.295697 -82.702751,94.547634 -82.447704,94.927095 -82.195767,95.309665 -81.94072,95.561602 -81.688783,95.81665 -81.688783,95.81665 -81.688783,95.561602 -81.688783,95.182142 -81.816307,94.927095 -81.94072,94.675158 -81.561259,94.927095 -81.433736,95.182142 -81.309322,95.434079 -81.054275,95.689126 -80.802338,95.689126 -81.054275,95.182142 -81.309322,94.675158 -81.309322,94.547634 -81.054275,94.802681 -80.926752,94.927095 -80.674815,95.182142 -80.674815,95.309665 -80.674815,95.434079 -80.295354,95.561602 -80.419767,95.054618 -80.674815,94.547634 -80.674815,94.547634 -80.419767,94.675158 -80.295354,94.802681 -80.040307,95.054618 -79.912783,95.689126 z"
       id="path176"
       style="fill:#9f0000;stroke:#000000;stroke-width:0.20242883;stroke-linecap:butt" /><path
       d="M -82.320803,91.8855 C -83.589818,91.378516 -84.34874,91.761087 -84.73131,92.013024 -85.110771,92.140548 -85.238295,92.392485 -85.617755,92.392485 -85.997216,92.520008 -86.376676,93.026992 -86.5042,94.040961 -86.124739,93.789024 -85.745279,93.6615 -85.490232,93.913437 -85.110771,94.040961 -84.855724,93.913437 -85.110771,93.533977 -85.490232,93.28204 -85.490232,93.154516 -84.983247,93.406453 -84.603787,93.6615 -84.603787,93.406453 -84.855724,93.026992 -84.983247,92.775055 -84.983247,92.520008 -84.603787,92.647532 -84.224326,92.775055 -84.096803,92.899469 -83.969279,93.154516 -83.969279,92.899469 -84.224326,92.392485 -84.096803,92.140548 -83.717342,92.140548 -83.210358,92.392485 -83.210358,92.899469 -83.334771,93.406453 -82.955311,93.406453 -82.955311,92.899469 -82.827787,92.520008 -82.827787,92.140548 -82.57585,92.268071 -82.448326,92.520008 -82.196389,92.647532 -82.196389,92.899469 -82.068866,92.647532 -81.941342,92.140548 -82.320803,91.8855 z"
       id="path181"
       style="fill:#9f0000;stroke:#000000;stroke-width:0.20242883;stroke-linecap:butt" /><path
       d="M -113.11869,107.34914 C -112.86676,106.20765 -113.62568,104.94174 -114.26019,104.55917 -114.00825,103.5452 -114.63965,103.03822 -114.89469,102.02425 -115.14663,100.88587 -115.27415,99.996314 -116.1606,101.01028 -116.54317,101.51727 -116.79511,102.53123 -116.79511,103.03822 -117.17457,103.42079 -117.42962,104.6867 -117.42962,105.06616 -118.31606,106.08012 -118.06412,106.96968 -117.68155,107.34914 -118.18854,108.49063 -117.80908,109.12203 -117.55714,109.5046 -117.30209,109.88406 -117.05015,110.136 -116.92263,110.64298 -116.79511,111.02555 -116.03619,111.27749 -115.40168,111.27749 -114.89469,112.16393 -114.26019,113.05349 -113.7532,113.30543 -111.85279,112.29146 -111.85279,110.51857 -112.10473,110.01158 -112.23225,109.5046 -112.35977,109.24955 -112.10473,108.87009 -111.98031,108.49063 -112.4873,107.85612 -113.11869,107.34914 z"
       id="path186"
       style="fill:#ffffff;stroke:#000000;stroke-width:0.20242883;stroke-linecap:butt" /><path
       d="M -113.12115,107.34914 C -112.8661,106.20765 -113.62813,104.94174 -114.25953,104.55917 -115.02156,105.06616 -115.2735,105.44873 -114.76651,105.3212 -114.25953,105.06616 -114.00759,105.06616 -114.51458,105.57314 -115.02156,105.95571 -115.2735,106.4627 -114.6421,105.95571 -113.88007,105.57314 -113.88007,105.82819 -114.38705,106.20765 -115.02156,106.58711 -115.40102,107.09409 -114.6421,106.71463 -113.88007,106.20765 -113.62813,106.4627 -114.38705,106.96968 -115.14908,107.47666 -114.6421,107.7286 -114.13511,107.22162 -113.75254,106.84216 -113.75254,107.09409 -113.75254,107.22162 -113.62813,107.34914 -113.50061,107.09409 -113.12115,107.34914 z"
       id="path191"
       style="fill:#9f0000;stroke:#000000;stroke-width:0.20242883;stroke-linecap:butt" /><path
       d="M -117.68233,107.34914 C -118.18931,108.49063 -117.80985,109.12203 -117.5548,109.5046 -117.30287,109.88406 -117.04782,110.136 -116.9234,110.64298 -116.79588,111.02555 -116.03385,111.27749 -115.40245,111.27749 -115.52687,110.77051 -115.52687,110.51857 -115.40245,110.26352 -115.27493,110.01159 -115.27493,109.62901 -115.65439,110.01159 -115.90944,110.26352 -116.2889,110.39105 -116.03385,110.01159 -115.78191,109.62901 -115.78191,109.37708 -116.16137,109.62901 -116.54083,109.88406 -116.79588,110.01159 -116.66836,109.75654 -116.66836,109.37708 -116.66836,108.99762 -116.2889,108.87009 -116.66836,108.99762 -116.9234,108.99762 -117.04782,109.12203 -117.17534,109.24955 -117.43039,108.99762 -117.17534,108.61505 -116.9234,108.23559 -117.04782,108.23559 -116.66836,108.10806 -116.2889,107.98365 -116.03385,107.85612 -116.66836,107.85612 -117.30287,107.85612 -117.80985,107.7286 -117.30287,107.47666 -116.66836,107.09409 -116.41642,106.96968 -116.79588,106.96968 -117.17534,106.96968 -117.43039,106.96968 -117.68233,107.34914 z"
       id="path196"
       style="fill:#9f0000;stroke:#000000;stroke-width:0.20242883;stroke-linecap:butt" /><path
       d="M -118.06332,112.41774 C -118.31525,112.92472 -118.82224,113.43171 -118.94976,113.93869 -118.69782,115.08018 -118.06332,116.09415 -117.68385,116.34609 -117.42881,116.34609 -117.30128,116.09415 -117.17687,115.8391 -117.30128,116.34609 -117.30128,116.72866 -117.30128,116.85307 -117.04935,117.36006 -116.66989,117.99456 -116.1629,118.37403 -116.03538,118.24961 -115.78033,118.12209 -115.78033,117.99456 -115.65592,118.24961 -115.52839,118.62907 -115.65592,118.88101 -115.27335,119.13606 -114.64195,119.38799 -114.3869,119.64304 -114.3869,119.51552 -114.25938,119.38799 -114.25938,119.26358 -114.13497,119.51552 -114.00744,119.77056 -113.87992,119.89498 -113.121,120.27755 -112.61401,120.40196 -112.23144,120.52949 -112.10703,120.27755 -111.9795,120.15003 -111.9795,120.0225 -111.72446,119.89498 -111.345,119.77056 -111.09306,119.64304 -111.47252,119.13606 -111.9795,118.50155 -112.35897,118.12209 -112.61401,118.12209 -112.73843,117.99456 -112.99347,118.12209 -112.73843,117.86704 -112.61401,117.74263 -112.35897,117.6151 -112.73843,117.23564 -113.24541,116.60114 -113.37293,116.34609 -113.62798,116.22168 -113.87992,116.22168 -114.00744,116.22168 -113.87992,116.09415 -113.75239,115.96663 -113.62798,115.8391 -114.13497,115.33212 -114.64195,114.82514 -114.89389,114.5732 -115.02141,114.5732 -115.14893,114.5732 -115.27335,114.5732 -115.27335,114.06621 -115.40087,113.68675 -115.40087,113.05225 -116.41484,112.41774 -117.42881,112.29021 -118.06332,112.41774 z"
       id="path201"
       style="fill:#009200;stroke:#000000;stroke-width:0.20242883;stroke-linecap:butt" /><path
       d="M -118.57107,110.3898 C -118.82301,111.91075 -116.54314,116.09415 -111.98028,120.0225 -115.90863,116.47361 -118.57107,112.1658 -118.31603,110.3898 -118.31603,110.3898 -118.44355,110.3898 -118.57107,110.3898 z"
       id="path206"
       style="fill:#000000;stroke:#000000;stroke-width:0.20242883;stroke-linecap:butt" /><path
       d="M -112.36058,124.58629 C -111.34661,124.83823 -110.96404,125.34521 -110.96404,125.72467 -110.96404,125.97972 -110.83963,126.23166 -110.45706,126.61423 -110.0776,127.12121 -109.69814,129.78055 -111.21909,130.41505 -112.23306,130.16312 -112.61252,129.65613 -113.1195,129.02163 -114.00595,129.14915 -114.8955,129.02163 -115.14744,128.64217 -115.40249,128.25959 -115.65442,128.00766 -116.03388,127.88013 -116.41645,127.6282 -116.79592,126.73864 -116.66839,125.8522 -117.68236,125.09328 -117.43042,124.45877 -117.04785,123.95178 -117.43042,123.18975 -117.43042,122.17578 -117.17538,121.6688 -117.68236,120.78235 -117.43042,119.64086 -117.17538,119.2614 -116.79592,118.75442 -116.54087,118.88194 -116.28893,119.2614 -115.90947,119.51645 -115.27496,120.40289 -115.27496,120.78235 -114.8955,121.0374 -114.38852,121.6688 -114.26099,122.17578 -114.13347,122.17578 -113.75401,122.43083 -113.1195,123.06534 -112.61252,123.82426 -112.36058,124.07931 -112.36058,124.58629 z"
       id="path211"
       style="fill:#ffffff;stroke:#000000;stroke-width:0.20242883;stroke-linecap:butt" /><path
       d="M -112.35915,124.5866 C -112.35915,124.07962 -112.6142,123.82457 -113.12118,123.06565 -113.75258,122.43114 -114.13515,122.17609 -114.25956,122.17609 -114.89407,123.31759 -114.89407,123.44511 -114.51461,123.06565 -114.00763,122.8106 -113.62816,122.55867 -114.13515,123.19006 -114.51461,123.69705 -114.64213,124.07962 -114.13515,123.69705 -113.62816,123.31759 -113.50064,123.31759 -114.00763,123.95209 -114.38709,124.5866 -114.25956,124.83854 -113.62816,124.20403 -113.12118,123.57263 -112.86613,123.82457 -113.37312,124.45908 -114.00763,125.218 -113.8801,125.34552 -113.62816,124.96606 -113.24559,124.5866 -112.99366,124.5866 -113.24559,124.96606 -113.50064,125.34552 -113.50064,125.34552 -113.12118,124.96606 -112.86613,124.5866 -112.73861,124.5866 -112.35915,124.5866 z"
       id="path216"
       style="fill:#9f0000;stroke:#000000;stroke-width:0.20242883;stroke-linecap:butt" /><path
       d="M -113.12108,129.02038 C -114.00753,129.14791 -114.89397,129.02038 -115.14902,128.64092 -115.40096,128.26146 -115.656,128.00641 -116.03547,127.882 -116.41493,127.62695 -116.79439,126.74051 -116.66997,125.85406 -116.41493,125.47149 -116.03547,125.59902 -115.78042,125.47149 -116.2874,125.97848 -116.92191,126.48546 -115.78042,126.36105 -116.03547,127.11997 -116.03547,128.13394 -115.0215,126.99245 -115.14902,127.75448 -115.0215,128.26146 -114.64204,127.882 -114.38699,127.49943 -114.13505,127.75448 -114.13505,127.882 -114.25947,128.00641 -114.25947,128.26146 -114.00753,128.00641 -113.75248,127.75448 -113.62807,127.62695 -113.62807,127.75448 -113.62807,128.00641 -113.62807,128.76845 -113.12108,129.02038 z"
       id="path221"
       style="fill:#9f0000;stroke:#000000;stroke-width:0.20242883;stroke-linecap:butt" /><path
       d="M -109.52645,131.18006 C -108.64315,131.32513 -108.03971,131.51718 -107.64129,131.85565 -107.2281,132.65367 -106.83087,134.08227 -106.87469,134.89326 -107.15383,134.9359 -107.43549,134.98035 -107.68569,134.84944 -107.21497,135.28915 -106.99263,135.60048 -106.84621,135.8055 -106.78626,136.54239 -106.62507,137.20696 -106.78745,137.63251 -106.96534,137.60285 -107.17036,137.74927 -107.34644,137.72213 -107.12592,138.03093 -106.9795,138.23596 -106.86094,138.6214 -107.08013,139.40092 -107.24504,139.82828 -107.37595,140.07847 -107.55384,140.04881 -107.70026,139.84378 -107.77437,139.74001 -107.80403,139.9179 -107.53834,140.50402 -107.39011,140.71158 -107.58216,141.31502 -108.25909,142.11185 -108.49812,142.43543 -108.64454,142.23041 -108.96631,141.99391 -109.21831,141.86047 -109.52711,142.081 -110.0138,142.27186 -110.18988,142.24473 -110.22017,141.32996 -110.20601,140.69685 -110.21898,140.23983 -109.98429,139.91552 -109.88052,139.84141 -109.74961,139.59122 -110.02693,139.63639 -110.27893,139.50294 -110.45682,139.47328 -110.7941,138.78157 -110.92816,137.94091 -110.86703,137.58766 -110.662,137.44124 -110.42731,137.11694 -110.32354,137.04283 -110.50143,137.01316 -110.74909,136.88044 -110.85287,136.95455 -110.95546,135.93854 -110.89866,135.58456 -110.80785,135.05343 -110.6325,135.0849 -110.49905,134.8329 -110.39528,134.75879 -110.83814,134.13866 -111.13278,133.72608 -111.35331,133.41728 -111.07298,132.28451 -110.42572,131.66556 -109.52645,131.18006 z"
       id="path229"
       style="fill:#009200;stroke:#000000;stroke-width:0.20242883;stroke-linecap:butt" /><path
       d="M -110.76448,128.79363 C -108.71559,130.13199 -108.1723,139.4023 -109.21783,141.86124 -108.46694,138.98973 -108.96697,131.09121 -111.07328,129.01416 -111.07328,129.01416 -111.04361,128.83627 -110.76448,128.79363 z"
       id="path234"
       style="fill:#000000;stroke:#000000;stroke-width:0.20242883;stroke-linecap:butt" /><path
       d="M -98.753779,150.05357 C -98.037752,148.61912 -97.411038,147.81287 -96.981505,147.48752 -96.22706,147.59478 -95.63785,147.93617 -95.277039,148.11627 -95.117963,147.88128 -95.100013,147.75502 -95.06455,147.5056 -94.256693,147.23718 -93.574651,146.94773 -93.30771,146.86002 -92.94954,147.03661 -92.841236,147.18081 -92.732933,147.32501 -92.570778,147.09046 -92.39419,146.73229 -92.232474,146.50081 -91.712587,146.44592 -90.672813,146.33614 -90.279618,146.26638 -90.170877,146.4075 -90.098474,146.80421 -90.007683,147.07159 -89.849045,146.83968 -89.560637,146.62307 -89.525174,146.37364 -89.257795,146.28285 -89.131541,146.3008 -89.023237,146.445 -89.005287,146.31875 -88.969386,146.06624 -88.843132,146.08419 -88.431987,145.88818 -87.89415,145.70703 -87.518467,145.76045 -87.446064,146.15716 -87.53494,146.78227 -87.552891,146.90852 -87.339363,147.19649 -87.230621,147.33762 -86.996064,147.49977 -87.46414,148.07411 -88.108803,149.00662 -88.393695,149.22059 -88.646203,149.18469 -88.895631,149.14922 -89.148139,149.11332 -89.021885,149.13127 -88.949482,149.52799 -88.966995,149.65116 -89.273354,149.99402 -89.969828,150.40708 -90.257799,150.62061 -90.741785,150.42299 -90.868039,150.40504 -91.117468,150.36958 -91.135418,150.49583 -91.188831,150.87152 -91.098478,151.14197 -91.906335,151.41039 -92.693601,151.55607 -93.089876,151.6254 -93.448045,151.44881 -93.914081,151.12494 -94.16351,151.08948 -94.199411,151.34198 -94.111699,151.60892 -94.021346,151.87938 -95.204886,152.09439 -96.244221,152.20109 -97.266045,152.18462 -97.928096,151.4496 -98.46741,150.73517 -98.753779,150.05357 z"
       id="path242"
       style="fill:#009200;stroke:#000000;stroke-width:0.20242883;stroke-linecap:butt" /><path
       d="M -101.22778,149.44661 C -97.965252,150.80582 -91.476893,149.29671 -87.552669,146.90781 -90.794852,149.00726 -96.63911,151.37765 -101.28119,149.82229 -101.26324,149.69604 -101.24529,149.56979 -101.22778,149.44661 z"
       id="path247"
       style="fill:#000000;stroke:#000000;stroke-width:0.20242883;stroke-linecap:butt" /><path
       d="M -78.899125,135.99328 C -79.026649,135.10373 -79.026649,134.47233 -79.026649,133.83782 -78.392141,133.07579 -77.253759,132.06182 -76.491728,131.93741 -76.491728,132.06182 -76.364204,132.5688 -76.364204,132.82385 -76.112267,132.06182 -75.984744,131.93741 -75.732807,131.43042 -75.350236,131.17538 -74.463791,130.79592 -74.084331,130.66839 -73.956807,130.92344 -73.829283,131.17538 -73.829283,131.3029 -73.449823,130.92344 -73.197886,130.54087 -73.070362,130.41645 -72.690902,130.41645 -72.056394,130.28893 -71.801347,130.28893 -71.676933,130.28893 -71.676933,130.54087 -71.54941,130.66839 -71.294362,130.54087 -71.169949,130.41645 -71.042425,130.16141 -70.407918,130.41645 -69.521473,130.54087 -69.142012,130.54087 -69.142012,130.79592 -69.142012,131.17538 -69.266426,131.43042 -69.014489,131.68236 -68.635028,132.06182 -68.507504,132.31687 -69.266426,132.5688 -69.900933,132.82385 -70.280394,133.07579 -70.535441,133.07579 -70.787378,132.95138 -71.042425,132.95138 -70.914902,133.20331 -70.787378,133.33084 -70.787378,133.58277 -71.54941,134.08976 -72.056394,134.3448 -72.308331,134.47233 -72.690902,134.47233 -72.815315,134.47233 -73.070362,134.3448 -73.070362,134.59674 -73.070362,134.72426 -73.070362,134.85179 -73.829283,135.10373 -74.336268,135.35877 -74.843252,135.61071 -74.970775,135.4863 -75.098299,135.35877 -75.225823,135.10373 -75.85722,135.99328 -76.112267,136.50026 -76.239791,136.7522 -77.378173,136.7522 -78.519665,136.24522 -78.899125,135.99328 z"
       id="path252"
       style="fill:#009200;stroke:#000000;stroke-width:0.20242883;stroke-linecap:butt" /><path
       d="M -80.801094,137.76533 C -78.014236,133.9645 -72.054839,131.42958 -69.267981,131.42958 -72.054839,131.68152 -78.138649,134.47149 -80.421633,137.89285 -80.549157,137.89285 -80.67357,137.76533 -80.801094,137.76533 z"
       id="path257"
       style="fill:#000000;stroke:#000000;stroke-width:0.20242883;stroke-linecap:butt" /><path
       d="M -70.408229,117.48851 C -71.929182,118.11991 -72.815626,119.13388 -72.815626,120.40289 -72.691213,121.0374 -72.94315,121.79632 -72.815626,122.17578 -72.691213,122.55835 -72.436166,122.93782 -72.184229,123.18975 -72.691213,124.20372 -72.436166,125.34521 -71.801658,126.10724 -72.184229,126.86617 -71.801658,127.6282 -71.929182,128.13518 -71.929182,128.76658 -71.801658,129.52861 -71.549721,129.90807 -71.294674,130.16312 -71.042737,130.41505 -70.535753,129.90807 -70.028768,129.52861 -69.649308,128.64217 -69.649308,128.00766 -68.887276,127.75261 -68.759753,126.86617 -68.635339,126.10724 -67.873308,125.8522 -67.366324,124.83823 -67.873308,124.07931 -67.2388,123.18975 -67.114387,122.17578 -67.366324,121.92385 -67.621371,121.54439 -67.745784,121.41686 -67.745784,120.90988 -67.745784,120.40289 -68.507816,119.89591 -69.266737,119.76839 -69.521784,118.62689 -69.773721,117.86797 -70.408229,117.48851 z"
       id="path262"
       style="fill:#ffffff;stroke:#000000;stroke-width:0.20242883;stroke-linecap:butt" /><path
       d="M -71.803213,126.106 C -72.437721,125.34708 -72.689658,124.20559 -72.182674,123.19162 -71.930737,123.31914 -71.67569,123.19162 -71.296229,123.0641 -70.916768,122.81216 -70.916768,122.93657 -71.168705,123.19162 -71.548166,123.31914 -71.548166,123.57108 -71.041182,123.44356 -70.534198,123.19162 -70.409784,123.44356 -71.041182,123.6986 -71.803213,123.82613 -72.182674,124.45752 -71.296229,124.07806 -70.409784,123.6986 -70.534198,124.07806 -71.296229,124.33311 -71.930737,124.58505 -72.182674,124.96451 -71.548166,124.71257 -70.916768,124.58505 -70.661721,124.8401 -71.168705,124.96451 -71.67569,125.21956 -72.05515,125.47149 -71.423753,125.34708 -70.916768,125.21956 -70.789245,125.34708 -71.168705,125.59902 -71.548166,125.85406 -71.548166,125.97848 -71.803213,126.106 z"
       id="path267"
       style="fill:#9f0000;stroke:#000000;stroke-width:0.20242883;stroke-linecap:butt" /><path
       d="M -67.875174,124.07744 C -67.240667,123.191 -67.113143,122.17703 -67.36819,121.92509 -67.620127,121.54252 -67.747651,121.41811 -67.747651,120.91112 -67.747651,120.40414 -68.506572,119.89716 -69.268603,119.76963 -69.14108,120.02157 -69.14108,120.52855 -69.396127,120.7836 -69.52054,120.91112 -69.648064,121.03554 -69.396127,121.03554 -69.14108,121.03554 -69.013556,121.03554 -68.889143,120.91112 -68.761619,120.7836 -68.634096,120.7836 -68.889143,121.03554 -69.013556,121.29058 -69.14108,121.41811 -68.889143,121.54252 -68.634096,121.54252 -68.382159,121.54252 -68.254635,121.41811 -68.382159,121.67004 -68.506572,122.17703 -68.889143,122.30455 -68.506572,122.30455 -68.382159,122.30455 -68.254635,122.30455 -67.999588,122.17703 -67.875174,122.17703 -67.999588,122.43208 -68.127111,122.68401 -68.254635,122.93906 -68.382159,123.06347 -68.634096,123.191 -68.761619,123.31852 -68.506572,123.31852 -68.127111,123.44604 -67.999588,123.69798 -68.254635,123.82551 -68.506572,123.95303 -68.634096,123.95303 -68.889143,123.95303 -68.506572,124.07744 -68.254635,124.20497 -67.875174,124.07744 z"
       id="path272"
       style="fill:#9f0000;stroke:#000000;stroke-width:0.20242883;stroke-linecap:butt" /><path
       d="M -74.210611,111.15028 C -73.958674,111.02275 -73.576103,110.89834 -73.324166,110.89834 -73.196643,110.64329 -73.196643,110.39136 -73.196643,110.13631 -72.310198,110.26383 -71.67569,110.51577 -71.296229,110.64329 -71.296229,110.89834 -71.168706,111.15028 -71.041182,111.2778 -70.916769,111.15028 -70.916769,111.15028 -70.789245,111.02275 -70.409785,111.2778 -69.9028,111.52974 -69.647753,111.65726 -69.52023,111.91231 -69.395816,112.29177 -69.395816,112.41929 -69.268293,112.41929 -69.013245,112.29177 -68.888832,112.16425 -68.381848,112.54371 -67.999277,113.05069 -67.74734,113.55768 -67.74734,113.81272 -67.74734,114.31971 -67.74734,114.57164 -67.619816,114.31971 -67.492293,114.19218 -67.240356,114.19218 -66.605848,114.82669 -66.098864,116.0926 -65.846927,116.7271 -66.226387,117.23409 -66.733372,117.74107 -66.985309,118.24806 -67.74734,118.12053 -68.633785,117.99612 -68.888832,118.12053 -69.268293,117.74107 -69.52023,117.36161 -69.775277,117.10656 -69.647753,116.7271 -69.647753,116.47517 -69.647753,116.22012 -69.775277,116.22012 -70.027214,116.22012 -70.027214,116.34764 -70.534198,115.84066 -71.041182,115.20615 -71.296229,115.07863 -71.296229,114.95421 -71.168706,114.69917 -71.168706,114.57164 -71.423753,114.57164 -71.67569,114.44723 -71.803214,114.44723 -72.182674,113.94025 -72.562135,113.43326 -72.817182,113.17821 -72.689658,113.05069 -72.437721,112.79875 -72.310198,112.67123 -72.437721,112.67123 -72.689658,112.54371 -72.944706,112.54371 -73.703627,111.78479 -73.83115,111.52974 -74.210611,111.15028 z"
       id="path277"
       style="fill:#009200;stroke:#000000;stroke-width:0.20242883;stroke-linecap:butt" /><path
       d="M -66.480502,120.40196 C -66.732438,117.6151 -70.660788,112.54526 -73.323233,110.89679 -70.660788,112.41774 -66.480502,117.10812 -66.225454,120.40196 -66.352978,120.52949 -66.352978,120.52949 -66.480502,120.40196 z"
       id="path282"
       style="fill:#000000;stroke:#000000;stroke-width:0.20242883;stroke-linecap:butt" /><path
       d="M -72.181741,99.362428 C -73.830217,100.63144 -73.57828,102.53186 -73.071296,103.4183 -73.195709,104.18033 -72.564312,104.93925 -71.80228,105.1943 -71.929804,105.95322 -71.167772,107.47418 -70.408851,107.85675 -70.408851,108.61567 -69.901867,109.12265 -69.774343,109.62964 -69.64682,110.13662 -69.139836,110.89865 -68.887899,111.15059 -68.760375,111.40564 -68.380914,111.65757 -68.125867,111.15059 -67.746407,110.6436 -67.239422,110.0091 -67.746407,108.99513 -67.239422,108.23621 -67.239422,107.34976 -67.366946,106.71525 -66.859962,105.95322 -66.859962,105.06678 -67.366946,104.55979 -67.366946,103.29389 -67.49447,102.40433 -68.253391,102.02487 -68.632851,101.0109 -69.774343,100.88338 -70.281328,100.88338 -71.167772,99.869413 -71.42282,99.617476 -72.181741,99.362428 z"
       id="path287"
       style="fill:#ffffff;stroke:#000000;stroke-width:0.20242883;stroke-linecap:butt" /><path
       d="M -70.408229,107.8555 C -71.170261,107.47604 -71.929182,105.95509 -71.801658,105.19306 -71.422198,105.06864 -70.915214,104.94112 -70.663277,104.43414 -70.78769,104.68607 -70.915214,105.06864 -71.042737,105.19306 -70.663277,105.06864 -70.408229,104.8136 -70.280706,104.56166 -70.408229,105.06864 -70.78769,105.44811 -71.042737,105.57563 -71.294674,105.82757 -71.294674,105.95509 -70.915214,105.82757 -70.535753,105.70004 -70.156292,105.57563 -70.028769,105.32058 -70.408229,105.70004 -70.535753,106.08261 -70.663277,106.20703 -70.78769,106.46207 -70.915214,106.71401 -70.408229,106.33455 -69.901245,105.95509 -69.521785,106.08261 -70.028769,106.33455 -70.408229,106.71401 -70.663277,107.34852 -70.280706,106.96906 -69.773722,106.5896 -69.266737,106.08261 -69.773722,106.84153 -70.280706,107.47604 -70.408229,107.60357 -70.408229,107.8555 z"
       id="path292"
       style="fill:#9f0000;stroke:#000000;stroke-width:0.20242883;stroke-linecap:butt" /><path
       d="M -67.367257,104.56011 C -67.367257,103.2942 -67.494781,102.40465 -68.253702,102.02518 -68.633163,101.01122 -69.774655,100.88369 -70.281639,100.88369 -70.154115,101.13874 -69.902178,101.39068 -70.029702,101.77325 -70.281639,102.15271 -70.154115,102.40465 -69.774655,102.02518 -69.522718,101.77325 -69.267671,101.64572 -69.395194,102.15271 -69.522718,102.53217 -69.267671,102.53217 -69.015734,102.15271 -68.760686,101.89766 -68.508749,102.28023 -68.760686,102.65969 -68.88821,103.03915 -69.015734,103.2942 -68.508749,102.91163 -68.126179,102.65969 -67.874242,102.78722 -68.001765,103.03915 -68.001765,103.2942 -68.001765,103.54614 -68.508749,103.67366 -69.015734,103.9256 -69.015734,104.18064 -68.508749,104.05312 -68.126179,103.9256 -67.619194,104.30817 -68.001765,104.56011 -68.381226,104.81515 -68.508749,105.06709 -68.126179,104.81515 -67.746718,104.56011 -67.619194,104.56011 -67.367257,104.56011 z"
       id="path297"
       style="fill:#9f0000;stroke:#000000;stroke-width:0.20242883;stroke-linecap:butt" /><path
       d="M -75.350236,91.252236 -75.350236,91.886744 C -75.732807,92.138681 -76.239791,92.266205 -76.491728,92.393728 -75.984744,92.900713 -75.098299,93.53522 -74.970775,93.787157 -74.718838,93.914681 -74.336268,93.914681 -74.211854,93.914681 -74.336268,94.042205 -74.463791,94.294142 -74.718838,94.421665 -74.336268,94.928649 -73.577346,95.687571 -73.322299,95.942618 -73.197886,95.942618 -72.942839,95.942618 -72.690902,95.942618 -72.815315,96.194555 -72.815315,96.449602 -72.942839,96.577126 -72.435854,96.956586 -71.676933,97.591094 -71.54941,97.843031 -71.294362,97.715507 -71.169949,97.591094 -71.042425,97.591094 -70.787378,98.098078 -70.787378,98.477539 -70.662965,99.363984 -69.521473,99.870968 -68.507504,99.363984 -67.872997,99.619031 -67.62106,98.856999 -67.238489,98.098078 -66.986552,97.843031 -67.366012,96.701539 -68.128044,95.435634 -68.759441,94.928649 -68.886965,95.056173 -69.014489,95.30811 -69.142012,95.30811 -69.266426,95.056173 -69.266426,94.421665 -69.266426,94.294142 -69.900933,93.53522 -70.407918,93.15265 -70.787378,92.900713 -70.787378,93.028236 -71.042425,93.280173 -71.169949,93.407697 -71.294362,92.900713 -71.421886,92.521252 -71.54941,92.266205 -72.056394,92.138681 -72.563378,92.014268 -72.815315,91.759221 -72.942839,91.886744 -73.070362,92.266205 -73.070362,92.266205 -73.197886,92.014268 -73.322299,91.631697 -73.449823,91.507284 -74.211854,91.252236 -74.843252,91.252236 -75.350236,91.252236 z"
       id="path302"
       style="fill:#009200;stroke:#000000;stroke-width:0.20242883;stroke-linecap:butt" /><path
       d="M -67.111899,102.15209 C -67.366946,98.603196 -73.57828,93.02637 -75.35117,91.884878 -73.071296,93.153894 -67.366946,98.223736 -66.859962,102.02456 -66.987486,102.02456 -66.987486,102.02456 -67.111899,102.15209 z"
       id="path307"
       style="fill:#000000;stroke:#000000;stroke-width:0.20242883;stroke-linecap:butt" /><path
       d="M -119.32994,142.71023 C -118.31597,144.9901 -116.92254,146.89052 -115.40159,148.53899 -113.88063,146.63858 -112.61162,145.87655 -111.8527,145.24515 -111.21819,144.61064 -110.58368,142.96217 -113.37365,140.17531 -116.79501,136.75083 -118.57101,137.89233 -119.58498,140.04779 -119.83692,140.68229 -119.7094,141.9482 -119.32994,142.71023 z"
       id="path312"
       style="fill:#9f0000;stroke:#000000;stroke-width:0.20242883;stroke-linecap:butt" /><path
       d="M -65.590946,142.71023 C -66.604914,144.9901 -68.001454,146.89052 -69.522406,148.53899 -71.043359,146.63858 -72.309264,145.87655 -73.071296,145.24515 -73.702693,144.61064 -74.337201,142.96217 -71.550343,140.17531 -68.253391,136.75083 -66.352977,137.89233 -65.339009,140.04779 -65.083962,140.68229 -65.211485,141.9482 -65.590946,142.71023 z"
       id="path317"
       style="fill:#9f0000;stroke:#000000;stroke-width:0.20242883;stroke-linecap:butt" /><path
       d="M -111.85124,145.24515 C -111.85124,145.24515 -111.85124,145.24515 -111.72682,145.11763 -112.8652,146.00407 -115.7827,143.97614 -117.0486,142.20325 -117.30365,143.21721 -117.68311,144.10366 -118.06257,144.9901 -117.68311,145.62461 -117.30365,146.25912 -116.79666,146.89052 -116.41409,147.52503 -115.90711,148.03201 -115.40013,148.53899 -113.87917,146.63858 -112.61327,145.87655 -111.85124,145.24515 z"
       id="path322"
       style="fill:#f7d117;stroke:#000000;stroke-width:0.20242883;stroke-linecap:butt" /><path
       d="M -73.069118,145.24515 C -73.069118,145.24515 -73.069118,145.24515 -73.196642,145.11763 -72.05515,146.00407 -69.140768,143.97614 -67.874863,142.20325 -67.619816,143.21721 -67.240355,144.10366 -66.860895,144.9901 -67.240355,145.62461 -67.619816,146.25912 -68.1268,146.89052 -68.506261,147.52503 -69.013245,148.03201 -69.520229,148.53899 -71.041182,146.63858 -72.310197,145.87655 -73.069118,145.24515 z"
       id="path327"
       style="fill:#f7d117;stroke:#000000;stroke-width:0.20242883;stroke-linecap:butt" /><path
       d="M -92.461109,157.40963 C -87.011806,157.40963 -76.872122,156.27125 -69.901867,149.04595 -69.774343,148.91842 -69.64682,148.66649 -69.522406,148.53896 -68.001454,146.89049 -66.604915,144.99007 -65.590946,142.7102 -65.211486,141.94817 -65.083962,140.68226 -65.339009,140.04775 -64.452564,142.20322 -63.183549,145.49706 -61.535073,147.14553 -60.269167,148.1595 -61.155612,149.30099 -61.917643,150.43938 -66.480501,156.52319 -74.209678,165.6489 -92.461109,165.6489 -110.71254,165.6489 -118.44172,156.52319 -123.00457,150.43938 -123.76661,149.30099 -124.65305,148.1595 -123.38714,147.14553 -121.73867,145.49706 -120.46965,142.20322 -119.58321,140.04775 -119.83826,140.68226 -119.71073,141.94817 -119.33127,142.7102 -118.3173,144.99007 -116.92076,146.89049 -115.39981,148.53896 -115.2754,148.66649 -115.14787,148.91842 -115.02035,149.04595 -108.0501,156.27125 -97.910411,157.40963 -92.461109,157.40963 z"
       id="path332"
       style="fill:#f7d117;stroke:#000000;stroke-width:0.20242883;stroke-linecap:butt" /><g
       transform="matrix(0.31103325,0,0,0.31103325,-122.49914,70.873537)"
       id="shape95-132"><title
   id="title341">21330776</title>
						
						<path
   d="M 3.67,253.78 4.48,254.59 3.67,255 0,250.11 0.81,249.7 1.63,250.52 C 2.04,250.93 2.44,251.33 2.85,250.93 L 10.59,245.22 C 11,244.81 11.41,244.41 11,244 9.78,242.37 8.15,242.78 5.7,244 L 5.3,243.59 9.78,240.74 15.89,249.3 11.82,252.56 11.41,251.74 C 13.45,249.7 14.26,248.07 13.04,246.85 12.63,246.44 12.22,246.44 11.82,246.85 L 4.07,252.56 C 3.26,252.96 3.26,253.37 3.67,253.78 z"
   id="path343"
   style="fill:#000000;stroke:none" />
					</g><g
       transform="matrix(0.31103325,0,0,0.31103325,-119.58411,74.549017)"
       id="shape96-134"><title
   id="title346">21330688</title>
						
						<path
   d="M 12.22,248.48 C 13.85,247.26 13.85,246.44 13.04,245.22 L 13.45,244.81 16.71,248.48 16.3,248.89 C 15.08,247.67 14.26,248.07 13.04,249.3 L 9.37,252.56 C 6.93,255 4.48,255 2.44,252.96 0,250.52 0,248.07 1.63,246.44 L 7.33,241.15 C 8.15,240.74 8.15,240.33 7.33,239.52 L 6.93,239.11 7.33,238.29 11.41,242.78 11,243.18 10.19,242.37 C 9.78,241.96 9.37,241.96 8.96,242.37 L 3.67,247.67 C 1.63,249.3 1.63,250.93 3.26,252.56 4.48,253.78 6.93,253.78 8.15,252.56 L 12.22,248.48 z"
   id="path348"
   style="fill:#000000;stroke:none" />
					</g><g
       transform="matrix(0.31103325,0,0,0.31103325,-115.27496,77.210559)"
       id="shape97-136"><title
   id="title351">21330600</title>
						
						<path
   d="M 9.78,245.22 13.85,248.07 13.04,248.89 C 12.22,248.07 11.82,248.07 11,248.48 L 0.41,255 0,254.59 3.67,242.37 C 4.07,241.96 4.07,241.55 2.85,240.74 L 3.67,239.92 7.74,243.59 7.33,244 6.93,244 C 6.52,243.59 6.11,243.18 6.11,243.18 5.7,243.18 5.7,243.59 5.7,243.59 5.7,243.59 5.3,244 5.3,244 L 2.44,252.56 9.78,248.07 C 9.78,248.07 10.19,248.07 10.19,247.67 10.19,247.67 10.19,247.26 10.19,247.26 10.59,246.85 10.19,246.44 9.37,246.04 L 9.78,245.22 z"
   id="path353"
   style="fill:#000000;stroke:none" />
					</g><g
       transform="matrix(0.31103325,0,0,0.31103325,-110.07859,81.646463)"
       id="shape98-138"><title
   id="title356">21330512</title>
						
						<path
   d="M 4.07,251.33 C 4.07,251.74 4.07,251.74 5.3,252.56 L 5.7,252.56 C 8.56,253.78 9.78,252.96 11,250.52 L 11.82,250.93 9.37,255 0,250.93 0.41,250.11 1.22,250.52 C 1.63,250.93 2.04,250.52 2.44,250.11 L 6.52,241.15 C 6.93,240.74 6.52,240.33 6.11,239.92 L 5.3,239.52 5.3,238.7 11,241.15 10.59,241.96 9.37,241.55 C 8.96,241.15 8.56,241.55 8.56,241.96 L 4.07,251.33 z"
   id="path358"
   style="fill:#000000;stroke:none" />
					</g><g
       transform="matrix(0.31103325,0,0,0.31103325,-105.89615,83.040604)"
       id="shape99-140"><title
   id="title361">21330424</title>
						
						<path
   d="M 11.41,245.22 C 11.82,243.59 11.82,242.78 10.19,242.37 L 10.59,241.55 15.08,243.18 14.67,244 C 13.45,243.18 12.63,244 12.22,245.63 L 10.59,250.52 C 9.37,253.78 7.33,255 4.48,253.78 1.63,252.96 0,251.33 0.81,248.89 L 3.26,241.15 C 3.67,240.74 3.26,240.33 2.85,239.92 L 1.63,239.52 2.04,238.7 7.74,240.74 7.33,241.55 6.52,241.15 C 5.7,241.15 5.3,241.15 5.3,241.96 L 2.85,248.89 C 2.44,250.93 2.85,252.56 5.3,253.37 6.93,253.78 8.96,252.56 9.37,250.93 L 11.41,245.22 z"
   id="path363"
   style="fill:#000000;stroke:none" />
					</g><g
       transform="matrix(0.31103325,0,0,0.31103325,-98.671971,84.561488)"
       id="shape100-142"><title
   id="title366">21330336</title>
						
						<path
   d="M 16.71,241.55 16.71,242.37 15.48,242.37 C 15.08,242.37 14.67,242.37 14.67,243.18 L 13.85,252.96 C 13.45,253.37 13.85,253.78 14.67,253.78 L 15.48,254.19 15.48,255 9.78,254.19 9.78,253.37 10.59,253.37 C 11.41,253.78 11.82,253.37 11.82,252.56 L 12.63,241.96 7.74,254.19 6.93,254.19 4.07,241.15 3.26,250.52 C 3.26,252.15 3.67,252.96 4.89,252.96 L 4.89,253.78 0,253.37 0,252.56 C 1.63,252.56 2.04,252.15 2.44,250.11 L 3.26,241.96 C 3.26,241.55 2.85,241.15 2.04,241.15 L 1.22,241.15 1.22,240.33 5.7,240.74 8.15,250.52 12.22,241.15 13.45,241.15 16.71,241.55 z"
   id="path368"
   style="fill:#000000;stroke:none" />
					</g><g
       transform="matrix(0.31103325,0,0,0.31103325,-93.22214,84.561488)"
       id="shape101-144"><title
   id="title371">21330248</title>
						
						<path
   d="M 6.52,254.19 C 8.96,254.19 9.78,251.74 9.78,247.67 9.78,244 8.56,241.96 6.11,241.96 3.67,241.96 2.44,244.41 2.44,248.07 2.44,251.74 3.67,254.19 6.52,254.19 L 6.52,255 C 2.85,255 0.41,252.15 0,248.07 0,244.41 2.44,241.15 6.11,241.15 9.37,241.15 12.22,244 12.22,247.67 12.22,251.74 9.78,254.59 6.52,255 L 6.52,254.19 z"
   id="path373"
   style="fill:#000000;stroke:none" />
					</g><g
       transform="matrix(0.31103325,0,0,0.31103325,-86.251325,83.801046)"
       id="shape102-146"><title
   id="title376">21330160</title>
						
						<path
   d="M 9.37,252.96 10.59,252.56 11,253.37 4.89,255 4.48,254.19 5.7,253.78 C 6.52,253.78 6.52,253.37 6.52,252.56 L 4.48,243.18 C 4.07,242.78 4.07,242.37 3.26,242.37 1.63,242.78 1.22,244.41 1.22,247.26 L 0.81,247.26 0,242.37 10.19,239.92 11.41,244.81 10.59,245.22 C 9.78,242.37 8.56,241.15 6.93,241.55 6.11,241.55 6.11,242.37 6.52,242.78 L 8.56,252.15 C 8.56,252.96 8.96,252.96 9.37,252.96 z"
   id="path378"
   style="fill:#000000;stroke:none" />
					</g><g
       transform="matrix(0.31103325,0,0,0.31103325,-82.956239,83.040604)"
       id="shape103-148"><title
   id="title381">21330072</title>
						
						<path
   d="M 4.48,255 4.07,254.19 4.89,253.78 C 5.7,253.78 5.7,253.37 5.7,252.56 L 2.44,243.59 C 2.44,242.78 2.04,242.78 1.22,242.78 L 0.41,243.18 0,242.37 10.19,239.11 11.82,243.18 11.41,243.59 C 10.19,241.15 8.96,240.33 6.11,241.15 L 5.3,241.55 C 4.07,241.96 4.07,241.96 4.48,242.78 L 5.7,246.85 6.52,246.44 C 7.74,246.04 8.15,244.81 7.74,243.59 L 8.56,243.18 10.19,248.89 9.78,249.3 C 8.96,247.67 8.15,246.85 6.93,247.26 L 6.11,247.67 7.74,252.15 C 7.74,252.96 8.15,252.96 9.37,252.56 L 9.78,252.15 C 13.04,251.33 13.04,250.11 12.63,246.85 L 13.45,246.85 14.67,251.33 6.93,254.19 4.48,255 z"
   id="path383"
   style="fill:#000000;stroke:none" />
					</g><g
       transform="matrix(0.31103325,0,0,0.31103325,-73.450752,77.590766)"
       id="shape104-150"><title
   id="title386">21329984</title>
						
						<path
   d="M 13.45,251.33 14.26,250.52 14.67,251.33 9.78,255 9.37,254.19 10.19,253.78 C 10.59,253.37 11,252.96 10.59,252.15 L 4.48,244.41 C 4.07,244 3.67,244 3.26,244.41 2.04,245.22 2.04,247.26 3.67,249.7 L 2.85,250.11 0,245.63 8.15,239.52 11.82,243.18 11,243.59 C 8.96,241.55 7.33,241.15 6.11,241.96 5.7,242.37 5.7,242.78 6.11,243.18 L 12.22,250.93 C 12.63,251.74 13.04,251.74 13.45,251.33 z"
   id="path388"
   style="fill:#000000;stroke:none" />
					</g><g
       transform="matrix(0.31103325,0,0,0.31103325,-70.535748,74.675763)"
       id="shape105-152"><title
   id="title391">21329896</title>
						
						<path
   d="M 9.78,242.37 C 8.56,241.15 7.74,241.15 6.52,242.37 L 6.11,241.55 9.37,238.29 10.19,238.7 C 8.96,239.92 8.96,240.74 10.59,241.96 L 14.26,245.22 C 16.71,247.67 16.71,250.11 14.67,252.56 12.22,254.59 10.19,255 8.15,253.37 L 2.44,247.67 C 2.04,247.26 1.63,247.26 1.22,247.67 L 0.41,248.48 0,248.07 4.07,243.59 4.48,244.41 4.07,245.22 C 3.67,245.63 3.67,246.04 4.07,246.44 L 9.37,251.33 C 11,252.96 12.63,252.96 14.26,251.33 15.48,250.11 15.48,248.07 13.85,246.44 L 9.78,242.37 z"
   id="path393"
   style="fill:#000000;stroke:none" />
					</g><g
       transform="matrix(0.31103325,0,0,0.31103325,-113.88081,80.125594)"
       id="shape106-154"><title
   id="title396">21329808</title>
						
						<path
   d="M 10.59,252.96 12.63,240.33 12.22,239.92 2.85,246.85 C 2.04,248.07 1.22,248.07 0.41,247.67 L 0,248.48 3.67,250.93 4.07,250.11 C 3.67,249.7 3.26,249.3 3.26,248.89 3.26,248.89 3.26,248.48 3.26,248.07 3.26,248.07 3.67,248.07 3.67,247.67 L 5.3,246.44 7.33,247.67 7.74,246.85 6.11,246.04 10.19,242.37 9.37,248.07 7.74,246.85 7.33,247.67 8.96,248.89 8.56,251.33 C 8.56,251.74 8.56,251.74 8.56,252.15 8.15,252.15 8.15,252.15 8.15,252.15 7.74,252.15 7.33,251.74 6.52,251.74 L 6.11,252.15 11,255 11.41,254.59 C 11,254.19 10.19,253.78 10.59,252.96 z"
   id="path398"
   style="fill:#000000;stroke:none" />
					</g><g
       transform="matrix(0.31103325,0,0,0.31103325,-75.351787,80.379055)"
       id="shape107-156"><title
   id="title401">21329720</title>
						
						<path
   d="M 12.63,247.67 C 12.22,247.67 11.41,248.07 11,247.67 L 0.81,239.52 0,239.92 2.44,251.33 C 2.44,252.96 2.44,253.78 1.63,254.19 L 2.04,255 6.11,252.56 5.3,251.74 C 4.89,252.15 4.48,252.15 4.07,252.15 3.67,252.15 3.67,252.15 3.67,251.74 3.26,251.74 3.26,251.33 3.26,251.33 L 2.85,249.3 4.89,248.07 4.48,247.26 2.85,248.07 1.63,242.78 6.11,246.44 4.48,247.26 4.89,248.07 6.93,246.85 8.96,248.48 C 8.96,248.48 8.96,248.89 9.37,248.89 9.37,249.3 9.37,249.3 9.37,249.3 8.96,249.7 8.56,250.11 8.15,250.11 L 8.56,250.93 13.04,248.07 12.63,247.67 z"
   id="path403"
   style="fill:#000000;stroke:none" />
					</g><g
       transform="matrix(0.31103325,0,0,0.31103325,-66.860268,72.140935)"
       id="shape108-158"><title
   id="title406">21329632</title>
						
						<path
   d="M 14.67,244.41 C 14.26,244.81 13.85,245.22 13.04,245.22 L 0.41,241.55 0,242.37 6.52,251.74 C 7.33,252.96 7.33,253.78 6.93,254.59 L 7.33,255 10.19,251.33 9.37,250.93 9.37,251.33 C 8.96,251.33 8.96,251.74 8.56,251.74 8.15,252.15 8.15,251.74 7.74,251.74 7.74,251.74 7.33,251.33 7.33,251.33 L 6.11,249.7 7.33,247.67 6.93,247.26 5.7,248.89 2.44,244 7.74,245.63 6.93,247.26 7.33,247.67 8.96,246.04 11.41,246.85 C 11.41,246.85 11.82,246.85 11.82,246.85 12.22,247.26 12.22,247.26 12.22,247.26 11.82,247.67 11.82,248.07 11.41,248.48 L 11.82,249.3 15.08,244.81 14.67,244.41 z"
   id="path408"
   style="fill:#000000;stroke:none" />
					</g><path
       d="M -100.95405,161.59364 C -100.82653,161.59364 -100.57459,161.46612 -100.57459,161.34171 -100.57459,161.08666 -100.82653,160.95914 -100.95405,160.95914 -101.20599,160.95914 -101.33351,161.08666 -101.33351,161.34171 -101.33351,161.46612 -101.20599,161.59364 -100.95405,161.59364 z"
       id="path413"
       style="fill:#000000;stroke:none" /><path
       d="M -87.520341,161.97386 C -87.265294,161.97386 -87.13777,161.84634 -87.13777,161.5944 -87.13777,161.46688 -87.265294,161.33935 -87.520341,161.33935 -87.644754,161.33935 -87.772278,161.46688 -87.772278,161.5944 -87.772278,161.84634 -87.644754,161.97386 -87.520341,161.97386 z"
       id="path418"
       style="fill:#000000;stroke:none" /><path
       d="M -76.746771,159.05883 C -76.619248,159.05883 -76.491724,158.8069 -76.491724,158.67937 -76.491724,158.42433 -76.619248,158.29991 -76.746771,158.29991 -76.998708,158.29991 -77.126232,158.42433 -77.126232,158.67937 -77.126232,158.8069 -76.998708,159.05883 -76.746771,159.05883 z"
       id="path423"
       style="fill:#000000;stroke:none" /><path
       d="M -100.46513,142.71977 C -101.48121,141.69542 -102.48691,141.56615 -103.00601,141.628 -103.82367,141.01175 -104.18378,140.83688 -104.43366,140.80477 -104.70288,140.89873 -104.81311,140.75599 -105.39098,140.29913 -105.86131,139.98153 -106.96137,139.58612 -107.07438,140.46533 -107.17113,141.21806 -106.73292,141.78554 -106.38907,142.08688 -106.02897,142.26175 -105.9346,142.52788 -105.8565,142.92051 -105.77879,143.31621 -105.60941,143.97458 -105.01259,144.30844 -104.8436,144.96989 -104.59342,146.02436 -103.58773,146.15363 -102.96427,147.25608 -102.22432,147.47662 -101.72147,147.54126 -101.34511,147.58964 -101.09523,147.62176 -100.73204,147.79701 -100.35567,147.84539 -99.710085,147.7998 -98.860602,147.14383 -97.368319,147.46422 -96.362625,147.59349 -96.408214,146.9479 -96.311063,146.19209 -96.006932,144.82629 -97.545202,143.86339 -98.031791,143.67228 -98.391897,143.49741 -98.719884,143.07267 -99.04787,142.64793 -99.803684,142.55078 -100.46513,142.71977 z"
       id="path431"
       style="fill:#ffffff;stroke:#000000;stroke-width:0.20242885;stroke-linecap:butt" /><path
       d="M -100.46447,142.71923 C -101.48363,141.69449 -102.48933,141.56522 -103.00843,141.62706 -103.32295,142.09779 -103.12144,142.50627 -103.04334,142.8989 -102.99496,142.52253 -102.9787,142.39605 -102.83636,142.28891 -102.69362,142.17868 -102.42748,142.08432 -102.58648,142.32103 -102.6186,142.57091 -102.66698,142.94727 -102.57301,143.2165 -102.52463,142.84013 -102.49211,142.58717 -102.22289,142.4932 -102.08363,142.38566 -101.95715,142.40192 -102.10228,143.53101 -101.58078,142.4503 -101.16882,142.24611 -101.55384,144.24124 -101.19095,143.39415 -101.01609,143.03404 -100.92451,144.32213 -100.93798,143.42666 -100.99983,142.90756 -100.46447,142.71923 z"
       id="path436"
       style="fill:#9f0000;stroke:#000000;stroke-width:0.20242885;stroke-linecap:butt" /><path
       d="M -98.86159,147.1437 C -99.711073,147.79967 -100.35666,147.84526 -100.73303,147.79689 -101.09313,147.62203 -101.3461,147.58951 -101.72246,147.54113 -102.22531,147.4765 -102.96526,147.25595 -103.58872,146.1535 -103.3976,145.66691 -103.24169,145.42981 -103.09894,145.31958 -103.29006,145.80617 -103.00777,146.61076 -102.53425,145.90332 -102.59888,146.40617 -102.1123,146.59729 -102.14481,146.85025 -102.16067,146.97365 -101.91079,147.00577 -101.75219,146.77215 -101.59319,146.53544 -101.56107,146.28556 -101.54481,146.15907 -101.48297,146.67818 -101.37583,146.82052 -101.13912,146.97952 -101.0285,147.11918 -100.9051,147.13504 -100.85672,146.75868 -100.8246,146.5088 -100.55538,146.41483 -100.46101,146.68097 -100.37013,146.94979 -100.11717,146.98231 -100.21113,146.71309 -100.28924,146.32046 -100.13064,146.08684 -100.03627,146.35298 -99.818907,146.63807 -99.724543,146.90421 -98.86159,147.1437 z"
       id="path441"
       style="fill:#9f0000;stroke:#000000;stroke-width:0.20242885;stroke-linecap:butt" /><path
       d="M -100.45278,143.61514 C -100.26445,144.15051 -99.186918,145.69704 -98.070602,145.96597 -97.710496,146.14083 -97.490046,146.42631 -97.288542,146.83479 -97.194179,147.10093 -96.834073,147.27579 -96.987199,146.49095 -97.143014,145.70262 -97.828319,144.08106 -98.895861,143.43269 -99.960318,142.78471 -100.63803,143.08018 -100.45278,143.61514 z"
       id="path446"
       style="fill:#9f0000;stroke:#000000;stroke-width:0.20242885;stroke-linecap:butt" /><path
       d="M -98.2575,145.43166 C -98.741302,144.21859 -99.540016,143.47933 -99.900122,143.30447 -100.40297,143.23983 -100.30861,143.50597 -99.981016,143.9338 -99.416321,144.51754 -98.744089,145.24054 -98.2575,145.43166 z"
       id="path451"
       style="fill:#000000;stroke:#000000;stroke-width:0.20242885;stroke-linecap:butt" /><path
       d="M -104.39325,142.47143 C -104.42537,142.72132 -104.31514,142.86406 -104.28302,142.61418 -104.23425,142.23473 -104.34487,142.09507 -104.39325,142.47143 z"
       id="path456"
       style="fill:#9f0000;stroke:#000000;stroke-width:0.20242885;stroke-linecap:butt" /><path
       d="M -104.95867,141.88763 C -104.75129,141.27456 -105.01743,141.36892 -105.19229,141.72903 -105.24067,142.10539 -105.13044,142.24813 -104.95867,141.88763 z"
       id="path461"
       style="fill:#9f0000;stroke:#000000;stroke-width:0.20242885;stroke-linecap:butt" /><path
       d="M -105.77398,141.27171 C -105.7256,140.89534 -105.97548,140.86323 -106.02386,141.23959 -106.05598,141.48947 -105.94576,141.63221 -105.77398,141.27171 z"
       id="path466"
       style="fill:#9f0000;stroke:#000000;stroke-width:0.20242885;stroke-linecap:butt" /><path
       d="M -105.33761,142.8596 C -105.37013,143.11257 -105.29202,143.50519 -105.12025,143.14469 -105.07187,142.76832 -105.30549,142.60972 -105.33761,142.8596 z"
       id="path471"
       style="fill:#9f0000;stroke:#000000;stroke-width:0.20242885;stroke-linecap:butt" /><path
       d="M -104.64811,143.46014 C -104.68063,143.7131 -104.33638,144.01136 -104.28801,143.635 -104.22337,143.13215 -104.47325,143.10003 -104.64811,143.46014 z"
       id="path476"
       style="fill:#9f0000;stroke:#000000;stroke-width:0.20242885;stroke-linecap:butt" /><path
       d="M -103.62983,144.48551 C -103.85068,144.20311 -104.14894,144.54736 -103.78883,144.72222 -103.44459,145.02047 -103.17536,144.92651 -103.62983,144.48551 z"
       id="path481"
       style="fill:#9f0000;stroke:#000000;stroke-width:0.20242885;stroke-linecap:butt" /><path
       d="M -103.00056,144.56639 C -103.15956,144.8031 -102.81532,145.10136 -102.76694,144.725 -102.7023,144.22215 -102.96844,144.31651 -103.00056,144.56639 z"
       id="path486"
       style="fill:#9f0000;stroke:#000000;stroke-width:0.20242885;stroke-linecap:butt" /><path
       d="M -102.23613,145.55993 C -102.50227,145.65429 -102.28451,145.93629 -102.14177,145.82607 -101.87294,145.73518 -101.95065,145.33948 -102.23613,145.55993 z"
       id="path491"
       style="fill:#9f0000;stroke:#000000;stroke-width:0.20242885;stroke-linecap:butt" /><path
       d="M -116.41648,120.53011 C -116.66842,120.65763 -116.5409,120.90957 -116.28896,120.65763 -115.9095,120.40258 -116.16144,120.27506 -116.41648,120.53011 z"
       id="path496"
       style="fill:#9f0000;stroke:#000000;stroke-width:0.20242883;stroke-linecap:butt" /><path
       d="M -115.90876,121.28996 C -116.28822,121.54501 -116.03628,121.79695 -115.78124,121.54501 -115.40178,121.41749 -115.65371,121.03802 -115.90876,121.28996 z"
       id="path501"
       style="fill:#9f0000;stroke:#000000;stroke-width:0.20242883;stroke-linecap:butt" /><path
       d="M -116.66997,122.303 C -116.92191,122.55804 -116.79439,122.9375 -116.54245,122.68557 -116.2874,122.43052 -116.41493,122.05106 -116.66997,122.303 z"
       id="path506"
       style="fill:#9f0000;stroke:#000000;stroke-width:0.20242883;stroke-linecap:butt" /><path
       d="M -115.78278,122.43145 C -115.9072,122.55898 -116.03472,122.81091 -115.65526,122.55898 -115.2758,122.43145 -115.40021,122.17641 -115.78278,122.43145 z"
       id="path511"
       style="fill:#9f0000;stroke:#000000;stroke-width:0.20242883;stroke-linecap:butt" /><path
       d="M -116.28896,123.191 C -116.66842,123.31852 -116.5409,123.69798 -116.16144,123.44604 -115.9095,123.191 -116.03391,122.93906 -116.28896,123.191 z"
       id="path516"
       style="fill:#9f0000;stroke:#000000;stroke-width:0.20242883;stroke-linecap:butt" /><path
       d="M -116.28977,124.45752 C -116.54171,124.71257 -116.28977,125.09203 -116.03473,124.84009 -115.78279,124.71257 -115.9072,124.20559 -116.28977,124.45752 z"
       id="path521"
       style="fill:#9f0000;stroke:#000000;stroke-width:0.20242883;stroke-linecap:butt" /><path
       d="M -115.40258,124.83792 C -115.65452,125.09297 -115.527,125.47243 -115.27506,125.09297 -114.8956,124.83792 -115.02001,124.45846 -115.40258,124.83792 z"
       id="path526"
       style="fill:#9f0000;stroke:#000000;stroke-width:0.20242883;stroke-linecap:butt" /><path
       d="M -115.27583,126.10538 C -115.52777,126.36043 -115.40025,126.73989 -115.14831,126.48795 -114.76885,126.2329 -115.02079,125.98097 -115.27583,126.10538 z"
       id="path531"
       style="fill:#9f0000;stroke:#000000;stroke-width:0.20242883;stroke-linecap:butt" /><path
       d="M -112.61196,124.96575 C -113.24647,125.47274 -112.86701,126.99369 -112.2325,127.75261 -111.72552,128.38712 -111.59799,128.64217 -111.59799,128.8941 -111.59799,129.27356 -111.47358,129.65613 -111.59799,129.78055 -111.59799,129.90807 -111.34606,130.41505 -111.21853,129.65613 -110.71155,128.00766 -110.83907,126.35918 -111.59799,125.34521 -111.98056,124.83823 -112.48755,124.83823 -112.61196,124.96575 z"
       id="path536"
       style="fill:#9f0000;stroke:#000000;stroke-width:0.20242883;stroke-linecap:butt" /><path
       d="M -111.85148,127.88044 C -111.72706,126.48702 -111.72706,125.34552 -112.61351,125.09359 -112.99297,125.47305 -112.35846,127.12152 -111.85148,127.88044 z"
       id="path541"
       style="fill:#000000;stroke:#000000;stroke-width:0.20242883;stroke-linecap:butt" /><path
       d="M -115.78201,102.02456 C -116.16147,102.27961 -116.03395,102.65907 -115.78201,102.40713 -115.40255,102.15209 -115.40255,101.90015 -115.78201,102.02456 z"
       id="path546"
       style="fill:#9f0000;stroke:#000000;stroke-width:0.20242883;stroke-linecap:butt" /><path
       d="M -116.54245,103.79994 C -116.92191,103.92746 -116.92191,104.30692 -116.54245,104.1794 -116.2874,103.92746 -116.16299,103.67242 -116.54245,103.79994 z"
       id="path551"
       style="fill:#9f0000;stroke:#000000;stroke-width:0.20242883;stroke-linecap:butt" /><path
       d="M -115.52932,103.03946 C -115.78126,103.16699 -115.78126,103.54645 -115.4018,103.29451 -115.02234,103.16699 -115.14675,102.91194 -115.52932,103.03946 z"
       id="path556"
       style="fill:#9f0000;stroke:#000000;stroke-width:0.20242883;stroke-linecap:butt" /><path
       d="M -116.54323,104.68763 C -116.79517,104.81515 -116.79517,105.06709 -116.41571,104.93957 -116.16066,104.81515 -116.28819,104.43258 -116.54323,104.68763 z"
       id="path561"
       style="fill:#9f0000;stroke:#000000;stroke-width:0.20242883;stroke-linecap:butt" /><path
       d="M -115.78278,104.05312 C -116.03472,104.30817 -115.9072,104.56011 -115.52774,104.43258 -115.2758,104.18065 -115.40021,103.80118 -115.78278,104.05312 z"
       id="path566"
       style="fill:#9f0000;stroke:#000000;stroke-width:0.20242883;stroke-linecap:butt" /><path
       d="M -116.92347,105.95353 C -117.17541,106.08106 -116.79595,106.58804 -116.5409,106.3361 -116.41649,106.20858 -116.66843,105.82912 -116.92347,105.95353 z"
       id="path571"
       style="fill:#9f0000;stroke:#000000;stroke-width:0.20242883;stroke-linecap:butt" /><path
       d="M -116.28977,106.58898 C -116.54171,106.7165 -116.41419,106.96844 -116.16225,106.84091 -115.9072,106.7165 -115.9072,106.46145 -116.28977,106.58898 z"
       id="path576"
       style="fill:#9f0000;stroke:#000000;stroke-width:0.20242883;stroke-linecap:butt" /><path
       d="M -113.62586,107.6017 C -114.26037,108.10868 -114.26037,110.0091 -114.00843,110.6436 -113.88091,111.27811 -113.75339,111.7851 -114.00843,112.16456 -114.13285,112.4196 -114.26037,113.17853 -113.62586,112.4196 -112.99446,111.65757 -112.10491,109.88468 -112.86694,108.23621 -112.99446,107.72922 -113.2464,107.34976 -113.62586,107.6017 z"
       id="path581"
       style="fill:#9f0000;stroke:#000000;stroke-width:0.20242883;stroke-linecap:butt" /><path
       d="M -113.75264,110.64392 C -113.88016,109.62995 -113.75264,108.61598 -113.62822,108.23652 -113.5007,107.85706 -113.37318,107.72953 -113.24565,108.23652 -112.99372,108.61598 -113.12124,110.13693 -113.75264,110.64392 z"
       id="path586"
       style="fill:#000000;stroke:#000000;stroke-width:0.20242883;stroke-linecap:butt" /><path
       d="M -103.61343,93.028548 C -103.48901,93.280485 -103.10644,93.152961 -103.36149,92.901024 -103.48901,92.521564 -103.74095,92.645977 -103.61343,93.028548 z"
       id="path591"
       style="fill:#9f0000;stroke:#000000;stroke-width:0.20242883;stroke-linecap:butt" /><path
       d="M -103.10647,92.521563 C -102.85453,92.7735 -102.34755,92.521563 -102.59948,92.394039 -102.85453,92.138992 -103.23399,92.266516 -103.10647,92.521563 z"
       id="path596"
       style="fill:#9f0000;stroke:#000000;stroke-width:0.20242883;stroke-linecap:butt" /><path
       d="M -101.58561,92.901646 C -101.58561,93.153583 -101.20615,93.026059 -101.33367,92.774122 -101.46119,92.519075 -101.71313,92.519075 -101.58561,92.901646 z"
       id="path601"
       style="fill:#9f0000;stroke:#000000;stroke-width:0.20242883;stroke-linecap:butt" /><path
       d="M -100.69842,92.775056 C -100.69842,93.026993 -100.44648,93.026993 -100.44648,92.775056 -100.574,92.520009 -100.82594,92.392485 -100.69842,92.775056 z"
       id="path606"
       style="fill:#9f0000;stroke:#000000;stroke-width:0.20242883;stroke-linecap:butt" /><path
       d="M -101.20538,93.786535 C -101.08096,93.914059 -100.82592,93.914059 -100.95344,93.662122 -101.08096,93.407075 -101.3329,93.534598 -101.20538,93.786535 z"
       id="path611"
       style="fill:#9f0000;stroke:#000000;stroke-width:0.20242883;stroke-linecap:butt" /><path
       d="M -100.19224,93.914992 C -100.06472,94.166929 -99.812779,94.294453 -99.940303,93.914992 -100.06472,93.408008 -100.19224,93.535532 -100.19224,93.914992 z"
       id="path616"
       style="fill:#9f0000;stroke:#000000;stroke-width:0.20242883;stroke-linecap:butt" /><path
       d="M -99.050814,93.789024 C -99.050814,94.040961 -98.671354,94.040961 -98.798877,93.789024 -98.926401,93.406453 -99.178338,93.533977 -99.050814,93.789024 z"
       id="path621"
       style="fill:#9f0000;stroke:#000000;stroke-width:0.20242883;stroke-linecap:butt" /><path
       d="M -109.19153,94.802681 C -108.4295,95.054618 -107.7981,94.802681 -107.29112,94.802681 -106.65661,94.802681 -105.38759,94.927095 -104.7562,95.182142 -104.24921,95.434079 -103.99416,95.689126 -104.88061,96.068587 -105.77016,96.575571 -107.16359,96.323634 -107.92251,95.941063 -108.55702,95.561602 -109.06401,95.309665 -109.31905,95.054618 -109.44347,94.802681 -109.57099,94.802681 -109.19153,94.802681 z"
       id="path626"
       style="fill:#9f0000;stroke:#000000;stroke-width:0.20242883;stroke-linecap:butt" /><path
       d="M -107.41643,95.055551 C -106.27494,95.814472 -105.00903,96.44898 -104.50205,95.435011 -105.13656,95.055551 -106.40246,94.928027 -107.41643,95.055551 z"
       id="path631"
       style="fill:#000000;stroke:#000000;stroke-width:0.20242883;stroke-linecap:butt" /><path
       d="M -82.068555,93.281106 C -82.068555,93.660567 -81.689094,93.533043 -81.816618,93.281106 -81.941031,93.026059 -82.068555,93.026059 -82.068555,93.281106 z"
       id="path636"
       style="fill:#9f0000;stroke:#000000;stroke-width:0.20242883;stroke-linecap:butt" /><path
       d="M -81.434669,92.901646 C -81.307145,93.153583 -80.927685,93.153583 -81.055208,92.901646 -81.182732,92.519075 -81.434669,92.774122 -81.434669,92.901646 z"
       id="path641"
       style="fill:#9f0000;stroke:#000000;stroke-width:0.20242883;stroke-linecap:butt" /><path
       d="M -80.166586,93.281106 C -80.042173,93.533043 -79.535189,93.660567 -79.787126,93.281106 -79.914649,92.901646 -80.29411,93.026059 -80.166586,93.281106 z"
       id="path646"
       style="fill:#9f0000;stroke:#000000;stroke-width:0.20242883;stroke-linecap:butt" /><path
       d="M -79.152618,93.154516 C -79.028205,93.406453 -78.645634,93.533977 -78.900681,93.154516 -79.028205,92.775056 -79.280142,92.899469 -79.152618,93.154516 z"
       id="path651"
       style="fill:#9f0000;stroke:#000000;stroke-width:0.20242883;stroke-linecap:butt" /><path
       d="M -79.533634,94.168484 C -79.533634,94.296008 -79.154173,94.547945 -79.281697,94.040961 -79.533634,93.6615 -79.533634,93.913437 -79.533634,94.168484 z"
       id="path656"
       style="fill:#9f0000;stroke:#000000;stroke-width:0.20242883;stroke-linecap:butt" /><path
       d="M -78.519043,94.295075 C -78.39463,94.422599 -78.012059,94.674536 -78.267106,94.295075 -78.39463,93.788091 -78.646567,93.915615 -78.519043,94.295075 z"
       id="path661"
       style="fill:#9f0000;stroke:#000000;stroke-width:0.20242883;stroke-linecap:butt" /><path
       d="M -77.505074,94.168484 C -77.505074,94.420421 -77.253137,94.547945 -77.253137,94.168484 -77.380661,93.6615 -77.632598,93.913437 -77.505074,94.168484 z"
       id="path666"
       style="fill:#9f0000;stroke:#000000;stroke-width:0.20242883;stroke-linecap:butt" /><path
       d="M -87.519101,95.182142 C -86.884594,95.434079 -86.884594,95.309665 -86.125672,95.309665 -85.236117,95.182142 -83.970212,95.309665 -83.463228,95.561602 -82.82872,95.816649 -82.576783,96.068586 -83.208181,96.448047 -83.842688,96.830618 -84.856657,97.082555 -86.125672,96.575571 -87.391578,95.941063 -87.519101,95.689126 -87.646625,95.434079 -87.898562,95.182142 -87.898562,95.054618 -87.519101,95.182142 z"
       id="path671"
       style="fill:#9f0000;stroke:#000000;stroke-width:0.20242883;stroke-linecap:butt" /><path
       d="M -85.870625,95.561602 C -85.618688,95.689126 -84.98418,96.068587 -84.60472,96.19611 -84.222149,96.448047 -83.335704,96.575571 -83.083767,96.19611 -82.956243,95.941063 -83.083767,95.81665 -83.715165,95.689126 -84.477196,95.434079 -85.236117,95.434079 -85.870625,95.561602 z"
       id="path676"
       style="fill:#000000;stroke:#000000;stroke-width:0.20242883;stroke-linecap:butt" /><path
       d="M -68.886654,105.06802 C -69.014178,105.31996 -68.886654,105.44748 -68.762241,105.31996 -68.507194,105.06802 -68.507194,104.68856 -68.886654,105.06802 z"
       id="path681"
       style="fill:#9f0000;stroke:#000000;stroke-width:0.20242883;stroke-linecap:butt" /><path
       d="M -68.255257,105.44748 C -68.507194,105.70253 -68.255257,105.95447 -68.127733,105.82694 -67.872686,105.70253 -68.00021,105.19555 -68.255257,105.44748 z"
       id="path686"
       style="fill:#9f0000;stroke:#000000;stroke-width:0.20242883;stroke-linecap:butt" /><path
       d="M -68.382158,106.84153 C -68.634095,106.96906 -68.506571,107.34852 -68.254634,107.221 -67.999587,107.09658 -67.999587,106.71401 -68.382158,106.84153 z"
       id="path691"
       style="fill:#9f0000;stroke:#000000;stroke-width:0.20242883;stroke-linecap:butt" /><path
       d="M -68.001765,107.7286 C -68.253702,107.85612 -68.253702,108.23558 -68.001765,108.10806 -67.746718,107.85612 -67.746718,107.60108 -68.001765,107.7286 z"
       id="path696"
       style="fill:#9f0000;stroke:#000000;stroke-width:0.20242883;stroke-linecap:butt" /><path
       d="M -69.015733,107.60263 C -69.26767,107.73016 -69.015733,107.98209 -68.760686,107.73016 -68.633162,107.60263 -68.888209,107.34758 -69.015733,107.60263 z"
       id="path701"
       style="fill:#9f0000;stroke:#000000;stroke-width:0.20242883;stroke-linecap:butt" /><path
       d="M -69.015111,108.61505 C -69.267048,108.87009 -69.394572,109.24955 -68.887588,108.99762 -68.508127,108.61505 -68.508127,108.36311 -69.015111,108.61505 z"
       id="path706"
       style="fill:#9f0000;stroke:#000000;stroke-width:0.20242883;stroke-linecap:butt" /><path
       d="M -68.635651,109.63057 C -68.760064,109.75809 -68.887588,110.01003 -68.635651,109.88251 -68.380604,109.75809 -68.380604,109.50305 -68.635651,109.63057 z"
       id="path711"
       style="fill:#9f0000;stroke:#000000;stroke-width:0.20242883;stroke-linecap:butt" /><path
       d="M -72.184229,99.996625 C -72.691213,100.75866 -73.450134,103.03853 -72.436166,104.0525 -71.422197,105.19399 -71.294674,104.94205 -71.294674,104.18002 -71.17026,103.29358 -71.294674,102.15209 -71.677244,101.6451 -71.929181,101.13812 -71.929181,100.88618 -71.929181,100.50361 -71.801658,100.12415 -71.929181,99.617165 -72.184229,99.996625 z"
       id="path716"
       style="fill:#9f0000;stroke:#000000;stroke-width:0.20242883;stroke-linecap:butt" /><path
       d="M -71.801658,101.64417 C -71.801658,102.4062 -72.436166,103.29265 -71.801658,104.43414 -71.677245,104.8136 -71.422198,104.8136 -71.422198,104.05468 -71.422198,103.42017 -71.549721,102.15115 -71.801658,101.64417 z"
       id="path721"
       style="fill:#000000;stroke:#000000;stroke-width:0.20242883;stroke-linecap:butt" /><path
       d="M -70.409163,118.12115 C -71.295607,118.50062 -72.057639,120.02157 -72.309576,120.52855 -72.564623,121.03554 -72.81656,121.79757 -72.182052,122.43208 -71.930115,122.81154 -71.930115,123.191 -71.423131,122.55649 -71.04367,121.92509 -70.6611,120.7836 -70.6611,119.76963 -70.788623,119.13512 -70.6611,118.62814 -70.409163,118.50062 -70.154115,118.24868 -70.154115,117.99363 -70.409163,118.12115 z"
       id="path726"
       style="fill:#9f0000;stroke:#000000;stroke-width:0.20242883;stroke-linecap:butt" /><path
       d="M -70.916146,120.02406 C -71.42313,120.9105 -72.309575,121.41749 -71.802591,122.81091 -71.295607,122.30393 -70.916146,121.54501 -70.916146,120.02406 z"
       id="path731"
       style="fill:#000000;stroke:#000000;stroke-width:0.20242883;stroke-linecap:butt" /><path
       d="M -69.015111,122.93844 C -69.394572,122.93844 -69.267048,123.3179 -69.015111,123.3179 -68.760064,123.3179 -68.635651,123.06596 -69.015111,122.93844 z"
       id="path736"
       style="fill:#9f0000;stroke:#000000;stroke-width:0.20242883;stroke-linecap:butt" /><path
       d="M -69.395193,124.07806 C -69.774654,124.07806 -69.774654,124.58505 -69.522717,124.45752 -69.140146,124.45752 -69.015733,124.07806 -69.395193,124.07806 z"
       id="path741"
       style="fill:#9f0000;stroke:#000000;stroke-width:0.20242883;stroke-linecap:butt" /><path
       d="M -69.269225,124.83792 C -69.521162,124.96544 -69.393638,125.47243 -69.141701,125.22049 -68.762241,124.96544 -68.886654,124.7135 -69.269225,124.83792 z"
       id="path746"
       style="fill:#9f0000;stroke:#000000;stroke-width:0.20242883;stroke-linecap:butt" /><path
       d="M -69.77621,125.98003 C -70.028147,125.98003 -69.900623,126.35949 -69.648686,126.35949 -69.393639,126.23197 -69.269226,125.98003 -69.77621,125.98003 z"
       id="path751"
       style="fill:#9f0000;stroke:#000000;stroke-width:0.20242883;stroke-linecap:butt" /><path
       d="M -70.535131,126.36043 C -70.914591,126.36043 -71.042115,126.73989 -70.662654,126.73989 -70.407607,126.73989 -70.283194,126.36043 -70.535131,126.36043 z"
       id="path756"
       style="fill:#9f0000;stroke:#000000;stroke-width:0.20242883;stroke-linecap:butt" /><path
       d="M -70.914591,127.37408 C -71.297162,127.37408 -71.549099,127.75354 -71.042115,127.62602 -70.535131,127.62602 -70.662654,127.37408 -70.914591,127.37408 z"
       id="path761"
       style="fill:#9f0000;stroke:#000000;stroke-width:0.20242883;stroke-linecap:butt" /><path
       d="M -69.647131,127.11904 C -69.395194,127.11904 -69.267671,126.8671 -69.647131,126.8671 -70.029702,126.8671 -70.281639,127.24656 -69.647131,127.11904 z"
       id="path766"
       style="fill:#9f0000;stroke:#000000;stroke-width:0.20242883;stroke-linecap:butt" /><path
       d="M -71.168083,128.51495 C -71.295607,129.02194 -70.916146,129.4014 -70.788623,128.64248 -70.661099,128.00797 -71.04367,127.88045 -71.168083,128.51495 z"
       id="path771"
       style="fill:#9f0000;stroke:#000000;stroke-width:0.20242883;stroke-linecap:butt" /><path
       d="M -82.04943,140.93641 C -82.885419,141.25761 -83.733156,142.10145 -83.906279,143.05003 -84.400603,143.16262 -85.059336,143.70184 -85.24834,144.00647 -85.34505,144.1561 -85.565408,144.33708 -85.907072,144.54568 -86.373076,144.78261 -86.72718,145.51084 -86.794878,145.78783 -87.012204,145.96812 -86.831914,146.18545 -86.405289,146.34986 -85.979354,146.51123 -85.27642,146.74031 -84.685386,146.47809 -84.247703,146.11682 -84.098076,146.21353 -83.696738,146.25291 -83.423463,146.31826 -82.8048,146.17735 -82.462444,145.97178 -82.12078,145.76317 -81.747762,145.6782 -81.473796,145.74659 -81.293507,145.96392 -80.799183,145.85133 -80.553537,145.79538 -80.20884,145.58608 -79.990824,145.40882 -79.798786,145.1035 -78.906157,145.03098 -78.222828,144.61376 -78.08674,144.0628 -77.801026,143.60854 -77.580668,143.42756 -77.390972,143.12597 -77.049308,142.91736 -76.997491,141.99641 -77.291061,141.28172 -76.499274,140.19223 -76.29783,139.36799 -76.258452,138.96666 -77.195283,138.27089 -79.426082,137.60826 -80.655552,139.05902 -81.370234,139.35259 -81.997613,140.01546 -82.04943,140.93641 z"
       id="path779"
       style="fill:#ffffff;stroke:#000000;stroke-width:0.20242852;stroke-linecap:butt" /><path
       d="M -77.2916,141.28426 C -76.99872,141.99591 -77.047505,142.91617 -77.392202,143.12547 -77.581207,143.4301 -77.802256,143.60804 -78.08728,144.06533 -78.220334,144.6156 -78.907387,145.03048 -79.800016,145.103 -80.254272,144.81729 -80.310222,144.57164 -80.491202,144.35129 -80.036946,144.637 -79.514302,144.64875 -79.722911,144.30708 -79.807182,143.9371 -79.835502,143.81276 -79.406535,143.97344 -79.008229,144.01351 -78.239939,143.96931 -78.694194,143.6836 -79.17677,143.27354 -79.51041,142.95717 -78.835106,143.06493 -78.284831,143.19799 -77.818137,142.96409 -78.244763,142.79968 -78.699018,142.51397 -78.879998,142.29361 -78.481693,142.33368 -78.204694,142.40138 -77.806389,142.44145 -78.140028,142.12507 -78.565963,141.9637 -78.992589,141.79929 -78.498265,141.6867 -77.97562,141.69844 -77.633956,141.48984 -77.2916,141.28426 z"
       id="path784"
       style="fill:#9f0000;stroke:#000000;stroke-width:0.20242852;stroke-linecap:butt" /><path
       d="M -82.050174,140.9375 C -82.886162,141.2587 -83.73459,142.09952 -83.907023,143.05113 -83.175769,143.40454 -82.625495,143.5376 -83.082783,143.25257 -83.412699,142.93854 -83.373321,142.5372 -82.918375,142.82595 -82.33978,143.08334 -82.094134,143.02739 -82.54839,142.74168 -83.003336,142.45293 -82.934947,142.17896 -82.328032,142.5607 -81.749437,142.81809 -81.379452,142.73382 -81.986367,142.35209 -82.593282,141.97035 -82.581534,141.44771 -81.824992,141.92615 -81.037788,142.52521 -80.913449,142.49689 -81.246397,142.18355 -81.576314,141.86951 -82.154908,141.61212 -81.330668,141.81356 -80.627734,142.04264 -80.531715,141.88998 -80.95765,141.7286 -81.508615,141.59251 -81.841564,141.27917 -82.050174,140.9375 z"
       id="path789"
       style="fill:#9f0000;stroke:#000000;stroke-width:0.20242852;stroke-linecap:butt" /><path
       d="M -81.697868,144.75694 C -81.367952,145.07097 -81.053917,144.74106 -81.231864,144.52001 -81.412154,144.30268 -81.906478,144.41527 -81.697868,144.75694 z"
       id="path794"
       style="fill:#9f0000;stroke:#000000;stroke-width:0.20242852;stroke-linecap:butt" /><path
       d="M -82.935897,145.03892 C -82.602948,145.35226 -82.261283,145.14365 -82.591199,144.82962 -82.924148,144.51627 -83.265813,144.72488 -82.935897,145.03892 z"
       id="path799"
       style="fill:#9f0000;stroke:#000000;stroke-width:0.20242852;stroke-linecap:butt" /><path
       d="M -83.720193,144.43844 C -83.542936,144.65646 -83.169919,144.5715 -83.474547,144.38249 -83.655527,144.16213 -83.901173,144.21808 -83.720193,144.43844 z"
       id="path804"
       style="fill:#9f0000;stroke:#000000;stroke-width:0.20242852;stroke-linecap:butt" /><path
       d="M -84.683277,144.78618 C -84.474667,145.12785 -84.076362,145.16792 -84.434599,144.72954 -84.767547,144.4162 -85.013193,144.47215 -84.683277,144.78618 z"
       id="path809"
       style="fill:#9f0000;stroke:#000000;stroke-width:0.20242852;stroke-linecap:butt" /><path
       d="M -85.435366,145.47903 C -85.130738,145.66804 -85.006399,145.63972 -85.186688,145.42239 -85.520327,145.10601 -85.737653,145.2863 -85.435366,145.47903 z"
       id="path814"
       style="fill:#9f0000;stroke:#000000;stroke-width:0.20242852;stroke-linecap:butt" /><path
       d="M -83.590633,145.57799 C -83.289037,145.76769 -83.012039,145.83539 -83.373308,145.39771 -83.581917,145.05604 -83.771613,145.35764 -83.590633,145.57799 z"
       id="path819"
       style="fill:#9f0000;stroke:#000000;stroke-width:0.20242852;stroke-linecap:butt" /><path
       d="M -81.250385,143.87511 C -80.917437,144.18845 -80.547452,144.10418 -80.880401,143.79084 -81.334656,143.50512 -81.677011,143.7107 -81.250385,143.87511 z"
       id="path824"
       style="fill:#9f0000;stroke:#000000;stroke-width:0.20242852;stroke-linecap:butt" /><path
       d="M -80.164677,143.49862 C -79.891401,143.56398 -79.368757,143.57572 -79.698673,143.26169 -80.155961,142.97667 -80.373977,143.15392 -80.164677,143.49862 z"
       id="path829"
       style="fill:#9f0000;stroke:#000000;stroke-width:0.20242852;stroke-linecap:butt" /><path
       d="M -77.273814,139.06895 C -78.346733,138.92415 -80.790033,139.61144 -81.296105,140.24668 -81.677839,140.85359 -81.621889,141.09924 -80.946585,141.207 -80.275004,141.31243 -79.150268,140.53628 -78.587555,140.14973 -78.028565,139.76083 -77.590191,139.40259 -77.189544,139.43894 -76.791239,139.479 -76.601543,139.17741 -77.273814,139.06895 z"
       id="path834"
       style="fill:#9f0000;stroke:#000000;stroke-width:0.20242852;stroke-linecap:butt" /><path
       d="M -81.374553,141.0437 C -80.803815,140.13215 -79.964103,139.8133 -78.617218,140.02649 -79.738922,140.80194 -80.920298,141.32941 -81.374553,141.0437 z"
       id="path839"
       style="fill:#000000;stroke:#000000;stroke-width:0.20242852;stroke-linecap:butt" /><path
       d="M -85.996065,106.33424 -99.224309,105.62819 C -96.689388,107.78365 -93.728351,110.39011 -92.841907,111.40408 -93.855875,110.13818 -94.614796,109.24862 -95.249304,108.74164 -93.476415,110.01065 -92.841907,110.76957 -92.207399,111.27656 -93.093844,110.13818 -94.107812,108.86916 -94.614796,108.36218 -93.600828,109.24862 -92.96943,109.88313 -92.462446,110.26259 -92.96943,109.50367 -93.476415,108.99668 -93.855875,108.36218 -92.586859,109.50367 -91.827938,110.26259 -90.941494,111.02462 -92.079875,109.7556 -92.586859,108.86916 -93.093844,108.36218 -91.827938,109.37614 -90.81397,110.13818 -89.800002,110.8971 -90.941494,109.7556 -91.572891,108.99668 -92.207399,108.4897 -91.448478,108.86916 -90.558923,109.24862 -89.927525,109.63119 -90.306986,109.24862 -90.686446,108.61722 -90.941494,108.36218 -90.179462,108.86916 -89.165494,109.50367 -88.658509,109.88313 -89.420541,109.12421 -89.420541,108.74164 -89.927525,108.11024 -89.420541,108.36218 -88.658509,108.4897 -88.024002,109.24862 -88.406573,108.61722 -88.406573,108.36218 -88.658509,107.98272 -88.406573,107.85519 -87.899588,107.85519 -87.517017,108.36218 -87.772065,107.47573 -87.644541,107.09627 -86.630573,108.11024 -86.630573,107.72767 -87.010033,107.22068 -86.503049,107.60325 -85.996065,107.85519 -85.237144,107.85519 -85.489081,107.34821 -85.616604,106.96875 -85.616604,106.84122 -85.996065,106.33424 z"
       id="path844"
       style="fill:#9f0000;stroke:#000000;stroke-width:0.20242883;stroke-linecap:butt" /><path
       d="M -92.461016,144.22987 C -80.548441,138.14607 -74.592155,129.14787 -74.337107,118.75625 L -110.58492,118.75625 C -110.33299,129.14787 -104.37359,138.14607 -92.461016,144.22987 z"
       id="path26-6"
       style="font-size:12px;fill:none;stroke:#000000;stroke-width:0.20242883;stroke-linecap:butt;stroke-miterlimit:3;overflow:visible" /></g><polygon
     points="591.041,433.161 591.041,433.161 533.774,391.476 476.501,433.151 498.449,365.806 441.115,324.214 511.946,324.278 533.785,256.897 555.613,324.281 626.445,324.23 569.104,365.812 "
     transform="matrix(0.3663735,0,0,0.36349414,340.46529,327.33644)"
     id="polygon5598"
     style="font-size:12px;fill:#ffffff;fill-opacity:1;fill-rule:evenodd;stroke:none" /><use
     transform="translate(291.7831,-182.09879)"
     id="use5642"
     x="0"
     y="0"
     width="1000"
     height="500"
     xlink:href="#polygon5598" /><use
     transform="translate(289.2666,-279.11019)"
     id="use5644"
     x="0"
     y="0"
     width="1000"
     height="500"
     xlink:href="#polygon5598" /><use
     transform="translate(338.84181,-415.50491)"
     id="use5648"
     x="0"
     y="0"
     width="1000"
     height="500"
     xlink:href="#polygon5598" /><metadata
     id="metadata5600"><rdf:RDF><cc:Work
         rdf:about=""><dc:title></dc:title><dc:format>image/svg+xml</dc:format><dc:type
           rdf:resource="http://purl.org/dc/dcmitype/StillImage" /></cc:Work></rdf:RDF></metadata><use
     transform="matrix(1,0,0,-1,84.277876,896.60369)"
     id="use5636"
     x="0"
     y="0"
     width="1000"
     height="500"
     xlink:href="#polygon5598" /><use
     transform="matrix(1,0,0,-1,111.72695,725.92263)"
     id="use5638"
     x="0"
     y="0"
     width="1000"
     height="500"
     xlink:href="#polygon5598" /><use
     transform="matrix(1,0,0,-1,194.26841,785.81553)"
     id="use5640"
     x="0"
     y="0"
     width="1000"
     height="500"
     xlink:href="#polygon5598" /><use
     transform="matrix(1,0,0,-1,238.18148,514.91344)"
     id="use5646"
     x="0"
     y="0"
     width="1000"
     height="500"
     xlink:href="#polygon5598" /></svg>