<?xml version="1.0" encoding="UTF-8" standalone="no"?>
<!-- Created with Inkscape (http://www.inkscape.org/) -->

<svg
   xmlns:dc="http://purl.org/dc/elements/1.1/"
   xmlns:cc="http://creativecommons.org/ns#"
   xmlns:rdf="http://www.w3.org/1999/02/22-rdf-syntax-ns#"
   xmlns:svg="http://www.w3.org/2000/svg"
   xmlns="http://www.w3.org/2000/svg"
   xmlns:xlink="http://www.w3.org/1999/xlink"
   xmlns:sodipodi="http://sodipodi.sourceforge.net/DTD/sodipodi-0.dtd"
   xmlns:inkscape="http://www.inkscape.org/namespaces/inkscape"
   version="1.1"
   width="800"
   height="400"
   viewBox="0 0 1200 600"
   id="svg2358"
   inkscape:version="0.48.5 r10040"
   sodipodi:docname="reza1910.svg">
  <sodipodi:namedview
     pagecolor="#ffffff"
     bordercolor="#666666"
     borderopacity="1"
     objecttolerance="10"
     gridtolerance="10"
     guidetolerance="10"
     inkscape:pageopacity="0"
     inkscape:pageshadow="2"
     inkscape:window-width="1024"
     inkscape:window-height="716"
     id="namedview155"
     showgrid="false"
     inkscape:zoom="1.508138"
     inkscape:cx="467.29622"
     inkscape:cy="216.11726"
     inkscape:window-x="-8"
     inkscape:window-y="-8"
     inkscape:window-maximized="1"
     inkscape:current-layer="svg2358" />
  <metadata
     id="metadata184">
    <rdf:RDF>
      <cc:Work
         rdf:about="">
        <dc:format>image/svg+xml</dc:format>
        <dc:type
           rdf:resource="http://purl.org/dc/dcmitype/StillImage" />
        <dc:title></dc:title>
      </cc:Work>
    </rdf:RDF>
  </metadata>
  <defs
     id="defs2360">
    <clipPath
       id="border">
      <rect
         width="30"
         height="15"
         x="-15"
         y="-7.5"
         id="rect6" />
    </clipPath>
  </defs>
  <rect
     width="1200"
     height="600"
     x="0"
     y="0"
     id="rect8"
     style="fill:#00247d;fill-opacity:1;stroke-linecap:butt;stroke-linejoin:miter;stroke-miterlimit:4;stroke-opacity:1;stroke-dasharray:none;stroke-dashoffset:0" />
  <g
     transform="matrix(20,0,0,20,300,150.01)"
     id="canton"
     style="fill-opacity:1;stroke-linecap:butt;stroke-linejoin:miter;stroke-miterlimit:4;stroke-opacity:1;stroke-dasharray:none;stroke-dashoffset:0">
    <g
       clip-path="url(#border)"
       id="g13">
      <circle
         cx="0"
         cy="0"
         r="20"
         id="circle15"
         style="fill:#00247d"
         d="M 20,0 C 20,11.045695 11.045695,20 0,20 -11.045695,20 -20,11.045695 -20,0 -20,-11.045695 -11.045695,-20 0,-20 11.045695,-20 20,-11.045695 20,0 z" />
      <path
         d="M -20,-10 20,10 M -20,10 20,-10"
         id="diags_white"
         style="stroke:#fff;stroke-width:3" />
      <path
         d="M -20,-10 20,10 M -20,10 20,-10"
         id="diags_red"
         style="stroke:#cf142b;stroke-width:2" />
      <path
         d="M 0,0 20,10 17,10 -3,0 M 0,0 20,-10 23,-10 3,0 M 0,0 -20,10 -23,10 -3,0 M 0,0 -20,-10 -17,-10 3,0"
         id="eraser_white"
         style="fill:#fff;stroke:none" />
      <path
         d="M -20,0 20,0 M 0,-10 0,10"
         id="cross_white"
         style="stroke:#fff;stroke-width:5" />
      <path
         d="M -20,0 20,0 M 0,-10 0,10"
         id="cross_red"
         style="stroke:#cf142b;stroke-width:3" />
    </g>
  </g>
  <path
     d="M 799.66234,298.1351 799.66234,370.16653 C 799.66246,386.20006 810.62267,396.83865 819.93609,404.79091 841.30679,423.0383 896.4993,447.6043 896.4993,447.6043 L 896.4993,300.59975 799.66234,298.1351 z M 993.29651,298.1351 897.49311,300.59975 897.49311,447.6043 C 897.49311,447.6043 952.64588,423.0383 974.01657,404.79091 983.32999,396.83865 993.2964,386.20006 993.29651,370.16653 L 993.29651,298.1351 z"
     id="path4117"
     style="fill:none;stroke:#000;stroke-width:1.00839841;stroke-linecap:butt;stroke-linejoin:miter;stroke-miterlimit:4;stroke-opacity:1;stroke-dasharray:none;stroke-dashoffset:0" />
  <path
     d="M 897.49172,300.58226 897.49172,447.61925 C 897.49172,447.61925 952.65798,423.04818 974.02867,404.8008 983.34209,396.84854 993.29454,386.19835 993.29466,370.16482 L 993.29519,298.12588"
     id="path3954"
     style="fill:#000;fill-opacity:1;stroke:none" />
  <path
     d="M 896.48332,300.58226 896.48332,447.61925 C 896.48332,447.61925 841.31707,423.04818 819.94637,404.8008 810.63295,396.84854 799.66259,386.19835 799.66247,370.16482 L 799.66195,298.12588"
     id="path3948"
     style="fill:#000;fill-opacity:1;stroke:none" />
  <path
     d="M 895.46574,300.58226 895.46574,442.91256 C 895.46574,442.91256 841.31707,420.88595 819.94637,402.63856 810.63295,394.6863 800.93409,381.4985 800.93405,370.16482 L 800.93379,298.12588"
     id="path5017"
     style="fill:#fdca0a;fill-opacity:1;stroke:none" />
  <path
     d="M 896.45411,186.1127 896.45411,300.71901 C 896.15791,300.70658 895.87975,300.59078 895.57956,300.59975 894.54835,300.6306 893.55995,300.8078 892.59813,301.11653 891.63631,301.42527 890.7277,301.84144 889.81546,302.34886 887.99095,303.36369 886.23377,304.71147 884.48863,306.04584 882.74349,307.38021 880.98612,308.72246 879.1618,309.74281 878.24965,310.25299 877.34081,310.66226 876.37913,310.97514 875.41745,311.28802 874.42871,311.49529 873.39769,311.53168 872.29755,311.5705 871.22472,311.42297 870.17775,311.1739 869.13078,310.92483 868.08606,310.55714 867.07706,310.10059 865.05906,309.1875 863.11139,307.94233 861.15394,306.68188 859.1965,305.42143 857.24945,304.1481 855.23083,303.18366 854.22152,302.70144 853.17757,302.31843 852.13014,302.03084 851.08271,301.74325 850.01096,301.56634 848.91019,301.55381 847.81929,301.5414 846.77393,301.65866 845.72999,301.91158 844.68606,302.16451 843.6397,302.54279 842.6293,302.9849 840.60852,303.86912 838.67326,305.06055 836.70619,306.2446 834.73912,307.42865 832.76397,308.58992 830.74332,309.46455 829.733,309.90186 828.68646,310.29214 827.64263,310.53786 826.59881,310.78359 825.5532,310.91766 824.46244,310.89564 823.33911,310.87295 822.09725,310.68171 820.80521,310.37885 819.51317,310.07599 818.16264,309.64869 816.79021,309.14653 814.04536,308.1422 811.21719,306.80574 808.68071,305.4893 803.60777,302.85643 799.65691,300.24198 799.65691,300.24198 L 799.65691,186.1127 896.45411,186.1127 z"
     id="path3970"
     style="fill:#000;fill-opacity:1;stroke:#000;stroke-width:1.00839841;stroke-linecap:butt;stroke-linejoin:miter;stroke-miterlimit:4;stroke-opacity:1;stroke-dasharray:none;stroke-dashoffset:0" />
  <path
     d="M 895.46574,187.25789 895.46574,299.32815 C 895.46574,299.32815 893.55995,299.53621 892.59813,299.84494 891.63631,300.15367 890.7277,300.56985 889.81546,301.07726 887.99095,302.09209 886.23377,303.43988 884.48863,304.77424 882.74349,306.10862 880.98612,307.45087 879.1618,308.47122 878.24965,308.9814 877.34081,309.39067 876.37913,309.70355 875.41745,310.01643 874.42871,310.2237 873.39769,310.26008 872.29755,310.29891 871.22472,310.15138 870.17775,309.9023 869.13078,309.65324 868.08606,309.28555 867.07706,308.82899 865.05906,307.9159 863.11139,306.67073 861.15394,305.41028 859.1965,304.14982 857.24945,302.87651 855.23083,301.91207 854.22152,301.42985 853.17757,301.04683 852.13014,300.75924 851.08271,300.47166 850.01096,300.29475 848.91019,300.28221 847.81929,300.26981 846.77393,300.38707 845.72999,300.63999 844.68606,300.89292 843.6397,301.2712 842.6293,301.7133 840.60852,302.59752 838.67326,303.78895 836.70619,304.973 834.73912,306.15706 832.76397,307.31832 830.74332,308.19295 829.733,308.63027 828.68646,309.02054 827.64263,309.26627 826.59881,309.512 825.5532,309.64607 824.46244,309.62404 823.33911,309.60136 822.09725,309.41011 820.80521,309.10726 819.51317,308.8044 818.16264,308.3771 816.79021,307.87493 814.04536,306.8706 811.21719,305.53416 808.68071,304.21771 803.60777,301.58484 800.93379,299.47858 800.93379,299.47858 L 800.93379,187.25789 z"
     id="path5015"
     style="fill:#cf142b;fill-opacity:1;stroke:none" />
  <path
     d="M 897.36368,300.58226 897.36368,442.91256 C 897.36368,442.91256 952.14873,420.88595 973.51943,402.63856 982.83284,394.6863 992.40415,386.19835 992.40421,370.16482 L 992.40447,298.12588"
     id="path3952"
     style="fill:#044c28;fill-opacity:1;stroke:none" />
  <path
     d="M 896.49931,186.1127 896.49931,300.5918 C 896.79551,300.57937 897.07368,300.46357 897.37386,300.47254 898.40507,300.50339 899.39348,300.68059 900.35529,300.98933 901.31711,301.29806 902.22572,301.71423 903.13796,302.22165 904.96247,303.23648 906.71965,304.58426 908.46479,305.91863 910.20993,307.253 911.9673,308.59525 913.79162,309.6156 914.70378,310.12578 915.61261,310.53505 916.57429,310.84793 917.53597,311.16081 918.52471,311.36809 919.55573,311.40447 920.65587,311.44329 921.7287,311.29576 922.77567,311.04669 923.82264,310.79762 924.86737,310.42993 925.87636,309.97338 927.89437,309.06029 929.84203,307.81512 931.79948,306.55467 933.75693,305.29422 935.70397,304.02089 937.72259,303.05645 938.7319,302.57423 939.77585,302.19122 940.82328,301.90363 941.87071,301.61605 942.94247,301.43913 944.04323,301.4266 945.13414,301.41419 946.17949,301.53145 947.22343,301.78438 948.26737,302.0373 949.31373,302.41558 950.32412,302.85769 952.3449,303.74191 954.28017,304.93334 956.24723,306.11739 958.2143,307.30145 960.18945,308.46271 962.2101,309.33734 963.22042,309.77466 964.26696,310.16493 965.31079,310.41065 966.35462,310.65638 967.40022,310.79045 968.49098,310.76843 969.61431,310.74574 970.85618,310.5545 972.14821,310.25164 973.44025,309.94879 974.79079,309.52149 976.16321,309.01932 978.90807,308.01499 981.73624,306.67854 984.27271,305.3621 989.34566,302.72922 993.29651,300.11477 993.29651,300.11477 L 993.29651,186.1127 z"
     id="path3851-1"
     style="fill:#000;fill-opacity:1;stroke:#000;stroke-width:1.00839841;stroke-linecap:butt;stroke-linejoin:miter;stroke-miterlimit:4;stroke-opacity:1;stroke-dasharray:none;stroke-dashoffset:0" />
  <path
     d="M 842.89405,386.51791 C 841.23804,387.1601 839.39343,387.29385 837.78492,388.10811 836.37562,388.68529 834.76367,389.00347 833.70517,389.94066 832.26906,390.39984 831.15326,391.52684 830.19068,392.55201 829.08629,393.34003 828.88032,394.68888 828.28518,395.88664 828.30027,397.18673 828.48851,399.14987 829.57148,399.75782 830.68263,400.94586 832.05951,401.98104 833.43533,402.87102 835.14929,403.80842 837.14076,403.78438 838.97564,404.36028 841.82635,405.00961 844.71354,405.76517 847.6679,405.57235 849.04589,405.96079 850.5658,405.97751 851.99826,406.22273 853.6956,406.29244 855.31795,406.01563 856.98793,405.78764 858.61426,405.47488 860.25152,405.05119 861.69727,404.26952 863.00028,403.64332 864.14228,403.06321 865.28372,402.31772 866.37477,401.19674 867.85273,400.1762 868.01558,398.4965 868.70882,397.29316 868.7141,395.7143 868.53896,394.29871 867.7879,392.73775 866.511,391.53796 865.12493,390.6465 863.55685,389.9454 862.51558,388.55319 860.9425,388.00791 859.45333,387.20121 857.82489,386.6704 856.1681,386.26268 854.56996,385.77188 852.97798,385.38106 851.30688,385.41247 849.41451,385.48024 847.45759,385.24581 845.606,385.5316 844.51995,385.75917 843.56008,386.63114 842.89405,386.51791 z"
     id="path3045"
     style="fill:#044c28;fill-opacity:1;stroke:#000;stroke-width:0.816;stroke-linecap:butt;stroke-linejoin:miter;stroke-opacity:1;stroke-miterlimit:4;stroke-dasharray:none" />
  <path
     d="M 840.98854,390.32891 C 841.71674,389.77393 843.47863,388.10782 843.94761,386.47098 845.05689,383.76763 844.97259,380.72723 844.95835,377.75434 844.88625,374.05812 845.01855,370.44861 845.11711,366.81937 845.30264,364.09937 845.6027,361.26597 843.89574,358.94514 844.06199,357.82697 842.4362,358.57373 841.4935,358.03801 840.66102,357.99935 839.8542,358.02976 839.03165,357.79783 838.30289,357.60109 837.69493,357.144 837.05017,356.89716 836.54359,356.68858 835.81875,356.28067 835.43135,356.08665 834.64972,355.57376 834.24151,355.17528 833.38742,354.79558 832.24396,354.40256 831.01468,353.85037 830.145,353.17436 829.46487,352.7295 829.13155,352.37849 828.40368,351.67323 827.66398,351.21796 826.91855,350.09066 826.24206,349.45157 825.61024,348.79502 825.10609,348.1965 824.50074,347.28995 824.05421,346.44103 823.76339,345.1695 824.06211,344.00813 824.06149,342.77736 823.94897,341.33407 823.75951,340.30169 823.64703,339.59488 823.21653,338.96724 822.96771,338.3222 822.24814,337.08721 822.69317,335.4794 823.04689,334.12567 823.20943,332.83949 823.40651,331.57698 823.68035,330.40423 823.82432,329.45041 824.39133,328.50271 824.86803,327.55376 825.22194,327.01296 825.28527,326.635 825.81817,326.12853 826.16285,325.19223 826.86536,324.68588 827.32259,323.9115 827.82774,323.14054 828.97882,322.96283 830.01471,322.56545 830.78497,321.97307 831.76177,321.94645 832.3845,321.21126 832.92185,320.85397 833.29627,320.28188 833.4986,319.79416 834.00388,319.43217 833.99928,319.00388 834.76547,318.68564 835.22847,318.33485 835.7221,318.11486 836.50745,317.89385 837.47267,317.44447 838.83548,317.01711 839.99134,316.62697 841.81959,315.98205 843.93662,316.30562 845.93531,316.38668 847.33609,316.16472 848.70453,316.41129 849.97804,316.38943 851.93097,316.42578 853.52118,317.22723 855.40515,317.64738 856.16536,317.97461 857.47805,318.14675 858.20265,318.4481 859.71515,318.71478 861.42146,319.08885 862.87426,319.39826 863.66683,319.40455 863.68116,319.93539 864.22032,320.26923 864.61321,320.77183 864.93293,320.96439 865.25814,321.3426 865.85927,321.88536 866.6103,322.96422 867.07078,323.5156 867.26827,324.00556 867.65962,324.41496 867.9518,325.01677 868.26609,325.38139 868.55425,326.39273 868.97108,326.76196 869.22308,327.3503 869.78043,327.46641 869.92126,328.02884 870.27561,328.46716 870.60313,329.39318 870.95058,329.84997 871.38428,330.78596 871.45065,332.01282 871.74237,333.17551 872.05996,333.72852 872.5514,334.61045 872.69253,335.23418 873.02343,336.91353 873.19137,338.75022 873.00925,340.53923 872.83706,341.41186 872.54846,341.7663 872.29663,342.5979 871.9147,342.99715 871.80404,343.67049 871.50483,344.10231 871.26018,344.83853 870.98895,345.4509 870.8714,346.31934 870.57058,346.83141 870.34679,347.68847 870.07961,348.06129 869.86654,348.36895 869.41428,348.59938 869.152,348.85273 868.59888,349.19124 868.386,349.44969 867.94175,349.9616 867.51042,350.28698 867.04871,350.82714 866.75406,351.14929 866.35501,351.69559 865.74775,352.56124 865.32033,353.17282 864.84309,353.6273 864.68931,354.06321 864.11858,354.39601 863.95251,354.64418 863.50451,354.87301 863.1118,355.10828 862.77646,355.53577 861.9903,355.62394 861.76573,355.97925 861.1984,356.09519 860.61266,356.601 860.18214,356.85023 859.62923,357.48854 858.82281,357.56578 857.96512,357.80039 856.12659,358.82011 851.20445,357.13562 851.80639,360.55112 852.1192,363.6655 850.2157,366.33502 850.68411,369.4625 850.75678,371.93113 851.11816,374.49159 850.81041,376.9575 850.14567,379.81428 850.50456,382.68764 851.1828,385.47913 851.50552,387.28433 853.54337,389.89458 854.10462,390.16308 853.94319,390.42164 854.5733,390.49338 854.64465,390.4877"
     id="path3039"
     style="fill:#044c28;fill-opacity:1;stroke:#000;stroke-width:0.816;stroke-linecap:butt;stroke-linejoin:miter;stroke-opacity:1;stroke-miterlimit:4;stroke-dasharray:none" />
  <path
     d="M 834.42041,345.7619 A 2.645535,2.645535 0 1 1 829.12934,345.7619 2.645535,2.645535 0 1 1 834.42041,345.7619 z"
     id="path5063"
     style="fill:#fc934f;fill-opacity:1;stroke:#000;stroke-width:0.61402869;stroke-miterlimit:4;stroke-opacity:1;stroke-dasharray:none" />
  <use
     transform="translate(0,-12.30754)"
     id="use3147"
     x="0"
     y="0"
     width="1200"
     height="600"
     xlink:href="#path5063" />
  <use
     transform="translate(5.86072,-4.68859)"
     id="use3149"
     x="0"
     y="0"
     width="1200"
     height="600"
     xlink:href="#path5063" />
  <use
     transform="translate(6.25141,-20.90329)"
     id="use3167"
     x="0"
     y="0"
     width="1200"
     height="600"
     xlink:href="#path5063" />
  <use
     transform="translate(15.43324,-22.46614)"
     id="use3165"
     x="0"
     y="0"
     width="1200"
     height="600"
     xlink:href="#path5063" />
  <use
     transform="translate(16.01933,-12.50288)"
     id="use3159"
     x="0"
     y="0"
     width="1200"
     height="600"
     xlink:href="#path5063" />
  <use
     transform="translate(10.94003,4.2979)"
     id="use3151"
     x="0"
     y="0"
     width="1200"
     height="600"
     xlink:href="#path5063" />
  <use
     transform="translate(20.3172,-2.14891)"
     id="use3155"
     x="0"
     y="0"
     width="1200"
     height="600"
     xlink:href="#path5063" />
  <use
     transform="translate(28.13155,-12.30751)"
     id="use3161"
     x="0"
     y="0"
     width="1200"
     height="600"
     xlink:href="#path5063" />
  <use
     transform="translate(30.47583,-20.51255)"
     id="use3163"
     x="0"
     y="0"
     width="1200"
     height="600"
     xlink:href="#path5063" />
  <use
     transform="translate(33.79691,-4.68856)"
     id="use3157"
     x="0"
     y="0"
     width="1200"
     height="600"
     xlink:href="#path5063" />
  <use
     transform="translate(23.24759,6.64221)"
     id="use3153"
     x="0"
     y="0"
     width="1200"
     height="600"
     xlink:href="#path5063" />
  <path
     d="M 897.36368,187.25789 897.36368,299.25293 C 897.36368,299.25293 899.39348,299.46099 900.35529,299.76973 901.31711,300.07845 902.22572,300.49462 903.13796,301.00204 904.96247,302.01687 906.71965,303.36465 908.46479,304.69903 910.20993,306.03339 911.9673,307.37564 913.79162,308.39599 914.70378,308.90618 915.61261,309.31545 916.57429,309.62833 917.53597,309.9412 918.52471,310.14848 919.55573,310.18487 920.65587,310.22369 921.7287,310.07616 922.77567,309.82708 923.82264,309.57801 924.86737,309.21033 925.87636,308.75378 927.89437,307.84068 929.84203,306.59552 931.79948,305.33507 933.75693,304.07462 935.70397,302.80128 937.72259,301.83685 938.7319,301.35463 939.77585,300.97162 940.82328,300.68402 941.87071,300.39644 942.94247,300.21953 944.04323,300.20699 945.13414,300.19458 946.17949,300.31185 947.22343,300.56477 948.26737,300.81769 949.31373,301.19597 950.32412,301.63808 952.3449,302.52231 954.28017,303.71374 956.24723,304.89778 958.2143,306.08184 960.18945,307.24311 962.2101,308.11774 963.22042,308.55505 964.26696,308.94533 965.31079,309.19104 966.35462,309.43677 967.40022,309.57085 968.49098,309.54883 969.61431,309.52613 970.85618,309.33489 972.14821,309.03203 973.44025,308.72919 974.79079,308.30189 976.16321,307.79972 978.90807,306.79539 981.73624,305.45893 984.27271,304.14249 989.34566,301.50962 992.40447,298.64011 992.40447,298.64011 L 992.40447,187.25789 z"
     id="path3974"
     style="fill:#fdca0a;fill-opacity:1;stroke:none" />
  <g
     transform="matrix(0.25881895,0,0,0.25881895,1041.2263,267.91229)"
     id="g3946">
    <g
       transform="matrix(0.72355464,0,0,0.72355464,-140.54854,104.43958)"
       id="g3948">
      <path
         d="M -262.50257,255.44952 C -265.35364,255.71466 -268.23809,256.5262 -270.71883,257.95617 -272.31234,258.87472 -273.70191,260.20981 -274.75733,261.71616 -276.667,264.44172 -278.41845,267.58777 -278.65657,270.90723 -278.90389,274.35499 -277.77716,277.96271 -276.01066,280.93385 -274.8695,282.8532 -273.06804,284.40881 -271.1366,285.52939 -269.206,286.64949 -266.95218,287.26247 -264.7307,287.47901 -261.5265,287.79134 -258.07544,287.78515 -255.12186,286.5042 -252.46572,285.35224 -250.27417,283.13994 -248.5767,280.79459 -247.24728,278.95776 -246.30122,276.76493 -245.93079,274.52795 -245.50503,271.95685 -245.65067,269.19747 -246.48782,266.72947 -247.2736,264.41293 -248.79716,262.33235 -250.52632,260.60209 -252.4921,258.63506 -254.8741,256.95232 -257.48925,256.00655 -259.07042,255.43472 -260.8284,255.29383 -262.50257,255.44952 z"
         transform="scale(1.5,1.5)"
         id="path3950"
         style="fill:none;stroke:#cccccc;stroke-width:3.70005;stroke-linecap:butt;stroke-linejoin:miter;stroke-miterlimit:4;stroke-opacity:1;stroke-dasharray:none" />
      <path
         d="M -244.49115,270.93802 A 16.778805,17.452953 0 1 1 -278.04876,270.93802 16.778805,17.452953 0 1 1 -244.49115,270.93802 z"
         transform="matrix(1.6370353,0,0,1.6008726,34.346366,-26.458187)"
         id="path3953"
         style="fill:none;stroke:#000;stroke-width:2.00270224;stroke-miterlimit:4;stroke-opacity:1;stroke-dasharray:none;stroke-dashoffset:0" />
      <path
         d="M -397.28553,428.44152 -392.92078,387.00336 -386.65166,387.9787 -390.91827,428.40945 z"
         id="path3955"
         style="fill:#cccccc;fill-opacity:1;stroke:#000;stroke-width:1.54907632px;stroke-linecap:butt;stroke-linejoin:miter;stroke-opacity:1" />
      <path
         d="M -375.08608,419.58466 -408.36793,392.65068 -411.9271,398.63198 -379.75835,424.32521 z"
         id="path3957"
         style="fill:#cccccc;fill-opacity:1;stroke:#000;stroke-width:1.80189204px;stroke-linecap:butt;stroke-linejoin:miter;stroke-opacity:1" />
      <path
         d="M -371.88544,408.20564 -413.93484,405.66072 -414.01599,411.37415 -372.44728,413.46303 z"
         id="path3959"
         style="fill:#cccccc;fill-opacity:1;stroke:#000;stroke-width:1.5303036px;stroke-linecap:butt;stroke-linejoin:miter;stroke-opacity:1" />
      <path
         d="M -376.65557,395.62664 -411.72682,419.132 -407.54045,423.48965 -373.07393,400.0942 z"
         id="path3961"
         style="fill:#cccccc;fill-opacity:1;stroke:#000;stroke-width:1.5px;stroke-linecap:butt;stroke-linejoin:miter;stroke-opacity:1" />
      <path
         d="M -258.52106,272.54211 A 2.8630307,2.9690688 0 1 1 -264.24712,272.54211 2.8630307,2.9690688 0 1 1 -258.52106,272.54211 z"
         transform="matrix(1.9021916,0,0,1.923005,104.59471,-114.76924)"
         id="path3963"
         style="fill:#cccccc;fill-opacity:1;stroke:#000;stroke-opacity:1" />
      <path
         d="M -244.49115,270.93802 A 16.778805,17.452953 0 1 1 -278.04876,270.93802 16.778805,17.452953 0 1 1 -244.49115,270.93802 z"
         transform="matrix(1.2906318,0,0,1.2014066,-55.88376,82.307775)"
         id="path3965"
         style="fill:none;stroke:#000;stroke-width:2.00270224;stroke-miterlimit:4;stroke-opacity:1;stroke-dasharray:none;stroke-dashoffset:0" />
      <path
         d="M -269.88327,254.33545 -275.03584,258.37395"
         transform="scale(1.5,1.5)"
         id="path3967"
         style="fill:none;stroke:#000;stroke-width:1px;stroke-linecap:butt;stroke-linejoin:miter;stroke-opacity:1" />
    </g>
    <g
       transform="matrix(1.1958473,0,0,1.1958473,161.03101,-97.684181)"
       id="g3969">
      <path
         d="M -262.50257,255.44952 C -265.35364,255.71466 -268.23809,256.5262 -270.71883,257.95617 -272.31234,258.87472 -273.70191,260.20981 -274.75733,261.71616 -276.667,264.44172 -278.41845,267.58777 -278.65657,270.90723 -278.90389,274.35499 -277.77716,277.96271 -276.01066,280.93385 -274.8695,282.8532 -273.06804,284.40881 -271.1366,285.52939 -269.206,286.64949 -266.95218,287.26247 -264.7307,287.47901 -261.5265,287.79134 -258.07544,287.78515 -255.12186,286.5042 -252.46572,285.35224 -250.27417,283.13994 -248.5767,280.79459 -247.24728,278.95776 -246.30122,276.76493 -245.93079,274.52795 -245.50503,271.95685 -245.65067,269.19747 -246.48782,266.72947 -247.2736,264.41293 -248.79716,262.33235 -250.52632,260.60209 -252.4921,258.63506 -254.8741,256.95232 -257.48925,256.00655 -259.07042,255.43472 -260.8284,255.29383 -262.50257,255.44952 z"
         transform="scale(1.5,1.5)"
         id="path3971"
         style="fill:none;stroke:#cccccc;stroke-width:3.70005;stroke-linecap:butt;stroke-linejoin:miter;stroke-miterlimit:4;stroke-opacity:1;stroke-dasharray:none" />
      <path
         d="M -244.49115,270.93802 A 16.778805,17.452953 0 1 1 -278.04876,270.93802 16.778805,17.452953 0 1 1 -244.49115,270.93802 z"
         transform="matrix(1.6370353,0,0,1.6008726,34.346366,-26.458187)"
         id="path3973"
         style="fill:none;stroke:#000;stroke-width:2.00270224;stroke-miterlimit:4;stroke-opacity:1;stroke-dasharray:none;stroke-dashoffset:0" />
      <path
         d="M -397.28553,428.44152 -392.92078,387.00336 -386.65166,387.9787 -390.91827,428.40945 z"
         id="path3975"
         style="fill:#cccccc;fill-opacity:1;stroke:#000;stroke-width:1.54907632px;stroke-linecap:butt;stroke-linejoin:miter;stroke-opacity:1" />
      <path
         d="M -375.08608,419.58466 -408.36793,392.65068 -411.9271,398.63198 -379.75835,424.32521 z"
         id="path3977"
         style="fill:#cccccc;fill-opacity:1;stroke:#000;stroke-width:1.80189204px;stroke-linecap:butt;stroke-linejoin:miter;stroke-opacity:1" />
      <path
         d="M -371.88544,408.20564 -413.93484,405.66072 -414.01599,411.37415 -372.44728,413.46303 z"
         id="path3979"
         style="fill:#cccccc;fill-opacity:1;stroke:#000;stroke-width:1.5303036px;stroke-linecap:butt;stroke-linejoin:miter;stroke-opacity:1" />
      <path
         d="M -376.65557,395.62664 -411.72682,419.132 -407.54045,423.48965 -373.07393,400.0942 z"
         id="path3981"
         style="fill:#cccccc;fill-opacity:1;stroke:#000;stroke-width:1.5px;stroke-linecap:butt;stroke-linejoin:miter;stroke-opacity:1" />
      <path
         d="M -258.52106,272.54211 A 2.8630307,2.9690688 0 1 1 -264.24712,272.54211 2.8630307,2.9690688 0 1 1 -258.52106,272.54211 z"
         transform="matrix(1.9021916,0,0,1.923005,104.59471,-114.76924)"
         id="path3983"
         style="fill:#cccccc;fill-opacity:1;stroke:#000;stroke-opacity:1" />
      <path
         d="M -244.49115,270.93802 A 16.778805,17.452953 0 1 1 -278.04876,270.93802 16.778805,17.452953 0 1 1 -244.49115,270.93802 z"
         transform="matrix(1.2906318,0,0,1.2014066,-55.88376,82.307775)"
         id="path3985"
         style="fill:none;stroke:#000;stroke-width:2.00270224;stroke-miterlimit:4;stroke-opacity:1;stroke-dasharray:none;stroke-dashoffset:0" />
      <path
         d="M -269.88327,254.33545 -275.03584,258.37395"
         transform="scale(1.5,1.5)"
         id="path3987-4"
         style="fill:none;stroke:#000;stroke-width:1px;stroke-linecap:butt;stroke-linejoin:miter;stroke-opacity:1" />
    </g>
    <g
       transform="matrix(3.1008401,0,0,3.4396831,-1698.0177,-1141.6373)"
       id="g3989">
      <path
         d="M 316.58219,292.39478 C 317.03276,288.69749 314.79956,276.82369 310.41297,276.638 293.24042,275.91105 291.54494,276.56141 291.56983,276.56224 L 294.99162,291.87903"
         transform="scale(1.5,1.5)"
         id="path3991-0"
         style="fill:#cccccc;stroke:#000;stroke-width:1px;stroke-linecap:butt;stroke-linejoin:miter;stroke-opacity:1" />
      <path
         d="M 287.20379,291.877 C 287.20379,291.877 286.21189,283.99472 287.79621,280.56872 288.61707,278.79366 290.12326,276.28056 292.06161,276.54028 293.94137,276.79215 294.52118,279.56933 295.0237,281.3981 295.9558,284.79021 294.90521,291.95089 294.90521,291.95089"
         transform="scale(1.5,1.5)"
         id="path3993-9"
         style="fill:#cccccc;fill-opacity:1;stroke:#000;stroke-width:1px;stroke-linecap:butt;stroke-linejoin:miter;stroke-opacity:1" />
    </g>
    <path
       d="M -293.8911,257.60462 C -293.8911,257.60462 -342.06182,278.56721 -356.62393,285.68376 -357.59863,286.1601 -357.93784,287.59081 -357.90598,288.67521 -357.88259,289.47119 -357.58159,290.52803 -356.83761,290.81197 -348.60026,290.05978 -334.05635,281.55178 -325.64103,277.99146 L -301.28205,267.52137 -286.96581,260.47009"
       transform="scale(1.5,1.5)"
       id="path3995-4"
       style="fill:#cccccc;fill-opacity:1;stroke:#000;stroke-width:3;stroke-linecap:butt;stroke-linejoin:miter;stroke-miterlimit:4;stroke-opacity:1;stroke-dasharray:none" />
    <path
       d="M -280.125,243.375 -298.5,243.8125 -298.5,248.9375 -298.25,248.9375 -298,256.25 -280.15625,262.375 -233.21875,261.625 -152.0625,261.875 -151.8125,250.125 -297.9375,248.90625 -280.78125,248.0625 -228.84375,248.0625 -148.0625,249.34375 -148.0625,244.21875 -280.125,243.375 z"
       transform="scale(1.5,1.5)"
       id="path3997"
       style="fill:#cccccc;fill-opacity:1;stroke:#000;stroke-width:3.26999998;stroke-linecap:butt;stroke-linejoin:miter;stroke-miterlimit:4;stroke-opacity:1;stroke-dasharray:none" />
    <path
       d="M -299.01396,243.32737 -296.82783,256.20125 -279.8246,262.75964 -229.05781,261.30222 -152.30037,261.78802 -151.81456,249.15705 -147.6852,249.39996 -147.6852,244.05608 -218.37006,243.32737 -298.04234,243.32737 -298.04234,256.20125 -279.8246,262.75964"
       transform="scale(1.5,1.5)"
       id="path3999"
       style="fill:none;stroke:none" />
    <path
       d="M -280.12821,243.58974 -280.34188,248.2906 -281.38545,261.38527"
       transform="scale(1.5,1.5)"
       id="path4001-8"
       style="fill:none;stroke:#000;stroke-width:3.26999998;stroke-linecap:butt;stroke-linejoin:miter;stroke-miterlimit:4;stroke-opacity:1;stroke-dasharray:none" />
    <g
       id="g4003">
      <path
         d="M -262.50257,255.44952 C -265.35364,255.71466 -268.23809,256.5262 -270.71883,257.95617 -272.31234,258.87472 -273.70191,260.20981 -274.75733,261.71616 -276.667,264.44172 -278.41845,267.58777 -278.65657,270.90723 -278.90389,274.35499 -277.77716,277.96271 -276.01066,280.93385 -274.8695,282.8532 -273.06804,284.40881 -271.1366,285.52939 -269.206,286.64949 -266.95218,287.26247 -264.7307,287.47901 -261.5265,287.79134 -258.07544,287.78515 -255.12186,286.5042 -252.46572,285.35224 -250.27417,283.13994 -248.5767,280.79459 -247.24728,278.95776 -246.30122,276.76493 -245.93079,274.52795 -245.50503,271.95685 -245.65067,269.19747 -246.48782,266.72947 -247.2736,264.41293 -248.79716,262.33235 -250.52632,260.60209 -252.4921,258.63506 -254.8741,256.95232 -257.48925,256.00655 -259.07042,255.43472 -260.8284,255.29383 -262.50257,255.44952 z"
         transform="scale(1.5,1.5)"
         id="path4005-8"
         style="fill:none;stroke:#cccccc;stroke-width:3.70005;stroke-linecap:butt;stroke-linejoin:miter;stroke-miterlimit:4;stroke-opacity:1;stroke-dasharray:none" />
      <path
         d="M -244.49115,270.93802 A 16.778805,17.452953 0 1 1 -278.04876,270.93802 16.778805,17.452953 0 1 1 -244.49115,270.93802 z"
         transform="matrix(1.6370353,0,0,1.6008726,34.346366,-26.458187)"
         id="path4007-2"
         style="fill:none;stroke:#000;stroke-width:2.00270224;stroke-miterlimit:4;stroke-opacity:1;stroke-dasharray:none;stroke-dashoffset:0" />
      <path
         d="M -397.28553,428.44152 -392.92078,387.00336 -386.65166,387.9787 -390.91827,428.40945 z"
         id="path4009-4"
         style="fill:#cccccc;fill-opacity:1;stroke:#000;stroke-width:1.54907632px;stroke-linecap:butt;stroke-linejoin:miter;stroke-opacity:1" />
      <path
         d="M -375.08608,419.58466 -408.36793,392.65068 -411.9271,398.63198 -379.75835,424.32521 z"
         id="path4011"
         style="fill:#cccccc;fill-opacity:1;stroke:#000;stroke-width:1.80189204px;stroke-linecap:butt;stroke-linejoin:miter;stroke-opacity:1" />
      <path
         d="M -371.88544,408.20564 -413.93484,405.66072 -414.01599,411.37415 -372.44728,413.46303 z"
         id="path4013-5"
         style="fill:#cccccc;fill-opacity:1;stroke:#000;stroke-width:1.5303036px;stroke-linecap:butt;stroke-linejoin:miter;stroke-opacity:1" />
      <path
         d="M -376.65557,395.62664 -411.72682,419.132 -407.54045,423.48965 -373.07393,400.0942 z"
         id="path4015-5"
         style="fill:#cccccc;fill-opacity:1;stroke:#000;stroke-width:1.5px;stroke-linecap:butt;stroke-linejoin:miter;stroke-opacity:1" />
      <path
         d="M -258.52106,272.54211 A 2.8630307,2.9690688 0 1 1 -264.24712,272.54211 2.8630307,2.9690688 0 1 1 -258.52106,272.54211 z"
         transform="matrix(1.9021916,0,0,1.923005,104.59471,-114.76924)"
         id="path4017-1"
         style="fill:#cccccc;fill-opacity:1;stroke:#000;stroke-opacity:1" />
      <path
         d="M -244.49115,270.93802 A 16.778805,17.452953 0 1 1 -278.04876,270.93802 16.778805,17.452953 0 1 1 -244.49115,270.93802 z"
         transform="matrix(1.2906318,0,0,1.2014066,-55.88376,82.307775)"
         id="path4019"
         style="fill:none;stroke:#000;stroke-width:2.00270224;stroke-miterlimit:4;stroke-opacity:1;stroke-dasharray:none;stroke-dashoffset:0" />
      <path
         d="M -269.88327,254.33545 -275.03584,258.37395"
         transform="scale(1.5,1.5)"
         id="path4021"
         style="fill:none;stroke:#000;stroke-width:1px;stroke-linecap:butt;stroke-linejoin:miter;stroke-opacity:1" />
    </g>
    <g
       transform="matrix(1.1958473,0,0,1.1958473,202.38415,-82.79705)"
       id="g4023">
      <path
         d="M -262.50257,255.44952 C -265.35364,255.71466 -268.23809,256.5262 -270.71883,257.95617 -272.31234,258.87472 -273.70191,260.20981 -274.75733,261.71616 -276.667,264.44172 -278.41845,267.58777 -278.65657,270.90723 -278.90389,274.35499 -277.77716,277.96271 -276.01066,280.93385 -274.8695,282.8532 -273.06804,284.40881 -271.1366,285.52939 -269.206,286.64949 -266.95218,287.26247 -264.7307,287.47901 -261.5265,287.79134 -258.07544,287.78515 -255.12186,286.5042 -252.46572,285.35224 -250.27417,283.13994 -248.5767,280.79459 -247.24728,278.95776 -246.30122,276.76493 -245.93079,274.52795 -245.50503,271.95685 -245.65067,269.19747 -246.48782,266.72947 -247.2736,264.41293 -248.79716,262.33235 -250.52632,260.60209 -252.4921,258.63506 -254.8741,256.95232 -257.48925,256.00655 -259.07042,255.43472 -260.8284,255.29383 -262.50257,255.44952 z"
         transform="scale(1.5,1.5)"
         id="path4025"
         style="fill:none;stroke:#cccccc;stroke-width:3.70005;stroke-linecap:butt;stroke-linejoin:miter;stroke-miterlimit:4;stroke-opacity:1;stroke-dasharray:none" />
      <path
         d="M -244.49115,270.93802 A 16.778805,17.452953 0 1 1 -278.04876,270.93802 16.778805,17.452953 0 1 1 -244.49115,270.93802 z"
         transform="matrix(1.6370353,0,0,1.6008726,34.346366,-26.458187)"
         id="path4027"
         style="fill:none;stroke:#000;stroke-width:2.00270224;stroke-miterlimit:4;stroke-opacity:1;stroke-dasharray:none;stroke-dashoffset:0" />
      <path
         d="M -397.28553,428.44152 -392.92078,387.00336 -386.65166,387.9787 -390.91827,428.40945 z"
         id="path4029"
         style="fill:#cccccc;fill-opacity:1;stroke:#000;stroke-width:1.54907632px;stroke-linecap:butt;stroke-linejoin:miter;stroke-opacity:1" />
      <path
         d="M -375.08608,419.58466 -408.36793,392.65068 -411.9271,398.63198 -379.75835,424.32521 z"
         id="path4031"
         style="fill:#cccccc;fill-opacity:1;stroke:#000;stroke-width:1.80189204px;stroke-linecap:butt;stroke-linejoin:miter;stroke-opacity:1" />
      <path
         d="M -371.88544,408.20564 -413.93484,405.66072 -414.01599,411.37415 -372.44728,413.46303 z"
         id="path4033"
         style="fill:#cccccc;fill-opacity:1;stroke:#000;stroke-width:1.5303036px;stroke-linecap:butt;stroke-linejoin:miter;stroke-opacity:1" />
      <path
         d="M -376.65557,395.62664 -411.72682,419.132 -407.54045,423.48965 -373.07393,400.0942 z"
         id="path4035"
         style="fill:#cccccc;fill-opacity:1;stroke:#000;stroke-width:1.5px;stroke-linecap:butt;stroke-linejoin:miter;stroke-opacity:1" />
      <path
         d="M -258.52106,272.54211 A 2.8630307,2.9690688 0 1 1 -264.24712,272.54211 2.8630307,2.9690688 0 1 1 -258.52106,272.54211 z"
         transform="matrix(1.9021916,0,0,1.923005,104.59471,-114.76924)"
         id="path4037"
         style="fill:#cccccc;fill-opacity:1;stroke:#000;stroke-opacity:1" />
      <path
         d="M -244.49115,270.93802 A 16.778805,17.452953 0 1 1 -278.04876,270.93802 16.778805,17.452953 0 1 1 -244.49115,270.93802 z"
         transform="matrix(1.2906318,0,0,1.2014066,-55.88376,82.307775)"
         id="path4039"
         style="fill:none;stroke:#000;stroke-width:2.00270224;stroke-miterlimit:4;stroke-opacity:1;stroke-dasharray:none;stroke-dashoffset:0" />
      <path
         d="M -269.88327,254.33545 -275.03584,258.37395"
         transform="scale(1.5,1.5)"
         id="path4041"
         style="fill:none;stroke:#000;stroke-width:1px;stroke-linecap:butt;stroke-linejoin:miter;stroke-opacity:1" />
    </g>
  </g>
  <path
     inkscape:connector-curvature="0"
     style="fill:#cccccc;stroke:#000000;stroke-width:0.24780536;stroke-opacity:1"
     id="path4176"
     d="M 843.70895,205.46621 838.45763,208.22538 839.6592,212.89816 838.19062,222.37723 846.55712,224.55786 848.82676,220.64162 848.07021,215.2568 848.96027,209.24894 846.2011,205.86673 z" />
  <path
     inkscape:connector-curvature="0"
     style="fill:#1a1a1a;stroke:#000000;stroke-width:0.37170804px;stroke-linecap:butt;stroke-linejoin:miter;stroke-opacity:1"
     id="path4178"
     d="M 842.79909,216.32686 C 842.88539,216.64733 842.36115,216.45062 842.23257,216.71216 841.79587,217.007 841.24687,217.1063 840.87664,217.50106 840.43364,217.88213 840.04944,218.32806 839.68895,218.78491 839.32507,219.00439 839.21904,219.35135 838.91937,219.59563 838.57461,219.49625 838.55518,219.36156 838.24632,219.18502 837.9014,218.91401 837.55648,218.643 837.21156,218.37199 837.8791,215.64249 838.54664,212.91299 839.21418,210.18349 839.46152,211.68766 839.5884,213.3086 840.52798,214.57501 841.16695,215.45339 841.81529,215.89538 842.79909,216.32686 z" />
  <path
     inkscape:connector-curvature="0"
     style="fill:#cccccc;stroke:none"
     id="path4180"
     d="M 864.35246,246.34058 865.702,246.84274 866.04724,245.43043 866.64355,244.61442 868.62078,244.92827 868.9974,245.77566 869.15432,246.99966 868.84047,248.03536 870.12725,248.53751 870.66079,247.1252 870.66079,245.4932 870.19001,243.89258 869.49955,243.2335 865.702,243.04519 865.04293,243.61011 864.38385,244.70858 864.38385,246.49751 z" />
  <path
     inkscape:connector-curvature="0"
     style="fill:none;stroke:#000000;stroke-width:0.37170804px;stroke-linecap:butt;stroke-linejoin:miter;stroke-opacity:1"
     id="path4182"
     d="M 864.31446,246.3783 C 864.31446,246.3783 864.24682,244.60935 864.80933,243.86567 865.285,243.2368 866.01708,242.77342 866.80362,242.71777 867.83093,242.64509 868.96386,242.85599 869.80525,243.44988 870.56836,243.98851 870.64986,245.06463 870.73659,245.99464 870.82496,246.94227 870.24451,248.4282 870.24451,248.4282 z" />
  <path
     inkscape:connector-curvature="0"
     style="fill:none;stroke:#000000;stroke-width:0.37170804px;stroke-linecap:butt;stroke-linejoin:miter;stroke-opacity:1"
     id="path4185"
     d="M 865.72893,247.35044 C 865.72893,247.35044 865.75664,245.67539 866.21794,245.13372 866.64397,244.63347 867.50504,244.39354 868.12141,244.62125 868.64841,244.81593 868.92295,245.47089 869.07315,246.01225 869.29536,246.81315 868.85938,248.39299 868.85938,248.39299 z" />
  <path
     inkscape:connector-curvature="0"
     style="fill:none;stroke:#000000;stroke-width:2.0815649;stroke-linecap:butt;stroke-linejoin:miter;stroke-miterlimit:4;stroke-opacity:1;stroke-dasharray:none"
     id="path4187"
     d="M 863.67731,265.25835 C 864.42976,264.88224 865.16278,264.47752 865.88791,264.08098 867.11343,263.41081 867.93217,262.25886 867.91884,260.82392 867.90668,259.51467 867.05088,257.59494 866.0973,256.77114 866.00032,256.68736 865.8086,256.54205 865.71099,256.46072" />
  <path
     inkscape:connector-curvature="0"
     style="fill:none;stroke:#000000;stroke-width:2.0815649;stroke-linecap:butt;stroke-linejoin:miter;stroke-miterlimit:4;stroke-opacity:1;stroke-dasharray:none"
     id="path4189"
     d="M 865.80536,256.52363 C 865.35328,256.14694 864.82209,255.74065 864.36903,255.37809" />
  <path
     inkscape:connector-curvature="0"
     style="fill:none;stroke:#000000;stroke-width:2.0815649;stroke-linecap:butt;stroke-linejoin:miter;stroke-miterlimit:4;stroke-opacity:1;stroke-dasharray:none"
     id="path4191"
     d="M 864.44243,255.43052 C 863.94679,255.03389 863.45681,254.62687 862.98612,254.16821 861.98551,253.19317 862.03198,250.99574 861.93121,249.61452" />
  <path
     inkscape:connector-curvature="0"
     style="fill:none;stroke:#000000;stroke-width:2.0815649;stroke-linecap:butt;stroke-linejoin:miter;stroke-miterlimit:4;stroke-opacity:1;stroke-dasharray:none"
     id="path4193"
     d="M 861.12015,275.66499 C 861.04225,275.58811 860.9619,275.50829 860.87888,275.42411 860.55135,275.09207 860.13242,274.67023 859.77628,274.29953 859.71037,274.23092 859.6466,274.16406 859.58597,274.09984" />
  <path
     inkscape:connector-curvature="0"
     style="fill:none;stroke:#cccccc;stroke-width:1.04078245;stroke-linecap:butt;stroke-linejoin:miter;stroke-miterlimit:4;stroke-opacity:1;stroke-dasharray:none"
     id="path4195"
     d="M 861.17561,275.72044 C 861.0977,275.64356 860.9619,275.50829 860.87888,275.42411 860.49074,275.03061 860.01052,274.5473 859.62226,274.13614" />
  <path
     inkscape:connector-curvature="0"
     style="fill:none;stroke:#000000;stroke-width:2.0815649;stroke-linecap:butt;stroke-linejoin:miter;stroke-miterlimit:4;stroke-opacity:1;stroke-dasharray:none"
     id="path4197"
     d="M 862.82296,286.04884 C 863.761,282.15092 863.41597,278.20208 860.96871,275.50491"
     sodipodi:nodetypes="cc" />
  <path
     inkscape:connector-curvature="0"
     style="fill:none;stroke:#000000;stroke-width:2.0815649;stroke-linecap:butt;stroke-linejoin:miter;stroke-miterlimit:4;stroke-opacity:1;stroke-dasharray:none"
     id="path4199"
     d="M 859.66486,274.19227 C 859.23879,273.74107 858.86389,273.30365 858.48235,272.82012 857.24072,271.24657 855.49779,268.39476 857.71988,266.73206 858.85058,265.88601 860.41127,266.16319 861.82533,265.9406"
     sodipodi:nodetypes="cssc" />
  <path
     inkscape:connector-curvature="0"
     style="fill:none;stroke:#cccccc;stroke-width:1.04078245;stroke-linecap:butt;stroke-linejoin:miter;stroke-miterlimit:4;stroke-opacity:1;stroke-dasharray:none"
     id="path4201"
     d="M 859.70544,274.21932 C 859.27937,273.76812 858.86389,273.30365 858.48235,272.82012 857.24072,271.24657 855.49779,268.39476 857.71988,266.73206 858.85058,265.88601 860.41127,266.16319 861.82533,265.9406" />
  <path
     inkscape:connector-curvature="0"
     style="fill:none;stroke:#cccccc;stroke-width:1.04078245;stroke-linecap:butt;stroke-linejoin:miter;stroke-miterlimit:4;stroke-opacity:1;stroke-dasharray:none"
     id="path4203"
     d="M 862.82296,286.04884 C 863.761,282.15092 863.24613,278.00518 860.79887,275.30801"
     sodipodi:nodetypes="cc" />
  <path
     inkscape:connector-curvature="0"
     style="fill:#cccccc;fill-opacity:1;stroke:#000000;stroke-width:0.37170804px;stroke-linecap:butt;stroke-linejoin:miter;stroke-opacity:1"
     id="path4205"
     d="M 865.41016,251.64718 856.77844,285.95271 858.44196,286.2026 866.95944,251.8685 z"
     sodipodi:nodetypes="ccccc" />
  <path
     sodipodi:nodetypes="csccsssccssssccsc"
     inkscape:connector-curvature="0"
     style="fill:#cccccc;fill-opacity:1;stroke:#000000;stroke-width:0.37170804px;stroke-linecap:butt;stroke-linejoin:miter;stroke-opacity:1"
     id="path4242"
     d="M 881.01364,269.57458 C 881.01364,269.57458 876.08998,273.41683 873.26723,275.10773 871.21399,276.33767 866.73812,278.09563 866.73812,278.09563 L 871.93928,278.98094 C 871.93928,278.98094 870.03822,281.97738 868.61939,282.96481 865.98596,284.7975 862.73969,285.87779 859.54502,286.17403 858.3554,286.28435 857.05713,286.18453 856.0038,285.62072 853.84019,284.46261 850.91435,280.2123 850.91435,280.2123 L 850.73973,285.3935 C 850.73973,285.3935 851.80925,286.74413 852.36977,287.40203 853.35321,288.55634 854.6236,290.08302 856.0038,290.71122 857.01101,291.16965 858.24402,290.954 859.32369,290.71122 862.35019,290.03066 865.08214,288.77909 867.62342,287.17 870.2064,285.5345 874.48453,281.08353 874.48453,281.08353 L 878.02574,284.84608 C 878.02574,284.84608 879.57564,278.14706 880.239,274.55442 880.57154,272.75343 881.01364,269.57458 881.01364,269.57458 z" />
  <path
     inkscape:connector-curvature="0"
     style="fill:none;stroke:#cccccc;stroke-width:1.04078245;stroke-linecap:butt;stroke-linejoin:miter;stroke-miterlimit:4;stroke-opacity:1;stroke-dasharray:none"
     id="path4207"
     d="M 863.67731,265.25835 C 864.42976,264.88224 865.16278,264.47752 865.88791,264.08098 867.11343,263.41081 867.93217,262.25886 867.91884,260.82392 867.90668,259.51467 867.05088,257.59494 866.0973,256.77114 866.00032,256.68736 865.90297,256.60497 865.80536,256.52363" />
  <path
     inkscape:connector-curvature="0"
     style="fill:none;stroke:#cccccc;stroke-width:1.04078245;stroke-linecap:butt;stroke-linejoin:miter;stroke-miterlimit:4;stroke-opacity:1;stroke-dasharray:none"
     id="path4209"
     d="M 864.44243,255.43052 C 863.94679,255.03389 863.45681,254.62687 862.98612,254.16821 861.98551,253.19317 862.03198,250.99574 861.93121,249.61452" />
  <path
     inkscape:connector-curvature="0"
     style="fill:#cccccc;fill-opacity:1;stroke:#000000;stroke-width:0.37170804px;stroke-linecap:butt;stroke-linejoin:miter;stroke-opacity:1"
     id="path4211"
     d="M 857.08681,245.56438 C 859.92998,244.86514 862.84017,246.16397 865.67303,246.90384 868.62715,247.67537 870.76446,248.96217 873.6955,249.81718 875.3162,250.28995 878.3357,249.56566 879.30997,250.94441 879.76452,251.58768 879.71012,252.75624 879.14161,253.30141 877.76385,254.62261 874.14643,253.3573 872.24609,253.17693 869.67071,252.93248 868.03838,252.34196 865.54855,251.63978 863.72089,251.12434 862.19905,250.68303 860.45395,249.93427 859.00075,249.31075 857.56535,248.76591 856.68429,247.45278 856.33892,246.93805 855.83946,246.46637 856.07667,245.89369 856.2444,245.48875 856.66119,245.66906 857.08681,245.56438 z" />
  <path
     inkscape:connector-curvature="0"
     style="fill:#cccccc;fill-opacity:1;stroke:#000000;stroke-width:0.37170804px;stroke-linecap:butt;stroke-linejoin:miter;stroke-opacity:1"
     id="path4213-7"
     d="M 850.65556,228.85595 C 850.65556,228.85595 852.97279,231.56488 854.1574,232.89652 855.55144,234.46357 857.17974,236.42268 859.00445,237.45683 860.27985,238.17965 861.26966,238.14532 862.70994,238.41863 863.47137,238.56313 864.4099,238.3198 864.9996,238.82269 865.46954,239.22345 865.52584,239.96117 865.60569,240.57361 865.68426,241.17625 865.3404,241.79831 865.471,242.39186 865.61999,243.069 866.01418,243.69761 866.48114,244.21012 866.82919,244.59212 867.24435,245.06347 867.76066,245.08558 868.35317,245.11095 868.94827,244.68044 869.30955,244.21012 869.69096,243.71358 869.8534,243.01378 869.78095,242.39186 869.56948,240.57662 868.38935,238.94921 867.22192,237.54318 866.69115,236.90394 865.96273,236.4515 865.26897,235.99429 863.92716,235.10998 861.98039,234.73649 860.68097,233.79098 858.94785,232.5299 857.77383,230.88802 856.37971,229.26 855.79241,228.57416 854.83082,227.03769 854.83082,227.03769 L 853.88802,225.62349 849.64542,226.63363 z" />
  <path
     sodipodi:nodetypes="cccsscsssssscssscssssssssssccccccccccccc"
     inkscape:connector-curvature="0"
     style="fill:#cccccc;stroke:#000000;stroke-width:0.37170804px;stroke-linecap:butt;stroke-linejoin:miter;stroke-opacity:1"
     id="path4215-1"
     d="M 832.20543,225.27906 C 832.34761,223.51231 834.16978,222.58555 835.15201,221.23881 L 838.58031,219.36882 C 838.58031,219.36882 840.86402,221.50974 842.32029,221.86214 843.43815,222.13265 844.63883,221.77455 845.7486,221.47256 846.73588,221.2039 848.55358,220.2259 848.55358,220.2259 848.55358,220.2259 851.3821,222.01829 852.63581,223.11788 853.4578,223.83882 854.43409,224.15979 854.73381,225.06579 854.88218,225.51428 854.74535,226.25666 854.4752,226.4592 854.09886,226.74135 853.51838,226.46459 853.07272,226.61502 852.35528,226.85719 851.55816,227.16282 851.12481,227.78377 850.80707,228.23908 851.32753,229.21101 850.81315,229.42001 850.22572,229.65868 849.21454,228.40975 849.21454,228.40975 849.21454,228.40975 848.99258,229.39154 849.02108,229.88751 849.0948,231.17041 849.74619,232.35971 849.95607,233.62748 850.16039,234.86166 850.60619,236.16313 850.26773,237.36745 850.04145,238.17262 848.78733,239.39327 848.78733,239.39327 848.78733,239.39327 849.33305,240.90989 849.64441,241.65284 850.19688,242.97116 851.1054,244.15811 851.43648,245.54865 851.76756,246.93918 851.59231,249.52237 851.59231,249.83403 851.59231,250.1457 851.54438,252.79998 851.67022,254.27525 851.72829,254.956 851.89168,255.62384 851.98189,256.30107 852.22692,258.14051 852.53485,259.97877 852.60522,261.83312 852.65942,263.2615 852.46881,264.68923 852.44939,266.11851 852.41092,268.94932 852.95207,271.81234 852.5273,274.61137 852.31041,276.0406 851.44917,277.31649 851.20273,278.74092 851.0654,279.53468 851.14317,280.35098 851.12481,281.15632 851.08042,283.10389 851.0469,287.00003 851.0469,287.00003 L 852.44939,288.48044 852.83897,293.38915 850.65732,292.76582 848.39775,294.47998 845.43693,294.16831 844.26819,293.93457 843.02153,292.60999 841.46321,293.85665 836.24283,293.23332 827.59414,279.28633 831.48994,230.74458 z" />
  <path
     inkscape:connector-curvature="0"
     style="fill:#cccccc;fill-opacity:1;stroke:none"
     id="path4217-1"
     d="M 835.59363,229.58116 830.83361,235.70117 824.03359,235.70117 823.6256,237.87718 824.44159,241.68519 821.44959,247.6692 822.40159,251.61321 820.63359,256.23722 818.32158,263.30924 818.45758,267.38925 818.59358,270.78926 817.09758,277.31728 816.14558,281.26128 816.55358,282.89329 815.19357,284.52529 815.05757,287.6533 814.64957,289.55731 815.05757,292.00531 824.1696,294.31732 832.05761,293.09331 836.13763,292.41331 835.59363,289.55731 836.13763,285.8853 834.77762,284.25329 832.87362,281.39729 832.87362,277.18127 832.19361,267.25325 832.60162,265.34925 833.00962,263.58124 833.82562,263.17324 834.77762,257.18923 834.91362,253.78922 836.54562,248.8932 836.13763,239.91718 835.18562,236.51717 836.13763,232.16517 z" />
  <path
     sodipodi:nodetypes="ccccccccccccccccccccccccccccccccccccccccccccccccccccccccccc"
     inkscape:connector-curvature="0"
     style="fill:#4d4d4d;stroke:none"
     id="path4219-5"
     d="M 834.49696,283.85347 827.87943,283.92387 829.00582,286.10625 828.23143,286.59904 829.07622,288.71102 825.83786,289.34461 826.40105,290.3302 823.09229,288.35902 818.86833,287.65503 816.40436,285.82465 816.89715,282.16389 817.74194,280.19271 824.35947,279.84071 825.20426,276.74314 828.65383,274.27917 830.20261,268.64723 829.99141,267.30965 827.94984,265.62006 826.40105,266.32406 827.10504,269.56242 823.23308,269.06963 820.98031,265.90166 820.90991,262.80409 821.8955,261.32571 824.07788,262.4521 825.41546,261.46651 828.09063,261.25531 829.92101,254.70818 826.26025,255.97537 826.47145,253.2298 824.42987,251.18822 827.38664,250.55462 829.35782,247.94985 832.38499,245.97867 827.45704,240.83953 827.45704,238.65715 828.72423,236.68597 833.34975,230.76459 835.16827,228.74056 836.13892,232.31386 835.66732,234.23899 835.36909,235.94032 835.31533,236.48043 835.59771,238.18176 837.04133,239.5164 839.07292,244.38589 838.72092,247.42186 837.87998,249.47994 836.30563,249.52115 834.97576,253.90171 834.80711,256.81544 834.57735,259.11799 834.78753,260.21031 833.81224,263.17305 833.09354,263.64208 832.19148,267.28922 832.81737,276.68142 832.70985,281.36756 z" />
  <path
     inkscape:connector-curvature="0"
     style="fill:#4d4d4d;stroke:none"
     id="path4221-2"
     d="M 834.77681,284.22551 832.38235,287.46508 831.67809,289.437 829.00192,290.42295 826.32575,291.40891 822.24108,290.84551 817.45214,289.57785 814.77597,289.01444 814.57398,289.55581 815.06677,292.01978 816.54516,292.44218 821.7547,293.70936 824.21867,294.34296 828.65383,293.63896 836.25694,292.44218 835.62335,289.69661 835.97535,286.95104 836.11615,285.68385 z" />
  <path
     inkscape:connector-curvature="0"
     style="fill:none;stroke:#000000;stroke-width:0.37170804px;stroke-linecap:butt;stroke-linejoin:miter;stroke-opacity:1"
     id="path4225-6"
     d="M 818.51538,267.11384 C 819.04547,268.20833 819.02536,268.75263 820.49759,270.78926" />
  <path
     inkscape:connector-curvature="0"
     style="fill:none;stroke:#000000;stroke-width:0.37170804px;stroke-linecap:butt;stroke-linejoin:miter;stroke-opacity:1"
     id="path4227-1"
     d="M 861.45925,245.86583 C 860.86043,246.93771 860.08951,247.66539 859.84862,249.45314" />
  <path
     inkscape:connector-curvature="0"
     style="fill:none;stroke:#000000;stroke-width:0.37170804px;stroke-linecap:butt;stroke-linejoin:miter;stroke-opacity:1"
     id="path4230"
     d="M 863.58235,246.3783 C 862.18799,247.56662 861.63517,248.87516 861.60567,250.25846" />
  <path
     inkscape:connector-curvature="0"
     style="fill:none;stroke:#000000;stroke-width:0.37170804px;stroke-linecap:butt;stroke-linejoin:miter;stroke-opacity:1"
     id="path4232"
     d="M 872.07478,249.37993 C 871.96291,250.63466 871.72251,251.76086 871.41589,252.82083" />
  <path
     inkscape:connector-curvature="0"
     style="fill:none;stroke:#000000;stroke-width:0.37170804px;stroke-linecap:butt;stroke-linejoin:miter;stroke-opacity:1"
     id="path4234"
     d="M 874.2711,249.8192 C 874.32704,250.94176 874.4309,252.06432 873.53899,253.18688" />
  <path
     inkscape:connector-curvature="0"
     style="fill:none;stroke:#cccccc;stroke-width:1.04078245;stroke-linecap:butt;stroke-linejoin:miter;stroke-miterlimit:4;stroke-opacity:1;stroke-dasharray:none"
     id="path4236"
     d="M 865.83715,256.55542 C 865.38507,256.17873 864.75245,255.66593 864.29939,255.30338" />
  <path
     inkscape:connector-curvature="0"
     style="fill:none;stroke:#000000;stroke-width:2.0815649;stroke-linecap:butt;stroke-linejoin:miter;stroke-miterlimit:4;stroke-opacity:1;stroke-dasharray:none"
     id="path4238"
     d="M 861.50746,265.97239 C 861.8778,265.91409 863.12645,265.49996 863.46799,265.34764 863.6675,265.25866 863.99142,265.10125 864.24947,264.97226" />
  <path
     inkscape:connector-curvature="0"
     style="fill:none;stroke:#cccccc;stroke-width:1.04078245;stroke-linecap:butt;stroke-linejoin:miter;stroke-miterlimit:4;stroke-opacity:1;stroke-dasharray:none"
     id="path4240"
     d="M 861.09423,266.03596 C 861.75066,265.97767 862.55596,265.78973 862.89582,265.63372 863.15892,265.51295 864.15275,265.0129 864.41081,264.88392" />
  <path
     inkscape:connector-curvature="0"
     style="fill:#cccccc;fill-opacity:1;stroke:#000000;stroke-width:0.37170804px;stroke-linecap:butt;stroke-linejoin:miter;stroke-opacity:1"
     id="path4246"
     d="M 838.44765,219.35128 C 838.94455,218.40822 838.61665,217.17909 838.78453,216.12644 838.93531,215.18099 839.00233,214.09198 839.32588,213.19091 839.75781,211.98802 839.72283,210.94939 840.22711,209.775 840.65851,208.77035 841.19457,207.8739 842.07783,207.2295 842.87176,206.65027 844.01862,206.52695 844.98198,206.72127 845.77165,206.88056 846.49357,207.41398 847.01488,208.02814 847.6462,208.77191 848.03857,209.45526 848.17654,210.42103 848.3145,211.38681 848.12784,212.40162 847.81352,213.32518 847.50595,214.22892 846.90048,215.0058 846.36144,215.7937 846.03065,216.27722 845.64838,216.58746 845.63541,217.17317 845.61891,217.91853 846.06109,218.45223 846.57926,218.98826 847.04692,219.47204 847.60331,219.87016 848.17654,220.22252 848.65609,220.5173 849.24572,221.2793 849.70121,220.94856 850.60967,220.28891 849.28928,218.73123 849.26559,217.60879 849.23637,216.22434 849.42654,214.84033 849.62861,213.47038 849.71518,212.88343 849.9775,212.32103 849.99163,211.7279 850.0173,210.64996 849.86641,209.54127 849.4834,208.53334 849.11615,207.56689 848.63525,206.54703 847.81352,205.91961 846.58457,204.98125 844.92944,204.47231 843.3847,204.54014 841.92099,204.60441 840.50141,205.34501 839.3189,206.21002 838.37604,206.89973 837.53617,207.826 837.06818,208.89636 836.60881,209.94701 836.70532,211.16435 836.63256,212.30873 836.56501,213.37143 836.77777,215.06766 836.63256,215.50329 836.48736,215.93891 835.62178,217.8097 835.18049,218.98826 834.9658,219.56163 834.83684,220.16631 834.59966,220.73075 834.18875,221.70864 832.30536,222.91747 833.14759,223.56229 834.29026,224.43712 835.19359,221.52523 836.34215,220.65814 837.00141,220.16044 838.06259,220.08208 838.44765,219.35128 z" />
  <path
     inkscape:connector-curvature="0"
     style="fill:#000000"
     id="path4248"
     d="M 843.7839,209.21425 C 843.48101,208.7899 842.69927,209.0515 842.22041,209.25768 842.01356,209.34674 841.71771,209.51159 841.74268,209.73542 841.77873,210.05873 842.2444,210.22175 842.56784,210.25657 842.90479,210.29285 843.28249,210.14756 843.52331,209.90913 843.69911,209.73509 843.92761,209.41559 843.7839,209.21425 z" />
  <path
     inkscape:connector-curvature="0"
     style="fill:#000000"
     id="path4250"
     d="M 847.16389,209.0857 C 846.80182,208.7687 846.12957,208.8327 845.72021,209.0857 845.59396,209.16373 845.47129,209.34414 845.52108,209.48396 845.64319,209.82679 846.15662,209.87935 846.51673,209.93199 846.7652,209.96832 847.11092,210.03191 847.26346,209.83243 847.416,209.63296 847.35282,209.25111 847.16389,209.0857 z" />
  <path
     inkscape:connector-curvature="0"
     style="fill:#000000"
     id="path4252"
     d="M 844.47452,211.70996 C 844.73414,211.43172 845.46711,211.48301 845.60922,211.83604 845.69094,212.03903 845.34523,212.18717 845.18896,212.34035 845.1249,212.40314 845.06853,212.50846 844.97883,212.50846 844.79943,212.50846 844.65049,212.32631 844.55857,212.17225 844.47832,212.03775 844.36767,211.82447 844.47452,211.70996 z" />
  <path
     inkscape:connector-curvature="0"
     style="fill:#000000"
     id="path4254"
     d="M 843.76786,213.10783 C 844.60049,213.56276 845.21954,213.46402 846.15364,213.2951 846.27495,213.88015 845.32739,214.14687 844.73559,214.06448 844.05608,213.92443 843.75627,213.59506 843.76786,213.10783 z" />
  <path
     inkscape:connector-curvature="0"
     style="fill:none;stroke:#000000;stroke-width:0.37170804px;stroke-linecap:butt;stroke-linejoin:miter;stroke-opacity:1"
     id="path4256"
     d="M 846.18013,216.12316 C 846.18013,216.12316 844.9726,216.7197 844.48058,216.72623 843.58445,216.73811 842.70265,216.29389 841.95866,215.79421 841.21778,215.29662 840.62023,214.57875 840.14947,213.82054 839.82903,213.30445 839.62199,212.38183 839.62199,212.38183" />
  <path
     inkscape:connector-curvature="0"
     style="fill:none;stroke:#000000;stroke-width:0.37170804px;stroke-linecap:butt;stroke-linejoin:miter;stroke-opacity:1"
     id="path4258"
     d="M 848.81763,239.36275 C 846.72524,239.68605 845.30529,240.45765 843.78805,241.16439" />
  <path
     inkscape:connector-curvature="0"
     style="fill:none;stroke:#000000;stroke-width:0.37170804px;stroke-linecap:butt;stroke-linejoin:miter;stroke-opacity:1"
     id="path4260"
     d="M 840.25984,240.4137 C 838.78098,240.11845 837.40977,239.6079 836.13108,238.91234" />
  <path
     sodipodi:nodetypes="cc"
     inkscape:connector-curvature="0"
     style="fill:none;stroke:#000000;stroke-width:0.37170804px;stroke-linecap:butt;stroke-linejoin:miter;stroke-opacity:1"
     id="path4262"
     d="M 834.47957,223.22305 C 837.59472,224.06268 836.58552,227.53337 836.43135,228.59724" />
  <path
     sodipodi:nodetypes="ccccccccccccccccccccccccssssssccccssc"
     inkscape:connector-curvature="0"
     style="fill:none;stroke:#000000;stroke-width:0.37170804px;stroke-linecap:butt;stroke-linejoin:miter;stroke-opacity:1"
     id="path4223-7"
     d="M 835.29335,229.05568 830.83361,235.70117 824.03359,235.70117 823.6256,237.87718 824.44159,241.68519 821.44959,247.6692 822.40159,251.61321 820.63359,256.23722 818.32158,263.30924 818.45758,267.38925 818.59358,270.78926 817.09758,277.31728 816.14558,281.26128 816.55358,282.89329 815.19357,284.52529 815.05757,287.6533 814.64957,289.55731 815.05757,292.00531 824.1696,294.31732 832.05761,293.09331 836.13763,292.41331 835.59363,289.55731 836.13763,285.8853 834.77762,284.25329 C 834.77762,284.25329 833.20518,282.49236 832.87362,281.39729 832.46637,280.05225 832.92166,278.58579 832.87362,277.18127 832.76022,273.86612 831.95713,270.5619 832.19361,267.25325 832.23989,266.60583 832.46063,265.98283 832.60162,265.34925 832.73299,264.75886 832.63547,264.05645 833.00962,263.58124 833.19774,263.34231 833.64586,263.41853 833.82562,263.17324 835.01956,261.54415 834.77762,257.18923 834.77762,257.18923 L 834.91362,253.78922 836.54562,248.8932 836.13763,239.91718 C 836.13763,239.91718 835.21954,237.69361 835.18562,236.51717 835.14283,235.03282 836.17458,233.64968 836.13763,232.16517 836.1109,231.09148 835.29335,229.05568 835.29335,229.05568 z" />
  <path
     inkscape:connector-curvature="0"
     style="fill:#cccccc;fill-opacity:1;stroke:#000000;stroke-width:0.37170804px;stroke-linecap:butt;stroke-linejoin:miter;stroke-opacity:1"
     id="path4244"
     d="M 832.50739,225.37244 C 831.57492,225.34978 831.2118,225.70368 830.76032,226.51988 830.08458,227.74149 830.34094,229.50285 830.00417,230.85766 829.73491,231.94084 829.46532,232.8503 828.94888,233.83977 828.61616,234.47726 827.8561,235.02836 827.9337,235.74325 828.03569,236.68286 829.0933,237.24453 829.77372,237.90052 831.17194,239.24853 832.90915,240.20604 834.34206,241.51712 834.75045,241.89079 835.07263,242.35243 835.48415,242.72265 835.82064,243.02538 836.41334,243.12025 836.56278,243.54749 836.67795,243.87674 836.42773,244.2347 836.30899,244.56268 836.07713,245.20307 835.51729,245.72852 835.4207,246.4027 835.36596,246.78475 835.25278,247.40125 835.61104,247.54479 835.80737,247.62345 835.93112,247.06626 836.11864,247.16409 836.66274,247.44797 835.8416,248.42878 836.05519,249.00412 836.18542,249.3549 836.45323,249.73959 836.81658,249.82896 837.4272,249.97915 837.86267,249.41465 838.27591,248.94067 838.88651,248.24033 838.78427,247.13938 838.84695,246.21236 838.92705,245.02766 839.26302,244.04684 838.9104,242.913 838.53877,241.71804 837.79897,240.64596 837.00693,239.67709 835.94528,238.37844 834.79399,237.58331 833.63013,236.37541 833.05706,235.78065 833.10515,235.37265 833.03346,234.54985 832.90434,233.06805 833.63542,231.72294 834.29604,230.39028 834.75488,229.46467 835.98154,229.45664 835.96753,228.42364 835.9606,227.91259 834.793,226.68458 834.46896,226.28932 834.05589,225.78547 833.15873,225.38827 832.50739,225.37244 z" />
  <path
     inkscape:connector-curvature="0"
     style="fill:none;stroke:#000000;stroke-width:0.37170804px;stroke-linecap:butt;stroke-linejoin:miter;stroke-opacity:1"
     id="path4264"
     d="M 849.14718,228.24163 C 848.55627,228.08049 848.07105,226.64036 848.09815,224.64385" />
  <path
     inkscape:connector-curvature="0"
     style="fill:#4d4d4d;stroke:none"
     id="path4266"
     d="M 835.95623,255.58399 835.58915,261.33491 835.34443,267.45291 836.20095,281.89138 836.07859,269.16595 836.56803,261.94671 z" />
  <path
     inkscape:connector-curvature="0"
     style="fill:#4d4d4d;stroke:none"
     id="path4268"
     d="M 840.85063,249.71071 840.48355,254.72747 839.50467,252.15791 839.50467,269.53303 840.36119,264.88335 840.97299,257.17467 z" />
  <path
     inkscape:connector-curvature="0"
     style="fill:none;stroke:#4d4d4d;stroke-width:0.37170804px;stroke-linecap:butt;stroke-linejoin:miter;stroke-opacity:1"
     id="path4270"
     d="M 844.76615,277.97586 844.39907,285.07274 z" />
  <path
     inkscape:connector-curvature="0"
     style="fill:none;stroke:#4d4d4d;stroke-width:0.78058684;stroke-linecap:butt;stroke-linejoin:miter;stroke-miterlimit:4;stroke-opacity:1;stroke-dasharray:none"
     id="path4272"
     d="M 847.58043,270.63427 847.82515,288.49882" />
  <path
     inkscape:connector-curvature="0"
     style="fill:#4d4d4d;stroke:none"
     id="path4274"
     d="M 845.13323,245.30575 845.62267,248.12003 845.01087,259.86659 845.50031,264.63863 845.50031,268.92123 845.50031,271.73551 847.94751,271.12371 848.92639,265.49515 849.66055,261.21255 850.63943,257.05231 850.39471,250.93431 849.53819,245.91755 849.90527,242.73619 847.33571,240.53371 848.43695,242.36911 847.45807,244.44923 848.55931,248.24239 848.92639,254.60511 847.82515,260.72311 847.09099,257.05231 847.33571,249.95543 z" />
  <g
     transform="matrix(0.28363155,0,0,0.28363155,1050.1482,281.61007)"
     id="g4317">
    <path
       d="M -319.00603,-81.133069 C -319.00603,-81.133069 -321.20711,-76.899798 -322.5672,-74.947876 -324.24098,-72.545755 -325.64551,-69.648413 -328.19011,-68.200392 -329.56488,-67.418067 -332.87586,-67.450672 -332.87586,-67.450672 L -325.0038,-79.446198 z"
       transform="scale(1.5,1.5)"
       id="path4319"
       style="fill:#fff;stroke:#000;stroke-width:1px;stroke-linecap:butt;stroke-linejoin:miter;stroke-opacity:1" />
    <path
       d="M -453.91474,-126.90482 C -475.57392,-119.84104 -497.75063,-80.501419 -503.54015,-72.341196 -505.9255,-68.979093 -496.36894,-69.684359 -492.56877,-71.281928 -473.65824,-79.231781 -451.17472,-129.01349 -445.21203,-119.57623 -439.08805,-109.88368 -470.91722,-82.832701 -482.31303,-67.818042 -483.62493,-66.089539 -486.60128,-65.455705 -488.11009,-63.896117 -489.23857,-62.729647 -488.56044,-61.190711 -488.42494,-59.573374 -488.23035,-57.250965 -485.0789,-57.787613 -482.74956,-57.862927 -478.26149,-58.008038 -476.18795,-60.386819 -473.15229,-63.695707 -469.68267,-67.477638 -464.98871,-74.070804 -462.15939,-78.352895 -459.33133,-82.633089 -456.74781,-87.676248 -452.99865,-91.177932 -452.17068,-91.951249 -449.70435,-87.789897 -448.53667,-88.741123 -447.36901,-89.692351 -447.04201,-97.588306 -445.91234,-98.65831 -444.78264,-99.728316 -442.85029,-93.972369 -442.13625,-95.102021 -441.42222,-96.231671 -441.01043,-97.376361 -441.0897,-98.506526 -445.07557,-155.32752 -439.6444,-92.879022 -440.63166,-71.024301 -441.17777,-58.935437 -461.11371,-57.928353 -472.23621,-53.160855 -475.61,-51.714731 -479.51224,-51.643902 -482.77107,-49.954596 -492.04407,-45.147677 -501.51834,-39.275892 -507.50506,-30.717039 -510.07887,-27.037438 -514.62667,-21.23389 -511.62739,-17.892001 -508.08739,-13.947635 -499.52924,-17.09659 -496.05414,-21.098261 -494.44928,-22.946313 -496.6231,-26.205111 -495.5961,-28.426854 -493.10421,-33.817572 -487.59816,-37.334301 -482.77107,-40.793855 -478.44183,-43.8966 -473.45731,-46.000582 -468.57192,-48.122448 -464.40821,-49.930866 -460.04192,-51.233315 -455.74688,-52.702818 -447.38702,-55.563054 -434.29782,-68.951122 -430.55484,-60.947485 -424.45308,-47.900059 -456.3772,-47.552548 -467.1978,-38.045633 -471.35392,-34.394083 -473.82786,-29.139739 -477.73266,-25.220595 -481.78917,-21.149196 -486.37285,-17.615209 -491.01573,-14.227705 -494.67664,-11.556649 -500.44523,-10.955058 -502.46666,-6.899112 -503.35462,-5.1174363 -503.48957,-2.2749274 -502.00863,-0.94463009 -498.25869,2.4238794 -491.06973,1.4199442 -486.8934,-1.4026671 -484.68421,-2.8957629 -485.65608,-6.9331881 -483.68713,-8.7312602 -481.90453,-10.359158 -478.71936,-9.535799 -476.81658,-11.021446 -473.67843,-13.471636 -472.59246,-17.772252 -470.40406,-21.098261 -467.86693,-24.954306 -466.15306,-29.581798 -462.61743,-32.549187 -457.48767,-36.85449 -450.5801,-38.478754 -444.29595,-40.793855 -436.08966,-43.817079 -427.54629,-45.840058 -419.10391,-48.122448 -415.45775,-49.108188 -411.8598,-50.409175 -408.11103,-50.87067 -398.71585,-52.027269 -389.13092,-49.919435 -379.71273,-50.87067 -372.1159,-51.637949 -364.78597,-54.111521 -357.26891,-55.451041 -348.29796,-57.049639 -344.79578,-64.255439 -336.13757,-61.414886 -334.49628,-60.876418 -327.70161,-57.223143 -326.58044,-55.909079 -321.68433,-50.170607 -317.8179,-43.626346 -313.29735,-37.587595 -310.75347,-34.189366 -305.58143,-27.283104 -301.82771,-25.300965 -297.22937,-22.872825 -291.92813,-25.977069 -287.72765,-22.911681 -281.91017,-18.666255 -286.59937,-15.419753 -285.50081,-8.302178 -285.12744,-5.8831911 -284.01562,-3.3487832 -282.60887,-1.3458055 -280.41508,1.7777511 -274.35961,3.0251994 -271.61598,0.37157157 -266.74495,-4.3396474 -278.05704,-11.540268 -272.93218,-15.974037 -269.93011,-18.571284 -267.95427,-14.26203 -265.66151,-11.021446 -262.48201,-6.5275621 -264.82482,0.51769096 -261.76765,5.0956681 -259.22676,8.9005417 -252.44943,8.5049285 -249.02844,5.4668409 -244.80451,1.7156967 -251.57259,-2.3981942 -254.52489,-7.2144708 -258.07989,-13.013962 -269.3901,-13.015615 -272.07402,-19.266112 -273.52104,-22.636053 -272.10102,-26.616943 -272.53206,-30.259002 -273.55614,-38.912025 -285.12995,-51.575751 -277.57045,-55.909079 -269.96931,-60.266288 -262.5973,-45.883459 -257.87487,-38.503669 -256.15652,-35.818377 -258.90758,-35.238841 -256.96815,-32.708586 -254.67416,-29.715729 -253.65166,-23.96976 -245.88009,-26.738433 -239.95332,-28.849875 -244.05292,-34.305819 -245.34254,-36.922182 -250.9289,-48.255711 -259.20781,-55.63846 -269.48653,-62.987195 -278.39429,-69.355764 -290.90824,-67.368388 -294.51783,-75.604672 -295.92871,-78.824015 -296.8873,-84.051486 -294.05979,-86.139525 -288.22101,-90.451289 -277.42767,-86.386809 -272.99009,-80.643079 -271.7766,-79.072416 -274.00327,-76.395348 -272.99009,-74.688597 -267.36422,-66.601137 -240.30642,-69.045534 -235.43104,-71.940375 -234.31624,-72.729109 -232.89051,-74.437178 -233.5989,-75.604672 -238.4308,-83.568072 -252.3909,-74.309868 -261.53916,-76.062709 -276.77307,-78.981583 -290.09488,-88.44645 -305.05269,-92.552043 -342.57183,-102.85024 -381.68276,-106.07278 -420.01999,-112.70567 -432.5349,-114.87093 -441.83985,-130.84286 -453.91474,-126.90482 z"
       id="path4321"
       style="fill:#fff;stroke:#000;stroke-width:1.5px;stroke-linecap:butt;stroke-linejoin:miter;stroke-opacity:1" />
    <path
       d="M -246.70908,-109.7781 C -246.70908,-109.7781 -261.13639,-106.47822 -267.27288,-107.45179 -273.7129,-108.47353 -287.82726,-117.61014 -287.82726,-117.61014 z"
       id="path4323"
       style="fill:#fff;stroke:#000;stroke-width:1.5px;stroke-linecap:butt;stroke-linejoin:miter;stroke-opacity:1" />
    <path
       d="M -473.82618,-182.57106 C -473.82618,-182.57106 -477.88846,-180.3124 -480.08674,-179.60553 -481.25578,-179.22961 -482.32331,-178.15655 -483.14324,-177.24241 -484.17259,-176.0948 -485.05633,-175.49329 -484.04079,-174.33346 -480.48877,-170.2768 -467.89512,-173.34495 -467.89512,-173.34495 z"
       id="path4325"
       style="fill:#000;stroke:#000;stroke-width:1.5px;stroke-linecap:butt;stroke-linejoin:miter;stroke-opacity:1" />
    <path
       d="M -490.01445,-149.8606 C -487.31499,-146.19708 -486.6778,-146.19378 -484.40863,-145.5738 -481.73883,-144.84436 -477.71697,-144.27162 -476.16479,-146.56306 -475.2078,-147.97583 -476.13065,-150.46978 -477.48379,-151.50937 -478.87842,-152.58084 -481.13505,-150.83635 -482.75986,-151.50937 -487.49914,-153.47245 -489.42545,-159.46936 -493.64174,-162.39124 -494.73338,-163.14775 -496.05978,-164.58927 -497.26904,-164.04001 -498.31387,-163.56543 -502.23702,-162.95116 -498.2583,-160.74247 -496.98338,-160.03473 -491.19772,-151.46646 -490.01445,-149.8606 z"
       id="path4327"
       style="fill:#c8ab37;fill-opacity:1;stroke:#000;stroke-width:1.5px;stroke-linecap:butt;stroke-linejoin:miter;stroke-opacity:1" />
    <path
       d="M -501.63217,-143.61451 C -498.93273,-139.95097 -498.29553,-139.94769 -496.02635,-139.32771 -493.35654,-138.59827 -489.33468,-138.02553 -487.7825,-140.31697 -486.82551,-141.72975 -487.74836,-144.2237 -489.10151,-145.26329 -490.49613,-146.33475 -492.75276,-144.59027 -494.37758,-145.26329 -499.11686,-147.22637 -501.04317,-153.22327 -505.25945,-156.14516 -506.35109,-156.90166 -507.6775,-158.34319 -508.88675,-157.79393 -509.9316,-157.31934 -509.54626,-155.59557 -509.87602,-154.49639 -510.29503,-153.09969 -502.81544,-145.22038 -501.63217,-143.61451 z"
       id="path4329"
       style="fill:#c8ab37;fill-opacity:1;stroke:#000;stroke-width:1.5px;stroke-linecap:butt;stroke-linejoin:miter;stroke-opacity:1" />
    <path
       d="M -443.51186,-176.31048 C -447.58297,-174.53226 -452.70603,-176.29514 -456.69199,-174.33346 -460.24651,-172.58413 -461.63895,-168.50878 -465.44842,-167.42128 -470.52345,-165.97249 -479.60967,-170.90566 -479.60967,-170.90566 -479.60967,-170.90566 -478.68892,-173.89146 -476.79171,-175.32198 -467.86108,-182.05575 -444.82986,-185.53659 -444.82986,-185.53659 L -438.56929,-180.26452 C -438.56929,-180.26452 -441.5784,-177.15499 -443.51186,-176.31048 z"
       id="path4331"
       style="fill:#fff;stroke:#000;stroke-width:1.5px;stroke-linecap:butt;stroke-linejoin:miter;stroke-opacity:1" />
    <path
       d="M -448.55127,-221.4747 C -453.57308,-219.51708 -461.57211,-217.2502 -465.69457,-213.77802 -470.00488,-210.14761 -470.66663,-204.88743 -473.76054,-200.17721 -474.44013,-199.14258 -475.40437,-197.89035 -475.06448,-196.70007 -474.41199,-194.41518 -470.01375,-194.65296 -469.41411,-192.35364 -468.85723,-190.2183 -470.81883,-188.11857 -472.02197,-186.26864 -473.53107,-183.94826 -477.1101,-182.89389 -477.67233,-180.18364 -478.20285,-177.62622 -475.61637,-178.44395 -476.95794,-176.20294 -477.93675,-174.56793 -480.88978,-173.82299 -480.71482,-171.92543 -480.28894,-167.30656 -471.25233,-171.03808 -466.80625,-172.36008 -463.06701,-173.47191 -460.30701,-176.71726 -456.80948,-178.44507 -454.30079,-179.68437 -451.77873,-181.65961 -448.98591,-181.48756 -446.85081,-181.35604 -444.46757,-180.26013 -443.33555,-178.44507 -441.34065,-175.24648 -442.60163,-170.90214 -442.9009,-167.14435 -443.19417,-163.46226 -443.62189,-159.67459 -445.07412,-156.2783 -445.59559,-155.05874 -446.42679,-153.63399 -447.38028,-152.18289 -448.33375,-150.73179 -449.40951,-149.25433 -450.42007,-147.92931 -451.43064,-146.60429 -452.37603,-145.43172 -453.06877,-144.5904 -453.76152,-143.74908 -453.83931,-143.70187 -454.20162,-143.23901 -456.79611,-139.92446 -457.18638,-139.16585 -461.64755,-133.04012 -466.10869,-126.91438 -472.04624,-118.73608 -477.95181,-110.52579 -483.85737,-102.31549 -489.73095,-94.073217 -494.06418,-87.819546 -498.39739,-81.565875 -501.19026,-77.300808 -500.93441,-77.044935 -500.67853,-76.789059 -500.03257,-76.866236 -499.17852,-77.09793 -498.32447,-77.329626 -497.26232,-77.71584 -496.17407,-78.078042 -495.0858,-78.440244 -493.97145,-78.778431 -493.01298,-78.914073 -492.05451,-79.049716 -491.25193,-78.982812 -490.78725,-78.534829 -490.32256,-78.086849 -487.17607,-81.294979 -482.67858,-86.323148 -478.18109,-91.351315 -472.33257,-98.199518 -466.46384,-105.03168 -460.59511,-111.86384 -454.70616,-118.67995 -450.12777,-123.64395 -445.54938,-128.60795 -442.28156,-131.71982 -441.6551,-131.1435 -439.14924,-128.8382 -488.04585,-67.407969 -485.08107,-64.844354 -482.11627,-62.280741 -479.49424,-70.155001 -476.25872,-67.588135 -473.02318,-65.02127 -440.60237,-122.49887 -437.28426,-120.18382 -433.96615,-117.86876 -407.54661,-104.18979 -404.3341,-102.3816 -401.1216,-100.57341 -398.00893,-99.082428 -395.0902,-98.036174 -364.38457,-87.029361 -325.96158,-78.994716 -297.29561,-94.559031 -295.06835,-95.768331 -293.92422,-98.602576 -293.38382,-101.07867 -292.26481,-106.20579 -299.42705,-113.72423 -295.12239,-116.72581 -289.80761,-120.43174 -285.60513,-113.93873 -279.20518,-112.92798 -274.42875,-112.17363 -268.21545,-109.84294 -263.39348,-110.20617 -258.04803,-110.60883 -252.62838,-109.52148 -247.31169,-110.20617 -241.07298,-111.00959 -234.0771,-111.19743 -229.0567,-114.98724 -226.10183,-117.21782 -221.97807,-121.1337 -223.40634,-124.54938 -224.09769,-126.20273 -226.8751,-126.25292 -228.62207,-125.85331 -231.93126,-125.09633 -233.32591,-120.672 -236.44563,-119.33367 -242.20949,-116.861 -248.86342,-117.15314 -255.13527,-117.16045 -263.74318,-117.17049 -272.51954,-117.77917 -280.77918,-120.20295 -286.49926,-121.8815 -291.65575,-125.12088 -296.86096,-128.02652 -304.6521,-132.37567 -311.0677,-139.34546 -319.46238,-142.36973 -329.21749,-145.88411 -340.04385,-144.91305 -350.32202,-146.28151 -356.55723,-147.11168 -363.02848,-146.94805 -369.01166,-148.88937 -376.34793,-151.26972 -383.24025,-155.1672 -389.43986,-159.75543 -395.20416,-164.0215 -400.57636,-169.06767 -404.65235,-174.96793 -409.25937,-181.63693 -410.31558,-190.28485 -414.64914,-197.13471 -418.71556,-203.5623 -423.7894,-209.41479 -429.42699,-214.52042 -432.82287,-217.59586 -436.28571,-221.22185 -440.72769,-222.34398 -443.27168,-222.98664 -446.10655,-222.42771 -448.55127,-221.4747 z"
       id="path4333"
       style="fill:#483e37;fill-opacity:1;stroke:#000;stroke-width:1.5px;stroke-linecap:butt;stroke-linejoin:miter;stroke-opacity:1" />
    <path
       d="M -471.18465,-208.60385 C -467.43236,-204.9242 -466.31682,-204.93052 -463.42669,-204.31705 -459.69269,-203.52446 -454.06293,-202.08313 -452.01791,-205.30631 -451.07637,-206.79029 -452.40143,-209.24781 -453.84331,-210.25263 -455.84014,-211.64418 -458.82921,-209.50352 -461.14494,-210.25263 -467.03754,-212.15881 -470.68713,-218.32119 -476.20451,-221.1345 -477.77354,-221.93455 -479.62345,-223.51742 -481.22438,-222.78327 -482.3062,-222.28717 -487.47106,-221.44231 -482.59343,-219.48573 -480.82905,-218.77798 -472.82221,-210.20971 -471.18465,-208.60385 z"
       id="path4335"
       style="fill:#c8ab37;stroke:#000;stroke-width:1.76459801px;stroke-linecap:butt;stroke-linejoin:miter;stroke-opacity:1" />
    <path
       d="M -465.21174,-219.91737 C -462.51227,-216.25385 -461.8751,-216.25055 -459.60593,-215.63057 -456.93612,-214.90113 -452.91426,-214.32839 -451.36208,-216.61983 -450.40509,-218.0326 -451.32795,-220.52655 -452.68109,-221.56614 -454.07571,-222.6376 -456.33234,-220.89312 -457.95716,-221.56614 -462.69644,-223.52922 -464.62275,-229.52612 -468.83903,-232.44801 -469.93067,-233.20451 -471.25708,-234.64604 -472.46633,-234.09678 -473.51117,-233.62219 -477.43431,-233.00792 -473.45559,-230.79924 -472.18067,-230.0915 -466.39502,-221.52323 -465.21174,-219.91737 z"
       id="path4337"
       style="fill:#c8ab37;stroke:#000;stroke-width:1.5px;stroke-linecap:butt;stroke-linejoin:miter;stroke-opacity:1" />
    <path
       d="M -502.72163,-108.3681 C -502.72163,-108.3681 -503.8292,-105.4716 -504.64958,-104.16755 -505.08584,-103.47404 -505.1713,-102.46782 -505.19827,-101.64897 -505.23224,-100.62099 -505.42595,-99.934562 -504.40948,-99.777313 -500.85434,-99.227297 -495.73356,-106.19632 -495.73356,-106.19632 z"
       id="path4339"
       style="fill:#000;stroke:#000;stroke-width:1.00077713px;stroke-linecap:butt;stroke-linejoin:miter;stroke-opacity:1" />
    <path
       d="M -447.9642,-145.73173 C -436.84635,-140.50533 -427.54794,-132.03902 -416.97957,-125.77553 -409.09533,-121.10282 -401.62665,-115.19096 -392.82207,-112.64645 -379.84552,-108.89625 -365.87954,-109.43883 -352.3845,-110.02063 -344.24685,-110.37146 -336.27001,-114.98286 -328.22699,-113.69677 -310.98788,-110.94023 -297.38545,-97.278272 -281.48746,-90.064428 -272.54766,-86.007916 -263.77733,-81.096936 -254.17899,-79.036 -245.44346,-77.160323 -229.55796,-86.654713 -227.39566,-77.985675 -226.80711,-75.626037 -231.3455,-74.927435 -233.69761,-74.309532 -245.55051,-71.195781 -258.40288,-72.635712 -270.45904,-74.834696 -277.05055,-76.036954 -285.10792,-86.835934 -289.36491,-81.661816 -290.66194,-80.085342 -287.47028,-78.019279 -286.21393,-76.410184 -276.00621,-63.336369 -259.96752,-55.195909 -251.028,-41.224251 -249.11763,-38.238525 -244.5426,-33.407661 -247.35186,-31.246151 -255.31941,-25.115724 -262.9615,-44.24707 -272.03452,-48.576537 -273.18471,-49.125381 -274.71378,-50.420794 -275.71068,-49.626863 -280.92141,-45.477054 -277.00243,-35.906624 -274.66035,-29.670662 -272.46867,-23.83515 -266.53149,-20.174527 -263.10675,-14.966092 -259.27656,-9.1410509 -248.32698,-1.6396122 -253.12866,3.4146192 -256.20262,6.6502593 -261.77123,0.48584829 -265.20741,-2.3621758 -267.71443,-4.4400789 -267.80011,-10.92105 -270.98421,-10.239624 -273.4351,-9.7151096 -270.45026,-4.2409633 -272.55969,-2.8873391 -275.27631,-1.1440842 -279.28248,-3.2660018 -282.01263,-4.9879917 -286.33699,-7.7154969 -288.28716,-13.062112 -291.46557,-17.066745 -297.1932,-24.283269 -302.93991,-31.485725 -308.79595,-38.598436 -314.32356,-45.312229 -319.50074,-52.356726 -325.60117,-58.554637 -329.34397,-62.357238 -332.47939,-67.865091 -337.67992,-69.0579 -348.11034,-71.450248 -358.30907,-63.353576 -368.66455,-60.65529 -374.25213,-59.199359 -379.76769,-57.363323 -385.46978,-56.453984 -390.32247,-55.680102 -395.27716,-54.997386 -400.17435,-55.403658 -405.37884,-55.835424 -410.60913,-61.149025 -415.40408,-59.079799 -416.6999,-58.520595 -416.42741,-56.315365 -417.50474,-55.403658 -422.91621,-50.824131 -430.79223,-50.456519 -437.46093,-48.051374 -446.36691,-44.839323 -456.51328,-44.063409 -464.24425,-38.598436 -469.02172,-35.221277 -472.76242,-30.228883 -475.27269,-24.944193 -476.73105,-21.874015 -474.58877,-16.915189 -477.37333,-14.966092 -479.4015,-13.546454 -482.54658,-17.191398 -484.72562,-16.016418 -487.62054,-14.455417 -486.14992,-8.8509372 -488.92692,-7.0886445 -490.99618,-5.7754792 -493.91737,-7.7428362 -496.27921,-7.0886445 -499.2303,-6.2712402 -501.9841,-0.20415193 -504.15666,-2.3621758 -507.33037,-5.5146544 -500.25403,-10.530807 -497.32954,-13.915766 -493.50465,-18.342909 -487.79387,-20.788849 -483.6753,-24.944193 -479.1141,-29.54613 -476.34837,-35.769114 -471.59654,-40.173925 -466.32664,-45.058948 -459.02118,-47.378782 -453.741,-52.252679 -452.0937,-53.773221 -448.28545,-55.646214 -449.53969,-57.504311 -452.60724,-62.048754 -460.01413,-54.253845 -465.29458,-52.777842 -469.99707,-51.463395 -475.12005,-51.311724 -479.474,-49.101699 -483.91109,-46.849468 -487.15912,-42.778534 -491.02758,-39.648762 -493.64181,-37.533714 -497.66687,-36.473241 -498.90502,-33.346805 -499.81657,-31.045089 -496.55317,-28.100428 -497.85469,-25.99452 -500.47397,-21.756461 -508.08525,-18.230242 -512.0341,-21.26805 -514.25841,-22.979185 -512.6119,-27.090157 -511.50894,-29.670662 -510.29173,-32.518464 -507.43683,-34.348509 -505.20699,-36.497782 -500.55892,-40.977898 -495.65925,-45.218023 -490.50242,-49.101699 -483.63769,-54.271595 -476.67954,-59.482897 -468.97073,-63.281106 -464.65029,-65.409825 -459.63089,-65.86666 -455.31648,-68.007575 -453.62032,-68.849249 -451.8882,-69.780134 -450.59001,-71.158554 -448.92267,-72.928938 -447.23814,-75.050294 -446.91387,-77.460511 -446.55151,-80.153822 -448.17546,-82.753164 -449.01453,-85.337959 -449.76735,-87.657052 -451.08015,-89.79208 -451.64034,-92.165081 -452.89296,-97.471272 -451.1506,-103.39939 -453.21583,-108.44514 -455.00743,-112.82239 -457.91474,-117.35537 -462.14361,-119.47357 -466.21608,-121.51342 -476.14889,-123.81255 -480.01504,-121.40445 -482.94188,-119.58141 -483.9754,-116.8484 -486.18436,-114.20068 -489.1704,-110.62154 -489.78882,-107.76982 -493.23961,-104.63635 -494.2518,-103.71725 -496.07144,-102.42225 -497.27115,-101.76653 -498.50957,-101.08964 -500.17985,-100.67479 -501.47246,-101.24136 -502.85166,-101.84589 -503.53071,-103.52268 -504.09828,-104.9175 -504.9661,-107.05018 -501.27475,-111.99858 -501.33181,-114.30036 -501.45829,-119.40246 -504.57515,-120.48846 -504.07199,-123.44879 -503.47372,-126.96873 -499.60455,-131.87465 -498.37986,-135.22846 -497.0093,-138.98174 -495.05718,-142.57848 -492.60307,-145.73173 -490.39702,-148.56625 -484.72562,-153.08401 -484.72562,-153.08401 -475.51574,-159.27203 -457.20345,-149.96918 -447.9642,-145.73173 z"
       id="path4341"
       style="fill:#483e37;fill-opacity:1;stroke:#000;stroke-width:1.5px;stroke-linecap:butt;stroke-linejoin:miter;stroke-opacity:1" />
    <path
       d="M -301.57892,-131.28299 A 2.25967,2.1727595 0 1 1 -306.09826,-131.28299 2.25967,2.1727595 0 1 1 -301.57892,-131.28299 z"
       transform="matrix(0.92378177,0,0,1.0807331,-176.64013,-54.65311)"
       id="path4343"
       style="fill:#000" />
    <path
       d="M -309.7485,-133.28193 C -312.10144,-133.05126 -310.70155,-128.57808 -311.83435,-126.50292 -312.9967,-124.37363 -316.24047,-123.34951 -316.52751,-120.94066 -316.60416,-120.29742 -316.22431,-119.51769 -315.6584,-119.20245 -315.09932,-118.89101 -314.2934,-119.04411 -313.74638,-119.37627 -311.45214,-120.76937 -310.3799,-123.65613 -309.40086,-126.15528 -308.79974,-127.68973 -308.27146,-129.39496 -308.53176,-131.02226 -308.66688,-131.867 -308.89711,-133.36539 -309.7485,-133.28193 z"
       transform="scale(1.5,1.5)"
       id="path4345"
       style="fill:#fff;fill-opacity:1;stroke:none" />
    <path
       d="M -488.86615,-123.08086 C -492.40939,-123.22941 -491.26383,-116.2927 -493.37967,-113.44674 -495.55075,-110.52655 -500.58286,-109.68247 -501.51207,-106.16431 -501.76024,-105.22484 -501.35877,-103.98728 -500.58397,-103.40092 -499.81853,-102.82159 -498.58946,-102.88076 -497.70756,-103.25995 -494.00891,-104.85033 -491.81354,-108.9145 -489.83752,-112.42234 -488.62432,-114.57613 -487.48362,-116.99879 -487.53055,-119.47032 -487.5549,-120.7533 -487.5841,-123.02712 -488.86615,-123.08086 z"
       id="path4347"
       style="fill:#fff;fill-opacity:1;stroke:none" />
    <path
       d="M -301.57892,-131.28299 A 2.25967,2.1727595 0 1 1 -306.09826,-131.28299 2.25967,2.1727595 0 1 1 -301.57892,-131.28299 z"
       transform="matrix(0.92378177,0,0,1.0807331,-209.85554,14.568922)"
       id="path4349"
       style="fill:#000" />
  </g>
</svg>
