<?xml version="1.0" encoding="UTF-8" standalone="no"?>
<!-- Created with Inkscape (http://www.inkscape.org/) -->
<svg
   xmlns:svg="http://www.w3.org/2000/svg"
   xmlns="http://www.w3.org/2000/svg"
   xmlns:xlink="http://www.w3.org/1999/xlink"
   version="1.0"
   width="1500"
   height="750"
   id="Flag of Southern Rhodesia">
  <defs
     id="defs1529" />
  <rect
     width="1500"
     height="750"
     x="0"
     y="0"
     style="fill:#6399ab;fill-opacity:1;fill-rule:nonzero"
     id="rect1358" />
  <g
     transform="scale(0.5,0.5)"
     id="g1349">
    <rect
       width="1500"
       height="750"
       x="0"
       y="0"
       style="fill:#00247d;fill-opacity:1"
       id="rect1517" />
    <g
       id="upper_half">
      <polygon
         points="0,0 167.7051,0 625,228.64745 625,0 675,0 750,325 0,300 0,250 332.2949,250 0,83.852549 0,0 "
         style="fill:#ffffff"
         id="upper_left_white" />
      <use
         transform="matrix(-1,0,0,1,1500,0)"
         id="use1521"
         x="0"
         y="0"
         width="1500"
         height="750"
         xlink:href="#upper_left_white" />
      <path
         d="M 0,0 L 500,250 L 388.1966,250 L 0,55.901699 L 0,0 z M 1500,0 L 1000,250 L 888.1966,250 L 1388.1966,0 L 1500,0 z "
         style="fill:#cf142b"
         id="upper_red_diagonals" />
    </g>
    <use
       transform="matrix(-1,0,0,-1,1500,750)"
       id="use1524"
       x="0"
       y="0"
       width="1500"
       height="750"
       xlink:href="#upper_half" />
    <path
       d="M 675,0 L 825,0 L 825,300 L 1500,300 L 1500,450 L 825,450 L 825,750 L 675,750 L 675,450 L 0,450 L 0,300 L 675,300 L 675,0 z "
       style="fill:#cf142b"
       id="path1526" />
  </g>
  <g
     id="g20271">
    <path
       d="M 1278.6898,188.60866 L 971.3089,188.85493 C 971.5457,206.6139 971.7311,248.07313 971.7311,336.89875 C 971.7311,515.79871 1124.9994,561.39201 1124.9994,561.39201 C 1124.9994,561.39201 1278.2676,515.55244 1278.2676,336.65248 C 1278.2676,247.82685 1278.453,206.36762 1278.6898,188.60866 z "
       style="fill:#337321;fill-opacity:1;fill-rule:evenodd"
       id="path6684" />
    <path
       d="M 1278.6869,188.60866 L 971.3119,188.85866 C 971.5137,203.98153 971.6738,236.31112 971.7182,300.42116 L 1278.2807,300.42116 C 1278.3247,236.14654 1278.4849,203.751 1278.6869,188.60866 z "
       style="fill:#ffffff;fill-opacity:1;fill-rule:evenodd"
       id="path6686" />
    <g
       transform="matrix(1.092792,0,0,1.063112,51.621,466.6808)"
       id="g7563">
      <g
         transform="matrix(1.886953,0,0,2.178479,278.9993,-108.3204)"
         id="g24570">
        <path
           d="M 310.6875,-61.40625 L 315.375,-52.84375 L 315.8125,-52.65625 L 318.8125,-52.09375 L 318.90625,-52.0625 L 318.90625,-52.09375 L 321.90625,-52.65625 L 322.34375,-52.84375 L 327.03125,-61.40625 C 323.98154,-64.455968 318.875,-64.59375 318.875,-64.59375 C 318.875,-64.59375 313.26071,-63.979449 310.6875,-61.40625 z "
           style="fill:#a034b0;fill-opacity:1;fill-rule:evenodd;stroke:#000000;stroke-width:0.1;stroke-linecap:butt;stroke-linejoin:miter;stroke-miterlimit:4;stroke-dasharray:none;stroke-opacity:1"
           id="path24572" />
        <g
           id="g24574">
          <g
             transform="translate(0.121,0)"
             id="g24576">
            <g
               id="g24578">
              <path
                 d="M 310.9502,-61.618826 L 316.15189,-52.609249"
                 style="fill:none;fill-opacity:0.75;fill-rule:evenodd;stroke:#000000;stroke-width:0.1;stroke-linecap:butt;stroke-linejoin:miter;stroke-miterlimit:4;stroke-dasharray:none;stroke-opacity:1"
                 id="path24580" />
              <path
                 d="M 311.61015,-62.10411 L 316.88463,-52.388549"
                 style="fill:none;fill-opacity:0.75;fill-rule:evenodd;stroke:#000000;stroke-width:0.1;stroke-linecap:butt;stroke-linejoin:miter;stroke-miterlimit:4;stroke-dasharray:none;stroke-opacity:1"
                 id="path24582" />
              <path
                 d="M 312.27404,-62.59057 L 317.53713,-52.161801"
                 style="fill:none;fill-opacity:0.75;fill-rule:evenodd;stroke:#000000;stroke-width:0.1;stroke-linecap:butt;stroke-linejoin:miter;stroke-miterlimit:4;stroke-dasharray:none;stroke-opacity:1"
                 id="path24584" />
              <path
                 d="M 313.11517,-63.077482 L 317.88925,-52.116831"
                 style="fill:none;fill-opacity:0.75;fill-rule:evenodd;stroke:#000000;stroke-width:0.1;stroke-linecap:butt;stroke-linejoin:miter;stroke-miterlimit:4;stroke-dasharray:none;stroke-opacity:1"
                 id="path24586" />
              <path
                 d="M 314.0438,-63.519176 L 317.97708,-51.984496"
                 style="fill:none;fill-opacity:0.75;fill-rule:evenodd;stroke:#000000;stroke-width:0.1;stroke-linecap:butt;stroke-linejoin:miter;stroke-miterlimit:4;stroke-dasharray:none;stroke-opacity:1"
                 id="path24588" />
              <path
                 d="M 315.05244,-63.828082 L 318.33846,-51.675591"
                 style="fill:none;fill-opacity:0.75;fill-rule:evenodd;stroke:#000000;stroke-width:0.1;stroke-linecap:butt;stroke-linejoin:miter;stroke-miterlimit:4;stroke-dasharray:none;stroke-opacity:1"
                 id="path24590" />
              <path
                 d="M 316.07673,-64.182088 L 318.77257,-51.27739"
                 style="fill:none;fill-opacity:0.75;fill-rule:evenodd;stroke:#000000;stroke-width:0.1;stroke-linecap:butt;stroke-linejoin:miter;stroke-miterlimit:4;stroke-dasharray:none;stroke-opacity:1"
                 id="path24592" />
              <path
                 d="M 317.40255,-64.403059 L 318.90516,-51.454166"
                 style="fill:none;fill-opacity:0.75;fill-rule:evenodd;stroke:#000000;stroke-width:0.1;stroke-linecap:butt;stroke-linejoin:miter;stroke-miterlimit:4;stroke-dasharray:none;stroke-opacity:1"
                 id="path24594" />
            </g>
            <g
               transform="matrix(-1,0,0,1,637.3241,0)"
               id="g24596">
              <path
                 d="M 310.9502,-61.618826 L 316.15189,-52.609249"
                 style="fill:none;fill-opacity:0.75;fill-rule:evenodd;stroke:#000000;stroke-width:0.1;stroke-linecap:butt;stroke-linejoin:miter;stroke-miterlimit:4;stroke-dasharray:none;stroke-opacity:1"
                 id="path24598" />
              <path
                 d="M 311.61015,-62.10411 L 316.88463,-52.388549"
                 style="fill:none;fill-opacity:0.75;fill-rule:evenodd;stroke:#000000;stroke-width:0.1;stroke-linecap:butt;stroke-linejoin:miter;stroke-miterlimit:4;stroke-dasharray:none;stroke-opacity:1"
                 id="path24600" />
              <path
                 d="M 312.27404,-62.59057 L 317.53713,-52.161801"
                 style="fill:none;fill-opacity:0.75;fill-rule:evenodd;stroke:#000000;stroke-width:0.1;stroke-linecap:butt;stroke-linejoin:miter;stroke-miterlimit:4;stroke-dasharray:none;stroke-opacity:1"
                 id="path24602" />
              <path
                 d="M 313.11517,-63.077482 L 317.88925,-52.116831"
                 style="fill:none;fill-opacity:0.75;fill-rule:evenodd;stroke:#000000;stroke-width:0.1;stroke-linecap:butt;stroke-linejoin:miter;stroke-miterlimit:4;stroke-dasharray:none;stroke-opacity:1"
                 id="path24604" />
              <path
                 d="M 314.0438,-63.519176 L 317.97708,-51.984496"
                 style="fill:none;fill-opacity:0.75;fill-rule:evenodd;stroke:#000000;stroke-width:0.1;stroke-linecap:butt;stroke-linejoin:miter;stroke-miterlimit:4;stroke-dasharray:none;stroke-opacity:1"
                 id="path24606" />
              <path
                 d="M 315.05244,-63.828082 L 318.33846,-51.675591"
                 style="fill:none;fill-opacity:0.75;fill-rule:evenodd;stroke:#000000;stroke-width:0.1;stroke-linecap:butt;stroke-linejoin:miter;stroke-miterlimit:4;stroke-dasharray:none;stroke-opacity:1"
                 id="path24608" />
              <path
                 d="M 316.07673,-64.182088 L 318.77257,-51.27739"
                 style="fill:none;fill-opacity:0.75;fill-rule:evenodd;stroke:#000000;stroke-width:0.1;stroke-linecap:butt;stroke-linejoin:miter;stroke-miterlimit:4;stroke-dasharray:none;stroke-opacity:1"
                 id="path24610" />
              <path
                 d="M 317.40255,-64.403059 L 318.90516,-51.454166"
                 style="fill:none;fill-opacity:0.75;fill-rule:evenodd;stroke:#000000;stroke-width:0.1;stroke-linecap:butt;stroke-linejoin:miter;stroke-miterlimit:4;stroke-dasharray:none;stroke-opacity:1"
                 id="path24612" />
            </g>
          </g>
          <path
             d="M 318.72838,-64.690322 L 318.72838,-52.374999"
             style="fill:none;fill-opacity:0.75;fill-rule:evenodd;stroke:#000000;stroke-width:0.1;stroke-linecap:butt;stroke-linejoin:miter;stroke-miterlimit:4;stroke-dasharray:none;stroke-opacity:1"
             id="path24614" />
        </g>
      </g>
      <g
         transform="matrix(0.297578,0,0,0.380078,800.5616,-261.3653)"
         id="g4847">
        <g
           transform="matrix(5.35879,0,0,6.1867,-1439.567,432.3813)"
           style="fill:#337321"
           id="g24540">
          <path
             d="M 318.5516,-33.666012 C 316.16512,-35.522167 315.63479,-32.251798 315.63479,-32.251798 C 315.63479,-32.251798 317.22578,-28.362711 315.63479,-32.251798 C 314.0438,-36.140885 312.98314,-34.373118 312.98314,-34.373118 L 312.71797,-32.782128 L 312.45281,-35.257002 C 312.45281,-35.257002 313.42508,-35.698944 312.45281,-35.257002 C 311.48054,-34.81506 310.95021,-33.135681 310.95021,-33.135681 L 310.95021,-35.433779 C 310.95021,-35.433779 313.2483,-36.317662 310.95021,-35.433779 C 308.65211,-34.549895 302.90687,-38.350594 302.90687,-38.350594 C 302.90687,-38.350594 300.78555,-39.234477 302.90687,-38.350594 C 305.02819,-37.466711 307.2379,-37.997041 306.79595,-38.880924 C 306.35401,-39.764808 306.17724,-39.146089 303.87914,-39.941584 C 301.58104,-40.737079 298.841,-44.361002 300.16683,-43.742283 C 301.49265,-43.123565 304.1443,-42.062905 304.32108,-42.946788 C 304.49786,-43.830672 304.9398,-43.653895 302.6417,-45.156497 C 300.3436,-46.659099 298.75261,-47.63137 298.75261,-47.63137 C 298.75261,-47.63137 296.89646,-47.63137 298.75261,-47.63137 C 300.60877,-47.63137 301.05071,-49.664302 301.05071,-49.664302 C 300.25522,-52.934671 298.04551,-54.08372 298.04551,-54.08372 C 298.04551,-54.08372 296.01258,-54.437273 298.04551,-54.08372 C 300.07844,-53.730166 301.31588,-51.255293 302.37654,-50.548186 C 303.4372,-49.841079 302.81848,-51.874011 303.61397,-51.608846 C 304.40947,-51.343681 305.20496,-49.487526 305.47013,-48.780419 C 305.73529,-48.073312 305.11658,-48.073312 305.91207,-47.542982 C 306.70757,-47.012652 308.03339,-48.161701 307.85661,-49.133972 C 307.67984,-50.106244 306.17724,-51.255293 307.2379,-50.636574 C 308.29856,-50.017856 309.62438,-48.073312 309.71277,-47.189429 C 309.80116,-46.305545 309.62438,-45.421662 310.2431,-44.891332 C 310.86182,-44.361002 311.03859,-45.068108 311.12698,-45.775215 C 311.21537,-46.482322 310.33149,-47.984924 310.33149,-47.984924 C 310.33149,-47.984924 309.35922,-48.338477 310.33149,-47.984924 C 311.30376,-47.63137 312.27603,-45.863604 312.5412,-44.802943 C 312.80636,-43.742283 312.45281,-42.239681 312.80636,-41.620963 C 313.15991,-41.002244 314.48574,-40.825468 314.39735,-41.709351 C 314.30896,-42.593235 315.10446,-43.91906 315.10446,-43.91906 C 315.10446,-43.91906 314.92768,-41.620963 315.10446,-40.383526 C 315.28124,-39.146089 316.78384,-36.40605 317.66772,-36.317662 C 318.5516,-36.229274 318.72838,-33.577623 318.5516,-33.666012 z "
             style="fill:#337321;fill-opacity:1;fill-rule:evenodd;stroke:#000000;stroke-width:0.2;stroke-linecap:butt;stroke-linejoin:miter;stroke-miterlimit:4;stroke-dasharray:none;stroke-opacity:1"
             id="path24542" />
          <g
             style="fill:#337321"
             id="g24544">
            <path
               d="M 318.28644,-34.81506 C 314.0438,-35.34539 313.77863,-36.671215 312.18764,-38.438982 C 310.59665,-40.206749 302.81848,-48.250089 302.81848,-48.250089"
               style="fill:#337321;fill-opacity:0.75;fill-rule:evenodd;stroke:#000000;stroke-width:0.2;stroke-linecap:butt;stroke-linejoin:miter;stroke-miterlimit:4;stroke-dasharray:none;stroke-opacity:1"
               id="path24546" />
            <path
               d="M 307.67984,-43.211953 L 308.47533,-47.277817"
               style="fill:#337321;fill-opacity:0.75;fill-rule:evenodd;stroke:#000000;stroke-width:0.2;stroke-linecap:butt;stroke-linejoin:miter;stroke-miterlimit:4;stroke-dasharray:none;stroke-opacity:1"
               id="path24548" />
            <path
               d="M 309.18244,-41.444186 L 303.87914,-41.532575"
               style="fill:#337321;fill-opacity:0.75;fill-rule:evenodd;stroke:#000000;stroke-width:0.2;stroke-linecap:butt;stroke-linejoin:miter;stroke-miterlimit:4;stroke-dasharray:none;stroke-opacity:1"
               id="path24550" />
            <path
               d="M 312.45281,-37.997041 L 308.47533,-37.466711"
               style="fill:#337321;fill-opacity:0.75;fill-rule:evenodd;stroke:#000000;stroke-width:0.2;stroke-linecap:butt;stroke-linejoin:miter;stroke-miterlimit:4;stroke-dasharray:none;stroke-opacity:1"
               id="path24552" />
          </g>
        </g>
        <g
           transform="matrix(-5.35879,0,0,6.1867,1977.016,432.3813)"
           style="fill:#337321"
           id="g24554">
          <path
             d="M 318.5516,-33.666012 C 316.16512,-35.522167 315.63479,-32.251798 315.63479,-32.251798 C 315.63479,-32.251798 317.22578,-28.362711 315.63479,-32.251798 C 314.0438,-36.140885 312.98314,-34.373118 312.98314,-34.373118 L 312.71797,-32.782128 L 312.45281,-35.257002 C 312.45281,-35.257002 313.42508,-35.698944 312.45281,-35.257002 C 311.48054,-34.81506 310.95021,-33.135681 310.95021,-33.135681 L 310.95021,-35.433779 C 310.95021,-35.433779 313.2483,-36.317662 310.95021,-35.433779 C 308.65211,-34.549895 302.90687,-38.350594 302.90687,-38.350594 C 302.90687,-38.350594 300.78555,-39.234477 302.90687,-38.350594 C 305.02819,-37.466711 307.2379,-37.997041 306.79595,-38.880924 C 306.35401,-39.764808 306.17724,-39.146089 303.87914,-39.941584 C 301.58104,-40.737079 298.841,-44.361002 300.16683,-43.742283 C 301.49265,-43.123565 304.1443,-42.062905 304.32108,-42.946788 C 304.49786,-43.830672 304.9398,-43.653895 302.6417,-45.156497 C 300.3436,-46.659099 298.75261,-47.63137 298.75261,-47.63137 C 298.75261,-47.63137 296.89646,-47.63137 298.75261,-47.63137 C 300.60877,-47.63137 301.05071,-49.664302 301.05071,-49.664302 C 300.25522,-52.934671 298.04551,-54.08372 298.04551,-54.08372 C 298.04551,-54.08372 296.01258,-54.437273 298.04551,-54.08372 C 300.07844,-53.730166 301.31588,-51.255293 302.37654,-50.548186 C 303.4372,-49.841079 302.81848,-51.874011 303.61397,-51.608846 C 304.40947,-51.343681 305.20496,-49.487526 305.47013,-48.780419 C 305.73529,-48.073312 305.11658,-48.073312 305.91207,-47.542982 C 306.70757,-47.012652 308.03339,-48.161701 307.85661,-49.133972 C 307.67984,-50.106244 306.17724,-51.255293 307.2379,-50.636574 C 308.29856,-50.017856 309.62438,-48.073312 309.71277,-47.189429 C 309.80116,-46.305545 309.62438,-45.421662 310.2431,-44.891332 C 310.86182,-44.361002 311.03859,-45.068108 311.12698,-45.775215 C 311.21537,-46.482322 310.33149,-47.984924 310.33149,-47.984924 C 310.33149,-47.984924 309.35922,-48.338477 310.33149,-47.984924 C 311.30376,-47.63137 312.27603,-45.863604 312.5412,-44.802943 C 312.80636,-43.742283 312.45281,-42.239681 312.80636,-41.620963 C 313.15991,-41.002244 314.48574,-40.825468 314.39735,-41.709351 C 314.30896,-42.593235 315.10446,-43.91906 315.10446,-43.91906 C 315.10446,-43.91906 314.92768,-41.620963 315.10446,-40.383526 C 315.28124,-39.146089 316.78384,-36.40605 317.66772,-36.317662 C 318.5516,-36.229274 318.72838,-33.577623 318.5516,-33.666012 z "
             style="fill:#337321;fill-opacity:1;fill-rule:evenodd;stroke:#000000;stroke-width:0.2;stroke-linecap:butt;stroke-linejoin:miter;stroke-miterlimit:4;stroke-dasharray:none;stroke-opacity:1"
             id="path24556" />
          <g
             style="fill:#337321"
             id="g24558">
            <path
               d="M 318.28644,-34.81506 C 314.0438,-35.34539 313.77863,-36.671215 312.18764,-38.438982 C 310.59665,-40.206749 302.81848,-48.250089 302.81848,-48.250089"
               style="fill:#337321;fill-opacity:0.75;fill-rule:evenodd;stroke:#000000;stroke-width:0.2;stroke-linecap:butt;stroke-linejoin:miter;stroke-miterlimit:4;stroke-dasharray:none;stroke-opacity:1"
               id="path24560" />
            <path
               d="M 307.67984,-43.211953 L 308.47533,-47.277817"
               style="fill:#337321;fill-opacity:0.75;fill-rule:evenodd;stroke:#000000;stroke-width:0.2;stroke-linecap:butt;stroke-linejoin:miter;stroke-miterlimit:4;stroke-dasharray:none;stroke-opacity:1"
               id="path24562" />
            <path
               d="M 309.18244,-41.444186 L 303.87914,-41.532575"
               style="fill:#337321;fill-opacity:0.75;fill-rule:evenodd;stroke:#000000;stroke-width:0.2;stroke-linecap:butt;stroke-linejoin:miter;stroke-miterlimit:4;stroke-dasharray:none;stroke-opacity:1"
               id="path24564" />
            <path
               d="M 312.45281,-37.997041 L 308.47533,-37.466711"
               style="fill:#337321;fill-opacity:0.75;fill-rule:evenodd;stroke:#000000;stroke-width:0.2;stroke-linecap:butt;stroke-linejoin:miter;stroke-miterlimit:4;stroke-dasharray:none;stroke-opacity:1"
               id="path24566" />
          </g>
        </g>
      </g>
      <g
         transform="matrix(0.352123,0,0,0.352123,785.904,-260.2616)"
         id="g4863">
        <rect
           width="6.1575098"
           height="117.02209"
           x="265.64624"
           y="137.91351"
           style="fill:#337321;fill-opacity:1;stroke:#000000;stroke-width:1.14999998;stroke-miterlimit:4;stroke-dasharray:none;stroke-opacity:1"
           id="rect24568" />
        <path
           d="M 298.5655,119.86777 C 298.5655,138.89424 285.20563,154.31826 268.72533,154.31826 C 252.24489,154.31826 238.88503,138.89424 238.88503,119.86777 C 238.88503,100.8413 252.24489,85.417282 268.72533,85.417282 C 285.20563,85.417282 298.5655,100.8413 298.5655,119.86777 L 298.5655,119.86777 z "
           style="fill:#337321;fill-opacity:1;stroke:#000000;stroke-width:1.14999998;stroke-miterlimit:4;stroke-dasharray:none;stroke-opacity:1"
           id="path24616" />
        <g
           transform="matrix(5.35879,0,0,6.1867,-1440.813,431.5003)"
           style="fill:#337321"
           id="g24620">
          <path
             d="M 315.75,-51.624999 L 312.375,-53.749999 L 316,-52.062499"
             style="fill:#337321;fill-opacity:1;fill-rule:evenodd;stroke:#000000;stroke-width:0.1;stroke-linecap:butt;stroke-linejoin:miter;stroke-miterlimit:4;stroke-dasharray:none;stroke-opacity:1"
             id="path24622" />
          <path
             d="M 316.0625,-48.937499 L 313.0625,-46.249999 L 316.4375,-48.249999"
             style="fill:#337321;fill-opacity:1;fill-rule:evenodd;stroke:#000000;stroke-width:0.1;stroke-linecap:butt;stroke-linejoin:miter;stroke-miterlimit:4;stroke-dasharray:none;stroke-opacity:1"
             id="path24624" />
        </g>
        <g
           transform="matrix(-5.35879,0,0,6.1867,1978.262,431.5003)"
           style="fill:#337321"
           id="g24626">
          <path
             d="M 315.75,-51.624999 L 312.375,-53.749999 L 316,-52.062499"
             style="fill:#337321;fill-opacity:1;fill-rule:evenodd;stroke:#000000;stroke-width:0.1;stroke-linecap:butt;stroke-linejoin:miter;stroke-miterlimit:4;stroke-dasharray:none;stroke-opacity:1"
             id="path24628" />
          <path
             d="M 316.0625,-48.937499 L 313.0625,-46.249999 L 316.4375,-48.249999"
             style="fill:#337321;fill-opacity:1;fill-rule:evenodd;stroke:#000000;stroke-width:0.1;stroke-linecap:butt;stroke-linejoin:miter;stroke-miterlimit:4;stroke-dasharray:none;stroke-opacity:1"
             id="path24630" />
        </g>
      </g>
    </g>
    <use
       transform="translate(221.2835,-2.015553e-5)"
       id="use8927"
       x="0"
       y="0"
       width="1500"
       height="750"
       xlink:href="#g7563" />
    <g
       transform="translate(-1022.746,620.6728)"
       id="g18309">
      <path
         d="M 2133.6984,-308.21875 L 2133.6984,-268.71875 L 2135.4797,-268.71875 L 2135.4797,-93.90625 C 2135.4789,-93.853644 2135.4801,-93.80276 2135.4797,-93.75 L 2135.4797,-93.65625 C 2135.4798,-86.892091 2140.9655,-81.40625 2147.7297,-81.40625 C 2154.4941,-81.406247 2160.0109,-86.8921 2160.0109,-93.65625 L 2160.0109,-268.71875 L 2161.7923,-268.71875 L 2161.7923,-308.21875 L 2133.6984,-308.21875 z "
         style="fill:#fcc917;fill-opacity:1;fill-rule:nonzero;stroke:#000000;stroke-width:1;stroke-miterlimit:4;stroke-dasharray:none;stroke-opacity:1"
         id="rect11850" />
      <path
         d="M 2147.7454,-305.35898 C 2213.172,-305.35898 2278.5985,-252.61125 2278.5985,-252.61125 C 2278.5985,-252.61125 2231.0291,-278.21295 2147.7454,-278.21295 C 2063.7511,-278.21295 2016.8922,-252.61125 2016.8922,-252.61125 C 2016.8922,-252.61125 2082.3188,-305.35898 2147.7454,-305.35898 z "
         style="fill:#fcc917;fill-opacity:1;fill-rule:nonzero;stroke:#000000;stroke-width:1;stroke-miterlimit:4;stroke-dasharray:none;stroke-opacity:1"
         id="rect12725" />
    </g>
    <g
       transform="matrix(1,0,0,0.939527,-1022.746,598.0776)"
       id="g18257">
      <path
         d="M 2088.2609,-408.45806 C 2088.4484,-411.86074 2088.0266,-417.38974 2088.0266,-417.38974 C 2088.0266,-417.38974 2088.8701,-417.67336 2089.7135,-415.12142 C 2090.557,-412.56951 2090.1821,-408.45806 2090.1821,-408.45806"
         style="fill:#00247d;fill-opacity:1;fill-rule:evenodd;stroke:#000000;stroke-width:0.64999998;stroke-linecap:butt;stroke-linejoin:miter;stroke-miterlimit:4;stroke-dasharray:none;stroke-opacity:1"
         id="path14427" />
      <path
         d="M 2083.3408,-409.73411 C 2083.5282,-416.68097 2082.0757,-418.52396 2082.0288,-418.52396 C 2081.9819,-418.52396 2083.3877,-419.8 2084.3248,-418.52396 C 2085.262,-417.24808 2085.6369,-410.86819 2085.6369,-410.86819"
         style="fill:#00247d;fill-opacity:1;fill-rule:evenodd;stroke:#000000;stroke-width:0.64999998;stroke-linecap:butt;stroke-linejoin:miter;stroke-miterlimit:4;stroke-dasharray:none;stroke-opacity:1"
         id="path14429" />
      <path
         d="M 2079.311,-407.60749 C 2078.1864,-413.84541 2077.1555,-412.42771 2077.1555,-412.42771 C 2077.1555,-412.42771 2077.999,-414.83782 2079.1704,-414.12903 C 2080.3419,-413.42024 2081.3728,-410.1594 2081.3728,-410.30121"
         style="fill:#00247d;fill-opacity:1;fill-rule:evenodd;stroke:#000000;stroke-width:0.64999998;stroke-linecap:butt;stroke-linejoin:miter;stroke-miterlimit:4;stroke-dasharray:none;stroke-opacity:1"
         id="path14431" />
      <path
         d="M 2080.4356,-393.71378 C 2079.4047,-392.01259 2079.1236,-391.30367 2078.2801,-391.72897 C 2077.4367,-392.15428 2076.7807,-392.29609 2076.7807,-392.29609 C 2076.7807,-392.29609 2077.2961,-397.25826 2077.9521,-397.82524 C 2078.6081,-398.39234 2079.7796,-398.25052 2079.7796,-398.25052"
         style="fill:#00247d;fill-opacity:1;fill-rule:evenodd;stroke:#000000;stroke-width:0.64999998;stroke-linecap:butt;stroke-linejoin:miter;stroke-miterlimit:4;stroke-dasharray:none;stroke-opacity:1"
         id="path14433" />
      <path
         d="M 2083.474,-362.5969 C 2083.474,-365.80488 2082.8113,-367.40881 2082.8113,-367.40881 C 2082.8113,-367.40881 2083.7391,-369.41392 2084.6668,-366.60697 C 2085.5946,-363.7999 2085.9921,-359.38903 2085.9921,-359.38903 L 2085.9921,-359.38903"
         style="fill:#00247d;fill-opacity:1;fill-rule:evenodd;stroke:#000000;stroke-width:0.64999998;stroke-linecap:butt;stroke-linejoin:miter;stroke-miterlimit:4;stroke-dasharray:none;stroke-opacity:1"
         id="path14435" />
      <path
         d="M 2079.639,-358.12894 C 2079.5922,-358.12894 2079.1704,-360.5392 2078.5613,-361.38978 C 2077.9521,-362.24025 2077.3898,-362.38206 2077.5773,-362.38206 C 2077.7647,-362.38206 2077.5773,-364.08339 2078.8893,-364.08339 C 2080.2013,-364.08339 2081.0448,-362.8075 2081.0448,-362.8075"
         style="fill:#00247d;fill-opacity:1;fill-rule:evenodd;stroke:#000000;stroke-width:0.64999998;stroke-linecap:butt;stroke-linejoin:miter;stroke-miterlimit:4;stroke-dasharray:none;stroke-opacity:1"
         id="path14437" />
      <path
         d="M 2079.1236,-350.89845 C 2076.2652,-351.46556 2075.9841,-346.22006 2076.0778,-346.0784 C 2076.1715,-345.93657 2077.2492,-344.37719 2077.9053,-344.23525 C 2078.5613,-344.09344 2079.1236,-344.23525 2079.1236,-344.23525"
         style="fill:#00247d;fill-opacity:1;fill-rule:evenodd;stroke:#000000;stroke-width:0.64999998;stroke-linecap:butt;stroke-linejoin:miter;stroke-miterlimit:4;stroke-dasharray:none;stroke-opacity:1"
         id="path14439" />
      <path
         d="M 2080.4356,-338.7061 C 2078.983,-332.60999 2079.2642,-329.34913 2079.4047,-329.34913 C 2079.5453,-329.34913 2080.0607,-330.19973 2080.8104,-331.90107 C 2081.5602,-333.60225 2082.0757,-336.86311 2082.0757,-336.86311"
         style="fill:#00247d;fill-opacity:1;fill-rule:evenodd;stroke:#000000;stroke-width:0.64999998;stroke-linecap:butt;stroke-linejoin:miter;stroke-miterlimit:4;stroke-dasharray:none;stroke-opacity:1"
         id="path14441" />
      <path
         d="M 2081.6185,-351.77019 C 2081.7511,-351.77019 2082.2812,-364.60186 2084.1367,-363.7999 C 2085.9921,-362.99793 2085.3295,-362.9978 2085.9921,-362.19598 C 2086.6548,-361.39401 2087.9802,-352.57214 2087.9802,-352.57214"
         style="fill:#cf142b;fill-opacity:1;fill-rule:evenodd;stroke:#000000;stroke-width:0.64999998;stroke-linecap:butt;stroke-linejoin:miter;stroke-miterlimit:4;stroke-dasharray:none;stroke-opacity:1"
         id="path14443" />
      <path
         d="M 2088.214,-385.34611 C 2088.5889,-408.59663 2090.6506,-398.95617 2090.6506,-404.05989 C 2090.6506,-409.16373 2089.8072,-412.56624 2089.1511,-412.56624 C 2087.6517,-412.56624 2083.9031,-402.9258 2083.9031,-402.9258"
         style="fill:#cf142b;fill-opacity:1;fill-rule:evenodd;stroke:#000000;stroke-width:0.64999998;stroke-linecap:butt;stroke-linejoin:miter;stroke-miterlimit:4;stroke-dasharray:none;stroke-opacity:1"
         id="path14451" />
      <path
         d="M 2114.3608,-369.4676 C 2113.4236,-370.31668 2098.8976,-376.27113 2094.0244,-381.94208 C 2089.1511,-387.61291 2087.0894,-396.68639 2086.7145,-401.22297 C 2086.3397,-405.75971 2087.2768,-413.13174 2084.4653,-413.13174 C 2081.6539,-413.13174 2083.1533,-405.75971 2083.1533,-405.75971 C 2083.1533,-405.75971 2080.9041,-417.66846 2079.2172,-410.86342 C 2077.5304,-404.05839 2081.279,-398.95454 2081.279,-398.95454 C 2081.279,-398.95454 2077.6523,-403.52316 2078.5612,-396.11927 C 2080.0889,-383.67529 2082.591,-388.18 2082.9659,-385.34461 C 2083.3408,-382.50906 2081.0916,-379.67363 2081.4665,-379.10654 C 2081.8413,-378.53942 2083.3408,-376.55476 2084.2779,-375.98764 C 2085.2151,-375.42038 2086.5271,-374.56992 2086.5271,-374.56992 L 2085.1214,-371.16878 C 2085.1214,-371.16878 2087.7454,-365.49797 2089.0574,-364.08024 C 2090.3695,-362.66242 2092.0564,-364.08024 2091.9626,-364.08024 C 2091.8689,-364.08024 2089.526,-360.96121 2089.526,-360.96121 C 2089.526,-360.96121 2090.838,-358.69306 2092.2438,-358.12581 C 2093.6495,-357.5587 2094.8678,-357.27521 2094.8678,-357.27521 L 2093.3684,-355.2904 L 2113.611,-343.09789 L 2114.3608,-369.4676 z "
         style="fill:#cf142b;fill-opacity:1;fill-rule:evenodd;stroke:#000000;stroke-width:0.64999998;stroke-linecap:butt;stroke-linejoin:miter;stroke-miterlimit:4;stroke-dasharray:none;stroke-opacity:1"
         id="path14453" />
      <g
         transform="matrix(0.667862,0,0,1.239816,1454.503,-123.7336)"
         id="g5300">
        <path
           d="M 1052.1133,-172.28435 C 1051.7162,-167.10941 1053.105,-163.87509 1053.105,-163.87509 C 1053.105,-163.87509 1054.6927,-165.49225 1054.4945,-169.69687 C 1054.2956,-173.9015 1053.3039,-176.1655 1053.3039,-176.1655"
           style="fill:#00247d;fill-opacity:1;fill-rule:evenodd;stroke:#000000;stroke-width:0.69999999;stroke-linecap:butt;stroke-linejoin:miter;stroke-miterlimit:4;stroke-dasharray:none;stroke-opacity:1"
           id="path14419" />
        <path
           d="M 1044.9692,-175.51854 C 1044.7703,-175.51854 1043.1827,-173.9015 1041.9921,-172.28435 C 1040.8015,-170.66719 1040.9997,-168.07971 1040.9997,-168.07971 C 1040.9997,-168.07971 1044.5721,-170.6673 1045.7627,-170.34371 C 1046.9533,-170.02025 1047.5486,-168.72667 1047.5486,-168.72667"
           style="fill:#00247d;fill-opacity:1;fill-rule:evenodd;stroke:#000000;stroke-width:0.69999999;stroke-linecap:butt;stroke-linejoin:miter;stroke-miterlimit:4;stroke-dasharray:none;stroke-opacity:1"
           id="path14421" />
        <path
           d="M 1046.1598,-183.60432 C 1042.7862,-185.22149 1040.4044,-181.66369 1040.6033,-181.66369 C 1040.8015,-181.66369 1043.9768,-181.66369 1044.5721,-179.72317 C 1045.1674,-177.78266 1046.7551,-175.51854 1046.7551,-175.51854"
           style="fill:#00247d;fill-opacity:1;fill-rule:evenodd;stroke:#000000;stroke-width:0.69999999;stroke-linecap:butt;stroke-linejoin:miter;stroke-miterlimit:4;stroke-dasharray:none;stroke-opacity:1"
           id="path14423" />
        <path
           d="M 1053.5021,-187.48548 C 1053.105,-187.48548 1053.105,-190.07295 1051.3192,-190.39632 C 1049.5333,-190.71979 1048.1438,-188.77916 1048.1438,-188.77916 C 1048.1438,-188.77916 1051.9145,-184.89801 1052.1133,-184.89801 C 1052.3115,-184.89801 1053.5021,-186.83864 1053.5021,-187.48548 z "
           style="fill:#00247d;fill-opacity:1;fill-rule:evenodd;stroke:#000000;stroke-width:0.69999999;stroke-linecap:butt;stroke-linejoin:miter;stroke-miterlimit:4;stroke-dasharray:none;stroke-opacity:1"
           id="path14425" />
        <path
           d="M 1059.8116,-178.53388 C 1058.6891,-179.22005 1057.4264,-179.4487 1056.0228,-183.10791 C 1054.6199,-186.76711 1055.4619,-186.76711 1054.9003,-187.68194 C 1054.3394,-188.59666 1053.2163,-188.13913 1051.2518,-187.45318 C 1049.2872,-186.76711 1049.8488,-179.4487 1049.8488,-179.4487"
           style="fill:#cf142b;fill-opacity:1;fill-rule:evenodd;stroke:#000000;stroke-width:0.69999999;stroke-linecap:butt;stroke-linejoin:miter;stroke-miterlimit:4;stroke-dasharray:none;stroke-opacity:1"
           id="path14447" />
        <path
           d="M 1076.51,-208.26469 C 1075.3876,-207.57863 1065.7052,-200.03168 1065.9856,-195.91507 C 1066.2668,-191.79844 1072.1603,-189.51149 1072.0201,-186.99577 C 1071.8792,-184.48004 1066.407,-182.65049 1061.3555,-182.42185 C 1056.3039,-182.19308 1054.9003,-180.82085 1051.9535,-181.73568 C 1049.0068,-182.65049 1044.6571,-187.22452 1043.815,-181.96443 C 1042.973,-176.70434 1044.0955,-176.47568 1044.0955,-176.47568 C 1044.0955,-176.47568 1043.3943,-173.7313 1044.0955,-171.44423 C 1044.7973,-169.15727 1045.4991,-167.78503 1047.3227,-167.78503 C 1049.147,-167.78503 1049.7086,-169.6147 1049.7086,-169.6147 C 1049.7086,-169.6147 1049.989,-167.32772 1053.2163,-167.09897 C 1056.4442,-166.87032 1057.4264,-169.38604 1057.5667,-169.38604 C 1057.7069,-169.38604 1060.3732,-168.4711 1061.6359,-168.92851 C 1062.8986,-169.38604 1064.5827,-170.5294 1064.5827,-170.5294 C 1064.5827,-170.5294 1063.1798,-167.32772 1063.32,-167.32772 C 1063.4602,-167.32772 1066.1265,-167.5565 1068.9324,-168.24255 C 1071.739,-168.92851 1073.8437,-171.90164 1073.7035,-171.90164 C 1073.5633,-171.90164 1071.3183,-167.78514 1074.826,-168.0138 C 1078.3343,-168.24255 1080.0184,-172.58783 1082.5438,-172.13042 C 1085.0699,-171.673 1086.4729,-172.58783 1086.4729,-172.58783 C 1086.4729,-172.58783 1087.1747,-174.41737 1088.0167,-175.33219 C 1088.8587,-176.24702 1089.841,-176.47568 1089.841,-176.47568 C 1089.841,-176.47568 1092.086,-176.93298 1092.086,-177.16175 C 1092.086,-177.39039 1092.086,-182.87915 1092.086,-182.87915 C 1092.086,-182.87915 1088.4374,-183.33656 1088.4374,-187.45318 C 1088.4374,-191.56969 1098.26,-195.91507 1098.26,-195.91507 L 1076.51,-208.26469 z "
           style="fill:#cf142b;fill-opacity:1;fill-rule:evenodd;stroke:#000000;stroke-width:0.69999999;stroke-linecap:butt;stroke-linejoin:miter;stroke-miterlimit:4;stroke-dasharray:none;stroke-opacity:1"
           id="path14449" />
        <path
           d="M 1046.902,-178.30522 C 1046.3404,-178.07657 1044.0955,-176.24702 1044.0955,-176.24702"
           style="fill:none;fill-opacity:1;fill-rule:evenodd;stroke:#000000;stroke-width:0.69999999;stroke-linecap:butt;stroke-linejoin:miter;stroke-miterlimit:4;stroke-dasharray:none;stroke-opacity:1"
           id="path14463" />
        <path
           d="M 1050.9713,-174.87479 C 1050.2695,-174.41737 1049.5684,-175.10344 1049.2872,-172.81647 C 1049.0068,-170.5294 1049.7086,-169.38604 1049.7086,-169.38604"
           style="fill:none;fill-opacity:1;fill-rule:evenodd;stroke:#000000;stroke-width:0.69999999;stroke-linecap:butt;stroke-linejoin:miter;stroke-miterlimit:4;stroke-dasharray:none;stroke-opacity:1"
           id="path14465" />
        <path
           d="M 1057.0051,-173.95996 C 1057.1453,-173.95996 1057.9873,-172.81647 1057.9873,-171.673 C 1057.9873,-170.5294 1057.4264,-169.15727 1057.4264,-169.15727"
           style="fill:none;fill-opacity:1;fill-rule:evenodd;stroke:#000000;stroke-width:0.69999999;stroke-linecap:butt;stroke-linejoin:miter;stroke-miterlimit:4;stroke-dasharray:none;stroke-opacity:1"
           id="path14467" />
      </g>
      <path
         d="M 2080.7168,-345.64987 C 2080.6231,-345.64987 2079.967,-343.94854 2079.967,-341.96371"
         style="fill:#00247d;fill-opacity:1;fill-rule:evenodd;stroke:#000000;stroke-width:0.64999998;stroke-linecap:butt;stroke-linejoin:miter;stroke-miterlimit:4;stroke-dasharray:none;stroke-opacity:1"
         id="path14475" />
      <g
         transform="matrix(0.667862,0,0,1.239816,1463.907,-123.7336)"
         id="g5286">
        <path
           d="M 1106.2444,-183.92781 C 1101.6803,-178.42949 1103.268,-175.51854 1103.268,-175.51854 C 1103.268,-175.51854 1103.4662,-176.81234 1105.0538,-176.81234 C 1106.6415,-176.81234 1109.6179,-175.19518 1109.6179,-175.19518"
           style="fill:#00247d;fill-opacity:1;fill-rule:evenodd;stroke:#000000;stroke-width:0.69999999;stroke-linecap:butt;stroke-linejoin:miter;stroke-miterlimit:4;stroke-dasharray:none;stroke-opacity:1"
           id="path14417" />
        <path
           d="M 1107.2395,-177.84781 C 1106.8181,-178.30522 1103.5909,-181.04972 1105.275,-183.33667 C 1106.9583,-185.62352 1116.9218,-183.79409 1116.9218,-183.79409"
           style="fill:#cf142b;fill-opacity:1;fill-rule:evenodd;stroke:#000000;stroke-width:0.69999999;stroke-linecap:butt;stroke-linejoin:miter;stroke-miterlimit:4;stroke-dasharray:none;stroke-opacity:1"
           id="path14445" />
        <path
           d="M 975.89889,-201.86122 C 975.19729,-201.63247 962.28761,-186.30959 948.67634,-185.62352 C 935.06507,-184.93757 927.34737,-186.08105 927.34737,-186.08105 C 927.34737,-186.08105 925.38284,-196.60124 922.01511,-191.79844 C 918.64739,-186.99577 921.3135,-185.16622 921.3135,-185.16622 C 921.3135,-185.16622 921.87476,-185.39487 922.71672,-184.25139 C 923.55862,-183.10791 924.11992,-181.73568 924.11992,-181.73568 C 924.11992,-181.73568 919.62964,-187.68194 919.62964,-180.5923 C 919.62964,-173.50255 922.57636,-176.01827 922.43606,-176.01827 C 922.29577,-176.01827 921.73446,-169.84334 922.43606,-169.6147 C 923.13767,-169.38604 925.94415,-168.24255 927.48766,-168.69987 C 929.03123,-169.15727 928.89093,-170.52952 929.31188,-170.75817 C 929.73283,-170.98693 932.1183,-172.58772 932.53931,-171.90164 C 932.96026,-171.21558 929.87312,-166.87032 930.43443,-166.87032 C 930.99574,-166.87032 935.62639,-166.87032 937.02959,-168.69987 C 938.43281,-170.5294 939.1344,-173.27378 939.27477,-173.04513 C 939.41506,-172.81647 936.88931,-167.55638 937.16989,-167.55638 C 937.45054,-167.55638 942.50219,-166.64155 943.76505,-167.32772 C 945.02796,-168.0138 946.29087,-170.30075 946.29087,-170.30075 C 946.29087,-170.30075 945.44891,-167.55638 945.72956,-167.32772 C 946.01023,-167.09897 948.53605,-166.87032 950.92153,-168.24255 C 953.30699,-169.6147 954.28925,-170.75817 954.28925,-170.75817 L 953.58765,-167.55638 C 953.58765,-167.55638 957.23603,-167.78503 959.34085,-170.30075 C 961.44572,-172.81647 962.42797,-173.04513 962.42797,-173.04513 C 962.42797,-173.04513 960.32309,-169.15727 960.60375,-169.15727 C 960.88441,-169.15727 964.67309,-169.38592 966.35695,-170.30075 C 968.04088,-171.21558 969.72475,-171.90164 969.72475,-171.90164 C 969.72475,-171.90164 967.76023,-168.69987 967.90053,-168.69987 C 968.04088,-168.69987 970.70701,-168.47121 974.07473,-169.84334 C 977.44273,-171.21558 979.82793,-172.81647 979.82793,-172.81647 C 979.82793,-172.81647 975.89889,-168.24255 976.74092,-168.24255 C 977.58295,-168.24255 982.63448,-168.0138 985.15991,-169.6147 C 987.686,-171.21558 988.24758,-172.81647 988.24758,-172.81647 C 988.24758,-172.81647 994.03687,-171.96741 995.72094,-174.02583 C 997.40432,-176.08414 998.15827,-180.5227 998.01805,-180.29406 C 997.87782,-180.0653 995.68587,-175.39807 998.35152,-174.7119 C 1001.0178,-174.02583 1006.6309,-173.79707 1010.4198,-174.94066 C 1014.2079,-176.08414 1045.2749,-202.77594 1052.8525,-202.31854 C 1060.4301,-201.86122 1061.8331,-198.88809 1064.0781,-199.11686 C 1066.3237,-199.3455 1067.5864,-200.48909 1067.5864,-200.26033 C 1067.5864,-200.03156 1078.6717,-186.30959 1093.6861,-187.22442 C 1108.7011,-188.13924 1105.7543,-189.51149 1108.1395,-189.74015 C 1110.5247,-189.96879 1113.3313,-187.45318 1113.0508,-185.16622 C 1112.7703,-182.87915 1111.507,-181.50702 1109.9638,-181.27826 C 1108.42,-181.0496 1106.7366,-179.4487 1106.7366,-177.16175 C 1106.7366,-174.87479 1108.42,-171.673 1110.2442,-171.673 C 1112.0686,-171.673 1112.6301,-172.81647 1113.191,-173.04513 C 1113.7526,-173.27378 1114.3135,-170.5294 1116.6994,-171.673 C 1119.0846,-172.81647 1119.7864,-173.95996 1120.3473,-174.18861 C 1120.9089,-174.41737 1124.5575,-174.64613 1124.5575,-174.87479 C 1124.5575,-175.10344 1124.8379,-182.42185 1124.8379,-182.42185 C 1124.8379,-182.42185 1128.767,-182.87915 1128.767,-184.25139 C 1128.767,-185.62352 1127.364,-188.59666 1126.522,-189.96879 C 1125.68,-191.34103 1124.6977,-192.48451 1124.6977,-192.48451 C 1124.6977,-192.48451 1127.364,-190.88362 1127.9249,-191.11238 C 1128.4865,-191.34103 1129.7492,-192.25586 1129.7492,-192.25586 C 1129.7492,-192.25586 1127.9249,-195.6863 1126.522,-196.82979 C 1125.1184,-197.97326 1121.7509,-199.11686 1121.7509,-199.11686 C 1121.7509,-199.11686 1123.7154,-199.57416 1125.2586,-200.94639 C 1126.8024,-202.31854 1128.2054,-204.14819 1128.2054,-204.37695 C 1128.2054,-204.6056 1123.9959,-208.49335 1120.7687,-208.03605 C 1117.5414,-207.57863 1113.0508,-203.23336 1107.5779,-203.23336 C 1102.1057,-203.23336 1096.2122,-207.80739 1096.2122,-207.80739 C 1096.2122,-207.80739 1104.2105,-207.80739 1107.8591,-208.03605 C 1111.507,-208.26469 1119.365,-211.00907 1119.365,-219.47095 C 1119.365,-227.93284 1113.3313,-232.50687 1098.7376,-232.96417 C 1084.1446,-233.42159 1071.9361,-231.13463 1063.0958,-228.84766 C 1054.2555,-226.56059 1034.47,-221.07185 1027.5942,-221.07185 C 1020.7184,-221.07185 1018.8941,-222.67274 1018.7539,-226.33194 C 1018.6137,-229.99115 1030.1203,-229.07644 1030.1203,-229.76239 C 1030.1203,-230.44845 1030.4008,-231.36328 1030.541,-231.36328 C 1030.6812,-231.36328 1031.6635,-228.61891 1033.0671,-228.39025 C 1034.47,-228.16161 1037.2766,-228.84766 1037.2766,-228.84766 C 1037.2766,-228.84766 1038.3991,-226.78936 1040.3636,-227.01801 C 1042.3281,-227.24677 1043.1702,-228.84766 1043.1702,-228.84766 C 1043.1702,-228.84766 1044.2926,-227.24677 1046.3974,-227.47542 C 1048.5028,-227.70408 1050.046,-230.67722 1050.4673,-230.67722 C 1050.888,-230.67722 1052.4318,-230.21991 1053.8348,-231.13463 C 1055.2377,-232.04934 1061.6928,-238.91033 1061.6928,-238.91033 C 1061.6928,-238.91033 1056.0797,-237.30945 1052.7123,-237.30945 C 1049.3442,-237.30945 1047.2394,-239.36775 1043.0299,-238.68169 C 1038.8204,-237.99562 1034.3298,-235.93731 1031.9446,-236.16597 C 1029.5587,-236.39461 1029.1381,-236.39461 1023.8054,-236.39461 C 1018.4734,-236.39461 1013.7024,-230.67722 1013.1415,-224.04499 C 1012.5799,-217.41265 1016.9303,-213.52468 1023.6652,-213.9822 C 1030.4008,-214.43961 1084.5653,-226.33194 1095.2299,-225.87453 C 1105.8945,-225.41723 1112.7703,-224.50229 1112.7703,-219.47095 C 1112.7703,-214.43961 1105.6134,-214.21097 1100.4217,-214.43961 C 1095.2299,-214.66827 1083.1623,-216.95523 1074.322,-216.72658 C 1065.4817,-216.49793 1008.6508,-203.23336 998.4076,-203.46212 C 988.1636,-203.69077 982.35226,-210.13711 982.35226,-210.36577 C 982.35226,-210.59441 975.89889,-201.40371 975.89889,-201.86122 z "
           style="fill:#cf142b;fill-opacity:1;fill-rule:evenodd;stroke:#000000;stroke-width:0.69999999;stroke-linecap:butt;stroke-linejoin:miter;stroke-miterlimit:4;stroke-dasharray:none;stroke-opacity:1"
           id="path14455" />
        <path
           d="M 1114.7773,-177.13572 C 1114.7773,-173.25466 1115.5715,-169.37339 1115.9686,-168.07971 C 1116.365,-166.78594 1116.5639,-165.16889 1116.5639,-165.16889 C 1116.5639,-165.16889 1117.9526,-167.43277 1117.9526,-170.02025 C 1117.9526,-172.60771 1117.5556,-176.1655 1117.5556,-176.1655"
           style="fill:#00247d;fill-opacity:1;fill-rule:evenodd;stroke:#000000;stroke-width:0.69999999;stroke-linecap:butt;stroke-linejoin:miter;stroke-miterlimit:4;stroke-dasharray:none;stroke-opacity:1"
           id="path14413" />
        <path
           d="M 1107.6338,-177.13572 C 1107.6338,-176.81234 1106.4426,-175.19518 1106.6415,-172.28435 C 1106.8397,-169.37339 1107.435,-167.10951 1107.435,-167.43289 C 1107.435,-167.75625 1107.435,-170.34371 1108.8244,-171.96086 C 1110.2132,-173.57803 1112.3962,-174.54823 1112.3962,-174.54823"
           style="fill:#00247d;fill-opacity:1;fill-rule:evenodd;stroke:#000000;stroke-width:0.69999999;stroke-linecap:butt;stroke-linejoin:miter;stroke-miterlimit:4;stroke-dasharray:none;stroke-opacity:1"
           id="path14415" />
        <path
           d="M 1119.0266,-181.96443 C 1119.0266,-181.96443 1118.6052,-179.4487 1119.1668,-178.07657 C 1119.7277,-176.70434 1120.9911,-173.95996 1120.9911,-173.95996"
           style="fill:none;fill-opacity:1;fill-rule:evenodd;stroke:#000000;stroke-width:0.69999999;stroke-linecap:butt;stroke-linejoin:miter;stroke-miterlimit:4;stroke-dasharray:none;stroke-opacity:1"
           id="path14457" />
        <path
           d="M 1115.2378,-179.90613 C 1115.2378,-179.90613 1113.133,-177.39039 1113.2732,-175.7895 C 1113.4135,-174.18861 1113.9744,-172.58783 1113.9744,-172.58783"
           style="fill:none;fill-opacity:1;fill-rule:evenodd;stroke:#000000;stroke-width:0.69999999;stroke-linecap:butt;stroke-linejoin:miter;stroke-miterlimit:4;stroke-dasharray:none;stroke-opacity:1"
           id="path14459" />
        <path
           d="M 1122.394,-185.16622 C 1125.0604,-184.25139 1125.0604,-181.96443 1125.0604,-181.96443"
           style="fill:none;fill-opacity:1;fill-rule:evenodd;stroke:#000000;stroke-width:0.69999999;stroke-linecap:butt;stroke-linejoin:miter;stroke-miterlimit:4;stroke-dasharray:none;stroke-opacity:1"
           id="path14461" />
        <path
           d="M 1035.3943,-232.50687 C 1035.3943,-232.50687 1036.0954,-230.21969 1037.0777,-229.30497 C 1038.06,-228.39025 1039.4636,-227.24677 1039.4636,-227.24677"
           style="fill:none;fill-opacity:1;fill-rule:evenodd;stroke:#000000;stroke-width:0.69999999;stroke-linecap:butt;stroke-linejoin:miter;stroke-miterlimit:4;stroke-dasharray:none;stroke-opacity:1"
           id="path14469" />
        <path
           d="M 1041.2879,-231.82068 C 1041.2879,-231.82068 1042.2701,-231.59193 1042.6908,-230.67722 C 1043.1121,-229.76239 1044.0944,-228.61891 1044.0944,-228.61891"
           style="fill:none;fill-opacity:1;fill-rule:evenodd;stroke:#000000;stroke-width:0.69999999;stroke-linecap:butt;stroke-linejoin:miter;stroke-miterlimit:4;stroke-dasharray:none;stroke-opacity:1"
           id="path14471" />
        <path
           d="M 1048.0234,-232.96417 C 1048.8648,-232.96417 1049.8471,-230.2198 1049.8471,-230.2198"
           style="fill:none;fill-opacity:1;fill-rule:evenodd;stroke:#000000;stroke-width:0.69660759;stroke-linecap:butt;stroke-linejoin:miter;stroke-miterlimit:4;stroke-dasharray:none;stroke-opacity:1"
           id="path14473" />
        <path
           d="M 1068.423,-199.82895 C 1067.0315,-201.54423 1065.7607,-203.9781 1065.7607,-203.9781"
           style="fill:none;fill-opacity:1;fill-rule:evenodd;stroke:#000000;stroke-width:0.69999999;stroke-linecap:butt;stroke-linejoin:miter;stroke-miterlimit:4;stroke-dasharray:none;stroke-opacity:1"
           id="path14477" />
      </g>
      <g
         id="g18241">
        <path
           d="M 2116.9839,-402.46888 C 2113.1066,-398.78172 2108.2988,-395.832 2105.5071,-396.56941 C 2102.7155,-397.30686 2100.0789,-400.99401 2098.8382,-400.25659 C 2097.5975,-399.51915 2097.5975,-397.79848 2097.5975,-397.79848 C 2097.5975,-397.79848 2097.5975,-397.79848 2097.5975,-397.79848 C 2101.0095,-396.32361 2101.94,-395.34037 2104.1113,-394.11132 C 2106.2826,-392.88227 2110.4701,-395.832 2111.5557,-396.07779 C 2112.6413,-396.32361 2117.7594,-396.07779 2117.7594,-396.07779 L 2116.9839,-402.46888 z "
           style="fill:#00247d;fill-opacity:1;fill-rule:evenodd;stroke:#000000;stroke-width:0.625;stroke-linecap:butt;stroke-linejoin:miter;stroke-miterlimit:4;stroke-dasharray:none;stroke-opacity:1"
           id="path14479" />
        <path
           d="M 2126.2379,-375.51863 C 2121.4301,-366.91527 2115.5366,-365.68621 2115.5366,-365.68621 C 2115.5366,-365.68621 2114.2959,-369.12756 2114.2959,-369.12756 C 2112.5898,-365.44039 2106.5413,-362.24486 2106.5413,-362.24486 C 2106.5413,-362.24486 2105.7658,-367.40687 2105.7658,-367.40687 C 2104.0598,-363.71973 2098.3214,-361.75324 2098.3214,-361.75324 C 2098.3214,-361.75324 2098.3214,-361.75324 2098.3214,-361.75324 C 2097.3909,-367.16107 2103.5079,-384.40073 2107.0642,-385.19417 C 2108.5253,-385.52014 2105.9461,-390.43461 2105.9461,-390.43461 C 2106.7215,-392.6469 2112.0467,-393.58309 2112.8222,-393.82891 C 2113.5976,-394.07472 2114.3731,-397.51606 2113.7527,-398.99093 C 2113.1324,-400.46579 2106.4506,-400.2409 2105.048,-399.61853 C 2104.3565,-402.55258 2106.4705,-406.52382 2109.1,-407.10266 C 2114.6833,-408.33171 2114.1515,-415.63622 2121.7402,-416.07734 C 2126.411,-416.34885 2131.8212,-423.20584 2132.7518,-419.02707 C 2133.2276,-416.89001 2129.3397,-415.33991 2129.4948,-413.37343 C 2129.6499,-411.40694 2132.4416,-407.96561 2132.5967,-405.99911 C 2132.7518,-404.03263 2134.1476,-397.64158 2134.1476,-397.64158 C 2134.1476,-397.64158 2131.8212,-397.88737 2131.8212,-397.88737 C 2133.8374,-395.42928 2133.9925,-393.95442 2135.0781,-391.98793 C 2136.0197,-390.2824 2130.8906,-391.74211 2130.8906,-391.74211 C 2131.0457,-388.05495 2135.8535,-385.10523 2135.8535,-385.10523 C 2135.8535,-385.10523 2131.5376,-383.87618 2131.5376,-383.87618 C 2131.5376,-383.87618 2136.852,-376.56332 2135.6403,-376.1946 C 2133.217,-375.45717 2129.2622,-372.07727 2126.2379,-375.51863 z "
           style="fill:#cf142b;fill-opacity:1;fill-rule:evenodd;stroke:#000000;stroke-width:0.625;stroke-linecap:butt;stroke-linejoin:miter;stroke-miterlimit:4;stroke-dasharray:none;stroke-opacity:1"
           id="path14481" />
        <path
           d="M 2107.2081,-401.13475 C 2106.5476,-399.76284 2105.6442,-399.30409 2105.1906,-400.11022 C 2104.7369,-400.91639 2104.9048,-402.68201 2105.5655,-404.05344 C 2106.226,-405.42535 2107.1294,-405.8841 2107.5831,-405.07795 C 2108.0367,-404.2718 2107.8688,-402.50618 2107.2081,-401.13475 L 2107.2081,-401.13475 z "
           style="fill:#000000;fill-opacity:1;fill-rule:evenodd;stroke:#000000;stroke-width:0.625;stroke-linecap:butt;stroke-linejoin:miter;stroke-miterlimit:4;stroke-dasharray:none;stroke-opacity:1"
           id="path14483" />
        <g
           transform="matrix(0.739119,-0.532486,0.335966,1.171459,1793.861,-250.2668)"
           style="stroke:#000000;stroke-width:0.60000002;stroke-miterlimit:4;stroke-dasharray:none;stroke-opacity:1"
           id="g14485">
          <path
             d="M 413.31657,50.95145 C 413.70255,51.10437 416.34243,48.94831 417.09819,52.44972"
             style="fill:none;fill-opacity:1;fill-rule:evenodd;stroke:#000000;stroke-width:0.60000002;stroke-linecap:butt;stroke-linejoin:miter;stroke-miterlimit:4;stroke-dasharray:none;stroke-opacity:1"
             id="path14487" />
          <path
             d="M 416.21908,53.99348 C 415.91641,54.75739 414.96186,55.09631 414.0888,54.7504 C 413.21516,54.40427 412.75175,53.50355 413.05442,52.73964 C 413.35704,51.97582 414.31163,51.6368 415.18527,51.98293 C 416.05833,52.32884 416.5217,53.22966 416.21908,53.99348 z "
             style="font-size:12px;fill:none;fill-rule:evenodd;stroke:#000000;stroke-width:0.60000002;stroke-miterlimit:4;stroke-dasharray:none;stroke-opacity:1"
             id="path14489" />
          <path
             d="M 415.29574,51.59013 C 415.24593,51.71586 414.07753,54.89151 414.07753,54.89151"
             style="fill:none;fill-opacity:1;fill-rule:evenodd;stroke:#000000;stroke-width:0.60000002;stroke-linecap:butt;stroke-linejoin:miter;stroke-miterlimit:4;stroke-dasharray:none;stroke-opacity:1"
             id="path14491" />
        </g>
        <path
           d="M 2105.4556,-366.91527 C 2110.5737,-373.30634 2110.4186,-377.48511 2110.4186,-377.48511"
           style="fill:none;fill-opacity:0.75;fill-rule:evenodd;stroke:#000000;stroke-width:0.625;stroke-linecap:butt;stroke-linejoin:miter;stroke-miterlimit:4;stroke-dasharray:none;stroke-opacity:1"
           id="path14493" />
        <path
           d="M 2114.2959,-369.12756 C 2117.7079,-375.02701 2115.3815,-380.18902 2115.3815,-380.18902"
           style="fill:none;fill-opacity:0.75;fill-rule:evenodd;stroke:#000000;stroke-width:0.625;stroke-linecap:butt;stroke-linejoin:miter;stroke-miterlimit:4;stroke-dasharray:none;stroke-opacity:1"
           id="path14495" />
        <path
           d="M 2126.7032,-375.02701 C 2122.5157,-378.71416 2122.6708,-381.41808 2122.6708,-381.41808"
           style="fill:none;fill-opacity:0.75;fill-rule:evenodd;stroke:#000000;stroke-width:0.625;stroke-linecap:butt;stroke-linejoin:miter;stroke-miterlimit:4;stroke-dasharray:none;stroke-opacity:1"
           id="path14497" />
        <path
           d="M 2131.2008,-383.87618 C 2128.2541,-384.85941 2127.0134,-388.05497 2127.0134,-388.05497"
           style="fill:none;fill-opacity:0.75;fill-rule:evenodd;stroke:#000000;stroke-width:0.625;stroke-linecap:butt;stroke-linejoin:miter;stroke-miterlimit:4;stroke-dasharray:none;stroke-opacity:1"
           id="path14499" />
        <path
           d="M 2131.0457,-390.51306 C 2127.7888,-394.93766 2127.9439,-397.14994 2127.9439,-397.14994"
           style="fill:none;fill-opacity:0.75;fill-rule:evenodd;stroke:#000000;stroke-width:0.625;stroke-linecap:butt;stroke-linejoin:miter;stroke-miterlimit:4;stroke-dasharray:none;stroke-opacity:1"
           id="path14501" />
        <path
           d="M 2131.6661,-397.39574 C 2128.4092,-402.06614 2127.3235,-406.98236 2127.3235,-406.98236"
           style="fill:none;fill-opacity:0.75;fill-rule:evenodd;stroke:#000000;stroke-width:0.625;stroke-linecap:butt;stroke-linejoin:miter;stroke-miterlimit:4;stroke-dasharray:none;stroke-opacity:1"
           id="path14503" />
        <path
           d="M 2106.8074,-385.33018 C 2114.6287,-389.68169 2116.4063,-388.49492 2116.4063,-388.49492"
           style="fill:none;fill-opacity:0.75;fill-rule:evenodd;stroke:#000000;stroke-width:0.69999999;stroke-linecap:butt;stroke-linejoin:miter;stroke-miterlimit:4;stroke-dasharray:none;stroke-opacity:1"
           id="path17304" />
      </g>
    </g>
    <path
       d="M 1278.6904,188.60833 L 971.30945,188.8546 C 971.54634,206.61357 971.73164,248.0728 971.73164,336.89842 C 971.73163,515.79838 1124.9999,561.39167 1124.9999,561.39167 C 1124.9999,561.39167 1278.2682,515.55211 1278.2682,336.65215 C 1278.2682,247.82652 1278.4535,206.36729 1278.6904,188.60833 z "
       style="fill:none;fill-opacity:1;fill-rule:evenodd;stroke:#000000;stroke-width:5;stroke-linecap:butt;stroke-linejoin:miter;stroke-miterlimit:4;stroke-dasharray:none;stroke-opacity:1"
       id="path14505" />
  </g>
</svg>
