<?xml version="1.0" encoding="UTF-8"?>
<svg version="1.0" xmlns="http://www.w3.org/2000/svg" xmlns:xlink="http://www.w3.org/1999/xlink" width="1000" height="500">
	<g id="q1" transform="translate(-500)">
		<rect x="500" width="500" height="250" fill="#f7e017"/>
		<path d="m 750,0 c -3.50142,2.99747 -4.75003,4.2042801 -4.75,9.0625 -4.26221,-11.1919688 -24.32351,4.211974 -11.59375,10.96875 l -90.0625,0 C 644.0636,15.86562 646.45638,13.875 652.5,13.875 c -2.86633,-4.03871 -5.97571,-4.6425402 -9.28125,-2.3125 0,-6.72795 -.75992,-7.45296 -2.59375,-9.84375 C 638.79116,4.10954 638,4.8345498 638,11.5625 c -3.30556,-2.33004 -6.41495,-1.72621 -9.28125,2.3125 6.04363,0 8.43642,1.99062 8.90625,6.90625 l -98.9375,0 C 549.17396,1.986367 527.86351,-4.4778941 521.96875,12.3125 517.07629,5.3509997 510.16235,3.09214 502.3125,3.03125 c .0609,7.84985 2.31975,14.76379 9.28125,19.65625 -16.95296,5.951848 -10.217,27.62058 9,16.40625 l 0,82.875 c -4.7089,-.53422 -6.625,-2.91757 -6.625,-8.84375 -4.0387,2.86633 -4.64254,5.97569 -2.3125,9.28125 -6.72795,0 -7.45296,.75991 -9.84375,2.59375 2.3908,1.83384 3.1158,2.59375 9.84375,2.59375 -2.33004,3.30556 -1.72621,6.41492 2.3125,9.28125 10e-6,-5.92617 1.9161,-8.30953 6.625,-8.84375 l 0,83.59375 c -19.217,-11.21433 -25.95296,10.4544 -9,16.40625 -6.9615,4.89246 -9.22036,11.8064 -9.28125,19.65625 7.84985,-.0609 14.76379,-2.31974 19.65625,-9.28125 5.96954,17.00339 27.75673,10.1609 16.3125,-9.1875 l 99.40625,0 c -.30849,5.43481 -2.64216,7.625 -8.96875,7.625 2.8663,4.03871 5.97569,4.64254 9.28125,2.3125 0,6.72795 .79116,7.45296 2.625,9.84375 1.83383,-2.39078 2.59375,-3.1158 2.59375,-9.84375 3.30554,2.33004 6.41492,1.72621 9.28125,-2.3125 -6.32501,0 -8.62807,-2.19315 -8.9375,-7.625 l 103.28125,0 c -.21109,4.81315 -11.00437,11.37307 -11.84375,.0625 -15.3769,6.35981 5.8503,23.178 10.25,11.625 -3e-5,4.85821 1.24858,6.06503 4.75,9.0625 3.50142,-2.99748 4.75,-4.20428 4.75,-9.0625 4.39973,11.55299 25.6269,-5.2652 10.25,-11.625 -.83938,11.31057 -11.63268,4.75065 -11.84375,-.0625 l 103.28125,0 c -.30943,5.43185 -2.61249,7.625 -8.9375,7.625 2.86633,4.03871 5.97571,4.64254 9.28125,2.3125 0,6.72795 .75992,7.45297 2.59375,9.84375 1.83384,-2.39079 2.625,-3.1158 2.625,-9.84375 3.30556,2.33004 6.41495,1.72621 9.28125,-2.3125 -6.32659,0 -8.66026,-2.19019 -8.96875,-7.625 l 99.40625,0 c -11.44423,19.3484 10.34296,26.19089 16.3125,9.1875 4.89246,6.96151 11.8064,9.22036 19.65625,9.28125 -.0609,-7.84985 -2.31975,-14.76379 -9.28125,-19.65625 16.95295,-5.95185 10.217,-27.62058 -9,-16.40625 l 0,-83.59375 c 4.7089,.53422 6.62499,2.91758 6.625,8.84375 4.03871,-2.86633 4.64254,-5.97569 2.3125,-9.28125 6.72795,0 7.45295,-.75991 9.84375,-2.59375 -2.39079,-1.83384 -3.1158,-2.59375 -9.84375,-2.59375 2.33004,-3.30556 1.7262,-6.41492 -2.3125,-9.28125 0,5.92618 -1.9161,8.30953 -6.625,8.84375 l 0,-82.875 c 19.217,11.21433 25.95295,-10.454402 9,-16.40625 6.9615,-4.89246 9.22036,-11.8064 9.28125,-19.65625 -7.84985,.06089 -14.76379,2.3197497 -19.65625,9.28125 -5.89476,-16.7903941 -27.20521,-10.326133 -16.71875,8.46875 l -98.9375,0 c .46983,-4.91563 2.86262,-6.90625 8.90625,-6.90625 -2.8663,-4.03871 -5.97569,-4.64254 -9.28125,-2.3125 0,-6.7279502 -.79116,-7.45296 -2.625,-9.84375 -1.83383,2.39079 -2.59375,3.1158 -2.59375,9.84375 -3.30554,-2.3300402 -6.41492,-1.72621 -9.28125,2.3125 6.04362,0 8.4364,1.99062 8.90625,6.90625 l -90.0625,0 C 779.07352,14.024474 759.01224,-1.3794686 754.75,9.8125 754.75,4.95428 753.50142,3.74747 750,.75 z M 532.3125,14.1875 c 2.07524,-.0908 4.32672,1.755955 5.3125,6.59375 l -7.03125,0 -2.59375,0 c -.32034,-3.698614 1.87387,-6.487051 4.3125,-6.59375 z m 435.09375,0 c 2.54995,-.110717 4.92674,2.749018 4.59375,6.59375 l -2.59375,0 -7.03125,0 c .94001,-4.613205 3.04066,-6.50732 5.03125,-6.59375 z m -228.28125,1 c 3.11256,-.330764 6.93493,2.768207 7.625,5.59375 l -11.6875,0 c .43965,-3.809571 2.1091,-5.386167 4.0625,-5.59375 z m 20.84375,0 c 2.32772,-.213589 4.46146,1.198091 4.96875,5.59375 l -11.6875,0 c .62343,-2.552732 3.81464,-5.327272 6.71875,-5.59375 z M 518.75,28.6875 c .57904,-.04339 1.20877,-7.6e-4 1.84375,.09375 l 0,2 0,7.65625 c -10.43794,-1.854148 -7.91216,-9.295267 -1.84375,-9.75 z m 461.21875,0 c 6.93791,-.578181 10.57848,7.770967 -.5625,9.75 l 0,-7.65625 0,-2 c .18676,-.0278 .38008,-.07855 .5625,-.09375 z m -449.375,.59375 438.8125,0 1.5,1.46875 0,.03125 0,188.4375 0,.71875 -.78125,.78125 -.71875,0 -438.8125,0 -.71875,0 -.78125,-.78125 0,-.71875 0,-188.4375 0,-.03125 1.5,-1.46875 z m 1.5,3 0,185.4375 435.8125,0 0,-185.4375 -435.8125,0 z m 9.42432,9.516755 1.01318,-1.016755 -1.9375,1.9375 .92432,-.920745 z m 2.66943,-1.016755 77.96875,0 c -13.2887,7.389659 -3.32153,22.626131 11.125,15.6875 -1.46303,8.38201 1.83612,14.84376 7.34375,20.4375 5.50762,-5.59374 8.80679,-12.05549 7.34375,-20.4375 14.44651,6.938631 24.38244,-8.29784 11.09375,-15.6875 l 87.9375,0 c -.48316,4.872928 -2.85539,6.84375 -8.875,6.84375 2.86631,4.038708 5.97569,4.64254 9.28125,2.3125 10e-6,6.727948 .75991,7.45296 2.59375,9.84375 1.83384,-2.39079 2.59375,-3.1158 2.59375,-9.84375 3.30555,2.330038 6.41492,1.72621 9.28125,-2.3125 -6.01959,-10e-7 -8.39185,-1.970822 -8.875,-6.84375 l 87.9375,0 c -13.28869,7.38966 -3.35276,22.626131 11.09375,15.6875 -1.46304,8.38201 1.83613,14.84376 7.34375,20.4375 5.50763,-5.59374 8.80678,-12.05549 7.34375,-20.4375 14.44653,6.938631 24.4137,-8.297841 11.125,-15.6875 l 77.96875,0 c -4.26076,3.891165 -8.4698,4.842706 -13,.3125 -.82901,4.882599 -1.07872,9.52896 2.90625,10.21875 -4.75739,4.757378 -4.73118,5.82524 -5.125,8.8125 2.98725,-.393822 4.05512,-.36762 8.8125,-5.125 .68035,3.930379 5.19194,3.738468 10,2.9375 l 0,49.125 C 952.12751,93.017714 936.41228,103.02945 943.4375,117.65625 935.05547,116.19321 928.59374,119.49237 923,125 c 5.59375,5.50763 12.05549,8.80679 20.4375,7.34375 -7.02524,14.6268 8.69,24.63854 15.96875,10.59375 l 0,49.84375 c -4.80806,-.80097 -9.31965,-.99288 -10,2.9375 -4.75738,-4.75738 -5.82525,-4.73118 -8.8125,-5.125 .39382,2.98726 .36761,4.05513 5.125,8.8125 -3.87924,.67149 -3.74271,5.07526 -2.96875,9.8125 l -63.75,0 c 11.49163,-7.60492 1.71583,-21.69151 -12.28125,-14.96875 1.46303,-8.382 -1.83612,-14.87501 -7.34375,-20.46875 -5.50762,5.59373 -8.80679,12.08674 -7.34375,20.46875 -13.99706,-6.72276 -23.77287,7.36384 -12.28125,14.96875 l -86.65625,0 c .64699,-4.34603 3.06865,-6.125 8.78125,-6.125 -2.86633,-4.03871 -5.9757,-4.64255 -9.28125,-2.3125 0,-6.72795 -.75991,-7.48421 -2.59375,-9.875 -1.83384,2.39079 -2.59374,3.14704 -2.59375,9.875 -3.30556,-2.33004 -6.41494,-1.72622 -9.28125,2.3125 5.71262,0 8.13425,1.77897 8.78125,6.125 l -86.65625,0 c 11.49162,-7.60491 1.71581,-21.69151 -12.28125,-14.96875 1.46304,-8.38201 -1.83613,-14.87502 -7.34375,-20.46875 -5.50763,5.59374 -8.80678,12.08675 -7.34375,20.46875 -13.99708,-6.72276 -23.77288,7.36383 -12.28125,14.96875 l -63.75,0 c .77396,-4.73724 .91049,-9.14101 -2.96875,-9.8125 4.75739,-4.75737 4.73118,-5.82524 5.125,-8.8125 -2.98725,.39382 -4.05512,.36762 -8.8125,5.125 -.68035,-3.93038 -5.19194,-3.73847 -10,-2.9375 l 0,-49.84375 c 7.27875,14.04479 22.99399,4.03305 15.96875,-10.59375 8.38201,1.46304 14.84375,-1.83612 20.4375,-7.34375 -5.59374,-5.50763 -12.05547,-8.80679 -20.4375,-7.34375 7.02522,-14.6268 -8.69001,-24.638536 -15.96875,-10.59375 l 0,-49.125 c 4.80806,.800968 9.31965,.992879 10,-2.9375 4.75738,4.75738 5.82525,4.731178 8.8125,5.125 -.39382,-2.98726 -.36761,-4.055122 -5.125,-8.8125 3.98497,-.68979 3.73526,-5.336151 2.90625,-10.21875 -4.5302,4.530206 -8.73924,3.578665 -13,-.3125 z m 83.1875,0 9.90625,0 c -1.68399,11.381199 -15.23047,9.936695 -9.90625,0 z m 16.5625,0 9.90625,0 c 5.33965,9.946335 -8.22168,11.385272 -9.90625,0 z m 202.21875,0 9.90625,0 c -1.68457,11.385272 -15.2459,9.946335 -9.90625,0 z m 16.5625,0 9.90625,0 c 5.32422,9.936695 -8.22226,11.381199 -9.90625,0 z m 94.75,0 1.10561,1.109187 .83189,.828313 -1.9375,-1.9375 z m -416.875,4.75 c 3.38252,3.992175 4.10216,7.946916 0,12.1875 l 0,-12.1875 z m 418.8125,0 0,12.1875 c -4.10216,-4.240584 -3.38252,-8.195325 0,-12.1875 z m -414.6875,65 c 6.28973,-.33905 5.83664,9.90676 -4.125,11.1875 l 0,-9.78125 c 1.59398,-.89703 2.96976,-1.34398 4.125,-1.40625 z m 409.90625,0 c 1.27523,-.0893 2.87119,.33134 4.78125,1.40625 l 0,9.78125 c -9.59882,-1.23409 -10.36428,-10.79668 -4.78125,-11.1875 z m -414.03125,17.75 c 11.79128,1.51597 10.27243,15.5622 0,9.78125 l 0,-9.78125 z m 418.78125,0 c .01,-.001 .0213,.001 .0312,0 l 0,9.78125 c -10.26374,5.77606 -11.79009,-8.24538 -.0312,-9.78125 z M 540.59375,193 c 4.0985,4.2393 3.38162,8.19639 0,12.1875 l 0,-12.1875 z m 418.8125,0 0,12.1875 c -3.38162,-3.99111 -4.0985,-7.9482 0,-12.1875 z m -329.75,8.9375 c 2.81383,-.19887 6.4803,2.07439 7.53125,7.28125 l -10.1875,0 c -2.08663,-4.49865 -.10971,-7.08577 2.65625,-7.28125 z m 21.1875,0 c 3.12671,-.23141 5.61835,2.39135 3.34375,7.28125 l -10.125,0 c .965,-4.76526 4.09929,-7.08276 6.78125,-7.28125 z m 197.59375,0 c 2.81229,-.19876 6.4468,2.08046 7.5,7.28125 l -10.125,0 c -2.09628,-4.50655 -.14358,-7.08558 2.625,-7.28125 z m 21.1875,0 c 3.12399,-.2312 5.6393,2.39956 3.375,7.28125 l -10.1875,0 c .96299,-4.77106 4.12893,-7.08264 6.8125,-7.28125 z m -318.90625,4.65625 c 1.98325,-.1157 3.98266,.68973 6.0625,2.625 l -11.75,0 c 1.88913,-1.55563 3.77785,-2.5136 5.6875,-2.625 z m 397.8125,0 c 2.16929,-.12636 4.30017,.86499 6.4375,2.625 l -11.75,0 c 1.81673,-1.69044 3.57313,-2.52368 5.3125,-2.625 z M 540.59375,208 l 1.21875,1.21875 -.29443,-.2773 L 540.59375,208 z m 418.8125,0 -.64703,.47929 -.57172,.73946 L 959.40625,208 z m -438.84375,4.28125 c .009,-.002 .0217,.002 .0312,0 l 0,6.9375 0,2.71875 c -7.28356,1.08409 -11.4298,-7.61578 -.0312,-9.65625 z m 458.84375,0 c 11.43391,2.03106 7.28961,10.74124 0,9.65625 l 0,-2.71875 0,-6.9375 z m -451.3125,16.9375 2.5,0 7.15625,0 c -1.98806,11.76481 -10.93802,7.45065 -9.65625,0 z m 434.15625,0 7.15625,0 2.5,0 c 1.28177,7.45065 -7.66819,11.76481 -9.65625,0 z" fill="#a4001d" fill-rule="evenodd"/>
		<g transform="matrix(.5628116,0,0,.4372518,907.97665,-70.472006)">
			<g transform="matrix(2.2803737,0,0,2.3339879,-489.84465,198.4491)">
				<path d="M 79.315,89.49 C 82.898,85.823 86.669,84.407 86.669,84.407 C 86.669,84.407 84.169,86.22 82.731,88.595 C 81.293,90.97 79.731,91.658 79.731,91.658 C 83.981,92.533 84.981,90.47 86.231,89.095 C 86.49,88.81 86.842,88.523 87.235,88.246 C 87.233,88.232 87.231,88.22 87.231,88.22 C 87.231,88.22 87.233,88.233 87.235,88.246 C 88.737,87.186 90.856,86.282 90.856,86.282 C 90.856,86.282 88.737,87.186 87.235,88.246 C 87.279,88.509 87.713,91.215 87.356,92.345 C 86.981,93.533 85.668,94.845 87.043,95.908 C 88.418,96.971 89.856,96.658 89.856,96.658 C 89.856,96.658 89.2,94.252 92.419,91.658 C 89.2,94.252 89.856,96.658 89.856,96.658 C 90.106,98.408 88.918,100.033 88.918,100.033 C 94.293,99.533 97.356,94.158 97.356,94.158 C 97.356,95.596 96.793,99.471 96.793,99.471 C 98.918,99.033 100.231,97.971 100.731,96.783 C 101.231,95.595 101.794,93.47 102.669,96.533 C 103.544,99.596 106.607,99.971 106.607,99.971 L 106.419,94.908 C 107.732,97.583 110.739,97.57 112.014,97.433 L 111.417,96.71 L 112.014,97.433 C 112.377,97.394 112.607,97.345 112.607,97.345 C 110.044,95.095 109.232,83.845 111.607,89.532 C 113.982,95.219 117.545,91.282 117.545,91.282 C 114.357,90.844 115.795,86.157 115.795,86.157 C 118.545,87.22 119.483,84.094 119.483,84.094 C 115.17,83.156 116.733,76.344 116.733,76.344 C 120.358,77.282 121.171,74.406 121.171,74.406 C 116.858,74.343 117.296,69.718 116.671,68.406 C 116.046,67.094 116.483,66.343 116.483,66.343 C 119.671,66.656 120.296,64.53 120.296,64.53 C 115.921,64.53 115.671,60.592 115.671,58.842 C 115.671,57.092 114.803,55.443 114.733,54.217 C 114.649,52.738 115.546,50.092 115.546,50.092 C 115.546,50.092 113.796,52.092 112.233,52.28 C 110.67,52.468 111.108,49.655 109.983,48.592 C 108.858,47.529 107.608,46.217 105.858,46.154 C 104.108,46.091 104.608,42.279 104.608,42.279 C 104.608,42.279 102.795,44.029 101.67,45.029 C 100.545,46.029 99.795,46.092 98.232,46.154 C 96.669,46.216 95.607,45.404 93.232,47.342 C 90.857,49.28 88.794,48.842 86.232,48.842 C 83.67,48.842 84.294,50.405 84.857,51.155 C 85.42,51.905 84.794,53.843 84.794,55.78 C 84.794,57.717 86.169,57.53 87.669,58.655 C 89.169,59.78 90.857,58.718 91.919,57.842 C 92.936,57.005 96.516,57.083 96.826,57.091 C 96.583,56.641 96.416,56.158 96.398,55.654 C 96.416,56.158 96.583,56.64 96.826,57.091 C 96.84,57.091 96.856,57.092 96.856,57.092 L 97.284,57.119 L 97.31,56.791 L 97.284,57.119 L 97.841,57.155 L 97.284,57.119 L 97.234,57.732 C 98.197,59.024 99.648,59.904 99.648,59.904 C 99.648,59.904 98.197,59.024 97.234,57.732 L 97.233,57.742 C 97.149,61.909 98.488,64.488 98.481,65.904 C 98.475,67.14 96.981,67.154 96.981,67.154 C 96.981,67.154 89.981,67.154 87.981,67.071 C 85.981,66.988 86.398,67.988 86.398,69.821 C 86.398,71.654 85.231,72.238 85.231,72.238 C 87.314,72.488 87.815,71.738 88.315,71.071 C 88.815,70.404 90.231,69.988 92.065,70.738 C 93.898,71.488 96.315,70.655 97.648,70.405 C 98.981,70.155 98.315,72.072 98.315,72.072 C 98.315,72.072 96.898,74.739 94.648,74.905 C 92.398,75.071 90.731,74.738 89.315,76.322 C 88.361,77.389 86.659,77.777 85.287,78.246 L 86.184,78.647 L 85.287,78.246 C 84.623,78.474 84.029,78.718 83.648,79.072 C 82.481,80.155 77.315,81.572 74.398,79.822 C 74.398,79.822 74.148,83.322 77.648,83.822 C 77.648,83.822 79.731,84.155 76.981,86.405 C 75.538,87.587 74.654,89.662 73.465,90.464 C 73.514,90.505 73.543,90.53 73.543,90.53 L 74.028,90.889 L 74.557,90.634 L 74.028,90.889 L 74.071,90.921 L 74.028,90.889 L 73.633,91.079 C 74.758,91.486 77.018,91.84 79.315,89.49 z" fill="#a4001d"/>
				<path d="M 76.981,86.407 C 79.731,84.157 77.648,83.824 77.648,83.824 C 74.148,83.324 74.398,79.824 74.398,79.824 C 77.315,81.574 82.481,80.157 83.648,79.074 C 84.029,78.72 84.623,78.476 85.287,78.248 L 85.226,78.221 C 85.226,78.221 76.099,74.41 72.288,64.575 C 68.477,54.74 59.883,49.775 59.883,49.775 C 59.883,49.775 57.223,48.623 58.907,44.369 C 60.591,40.115 58.818,38.964 58.109,39.495 C 57.4,40.026 56.514,40.558 55.716,40.204 C 54.919,39.85 54.122,41.976 52.881,40.647 C 51.64,39.318 51.374,38.609 50.222,39.938 C 49.071,41.267 47.653,41.977 48.185,42.597 C 48.339,42.778 48.348,42.891 48.274,42.956 C 48.69,43.053 51.147,43.752 53.631,47.263 C 51.147,43.752 48.69,43.053 48.274,42.956 C 48.093,43.114 47.369,42.948 46.678,42.508 C 45.703,41.888 44.285,43.217 44.994,44.103 C 45.703,44.989 44.463,48.356 46.412,48.002 C 48.361,47.648 50.399,46.406 50.488,48.09 C 50.577,49.774 53.324,51.635 50.488,51.812 C 47.652,51.989 46.235,52.432 46.412,53.938 C 46.589,55.444 48.007,60.407 49.513,57.66 C 51.021,54.913 54.033,55.001 54.919,57.483 C 55.805,59.965 57.046,62.712 57.046,62.712 L 57.542,61.906 C 57.542,61.906 58.48,64.844 58.417,66.719 L 59.355,66.156 L 60.043,71.719 L 61.106,70.656 L 61.419,77.469 L 63.169,75.969 C 63.169,75.969 63.357,79.282 63.607,80.407 L 64.545,79.719 C 64.545,79.719 64.858,81.719 66.358,83.719 C 67.757,85.585 72.797,89.895 73.467,90.466 C 74.654,89.664 75.538,87.588 76.981,86.407 z M 53.618,41.114 L 55.765,45.546 L 53.618,41.114 z" fill="#a4001d"/>
				<path d="M 96.856,57.094 C 96.856,57.094 96.839,57.094 96.826,57.093 C 96.946,57.316 97.082,57.531 97.234,57.734 L 97.284,57.121 L 96.856,57.094 z" fill="#ed312e"/>
				<path d="M 73.543,90.532 C 73.543,90.532 73.514,90.507 73.465,90.466 C 73.284,90.589 73.096,90.685 72.898,90.74 C 72.898,90.74 73.172,90.914 73.634,91.08 L 74.029,90.89 L 73.543,90.532 z" fill="#ed312e"/>
				<path d="M 106.148,122.074 C 106.281,121.42 106.304,120.767 106.277,120.12 C 106.013,120.131 98.876,120.412 96.598,119.17 C 94.278,117.904 90.164,118.01 87.528,120.436 C 84.892,122.862 80.145,125.604 77.825,122.334 C 77.224,121.487 76.913,120.732 76.783,120.079 C 76.409,118.209 77.509,117.167 77.509,117.167 C 77.509,117.167 70.761,119.275 75.295,124.443 C 70.338,125.92 67.596,120.752 67.596,120.752 C 67.596,120.752 66.246,126.231 69.982,127.032 C 73.348,127.754 76.245,127.396 76.245,127.396 C 76.245,127.396 72.92,132.657 68.92,132.344 C 68.92,132.344 70.67,135.282 76.483,131.156 C 76.483,131.156 76.17,132.531 76.796,134.094 C 76.796,134.094 81.609,130.344 82.046,135.094 C 82.483,139.844 82.546,139.344 83.359,140.094 C 84.172,140.844 85.422,143.844 82.984,143.782 C 80.546,143.72 77.734,142.844 75.796,142.782 C 73.858,142.72 67.733,143.97 66.421,142.469 C 65.109,140.968 63.421,139.969 63.171,138.156 C 62.921,136.343 61.983,136.093 61.233,136.156 C 60.483,136.219 59.17,136.781 59.608,138.469 C 59.608,138.469 59.418,139.467 58.871,139.307 L 63.454,143.695 L 58.871,139.307 C 58.791,139.284 58.704,139.237 58.608,139.157 C 57.858,138.532 56.045,137.594 55.795,139.094 C 55.545,140.594 55.983,141.907 55.607,142.657 C 55.231,143.407 54.732,143.657 54.794,144.845 C 54.856,146.033 54.106,149.283 55.544,149.345 C 56.982,149.407 57.107,147.97 59.357,148.095 C 61.607,148.22 65.42,147.72 63.732,149.033 C 62.044,150.346 60.107,150.783 59.919,151.908 C 59.731,153.033 60.544,152.721 61.357,152.783 C 62.17,152.845 62.92,153.783 63.107,154.658 C 63.294,155.533 64.607,156.221 64.982,154.47 C 65.357,152.719 65.67,149.986 67.295,149.845 C 69.138,149.686 69.887,151.346 69.887,151.346 C 71.085,153.461 72.037,154.448 72.602,154.624 C 72.602,154.624 72.707,153.074 74.153,152.615 C 75.599,152.156 76.444,153.425 76.833,154.236 C 77.22,155.048 78.031,156.563 79.724,156.881 C 79.724,156.881 79.582,154.589 81.028,154.624 C 82.474,154.659 83.109,157.41 85.859,157.974 C 85.859,157.974 85.929,156.564 86.951,156.176 C 87.974,155.788 88.502,154.837 88.538,154.343 C 88.538,154.343 88.855,157.268 91.465,157.832 C 91.465,157.832 91.604,157.004 92.522,155.964 C 93.581,154.766 93.983,154.184 96.672,154.157 C 99.371,154.131 101.36,151.407 101.36,151.407 C 101.36,151.407 98.047,152.782 95.672,151.157 C 93.297,149.532 89.797,139.407 99.235,135.969 C 102.05,135.047 103.548,135.132 104.005,135.193 C 103.914,131.913 105.126,127.119 106.148,122.074 z M 58.212,142.647 C 56.772,141.534 55.723,142.319 55.723,142.319 C 55.723,142.319 56.772,141.534 58.212,142.647 C 59.652,143.76 61.422,145.201 61.422,145.201 C 61.422,145.201 59.653,143.76 58.212,142.647 z" fill="#a4001d"/>
				<path d="M 151.564,46.157 C 150.148,43.49 148.73,39.99 145.647,39.99 C 145.647,39.99 149.814,35.74 146.23,32.49 C 146.23,32.49 145.167,38.157 139.064,38.157 C 127.085,38.157 123.751,45.796 124.793,61.095 C 125.606,73.033 134.606,79.033 140.731,85.158 C 145.971,90.398 147.043,100.158 147.043,100.158 C 147.01,100.102 146.977,100.046 146.944,99.991 C 144.339,95.717 141.241,95.568 137.169,93.408 C 133.044,91.22 136.231,86.033 136.231,86.033 C 127.668,88.908 133.356,95.283 133.356,95.283 L 131.106,97.658 C 127.731,100.658 124.106,95.095 124.106,95.095 C 123.731,100.97 128.419,101.095 128.419,101.095 C 119.669,108.408 129.044,112.658 129.044,112.658 C 125.294,108.283 130.857,104.345 130.857,104.345 C 132.295,110.22 137.045,106.345 137.045,106.345 C 134.732,106.282 130.982,100.47 138.92,99.345 C 146.858,98.22 149.795,113.47 140.733,119.158 C 131.67,124.846 121.858,116.158 120.045,110.72 C 118.232,105.282 112.045,97.47 112.045,97.47 L 112.015,97.433 C 110.741,97.57 107.734,97.582 106.42,94.908 L 106.608,99.971 C 106.608,99.971 103.545,99.596 102.67,96.533 C 101.795,93.47 101.232,95.595 100.732,96.783 C 100.232,97.971 98.919,99.033 96.794,99.471 C 96.794,99.471 97.357,95.596 97.357,94.158 C 97.357,94.158 94.294,99.533 88.919,100.033 C 88.919,100.033 90.107,98.408 89.857,96.658 C 89.857,96.658 88.419,96.971 87.044,95.908 C 85.669,94.845 86.981,93.533 87.357,92.345 C 87.713,91.216 87.28,88.51 87.236,88.246 C 86.843,88.523 86.491,88.809 86.232,89.095 C 84.982,90.47 83.982,92.533 79.732,91.658 C 79.732,91.658 81.295,90.97 82.732,88.595 C 84.169,86.22 86.67,84.407 86.67,84.407 C 86.67,84.407 82.899,85.824 79.316,89.49 C 77.019,91.84 74.759,91.486 73.635,91.08 L 73.607,91.094 C 70.274,92.594 60.794,99.907 60.794,99.907 C 56.669,102.97 53.544,105.657 49.169,106.532 C 44.794,107.407 42.419,105.969 40.169,104.407 C 37.919,102.845 38.294,105.907 38.294,105.907 C 38.294,105.907 38.294,105.907 38.294,107.845 C 38.294,109.783 41.044,108.533 42.669,109.033 C 44.294,109.533 38.794,112.471 35.794,112.846 C 32.794,113.221 34.356,115.471 35.044,115.471 C 35.732,115.471 35.919,115.158 36.857,116.659 C 37.795,118.16 38.92,117.972 39.92,116.284 C 40.92,114.596 43.045,114.096 44.358,113.221 C 45.671,112.346 45.733,113.158 45.733,114.846 C 45.733,116.534 44.858,117.346 43.483,118.409 C 42.108,119.472 43.921,119.909 44.671,120.222 C 45.421,120.535 45.859,120.847 46.421,121.847 C 46.983,122.847 48.234,122.035 48.234,118.159 C 48.234,114.283 49.984,114.221 51.422,112.534 C 52.86,110.847 52.86,113.222 52.797,115.409 C 52.734,117.596 53.172,117.909 54.172,118.034 C 55.172,118.159 56.235,117.721 56.922,115.034 C 57.609,112.347 59.797,113.284 59.797,113.284 C 60.36,113.784 61.172,113.534 61.172,113.534 C 60.734,112.034 61.672,110.721 61.672,110.721 C 62.547,112.909 65.11,112.971 65.11,112.971 C 64.547,111.596 65.423,110.283 65.423,110.283 C 66.861,113.471 69.736,112.971 69.736,112.971 C 69.111,111.783 69.423,109.971 69.423,109.971 C 70.423,111.721 72.236,111.034 72.236,111.034 C 71.298,109.534 72.173,107.534 72.173,107.534 C 73.611,110.597 76.111,110.034 76.111,110.034 C 74.861,107.346 76.799,106.971 77.986,107.846 C 79.173,108.721 80.924,107.846 80.924,107.846 C 82.612,107.346 82.924,109.284 82.924,109.284 C 82.924,109.284 84.881,107.85 86.299,107.034 C 87.018,106.62 87.841,106.468 88.611,106.44 L 88.07,105.1 L 88.611,106.44 C 90.051,106.389 91.299,106.784 91.299,106.784 C 91.299,106.784 90.051,106.389 88.611,106.44 L 88.674,106.596 C 91.237,112.346 97.424,113.471 100.487,114.034 C 103.55,114.597 105.612,117.097 105.612,117.097 L 105.762,117.323 C 104.214,112.657 99.904,108.91 99.904,108.91 C 99.904,108.91 104.215,112.657 105.762,117.323 L 106.744,118.796 L 105.762,117.323 C 106.063,118.228 106.241,119.169 106.283,120.123 C 106.288,120.123 106.307,120.122 106.307,120.122 L 107.256,120.122 L 106.307,120.122 C 106.307,120.122 106.287,120.123 106.283,120.123 C 106.31,120.77 106.287,121.423 106.154,122.077 C 105.133,127.122 103.92,131.916 104.007,135.196 C 104.108,135.21 104.175,135.222 104.175,135.222 L 105.07,135.285 L 104.175,135.222 C 104.175,135.222 104.108,135.209 104.007,135.196 C 104.033,136.197 104.176,137.061 104.487,137.743 C 105.821,140.66 110.904,146.077 107.654,150.16 C 104.404,154.243 103.571,154.577 103.904,158.577 C 103.904,158.577 104.3,155.41 106.675,154.41 C 106.675,154.41 106.05,158.723 107.8,160.785 C 107.8,160.785 107.362,157.535 109.238,156.16 C 109.238,156.16 110.926,159.598 113.863,158.41 C 113.863,158.41 111.675,156.41 111.675,153.785 C 111.675,151.16 112.613,149.972 113.925,151.972 C 115.237,153.972 117.488,153.972 119.175,152.785 C 120.862,151.598 124.3,147.722 124.3,150.847 C 124.3,153.972 124.863,154.91 125.488,155.347 C 126.113,155.784 125.988,157.035 124.925,158.41 C 123.862,159.785 122.925,161.91 122.425,163.348 C 121.925,164.786 119.425,168.098 118.362,166.848 C 117.299,165.598 115.237,164.785 114.612,165.598 C 113.987,166.411 112.424,166.661 113.299,167.411 C 114.174,168.161 114.174,169.536 113.987,170.661 C 113.8,171.786 114.987,171.911 114.487,173.161 C 114.487,173.161 115.479,171.404 117.581,170.053 C 115.479,171.405 114.487,173.161 114.487,173.161 C 113.987,174.411 112.924,174.349 114.362,175.474 C 115.8,176.599 115.987,177.974 117.55,177.412 C 119.113,176.85 119.613,177.349 119.675,178.475 C 119.737,179.601 121.425,181.475 122.113,179.225 C 122.801,176.975 122.613,173.85 122.551,173.037 C 122.489,172.224 123.239,172.037 124.301,171.287 C 125.363,170.537 127.176,169.849 127.301,171.475 C 127.426,173.101 127.051,176.413 127.801,176.788 C 128.551,177.163 129.551,177.351 129.614,175.913 C 129.677,174.475 130.114,174.1 131.302,173.85 C 132.49,173.6 133.427,173.412 133.49,172.1 C 133.553,170.788 133.427,169.787 131.552,169.787 C 129.677,169.787 129.489,169.537 129.489,168.287 C 129.489,167.037 129.114,165.537 131.489,165.349 C 133.864,165.161 136.281,164.766 137.031,163.953 C 137.031,163.953 135.155,163.578 134.364,162.286 C 133.573,160.994 132.364,161.161 132.364,161.161 C 132.364,161.161 132.406,160.744 133.656,160.536 C 134.906,160.328 138.948,159.661 139.823,157.119 C 139.823,157.119 138.28,157.744 136.989,156.661 C 135.698,155.578 135.198,155.619 135.198,155.619 C 135.198,155.619 135.823,155.036 137.656,155.036 C 139.489,155.036 141.489,153.036 141.489,153.036 C 141.489,153.036 139.78,152.952 139.155,152.202 C 138.53,151.452 137.739,150.827 136.614,150.744 C 136.614,150.744 137.947,149.453 139.655,149.286 C 141.364,149.119 142.405,147.244 142.405,147.244 C 142.405,147.244 141.114,147.578 139.864,146.786 C 138.614,145.994 136.655,146.327 136.655,146.327 C 136.655,146.327 137.573,145.036 139.698,144.911 C 141.823,144.786 143.989,143.077 143.989,143.077 C 143.989,143.077 142.198,143.16 141.114,142.202 C 141.114,142.202 138.822,140.453 138.53,138.786 C 138.239,137.119 138.864,136.786 138.426,135.973 C 137.869,134.939 135.738,133.285 136.051,130.473 C 136.051,130.473 135.363,130.035 133.363,132.161 C 131.363,134.287 127.85,137.237 124.75,135.868 C 124.75,135.868 120.281,134.318 121.863,123.473 C 121.863,123.473 152.155,135.494 152.321,105.66 C 152.487,78.493 131.404,78.493 128.738,63.493 C 128.738,63.493 124.322,40.326 139.822,42.493 C 139.822,42.493 141.572,42.826 140.155,45.576 C 138.738,48.326 138.572,55.243 138.572,55.243 C 138.572,55.243 139.937,55.436 140.937,54.936 C 140.937,54.936 141.321,55.826 140.238,57.16 C 139.155,58.494 138.405,62.493 140.655,65.16 C 142.905,67.827 147.822,68.077 147.822,68.077 C 147.822,68.077 145.822,65.66 146.905,63.077 C 147.988,60.494 149.072,59.91 149.405,57.744 C 149.405,57.744 151.739,64.494 156.321,61.244 C 156.321,61.244 153.237,59.077 153.905,56.161 C 154.571,53.244 155.071,52.328 155.071,50.911 C 155.071,50.911 158.655,50.578 158.655,45.494 C 158.648,45.49 152.982,48.823 151.564,46.157 z M 118.289,174.102 C 117.313,175.003 117.313,177.442 117.313,177.442 C 117.313,177.442 117.313,175.003 118.289,174.102 C 119.265,173.201 120.278,172.075 120.278,172.075 C 120.278,172.075 119.264,173.201 118.289,174.102 z" fill="#a4001d"/>
			</g>
			<path d="M -168.48755,326.66206 C -168.48755,326.66206 -168.36669,324.82521 -165.856,322.86699 C -163.3453,320.90878 -159.99316,316.99001 -159.15626,313.92782" fill="none" stroke="#000" stroke-width="1.73026884"/>
			<path d="M -154.48833,354.33615 C -154.48833,354.33615 -164.2985,353.84835 -162.38299,338.90849" fill="none" stroke="#000" stroke-width="1.73026884"/>
			<path d="M -240.48579,519.73887 C -240.48579,519.73887 -237.92037,529.07482 -228.22878,528.49133" fill="none" stroke="#000" stroke-width="1.73026884"/>
			<path d="M -199.15401,523.82335 L -194.30822,523.23985 C -194.30822,523.23985 -191.7428,522.94811 -191.7428,525.86559 C -191.7428,528.78308 -191.7428,531.70056 -191.7428,531.70056" fill="none" stroke="#000" stroke-width="1.73026884"/>
			<line x1="-355.61957" y1="523.58765" x2="-345.16406" y2="533.83148" stroke="#000" stroke-width="1.73026884"/>
			<path d="M -353.37797,517.62895 C -353.37797,517.62895 -359.65127,508.76213 -367.56645,515.79443 C -367.56645,515.79443 -361.29314,515.79677 -359.35027,521.60373 L -355.20683,524.08476 L -353.86825,521.79978 C -353.87053,521.79978 -354.8967,518.94298 -353.37797,517.62895 z" fill="#0b216a" stroke="#000" stroke-width="1.73026884"/>
			<path d="M -362.78907,530.61992 C -358.29533,531.06155 -353.60811,534.5506 -349.7955,537.34648" fill="#006" stroke="#000" stroke-width="1.73026884"/>
			<path d="M -364.72967,533.98553 C -366.96899,528.63603 -376.08137,528.94179 -376.08137,528.94179 C -372.64712,520.99456 -362.63856,524.04975 -362.63856,524.04975 C -362.63856,524.04975 -362.79591,527.51339 -362.57471,529.18919 C -362.35352,530.86499 -364.72967,533.98553 -364.72967,533.98553 z" fill="#0b216a" stroke="#000" stroke-width="1.73026884"/>
			<path d="M -345.46279,560.73537 C -351.88432,563.18139 -352.18305,572.35396 -352.18305,572.35396 C -359.7995,561.04112 -352.93101,554.47095 -352.93101,554.47095 C -352.93101,554.47095 -352.4567,555.08012 -350.22421,555.00543 C -347.99172,554.93074 -346.87662,556.68357 -346.42967,558.05362 C -345.98271,559.42367 -345.46279,560.73537 -345.46279,560.73537 z" fill="#0b216a" stroke="#000" stroke-width="1.73026884"/>
			<path d="M -365.0284,536.1258 C -365.0284,536.1258 -378.4712,532.60848 -378.02196,546.51905 C -378.02196,546.51905 -372.19789,539.33737 -365.47763,542.69831" fill="#0b216a" stroke="#000" stroke-width="1.73026884"/>
			<path d="M -228.79887,602.59544 C -228.79887,602.59544 -226.53446,598.49463 -221.74339,595.34141" fill="#006" stroke="#000" stroke-width="1.73026884"/>
			<path d="M -222.34313,612.59658 C -222.34313,612.59658 -221.23867,608.32793 -219.01303,606.22267 C -216.78738,604.11741 -215.58182,600.07007 -215.58182,600.07007" fill="#006" stroke="#000" stroke-width="1.73026884"/>
			<path d="M -229.87521,597.35564 C -236.63652,597.00554 -239.63065,602.52542 -239.63065,602.52542 C -241.94066,590.26265 -231.67214,588.68254 -231.67214,588.68254 C -231.67214,588.68254 -229.57192,591.39463 -229.57192,592.87438 C -229.57192,594.35413 -229.87521,597.35564 -229.87521,597.35564 z" fill="#0b216a" stroke="#000" stroke-width="1.73026884"/>
			<path d="M -230.81472,606.29015 C -230.81472,606.29015 -239.9727,614.70184 -228.76238,622.75876 C -228.76238,622.75876 -229.95958,614.52679 -225.67932,611.89872" fill="#0b216a" stroke="#000" stroke-width="1.73026884"/>
			<path d="M -216.35031,617.59132 C -222.34085,619.95798 -219.34444,628.89248 -219.34444,628.89248 C -231.83861,623.63634 -224.73753,612.51022 -224.73753,612.51022 C -224.73753,612.51022 -222.68291,613.00036 -220.68302,612.09011 C -218.68313,611.17985 -217.01846,612.65493 -216.90672,614.24904 C -216.79498,615.84316 -216.35031,617.59132 -216.35031,617.59132 z" fill="#0b216a" stroke="#000" stroke-width="1.73026884"/>
			<path d="M -186.56635,602.87319 C -183.91199,615.66111 -193.58534,619.16676 -193.58534,619.16676 C -189.99147,614.34941 -194.95584,611.19619 -194.95584,611.19619 C -194.95584,611.19619 -194.13491,609.47604 -194.13491,607.31477 C -194.13491,605.15349 -192.68915,604.3576 -191.13622,604.13121 C -189.58328,603.90481 -186.56635,602.87319 -186.56635,602.87319 z" fill="#0b216a" stroke="#000" stroke-width="1.73026884"/>
			<path d="M -249.03719,471.74508 C -249.03719,471.74508 -253.7416,465.91011 -260.7241,464.59607 C -267.70661,463.28204 -281.81756,460.6563 -287.66216,447.23587" fill="none" stroke="#000" stroke-width="3.02373648"/>
			<path d="M -262.62365,338.27131 C -262.62365,338.27131 -269.8456,333.79706 -270.03487,328.35186" fill="none" stroke="#000" stroke-width="1.73026884"/>
			<path d="M -312.53191,394.13998 C -312.53191,394.13998 -303.05468,395.74577 -295.4998,388.88851 C -287.94492,382.03125 -280.53371,380.4278 -272.83745,380.4278" fill="none" stroke="#000" stroke-width="1.73026884"/>
			<path d="M -284.95307,424.04537 C -284.95307,424.04537 -286.449,418.42979 -279.10848,412.37543" fill="none" stroke="#000" stroke-width="1.73026884"/>
			<path d="M -246.94608,420.44636 C -246.94608,420.44636 -249.41573,414.90314 -249.41573,405.95696" fill="none" stroke="#000" stroke-width="1.73026884"/>
			<line x1="-257.68436" y1="419.96088" x2="-257.68436" y2="405.95697" stroke="#000" stroke-width="1.73026884"/>
			<path d="M -267.85027,418.2104 C -267.85027,418.2104 -265.18907,409.06817 -265.18907,403.62297" fill="none" stroke="#000" stroke-width="1.73026884"/>
			<path d="M -404.53131,472.47562 C -410.09086,473.4979 -413.93785,484.14556 -413.93785,484.14556 C -418.92731,473.93436 -411.37243,467.36885 -411.37243,467.36885 C -411.37243,467.36885 -410.41239,468.11806 -409.18783,467.80764 C -407.96327,467.49722 -407.04656,468.56152 -406.43542,469.5628 C -405.82428,470.56408 -404.53131,472.47562 -404.53131,472.47562 z" fill="#0b216a" stroke="#000" stroke-width="1.73026884"/>
			<path d="M -384.00795,482.83152 C -389.85254,484.87376 -391.70421,494.35675 -391.70421,494.35675 C -395.83852,486.47954 -390.84907,478.16355 -390.84907,478.16355 C -390.84907,478.16355 -389.06353,478.32459 -387.35097,479.26519 C -385.63841,480.20579 -384.88589,481.76722 -384.00795,482.83152" fill="#0b216a" stroke="#000" stroke-width="1.73026884"/>
			<path d="M -402.53598,443.00902 C -402.53598,443.00902 -413.6528,439.94449 -414.79299,451.76147 C -414.79299,451.76147 -407.66682,448.4052 -402.53598,450.59448" fill="#0b216a" stroke="#000" stroke-width="1.73026884"/>
			<path d="M -368.90047,472.18387 L -370.8958,482.83386 C -370.8958,482.83386 -366.05,479.04113 -364.33972,473.93436" fill="#0b216a" stroke="#000" stroke-width="1.73026884"/>
			<path d="M -238.11192,404.01042 C -238.11192,404.01042 -235.83154,396.52298 -237.73109,386.50551" fill="none" stroke="#000" stroke-width="1.73026884"/>
			<path d="M -225.9484,399.83024 C -225.9484,399.83024 -223.09794,389.13358 -232.50448,381.74184" fill="none" stroke="#000" stroke-width="1.73026884"/>/>
			<path d="M -223.76381,376.68409 C -223.76381,376.68409 -228.80115,374.44813 -232.12594,369.4884" fill="none" stroke="#000" stroke-width="1.73026884"/>/>
			<path d="M -224.41827,353.26018 C -224.41827,353.26018 -226.89932,352.95676 -229.46474,349.45578 C -231.57409,346.57564 -235.26145,344.88583 -237.25678,341.0931" fill="none" stroke="#000" stroke-width="1.73026884"/>
			<path d="M -235.61719,319.95184 C -235.61719,319.95184 -239.51207,317.9096 -245.78309,316.84064" fill="none" stroke="#000" stroke-width="1.73026884"/>
			<path d="M -267.79098,316.07275 C -267.79098,316.07275 -272.1921,310.55287 -274.67543,313.45869 C -277.15876,316.3645 -280.77771,318.0333 -277.86795,319.48738 C -274.9582,320.94145 -273.71311,320.30661 -271.0884,320.37896 C -268.46369,320.45132 -264.73984,319.19563 -267.79098,316.07275 z" fill="#000" stroke="#000"/>
			<path d="M -266.0693,348.26312 L -295.31053,348.26312 C -295.31053,348.26312 -314.59793,349.06601 -305.47644,324.85088 C -305.47644,324.85088 -306.10354,344.59875 -290.33247,344.59875 C -274.56141,344.59875 -267.28018,344.87183 -267.28018,344.87183" fill="#0b216a" stroke="#000" stroke-width="1.73026884"/>
			<polyline points="88.475,67.073 89.266,65.429 90.308,67.115" transform="matrix(2.2803737,0,0,2.3339879,-489.84465,198.4491)" fill="#fff" stroke="#292526" stroke-width=".5"/>
			<polyline points="87.808,58.823 88.933,61.09 89.891,59.115" transform="matrix(2.2803737,0,0,2.3339879,-489.84465,198.4491)" fill="#fff" stroke="#292526" stroke-width=".5"/>
			<path d="M -380.25673,334.61862 C -380.25673,334.61862 -392.27886,338.2153 -397.41426,327.2899 C -397.41426,327.2899 -389.5789,330.05568 -383.49942,327.56531" fill="#0b216a" stroke="#000" stroke-width="1.73026884"/>
			<path d="M -386.74211,306.68779 C -386.74211,306.68779 -395.92974,303.23349 -400.11651,306.41238 C -400.11651,306.41238 -397.27972,297.97735 -387.55165,299.3614" fill="#0b216a" stroke="#000" stroke-width="1.73026884"/>
			<path d="M -379.04129,295.21157 C -379.04129,295.21157 -383.0958,288.02055 -390.25389,290.51092 C -390.25389,290.51092 -383.76851,281.38503 -373.77135,290.23317" fill="#0b216a" stroke="#000" stroke-width="1.73026884"/>
			<path d="M -361.88376,292.72354 C -361.88376,292.72354 -363.10148,283.73535 -369.45004,280.55646 C -369.45004,280.55646 -361.6124,278.89699 -356.47927,290.37321" fill="#0b216a" stroke="#000" stroke-width="1.73026884"/>
			<path d="M -379.93064,298.67287 C -379.93064,298.67287 -373.77135,299.77218 -367.55733,308.76037" fill="none" stroke="#000" stroke-width="1.73026884"/>
			<line x1="-367.59152" y1="294.40866" x2="-362.6933" y2="304.75293" stroke="#000" stroke-width="1.73026884"/>
			<path d="M -268.99046,331.70581 C -268.99046,331.70581 -277.82691,331.41406 -280.25094,333.4563 C -282.67498,335.49854 -286.52197,337.97956 -289.94253,335.35383 C -293.36309,332.72809 -296.49861,333.16455 -296.49861,328.64361 C -296.49861,324.12268 -295.07337,319.59941 -296.35494,317.84892 C -297.63651,316.09843 -299.06403,312.4504 -293.21943,312.4504 C -287.37483,312.4504 -282.6727,313.47269 -277.25681,308.94942 C -271.84092,304.42615 -269.41689,306.32369 -265.85494,306.17665 C -262.293,306.0296 -260.58044,305.8849 -258.01502,303.55091 C -255.4496,301.21692 -251.31528,297.13244 -251.31528,297.13244 C -251.31528,297.13244 -252.45547,306.03194 -248.46481,306.17665 C -244.47416,306.32135 -241.62369,309.38588 -239.05827,311.86691 C -236.49285,314.34794 -237.48937,320.91111 -233.92743,320.47466 C -230.36549,320.0382 -226.37255,315.36789 -226.37255,315.36789 C -226.37255,315.36789 -228.41577,321.54362 -228.2265,324.99559 C -228.06915,327.85706 -226.08751,331.70581 -226.08751,335.79028 C -226.08751,339.87476 -225.51741,349.06601 -215.54078,349.06601 C -215.54078,349.06601 -216.96601,354.02573 -224.23584,353.29753 C -224.23584,353.29753 -225.23465,355.04802 -223.80713,358.11254 C -222.37962,361.17707 -223.37842,371.97176 -213.54545,372.11647 C -213.54545,372.11647 -215.39939,378.82669 -223.66575,376.63974 C -223.66575,376.63974 -227.22997,392.5412 -217.39472,394.72815 C -217.39472,394.72815 -219.53371,402.02186 -225.80474,399.54316 C -225.80474,399.54316 -229.08392,410.4849 -221.81409,411.50485 C -221.81409,411.50485 -229.93906,420.6961 -235.35495,407.42037 C -240.77083,394.14465 -238.91917,420.40435 -233.07457,425.65582 C -233.07457,425.65582 -243.33625,427.98981 -247.18552,419.96556 L -246.75681,431.78254 C -246.75681,431.78254 -253.7416,430.90729 -255.73693,423.75829 C -257.73225,416.60928 -259.0161,421.56901 -260.15629,424.34178 C -261.29648,427.11456 -264.29061,429.59326 -269.1364,430.61554 C -269.1364,430.61554 -267.85255,421.57134 -267.85255,418.21507 C -267.85255,418.21507 -274.83734,430.76025 -287.09434,431.92725 C -287.09434,431.92725 -284.38526,428.13452 -284.95535,424.05004 C -284.95535,424.05004 -288.23453,424.78057 -291.37004,422.29955 C -294.50556,419.81852 -291.51371,416.75632 -290.65629,413.98355 C -289.79887,411.21077 -290.94133,404.35585 -290.94133,404.35585" fill="none" stroke="#000" stroke-width="3.02373648"/>
			<path d="M -282.6727,399.83024 C -282.6727,399.83024 -290.36896,403.18652 -293.21943,406.39575 C -296.06989,409.60499 -298.35027,414.42 -308.04186,412.37776 C -308.04186,412.37776 -304.47763,410.77198 -301.20074,405.22876 C -297.92384,399.68554 -292.22062,395.45402 -292.22062,395.45402 C -292.22062,395.45402 -300.81991,398.76128 -308.99049,407.31768 C -316.37662,415.05251 -323.62365,410.23516 -323.62365,410.23516 C -320.20309,409.26189 -318.10971,403.29855 -314.31288,400.12199 C -308.04186,394.87052 -312.79188,394.0933 -312.79188,394.0933 C -320.77318,392.92631 -320.20309,384.75735 -320.20309,384.75735 C -313.55124,388.84183 -301.77083,385.53457 -299.10963,383.00686 C -296.44844,380.47915 -289.41804,380.2831 -286.18676,376.58839 C -282.95547,372.89369 -279.15636,373.67091 -274.02552,373.28113 C -268.89468,372.89136 -265.66339,366.66894 -265.66339,366.66894 C -265.66339,366.66894 -264.14238,362.19469 -267.1844,362.77819 C -270.22642,363.36168 -275.7358,365.30589 -279.91573,363.5554 C -284.09565,361.80491 -287.32694,362.77585 -288.46713,364.33262 C -289.60732,365.88939 -290.7475,367.63988 -295.49752,367.05639 C -295.49752,367.05639 -292.83632,365.69334 -292.83632,361.41514 C -292.83632,357.13694 -293.78724,354.80295 -289.22649,354.99667 C -284.66575,355.19039 -268.70313,355.19039 -268.70313,355.19039 C -268.70313,355.19039 -265.29625,355.15772 -265.28257,352.27291 C -265.26661,348.96565 -268.32003,342.94862 -268.12848,333.2229" fill="none" stroke="#000" stroke-width="3.02373648"/>
			<path d="M -295.5112,381.01363 C -295.5112,381.01363 -316.32417,372.11881 -325.01468,349.16403 C -333.70518,326.20926 -353.30499,314.62335 -353.30499,314.62335 C -353.30499,314.62335 -359.36851,311.93459 -355.52836,302.00581 C -351.68821,292.07702 -355.72903,289.3906 -357.34582,290.62995 C -358.9626,291.8693 -360.98301,293.11098 -362.80275,292.28475 C -364.62249,291.45852 -366.43995,296.42058 -369.26761,293.31871 C -372.09527,290.21684 -372.70413,288.56204 -375.33112,291.66391 C -377.95811,294.76578 -381.19168,296.42291 -379.97853,297.86998 C -378.76537,299.31706 -381.19168,299.10933 -383.41277,297.66226 C -385.63385,296.21519 -388.8697,299.31706 -387.25292,301.38497 C -385.63613,303.45288 -388.4638,311.31142 -384.01935,310.48519 C -379.5749,309.65896 -374.92522,306.76014 -374.72454,310.69058 C -374.52387,314.62101 -368.2574,318.96457 -374.72454,319.37768 C -381.19168,319.7908 -384.42297,320.82475 -384.01935,324.33974 C -383.61572,327.85473 -380.38443,339.43831 -376.94791,333.02684 C -373.51139,326.61538 -366.64062,326.82077 -364.62021,332.61373 C -362.5998,338.40668 -359.77213,344.81815 -359.77213,344.81815 L -358.63879,342.93695 C -358.63879,342.93695 -356.4998,349.79421 -356.64346,354.17044 L -354.50447,352.8564 L -352.93557,365.84038 L -350.51154,363.35935 L -349.79778,379.26081 L -345.80713,375.75983 C -345.80713,375.75983 -345.37842,383.49233 -344.80832,386.11807 L -342.66933,384.51228 C -342.66933,384.51228 -341.95557,389.18026 -338.53501,393.84823 C -335.11445,398.51621 -322.14369,409.74969 -322.14369,409.74969" fill="none" stroke="#000" stroke-width="3.02373648"/>
			<path d="M -252.31636,514.04861 C -252.31636,514.04861 -255.73693,513.17336 -263.57685,515.7991 C -285.09902,523.82335 -277.11771,547.45498 -271.70182,551.24771 C -266.28593,555.04044 -258.73106,551.83121 -258.73106,551.83121 C -258.73106,551.83121 -263.26672,558.18899 -269.42145,558.24967 C -275.55337,558.31036 -276.47236,559.66874 -278.885,562.46719 C -280.97838,564.89454 -281.29763,566.82708 -281.29763,566.82708 C -287.24713,565.51071 -287.97001,558.68379 -287.97001,558.68379 C -288.0521,559.83678 -289.25614,562.05641 -291.58668,562.96199 C -293.91722,563.86758 -294.07913,567.1585 -294.07913,567.1585 C -300.35016,565.84447 -301.79819,559.42367 -305.09561,559.33965 C -308.39303,559.25562 -308.06922,564.60746 -308.06922,564.60746 C -311.92761,563.86758 -313.777,560.32926 -314.66178,558.43406 C -315.54657,556.53886 -317.47576,553.57936 -320.7709,554.65066 C -324.06604,555.72196 -324.30776,559.33965 -324.30776,559.33965 C -325.59389,558.92653 -327.76481,556.62522 -330.4967,551.68883 C -330.4967,551.68883 -332.13172,547.79107 -336.40743,548.18552 C -340.10847,548.52628 -340.82679,554.89573 -341.68193,558.98021 C -342.53707,563.06469 -345.5312,561.46124 -345.95763,559.419 C -346.38406,557.37676 -348.09662,555.18748 -349.94828,555.04277 C -351.79995,554.89807 -353.65389,555.62627 -353.22746,553.00053 C -352.80103,550.3748 -348.38167,549.35251 -344.5324,546.29032 C -340.68313,543.22813 -349.37819,544.39279 -354.50903,544.10104 C -359.63987,543.80929 -359.92492,547.16556 -363.2041,547.01852 C -366.48327,546.87148 -364.77299,539.28602 -364.91438,536.51558 C -365.05576,533.74513 -363.91557,533.1593 -363.06043,531.40881 C -362.20529,529.65832 -363.2041,526.59379 -362.63172,523.09281 C -362.05935,519.59183 -357.92731,521.77878 -356.21703,523.23985 C -354.50675,524.70093 -353.93666,521.63407 -353.93666,521.63407 C -354.93546,517.6943 -351.94133,516.3826 -350.23105,516.23556 C -348.52077,516.08852 -346.38178,516.67435 -345.81169,520.90353 C -345.24159,525.13272 -341.39232,527.46904 -338.40047,530.97002 C -335.40862,534.471 -321.43905,531.55352 -317.02197,531.70056 C -312.60488,531.8476 -306.19019,533.88984 -300.63064,534.03455 C -295.07109,534.17926 -297.92156,527.17729 -299.7755,525.4268 C -301.62945,523.67631 -301.77083,524.8433 -302.76963,513.75686 C -303.76844,502.67042 -314.74159,511.42287 -314.74159,511.42287 C -316.16683,507.77485 -315.45535,504.56562 -315.45535,504.56562 C -328.71116,514.19332 -332.70182,507.33839 -332.70182,507.33839 C -323.58032,508.06893 -315.99808,495.78982 -315.99808,495.78982 C -315.99808,495.78982 -322.60204,496.62306 -330.28006,494.94025 C -338.79726,493.07073 -335.72103,480.28281 -335.72103,480.28281 C -335.72103,480.28281 -329.46825,492.34486 -318.16444,488.89756 C -328.50593,476.83551 -313.11569,471.91546 -313.11569,471.91546 C -313.11569,471.91546 -315.6241,474.34748 -314.77124,478.71203 C -314.47479,480.23613 -313.76559,481.99829 -312.39509,483.97518 C -307.10462,491.60732 -296.28197,485.20519 -290.26862,479.54527 C -284.25528,473.88535 -274.8761,473.63794 -269.58563,476.59044 C -264.29517,479.54293 -247.45917,478.80539 -247.45917,478.80539" fill="none" stroke="#000" stroke-width="3.02373648"/>
			<path d="M -281.67618,447.677 C -281.67618,447.677 -288.37591,445.48772 -293.07804,448.26049 C -296.30933,450.16503 -300.77431,453.51197 -300.77431,453.51197 C -300.77431,453.51197 -301.48806,448.9887 -305.33505,450.15569 C -305.33505,450.15569 -309.32571,452.19793 -312.03479,450.15569 C -314.74388,448.11345 -319.16096,448.9887 -316.31049,455.26246 C -316.31049,455.26246 -322.01143,456.57649 -325.2906,449.42749 C -325.2906,449.42749 -327.28593,454.09546 -325.14694,457.59644 C -325.14694,457.59644 -329.28126,459.20223 -331.56163,455.11542 C -331.56163,455.11542 -332.27539,459.34694 -330.84787,462.11738 C -330.84787,462.11738 -337.40395,463.28437 -340.68313,455.84362 C -340.68313,455.84362 -342.67845,458.90815 -341.39688,462.11738 C -341.39688,462.11738 -347.24148,461.97034 -349.23681,456.86591 C -349.23681,456.86591 -351.3758,459.93043 -350.37699,463.43141 C -350.37699,463.43141 -352.23094,464.01491 -353.51251,462.84792 C -353.51251,462.84792 -358.50197,460.65864 -360.06858,466.9324 C -361.6352,473.20616 -364.05924,474.22611 -366.33961,473.93436 C -368.61998,473.64261 -369.61879,472.91207 -369.47512,467.80764 C -369.33146,462.70321 -369.33146,457.15765 -372.61064,461.09743 C -375.88982,465.0372 -379.88047,465.18191 -379.88047,474.22611 C -379.88047,483.27031 -382.73094,485.16784 -384.01479,482.83386 C -385.29864,480.49987 -386.29516,479.76933 -388.00544,479.04113 C -389.71572,478.31292 -393.85004,477.29063 -390.71452,474.80961 C -387.57901,472.32858 -385.58368,470.43338 -385.58368,466.49361 C -385.58368,462.55383 -385.72735,460.65864 -388.7192,462.70088 C -391.71105,464.74312 -396.55912,465.91011 -398.8395,469.84988 C -401.11987,473.78965 -403.68529,474.22611 -405.82428,470.72513 C -407.96327,467.22414 -408.3897,467.95235 -409.9586,467.95235 C -411.5275,467.95235 -415.08944,462.70088 -408.24832,461.82563 C -401.4072,460.95039 -388.86514,454.09313 -392.57075,452.92613 C -396.27636,451.75914 -402.54738,454.67663 -402.54738,450.15336 C -402.54738,445.63009 -402.54738,445.63009 -402.54738,445.63009 C -402.54738,445.63009 -403.40252,438.48108 -398.27168,442.12911 C -393.14084,445.77713 -387.72495,449.13107 -377.74832,447.08883 C -367.77169,445.04659 -360.64552,438.77283 -351.23898,431.62616 C -351.23898,431.62616 -329.62331,414.55771 -322.02055,411.05673" fill="none" stroke="#000" stroke-width="3.02373648"/>
			<path d="M -234.35842,425.94057 C -234.35842,425.94057 -220.24747,444.17601 -216.11543,456.86591 C -211.9834,469.5558 -189.60609,489.83349 -168.93906,476.5601 C -148.27203,463.28671 -154.97177,427.69106 -173.07338,430.31679 C -191.17499,432.94253 -182.62358,446.51 -177.34908,446.65471 C -177.34908,446.65471 -188.18085,455.69891 -191.46003,441.98673 C -191.46003,441.98673 -204.14575,451.17798 -195.59435,461.38917 C -195.59435,461.38917 -216.97285,451.46973 -197.01958,434.40127 C -197.01958,434.40127 -207.70997,434.10952 -206.85483,420.39735 C -206.85483,420.39735 -198.58848,433.38132 -190.89222,426.37936 L -185.76138,420.83614 C -185.76138,420.83614 -198.73214,405.95696 -179.2053,399.24675 C -179.2053,399.24675 -186.47513,411.35548 -177.06631,416.45991 C -167.77835,421.50132 -160.71603,421.84909 -154.77566,431.82455 C -154.69813,431.95292 -154.62287,432.08362 -154.54762,432.21433 C -154.54762,432.21433 -156.99446,409.4346 -168.94362,397.20451 C -182.91091,382.90883 -203.43427,368.9049 -205.28822,341.04176 C -207.66437,305.33408 -200.0616,287.50474 -172.745,287.50474 C -158.8256,287.50474 -156.40157,274.27803 -156.40157,274.27803 C -148.23099,281.86349 -157.73102,291.78294 -157.73102,291.78294 C -150.70063,291.78294 -147.46934,299.9519 -144.23805,306.17665 C -141.00676,312.40139 -128.08617,304.61988 -128.08617,304.61988 C -128.08617,316.48354 -136.25675,317.26309 -136.25675,317.26309 C -136.25675,320.57035 -137.39693,322.70828 -138.91794,329.51652 C -140.43895,336.32477 -133.40628,341.38019 -133.40628,341.38019 C -143.85723,348.96565 -149.17962,333.21123 -149.17962,333.21123 C -149.93899,338.26898 -152.41091,339.62969 -154.88056,345.65838 C -157.3502,351.68708 -152.78945,357.32832 -152.78945,357.32832 C -152.78945,357.32832 -164.00205,356.74483 -169.13289,350.52008 C -174.26373,344.29534 -172.55345,334.95938 -170.08381,331.84818 C -167.61416,328.73697 -168.48983,326.65739 -168.48983,326.65739 C -170.7702,327.82438 -173.88291,327.37392 -173.88291,327.37392 C -173.88291,327.37392 -173.50209,311.22973 -170.27308,304.81126 C -167.04407,298.3928 -171.03244,297.61558 -171.03244,297.61558 C -206.37824,292.55783 -196.30583,346.62932 -196.30583,346.62932 C -190.22407,381.63914 -142.14695,381.63914 -142.52549,445.04659 C -142.90403,514.67645 -211.9834,486.62192 -211.9834,486.62192 C -215.59323,511.93402 -205.39996,515.5517 -205.39996,515.5517 C -198.3308,518.74693 -190.31984,511.85933 -185.7591,506.8996 C -181.19835,501.93988 -179.62945,502.95983 -179.62945,502.95983 C -180.34321,509.52534 -175.48373,513.38342 -174.21357,515.79677 C -173.21476,517.6943 -174.64228,518.47152 -173.97641,522.36227 C -173.31054,526.25303 -168.0862,530.33518 -168.0862,530.33518 C -165.61656,532.57114 -161.53013,532.37742 -161.53013,532.37742 C -161.53013,532.37742 -166.4717,536.3662 -171.31749,536.65795 C -176.16328,536.9497 -178.25439,539.96288 -178.25439,539.96288 C -178.25439,539.96288 -173.78942,539.18566 -170.93895,541.03418 C -168.08848,542.8827 -165.14224,542.10314 -165.14224,542.10314 C -165.14224,542.10314 -167.51839,546.47937 -171.41327,546.86915 C -175.30814,547.25892 -178.35016,550.2721 -178.35016,550.2721 C -175.78474,550.46582 -173.97869,551.92457 -172.55345,553.67506 C -171.12822,555.42555 -167.23334,555.6216 -167.23334,555.6216 C -167.23334,555.6216 -171.79409,560.28958 -175.97401,560.28958 C -180.15394,560.28958 -181.57917,561.65029 -181.57917,561.65029 C -181.57917,561.65029 -180.43899,561.5546 -177.49274,564.08231 C -174.5465,566.61002 -171.03244,565.15127 -171.03244,565.15127 C -173.02777,571.08427 -182.24504,572.64104 -185.09551,573.12651 C -187.94598,573.61198 -188.04175,574.58525 -188.04175,574.58525 C -188.04175,574.58525 -185.28706,574.19548 -183.481,577.21099 C -181.67495,580.2265 -177.39925,581.10175 -177.39925,581.10175 C -179.10953,582.99928 -184.62119,583.92121 -190.03708,584.36 C -195.45297,584.79879 -194.59783,588.29977 -194.59783,591.21725 C -194.59783,594.13474 -194.16912,594.71823 -189.89341,594.71823 C -185.61771,594.71823 -185.33267,597.05222 -185.47405,600.11675 C -185.61543,603.18127 -187.75442,603.61773 -190.46351,604.20123 C -193.17259,604.78472 -194.16912,605.65997 -194.31278,609.01624 C -194.45644,612.37252 -196.73682,611.93373 -198.4471,611.05848 C -200.15738,610.18324 -199.30224,602.45074 -199.58728,598.65801 C -199.87233,594.86527 -204.00665,596.46872 -206.4284,598.21922 C -208.85016,599.96971 -210.56272,600.4085 -210.41906,602.30369 C -210.2754,604.19889 -209.84897,611.49494 -211.41786,616.74641 C -212.98676,621.99788 -216.83375,617.62166 -216.97741,614.99592 C -217.12108,612.37018 -218.26126,611.20319 -221.82321,612.51489 C -225.38515,613.82659 -225.81386,610.61736 -229.09304,607.99162 C -232.37222,605.36589 -229.94818,605.51059 -228.80799,602.59311 C -227.66781,599.67562 -230.37689,599.38388 -229.94818,596.75814 C -229.51947,594.1324 -229.51947,590.92317 -231.51708,589.17268 C -233.51468,587.42219 -229.94818,586.83869 -228.52295,584.94116 C -227.09771,583.04363 -222.3933,584.94116 -219.97154,587.85864 C -217.54979,590.77613 -211.84657,583.04363 -210.70639,579.68969 C -209.5662,576.33574 -207.42721,571.37369 -205.00545,568.16445 C -202.58369,564.95522 -202.29637,562.03774 -203.7216,561.01545 C -205.14683,559.99316 -206.43069,557.80621 -206.43069,550.5125 C -206.43069,543.21879 -214.27061,552.26299 -218.1176,555.03577 C -221.96459,557.80855 -227.09771,557.80855 -230.08956,553.13824 C -233.08141,548.46793 -235.2204,551.24071 -235.2204,557.36976 C -235.2204,563.49881 -230.23095,568.16445 -230.23095,568.16445 C -236.93068,570.93723 -240.77767,562.91298 -240.77767,562.91298 C -245.05337,566.12221 -244.05685,573.70767 -244.05685,573.70767 C -248.04751,568.89266 -246.62227,558.8285 -246.62227,558.8285 C -252.03816,561.16249 -252.94119,568.55423 -252.94119,568.55423 C -253.70055,559.21828 -251.801,558.43873 -244.38979,548.90905 C -236.97857,539.37938 -248.56971,526.73617 -251.61173,519.92793 C -254.65375,513.11968 -250.85236,498.72831 -247.81035,483.36367 C -244.76833,467.99903 -262.06268,452.63205 -262.06268,452.63205" fill="none" stroke="#000" stroke-width="3.02373648"/>
		</g>
	</g>
	<g id="q2" transform="translate(500)">
		<rect width="500" height="250" fill="#a30000"/>
		<g id="leopard" transform="matrix(1.0436287,0,0,1,-525.31785,.7071028)">
			<g transform="matrix(2.3561542,0,0,1.239348,-1021.4251,-239.6061)" fill="#ff0" fill-rule="evenodd" stroke="#000" stroke-width=".67720532pt">
				<path d="M 832.62925,250.11373 C 832.62925,253.04294 833.28069,255.97232 833.60642,256.94873 C 833.93159,257.92521 834.09473,259.14568 834.09473,259.14568 C 834.09473,259.14568 835.23394,257.43701 835.23394,255.48412 C 835.23394,253.53123 834.90821,250.84599 834.90821,250.84599" fill="#0b216a"/>
				<path d="M 826.76952,250.11373 C 826.76952,250.35779 825.79235,251.57834 825.95548,253.77529 C 826.11807,255.97232 826.60638,257.68099 826.60638,257.43693 C 826.60638,257.19287 826.60638,255.23998 827.74614,254.01943 C 828.88535,252.79889 830.676,252.06662 830.676,252.06662" fill="#0b216a"/>
				<path d="M 825.62976,244.98741 C 821.88586,249.13725 823.18821,251.33428 823.18821,251.33428 C 823.18821,251.33428 823.35079,250.35779 824.65314,250.35779 C 825.95548,250.35779 828.39704,251.57834 828.39704,251.57834" fill="#0b216a"/>
				<path d="M 766.37663,253.77529 C 766.0509,257.68107 767.19011,260.12216 767.19011,260.12216 C 767.19011,260.12216 768.49246,258.90162 768.32987,255.72818 C 768.16673,252.55474 767.35325,250.84599 767.35325,250.84599" fill="#0b216a"/>
				<path d="M 760.51635,251.33428 C 760.35321,251.33428 759.05087,252.55474 758.07424,253.77529 C 757.09762,254.99583 757.26021,256.94873 757.26021,256.94873 C 757.26021,256.94873 760.19063,254.99575 761.16725,255.23998 C 762.14387,255.48412 762.63218,256.46044 762.63218,256.46044" fill="#0b216a"/>
				<path d="M 761.49297,245.23155 C 758.72569,244.011 756.7719,246.69624 756.93504,246.69624 C 757.09762,246.69624 759.70232,246.69624 760.19063,248.16084 C 760.67894,249.62545 761.98128,251.33428 761.98128,251.33428" fill="#0b216a"/>
				<path d="M 767.51584,242.30226 C 767.19011,242.30226 767.19011,240.34936 765.72518,240.10531 C 764.26025,239.86116 763.12049,241.32585 763.12049,241.32585 C 763.12049,241.32585 766.21349,244.25515 766.37663,244.25515 C 766.53921,244.25515 767.51584,242.79046 767.51584,242.30226 z" fill="#0b216a"/>
				<path d="M 670.19025,210.47816 C 670.92363,208.98071 670.21869,204.95616 669.85906,204.54594 C 669.93947,204.57142 671.1863,204.94682 671.97438,206.42178 C 672.91465,208.18158 672.5499,210.47816 672.5499,210.47816" fill="#0b216a"/>
				<path d="M 664.1472,209.70137 C 664.37742,205.47241 662.59329,204.35047 662.53572,204.35047 C 662.47815,204.35047 664.20477,203.57368 665.35581,204.35047 C 666.50685,205.12718 666.96729,209.01099 666.96729,209.01099" fill="#0b216a"/>
				<path d="M 659.19768,210.99597 C 658.07909,208.86159 657.42913,208.87097 656.37666,208.14412 C 657.08403,207.40573 657.5068,206.63218 658.85139,207.10842 C 660.28337,207.61562 661.72998,209.44246 661.72998,209.35614" fill="#0b216a"/>
				<path d="M 660.57894,219.45388 C 659.15544,220.90505 657.61401,219.95819 656.0898,220.31692 C 656.0898,220.31692 656.72289,217.29615 657.52863,216.951 C 658.33437,216.60577 659.7732,216.6921 659.7732,216.6921" fill="#0b216a"/>
				<path d="M 664.31078,238.39656 C 664.31078,236.44367 663.23649,235.34351 663.23649,235.34351 C 663.27949,235.35854 664.1926,234.49999 665.51551,235.83163 C 666.79814,237.12273 667.40367,240.34936 667.40367,240.34936 L 667.40367,240.34936" fill="#0b216a"/>
				<path d="M 659.60055,241.11646 C 658.98104,239.47607 657.00979,238.78116 656.15689,238.40359 C 657.83699,237.16602 659.62845,237.29908 661.32711,238.26835" fill="#0b216a"/>
				<path d="M 658.96746,245.51807 C 656.12248,245.46235 655.5259,246.69701 654.87933,248.49359 C 656.65243,247.93639 657.07778,248.93761 657.47106,249.57436 C 658.08546,250.56913 658.96746,249.57436 658.96746,249.57436" fill="#0b216a"/>
				<path d="M 660.57894,252.94028 C 658.74825,256.1202 659.22193,256.31097 659.31276,258.63641 C 661.02165,256.13504 661.94187,257.21849 662.59329,254.06222" fill="#0b216a"/>
				<path d="M 662.03181,244.98741 C 662.19462,244.98741 662.84574,237.17601 665.1247,237.66421 C 667.40367,238.15242 666.5898,238.1525 667.40367,238.64062 C 668.2176,239.12882 669.84544,244.49921 669.84544,244.49921" fill="#ffd128"/>
				<path d="M 826.44601,249.57627 C 826.10037,249.23104 823.4531,247.15964 824.83453,245.43356 C 826.2154,243.70757 834.38838,245.08833 834.38838,245.08833" fill="#ffd128"/>
				<path d="M 772.69148,249.05846 C 771.77072,248.54057 770.73492,248.368 769.58355,245.60622 C 768.43273,242.84444 769.12344,242.84444 768.66278,242.15398 C 768.20268,241.4636 767.28136,241.80891 765.66988,242.32664 C 764.0584,242.84444 764.51906,248.368 764.51906,248.368" fill="#ffd128"/>
				<path d="M 786.38906,226.61918 C 785.4683,227.13698 777.52592,232.83303 777.75598,235.94004 C 777.98658,239.04705 782.82102,240.77313 782.706,242.67187 C 782.59042,244.57061 778.10161,245.95145 773.95788,246.12403 C 769.81416,246.29669 768.66278,247.33238 766.24556,246.64192 C 763.82835,245.95145 760.26031,242.49921 759.56959,246.46926 C 758.87888,250.43931 759.79965,250.61189 759.79965,250.61189 C 759.79965,250.61189 759.22451,252.6832 759.79965,254.40936 C 760.37533,256.13544 760.95102,257.17114 762.44692,257.17114 C 763.94337,257.17114 764.40403,255.79021 764.40403,255.79021 C 764.40403,255.79021 764.63409,257.51629 767.28136,257.68895 C 769.92918,257.86152 770.73492,255.96278 770.84995,255.96278 C 770.96498,255.96278 773.15214,256.65333 774.18794,256.3081 C 775.22373,255.96278 776.60516,255.09983 776.60516,255.09983 C 776.60516,255.09983 775.45434,257.51629 775.56936,257.51629 C 775.68439,257.51629 777.87156,257.34363 780.1732,256.82582 C 782.47539,256.3081 784.2019,254.06413 784.08687,254.06413 C 783.97184,254.06413 782.13031,257.17106 785.00764,256.99848 C 787.88552,256.82582 789.26694,253.54624 791.33853,253.89147 C 793.41067,254.2367 794.56149,253.54624 794.56149,253.54624 C 794.56149,253.54624 795.13718,252.16539 795.82789,251.47493 C 796.5186,250.78446 797.32434,250.61189 797.32434,250.61189 C 797.32434,250.61189 799.05589,250.10465 799.16588,250.09408 C 800.96143,249.9215 799.54814,245.77888 799.16588,245.77888 C 799.16588,245.77888 796.17297,245.43365 796.17297,242.32664 C 796.17297,239.21971 804.23037,235.94004 804.23037,235.94004 z" fill="#ffd128"/>
				<path d="M 670.13262,224.54778 C 670.59306,210.39382 673.12536,216.26253 673.12536,213.1556 C 673.12536,210.04859 672.08941,207.97728 671.28367,207.97728 C 669.44202,207.97728 664.8378,213.84598 664.8378,213.84598" fill="#ffd128"/>
				<path d="M 702.24703,234.21396 C 701.09593,233.69707 683.25463,230.07225 677.26915,226.62 C 671.28367,223.16784 668.75136,217.64429 668.29093,214.88259 C 667.83049,212.12082 668.98158,207.63304 665.5284,207.63304 C 662.07523,207.63304 663.91692,212.12082 663.91692,212.12082 C 663.91692,212.12082 661.1544,204.87126 659.08248,209.01389 C 657.01062,213.15651 661.61484,216.26352 661.61484,216.26352 C 661.61484,216.26352 657.16038,213.48234 658.27674,217.98952 C 660.15312,225.5649 663.22632,222.82261 663.6867,224.54869 C 664.14714,226.27485 661.38462,228.00093 661.84506,228.34617 C 662.30544,228.6914 664.14714,229.89959 665.29818,230.24482 C 666.44928,230.59014 668.06071,231.10786 668.06071,231.10786 L 666.33414,233.17835 C 666.33414,233.17835 669.5571,236.63051 671.16858,237.49355 C 672.78006,238.35667 674.85198,237.49355 674.73684,237.49355 C 674.62176,237.49355 671.7441,239.39228 671.7441,239.39228 C 671.7441,239.39228 673.35558,240.77305 675.08215,241.11836 C 676.80876,241.4636 678.30511,241.63617 678.30511,241.63617 L 676.46346,242.84444 L 701.32621,250.26674 z" fill="#ffd128"/>
				<path d="M 703.85851,231.45218 C 703.28299,231.62484 692.69329,243.18976 681.52807,243.70757 C 670.36284,244.22529 664.03206,243.36225 664.03206,243.36225 C 664.03206,243.36225 662.42058,235.42215 659.65806,239.04705 C 656.89554,242.67187 659.08254,244.05272 659.08254,244.05272 C 659.08254,244.05272 659.54292,243.88014 660.23358,244.74318 C 660.92418,245.60622 661.38462,246.64192 661.38462,246.64192 C 661.38462,246.64192 657.70128,242.15398 657.70128,247.50488 C 657.70128,252.85586 660.11844,250.95712 660.00336,250.95712 C 659.88828,250.95712 659.42784,255.61764 660.00336,255.79021 C 660.57888,255.96278 662.88102,256.82582 664.14714,256.48068 C 666.1124,255.67749 667.11072,253.20217 668.88427,253.36694 C 669.22957,253.88475 666.10392,257.86152 666.56436,257.86152 C 667.0248,257.86152 670.82328,257.86152 671.97432,256.48068 C 673.12536,255.09983 673.66564,253.1186 673.81602,253.20109 C 675.32511,254.02892 673.01331,259.08304 672.75686,258.8543 C 672.55679,258.67585 676.46346,258.03418 677.49937,257.51629 C 678.53533,256.99848 680.38705,253.52943 680.38705,253.52943 C 681.54263,254.93769 679.4632,258.05368 679.11085,257.51629 C 678.92795,257.23735 681.41298,257.86152 683.36976,256.82582 C 685.32655,255.79021 687.31886,254.22998 687.31886,254.22998 L 685.55677,257.34372 C 688.91653,257.96151 690.79541,254.88121 692.80842,253.20109 C 692.67299,255.40885 691.65136,255.51299 691.31203,256.13544 C 690.48852,257.64602 694.65007,255.96287 696.03133,255.2724 C 697.41265,254.58194 699.23887,253.48314 699.23887,253.48314 C 699.82312,253.68657 698.78175,256.30162 697.74247,255.89969 C 697.63069,255.85646 699.59965,256.65325 702.36217,255.61764 C 705.12491,254.58194 707.08147,253.37366 707.08147,253.37366 C 707.08147,253.37366 703.85851,256.82582 704.54922,256.82582 C 705.23994,256.82582 709.38366,256.99848 711.45525,255.79021 C 713.52739,254.58194 713.98805,253.37366 713.98805,253.37366 C 713.98805,253.37366 720.66402,253.71898 722.04545,252.16539 C 723.42632,250.61189 723.08124,249.9215 722.96621,250.09408 C 722.85119,250.26674 725.63181,251.45362 729.18153,251.64758 C 747.36402,251.59672 764.33697,236.07105 782.24534,231.10703 C 788.4612,231.45218 789.61202,233.69615 791.45356,233.5235 C 793.29564,233.35092 794.33144,232.4878 794.33144,232.66046 C 794.33144,232.83311 803.42463,243.18976 815.74078,242.49929 C 828.05749,241.80883 825.64027,240.77313 827.59683,240.60056 C 829.55339,240.42798 831.85558,242.32664 831.62553,244.05272 C 831.39547,245.77888 830.35913,246.81449 829.09328,246.98715 C 827.82688,247.15973 826.44601,248.368 826.44601,250.09408 C 826.44601,251.82016 827.82688,254.2367 829.32333,254.2367 C 830.81979,254.2367 831.28045,253.37366 831.74055,253.20109 C 832.20121,253.02852 832.66132,255.09983 834.61843,254.2367 C 836.57499,253.37366 837.15068,252.51062 837.61079,252.33805 C 841.33067,250.66141 840.93237,252.29302 841.29441,246.12403 C 841.29441,246.12403 844.51737,245.77888 844.51737,244.74318 C 844.60274,241.53067 842.97808,239.73654 841.17938,238.52924 C 842.70826,239.63584 843.83554,239.66093 845.32311,238.70182 C 845.32311,238.70182 843.82665,236.1127 842.67583,235.24966 C 841.52446,234.38662 838.76216,233.5235 838.76216,233.5235 C 838.76216,233.5235 840.37364,233.17835 841.63949,232.14265 C 842.90589,231.10703 844.05671,229.7261 844.05671,229.55344 C 844.05671,229.38087 840.60369,226.4466 837.95642,226.79175 C 835.30915,227.13698 831.62553,230.41657 827.13617,230.41657 C 822.64736,230.41657 817.81292,226.96432 817.81292,226.96432 C 817.81292,226.96432 824.37387,226.96432 827.36677,226.79175 C 830.35913,226.61918 836.80505,224.54786 836.80505,218.16127 C 836.80505,211.77467 832.0039,209.71681 820.03283,209.37166 C 796.46595,209.37372 764.91883,216.77234 742.64647,208.71763 C 736.4263,203.92907 747.88568,201.71224 756.59843,201.71496 C 767.0853,201.71496 779.16019,202.7102 790.59985,202.70087 C 802.03952,202.69155 808.16287,201.69251 808.16287,201.61336 C 808.16287,201.09556 808.39293,200.40509 808.50795,200.40509 C 808.62298,200.40509 809.42872,202.4764 810.58009,202.64898 C 811.73091,202.82155 814.0331,202.30375 814.0331,202.30375 C 814.0331,202.30375 814.95387,203.85725 816.56535,203.68468 C 818.17683,203.51202 818.86754,202.30375 818.86754,202.30375 C 818.86754,202.30375 819.78831,203.51202 821.51482,203.33944 C 823.24188,203.16687 824.50772,200.9229 824.85336,200.9229 C 825.19844,200.9229 826.46484,201.26805 827.61566,200.57767 C 828.76648,199.88728 834.06158,194.70896 834.06158,194.70896 C 834.06158,194.70896 829.45719,195.91723 826.69489,195.91723 C 823.93204,195.91723 822.20553,194.36373 818.75252,194.88154 C 815.2995,195.39934 811.61588,196.95285 809.65932,196.78027 C 809.02464,196.7243 802.58698,197.63398 790.96066,197.57776 C 779.33434,197.52154 767.7397,196.44478 756.58958,196.44478 C 748.77023,197.45885 740.85386,195.86506 735.52072,204.07206 C 723.5529,223.84455 805.70986,215.30575 817.00718,213.32818 C 825.75529,213.67333 831.39547,214.36387 831.39547,218.16127 C 831.39547,221.95866 825.52469,222.13123 821.26593,221.95866 C 817.00718,221.78608 807.10825,220.06 799.85659,220.23258 C 792.60493,220.40515 745.98704,230.41657 737.58456,230.24391 C 729.18153,230.07134 724.00201,229.38087 724.00201,229.2083 C 724.00201,229.03572 703.85851,231.7975 703.85851,231.45218 z M 812.07654,199.54197 C 812.07654,199.54197 812.65168,201.26821 813.45742,201.9586 C 814.26316,202.64898 815.41453,203.51202 815.41453,203.51202 M 816.91098,200.05986 C 816.91098,200.05986 817.71672,200.23252 818.0618,200.9229 C 818.40744,201.61336 819.21318,202.4764 819.21318,202.4764 M 822.43614,199.19682 C 823.1263,199.19682 823.93204,201.26813 823.93204,201.26813" fill="#ffd128" stroke-linecap="round" stroke-linejoin="round"/>
				<path d="M 710.05767,199.48196 C 709.68606,199.48196 708.70094,203.51937 708.70094,203.51937 C 708.70094,203.51937 707.70432,199.7317 707.33271,199.7317 C 706.96111,199.7317 706.4704,204.62237 706.47039,204.62237 C 706.47039,204.62237 704.98237,202.29877 703.92941,202.66609 C 702.8764,203.03343 703.435,208.66465 703.435,208.90952 C 703.435,209.15437 700.95186,204.86335 700.14666,205.47564 C 699.34146,206.08785 699.65227,208.90646 699.65227,210.86579 C 699.65227,212.82511 700.33064,212.34186 700.33064,213.32154 C 700.33064,214.30117 699.65526,215.6383 698.9739,218.08735 C 698.29258,220.53649 698.59891,223.98175 698.53699,224.2267 C 698.47503,224.47155 699.70974,223.35262 699.70975,223.35262 C 699.84647,226.0517 699.40781,228.80704 698.0426,231.57312 C 698.06167,231.64854 699.46959,230.5231 700.49572,230.98775 C 700.00046,233.79825 698.54456,236.19106 695.97834,238.31372 C 695.97834,238.31372 696.45865,240.73685 697.6366,240.39016 C 698.81453,240.04339 700.49952,237.62223 700.49952,237.62223 C 700.49951,237.62223 698.60499,240.63693 698.01602,242.284 C 697.42705,243.93114 697.05022,246.71681 697.05022,246.71681 C 697.05022,246.71681 699.40262,246.62597 700.83295,244.19864 C 701.6601,242.79495 702.29553,241.59759 702.69557,240.78557 C 702.29823,241.80659 701.79221,243.41862 701.84476,244.71891 C 701.92924,246.79939 701.63021,248.5274 701.67229,248.5274 C 701.71427,248.5274 703.39864,247.0564 704.15579,245.84274 C 704.91331,244.62906 706.09889,241.86777 706.09889,241.86777 C 706.09889,241.86776 705.67419,245.42354 705.92643,247.07061 C 706.17908,248.71769 706.8538,251.04558 706.81176,251.04558 C 706.76973,251.04558 707.98586,249.91756 708.61689,247.40359 C 709.2479,244.88954 709.45622,242.90834 709.45622,242.90834 C 709.45623,242.90834 709.66849,246.37724 710.34153,247.5909 C 711.01458,248.80456 713.63467,249.59709 713.63467,249.59709 C 713.63466,249.59709 712.98889,248.02032 712.65257,245.593 C 712.31586,243.16575 712.44562,240.30691 712.44562,240.30691 C 712.44562,240.30691 713.20223,243.49808 713.91733,243.84484 C 714.6324,244.19155 715.21756,243.15129 715.72245,243.84484 C 716.22735,244.53831 716.91067,246.88678 716.95272,246.80006 C 716.99474,246.71342 718.37672,245.50198 717.61957,242.55455 C 716.86246,239.60708 715.34888,239.42532 714.54968,237.5182 C 713.68909,234.46444 714.35064,237.00962 714.97512,237.78872 C 715.98446,238.74225 716.56841,239.78316 717.999,239.86987 C 719.42918,239.95649 720.14907,241.42411 720.14907,242.63778 C 720.14906,243.85144 720.0226,244.63568 720.0226,244.63568 C 720.02261,244.63568 721.65527,244.10753 721.65527,240.63989 C 721.65526,237.17232 720.64505,235.79067 719.55118,235.27055 C 718.45733,234.75043 716.43826,233.79262 715.97541,232.75237 C 716.00633,232.67043 718.3094,234.16235 719.40641,234.00195 C 720.24803,233.56854 721.53026,233.30897 721.53026,233.30897 C 720.06602,232.43283 719.38519,231.89398 717.44711,230.59118 C 719.06864,229.67697 718.99951,228.70691 719.01968,228.70691 C 719.08155,228.70691 720.07652,219.61681 720.01467,218.02492 C 719.95279,216.433 719.66262,215.15112 719.60075,212.94692 C 719.53888,210.74281 720.70846,205.73662 719.53175,205.24671 C 718.35508,204.75691 716.56536,208.55573 716.56536,208.55573 C 716.56536,208.55573 716.00497,202.66123 715.32361,202.41637 C 714.64227,202.17142 714.15085,204.49751 714.15085,204.49751 C 714.15085,204.49751 713.59482,200.1063 712.85161,200.1063 C 712.10797,200.1063 711.54088,203.76911 711.54088,203.76911 C 711.54088,203.76911 710.42929,199.48196 710.05767,199.48196 z" fill="#ffd128" stroke-width=".59173641pt" stroke-linecap="round" stroke-linejoin="round"/>
				<path d="M 705.27157,237.22532 C 705.27157,237.22532 706.49207,235.2726 708.44587,235.15044 C 710.39911,235.02837 712.59678,237.71361 712.59678,237.71361" fill="#ffd128"/>
				<path d="M 707.23743,233.06987 C 708.47779,236.95556 708.1988,240.48219 708.18881,240.46971 C 708.00085,240.56258 709.65917,239.98082 710.91214,235.51911 C 714.25086,223.48465 705.74747,227.60335 707.23743,233.06987 z" fill="#0b216a"/>
				<path d="M 704.47127,228.0721 C 704.55311,228.19417 705.69232,231.85573 707.48298,231.36753 C 709.27363,230.87933 709.84324,228.0721 709.84324,228.0721 C 709.84324,228.0721 710.81986,231.73366 712.20349,231.36753 C 713.58713,231.0014 714.40117,227.70597 714.40117,227.70597" fill="#ffd128"/>
				<path d="M 700.63318,208.80896 C 700.63318,208.80896 701.04014,212.22654 701.85407,214.30141 C 702.66794,216.37629 703.31911,216.01 704.05174,216.37621 C 704.05174,214.91152 704.05174,214.30133 703.15636,212.34844 C 702.26109,210.39563 700.63318,209.05302 700.63318,208.80896 z" fill="#000" stroke="none"/>
				<path d="M 715.39962,216.46316 C 715.39962,216.34117 715.0739,213.90008 715.96923,211.70313 C 716.86456,209.50609 717.84118,209.01798 717.84118,209.01798 C 717.84118,209.01798 718.00376,210.97078 717.35287,212.92367 C 716.70197,214.87648 715.6435,216.82937 715.39962,216.46316 z" fill="#000" stroke="none"/>
				<ellipse cx="119.14111" cy="49.413345" rx="4.3417702" ry="3.3115389" transform="matrix(.487401,0,0,.718722,651.54071,190.95929)" fill="#000" stroke="none"/>
				<path d="M 836.11489,246.46926 C 836.11489,246.46926 835.76925,248.368 836.22991,249.40361 C 836.69002,250.43931 837.72637,252.51062 837.72637,252.51062" fill="none"/>
				<path d="M 833.00695,248.02277 C 833.00695,248.02277 831.28045,249.9215 831.39547,251.12978 C 831.5105,252.33805 831.97061,253.54624 831.97061,253.54624" fill="none"/>
				<path d="M 838.87719,244.05272 C 841.06435,244.74318 841.06435,246.46926 841.06435,246.46926" fill="#00004e"/>
				<path d="M 762.10184,249.23104 C 761.64118,249.40361 759.79965,250.78446 759.79965,250.78446" fill="#00004e"/>
				<path d="M 765.43982,251.82016 C 764.86414,252.16539 764.289,251.64758 764.0584,253.37366 C 763.82835,255.09983 764.40403,255.96278 764.40403,255.96278" fill="none"/>
				<path d="M 770.38929,252.51062 C 770.50432,252.51062 771.19503,253.37366 771.19503,254.2367 C 771.19503,255.09983 770.73492,256.13544 770.73492,256.13544" fill="none"/>
				<path d="M 660.9242,248.71317 C 660.80912,248.71317 660.00338,249.74886 660.00338,250.95714" fill="#00004e"/>
				<path d="M 794.60518,232.98603 C 793.46376,231.69143 792.42133,229.85448 792.42133,229.85448" fill="#ff0"/>
			</g>
			<g transform="matrix(.6828972,0,0,.6828972,1094.0022,-125.3968) matrix(.6643122,0,0,.6378151,-816.322325,98.946413)">
				<path d="M 232.14513,203.92378 C 227.79829,204.69161 224.78779,206.24777 222.53213,211.40545 C 221.85632,212.95072 227.88275,207.3174 228.5798,209.55963 C 228.86009,210.46125 228.57303,212.89272 229.74106,214.47785 C 231.06292,216.27174 232.31212,217.03125 235.00604,217.44929 C 240.83925,218.35447 244.09676,214.36537 244.89666,211.50306 C 244.25633,209.2425 243.46791,205.74892 238.66647,203.8045 C 237.30032,203.52153 233.63694,203.79101 232.14513,203.92378 z" fill="#000" stroke="none"/>
				<path d="M 272.25626,202.84759 C 276.6031,203.61542 279.6136,205.17158 281.86924,210.32925 C 282.54507,211.87453 276.51863,206.24121 275.82157,208.48344 C 275.5413,209.38506 275.82834,211.81653 274.66033,213.40166 C 273.33845,215.19555 272.08927,215.95506 269.39533,216.3731 C 263.56212,217.27828 260.30461,213.28918 259.50471,210.42687 C 260.14504,208.16631 260.93348,204.67273 265.73492,202.72831 C 267.10105,202.44534 270.76444,202.71482 272.25626,202.84759 z" fill="#000" stroke="none"/>
			</g>
		</g>
		<use xlink:href="#leopard" y="82"/>
		<use xlink:href="#leopard" y="164"/>
	</g>
	<g id="q3">
		<rect y="250" width="500" height="250" fill="#0b216a"/>
		<g fill="#ffdd28" stroke="#000" stroke-width="1.5">
			<path d="M 348.29059,290.93725 L 305.95046,471.08571 L 263.92612,487.36105 L 346.73816,273.01162 z"/>
			<path id="path2700" d="M 293.5053,470.41277 L 266.63192,480.72705" stroke-width="1"/>
			<use xlink:href="#path2700" x="13.18745" y="-87.07903"/>
			<use xlink:href="#path2700" x="1.255969" y="-8.293238"/>
			<use xlink:href="#path2700" x="1.883942" y="-12.43986"/>
			<use xlink:href="#path2700" x="2.511916" y="-16.58648"/>
			<use xlink:href="#path2700" x="3.139889" y="-20.7331"/>
			<use xlink:href="#path2700" x="3.767862" y="-24.87972"/>
			<use xlink:href="#path2700" x="4.395835" y="-29.02634"/>
			<use xlink:href="#path2700" x="5.023809" y="-33.17296"/>
			<use xlink:href="#path2700" x="5.651782" y="-37.31958"/>
			<use xlink:href="#path2700" x="6.279755" y="-41.4662"/>
			<use xlink:href="#path2700" x="6.907728" y="-45.61283"/>
			<use xlink:href="#path2700" x="7.535702" y="-49.75945"/>
			<use xlink:href="#path2700" x="8.163675" y="-53.90607"/>
			<use xlink:href="#path2700" x="8.791648" y="-58.05269"/>
			<use xlink:href="#path2700" x="9.419621" y="-62.19931"/>
			<use xlink:href="#path2700" x="10.04759" y="-66.34593"/>
			<use xlink:href="#path2700" x="10.67557" y="-70.49255"/>
			<use xlink:href="#path2700" x="11.30354" y="-74.63917"/>
			<use xlink:href="#path2700" x="11.93151" y="-78.78579"/>
			<use xlink:href="#path2700" x="12.55949" y="-82.93241"/>
			<use xlink:href="#path2700" x=".627996" y="-4.146619"/>
			<path d="M 333.03545,283.13971 L 237.11487,484.12824 L 263.92612,487.36105 L 346.73816,273.01162 z"/>
			<path d="M 278.875 295.875 C 276.8628 297.65972 274.84511 299.42574 272.84375 301.15625 L 307.3125 345.25 C 308.67595 346.99316 311.19435 347.30095 312.9375 345.9375 C 314.68065 344.57406 314.98845 342.05565 313.625 340.3125 z M 266.125 306.875 C 264.05971 308.60374 261.98899 310.30901 259.9375 311.96875 L 299.46875 362.53125 C 300.83221 364.2744 303.3506 364.5822 305.09375 363.21875 C 306.83691 361.8553 307.1447 359.3369 305.78125 357.59375 z M 253.03125 317.4375 C 250.89845 319.08919 248.77148 320.71743 246.65625 322.28125 L 291.625 379.8125 C 292.98846 381.55564 295.50685 381.86345 297.25 380.5 C 298.99316 379.13654 299.30095 376.61815 297.9375 374.875 z M 239.46875 327.40625 C 237.24945 328.95024 235.04045 330.47526 232.84375 331.90625 L 283.78125 397.0625 C 285.14471 398.80566 287.6631 399.11345 289.40625 397.75 C 291.14941 396.38656 291.4572 393.86815 290.09375 392.125 z M 225.3125 336.59375 C 222.94996 338.00164 220.61334 339.3381 218.28125 340.59375 L 275.9375 414.34375 C 277.30096 416.08689 279.81935 416.3947 281.5625 415.03125 C 283.30566 413.66779 283.61345 411.1494 282.25 409.40625 z M 210.21875 344.625 C 207.66416 345.81354 205.13688 346.89999 202.625 347.875 L 268.09375 431.625 C 269.4572 433.36816 271.9756 433.67595 273.71875 432.3125 C 275.4619 430.94906 275.7697 428.43065 274.40625 426.6875 z M 193.78125 350.90625 C 190.88312 351.73834 188.01839 352.37914 185.1875 352.875 L 260.25 448.90625 C 261.61345 450.6494 264.13185 450.9572 265.875 449.59375 C 267.61815 448.2303 267.92595 445.7119 266.5625 443.96875 z" fill="#fff" stroke-linecap="round"/>
			<path d="M 170.68006,355.72704 C 179.29138,369.52973 184.73255,365.36823 189.51928,357.49825 L 180.50222,341.39636 L 167.94274,346.06591 z"/>
			<path d="M 180.7889,347.23462 C 189.78612,364.05908 195.43072,365.23529 201.86854,357.89844 L 189.22075,341.77872 z"/>
			<path d="M 189.35826,347.27355 C 209.68808,370.3818 217.16525,363.72601 223.45402,354.31813 L 187.94934,333.46617 z"/>
			<path d="M 205.47575,345.84585 C 216.21967,355.99661 242.35461,367.38482 243.73022,345.08833 L 215.89157,333.53624 z"/>
			<path d="M 214.18716,342.81579 C 216.47769,347.22563 224.43187,347.09924 225.73925,351.14845" fill="none"/>
			<path d="M 217.3836,338.27259 C 227.46276,338.56105 254.88085,361.86063 256.81714,331.03479 L 227.1172,326.54236 z"/>
			<path d="M 199.22067,346.70998 L 206.26525,355.16347"/>
			<path d="M 186.2448,349.46658 C 188.36376,351.64622 190.74521,353.56335 190.95672,357.65044" fill="none"/>
			<path d="M 176.47674,348.15915 C 178.2271,350.94775 179.28241,354.01437 178.89203,357.65927" fill="none"/>
			<path d="M 210.54838,342.7707 C 208.68772,349.58713 200.57741,352.18682 192.1967,343.01869 C 193.68794,351.57599 179.42863,356.20355 178.80493,341.03473 C 180.61165,364.13451 163.87117,341.5228 162.6852,337.56279 L 161.69322,330.12292 L 203.60451,333.84285 z"/>
			<path d="M 201.37254,336.32281 C 211.37367,352.69982 222.55954,342.38343 227.4121,332.60287 L 210.30039,328.63494 z"/>
			<path d="M 231.85921,327.79026 C 258.13842,338.64645 267.7554,332.53495 268.54737,319.80372 L 234.10542,315.06171 z"/>
			<path d="M 226.86762,332.53226 C 229.91986,335.6655 233.03985,338.7852 239.34659,341.26754" fill="none"/>
			<path d="M 209.8044,331.36289 C 229.32561,340.78079 234.13644,331.17776 237.33193,322.43505 L 210.79638,316.23515 z"/>
			<path d="M 240.35295,317.59776 C 254.29332,325.53511 276.9459,327.30869 274.07837,307.86014 L 248.42805,303.82259 z"/>
			<path d="M 256.97816,317.12275 L 242.49048,311.66019"/>
			<path d="M 235.85247,322.54909 C 239.51297,325.09032 243.17347,326.56826 246.83397,327.79026" fill="none"/>
			<path d="M 218.98574,320.68932 C 235.68663,331.1416 243.60812,322.75693 246.29455,309.35359 L 220.53152,305.48914 z"/>
			<path d="M 250.00604,305.78702 C 286.97934,317.0596 309.16217,302.20604 314.56658,293.3 L 252.92853,294.09705 z"/>
			<path d="M 252.92853,301.8018 C 257.47417,304.30918 261.2915,303.9033 265.14987,303.66157" fill="none"/>
			<path d="M 223.65529,309.91716 C 247.23189,319.89746 251.24145,308.28653 256.74468,298.32379 L 222.68918,299.77296 z"/>
			<path d="M 256.24273,296.44509 C 291.00208,307.8202 336.4386,293.10692 348.76768,273.05684 L 349.53873,273.05684 L 262.15405,275.11295 z"/>
			<path d="M 292.48167,290.01975 C 282.93414,291.11452 273.95385,293.00342 261.12599,289.50572" fill="none"/>
			<path d="M 266.09183,285.38592 C 260.61355,295.0147 257.89409,307.18722 226.83541,301.68104 L 224.61335,286.12661 z"/>
			<path d="M 345.72478,275.70184 L 340.54027,290.02745 C 350.40276,302.15615 362.82008,290.22597 351.59146,282.25069 C 360.02142,273.1769 352.34282,269.50947 345.72478,275.70184 z"/>
			<path d="M 306.52274,266.884 C 329.91325,267.47487 349.23424,264.68403 371.00164,259.94012 C 375.59367,258.93934 377.37525,262.20726 373.23359,265.33421 C 346.13178,285.79605 279.11146,286.54232 269.74272,281.28128 L 273.16506,272.88099 z"/>
			<path d="M 225.26581,290.91253 C 247.49406,295.96286 269.42668,288.93314 277.14201,277.37197 L 263.42559,267.87598 L 224.2107,283.35092 z"/>
			<path d="M 226.49677,284.93358 C 230.83444,286.96014 235.69966,286.83123 240.03733,286.51624" fill="none"/>
			<path d="M 235.53849,297.9776 C 232.50006,297.60134 229.36153,297.62552 226.83541,295.20003" fill="none"/>
			<path d="M 225.82905,306.53576 C 230.51248,306.90333 231.73804,307.96247 233.31643,308.95104" fill="none"/>
			<path d="M 222.8502,318.11302 C 225.55004,319.80345 228.74112,320.02015 232.12489,319.6588" fill="none"/>
			<path d="M 214.51632,328.13895 C 217.90559,329.75963 221.29487,329.71942 224.68414,329.37893" fill="none"/>
			<path d="M 205.58847,335.08283 C 208.35883,336.48814 210.66886,337.89345 212.78035,339.29876" fill="none"/>
			<path d="M 182.52487,333.09886 C 184.79838,336.25042 184.84966,339.95754 184.50883,343.76268" fill="none"/>
			<path d="M 195.66864,337.31479 C 197.18166,340.2196 198.1783,343.22768 202.86052,345.49865" fill="none"/>
			<path d="M 171.86105,332.35488 L 175.08499,341.53072"/>
			<ellipse cx="252.06964" cy="465.33694" rx="11.88905" ry="10.107555" transform="matrix(.420986,-.907067,.907067,.420986,-276.14,498.9123)" stroke-linecap="square"/>
			<path d="M 129.92881,356.80127 C 129.92881,348.23666 122.8708,347.44981 122.8708,341.55333 C 122.8708,334.47915 128.52125,331.51871 134.80907,328.6034 C 138.91453,326.69993 142.8606,314.99289 146.59566,318.53569 C 146.59566,311.59048 146.64401,303.62645 140.51238,303.62645 C 133.87047,303.62645 135.38395,296.61817 138.00127,295.94474 C 135.91666,294.58071 136.78723,288.90883 132.35353,288.33256 C 142.82373,281.64818 135.4541,269.86066 143.4475,267.79781 C 140.46074,252.6519 160.31412,254.92425 164.15515,266.94487 C 174.06472,264.85774 178.04498,269.30851 183.15692,274.09842 L 189.38554,288.62419 L 180.63431,299.17055 C 179.65633,301.23676 178.16374,300.72989 176.59529,299.84372 C 174.50128,302.76324 171.8733,301.41096 169.1904,299.61933 C 167.19883,304.6426 167.06049,309.3784 168.71827,316.53046 C 178.19259,316.86405 183.79548,323.34742 191.36413,323.34742 C 201.02307,323.34742 213.83109,305.45931 211.62718,294.96655 C 206.91738,272.54325 231.19035,264.50982 254.0093,264.50982 C 275.91472,264.50982 289.81944,271.27994 311.49618,260.26702 C 308.48738,275.57124 289.58855,279.54487 269.22365,277.89049 C 258.26785,290.94831 227.06889,267.90501 227.06889,294.18561 C 228.79926,300.5601 230.22873,306.8343 225.07657,310.91461 C 226.60612,314.942 226.14966,318.7046 220.68741,321.79975 C 219.18125,326.4987 215.63442,330.03155 210.85567,332.86045 C 202.20527,341.2566 193.08682,339.40553 184.50921,335.68096 C 178.21,332.94571 172.45585,330.97344 166.68679,336.6624 C 181.59968,358.04571 164.00276,360.80765 172.35466,374.53405 C 181.05434,388.83203 192.87244,442.44749 246.30102,454.42252 C 254.45668,454.20873 255.85589,475.82995 237.91351,472.03101 C 148.83319,459.94409 129.92881,375.73038 129.92881,356.80127 z" stroke-linejoin="round"/>
			<path d="M 182.4425,272.66141 C 182.94571,278.35461 180.70695,283.63064 186.68534,288.10714 C 181.14909,288.90965 180.78234,294.23547 180.44586,299.58779 L 180.66324,299.42275 L 184.56392,300.44924 C 166.52382,317.54837 210.86964,306.8742 191.95469,289.36309 C 204.58837,276.88318 193.32607,267.39869 182.4425,272.66141 z"/>
			<path d="M 186.41161,279.71403 C 190.16427,284.72609 192.56535,290.2533 186.61691,296.34326" fill="none"/>
			<path d="M 177.94163,274.03881 C 178.25632,282.58822 178.81493,291.19862 176.81968,299.17055" fill="none"/>
			<path d="M 140.84002,303.67348 L 148.78631,303.67348"/>
			<path d="M 153.74087,270.45142 C 162.64176,266.47925 168.45917,271.75754 175.17249,274.34807" fill="none"/>
			<path d="M 154.62648,274.34807 C 161.11688,270.80299 166.99496,275.83048 173.04704,278.42185" fill="none"/>
			<path d="M 156.22056,296.84242 C 166.80601,295.27376 165.5093,284.11515 163.3054,283.9126 C 158.46098,283.46738 162.95116,287.76498 161.17995,290.99744 C 159.40874,294.22989 156.22056,296.84242 156.22056,296.84242 z" fill="none" stroke-linejoin="bevel"/>
			<path d="M 137.69458,295.88511 C 138.79302,295.9795 139.29035,296.22418 139.99715,296.41648" fill="none"/>
			<path d="M 164.56134,295.76762 C 165.81368,297.61133 167.258,298.97902 169.23862,299.73031" fill="none"/>
			<path d="M 143.46608,267.5804 C 162.71957,284.28636 152.21644,290.93627 153.15973,292.09964 C 154.0472,293.19417 156.48672,291.14237 157.6074,289.24857" fill="none"/>
			<path d="M 145.74147,276.2818 C 143.70569,276.21794 141.8957,276.99971 140.69851,278.10988" fill="none"/>
			<path d="M 141.0137,279.55972 C 143.37383,279.55972 144.59508,281.36446 146.11969,282.33335 C 144.55226,283.42107 143.24292,284.87012 140.88762,284.85483" fill="none" stroke-width="1"/>
			<ellipse cx="140.95065" cy="282.08121" rx="1.3868133" ry="2.1432569" transform="translate(.252148,.126128)" fill="#000" stroke="none"/>
			<path d="M 142.88525,323.5623 C 145.32884,322.74493 146.66525,320.73603 146.54294,318.28676" fill="none"/>
			<path d="M 168.62707,316.41024 C 164.33859,319.41394 162.07951,323.12352 161.26448,327.33538" fill="none"/>
			<path d="M 136.46079,334.23514 C 123.72164,352.47379 155.26788,363.6945 155.26788,345.16949" fill="none"/>
			<path d="M 141.40792,343.3555 C 141.25485,346.26069 142.46509,347.00811 144.33,347.00811" fill="none"/>
			<path d="M 293.66632,271.86838 C 301.94213,280.55399 311.89234,273.10274 324.77151,274.38358" fill="none"/>
			<path d="M 266.42721,274.06325 L 269.89782,277.88092"/>
			<path d="M 138.39577,385.51554 C 125.21069,398.60277 146.52309,409.71454 144.05452,421.95752 C 153.36718,415.70044 147.22186,405.23071 145.859,395.1485 C 150.31425,395.84777 150.17501,404.26004 151.26118,411.84616 C 151.87947,416.16445 154.94477,415.76879 157.71602,412.81455 C 161.92893,425.35021 174.05752,423.2706 167.22218,408.65396 C 175.35752,419.62635 173.76218,411.43546 170.348,403.32008 C 167.63532,396.87216 159.79635,393.09867 165.99441,390.97408 C 169.87028,389.6455 169.09239,413.41761 178.52974,409.02431 C 184.14562,406.40999 172.09031,394.07392 177.65218,393.24445 C 180.88169,392.76282 177.60607,414.1364 192.68728,408.16285 L 191.7783,405.12301 C 182.25241,401.98292 189.8154,380.38158 172.31441,380.37904 z"/>
			<path d="M 152.79018,386.60282 C 153.95212,388.29043 155.57938,391.83928 157.34428,395.93873 C 157.09684,392.29545 155.09659,388.65216 157.57199,385.00888 z" fill="#000"/>
			<path d="M 138.99556,386.27636 L 139.58328,391.85969" stroke-linecap="square"/>
			<path d="M 168.04642,382.95954 C 172.4419,383.70474 173.90407,385.0366 175.33299,386.37511" fill="none"/>
			<path d="M 173.75,373.375 C 172.97046,373.43478 172.23337,373.75382 171.65625,374.28125 C 164.97009,380.2648 154.59033,383.31712 136.34375,380.25 C 134.43664,379.93071 132.63179,381.21789 132.3125,383.125 C 131.99321,385.03211 133.28039,386.83696 135.1875,387.15625 C 154.65061,390.42786 167.761,387.15287 176.3125,379.5 C 177.44542,378.50855 177.8175,376.90375 177.23646,375.51491 C 176.65541,374.12607 175.25141,373.26433 173.75,373.375 z" stroke-linecap="round"/>
			<path d="M 141.86033,395.25562 C 138.51562,404.91024 148.511,401.81364 147.43636,418.31855" fill="none" stroke-linecap="round"/>
		</g>
	</g>
	<use xlink:href="#q1" x="500" y="250"/>
</svg>