<?xml version="1.0" encoding="UTF-8"?>
<svg version="1.0" xmlns="http://www.w3.org/2000/svg" width="450" height="300">
	<rect width="450" height="100" fill="#00247d"/>
	<rect y="100" width="450" height="100" fill="#cf142b"/>
	<rect y="200" width="450" height="100" fill="#6399ab"/>
	<path d="M 184.65882,116.94151 C 185.40457,118.47706 186.14264,120.02057 186.8884,121.55612 C 174.34893,126.49694 164.33119,114.32391 151.98392,115.2707 C 157.64244,120.46612 162.43989,118.11107 166.62996,125.06482 C 169.89745,130.49096 182.95972,134.50886 188.50292,136.43427 C 179.23094,133.63367 170.92767,136.08419 161.97859,138.74157 C 168.40594,148.48079 177.19356,132.71075 184.65882,141.60661 C 180.09971,140.445 178.00851,142.60909 179.12331,147.33509 C 177.65486,145.22669 176.17103,143.1342 174.66414,141.04967 C 174.38737,146.80203 167.74475,157.63045 178.58513,150.75627 C 175.21001,159.36491 157.98072,158.3306 150.90757,160.46287 C 153.78296,161.88703 178.35448,172.81889 163.05494,163.32711 C 166.43007,162.83382 176.50931,174.92729 178.70814,170.51158 C 182.17553,163.53397 193.29268,166.50164 188.50292,155.37088 C 203.98698,160.62199 209.36873,142.80004 216.48032,132.30498 C 218.9098,128.71673 222.11578,124.33284 222.46175,119.78984 C 222.85385,114.66603 211.24465,108.8182 213.41273,120.4502 C 206.60866,117.26772 191.73197,113.13843 184.65882,116.94151" fill="#f7e017"/>
	<path d="M 179.86517,105.27806 C 181.37033,110.52457 185.87493,109.98887 187.96984,107.74401 C 185.31411,106.01784 182.53175,106.79164 179.86517,105.27806" fill="#f7e017"/>
	<path d="M 138.29713,129.08544 C 142.18162,131.32381 146.19301,131.56326 150.29223,129.81423 C 148.77942,123.55722 144.02627,120.7046 138.29713,123.04706 C 140.88354,125.08762 143.47971,127.10736 146.10517,129.08544 C 143.49923,129.08544 140.90306,129.08544 138.29713,129.08544" fill="#f7e017"/>
	<path d="M 147.26519,150.98106 C 152.02475,149.85422 153.4961,147.76386 151.65692,144.71812 C 144.12187,137.02623 140.92282,152.83463 140.92282,138.64299 C 124.16959,140.48023 140.43237,148.87436 147.26519,150.98106" fill="#f7e017"/>
	<path d="M 211.64861,167.43301 C 217.82712,171.1376 222.40817,180.18982 229.98522,179.67831 C 226.87732,177.16724 225.1742,172.9899 226.87732,168.51804 C 231.44594,170.70359 235.77213,173.97417 240.73856,174.64068 C 240.8318,167.40976 234.82734,163.86017 230.42033,161.31035 C 235.87159,160.56634 239.35865,165.0692 244.28157,165.08469 C 247.65054,165.10019 249.62094,162.30238 253.23232,163.48041 C 253.05206,155.85422 241.36635,154.15694 238.06577,148.98755 C 244.46183,153.74618 251.77782,154.59094 259.01923,153.56791 C 263.59406,152.92464 270.20146,146.12773 263.55054,144.56994 C 270.32577,145.89522 277.46773,143.97318 283.68974,140.61657 C 281.88095,141.17458 266.36009,132.66487 264.48292,130.61883 C 269.16342,127.511 273.93715,131.44809 278.77926,129.99881 C 274.50901,125.87571 254.5998,110.84034 254.16469,128.37127 C 257.96876,128.93704 261.4869,131.44809 263.98566,135.03644 C 258.68357,135.24569 242.18684,122.17887 253.72958,123.87616 C 248.96829,113.18865 235.11948,113.98692 226.87732,114.97119 C 229.57498,119.67556 227.42432,123.97692 223.70727,126.12372 C 227.20055,126.44923 229.35743,128.83628 228.61775,133.4089 C 226.93948,132.35487 225.30473,131.22334 223.70727,129.99881 C 225.18663,136.31522 232.56478,137.315 232.22291,144.56994 C 224.90692,133.30814 210.61057,155.63721 216.12398,165.18545 C 214.6322,165.93722 213.14041,166.68124 211.64861,167.43301" fill="#f7e017"/>
	<path d="M 259.19444,188.48457 C 269.50143,181.25189 256.12043,176.06529 247.74223,177.04868 C 251.57972,180.87122 255.39713,184.67789 259.19444,188.48457" fill="#f7e017"/>
</svg>