<?xml version="1.0" encoding="utf-8"?>
<!DOCTYPE svg PUBLIC "-//W3C//DTD SVG 1.1//EN" "http://www.w3.org/Graphics/SVG/1.1/DTD/svg11.dtd">
<svg version="1.1" xmlns="http://www.w3.org/2000/svg" xmlns:xlink="http://www.w3.org/1999/xlink"
	 width="1040" height="650" viewBox="0 0 1040 650">
<rect fill="#FFFFFF" width="1040" height="650"/>
<rect x="910" fill="#CA0E43" width="65" height="650"/>
<rect x="780" fill="#CA0E43" width="65" height="650"/>
<rect x="650" fill="#CA0E43" width="65" height="650"/>
<rect x="520" fill="#CA0E43" width="65" height="650"/>
<rect x="390" y="325" fill="#CA0E43" width="65" height="325"/>
<rect x="260" y="325" fill="#CA0E43" width="65" height="325"/>
<rect x="130" y="325" fill="#CA0E43" width="65" height="325"/>
<rect y="325" fill="#CA0E43" width="65" height="325"/>
<g transform="scale(1.830985915493)">
	<g>
		<path fill="#FFFFFF" d="M485.013,178.839c0,22.82-18.498,41.317-41.319,41.317c-22.819,0-41.316-18.497-41.316-41.317
			c0-22.819,18.497-41.318,41.316-41.318C466.515,137.521,485.013,156.021,485.013,178.839"/>
		<path fill="#003162" d="M434.928,175.695v18.596c0.528,0.176,1.07,0.336,1.62,0.499c0.281,0.084,0.566,0.169,0.847,0.255v-19.35
			H434.928z"/>
		<path fill="#003162" d="M429.994,175.695v15.558c0.256,0.331,0.535,0.627,0.833,0.897c0.506,0.449,1.052,0.813,1.634,1.127
			v-17.582H429.994z"/>
		<path fill="#003162" d="M439.864,175.695v20.221c0.858,0.361,1.692,0.799,2.468,1.376v-21.597H439.864z"/>
		<path fill="#003162" d="M454.681,175.695v17.582c0.578-0.314,1.127-0.678,1.627-1.127c0.304-0.271,0.581-0.575,0.839-0.897
			v-15.558H454.681z"/>
		<path fill="#003162" d="M449.742,175.695v19.35c0.286-0.086,0.565-0.171,0.85-0.255c0.55-0.163,1.088-0.323,1.617-0.499v-18.596
			H449.742z"/>
		<path fill="#003162" d="M444.808,175.695v21.597c0.772-0.577,1.605-1.015,2.468-1.378v-20.219H444.808z"/>
		<path fill="#003162" d="M459.183,174.788c0-6.22,2.193-10.843,2.193-10.843h-35.61c0,0,2.192,4.623,2.192,10.843
			c0,0.313-0.008,0.617-0.021,0.907c-0.172,3.418-1.247,5.357-0.956,8.955c0.313,3.968,1.442,6.344,3.014,7.882
			c0.738,0.731,1.574,1.274,2.466,1.708c0.787,0.379,1.619,0.68,2.468,0.953c0.814,0.262,1.646,0.494,2.465,0.748
			c0.847,0.263,1.676,0.548,2.471,0.909c0.877,0.398,1.713,0.887,2.467,1.534c0.439,0.381,0.854,0.816,1.23,1.319l0.006,0.013
			l0.008-0.013c0.377-0.503,0.789-0.938,1.233-1.319c0.75-0.647,1.587-1.136,2.468-1.534c0.795-0.361,1.625-0.646,2.466-0.909
			c0.822-0.254,1.653-0.486,2.467-0.748c0.854-0.273,1.682-0.574,2.473-0.953c0.891-0.434,1.726-0.977,2.466-1.708
			c1.565-1.538,2.699-3.914,3.015-7.882c0.286-3.598-0.786-5.537-0.96-8.955C459.19,175.405,459.183,175.101,459.183,174.788
			 M459.308,184.583c-0.234,2.961-0.932,5.117-2.161,6.669c-0.258,0.326-0.535,0.626-0.839,0.897
			c-0.5,0.449-1.049,0.813-1.627,1.127c-0.771,0.412-1.604,0.732-2.473,1.016c-0.529,0.174-1.067,0.333-1.617,0.497
			c-0.285,0.083-0.563,0.168-0.85,0.255c-0.829,0.254-1.66,0.527-2.466,0.869c-0.862,0.363-1.693,0.801-2.468,1.377
			c-0.434,0.319-0.849,0.682-1.241,1.094c-0.392-0.412-0.803-0.774-1.236-1.094c-0.774-0.576-1.607-1.014-2.467-1.375
			c-0.808-0.344-1.639-0.617-2.471-0.871c-0.278-0.087-0.565-0.172-0.845-0.255c-0.55-0.164-1.093-0.323-1.62-0.497
			c-0.867-0.283-1.696-0.604-2.468-1.016c-0.582-0.314-1.129-0.678-1.634-1.127c-0.299-0.271-0.577-0.567-0.832-0.897
			c-1.232-1.552-1.927-3.708-2.163-6.669c-0.158-1.989,0.127-3.462,0.429-5.014c0.228-1.175,0.463-2.386,0.533-3.875h1.201h2.466
			h2.468h2.465h2.471h2.467h2.478h2.468h2.466h2.467h2.473h2.466h1.201c0.067,1.489,0.305,2.7,0.527,3.875
			C459.183,181.122,459.468,182.594,459.308,184.583"/>
		<path fill="#003162" d="M443.567,204.511c-14.307,0-25.942-11.642-25.942-25.95s11.636-25.944,25.942-25.944
			c14.31,0,25.947,11.636,25.947,25.944S457.876,204.511,443.567,204.511 M443.567,154.397c-13.324,0-24.164,10.842-24.164,24.164
			c0,13.326,10.84,24.169,24.164,24.169c13.327,0,24.167-10.843,24.167-24.169C467.734,165.24,456.894,154.397,443.567,154.397"/>
		<path fill="#003162" d="M499.5,195.994l5.863-2.936l-0.375-0.533c-0.892-1.261-2.365-3.154-4.332-5.016
			c-1.959-1.861-4.037-3.339-6.169-4.401c-1.907-0.944-3.874-1.559-5.853-1.838l-0.799-0.113l0.171,0.788
			c1.275,5.857,0.472,11.659-0.427,15.493c-0.318,1.393-0.72,2.809-1.185,4.208l-0.437,1.298l5.63-2.871l0.105,1.67
			c-0.099,0.728-0.596,3.27-2.799,5.462c-0.467,0.477-1.036,0.939-1.771,1.423c-1.7,0.9-3.003,1.01-3.723,0.269l-5.566-5.572
			c4.993-6.938,7.942-15.443,7.942-24.639c0-7.522-1.971-14.573-5.412-20.69l12.732,10.913l6.87-6.867l-15.782-15.323
			c0.346,0.048,0.692,0.075,1.05,0.085c2.791,0.101,5.456-0.951,7.436-2.926c3.917-3.919,3.917-10.291,0-14.208
			c-1.898-1.897-4.42-2.944-7.106-2.944c-2.678,0-5.199,1.046-7.099,2.944c-2.037,2.037-3.104,4.861-2.918,7.732
			c0.021,0.353,0.059,0.702,0.119,1.052l-16.044-15.583l-7.228,7.009l10.524,11.273c-5.806-3.002-12.392-4.71-19.382-4.71
			c-6.961,0-13.519,1.695-19.31,4.676l10.521-11.239l-7.223-7.009l-16.044,15.576c0.057-0.346,0.096-0.694,0.118-1.04
			c0.182-2.881-0.879-5.7-2.917-7.737c-1.9-1.897-4.421-2.944-7.103-2.944c-2.683,0-5.208,1.046-7.102,2.944
			c-3.918,3.917-3.918,10.289,0,14.208c1.89,1.892,4.404,2.935,7.081,2.935c0.114,0,0.234-0.005,0.354-0.009
			c0.347-0.01,0.697-0.038,1.039-0.085l-15.778,15.323l6.873,6.867l12.572-10.751c-3.386,6.081-5.321,13.076-5.321,20.528
			c0,9.222,2.965,17.746,7.981,24.696l-5.479,5.526c-0.669,0.706-1.921,0.655-3.73-0.29l-0.061-0.044
			c-0.615-0.401-1.187-0.867-1.695-1.376c-2.3-2.283-2.719-4.938-2.781-5.345l0.102-1.777l5.63,2.868l-0.433-1.298
			c-0.46-1.382-0.865-2.799-1.198-4.208c-0.898-3.839-1.698-9.636-0.424-15.493l0.169-0.788l-0.798,0.113
			c-1.982,0.279-3.948,0.898-5.842,1.838c-2.136,1.059-4.218,2.54-6.182,4.401c-1.529,1.446-2.982,3.133-4.327,5.007l-0.385,0.537
			l5.87,2.94c-0.21,0.956-0.677,3.24-0.703,4.536c-0.048,2.274,0.256,5.856,3.378,10.716c5.364,8.341,5.073,12.188,4.832,15.346
			l-0.048,0.644l0.648-0.041c2.83-0.191,8.169,0.09,15.033,3.632l0.116,0.116h0.113c4.071,1.823,8.176,2.75,12.2,2.75
			c2.392,0,4.078-0.34,4.822-0.527l3.583,5.88l0.503-0.403c2.746-2.221,8.722-8.914,9.647-15.422l0.11-0.771l-0.767,0.141
			c-1.38,0.252-3.095,0.378-5.098,0.378c-6.602,0-13.991-1.354-14.065-1.363l-1.266-0.238l0.693,1.088c0,0,1.577,2.486,2.713,4.325
			c-4.587-0.501-7.142-2.304-8.873-3.526l-0.448-0.313c-1.61-1.13-1.373-2.48-1.265-3.125c0.192-1.067,1.051-1.787,1.194-1.902
			l4.614-4.585c6.846,4.785,15.167,7.593,24.15,7.593c9.036,0,17.396-2.842,24.263-7.674l4.687,4.708
			c0.099,0.073,0.956,0.793,1.148,1.856c0.113,0.652,0.346,2.003-1.259,3.129l-0.46,0.319c-1.729,1.221-4.281,3.02-8.867,3.521
			c1.142-1.839,2.72-4.322,2.72-4.325l0.686-1.088l-1.266,0.238c-0.074,0.009-7.465,1.363-14.063,1.363
			c-2,0-3.716-0.126-5.098-0.378l-0.767-0.141l0.112,0.771c0.919,6.482,6.892,13.189,9.646,15.422l0.497,0.403l3.598-5.88
			c0.747,0.188,2.428,0.527,4.82,0.527c4.023,0,8.136-0.932,12.213-2.765l0.153-0.066c6.897-3.574,12.257-3.863,15.092-3.667
			l0.641-0.04l-0.048-0.643c-0.226-3.098-0.504-6.942,4.848-15.266c3.123-4.877,3.426-8.451,3.379-10.716
			C500.189,199.23,499.708,196.95,499.5,195.994 M481.136,136.202c0.127-0.991,0.567-1.893,1.269-2.589
			c0.845-0.849,1.97-1.311,3.16-1.311c1.198,0,2.322,0.462,3.167,1.306c1.732,1.745,1.732,4.586,0.003,6.328
			c-0.563,0.549-1.266,0.955-2.021,1.16c-0.29,0.075-0.593,0.122-0.9,0.138c0.022-0.407-0.014-0.829-0.12-1.244
			c-0.175-0.68-0.531-1.298-1.03-1.782c-0.616-0.624-1.412-1.019-2.308-1.125c-0.16-0.02-0.322-0.029-0.481-0.029
			c-0.257,0-0.512,0.024-0.76,0.072C481.088,136.809,481.095,136.502,481.136,136.202 M404.794,137.083
			c-0.89,0.107-1.688,0.496-2.319,1.125c-0.493,0.494-0.846,1.109-1.021,1.779c-0.108,0.399-0.149,0.82-0.125,1.247
			c-0.303-0.016-0.603-0.063-0.895-0.138c-0.757-0.205-1.453-0.611-2.016-1.156c-1.734-1.746-1.734-4.587,0-6.327
			c0.843-0.849,1.965-1.311,3.163-1.311s2.316,0.462,3.161,1.311c0.704,0.7,1.142,1.598,1.268,2.587
			c0.037,0.313,0.045,0.623,0.021,0.925C405.627,137.047,405.209,137.031,404.794,137.083 M402.996,178.685
			c0-22.358,18.186-40.548,40.543-40.548c22.354,0,40.542,18.19,40.542,40.548c0,22.35-18.188,40.538-40.542,40.538
			C421.181,219.223,402.996,201.035,402.996,178.685"/>
		<path fill="#003162" d="M423.886,208.253l2.161-3.005c0.193-0.274,0.371-0.573,0.355-0.902c-0.022-0.442-0.32-0.857-0.729-1.15
			c-1.059-0.76-1.72-0.141-2.079,0.364l-2.128,2.957l-1.625-1.17l2.104-2.929c0.402-0.559,0.932-1.104,1.574-1.207
			c1.018-0.181,2.18,0.473,2.937,1.016c2.844,2.043,1.788,3.535,1.193,4.36l-2.077,2.877L423.886,208.253z"/>
		<polygon fill="#003162" points="418.268,203.893 416.465,201.705 418.458,196.818 414.888,199.787 413.745,198.399 
			418.554,194.44 420.318,196.581 418.208,201.63 421.928,198.538 423.079,199.931 		"/>
		
			<rect x="414.027" y="191.174" transform="matrix(0.4863 0.8738 -0.8738 0.4863 383.0142 -262.8922)" fill="#003162" width="2.117" height="6.232"/>
		<polygon fill="#003162" points="411.595,191.391 412.381,193.512 411.224,193.942 408.913,187.71 410.073,187.282 
			410.874,189.449 415.558,187.71 416.279,189.654 		"/>
		<polygon fill="#003162" points="408.805,187.016 407.872,181.528 409.044,181.331 409.637,184.811 410.914,184.594 
			410.356,181.316 411.533,181.115 412.089,184.395 413.396,184.173 412.792,180.609 413.982,180.41 414.928,185.976 		"/>
		<path fill="#003162" d="M407.672,179.565l0.204-3.125c0.057-0.879,0.209-2.044,0.697-2.784c0.701-1.056,1.745-1.286,2.671-1.226
			c1.376,0.09,2.358,0.677,2.753,2.207c0.191,0.772,0.132,1.673,0.099,2.186l-0.205,3.147L407.672,179.565z M412.832,177.792
			l0.056-0.879c0.08-1.365-0.356-2.27-1.799-2.363c-1.888-0.119-1.997,1.559-2.038,2.186l-0.063,0.808L412.832,177.792z"/>
		<path fill="#003162" d="M413.777,168.097c0.237,0.08,0.91,0.322,1.354-0.817c0.064-0.162,0.399-1.025-0.26-1.279
			c-0.273-0.109-0.511-0.046-0.793,0.374l-1.031,1.547c-0.292,0.438-1.049,1.564-2.26,1.091c-0.94-0.365-1.487-1.55-0.681-3.618
			c1.05-2.696,2.327-2.331,2.949-2.098l-0.759,1.941c-0.177-0.069-0.802-0.324-1.161,0.594c-0.213,0.557-0.086,1.013,0.26,1.147
			c0.428,0.167,0.693-0.21,0.867-0.464l0.784-1.181c0.561-0.84,1.228-1.837,2.459-1.356c1.291,0.504,1.357,2.05,0.679,3.785
			c-0.278,0.716-0.827,1.837-1.669,2.233c-0.663,0.326-1.239,0.114-1.489,0.023L413.777,168.097z"/>
		<polygon fill="#003162" points="413.806,160.895 412.606,162.806 411.559,162.15 415.093,156.524 416.139,157.181 
			414.911,159.136 419.141,161.796 418.035,163.551 		"/>
		<path fill="#003162" d="M417.437,153.957l1.771-1.768l6.474,2.342l-1.641,1.639l-1.248-0.522l-2.103,2.095l0.531,1.242
			l-1.457,1.452L417.437,153.957z M421.647,155.169l-2.523-1.175l-0.018,0.023l1.114,2.573L421.647,155.169z"/>
		<polygon fill="#003162" points="424.383,149.673 422.467,150.869 421.815,149.821 427.452,146.305 428.104,147.354 
			426.142,148.576 428.791,152.816 427.028,153.915 		"/>
		<polygon fill="#003162" points="428.668,145.8 433.886,143.875 434.3,144.991 430.986,146.214 431.432,147.429 434.555,146.279 
			434.966,147.396 431.846,148.545 432.304,149.792 435.697,148.543 436.114,149.675 430.815,151.629 		"/>
		<path fill="#003162" d="M437.966,147.36c0.045,0.247,0.164,0.952,1.375,0.781c0.173-0.024,1.088-0.156,0.986-0.854
			c-0.04-0.292-0.21-0.469-0.712-0.51l-1.856-0.137c-0.521-0.039-1.877-0.141-2.063-1.432c-0.143-0.999,0.62-2.059,2.818-2.371
			c2.866-0.409,3.175,0.882,3.275,1.538l-2.063,0.294c-0.025-0.188-0.11-0.857-1.087-0.716c-0.588,0.083-0.927,0.417-0.875,0.786
			c0.066,0.453,0.531,0.5,0.834,0.526l1.414,0.104c1.007,0.073,2.203,0.164,2.391,1.472c0.192,1.375-1.12,2.189-2.961,2.453
			c-0.766,0.108-2.008,0.18-2.769-0.355c-0.609-0.42-0.709-1.025-0.754-1.289L437.966,147.36z"/>
		<path fill="#003162" d="M450.64,145.3c0.016-0.637-0.463-0.955-1.041-1.052c-1.225-0.208-1.76,0.673-1.953,1.794
			c-0.063,0.375-0.315,1.923,1.255,2.19c1.071,0.182,1.292-0.452,1.375-0.685l2.105,0.359c-0.336,1.923-2.692,1.688-3.644,1.525
			c-0.709-0.12-1.945-0.436-2.633-1.291c-0.679-0.85-0.656-1.852-0.548-2.49c0.145-0.843,0.522-1.646,1.322-2.183
			c0.871-0.588,1.861-0.611,2.928-0.43c1.184,0.202,2.044,0.594,2.534,1.204c0.495,0.627,0.411,1.181,0.385,1.411L450.64,145.3z"/>
		<path fill="#003162" d="M455.324,145.223c1.18-0.34,2.501,0.178,2.999,0.401c2.697,1.214,2.695,3.171,2.071,4.556
			c-1.017,2.268-3.24,2.101-4.853,1.376c-1.798-0.808-3.101-2.395-2.148-4.514C453.562,146.665,454.147,145.565,455.324,145.223
			 M456.082,150.409c1.34,0.601,2.03-0.334,2.385-1.123c0.357-0.796,0.31-1.292,0.217-1.635c-0.132-0.437-0.528-0.729-0.942-0.913
			c-1.233-0.558-1.974,0.188-2.412,1.162C454.919,148.808,454.835,149.848,456.082,150.409"/>
		<path fill="#003162" d="M465.319,149.968l1.935,1.589l-1.69,6.674l-1.796-1.474l0.397-1.293l-2.291-1.882l-1.182,0.646
			l-1.59-1.302L465.319,149.968z M464.53,154.28l0.92-2.628l-0.023-0.02L462.973,153L464.53,154.28z"/>
		<path fill="#003162" d="M468.404,158.932c-0.197,0.156-0.768,0.592-0.049,1.584c0.099,0.141,0.642,0.888,1.214,0.477
			c0.242-0.175,0.316-0.408,0.117-0.872l-0.74-1.707c-0.209-0.48-0.75-1.728,0.308-2.49c0.818-0.59,2.11-0.408,3.408,1.39
			c1.694,2.348,0.697,3.222,0.165,3.617l-1.22-1.69c0.153-0.11,0.704-0.496,0.127-1.295c-0.349-0.483-0.801-0.625-1.104-0.407
			c-0.369,0.267-0.196,0.7-0.077,0.981l0.566,1.3c0.402,0.927,0.88,2.028-0.192,2.8c-1.125,0.812-2.46,0.027-3.547-1.48
			c-0.452-0.624-1.097-1.691-0.978-2.616c0.089-0.733,0.581-1.099,0.791-1.266L468.404,158.932z"/>
		<polygon fill="#003162" points="474.771,163.561 473.865,161.49 474.996,160.995 477.656,167.083 476.528,167.579 475.602,165.46 
			471.024,167.462 470.192,165.561 		"/>
		<path fill="#003162" d="M477.359,175.287c0.625-0.2,0.725-0.825,0.647-1.385c-0.189-1.394-1.287-1.762-2.319-1.619
			c-1.445,0.197-1.923,1.226-1.755,2.454c0.054,0.38,0.146,0.751,0.257,1.119l1.197-0.167l-0.215-1.555l1.172-0.159l0.477,3.469
			l-3.3,0.45c-0.362-1.039-0.637-2.11-0.788-3.198c-0.107-0.794-0.157-1.905,0.265-2.836c0.467-1.016,1.38-1.573,2.361-1.708
			c0.746-0.103,1.816,0.021,2.606,0.761c0.812,0.782,1.115,2.045,1.236,2.928c0.159,1.153,0.083,2.128-0.352,2.789
			c-0.396,0.591-0.907,0.67-1.203,0.724L477.359,175.287z"/>
		<path fill="#003162" d="M479.137,181.278l-3.678-0.419c-0.336-0.039-0.682-0.047-0.961,0.128c-0.377,0.235-0.593,0.694-0.65,1.195
			c-0.147,1.296,0.717,1.569,1.332,1.645l3.618,0.411l-0.23,1.992l-3.582-0.412c-0.688-0.078-1.418-0.276-1.818-0.79
			c-0.656-0.797-0.651-2.129-0.545-3.058c0.396-3.479,2.218-3.279,3.229-3.165l3.521,0.415L479.137,181.278z"/>
		<path fill="#003162" d="M477.163,190.714l-0.945,2.319l-6.877,0.348l0.878-2.147l1.353-0.001l1.126-2.747l-0.971-0.938
			l0.778-1.902L477.163,190.714z M472.812,191.232l2.78,0.105l0.014-0.028l-2.032-1.941L472.812,191.232z"/>
		<path fill="#003162" d="M473.58,198.067l-2.118,2.704c-0.823,1.047-1.19,1.404-1.758,1.517c-0.291,0.062-0.739,0.075-1.27-0.341
			c-0.535-0.422-0.563-0.862-0.492-1.247c0.096-0.524,0.339-0.909,0.447-1.087l-0.023-0.019c-0.919,1.109-1.392,0.843-2.247,0.38
			c-0.375-0.202-0.967-0.536-1.424-0.67l1.375-1.754c0.374,0.137,0.78,0.388,1.258,0.672c0.649,0.392,0.884,0.538,1.455-0.191
			l0.535-0.678l-1.918-1.499l1.274-1.628L473.58,198.067z M470.197,198.044l-0.473,0.607c-0.28,0.354-0.417,0.531-0.486,0.701
			c-0.182,0.432,0.066,0.74,0.222,0.865c0.605,0.472,1.099-0.156,1.466-0.624l0.477-0.608L470.197,198.044z"/>
		<path fill="#003162" d="M467.389,205.293l-2.539,1.835c-0.716,0.518-1.708,1.138-2.593,1.232
			c-1.262,0.135-2.103-0.524-2.645-1.275c-0.808-1.118-0.976-2.249-0.05-3.525c0.475-0.641,1.208-1.17,1.622-1.47l2.557-1.847
			L467.389,205.293z M462.739,202.45l-0.719,0.518c-1.101,0.804-1.521,1.713-0.671,2.89c1.104,1.531,2.469,0.547,2.979,0.18
			l0.663-0.469L462.739,202.45z"/>
		<path fill="#003162" d="M433.091,206.064c-0.588,0.162-1.02,0.232-1.472,0.243l-0.479,1.306c0.357-0.011,0.743-0.049,1.067-0.133
			l-1.622,4.413l1.984,0.729l2.189-5.945L433.091,206.064z"/>
		<polygon fill="#003162" points="435.621,207.092 441.579,208.077 441.371,209.334 437.731,213.835 435.323,213.436 
			439.239,208.996 435.412,208.363 		"/>
		<path fill="#003162" d="M444.018,212.708c0.029,0.356,0.428,0.61,1.037,0.581c1.161-0.056,1.265-0.864,1.233-1.996
			c-0.358,0.373-0.824,0.689-1.742,0.732c-1.019,0.048-1.546-0.165-1.966-0.483c-0.455-0.353-0.733-0.851-0.76-1.426
			c-0.061-1.284,1.142-2.257,3.058-2.349c2.016-0.096,2.671,0.788,2.969,1.313c0.338,0.585,0.479,1.237,0.509,1.896
			c0.036,0.729-0.07,1.693-0.706,2.426c-0.676,0.784-1.651,0.986-2.595,1.029c-0.974,0.048-1.868-0.074-2.528-0.591
			c-0.433-0.344-0.488-0.771-0.521-1.033L444.018,212.708z M446.156,209.874c-0.02-0.419-0.303-0.991-1.231-0.946
			c-0.81,0.038-1.163,0.493-1.136,1.039c0.023,0.475,0.345,0.993,1.209,0.951C445.822,210.877,446.184,210.439,446.156,209.874"/>
		<path fill="#003162" d="M449.343,208.17c0.461-0.833,1.366-1.224,2.031-1.409c1.393-0.389,2.142-0.104,2.551,0.143
			c0.623,0.351,1.192,0.938,1.532,2.152c0.485,1.751,0.066,3.441-2.276,4.091c-0.845,0.236-1.748,0.258-2.444-0.117
			c-1.014-0.54-1.437-1.604-1.603-2.207C448.974,210.241,448.792,209.136,449.343,208.17 M452.849,211.991
			c0.327-0.092,0.617-0.314,0.711-0.589c0.188-0.563-0.096-1.573-0.131-1.705c-0.087-0.308-0.317-1.012-0.59-1.421
			c-0.133-0.199-0.414-0.557-1.091-0.372c-0.593,0.167-1.049,0.521-0.537,2.369C451.573,211.574,451.983,212.231,452.849,211.991"/>
	</g>
	<g>
		<path fill="none" d="M196.811,112.525c0.758-0.459,1.631-0.989,2.407-1.458l4.872-5.939l-1.626-0.229L196.811,112.525z"/>
		<path fill="none" d="M207.507,101.425l-0.857-2.172l-3.625,4.889C204.304,103.366,206.367,102.116,207.507,101.425z"/>
		<polygon fill="none" points="196.588,105.308 194.472,108.753 193.793,111.612 197.828,105.456 		"/>
		<path fill="none" d="M194.429,112.917c0.589-0.365,1.091-0.675,1.391-0.861l3.753-5.234l-0.484-0.813L194.429,112.917z"/>
		<path fill="none" d="M192.325,121.783c0.142-0.043,0.292-0.09,0.449-0.139l5.781-5.395l-0.42-1.65L192.325,121.783z"/>
		<path fill="none" d="M200.643,101.307l-0.823-1.258l-2.178,3.542C198.641,102.831,199.798,101.95,200.643,101.307z"/>
		<polygon fill="none" points="187.658,112.788 186.261,112.788 186.636,115.757 		"/>
		<path fill="none" d="M193.215,107.34l-0.542-0.6l-0.644,1.539C192.434,107.959,192.837,107.64,193.215,107.34z"/>
		<polygon fill="none" points="190.247,112.549 191.277,110.912 190.943,110.879 190.247,112.544 		"/>
		<path fill="none" d="M191.92,114.472l1.291-1.97l-0.524-0.842l-2.323,3.779C190.761,115.192,191.313,114.85,191.92,114.472z"/>
		<polygon fill="none" points="184.701,121.367 186.513,116.112 184.999,115.051 183.091,123.928 		"/>
		<path fill="none" d="M89.046,115.24c-0.038-0.981,0.038-1.583-0.263-1.433c-0.303,0.15-0.265,0.679-0.265,0.679
			c0,0.641-0.302,0.754,0.037,1.622c0.34,0.869,0.19,0.869,0.491,1.434c0.302,0.566,0.717,0.491,0.453-0.604
			C89.235,115.844,89.083,116.221,89.046,115.24z"/>
		<polygon fill="none" points="190.099,115.872 189.222,117.298 188.211,120.134 190.932,115.98 		"/>
		<polygon fill="none" points="194.925,115.07 194.079,117.33 196.842,113.962 195.85,113.823 		"/>
		<polygon fill="none" points="191.399,122.929 191.845,122.513 191.76,122.481 		"/>
		<path fill="none" d="M138.294,77.476c-0.086,2.005-1.776,4.036-2.196,5.579c-0.452,1.66,0.529,2.566,0.529,2.566l0.174,0.164
			c0.13-0.134,0.25-0.254,0.353-0.353c0.755-0.717,2.529-3.622,2.718-4.264c0.188-0.642,0.339-2.301-0.454-3.019
			C139.071,77.836,138.695,77.638,138.294,77.476z"/>
		<path fill="#003162" d="M213.75,43.739c-0.284-0.396-0.623-0.339-1.188-0.283c-0.567,0.057-1.868,0.907-3.85,2.038
			c-1.98,1.132-6.961,3.056-8.771,4.131c-1.812,1.075-4.151,1.434-4.151,1.434s-8.452,3.849-17.432,10.489
			c-8.981,6.641-13.207,12.225-13.584,15.47c-0.377,3.245,1.585,5.132,1.585,5.132s0.227,0.301,0.227,1.283
			c0,0.981,0.15,2.188,0.604,3.018c0.452,0.831,0.679,2.265,0.452,3.019c-0.226,0.754-2.037,2.038-3.169,2.792
			c-1.131,0.755-2.339,2.716-3.999,3.094c-0.168,0.038-0.326,0.056-0.476,0.064v-2.102h-3.154c-0.491-0.59-2.196-1.602-2.973-2.415
			c-0.83-0.868-1.963-1.962-2.227-3.169c-0.208-0.953-0.205-1.935-0.157-3.177c0.61,0.562,1.402,1.852,1.817,2.535
			c0.481,0.793,1.189,2.434,1.868,3.198c0.679,0.764,1.189,1.131,2.093,1.046c0.906-0.084,1.077-0.396,1.246-1.301
			c0.17-0.905,1.161-2.009,1.811-3c0.651-0.991,1.415-1.161,1.84-1.783c0.424-0.623,0.254-1.896-0.17-3.962
			c-0.425-2.065,1.103-3.339,1.528-4.471c0.423-1.132,0.141-2.405-0.481-3.141c-0.623-0.736-1.472-0.198-2.292,0.594
			c-0.82,0.792-0.906,0.934-0.906,0.934c1.189-0.057,0.822,0.538,0.595,1.386c-0.227,0.849-0.792,1.047-1.5,1.783
			c-0.707,0.736-1.245,1.585-1.472,2.462c-0.227,0.876-0.141,1.754,0.396,2.886c0.539,1.132,0.85,1.359,0.623,1.755
			c-0.226,0.396-0.538,0.198-1.189-0.368c-0.65-0.566-1.952-3-3.48-4.698c-0.979-1.086-1.91-1.663-2.528-1.967
			c-0.018-0.106-0.037-0.194-0.056-0.259c-0.188-0.641-0.604-1.094-0.943-2.264c-0.339-1.17-1.018-3.094-2.527-4.226
			c-1.51-1.132-3.472-0.679-4.037-0.754c-0.566-0.076-1.435-0.453-2.49-0.491c-1.057-0.038-1.736,0.227-2.34,0.378
			c-0.604,0.15-2.26-0.227-3.094-0.227c-1.019,0-2.792,0.075-3.849,2.226c-0.004,0.008-0.007,0.016-0.011,0.024
			c-2.44,0.006-4.5,1.3-5.12,4.504c-0.244,1.26-0.317,2.637-0.297,3.842c-1.374-0.203-2.006-3.732-2.08-4.144
			c-0.076-0.416-0.717-0.868-1.435-1.623c-0.434-0.457-0.521-0.843-0.523-1.078c0.333-0.103,0.73,0.149,1.071,0.36
			c0.316,0.196,0.741,0.185,1.187,0.021c0.001,0.011,0.001,0.017,0.001,0.017s0.013-0.012,0.032-0.03
			c0.102-0.04,0.205-0.084,0.308-0.139c0.365-0.195,0.807-0.686,0.984-0.976c0.426-0.333,0.929-0.689,1.469-1.006
			c1.546-0.905,2.189-1.924,1.887-3.32c-0.302-1.396-1.661-2.867-2.529-3.622c-0.867-0.755-7.281-6.15-9.848-8.113
			c0,0-5.47-3.622-8.187-4.49c-2.716-0.867-5.057-1.66-5.697-2.264c-0.643-0.604-0.831-0.604-0.831-0.604s0.879,3.139,1.02,4.113
			c0.188,1.319,0,2.113,0.415,2.98c0.382,0.798,8.905,4.453,11.471,6.49c2.566,2.038,6.83,5.547,8.113,7.509
			c0.964,1.478,1.268,2.697,1.358,3.21c-0.089,0.021-0.199,0.042-0.34,0.073c-0.623,0.132-0.567-0.679-2.321-0.773
			c-1.704-0.091-1.811,1.368-1.801,1.848c-0.01,0.346,0.086,0.723,0.349,1.114c1.622,2.414,1.396,3.244,1.472,6.037
			c0.075,2.792,1.056,4.15,2.904,3.773c1.413-0.289,2.032-1.766,2.246-2.447c0.704-1.11,3.603-3.628,3.603-3.628
			c0.227-0.716-0.271-2.685-0.378-3.641c-0.134-1.21,0.7-2.099,1.053-2.417c-0.098,1.258,0.481,2.048,0.646,2.021
			c0.227-0.038,0.263-0.038,0.452-0.717c0.19-0.679,0.943-0.641,0.943-0.641s0.461-0.106,0.987-0.193
			c0.006,0.729-0.037,2.602-0.609,3.325c-0.717,0.906-2.83,4.452-3.396,5.961c-0.566,1.509-0.679,4.49,1.359,6.037
			c0.025,0.019,0.046,0.036,0.07,0.053c-1.068,0.967-2.349,2.174-3.263,3.041h-3.782v2.04c-0.002-0.001-0.004-0.001-0.007-0.002
			c-1.188-0.396-3.092-2.038-3.885-2.604c-0.792-0.566-3.282-2.075-3.66-2.377c-0.377-0.302-0.566-1.056-0.491-1.321
			c0.077-0.264,1.094-2.113,1.058-3.584c-0.038-1.472-0.453-2.188-0.453-2.188s2.377-1.624,2.151-4.943
			c-0.227-3.321-3.396-8-6.981-11.396c-3.584-3.396-8.527-6.942-11.093-8.452c-2.565-1.51-6.225-3.434-7.772-4.113
			s-6.754-3.131-6.754-3.131l-0.513-0.214c-1.508-0.604-1.41,0.251-2.77-0.428c-1.358-0.679-3.32-1.358-5.81-2.566
			c-2.491-1.208-3.623-1.283-4.302-1.735c-0.68-0.453-1.584-0.981-2.039-1.283c-0.451-0.302-1.13-1.208-1.583-1.057
			c-0.454,0.15-0.907,0.831-0.53,1.962c0.378,1.132,1.284,3.848,5.208,6.339c3.923,2.49,4.604,2.867,6.112,3.546
			c0,0-1.056,0.454-0.981,1.434c0.076,0.981,0.831,3.169,2.869,4.754c2.037,1.585,4.753,3.018,4.753,3.018s-1.019,0.906-0.792,2.207
			c0.227,1.303,1.358,2.774,2.942,3.68c1.585,0.905,3.397,1.641,3.397,1.641s-1.133,1.415-0.736,2.49
			c0.396,1.075,1.924,2.603,3.961,3.283c0,0-0.961,1.019-1.019,1.98c-0.055,0.962,0.454,1.868,1.472,3c0,0-1.301,0.962-1.075,2.038
			c0.226,1.075,1.924,2.321,1.924,2.321s-2.49,0.566-1.924,2.433c0.566,1.868,2.377,3.226,2.377,3.226s-3.792,0.906-2.829,3.17
			c0.962,2.264,2.376,1.641,2.376,1.641s-0.962,1.472-0.17,2.716c0.793,1.245,2.151,1.529,3.17,1.358c0,0-0.99,1.812,0.142,2.972
			c1.132,1.161,3.311,0.566,3.311,0.566s-0.764,1.16,0.028,2.292c0.793,1.132,1.84,0.821,2.434,0.708c0,0-0.395,1.67,0.623,2.434
			c1.019,0.765,2.122,0.651,2.744,0.453c0,0-0.254,1.584,1.02,2.179c1.273,0.594,1.924,0.396,2.574,0.169
			c0,0-0.168,1.584,1.359,2.123c1.528,0.537,2.348-0.255,2.576-0.397c0,0,0.339,1.613,2.179,1.613c1.839,0,2.405-0.906,2.405-0.906
			s0.735,1.585,2.093,1.472c0.704-0.059,1.271-0.496,1.747-0.976V93.97h33.432v23.249c0.647,0.468,1.59,0.984,2.516,0.889
			c1.641-0.17,2.037-1.585,2.037-1.585s1.641,1.245,2.83,1.132c1.189-0.113,1.869-1.811,1.869-1.811s1.414,0.51,2.433,0.114
			c1.019-0.397,1.642-2.094,1.642-2.094s1.416,0.396,2.547-0.057c1.132-0.453,1.302-1.925,1.302-1.925s0.906,0.396,2.208-0.509
			c1.301-0.906,0.961-2.264,0.961-2.264s1.189-0.056,2.208-1.019c1.018-0.961,0.735-2.377,0.735-2.377
			c0.453,0.113,2.037,0.17,2.773-0.453c0.736-0.623,0.339-2.717,0.339-2.717c0.963,0,1.642-0.057,2.604-1.302
			c0.961-1.245-0.849-2.716-0.396-2.716c0.453,0,1.924-1.133,2.263-1.982c0.34-0.848-0.621-2.151-0.621-2.151s1.3-0.849,1.526-2.207
			c0.227-1.358-1.584-2.433-1.584-2.433s0.566-1.246,0.735-1.925c0.171-0.679-1.414-2.15-1.414-2.15s1.019-1.416,1.075-2.491
			c0.057-1.075-1.132-1.868-1.132-1.868s1.528-0.85,1.811-2.264c0.282-1.415-1.528-1.754-1.528-1.924s-0.226-0.283,0.34-0.51
			s2.999-1.584,3.679-3.226c0.678-1.641-2.095-1.924-1.132-2.321c0.962-0.396,4.074-2.433,4.923-4.245
			c0.849-1.811-1.923-2.716-1.923-2.716s4.449-1.82,6.997-4.14c2.547-2.321,1.888-3.841,1.775-4.688
			c-0.114-0.849-0.735-0.792-0.227-0.963c0.51-0.17,6-3.396,8.263-5.886C213.863,45.945,214.033,44.135,213.75,43.739z
			 M109.393,56.239l-0.285,0.553l-1.268-0.651l-0.417,0.809l1.443,0.741l-0.284,0.553l-1.975-1.016l1.605-3.122l1.913,0.983
			l-0.285,0.552l-1.38-0.709l-0.337,0.658L109.393,56.239z M111.598,58.353l-0.624-0.321l-0.579,1.126l-0.544-0.278l1.605-3.124
			l1.188,0.611c0.505,0.259,0.611,0.803,0.295,1.416C112.793,58.066,112.296,58.712,111.598,58.353z M114.251,60.486l-0.306,0.559
			l-1.814-0.989l1.679-3.083l0.538,0.292l-1.376,2.525L114.251,60.486z M115.136,61.884c-0.226-0.146-0.521-0.428-0.551-0.861
			c-0.016-0.267,0.085-0.538,0.27-0.838l1.262-1.957l0.523,0.337l-1.234,1.916c-0.265,0.411-0.183,0.721,0.056,0.875
			c0.353,0.228,0.629,0.115,0.859-0.243l1.253-1.944l0.525,0.337l-1.238,1.92C116.36,62.202,115.754,62.283,115.136,61.884z
			 M118.52,64.39l-0.525-0.427c0.073-0.155,0.168-0.311,0.397-0.591c0.301-0.373,0.4-0.533,0.049-0.817l-0.489-0.399l-0.868,1.067
			l-0.464-0.378l2.214-2.726l1.148,0.934c0.604,0.49,0.281,1.115,0.088,1.352c-0.244,0.299-0.58,0.455-0.877,0.363
			c0.106,0.25,0.139,0.417-0.274,0.925c-0.324,0.398-0.404,0.497-0.34,0.625L118.52,64.39z M118.796,64.629l2.26-2.688l0.467,0.394
			l-2.259,2.688L118.796,64.629z M121.479,66.524c-0.255,0.037-0.455,0.023-0.904-0.372l-0.931-0.818l2.32-2.637l1.067,0.939
			c0.54,0.474,0.322,0.999,0.082,1.271c-0.332,0.378-0.603,0.329-0.744,0.302c0.163,0.358,0.007,0.677-0.222,0.938
			C121.962,66.356,121.714,66.49,121.479,66.524z M122.523,68.083c-0.19-0.189-0.419-0.526-0.361-0.956
			c0.039-0.265,0.194-0.509,0.436-0.765l1.637-1.657l0.442,0.438l-1.601,1.621c-0.344,0.348-0.327,0.667-0.125,0.867
			c0.299,0.295,0.592,0.242,0.892-0.061l1.625-1.646l0.443,0.438l-1.605,1.624C123.657,68.646,123.048,68.602,122.523,68.083z
			 M124.429,70.225c-0.633-0.858-0.147-1.444,0.202-1.703l0.348,0.472c-0.155,0.12-0.405,0.405-0.088,0.834
			c0.171,0.233,0.43,0.443,0.729,0.222c0.221-0.162,0.15-0.383,0.037-0.685l-0.116-0.305c-0.176-0.458-0.343-0.9,0.278-1.359
			c0.314-0.232,0.974-0.5,1.537,0.263c0.532,0.722,0.107,1.333-0.235,1.591l-0.35-0.472c0.117-0.106,0.388-0.366,0.071-0.795
			c-0.138-0.187-0.385-0.349-0.641-0.16c-0.222,0.163-0.157,0.348-0.112,0.466l0.254,0.699c0.142,0.391,0.203,0.802-0.304,1.176
			C125.189,71.099,124.582,70.432,124.429,70.225z M139.872,81.168c-0.188,0.642-1.962,3.547-2.718,4.264
			c-0.103,0.099-0.223,0.219-0.353,0.353l-0.174-0.164c0,0-0.981-0.906-0.529-2.566c0.42-1.543,2.109-3.574,2.196-5.579
			c0.401,0.162,0.777,0.36,1.124,0.674C140.211,78.867,140.06,80.527,139.872,81.168z M143.969,73.172
			c-0.094,0.583-1.289,0.964-2.095,0.932c-0.601-0.024-1.152-0.639-1.173-0.986c-0.02-0.326,0.474-0.388,0.474-0.388
			s0.151,0.929,0.861,0.729c0.776-0.216,0.28-0.869,0.28-0.869s2.646-0.243,2.701-0.07C145.07,72.691,144.086,72.436,143.969,73.172
			z"/>
		<path fill="#003162" d="M125.732,124.484v-5.917c-1.358,0.766-3.345,2.051-4.199,3.427c-1.358,2.188-1.564,2.34-2.188,3.019
			c-0.623,0.679-1.924,3.056-2.207,3.622c-0.284,0.566-3.454,2.208-4.528,2.547c-1.077,0.339-2.094,0.905-3.113,0.849
			c-1.018-0.057-1.698,0.453-1.924-0.339c-0.226-0.793-0.113-1.019-0.396-1.358c-0.283-0.34-0.905-0.509-1.188-0.736
			s-0.34-0.906-0.849-1.019c-0.51-0.113-2.265,0.169-2.491,0.679c-0.135,0.304-0.09,0.748-0.186,1.045
			c-0.406-0.307-0.864-0.301-1.342-0.611c-0.641-0.416-0.869,0.075-1.434-0.453c-0.566-0.529-0.566-0.227-1.056-0.642
			c-0.49-0.415,0.113-0.189,0.301-0.679c0.188-0.491,0.528-0.34,1.057-0.189c0.529,0.152,0.415,0.642,0.831,0.981
			c0.414,0.34,0.301,0,0.98-0.339c0.679-0.34,0.265-0.905,0.415-1.623c0.152-0.717,0.68-0.264,1.435-0.49
			c0.754-0.227,1.434-0.68,2.528-1.51c1.093-0.83,2.226-2.112,2.678-2.98c0.454-0.868,0.681-2.566,0.717-2.754
			c0.039-0.189-0.113-0.303-0.641-0.265s-0.679,0.378-1.433,0.643c-0.755,0.263-1.359,0.377-2.265,0.528
			c-0.905,0.15-1.358,0.943-1.321,0.83c0.038-0.114,0.076-0.642,0.114-1.509c0.038-0.868-0.114-1.17-0.15-2.038
			c-0.038-0.869,0.037-1.623,0.113-2.415c0.076-0.792-0.151-1.057-0.831-0.831c-0.679,0.227-3.094,3.208-3.848,4.792
			c-0.755,1.585-0.717,3.661-0.491,4.566s0.264,1.622-0.076,1.811c-0.339,0.189-0.83,0.038-1.057,0.642
			c-0.225,0.604,0.189,0.981,0.377,1.358c0.189,0.378-0.452,0.641-0.452,0.641s-0.717,0-0.981-0.49
			c-0.264-0.491-0.189-0.302-0.189-1.019c0-0.717,0.113-0.68,0.416-1.17c0.302-0.491,0.378-0.377,0.453-1.133
			c0.076-0.754-0.453-0.565-0.415-1.433c0.038-0.868,0.981-2.038,1.02-3.509c0.037-1.472-0.793-2.34-0.945-3.208
			c-0.15-0.868,0-2.452-0.037-2.905c-0.038-0.453-0.604-0.227-0.604-0.227c-1.66,0.528-2.98,4.377-2.98,6.227
			c0,1.849,0.793,4.075,1.395,5.055c0.604,0.981,0.642,0.831,0.906,1.51c0.264,0.68-0.228,0.68-0.527,0.529
			c-0.302-0.151-0.792-0.679-1.132-1.169c-0.339-0.491-0.604-0.643-0.981-1.359c-0.377-0.717-0.076-0.981-0.415-1.434
			c-0.34-0.453-0.34-0.188-0.868-0.301c-0.528-0.113-0.302-0.34-0.792-0.906s-0.68-1.019-0.34-1.283
			c0.34-0.264,0.906,0.565,0.906,0.565s0.527-0.038,0.49-0.943c-0.013-0.325,0.189-0.547,0.076-1.623
			c-0.114-1.075-0.227-0.452,0.057-1.075c0.283-0.623,0.396-1.132,0.622-2.037c0.228-0.906-0.056-3.17-0.056-4.245
			c0-1.076,0.17-2.547,0.227-3.113c0.058-0.566-0.283-0.623-0.283-0.623c-2.208,0.736-3.227,3.905-3.453,4.584
			c-0.226,0.679-0.17,0.849-0.848,1.076c-0.68,0.226-0.454,0.509-0.397,1.415c0.057,0.906-0.339,0.792-0.339,0.792
			s-0.34-0.679-0.283-1.472c0.056-0.792-0.284-1.074,0.17-2.207c0.452-1.133,2.773-3.962,3.17-5.149
			c0.395-1.189,0.509-2.377,0.509-3.736s-0.623-2.773-0.679-3.623c-0.057-0.849,0.227-1.472-0.51-1.245
			c-0.735,0.227-1.924,1.981-1.924,1.981s0,0-0.339-0.623c-0.34-0.623-0.681-0.962-0.736-1.472
			c-0.057-0.509,0.169-1.697-0.905-1.301c-1.076,0.396-2.207,4.075-2.377,6.509c-0.17,2.433,1.472,5.15,2.037,7.074
			c0.566,1.924,0.284,3.679,0.284,3.679s0.094,0.321-0.284,0.057c-0.377-0.264-0.415-1.774-0.754-2.717
			c-0.34-0.943-1.472-2.566-2.981-4.302c-1.508-1.735-3.471-2.868-4.753-3.283c-1.283-0.415-1.095,0.113-0.944,0.604
			c0.15,0.49,0.754,2.075,2.755,5.282c1.999,3.208,3.811,3.924,4.376,4.339c0.566,0.416,0.188,0.868,0.792,1.208
			c0.604,0.339,0.377-0.754,1.056-0.679c0.68,0.075,1.359,1.283,1.812,2.037c0.453,0.755,1.094,2.528,0.641,2
			c-0.452-0.529-1.51-1.585-2-2.227c-0.491-0.641-1.358-0.565-2.037-0.905c-0.679-0.34-1.924-0.227-2.83-0.377
			c-0.905-0.151-1.358-0.566-1.886-0.981c-0.528-0.415-0.83-0.566-0.755,0.641c0.076,1.207,2.377,3.472,2.377,3.472
			s-0.264,0.151-1.208,0.34s-1.774-0.151-2.49,0.112c-0.717,0.265,0.604,1.133,1.66,1.925c1.057,0.792,2.15,1.283,3.622,1.924
			c1.473,0.641,2.075,0.264,4,0.226c1.924-0.038,1.207,0.076,2.375-0.453c1.171-0.528,0.756,0.415,1.36,1.019
			c0.604,0.604,0.302,0.943,1.131,1.434c0.831,0.49,1.548,1.698,1.886,2.415c0.34,0.716-0.49-0.188-0.829-0.754
			c-0.34-0.566-1.019-0.415-1.548-0.793c-0.527-0.377-2.868-1.207-4.301-1.282c-1.434-0.076-2.377,0.188-3.208,0.528
			c-0.83,0.34-0.716,0.075-1.697,0.114c-0.981,0.037-0.905,0.3-0.302,1.282c0.604,0.981,2.301,1.434,2.301,1.434
			s-0.074,0.189-0.678,0.83c-0.604,0.642-0.604,0.717-1.397,1.057c-0.792,0.339-1.056,0.453-0.264,0.943
			c0.792,0.491,1.888,0.868,3.698,0.868c1.811,0,3.283-0.717,4.339-0.981c1.057-0.264,1.208-0.151,2.34-0.264
			s0.793-0.566,1.698-0.679c0.906-0.113,0.604-0.226,1.358-0.416c0.754-0.188,0.453,0.114,1.208,0.944
			c0.754,0.829,1.018,0.527,1.283,1.056c0.264,0.528,0.188,0.264-0.642,0.226s-0.717-0.34-1.094-0.604
			c-0.376-0.263-0.188-0.377-1.018-0.491s-0.453,0.227-1.058,0.754c-0.603,0.529-0.641,0.076-1.282,0.302
			c-0.641,0.227,0.113,0.302-0.641,0.717c-0.755,0.415-1.208,0.415-2.415,0.905c-1.208,0.49-2.944,2.83-3.434,3.094
			c-0.491,0.264-0.831,0.188-1.396,0.453c-0.566,0.264-0.264,0.679,0.188,1.169c0.453,0.49,1.282,0.679,3.509,0.717
			c2.226,0.038,2.604-0.49,2.717-0.49c0.113,0,0.037,0.302-0.34,0.906c-0.377,0.604-0.566,1.245-0.642,2.113
			c-0.075,0.867,0.227,1.848-0.188,2.528c-0.415,0.679-0.643,0.868-0.754,1.32c-0.113,0.453,0.792,0.34,2.603-0.377
			c1.812-0.717,3.546-2.679,4.189-3.962c0.641-1.283,1.207-4.49,1.396-5.396c0.188-0.905,0.792-2.038,1.433-2.377
			c0.642-0.34,1.132-0.453,1.698-0.528c0.211-0.028,0.395,0.048,0.587,0.163c-0.688,0.211-1.367,0.545-1.662,0.987
			c-0.567,0.849-0.679,2.15-0.454,2.716c0.227,0.567,0.736,0.397,0.792,0.793c0.058,0.396-0.226,1.868,0.963,2.661
			c1.188,0.792,2.207,0.509,2.207,0.509s0.565,1.981,2.83,1.641c2.264-0.339,1.868-1.301,1.868-1.301s1.005-0.291,1.865-0.746
			c0.979,1.189,3.33,4.12,3.909,5.5c0.735,1.754,1.131,3.905,1.131,3.905s0.952,0.065,1.886,0.754
			c1.077,0.793,2.227,2.567,2.227,2.567s-0.547-4.17-2.812-8.188c-1.76-3.123-4.03-5.287-4.956-6.098
			c0.201-0.567,0.202-0.864,0.202-0.864s0.792-0.396,1.415-0.565c0.622-0.17,3.225-1.189,4.188-1.358
			c0.961-0.17,2.038-0.906,2.831-0.962c0.792-0.057,1.471,0.396,2.434,0.396c0.961,0,3.395,0.453,6.904-1.019
			c3.321-1.393,4.513-1.874,5.495-3.793h-3.656C125.958,128.031,125.732,124.484,125.732,124.484z M89.046,117.542
			c-0.301-0.565-0.151-0.565-0.491-1.434c-0.338-0.868-0.037-0.981-0.037-1.622c0,0-0.039-0.529,0.265-0.679
			c0.301-0.15,0.226,0.452,0.263,1.433s0.189,0.604,0.453,1.699C89.763,118.033,89.348,118.108,89.046,117.542z"/>
		<path fill="#003162" d="M154.938,128.408h-2.871c0.295,0.602,0.708,1.211,1.123,1.51c0.68,0.491,1.321,0.566,1.962,0.754
			c0.642,0.188,1.774,1.321,2.377,1.509c0.604,0.189,0.717,0.265,1.548,0.529c0.829,0.264,1.735,0.453,2.415,0.528
			c0.678,0.075,2.075,0.112,3.207,0.112c1.131,0,2.112-0.038,3.358-0.075c1.245-0.038,1.359,0.301,2.416,0.415
			c1.056,0.113,4.037,1.056,4.415,1.17c0.377,0.113,0.716,0.151,1.244,0.679c0.356,0.356,0.455,0.85,0.482,1.133
			c-0.143,0.147-0.307,0.314-0.501,0.507c-0.848,0.85-2.037,0.793-2.037,0.793l-7.471,6.283c0,0-0.793,0.622-0.113,0.679
			c0.679,0.056,1.697-0.057,1.697-0.057s-0.735,0.962-0.339,0.906c0.396-0.057,1.528,0,1.019,0.396
			c-0.509,0.396-1.585,1.585-1.302,1.641c0.283,0.057,0.793-0.113,1.641-0.113c0.849,0,0.057,1.019,0.452,1.358
			c0.397,0.34,0.397,0.113,0.623-0.623c0.228-0.736,0.453-0.454,1.02-0.623c0.566-0.17,0.17,1.302,0.17,1.302
			s0.396-0.34,0.454,0.113c0.055,0.453-0.227,1.019,0.055,1.076c0.284,0.057,0.567-0.113,0.85-0.566
			c0.283-0.453,0.283-0.227,0.962-0.566c0.679-0.34,0.566-0.113,0.679,0.566c0.114,0.679-0.17,0.453-0.17,1.132
			s0.396,0.453,0.679,0.792c0.284,0.34,0.284-0.056,0.792-0.565c0.509-0.509,0.509,0.339,1.019,0.396
			c0.51,0.057,0.114-0.623,0.114-0.792c0-0.169,0.283-0.169,0.452,0.339c0.17,0.51,0.283,0.453,0.736,0.736
			c0.453,0.283,0.169-0.566,0.622-0.453c0.453,0.113,0.51,0.849,0.68,0.226c0.17-0.623,1.018-5.49,1.188-6.339
			c0.17-0.849,0.566-2.377,0.51-3.339c-0.057-0.962-0.51-1.076-0.681-1.981c-0.08-0.434,0.033-0.711,0.193-0.896
			c0.139,0.127,0.262,0.239,0.355,0.311c0.34,0.264,0.755,0.302,1.472,0.378c0.717,0.075,1.584-0.528,1.811-0.905
			c0.227-0.378,0.643-0.755,0.981-0.792c0.339-0.039,0.755-0.039,1.208-0.454c0.453-0.415,0.792-1.358,0.831-1.886
			c0.038-0.529-0.038-0.718,0.302-0.981c0.339-0.265,0.906-0.792,1.056-1.359c0.152-0.565-0.114-1.208-0.415-1.584
			c-0.19-0.239-0.306-0.357-0.403-0.629l13.642-11.201l0.062,2.199l4.094-6.178c0,0-7.388,2.396-7.191,2.339l2.114,0.797
			l-4.466,3.615l1.582-2.526c0,0-0.754,0.233-1.755,0.541l8.612-8.332l0.197,2.132l3.702-6.377c0,0-7.138,2.905-6.95,2.837
			l2.104,0.645l-4.567,4.261l1.886-4.885l4.281-5.235l0.528,2.076l2.654-6.88c0,0-0.31,0.187-0.791,0.479l1.853-7.692
			c0,0-6.173,4.68-6.338,4.641l2.325,0.367l-4.873,6.797l1.32-5.112c0,0-0.385,0.292-0.959,0.73l1.451-6.8
			c0,0-6.223,5.164-6.057,5.037l2.275,0.177l-4.037,6.772c-0.174,0.137-0.372,0.294-0.59,0.468l0.236-5.585
			c0,0-4.681,5.146-4.852,5.137l2.036,0.104l-1.108,2.755l-0.015-1.79c0,0-2.788,3.396-4.018,4.789l-0.51-4.053l-3.905,7.414
			l2.377-0.792l-3.241,13.393c-0.106-0.063-0.194-0.111-0.25-0.13c-0.339-0.113-0.906,0-1.849,0.34
			c-0.943,0.339-0.943,1.773-1.17,2.377c-0.226,0.603-0.641,0.528-1.018,0.641s-0.943,0.113-1.735-0.076
			c-0.792-0.189-1.095-0.189-1.85-0.416c-0.755-0.226-1.472-0.754-2.075-0.943c-0.604-0.188-0.981-0.226-1.396-0.604
			c-0.415-0.377-1.057-1.246-1.283-1.886c-0.227-0.642-1.51-1.887-1.774-2.302c-0.263-0.415-0.679-0.906-1.018-1.622
			c-0.34-0.717-1.208-1.208-1.661-1.51c-0.453-0.301-0.377-0.566-0.906-1.094c-0.528-0.528-1.811-1.887-2.64-2.415
			c-0.271-0.173-0.685-0.356-1.121-0.525v6.486C159.164,124.484,158.938,128.031,154.938,128.408z M191.277,110.912l-1.03,1.637
			v-0.005l0.696-1.665L191.277,110.912z M189.222,117.298l0.877-1.426l0.833,0.109l-2.721,4.153L189.222,117.298z M191.399,122.929
			l0.361-0.447l0.084,0.032L191.399,122.929z M194.079,117.33l0.846-2.26l0.925-1.247l0.992,0.139L194.079,117.33z M193.211,112.502
			l-1.291,1.97c-0.608,0.378-1.159,0.72-1.557,0.967l2.323-3.779L193.211,112.502z M194.472,108.753l2.117-3.445l1.239,0.148
			l-4.034,6.156L194.472,108.753z M192.774,121.645c-0.158,0.049-0.307,0.095-0.449,0.139l5.811-7.184l0.42,1.65L192.774,121.645z
			 M199.218,111.067c-0.776,0.469-1.649,0.999-2.407,1.458l5.653-7.625l1.626,0.229L199.218,111.067z M206.65,99.253l0.857,2.172
			c-1.14,0.69-3.203,1.94-4.482,2.717L206.65,99.253z M195.82,112.056c-0.299,0.186-0.802,0.496-1.391,0.861l4.659-6.908
			l0.484,0.813L195.82,112.056z M199.82,100.049l0.823,1.258c-0.845,0.643-2.002,1.523-3.001,2.284L199.82,100.049z M193.215,107.34
			c-0.378,0.299-0.781,0.619-1.185,0.939l0.644-1.539L193.215,107.34z M187.658,112.788l-1.022,2.969l-0.375-2.969H187.658z
			 M184.999,115.051l1.514,1.061l-1.812,5.255l-1.61,2.561L184.999,115.051z"/>
		<path fill="#003162" d="M142.541,130.389h-0.115c-0.284-1.698-2.204-1.981-2.204-1.981h-6.214c0.259,0.695,0.52,1.341,0.675,1.585
			c0.396,0.623,0.905,1.358,0.963,1.641c0.056,0.283-0.058,0.736-0.793,1.019c-0.735,0.284-5.435,3.453-7.188,4.924
			c-1.754,1.472-3.961,3.509-4.471,4.528c-0.509,1.019-0.566,3.17,0.283,3.792s1.924,0.961,1.924,0.961s-0.623,2.604,1,3.547
			c1.622,0.943,3.207,0.453,3.207,0.453s-0.642,2.754,1.131,3.509c1.773,0.754,3.811,0.113,3.811,0.113s0.377,2.867,2.943,2.943
			c2.565,0.075,2.604-0.604,2.604-0.604s0.528,2.302,2.98,2.302c2.453,0,3.548-2.339,3.548-2.339s0.565,0.905,2.754,0.604
			c2.189-0.302,2.942-2.869,2.942-2.869s2.907,0.604,3.962-0.754s0.906-2.83,0.906-2.83s2.904,0.189,3.546-1.661
			c0.642-1.848,0.265-2.829,0.265-2.829s2.376-0.302,2.49-2.49c0.114-2.189-3.358-5.282-4.414-6.188
			c-1.057-0.906-8-5.396-8.528-5.66c-0.527-0.264-0.453-0.83-0.113-1.245c0.164-0.199,0.562-1.331,0.932-2.453h-6.692
			C144.675,128.408,142.823,128.691,142.541,130.389z"/>
		<path fill="#FFFFFF" d="M142.316,72.59c0,0,0.497,0.652-0.28,0.869c-0.71,0.2-0.861-0.729-0.861-0.729s-0.494,0.063-0.474,0.388
			c0.021,0.348,0.572,0.962,1.173,0.986c0.806,0.032,2.001-0.35,2.095-0.932c0.118-0.736,1.101-0.481,1.048-0.652
			C144.962,72.347,142.316,72.59,142.316,72.59z"/>
		<path fill="#003162" d="M112.154,56.797l-0.432-0.221l-0.471,0.917l0.503,0.259c0.407,0.208,0.584-0.14,0.656-0.279
			C112.568,57.169,112.49,56.97,112.154,56.797z"/>
		<path fill="#003162" d="M122.529,64.002l-0.526-0.463l-0.507,0.577l0.537,0.474c0.182,0.159,0.4,0.201,0.584-0.008
			C122.808,64.364,122.737,64.186,122.529,64.002z"/>
		<path fill="#003162" d="M121.105,64.561l-0.62,0.706l0.563,0.495c0.222,0.197,0.455,0.191,0.69-0.076
			c0.204-0.231,0.117-0.464-0.049-0.61L121.105,64.561z"/>
		<path fill="#003162" d="M119.549,62.076c0.117-0.144,0.237-0.4-0.042-0.627l-0.592-0.48l-0.593,0.729l0.558,0.453
			C119.126,62.349,119.33,62.345,119.549,62.076z"/>
		<polygon fill="#FFFFFF" points="109.841,55.641 110.126,55.088 108.213,54.105 106.608,57.228 108.583,58.244 108.866,57.69 
			107.423,56.95 107.84,56.141 109.108,56.792 109.393,56.239 108.124,55.589 108.461,54.931 		"/>
		<path fill="#FFFFFF" d="M112.939,57.783c0.316-0.613,0.21-1.156-0.295-1.416l-1.188-0.611l-1.605,3.124l0.544,0.278l0.579-1.126
			l0.624,0.321C112.296,58.712,112.793,58.066,112.939,57.783z M112.411,57.474c-0.072,0.139-0.25,0.487-0.656,0.279l-0.503-0.259
			l0.471-0.917l0.432,0.221C112.49,56.97,112.568,57.169,112.411,57.474z"/>
		<polygon fill="#FFFFFF" points="113.811,56.972 112.132,60.055 113.946,61.044 114.251,60.486 112.973,59.79 114.349,57.265 		"/>
		<path fill="#FFFFFF" d="M118.098,59.505l-0.525-0.337l-1.253,1.944c-0.229,0.358-0.506,0.471-0.859,0.243
			c-0.239-0.154-0.321-0.463-0.056-0.875l1.234-1.916l-0.523-0.337l-1.262,1.957c-0.185,0.3-0.286,0.572-0.27,0.838
			c0.03,0.434,0.325,0.716,0.551,0.861c0.619,0.399,1.224,0.318,1.725-0.458L118.098,59.505z"/>
		<path fill="#FFFFFF" d="M118.918,63.693c0.413-0.509,0.38-0.675,0.274-0.925c0.298,0.091,0.633-0.064,0.877-0.363
			c0.192-0.236,0.516-0.861-0.088-1.352l-1.148-0.934l-2.214,2.726l0.464,0.378l0.868-1.067l0.489,0.399
			c0.352,0.285,0.252,0.445-0.049,0.817c-0.229,0.28-0.324,0.436-0.397,0.591l0.525,0.427l0.058-0.072
			C118.514,64.19,118.594,64.091,118.918,63.693z M118.322,61.697l0.593-0.729l0.592,0.48c0.279,0.227,0.159,0.483,0.042,0.627
			c-0.219,0.27-0.423,0.273-0.668,0.074L118.322,61.697z"/>
		
			<rect x="118.404" y="63.176" transform="matrix(0.6435 -0.7654 0.7654 0.6435 -5.7554 114.605)" fill="#FFFFFF" width="3.512" height="0.611"/>
		<path fill="#FFFFFF" d="M122.368,65.209c0.141,0.027,0.412,0.076,0.744-0.302c0.24-0.272,0.458-0.797-0.082-1.271l-1.067-0.939
			l-2.32,2.637l0.931,0.818c0.45,0.395,0.649,0.409,0.904,0.372c0.235-0.034,0.484-0.168,0.667-0.376
			C122.375,65.886,122.531,65.567,122.368,65.209z M121.738,65.685c-0.235,0.268-0.468,0.273-0.69,0.076l-0.563-0.495l0.62-0.706
			l0.584,0.514C121.855,65.22,121.942,65.454,121.738,65.685z M122.033,64.59l-0.537-0.474l0.507-0.577l0.526,0.463
			c0.208,0.183,0.278,0.362,0.088,0.579C122.433,64.791,122.215,64.749,122.033,64.59z"/>
		<path fill="#FFFFFF" d="M125.912,66.365l-0.443-0.438l-1.625,1.646c-0.3,0.303-0.593,0.355-0.892,0.061
			c-0.202-0.2-0.219-0.519,0.125-0.867l1.601-1.621l-0.442-0.438l-1.637,1.657c-0.242,0.256-0.397,0.5-0.436,0.765
			c-0.058,0.43,0.171,0.767,0.361,0.956c0.525,0.519,1.134,0.563,1.783-0.095L125.912,66.365z"/>
		<path fill="#FFFFFF" d="M126.039,70.471c0.507-0.374,0.446-0.785,0.304-1.176l-0.254-0.699c-0.045-0.118-0.11-0.304,0.112-0.466
			c0.256-0.189,0.502-0.027,0.641,0.16c0.317,0.429,0.046,0.689-0.071,0.795l0.35,0.472c0.343-0.258,0.767-0.87,0.235-1.591
			c-0.563-0.763-1.223-0.495-1.537-0.263c-0.622,0.458-0.454,0.901-0.278,1.359l0.116,0.305c0.113,0.302,0.184,0.522-0.037,0.685
			c-0.299,0.221-0.557,0.011-0.729-0.222c-0.316-0.429-0.066-0.715,0.088-0.834l-0.348-0.472c-0.349,0.259-0.835,0.844-0.202,1.703
			C124.582,70.432,125.189,71.099,126.039,70.471z"/>
		<path fill="#003162" d="M105.337,50.134c-0.991-0.51-1.387-0.566-1.869-0.51c0,0-0.452,0.227-0.254,0.51
			c0.099,0.141,0.538,0.312,1.076,0.623c0.537,0.312,1.81,0.735,3.112,1.159c1.302,0.425,2.632,1.02,2.632,1.02l0.793-1.499
			c0,0-0.454,0.226-1.274,0.339S106.328,50.643,105.337,50.134z"/>
		<path fill="#003162" d="M168.886,63.925c5.02-4.037,8.188-5.734,9.396-6.15c1.208-0.415,1.623-0.264,2-1.246
			c0.377-0.98,0.378-5.471,1.32-6.527c0,0-1.585,0.529-4.377,1.699c-2.792,1.169-10.752,4.98-14.489,8.414
			c-3.735,3.434-8.037,7.923-8.489,10.074c-0.453,2.15,0.494,2.665,1.023,2.854c0.528,0.188,1.698,0.716,2.037,0.905
			c0.34,0.188,2.491,1.302,2.491,1.302s-0.538-0.48-0.283-1.783C159.771,72.165,163.869,67.962,168.886,63.925z M170.33,56.415
			l2.032,1.976l0.008-0.005l-1.023-2.642l0.85-0.559l1.932,2.931l-0.548,0.361l-1.614-2.449l-0.008,0.004l1.091,2.795l-0.575,0.38
			l-2.127-2.113l-0.008,0.005l1.615,2.45l-0.548,0.361l-1.934-2.932L170.33,56.415z M167.113,58.726l1.36,1.827
			c0.293,0.392,0.639,0.402,0.902,0.207c0.388-0.288,0.398-0.602,0.146-0.943l-1.384-1.854l0.575-0.428l1.364,1.831
			c0.552,0.741,0.36,1.377-0.319,1.884c-0.248,0.185-0.663,0.396-1.11,0.296c-0.275-0.063-0.501-0.248-0.719-0.525l-1.391-1.866
			L167.113,58.726z M164.302,60.939l2.575,1.063l0.007-0.006l-1.536-1.902l0.509-0.412l2.208,2.731l-0.547,0.441l-2.642-1.084
			l-0.007,0.005l1.574,1.948l-0.509,0.412l-2.208-2.73L164.302,60.939z M161.563,63.276l1.501,1.714
			c0.322,0.368,0.668,0.351,0.914,0.134c0.363-0.318,0.351-0.631,0.07-0.951l-1.522-1.74l0.539-0.472l1.503,1.717
			c0.61,0.695,0.468,1.345-0.17,1.904c-0.232,0.204-0.629,0.447-1.084,0.384c-0.278-0.042-0.519-0.208-0.757-0.467l-1.532-1.75
			L161.563,63.276z"/>
		<path fill="#FFFFFF" d="M163.314,65.966c0.455,0.063,0.852-0.18,1.084-0.384c0.638-0.559,0.78-1.209,0.17-1.904l-1.503-1.717
			l-0.539,0.472l1.522,1.74c0.28,0.32,0.293,0.633-0.07,0.951c-0.246,0.217-0.592,0.234-0.914-0.134l-1.501-1.714l-0.539,0.472
			l1.532,1.75C162.795,65.758,163.036,65.925,163.314,65.966z"/>
		<polygon fill="#FFFFFF" points="166.442,63.724 164.869,61.776 164.876,61.771 167.518,62.855 168.065,62.414 165.857,59.682 
			165.348,60.094 166.884,61.996 166.877,62.002 164.302,60.939 163.726,61.405 165.934,64.136 		"/>
		<path fill="#FFFFFF" d="M168.647,61.545c0.448,0.1,0.863-0.112,1.11-0.296c0.68-0.507,0.872-1.144,0.319-1.884l-1.364-1.831
			l-0.575,0.428l1.384,1.854c0.252,0.341,0.242,0.655-0.146,0.943c-0.263,0.196-0.609,0.186-0.902-0.207l-1.36-1.827l-0.575,0.428
			l1.391,1.866C168.146,61.297,168.372,61.482,168.647,61.545z"/>
		<polygon fill="#FFFFFF" points="171.955,59.551 170.339,57.101 170.348,57.095 172.475,59.208 173.05,58.828 171.959,56.033 
			171.967,56.028 173.582,58.478 174.129,58.116 172.197,55.185 171.347,55.744 172.371,58.386 172.362,58.391 170.33,56.415 
			169.473,56.98 171.407,59.912 		"/>
		<path fill="#003162" d="M174.659,50.606c2.529-0.377,3.104-1.972,5.442-2.198c2.339-0.226,2.223,1.094,2.223,1.245
			c0,0-0.34,1.515-0.552,2.406c-0.201,0.842-0.369,1.519-0.142,1.556c0.226,0.038,0.962-0.193,2.151-0.736
			c1.964-0.896,3.518-2.764,3.594-3.141c0.076-0.377-0.302-0.302-0.642-1.962c-0.213-1.036,0.105-2.175,0.336-2.849
			c0.001-0.002,0.002-0.004,0.003-0.006c0.127-0.368,0.224-0.59,0.197-0.581c0.069-0.201,0.141-0.398,0.219-0.573
			c0.197-0.453,0.338-2.406-1.727-2.321c-2.066,0.085-1.868,2.037-1.557,2.462c0,0,0.538-0.113,0.934,0.198
			c0.386,0.304,0.368,0.555,0.104,1.435c-0.476,0.266-0.955,0.526-1.339,0.726c-1.169,0.603-2.717,0.792-4.415,1.056
			c-1.698,0.264-4.151-0.114-5.773-0.038c-1.623,0.075-2.075,0.792-2.227,2.113C171.339,50.719,172.132,50.983,174.659,50.606z"/>
		<path fill="#003162" d="M176.701,51.271c1.273-0.707,4.669-1.924,4.669-1.924s-0.056-0.254-0.708-0.254
			c-0.65,0-1.981,0.565-3.933,1.499c-1.953,0.934-3.735,0.792-3.934,0.765c0,0,0.481,0.282,0.707,0.481
			c0.228,0.197,0.425,0.679,0.425,0.679S175.427,51.978,176.701,51.271z"/>
		<path fill="#003162" d="M96.297,45.148c0.076,0.636,0.182,1.604,0.221,2.289c0.037,0.679-0.226,2.49-0.151,2.867
			c0.076,0.377,0.638,1.629,2.675,2.799c1.266,0.726,2.751,0.896,3.694,0.921c-0.032-0.191-0.063-0.392-0.087-0.57
			c-0.075-0.566-0.623-1.491-0.755-2.887c-0.06-0.64,0.033-1,0.288-1.283c0.057-0.113,0.215-0.212,0.355-0.311
			c0.811-0.575,2.169-0.028,2.811,0.273c0.641,0.302,3.116,1.646,4.301,1.661c0.716,0.009,1.366-0.163,1.859-0.35
			c1.38-1.393,0.044-3.013-1.143-3.386c-1.32-0.415-4.754,0.302-8.375,0.377c-1.357,0.028-2.502-0.367-3.406-0.882
			c-0.089-0.282-0.221-0.628-0.412-1.061c-0.391-0.894-0.311-1.188,0.085-1.5c0.396-0.312,0.934-0.198,0.934-0.198
			c0.312-0.425,0.509-2.377-1.557-2.462c-2.065-0.085-1.924,1.868-1.726,2.321C96.077,44.153,96.167,44.711,96.297,45.148z"/>
		<path fill="#FFFFFF" d="M149.726,60.165c0.634-0.165,1.27-0.139,1.854,0.036l-4.192-7.264c-0.365,0.681-0.859,1.28-1.451,1.767
			l1.829,6.827C148.219,60.88,148.897,60.382,149.726,60.165z"/>
		<path fill="#FFFFFF" d="M144.042,23.577c-0.528-0.145-0.991-0.408-1.374-0.749v6.16c0.826,0.083,1.592,0.318,2.272,0.674
			l1.718-6.408C145.89,23.687,144.959,23.83,144.042,23.577z"/>
		<path fill="#FFFFFF" d="M154.748,35.946c0.547,0.669,0.95,1.46,1.16,2.327l5.071-1.359c-0.7-0.452-1.238-1.154-1.465-2.026
			c-0.149-0.574-0.142-1.15-0.01-1.688L154.748,35.946z"/>
		<path fill="#FFFFFF" d="M148.902,24.759c-0.478-0.281-0.861-0.66-1.143-1.096l-1.79,6.68c0.604,0.5,1.102,1.113,1.463,1.807
			l4.052-7.018C150.639,25.342,149.713,25.236,148.902,24.759z"/>
		<path fill="#FFFFFF" d="M161.37,38.021l-5.3,1.42c0.003,0.075,0.006,0.15,0.006,0.225c0,0.83-0.176,1.617-0.484,2.333h6.194
			c-0.542-0.615-0.871-1.422-0.864-2.308C160.926,39.082,161.089,38.514,161.37,38.021z"/>
		<path fill="#FFFFFF" d="M153.293,27.16c-0.396-0.402-0.673-0.879-0.831-1.382l-4.512,7.815c0.041,0.195,0.075,0.394,0.097,0.595
			c0.623-0.244,1.297-0.383,2.004-0.4l5.602-5.602C154.795,28.162,153.944,27.82,153.293,27.16z"/>
		<path fill="#FFFFFF" d="M139.04,23.693c-0.544-0.004-1.055-0.137-1.511-0.363l1.695,6.322c0.687-0.369,1.456-0.606,2.273-0.675
			v-6.291C140.868,23.313,140,23.699,139.04,23.693z"/>
		<path fill="#FFFFFF" d="M129.963,27.702c-0.474,0.269-0.985,0.411-1.495,0.44l5.646,5.645c0.721,0.013,1.41,0.153,2.042,0.401
			c0.021-0.185,0.049-0.37,0.086-0.55l-4.648-8.053C131.363,26.449,130.803,27.224,129.963,27.702z"/>
		<path fill="#FFFFFF" d="M134.237,25.099c-0.525,0.138-1.052,0.142-1.551,0.041l4.066,7.043c0.358-0.704,0.851-1.327,1.447-1.833
			l-1.841-6.871C135.912,24.254,135.171,24.857,134.237,25.099z"/>
		<path fill="#FFFFFF" d="M135.06,60.506c0.553,0.324,0.979,0.78,1.267,1.303l1.914-7.145c-0.593-0.489-1.082-1.086-1.439-1.764
			l-4.155,7.197C133.445,59.941,134.301,60.062,135.06,60.506z"/>
		<path fill="#FFFFFF" d="M130.669,58.105c0.443,0.448,0.732,0.988,0.879,1.555l4.474-7.748c-0.627,0.229-1.305,0.355-2.013,0.355
			c-0.25,0-0.494-0.017-0.735-0.047l-4.865,4.865C129.233,57.132,130.043,57.471,130.669,58.105z"/>
		<path fill="#FFFFFF" d="M122.133,41.998h6.48c-0.311-0.715-0.486-1.502-0.486-2.333c0-0.072,0.003-0.144,0.006-0.215l-5.524-1.48
			c0.428,0.765,0.567,1.691,0.316,2.603C122.774,41.125,122.497,41.606,122.133,41.998z"/>
		<path fill="#FFFFFF" d="M128.293,38.282c0.208-0.864,0.607-1.654,1.149-2.322l-4.974-2.872c0.224,0.857,0.123,1.798-0.361,2.622
			c-0.284,0.483-0.667,0.87-1.108,1.153L128.293,38.282z"/>
		<path fill="#FFFFFF" d="M156.033,45.716l5.227,1.399c-0.353-0.727-0.455-1.581-0.222-2.423c0.165-0.6,0.482-1.115,0.893-1.524
			h-6.817C155.602,43.917,155.927,44.783,156.033,45.716z"/>
		<path fill="#FFFFFF" d="M139.921,61.688c0.626,0.173,1.159,0.51,1.576,0.947v-6.628c-0.81-0.085-1.562-0.31-2.229-0.657
			l-1.757,6.555C138.238,61.558,139.085,61.459,139.921,61.688z"/>
		<path fill="#FFFFFF" d="M154,57.563c0.567-0.321,1.184-0.461,1.792-0.445l-4.895-4.894c-0.23,0.028-0.464,0.043-0.703,0.043
			c-0.726,0-1.419-0.131-2.06-0.372l4.326,7.492C152.731,58.643,153.256,57.986,154,57.563z"/>
		<path fill="#FFFFFF" d="M146.702,62.084l-1.794-6.698c-0.68,0.354-1.437,0.579-2.24,0.642v6.363
			c0.608-0.516,1.396-0.825,2.256-0.82C145.578,61.577,146.184,61.766,146.702,62.084z"/>
		<path fill="#FFFFFF" d="M156.049,46.93c-0.084,0.93-0.386,1.796-0.853,2.549l4.242,2.449c-0.146-0.788-0.02-1.628,0.416-2.374
			c0.323-0.547,0.773-0.969,1.29-1.258L156.049,46.93z"/>
		<path fill="#FFFFFF" d="M122.625,47.191l5.546-1.486c0.107-0.929,0.431-1.791,0.919-2.538h-7.004
			c0.596,0.626,0.961,1.474,0.956,2.407C123.038,46.161,122.887,46.71,122.625,47.191z"/>
		<path fill="#FFFFFF" d="M124.45,50.377c0.151,0.582,0.141,1.166,0.003,1.71l4.544-2.624c-0.463-0.752-0.76-1.616-0.844-2.542
			l-5.219,1.398C123.657,48.771,124.217,49.487,124.45,50.377z"/>
		<path fill="#FFFFFF" d="M127.05,54.651c0.305,0.536,0.445,1.117,0.446,1.692l4.448-4.449c-0.856-0.321-1.619-0.837-2.232-1.494
			l-4.62,2.667C125.893,53.322,126.604,53.864,127.05,54.651z"/>
		<path fill="#FFFFFF" d="M154.478,50.415c-0.618,0.656-1.384,1.172-2.246,1.49l4.208,4.207c0.065-0.792,0.403-1.565,1.015-2.167
			c0.459-0.452,1.013-0.746,1.598-0.889L154.478,50.415z"/>
		<path fill="#FFFFFF" d="M130.298,35.104c0.669-0.544,1.459-0.944,2.325-1.154l-5.087-5.087c-0.001,0.892-0.342,1.782-1.027,2.458
			c-0.393,0.388-0.856,0.658-1.345,0.818L130.298,35.104z"/>
		<path fill="#FFFFFF" d="M156.913,30.615c-0.286-0.503-0.43-1.046-0.448-1.586l-4.916,4.915c0.871,0.206,1.667,0.604,2.339,1.148
			l5.001-2.886C158.082,31.953,157.364,31.409,156.913,30.615z"/>
		<path fill="#003162" d="M116.118,45.526c-0.011,1.577,1.035,2.912,2.475,3.34c-0.795,0.839-1.157,2.054-0.844,3.255
			c0.397,1.526,1.752,2.545,3.253,2.585c-0.551,1.017-0.584,2.283,0.028,3.363c0.779,1.371,2.351,2.005,3.813,1.656
			c-0.271,1.124,0.025,2.357,0.897,3.241c1.105,1.123,2.79,1.327,4.109,0.612c0.031,1.156,0.635,2.271,1.706,2.899
			c1.36,0.798,3.04,0.56,4.129-0.472c0.329,1.108,1.202,2.028,2.399,2.358c1.52,0.419,3.08-0.245,3.866-1.525
			c0.604,0.985,1.684,1.648,2.926,1.657c1.576,0.011,2.912-1.035,3.341-2.474c0.838,0.796,2.054,1.156,3.254,0.843
			c1.526-0.396,2.545-1.752,2.587-3.253c1.015,0.552,2.283,0.586,3.362-0.026c1.372-0.78,2.004-2.353,1.655-3.813
			c1.125,0.27,2.358-0.025,3.241-0.896c1.123-1.106,1.328-2.79,0.613-4.111c1.156-0.031,2.271-0.635,2.898-1.706
			c0.798-1.359,0.56-3.039-0.472-4.129c1.108-0.328,2.029-1.2,2.358-2.397c0.418-1.52-0.245-3.08-1.524-3.866
			c0.985-0.604,1.647-1.685,1.657-2.927c0.011-1.576-1.035-2.911-2.475-3.339c0.797-0.839,1.157-2.054,0.844-3.255
			c-0.397-1.526-1.752-2.545-3.253-2.586c0.552-1.016,0.585-2.282-0.027-3.363c-0.779-1.371-2.352-2.004-3.812-1.655
			c0.269-1.125-0.026-2.357-0.897-3.241c-1.108-1.123-2.791-1.329-4.111-0.614c-0.031-1.154-0.635-2.269-1.705-2.897
			c-1.36-0.798-3.04-0.561-4.129,0.472c-0.329-1.108-1.201-2.027-2.397-2.357c-1.52-0.419-3.081,0.246-3.866,1.524
			c-0.604-0.985-1.685-1.648-2.925-1.658c-1.578-0.011-2.913,1.035-3.341,2.474c-0.839-0.795-2.054-1.156-3.255-0.843
			c-1.527,0.396-2.546,1.752-2.587,3.253c-1.016-0.551-2.284-0.585-3.362,0.028c-1.371,0.779-2.005,2.352-1.655,3.813
			c-1.126-0.27-2.358,0.025-3.243,0.896c-1.123,1.107-1.327,2.791-0.613,4.111c-1.155,0.03-2.269,0.635-2.898,1.706
			c-0.798,1.36-0.559,3.039,0.472,4.128c-1.108,0.329-2.029,1.201-2.357,2.398c-0.42,1.521,0.245,3.081,1.524,3.866
			C116.79,43.204,116.127,44.285,116.118,45.526z M124.108,35.711c0.484-0.824,0.585-1.765,0.361-2.622l4.974,2.872
			c-0.542,0.668-0.941,1.458-1.149,2.322L123,36.864C123.441,36.581,123.825,36.194,124.108,35.711z M132.202,37.143h1.904
			l-1.539,1.119l0.587,1.809l-1.541-1.119l-1.538,1.119l0.587-1.809l-1.54-1.119h1.902l0.589-1.811L132.202,37.143z M152.002,37.143
			l0.587-1.811l0.588,1.811h1.902l-1.539,1.119l0.588,1.809l-1.539-1.119l-1.54,1.119l0.589-1.809l-1.54-1.119H152.002z
			 M159.514,34.888c0.227,0.872,0.765,1.574,1.465,2.026l-5.071,1.359c-0.21-0.867-0.613-1.658-1.16-2.327l4.756-2.745
			C159.372,33.738,159.365,34.314,159.514,34.888z M159.854,49.554c-0.436,0.745-0.562,1.585-0.416,2.374l-4.242-2.449
			c0.467-0.753,0.768-1.619,0.853-2.549l5.095,1.366C160.627,48.585,160.177,49.007,159.854,49.554z M153.922,49.452l-1.538-1.119
			l-1.54,1.119l0.587-1.811l-1.539-1.119h1.902l0.589-1.811l0.587,1.811h1.903l-1.539,1.119L153.922,49.452z M131.82,48.333
			l-1.54,1.119l0.589-1.811l-1.54-1.119h1.901l0.59-1.811l0.587,1.811h1.904l-1.539,1.119l0.588,1.811L131.82,48.333z
			 M132.304,41.834h1.902l0.589-1.811l0.586,1.811h1.904l-1.539,1.119l0.587,1.809l-1.538-1.119l-1.542,1.119l0.59-1.811
			L132.304,41.834z M141.152,32.985l-1.541-1.117h1.903l0.588-1.81l0.589,1.81h1.903l-1.541,1.117l0.589,1.812l-1.54-1.119
			l-1.541,1.119L141.152,32.985z M149.996,41.834h1.904l-1.539,1.118l0.587,1.811l-1.54-1.119l-1.539,1.119l0.588-1.809l-1.54-1.119
			h1.902l0.589-1.811L149.996,41.834z M143.053,52.393l0.589,1.81l-1.54-1.119l-1.541,1.119l0.591-1.81l-1.541-1.119h1.903
			l0.588-1.811l0.589,1.811h1.903L143.053,52.393z M142.102,43.643l-1.541,1.119l0.591-1.811l-1.541-1.118h1.903l0.588-1.811
			l0.589,1.811h1.903l-1.541,1.119l0.589,1.809L142.102,43.643z M136.185,46.522h1.9l0.59-1.811l0.587,1.811h1.903l-1.538,1.119
			l0.588,1.811l-1.54-1.119l-1.541,1.119l0.59-1.811L136.185,46.522z M134.009,52.268c0.708,0,1.386-0.126,2.013-0.355l-4.474,7.748
			c-0.146-0.567-0.436-1.107-0.879-1.555c-0.625-0.635-1.436-0.974-2.261-1.02l4.865-4.865
			C133.515,52.251,133.759,52.268,134.009,52.268z M136.802,52.901c0.357,0.677,0.846,1.275,1.439,1.764l-1.914,7.145
			c-0.289-0.523-0.714-0.979-1.267-1.303c-0.759-0.444-1.615-0.565-2.413-0.408L136.802,52.901z M139.269,55.35
			c0.667,0.347,1.418,0.572,2.229,0.657v6.628c-0.417-0.438-0.95-0.774-1.576-0.947c-0.836-0.229-1.684-0.13-2.41,0.217
			L139.269,55.35z M142.668,56.029c0.803-0.063,1.56-0.289,2.24-0.642l1.794,6.698c-0.518-0.319-1.125-0.508-1.778-0.513
			c-0.86-0.005-1.647,0.304-2.256,0.82V56.029z M147.765,61.531l-1.829-6.827c0.591-0.487,1.085-1.086,1.451-1.767l4.192,7.264
			c-0.583-0.175-1.22-0.201-1.854-0.036C148.897,60.382,148.219,60.88,147.765,61.531z M152.461,59.388l-4.326-7.492
			c0.641,0.241,1.334,0.372,2.06,0.372c0.239,0,0.472-0.016,0.703-0.043l4.895,4.894c-0.607-0.017-1.225,0.124-1.792,0.445
			C153.256,57.986,152.731,58.643,152.461,59.388z M147.069,49.452l-1.541-1.119l-1.538,1.119l0.587-1.811l-1.538-1.119h1.901
			l0.588-1.811l0.588,1.811h1.904l-1.538,1.119L147.069,49.452z M161.038,44.692c-0.232,0.843-0.131,1.696,0.222,2.423l-5.227-1.399
			c-0.106-0.933-0.431-1.799-0.919-2.548h6.817C161.521,43.577,161.203,44.092,161.038,44.692z M155.592,41.998
			c0.309-0.715,0.484-1.502,0.484-2.333c0-0.075-0.003-0.15-0.006-0.225l5.3-1.42c-0.281,0.494-0.444,1.061-0.448,1.67
			c-0.007,0.885,0.321,1.693,0.864,2.308H155.592z M147.137,40.071l-1.539-1.119l-1.54,1.119l0.587-1.809l-1.539-1.119h1.903
			l0.589-1.811l0.587,1.811h1.904l-1.539,1.119L147.137,40.071z M150.051,33.788c-0.707,0.017-1.381,0.156-2.004,0.4
			c-0.022-0.202-0.056-0.4-0.097-0.595l4.512-7.815c0.158,0.503,0.435,0.98,0.831,1.382c0.651,0.661,1.502,1.002,2.36,1.026
			L150.051,33.788z M147.432,32.15c-0.361-0.694-0.859-1.307-1.463-1.807l1.79-6.68c0.282,0.436,0.665,0.815,1.143,1.096
			c0.812,0.477,1.737,0.583,2.582,0.373L147.432,32.15z M144.94,29.662c-0.681-0.356-1.447-0.591-2.272-0.674v-6.16
			c0.382,0.341,0.845,0.604,1.374,0.749c0.918,0.253,1.849,0.11,2.617-0.323L144.94,29.662z M141.498,28.977
			c-0.817,0.069-1.586,0.306-2.273,0.675l-1.695-6.322c0.456,0.227,0.967,0.359,1.511,0.363c0.96,0.006,1.828-0.379,2.458-1.007
			V28.977z M136.358,23.479l1.841,6.871c-0.596,0.506-1.089,1.129-1.447,1.833l-4.066-7.043c0.499,0.102,1.025,0.098,1.551-0.041
			C135.171,24.857,135.912,24.254,136.358,23.479z M131.594,25.585l4.648,8.053c-0.037,0.18-0.065,0.365-0.086,0.55
			c-0.633-0.248-1.321-0.388-2.042-0.401l-5.646-5.645c0.51-0.03,1.021-0.171,1.495-0.44
			C130.803,27.224,131.363,26.449,131.594,25.585z M136.115,37.143h1.903l0.589-1.811l0.587,1.811h1.904l-1.538,1.119l0.586,1.809
			l-1.539-1.119l-1.54,1.119l0.589-1.809L136.115,37.143z M122.609,37.97l5.524,1.48c-0.003,0.072-0.006,0.143-0.006,0.215
			c0,0.83,0.176,1.617,0.486,2.333h-6.48c0.363-0.392,0.641-0.874,0.792-1.425C123.176,39.661,123.037,38.735,122.609,37.97z
			 M129.091,43.167c-0.488,0.747-0.812,1.608-0.919,2.538l-5.546,1.486c0.261-0.481,0.413-1.03,0.417-1.616
			c0.006-0.934-0.359-1.781-0.956-2.407H129.091z M128.153,46.921c0.084,0.926,0.381,1.79,0.844,2.542l-4.544,2.624
			c0.138-0.544,0.147-1.128-0.003-1.71c-0.232-0.89-0.793-1.606-1.516-2.058L128.153,46.921z M129.712,50.4
			c0.613,0.657,1.376,1.173,2.232,1.494l-4.448,4.449c-0.001-0.575-0.141-1.156-0.446-1.692c-0.446-0.787-1.157-1.329-1.957-1.583
			L129.712,50.4z M157.455,53.944c-0.611,0.602-0.949,1.375-1.015,2.167l-4.208-4.207c0.862-0.318,1.628-0.833,2.246-1.49
			l4.575,2.641C158.467,53.199,157.914,53.492,157.455,53.944z M153.889,35.091c-0.673-0.544-1.469-0.942-2.339-1.148l4.916-4.915
			c0.018,0.541,0.162,1.083,0.448,1.586c0.451,0.794,1.168,1.338,1.977,1.59L153.889,35.091z M127.536,28.863l5.087,5.087
			c-0.866,0.209-1.656,0.609-2.325,1.154l-5.135-2.965c0.489-0.16,0.952-0.43,1.345-0.818
			C127.194,30.645,127.535,29.754,127.536,28.863z"/>
		<polygon fill="#FBFBFB" points="142.102,33.678 143.642,34.796 143.053,32.985 144.594,31.868 142.691,31.868 142.102,30.058 
			141.514,31.868 139.611,31.868 141.152,32.985 140.561,34.796 		"/>
		<polygon fill="#FBFBFB" points="142.691,51.274 142.102,49.463 141.514,51.274 139.611,51.274 141.152,52.393 140.561,54.202 
			142.102,53.083 143.642,54.202 143.053,52.393 144.594,51.274 		"/>
		<polygon fill="#FBFBFB" points="143.642,44.762 143.053,42.953 144.594,41.834 142.691,41.834 142.102,40.023 141.514,41.834 
			139.611,41.834 141.152,42.952 140.561,44.762 142.102,43.643 		"/>
		<polygon fill="#FBFBFB" points="133.254,44.762 134.796,43.643 136.334,44.762 135.747,42.953 137.286,41.834 135.382,41.834 
			134.796,40.023 134.207,41.834 132.304,41.834 133.844,42.952 		"/>
		<polygon fill="#FBFBFB" points="148.82,41.834 146.918,41.834 148.458,42.953 147.87,44.762 149.409,43.643 150.948,44.762 
			150.361,42.952 151.9,41.834 149.996,41.834 149.409,40.023 		"/>
		<polygon fill="#FBFBFB" points="137.066,40.071 138.606,38.952 140.146,40.071 139.559,38.262 141.097,37.143 139.193,37.143 
			138.606,35.332 138.018,37.143 136.115,37.143 137.655,38.262 		"/>
		<polygon fill="#FBFBFB" points="131.025,37.143 129.124,37.143 130.663,38.262 130.076,40.071 131.614,38.952 133.155,40.071 
			132.567,38.262 134.106,37.143 132.202,37.143 131.614,35.332 		"/>
		<polygon fill="#FBFBFB" points="148.089,37.143 146.185,37.143 145.598,35.332 145.009,37.143 143.106,37.143 144.646,38.262 
			144.059,40.071 145.598,38.952 147.137,40.071 146.55,38.262 		"/>
		<polygon fill="#FBFBFB" points="151.639,38.262 151.05,40.071 152.589,38.952 154.128,40.071 153.541,38.262 155.08,37.143 
			153.177,37.143 152.589,35.332 152.002,37.143 150.099,37.143 		"/>
		<polygon fill="#FBFBFB" points="137.134,49.452 138.675,48.333 140.214,49.452 139.626,47.642 141.165,46.522 139.262,46.522 
			138.675,44.712 138.085,46.522 136.185,46.522 137.724,47.642 		"/>
		<polygon fill="#FBFBFB" points="132.772,47.642 134.311,46.522 132.407,46.522 131.82,44.712 131.23,46.522 129.33,46.522 
			130.869,47.642 130.28,49.452 131.82,48.333 133.36,49.452 		"/>
		<polygon fill="#FBFBFB" points="148.02,46.522 146.116,46.522 145.528,44.712 144.94,46.522 143.039,46.522 144.577,47.642 
			143.99,49.452 145.528,48.333 147.069,49.452 146.482,47.642 		"/>
		<polygon fill="#FBFBFB" points="154.875,46.522 152.972,46.522 152.384,44.712 151.795,46.522 149.893,46.522 151.432,47.642 
			150.845,49.452 152.384,48.333 153.922,49.452 153.335,47.642 		"/>
		<path fill="#FFFFFF" d="M159.164,93.97h-33.432v22.936v1.661v5.917c0,0,0.227,3.547,4.225,3.923h3.656h0.395h6.214
			c0,0,1.92,0.284,2.204,1.981h0.115c0.282-1.698,2.135-1.981,2.135-1.981h6.692h0.7h2.871c4-0.376,4.227-3.923,4.227-3.923v-6.486
			v-0.779V93.97z M154.556,127.578l-0.013-22.332h-2.675v22.257h-2.636v-22.257h-2.592l-0.014,22.181c0,0-2.076-0.113-2.755,0.717
			v-22.897h-2.524v22.897c-0.68-0.83-2.755-0.717-2.755-0.717l-0.012-22.181h-2.592v22.257h-2.636v-22.257h-2.675l-0.012,22.332
			c0,0-2.062-0.374-2.59-1.393v-20.939h-1.215V94.903h31.073v10.344h-0.788v20.939C156.618,127.205,154.556,127.578,154.556,127.578
			z"/>
		<path fill="#CA0E43" d="M138.593,127.427c0,0,2.076-0.113,2.755,0.717v-22.897h-2.768L138.593,127.427z"/>
		<rect x="133.353" y="105.247" fill="#CA0E43" width="2.636" height="22.257"/>
		<path fill="#CA0E43" d="M128.075,105.247v20.939c0.528,1.019,2.59,1.393,2.59,1.393l0.012-22.332H128.075z"/>
		<path fill="#CA0E43" d="M143.873,128.144c0.679-0.83,2.755-0.717,2.755-0.717l0.014-22.181h-2.769V128.144z"/>
		<rect x="149.233" y="105.247" fill="#CA0E43" width="2.636" height="22.257"/>
		<path fill="#CA0E43" d="M157.145,105.247h-2.602l0.013,22.332c0,0,2.062-0.374,2.589-1.393V105.247z"/>
		<polygon fill="#003162" points="157.933,105.247 157.933,94.903 126.86,94.903 126.86,105.247 128.075,105.247 130.677,105.247 
			133.353,105.247 135.989,105.247 138.581,105.247 141.348,105.247 143.873,105.247 146.641,105.247 149.233,105.247 
			151.869,105.247 154.543,105.247 157.145,105.247 "/>
	</g>
</g>
</svg>