<?xml version="1.0" encoding="UTF-8" standalone="no"?>
<!-- Created with Inkscape (http://www.inkscape.org/) -->
<svg
   xmlns:dc="http://purl.org/dc/elements/1.1/"
   xmlns:cc="http://creativecommons.org/ns#"
   xmlns:rdf="http://www.w3.org/1999/02/22-rdf-syntax-ns#"
   xmlns:svg="http://www.w3.org/2000/svg"
   xmlns="http://www.w3.org/2000/svg"
   xmlns:sodipodi="http://sodipodi.sourceforge.net/DTD/sodipodi-0.dtd"
   xmlns:inkscape="http://www.inkscape.org/namespaces/inkscape"
   version="1.0"
   width="1024"
   height="539"
   viewBox="0 0 1024 538"
   id="svg2"
   xml:space="preserve"
   style="fill-rule:evenodd"
   sodipodi:version="0.32"
   inkscape:version="0.46"
   sodipodi:docname="Flag_of_the_Governor_of_Hawaii.svg"
   inkscape:output_extension="org.inkscape.output.svg.inkscape"><metadata
   id="metadata19"><rdf:RDF><cc:Work
       rdf:about=""><dc:format>image/svg+xml</dc:format><dc:type
         rdf:resource="http://purl.org/dc/dcmitype/StillImage" /></cc:Work></rdf:RDF></metadata><sodipodi:namedview
   inkscape:window-height="667"
   inkscape:window-width="640"
   inkscape:pageshadow="2"
   inkscape:pageopacity="0.0"
   guidetolerance="10.0"
   gridtolerance="10.0"
   objecttolerance="10.0"
   borderopacity="1.0"
   bordercolor="#666666"
   pagecolor="#ffffff"
   id="base"
   showgrid="false"
   inkscape:zoom="0.53125"
   inkscape:cx="512"
   inkscape:cy="269.5"
   inkscape:window-x="66"
   inkscape:window-y="87"
   inkscape:current-layer="svg2" />
 <defs
   id="defs4"><inkscape:perspective
   sodipodi:type="inkscape:persp3d"
   inkscape:vp_x="0 : 269.5 : 1"
   inkscape:vp_y="0 : 1000 : 0"
   inkscape:vp_z="1024 : 269.5 : 1"
   inkscape:persp3d-origin="512 : 179.66667 : 1"
   id="perspective21" />
  <style
   type="text/css"
   id="style6" />
 </defs>
 <path
   d="M 0,0 L 1024,0 L 1024,538 L 0,538 L 0,0 z"
   id="path8"
   style="fill:#bf0a30" />
 <g
   id="Layer 1">
  <rect
   width="1024"
   height="269"
   x="0"
   y="0"
   id="rect11"
   style="fill:#002868" />
  <path
   d="M 305,226 L 317,263 L 356,263 L 325,286 L 337,324 L 305,301 L 274,324 L 286,286 L 254,263 L 293,263 L 305,226 z"
   id="path13"
   style="fill:#ffffff" />
  <path
   d="M 362,369 L 374,406 L 414,406 L 382,429 L 394,466 L 362,443 L 331,466 L 343,429 L 311,406 L 350,406 L 362,369 z"
   id="path15"
   style="fill:#ffffff" />
  <path
   d="M 364,79 L 376,116 L 415,116 L 384,139 L 396,176 L 364,153 L 333,176 L 345,139 L 313,116 L 352,116 L 364,79 z"
   id="path17"
   style="fill:#ffffff" />
  <path
   d="M 505,19 L 517,56 L 556,56 L 525,79 L 537,117 L 505,94 L 473,117 L 486,79 L 454,56 L 493,56 L 505,19 z"
   id="path19"
   style="fill:#ffffff" />
  <path
   d="M 652,81 L 664,118 L 703,118 L 671,141 L 683,178 L 652,155 L 620,178 L 632,141 L 601,118 L 640,118 L 652,81 z"
   id="path21"
   style="fill:#ffffff" />
  <path
   d="M 711,224 L 723,261 L 762,261 L 730,284 L 743,321 L 711,298 L 679,321 L 691,284 L 660,261 L 699,261 L 711,224 z"
   id="path23"
   style="fill:#ffffff" />
  <path
   d="M 651,368 L 663,405 L 702,405 L 670,428 L 682,465 L 651,442 L 619,465 L 631,428 L 600,405 L 639,405 L 651,368 z"
   id="path25"
   style="fill:#ffffff" />
  <path
   d="M 505,427 L 517,464 L 556,464 L 525,487 L 537,525 L 505,502 L 474,525 L 486,487 L 454,464 L 493,464 L 505,427 z"
   id="path27"
   style="fill:#ffffff" />
  
 </g>
<path
   style="font-size:14px;font-style:italic;font-variant:normal;font-weight:normal;font-stretch:normal;text-align:center;text-anchor:middle;fill:#ffffff;fill-opacity:1;stroke:none;stroke-width:1px;stroke-linecap:butt;stroke-linejoin:miter;stroke-opacity:1;font-family:Arial;-inkscape-font-specification:Arial"
   d="M 453.64062,320.53906 L 453.64062,234.89844 L 423.05469,234.89844 L 423.05469,217.46094 L 504.96875,217.46094 L 504.96875,234.89844 L 474.45312,234.89844 L 474.45312,320.53906 L 453.64062,320.53906 z M 518.53906,320.53906 L 518.53906,217.46094 L 539.35156,217.46094 L 539.35156,258.03125 L 580.13281,258.03125 L 580.13281,217.46094 L 600.94531,217.46094 L 600.94531,320.53906 L 580.13281,320.53906 L 580.13281,275.46875 L 539.35156,275.46875 L 539.35156,320.53906 L 518.53906,320.53906 z"
   id="text2407" />
</svg>