<?xml version="1.0" encoding="UTF-8" standalone="no"?>
<svg
   xmlns:dc="http://purl.org/dc/elements/1.1/"
   xmlns:cc="http://creativecommons.org/ns#"
   xmlns:rdf="http://www.w3.org/1999/02/22-rdf-syntax-ns#"
   xmlns:svg="http://www.w3.org/2000/svg"
   xmlns="http://www.w3.org/2000/svg"
   xmlns:sodipodi="http://sodipodi.sourceforge.net/DTD/sodipodi-0.dtd"
   xmlns:inkscape="http://www.inkscape.org/namespaces/inkscape"
   width="900"
   height="600"
   viewBox="0 0 9000 6000"
   id="svg2"
   version="1.1"
   inkscape:version="0.48.4 r9939"
   sodipodi:docname="Naval_Ensign_of_the_Soviet_Union.svg">
  <metadata
     id="metadata16">
    <rdf:RDF>
      <cc:Work
         rdf:about="">
        <dc:format>image/svg+xml</dc:format>
        <dc:type
           rdf:resource="http://purl.org/dc/dcmitype/StillImage" />
      </cc:Work>
    </rdf:RDF>
  </metadata>
  <defs
     id="defs14" />
  <sodipodi:namedview
     pagecolor="#ffffff"
     bordercolor="#666666"
     borderopacity="1"
     objecttolerance="10"
     gridtolerance="10"
     guidetolerance="10"
     inkscape:pageopacity="0"
     inkscape:pageshadow="2"
     inkscape:window-width="1600"
     inkscape:window-height="848"
     id="namedview12"
     showgrid="false"
     inkscape:zoom="0.27812867"
     inkscape:cx="-171.23161"
     inkscape:cy="-128.33729"
     inkscape:window-x="-8"
     inkscape:window-y="-8"
     inkscape:window-maximized="1"
     inkscape:current-layer="svg2" />
  <rect
     fill="white"
     width="9000"
     height="6000"
     id="rect4" />
  <rect
     fill="#3399FF"
     y="5000"
     width="9000"
     height="1000"
     id="rect6" />
  <polygon
     fill="#D81E05"
     points="673,2146 1878,2146 2250,1000 2622,2146 3827,2146 2852,2854 3224,4000 2250,3292 1276,4000 1648,2854 "
     id="polygon8" />
  <g
     id="g2989"
     transform="matrix(1.4046123,0,0,1.4046123,-14377.176,-10441.757)"
     style="fill:#d81e05;fill-opacity:1">
    <path
       sodipodi:nodetypes="cccccc"
       inkscape:connector-curvature="0"
       id="rect3008"
       d="m 14926.98,8656.5734 104.869,110.2602 -614.046,584.0207 -250.585,-263.4683 441.106,-419.5374 z"
       style="fill:#d81e05;fill-opacity:1;stroke:none" />
    <path
       sodipodi:nodetypes="csccszcsscssc"
       transform="scale(10,10)"
       inkscape:connector-curvature="0"
       id="path3011"
       d="m 1469.5863,962.10198 c 0.7959,0.57096 0.8596,0.6811 1.6521,1.22909 25.789,17.83408 49.736,23.38729 70.7108,9.12656 51.7693,-48.63899 4.832,-106.01821 -49.4607,-141.39691 39.4944,11.76451 89.7926,39.19304 100.1147,83.8976 4.3668,18.91258 7.2368,40.75525 -16.0142,67.35101 -23.2511,26.59577 -79.3477,30.30717 -103.9195,0.31779 -0.9074,0.45005 -2.1122,0.49075 -2.3024,1.09782 -3.6427,11.62732 -12.428,7.43396 -15.4942,12.24964 -6.2555,9.82472 -19.4321,38.83972 -36.7906,25.16042 -17.0718,-19.3828 26.5278,-31.75198 27.2182,-36.82582 1.4413,-10.59336 8.1729,-12.86655 14.3906,-12.57857 3.6411,0.16864 9.8952,-9.62863 9.8952,-9.62863 z"
       style="fill:#d81e05;fill-opacity:1;stroke:none" />
    <path
       sodipodi:nodetypes="ccccc"
       transform="scale(10,10)"
       inkscape:connector-curvature="0"
       id="path3013"
       d="m 1462.0032,912.35543 114.8187,112.88927 c 11.3435,9.6582 24.6744,-7.109 16.1795,-14.3818 L 1472.3401,897.07473 z"
       style="fill:#d81e05;fill-opacity:1;stroke:none" />
  </g>
</svg>
