<?xml version="1.0" encoding="UTF-8" standalone="no"?>
<!-- Created with Inkscape (http://www.inkscape.org/) -->

<svg
   xmlns:dc="http://purl.org/dc/elements/1.1/"
   xmlns:cc="http://creativecommons.org/ns#"
   xmlns:rdf="http://www.w3.org/1999/02/22-rdf-syntax-ns#"
   xmlns:svg="http://www.w3.org/2000/svg"
   xmlns="http://www.w3.org/2000/svg"
   xmlns:sodipodi="http://sodipodi.sourceforge.net/DTD/sodipodi-0.dtd"
   xmlns:inkscape="http://www.inkscape.org/namespaces/inkscape"
   version="1.1"
   width="750"
   height="500"
   id="svg12523"
   inkscape:version="0.47 r22583"
   sodipodi:docname="1.svg">
  <metadata
     id="metadata12602">
    <rdf:RDF>
      <cc:Work
         rdf:about="">
        <dc:format>image/svg+xml</dc:format>
        <dc:type
           rdf:resource="http://purl.org/dc/dcmitype/StillImage" />
      </cc:Work>
    </rdf:RDF>
  </metadata>
  <sodipodi:namedview
     pagecolor="#ffffff"
     bordercolor="#666666"
     borderopacity="1"
     objecttolerance="10"
     gridtolerance="10"
     guidetolerance="10"
     inkscape:pageopacity="0"
     inkscape:pageshadow="2"
     inkscape:window-width="1366"
     inkscape:window-height="706"
     id="namedview12600"
     showgrid="false"
     inkscape:zoom="0.472"
     inkscape:cx="375"
     inkscape:cy="250"
     inkscape:window-x="-8"
     inkscape:window-y="-8"
     inkscape:window-maximized="1"
     inkscape:current-layer="svg12523" />
  <defs
     id="defs12525" />
  <g
     transform="translate(-685.35712,25.494965)"
     id="layer1">
    <rect
       width="750"
       height="166.66701"
       x="685.35712"
       y="307.83804"
       id="rect14599"
       style="fill:#da121a;fill-opacity:1;stroke:none" />
    <rect
       width="750"
       height="166.66501"
       x="685.35712"
       y="141.17282"
       id="rect14601"
       style="fill:#0f47af;fill-opacity:1;stroke:none" />
    <rect
       width="750"
       height="166.66501"
       x="685.35712"
       y="-25.494965"
       id="rect14603"
       style="fill:#fcdd09;fill-opacity:1;stroke:none" />
    <g
       transform="matrix(9.210458,0,0,9.210458,-2022.1738,-1202.5015)"
       id="g14630">
      <path
         d="m 542.88123,499.92217 2.20535,6.77609 7.12594,0.003 -5.76296,4.19135 2.19872,6.77825 -5.76705,-4.18571 -5.76706,4.18571 2.19872,-6.77825 -5.76296,-4.19135 7.12594,-0.003 2.20536,-6.77609 z"
         transform="matrix(0.53518975,0,0,0.53518975,8.660188,-135.46497)"
         id="path14607"
         style="color:#000000;fill:#0f47af;fill-opacity:1;fill-rule:nonzero;stroke:none;stroke-width:0.1;marker:none;visibility:visible;display:inline;overflow:visible;filter:url(#filter3714-7);enable-background:accumulate" />
      <path
         d="m 542.88123,499.92217 2.20535,6.77609 7.12594,0.003 -5.76296,4.19135 2.19872,6.77825 -5.76705,-4.18571 -5.76706,4.18571 2.19872,-6.77825 -5.76296,-4.19135 7.12594,-0.003 2.20536,-6.77609 z"
         transform="matrix(0.53518975,0,0,0.53518975,18.795225,-135.46497)"
         id="path14609"
         style="color:#000000;fill:#0f47af;fill-opacity:1;fill-rule:nonzero;stroke:none;stroke-width:0.1;marker:none;visibility:visible;display:inline;overflow:visible;filter:url(#filter3714-7);enable-background:accumulate" />
      <path
         d="m 542.88123,499.92217 2.20535,6.77609 7.12594,0.003 -5.76296,4.19135 2.19872,6.77825 -5.76705,-4.18571 -5.76706,4.18571 2.19872,-6.77825 -5.76296,-4.19135 7.12594,-0.003 2.20536,-6.77609 z"
         transform="matrix(0.53518975,0,0,0.53518975,28.930229,-135.46497)"
         id="path14611"
         style="color:#000000;fill:#0f47af;fill-opacity:1;fill-rule:nonzero;stroke:none;stroke-width:0.1;marker:none;visibility:visible;display:inline;overflow:visible;filter:url(#filter3714-7);enable-background:accumulate" />
      <path
         d="m 542.88123,499.92217 2.20535,6.77609 7.12594,0.003 -5.76296,4.19135 2.19872,6.77825 -5.76705,-4.18571 -5.76706,4.18571 2.19872,-6.77825 -5.76296,-4.19135 7.12594,-0.003 2.20536,-6.77609 z"
         transform="matrix(0.53518975,0,0,0.53518975,39.065322,-135.46497)"
         id="path14613"
         style="color:#000000;fill:#0f47af;fill-opacity:1;fill-rule:nonzero;stroke:none;stroke-width:0.1;marker:none;visibility:visible;display:inline;overflow:visible;filter:url(#filter3714-7);enable-background:accumulate" />
      <path
         d="m 542.88123,499.92217 2.20535,6.77609 7.12594,0.003 -5.76296,4.19135 2.19872,6.77825 -5.76705,-4.18571 -5.76706,4.18571 2.19872,-6.77825 -5.76296,-4.19135 7.12594,-0.003 2.20536,-6.77609 z"
         transform="matrix(0.53518975,0,0,0.53518975,49.20036,-135.46497)"
         id="path14615"
         style="color:#000000;fill:#0f47af;fill-opacity:1;fill-rule:nonzero;stroke:none;stroke-width:0.1;marker:none;visibility:visible;display:inline;overflow:visible;filter:url(#filter3714-7);enable-background:accumulate" />
      <path
         d="m 542.88123,499.92217 2.20535,6.77609 7.12594,0.003 -5.76296,4.19135 2.19872,6.77825 -5.76705,-4.18571 -5.76706,4.18571 2.19872,-6.77825 -5.76296,-4.19135 7.12594,-0.003 2.20536,-6.77609 z"
         transform="matrix(0.53518975,0,0,0.53518975,59.335386,-135.46497)"
         id="path14617"
         style="color:#000000;fill:#0f47af;fill-opacity:1;fill-rule:nonzero;stroke:none;stroke-width:0.1;marker:none;visibility:visible;display:inline;overflow:visible;filter:url(#filter3714-7);enable-background:accumulate" />
      <path
         d="m 542.88123,499.92217 2.20535,6.77609 7.12594,0.003 -5.76296,4.19135 2.19872,6.77825 -5.76705,-4.18571 -5.76706,4.18571 2.19872,-6.77825 -5.76296,-4.19135 7.12594,-0.003 2.20536,-6.77609 z"
         transform="matrix(0.53518975,0,0,0.53518975,69.470421,-135.46497)"
         id="path14619"
         style="color:#000000;fill:#0f47af;fill-opacity:1;fill-rule:nonzero;stroke:none;stroke-width:0.1;marker:none;visibility:visible;display:inline;overflow:visible;filter:url(#filter3714-7);enable-background:accumulate" />
      <path
         d="m 542.88123,499.92217 2.20535,6.77609 7.12594,0.003 -5.76296,4.19135 2.19872,6.77825 -5.76705,-4.18571 -5.76706,4.18571 2.19872,-6.77825 -5.76296,-4.19135 7.12594,-0.003 2.20536,-6.77609 z"
         transform="matrix(0.53518975,0,0,0.53518975,79.605456,-135.46497)"
         id="path14628"
         style="color:#000000;fill:#0f47af;fill-opacity:1;fill-rule:nonzero;stroke:none;stroke-width:0.1;marker:none;visibility:visible;display:inline;overflow:visible;filter:url(#filter3714-7);enable-background:accumulate" />
    </g>
  </g>
</svg>
