<?xml version="1.0" encoding="UTF-8" standalone="no"?>
<!-- Created with Inkscape (http://www.inkscape.org/) -->

<svg
   xmlns:dc="http://purl.org/dc/elements/1.1/"
   xmlns:cc="http://creativecommons.org/ns#"
   xmlns:rdf="http://www.w3.org/1999/02/22-rdf-syntax-ns#"
   xmlns:svg="http://www.w3.org/2000/svg"
   xmlns="http://www.w3.org/2000/svg"
   version="1.1"
   width="900"
   height="600"
   id="svg2">
  <metadata
     id="metadata14">
    <rdf:RDF>
      <cc:Work
         rdf:about="">
        <dc:format>image/svg+xml</dc:format>
        <dc:type
           rdf:resource="http://purl.org/dc/dcmitype/StillImage" />
        <dc:title></dc:title>
      </cc:Work>
    </rdf:RDF>
  </metadata>
  <defs
     id="defs12" />
  <rect
     width="900"
     height="600"
     x="0"
     y="0"
     id="rect4"
     style="fill:#da251d" />
  <path
     d="m 469.7419,101.29845 c 89.80315,0.59431 173.89489,71.95459 185.0104,161.83987 9.318,47.90717 -6.83029,95.41934 -31.30791,136.00553 11.02091,11.35038 22.12605,22.6326 33.3771,33.77301 -15.52474,15.63414 -31.04197,31.27308 -46.67503,46.79715 -11.13555,-11.34825 -22.36719,-22.58406 -33.76937,-33.64692 -45.54403,28.67596 -101.86078,41.62533 -154.86504,29.24176 -39.32965,-7.04971 -72.6111,-30.92911 -102.89236,-55.67623 -21.95678,19.04337 -44.08264,37.88991 -66.02528,56.95068 C 241.74254,463.69071 230.77434,450.91647 220,437.97261 c 31.44255,-28.34199 62.78805,-56.96952 96.50171,-82.61469 36.41873,35.8395 84.92266,59.45787 136.4587,60.80214 26.62839,3.53037 52.25173,-6.8718 76.10961,-17.26965 -42.11031,-42.68178 -85.72727,-83.86641 -127.29831,-127.09404 -12.67046,12.27183 -25.24277,24.64142 -37.8813,36.94488 -17.39291,-18.0667 -35.28201,-35.63736 -52.72435,-53.64922 33.07709,-28.00324 60.20264,-62.58165 93.41581,-90.1989 20.89404,-2.26648 43.93933,-0.28473 61.44999,-14.93838 10.04661,9.6551 19.95439,19.4572 29.74671,29.38256 -15.78122,14.98284 -31.8543,29.66424 -47.12123,45.17684 42.1485,42.75874 84.46967,85.35726 127.43085,127.30443 34.53233,-65.20737 13.87695,-148.15964 -35.38699,-199.99625 -19.28021,-22.3948 -45.67826,-36.19523 -70.9593,-50.52388 z m 0,0"
     id="path16"
     style="fill:#fdfa00;fill-rule:nonzero;stroke:none" />
</svg>
