<svg xmlns="http://www.w3.org/2000/svg" width="484.91" height="323.27" viewBox="0 0 484.90842 323.27228"><defs><clipPath><path d="m306.04 18.244h55.02v60.833h-55.02v-60.833"/></clipPath><clipPath><path d="m114.09 43.74h92.64v14.93h-92.64v-14.93"/></clipPath><clipPath><path d="m463.63 36.824h95.65v23.674h-95.65v-23.674"/></clipPath><clipPath><path d="m537.24 45.09h15.962v7.01h-15.962v-7.01"/></clipPath><clipPath><path d="m217.78 35.528h77.22v26.26h-77.22v-26.26"/></clipPath><clipPath><path d="m537.24 52.1h15.962v-7.01h-15.962v7.01"/></clipPath><clipPath><path d="m372.49 34.655h80.01v28.01h-80.01v-28.01"/></clipPath><clipPath><path d="m0 0h595.28v595.28h-595.28v-595.28"/></clipPath><clipPath><path d="m52.46 227.55h221.4v64.847h-221.4v-64.847"/></clipPath><clipPath><path d="m318.61 217.36h62.932v35.439h-62.932v-35.439"/></clipPath><clipPath><path d="m319.75 236.25h59.77v84.28h-59.77v-84.28"/></clipPath><clipPath><path d="m424.37 189.58h139.72v140.79h-139.72v-140.79"/></clipPath><clipPath><path d="m316.68 217.36h64.865v113.01h-64.865v-113.01"/></clipPath></defs><g transform="matrix(1.25 0 0-1.25-38.438 709.23)"><path d="m30.751 308.76h387.93v258.62h-387.93v-258.62" fill="#0020a3"/><g transform="matrix(2.93357 0 0 2.93357-510.84-324.87)"><g fill="#fee533"><path d="m0 0c-.042-.131-.165-.22-.303-.22h-3.215l-.993-3.059c-.042-.131-.165-.221-.303-.221-.138 0-.261.09-.303.221l-.995 3.059h-3.215c-.138 0-.261.089-.303.22-.043.133.003.276.116.357l2.6 1.89-.992 3.057c-.044.132.003.276.116.357.055.041.121.062.187.062.065 0 .131-.021.186-.062l2.603-1.889 2.601 1.889c.112.081.262.081.374 0 .113-.081.159-.225.116-.357l-.994-3.057 2.601-1.89c.113-.081.159-.224.116-.357" transform="matrix(.57254 0 0-.57603 273.83 242.41)"/><path d="m0 0h-3.215l-.993-3.059c-.042-.131-.165-.22-.303-.22-.138 0-.261.089-.303.22l-.995 3.059h-3.215c-.138 0-.261.089-.303.22-.043.133.003.277.116.358l2.601 1.889-.993 3.057c-.044.132.002.277.115.358.112.08.263.08.374 0l2.603-1.89 2.601 1.89c.056.04.121.061.187.061.065 0 .131-.021.187-.061.113-.081.159-.225.115-.358l-.992-3.057 2.6-1.889c.113-.081.159-.225.116-.358-.042-.131-.165-.22-.303-.22" transform="matrix(.57254 0 0-.57603 232.98 242.54)"/><path d="m0 0h-3.215l-.993-3.059c-.042-.131-.165-.22-.303-.22-.138 0-.261.089-.303.22l-.995 3.059h-3.215c-.138 0-.261.089-.303.22-.043.133.003.277.116.358l2.601 1.888-.993 3.058c-.044.133.002.277.115.358.112.08.263.08.374 0l2.603-1.89 2.601 1.89c.056.04.121.061.187.061.065 0 .131-.021.187-.061.113-.081.159-.225.115-.358l-.992-3.058 2.6-1.888c.113-.081.159-.225.116-.358-.042-.131-.165-.22-.303-.22" transform="matrix(.57254 0 0-.57603 253.31 231.17)"/><path d="m0 0h-3.215l-.993-3.059c-.042-.131-.165-.22-.303-.22-.138 0-.261.089-.303.22l-.995 3.059h-3.215c-.138 0-.261.089-.303.22-.043.133.004.277.116.358l2.601 1.888-.994 3.058c-.043.133.003.277.116.358.112.08.263.08.374 0l2.603-1.89 2.601 1.89c.056.04.121.061.187.061.065 0 .131-.021.187-.061.113-.081.159-.225.115-.358l-.992-3.058 2.6-1.888c.113-.081.159-.225.116-.358-.042-.131-.165-.22-.303-.22" transform="matrix(.57254 0 0-.57603 263.56 236.27)"/><path d="m0 0h-3.215l-.993-3.059c-.042-.131-.165-.22-.303-.22-.138 0-.261.089-.303.22l-.995 3.059h-3.215c-.138 0-.261.089-.303.22-.043.133.004.277.116.358l2.601 1.888-.993 3.058c-.044.133.002.277.115.358.112.08.263.08.374 0l2.603-1.89 2.601 1.89c.056.04.121.061.187.061.065 0 .131-.021.187-.061.113-.081.159-.225.115-.358l-.992-3.058 2.6-1.888c.113-.081.159-.225.116-.358-.042-.131-.165-.22-.303-.22" transform="matrix(.57254 0 0-.57603 243.05 236.27)"/></g><path d="m0 0c-2.209 0-4.01-1.795-4.01-4 0-2.209 1.797-4.01 4.01-4.01 2.211 0 4.01 1.798 4.01 4.01 0 2.206-1.797 4-4.01 4m39.42 45.38c-.358 0-.682.158-.908.436-1.596 2.236-3.445 4.658-3.8 4.875-.273.158-30.509 17.455-31.04 17.743-.001.004-.017.009-.017.009-.009-.017-.009-.042-.009-.069v-46.25l5.207.008c1.175-.016 2.25-.666 2.812-1.694.005-.009 1.526-2.976 1.742-3.38.319-.57.129-1.134-.241-1.345-.159-.087-.336-.132-.517-.132-.117 0-9-.018-9-.018v-9.917c0-.11.042-.24.363-.373 3.711-1.615 6.106-5.255 6.106-9.275 0-5.581-4.538-10.122-10.117-10.122-5.578 0-10.115 4.541-10.115 10.122 0 4.02 2.394 7.66 6.105 9.275.322.133.364.263.364.373v9.917c0 0-8.886.018-9 .018-.18 0-.359.045-.518.132-.37.211-.56.775-.24 1.345.214.404 1.737 3.371 1.742 3.38.561 1.028 1.636 1.678 2.81 1.694l5.209-.008v46.25c0 .027 0 .052-.002.073-.008-.004-.016-.009-.024-.013-.529-.288-30.764-17.585-31.04-17.743-.356-.217-2.205-2.639-3.801-4.875-.224-.278-.55-.436-.909-.436-.456.006-.93.437-.93 1.152v7.22c0 1.302.705 2.516 1.843 3.167l38.506 21.573 38.506-21.573c1.138-.651 1.842-1.865 1.842-3.167v-7.22c0-.715-.474-1.146-.931-1.152" fill="#fff" transform="matrix(.57254 0 0-.57603 250.74 284.26)"/></g></g></svg>