<svg xmlns="http://www.w3.org/2000/svg" width="1200" height="800" viewBox="0 0 615 410">
<rect fill="#006233" width="615" height="410"/> 
<circle fill="#fff" cx="307.5" cy="208" r="144"/>
<path fill="#ce1126" d="M 371.12451,117.55371 C 397.76709,137.3623 415.96045,169.09961 415.96045,204.85059 C 415.96045,264.88135 367.30029,313.5415 307.28174,313.5415 C 247.23975,313.5415 198.59131,264.88135 198.59131,204.85059 C 198.59131,168.92285 216.56201,137.3418 243.41553,117.55371 C 227.08545,133.89648 216.98486,156.4707 216.98486,181.4082 C 216.98486,231.27197 257.40674,271.70361 307.28174,271.70361 C 357.13428,271.70361 397.55518,231.27197 397.55518,181.4082 C 397.55518,156.4707 387.45654,133.89648 371.12451,117.55371"/>
<polyline points="257.875,219.967 253.406,215.508 248.945,219.967 253.406,224.426 257.875,219.967"/>
<path d="M 243.94092,126.1709 C 243.94092,130.89746 241.31982,137.20703 238.1665,140.88574 C 235.02295,144.55371 232.39111,148.23242 235.02295,150.86426 C 237.64209,153.49414 245.01123,151.91211 246.05908,145.07715 C 242.36865,146.65918 238.69092,146.13672 240.27197,141.93359 C 241.84521,137.73047 246.05908,132.46973 243.94092,126.1709"/>
<path d="M 265.49951,108.30176 C 267.07178,103.56348 275.21045,99.360352 278.8999,102.51465 C 282.57764,105.68164 278.10791,121.16504 258.13135,117.48633 C 264.18408,116.70605 277.85205,115.6582 275.74463,105.9375 C 274.95264,103.03906 269.95947,104.08691 265.49951,108.30176"/>
<path d="M 258.65576,124.58789 C 267.33936,124.33203 285.46436,117.48633 292.56787,107.25391 C 297.81689,99.360351 302.54346,99.360351 304.90771,100.15137 C 307.28174,100.94434 308.32861,105.68164 306.479,111.45605 C 305.43213,113.2959 304.63916,122.74902 304.90771,124.85547 C 302.27686,119.59375 301.48486,114.0752 302.27686,110.39648 C 303.06787,106.72949 300.96045,106.20605 297.81689,109.0918 C 294.66357,111.98047 275.74463,129.58203 258.65576,124.58789"/>
<path d="M 282.31104,138.77832 C 277.32764,143.2373 270.22607,150.59473 263.13721,155.33398 L 264.18408,156.38086 C 271.2749,150.59473 280.47119,142.98145 282.57764,140.35156 L 282.31104,138.77832"/>
<path d="M 263.13721,139.82617 C 253.40576,150.32812 238.646,168.82227 235.27881,175.55469 C 230.55127,185.01855 233.70752,196.83496 237.38428,198.41797 C 241.05322,199.99121 246.84912,199.99121 252.88037,191.58594 C 258.92334,183.16895 268.11963,171.61914 272.59033,169.25684 C 277.06006,166.88184 283.10303,165.83398 285.98975,170.30469 C 288.87842,174.77441 295.18701,179.75781 299.65674,177.66211 C 304.11572,175.55469 312.26416,168.47559 311.47217,157.69727 C 310.69287,146.91699 303.59131,139.30371 301.22803,134.30859 C 298.86475,129.31445 293.87158,123.01562 290.19189,124.33203 C 286.51318,125.64648 286.771,134.04102 292.56787,137.98633 C 298.34229,141.93359 305.68701,146.91699 306.73584,149.54687 C 307.80713,152.17871 311.74072,162.1543 303.59131,168.47559 C 295.45459,174.77441 293.34717,168.47559 290.44775,164.26172 C 287.56006,160.05957 280.99561,155.85742 273.63818,162.94629 C 266.27979,170.04883 255.24561,184.22656 251.56592,187.65039 C 247.89697,191.06152 243.68506,191.58594 240.52979,188.96582 C 237.38428,186.33398 237.11865,171.36328 256.82764,149.80469 C 259.18115,147.44043 261.82178,143.2373 263.13721,139.82617"/>
<path fill="#fff" d="M 297.81689,129.58203 C 295.18701,126.95117 293.34717,125.90332 291.77588,125.11133 C 290.19189,124.33203 289.1333,129.31445 290.19189,131.1543 C 291.25146,132.99316 294.9292,137.46387 298.59814,139.0459 L 297.81689,129.58203"/>
<path d="M 336.95557,103.03906 C 335.11768,104.35449 333.54443,108.56836 335.90869,110.66406 C 338.28369,112.76074 339.59912,118.27832 337.74854,121.7002 C 339.59912,119.84961 342.48584,115.12305 338.00439,110.66406 C 336.1665,109.0918 336.1665,105.14648 336.95557,103.03906"/>
<path d="M 264.70947,190.53809 C 264.97607,192.89941 263.39209,197.62695 259.45752,201.84082 C 255.51221,206.04297 258.39893,210.50244 259.45752,210.76025 C 260.50537,211.02588 265.75732,212.34229 266.81592,205.50879 C 264.97607,207.61523 263.39209,207.61523 262.08838,206.82422 C 260.77393,206.04297 261.29639,203.68164 263.39209,201.57422 C 265.49951,199.4668 266.54834,194.2168 264.70947,190.53809"/>
<path d="M 323.04443,192.89941 C 322.51025,196.05664 319.0874,205.50879 315.94385,207.87305 C 312.78857,210.23438 313.05518,216.81299 315.41943,218.39502 C 317.78369,219.96729 321.71826,218.91846 323.29053,214.18213 C 321.19482,214.96143 315.15186,215.48486 318.56299,209.45508 C 321.97412,203.41211 324.61572,196.05664 323.04443,192.89941"/>
<path d="M 300.96045,242.02783 C 302.54346,237.30127 305.1626,236.52197 307.00342,237.04541 C 308.85303,237.5708 308.06201,253.06494 295.45459,249.92236 C 299.65674,248.60596 305.95459,245.70557 304.90771,242.02783 C 303.84717,238.3501 301.48486,241.24854 300.96045,242.02783"/>
<path d="M 335.90869,148.49902 C 334.06982,151.12012 333.80225,158.74414 337.47998,158.48828 C 338.80713,157.95312 340.90283,157.69727 341.17139,154.28418 C 341.95166,156.38086 343.26709,156.64941 345.63037,155.58984 C 347.9917,154.54199 346.67822,146.39258 343.26709,143.77344 C 343.53467,145.34473 345.63037,151.38672 343.7915,152.43457 C 341.95166,153.49414 340.90283,151.64258 340.37939,149.80469 C 340.37939,152.17871 340.12354,155.33398 337.74854,155.33398 C 335.38428,155.33398 335.90869,150.86426 335.90869,148.49902"/>
<path d="M 318.56299,105.14648 C 318.03955,110.13965 319.87842,121.44434 321.71826,125.11133 C 323.56885,128.79102 324.61572,140.09473 321.19482,144.55371 C 325.66357,141.14258 328.55127,129.05762 324.88428,122.22461 C 321.19482,115.39062 318.83057,108.0332 318.56299,105.14648"/>
<path d="M 320.40186,124.58789 C 312.53271,120.11719 309.37646,113.02734 315.41943,109.87305 C 312.26416,109.61621 307.53662,118.80176 312.53271,123.28418 C 317.51514,127.74219 329.8667,136.67187 329.8667,154.54199 C 329.07568,172.93652 312.26416,196.05664 277.85205,196.83496 C 292.56787,198.15137 317.51514,200.78223 327.50439,174.50684 C 337.47998,148.23242 328.29541,129.05762 320.40186,124.58789"/>
<path d="M 370.85693,152.17871 C 368.22705,147.44043 352.46338,124.58789 349.83154,116.43848 C 349.66455,120.22949 353.55518,128.74512 359.12939,138.58887 C 357.02295,137.16211 355.01709,136.59375 352.46338,135.88086 C 354.8374,137.73047 359.02783,141.66602 359.8208,146.13672 C 354.2915,144.0293 342.21924,139.57031 349.83154,128.2666 C 346.67822,129.05762 343.26709,134.04102 345.37256,139.0459 C 347.46826,144.0293 348.78467,146.39258 353.76709,148.49902 C 358.77295,150.59473 368.22705,153.49414 363.49951,169.25684 C 364.98291,166.29102 367.62354,158.7334 367.31201,152.14453 C 367.88037,153.03711 368.43799,153.91699 369.00635,154.80957 C 379.26318,170.57129 386.36377,189.49023 375.85107,215.76611 C 365.33936,242.02783 330.39111,255.42822 320.67041,257.26611 C 370.6001,254.12354 380.83545,223.10986 383.72217,202.62207 C 386.62061,182.12109 373.48877,156.90527 370.85693,152.17871"/>
<path d="M 346.67822,168.73242 C 343.00928,167.92969 340.37939,171.61914 340.12354,174.77441 C 339.85596,177.91895 340.90283,180.80566 345.10596,183.95996 C 349.30811,187.12598 351.40479,194.2168 350.1001,198.67383 C 352.1958,196.83496 355.88525,186.07813 351.67139,183.43652 C 347.46826,180.80566 337.74854,175.55469 346.67822,168.73242"/>
<path d="M 348.26025,159.26758 C 349.30811,165.30957 355.6167,179.50195 358.24854,185.54395 C 360.86865,191.58594 367.43506,213.65869 355.6167,223.10986 C 351.14795,226.26611 342.48584,225.99854 337.47998,215.229 C 339.85596,224.17041 333.02295,238.61768 324.35986,240.98096 C 315.67529,243.34424 312.0083,240.45752 309.90088,233.09814 C 307.80713,225.74268 305.68701,222.33057 302.27686,223.10986 C 298.86475,223.90283 295.45459,231.2583 293.34717,238.09424 C 291.25146,244.9165 285.98975,259.37354 278.63135,258.58252 C 271.2749,257.7915 264.70947,249.12939 266.54834,235.20752 C 268.38818,221.28174 278.63135,217.33643 282.0542,203.41211 C 282.0542,210.23437 277.32764,219.69971 273.89404,224.69385 C 270.48389,229.67627 267.33936,250.17822 278.10791,249.92236 C 288.87842,249.65479 289.66748,237.82666 292.29932,229.67627 C 294.9292,221.53955 298.86475,213.12158 302.27686,212.86572 C 305.68701,212.59814 307.53662,215.48486 309.11084,221.01416 C 310.69287,226.53369 314.104,236.25439 321.45068,234.68213 C 328.81982,233.09814 338.00439,227.83838 334.32666,209.45508 C 333.27881,206.56738 334.06982,193.69141 333.80225,188.69824 C 334.32666,199.2002 340.37939,222.06299 351.40479,218.65088 C 362.45166,215.229 360.61182,197.62695 357.20166,188.96582 C 354.56982,185.28613 346.67822,169.00098 348.26025,159.26758"/>
<path d="M 295.71045,118.01074 C 295.71045,123.01562 299.65674,144.55371 295.45459,151.38672 C 297.55029,150.07129 300.70361,144.0293 300.18018,137.20703 C 299.65674,130.3623 295.97705,119.84961 295.71045,118.01074"/>
</svg>