<?xml version="1.0" encoding="UTF-8"?>
<svg version="1.0" xmlns="http://www.w3.org/2000/svg" width="500" height="300">
	<rect width="500" height="300" fill="#10a5ff"/>
	<g fill="#fff">
		<circle cx="195.3" cy="98.1" r="45.3"/>
		<circle cx="302.2" cy="98.1" r="45.3"/>
		<path d="M 244.32759,56.72241 C 247.14792,94.78503 243.39854,242.63201 252.97438,242.52181 C 261.03761,242.42401 260.42642,94.82884 263.32759,56.76894 z" stroke="#fff"/>
		<path d="M 223.01101,168.73333 C 223.01101,168.73333 205.66281,152.2394 182.07605,159.42266 C 162.54205,165.37168 151.00668,180.18506 150.51237,202.09943 C 150.01806,224.01379 164.36022,242.71012 190.22233,245.3517 C 210.71258,247.44459 225.81256,234.14736 225.81256,234.14736 C 225.81256,234.14736 217.74078,227.96396 222.51718,218.32948 C 225.04078,213.23913 237.0169,214.37501 237.0169,214.37501 C 237.90695,208.07248 239.27188,204.35005 236.35783,187.26921 C 236.35783,187.26921 224.65918,189.73692 220.95211,182.32516 C 218.43096,177.28451 223.01101,168.73333 223.01101,168.73333 z" stroke="#fff"/>
		<path d="M 346.97569,182.33205 C 346.97569,182.33205 337.62374,155.69665 306.13285,157.0889 C 282.15583,158.13641 263.37476,177.94553 264.15548,199.91716 C 265.14818,228.13843 283.40586,242.96529 304.71469,244.4472 C 333.99957,246.50352 346.1248,224.02578 346.1248,224.02578 C 346.1248,224.02578 329.48237,219.13355 329.67421,202.46984 C 329.86605,185.80627 346.97569,182.33205 346.97569,182.33205 z" stroke="#fff"/>
	</g>
</svg>