<?xml version="1.0" encoding="UTF-8" standalone="no"?>
<!-- Created with Inkscape (http://www.inkscape.org/) -->

<svg
   xmlns:dc="http://purl.org/dc/elements/1.1/"
   xmlns:cc="http://creativecommons.org/ns#"
   xmlns:rdf="http://www.w3.org/1999/02/22-rdf-syntax-ns#"
   xmlns:svg="http://www.w3.org/2000/svg"
   xmlns="http://www.w3.org/2000/svg"
   xmlns:sodipodi="http://sodipodi.sourceforge.net/DTD/sodipodi-0.dtd"
   xmlns:inkscape="http://www.inkscape.org/namespaces/inkscape"
   width="1350"
   height="750"
   id="svg19427"
   version="1.1"
   inkscape:version="0.47 r22583"
   sodipodi:docname="Flag_of_Setomaa.svg">
  <defs
     id="defs19429">
    <inkscape:perspective
       sodipodi:type="inkscape:persp3d"
       inkscape:vp_x="0 : 526.18109 : 1"
       inkscape:vp_y="0 : 1000 : 0"
       inkscape:vp_z="744.09448 : 526.18109 : 1"
       inkscape:persp3d-origin="372.04724 : 350.78739 : 1"
       id="perspective19435" />
    <inkscape:perspective
       id="perspective19228"
       inkscape:persp3d-origin="0.5 : 0.33333333 : 1"
       inkscape:vp_z="1 : 0.5 : 1"
       inkscape:vp_y="0 : 1000 : 0"
       inkscape:vp_x="0 : 0.5 : 1"
       sodipodi:type="inkscape:persp3d" />
  </defs>
  <sodipodi:namedview
     id="base"
     pagecolor="#ffffff"
     bordercolor="#666666"
     borderopacity="1.0"
     inkscape:pageopacity="0.0"
     inkscape:pageshadow="2"
     inkscape:zoom="0.83333331"
     inkscape:cx="675.00002"
     inkscape:cy="375.00001"
     inkscape:document-units="px"
     inkscape:current-layer="layer1"
     showgrid="false"
     inkscape:window-width="1440"
     inkscape:window-height="850"
     inkscape:window-x="-8"
     inkscape:window-y="-8"
     inkscape:window-maximized="1" />
  <metadata
     id="metadata19432">
    <rdf:RDF>
      <cc:Work
         rdf:about="">
        <dc:format>image/svg+xml</dc:format>
        <dc:type
           rdf:resource="http://purl.org/dc/dcmitype/StillImage" />
        <dc:title />
      </cc:Work>
    </rdf:RDF>
  </metadata>
  <g
     inkscape:label="Layer 1"
     inkscape:groupmode="layer"
     id="layer1"
     transform="translate(572.14287,71.209247)">
    <rect
       id="blue"
       width="1350"
       height="750"
       x="-572.14282"
       y="-71.209244"
       style="fill:#ffffff;display:inline" />
    <path
       style="fill:#ee0017;fill-opacity:1;stroke:none;display:inline"
       d="m -272.14284,-71.20925 0,300 -300,0 0,150 300,0 0,300 150,0 0,-300 900,0 0,-150 -900,0 0,-300 -150,0 z"
       id="path5326" />
    <rect
       y="-71.209251"
       x="-202.14284"
       height="750"
       width="10"
       id="rect6549"
       style="fill:#774b3e;fill-opacity:1;stroke:none" />
    <rect
       style="fill:#774b3e;fill-opacity:1;stroke:none"
       id="rect6987"
       width="1350"
       height="10"
       x="-572.14282"
       y="298.79074" />
    <path
       style="fill:#ffffff;fill-opacity:1;stroke:none;display:inline"
       d="M 300 150 L 300 300 L 450 300 L 450 150 L 300 150 z M 450 300 L 450 450 L 600 450 L 600 300 L 450 300 z M 450 450 L 300 450 L 300 600 L 450 600 L 450 450 z M 300 450 L 300 300 L 150 300 L 150 450 L 300 450 z M 320 160 L 330 160 L 330 170 L 340 170 L 340 180 L 350 180 L 350 190 L 360 190 L 360 200 L 350 200 L 350 210 L 340 210 L 340 200 L 330 200 L 330 190 L 320 190 L 320 180 L 310 180 L 310 170 L 320 170 L 320 160 z M 370 160 L 380 160 L 380 170 L 390 170 L 390 180 L 380 180 L 380 190 L 370 190 L 370 180 L 360 180 L 360 170 L 370 170 L 370 160 z M 420 160 L 430 160 L 430 170 L 440 170 L 440 180 L 430 180 L 430 190 L 420 190 L 420 200 L 410 200 L 410 210 L 400 210 L 400 200 L 390 200 L 390 190 L 400 190 L 400 180 L 410 180 L 410 170 L 420 170 L 420 160 z M 320 210 L 330 210 L 330 220 L 340 220 L 340 230 L 330 230 L 330 240 L 320 240 L 320 230 L 310 230 L 310 220 L 320 220 L 320 210 z M 370 210 L 380 210 L 380 220 L 390 220 L 390 230 L 380 230 L 380 240 L 370 240 L 370 230 L 360 230 L 360 220 L 370 220 L 370 210 z M 420 210 L 430 210 L 430 220 L 440 220 L 440 230 L 430 230 L 430 240 L 420 240 L 420 230 L 410 230 L 410 220 L 420 220 L 420 210 z M 340 240 L 350 240 L 350 250 L 360 250 L 360 260 L 350 260 L 350 270 L 340 270 L 340 280 L 330 280 L 330 290 L 320 290 L 320 280 L 310 280 L 310 270 L 320 270 L 320 260 L 330 260 L 330 250 L 340 250 L 340 240 z M 400 240 L 410 240 L 410 250 L 420 250 L 420 260 L 430 260 L 430 270 L 440 270 L 440 280 L 430 280 L 430 290 L 420 290 L 420 280 L 410 280 L 410 270 L 400 270 L 400 260 L 390 260 L 390 250 L 400 250 L 400 240 z M 370 260 L 380 260 L 380 270 L 390 270 L 390 280 L 380 280 L 380 290 L 370 290 L 370 280 L 360 280 L 360 270 L 370 270 L 370 260 z M 750 300 L 750 450 L 900 450 L 900 300 L 750 300 z M 1050 300 L 1050 450 L 1200 450 L 1200 300 L 1050 300 z M 170 310 L 180 310 L 180 320 L 190 320 L 190 330 L 200 330 L 200 340 L 210 340 L 210 350 L 200 350 L 200 360 L 190 360 L 190 350 L 180 350 L 180 340 L 170 340 L 170 330 L 160 330 L 160 320 L 170 320 L 170 310 z M 220 310 L 230 310 L 230 320 L 240 320 L 240 330 L 230 330 L 230 340 L 220 340 L 220 330 L 210 330 L 210 320 L 220 320 L 220 310 z M 270 310 L 280 310 L 280 320 L 290 320 L 290 330 L 280 330 L 280 340 L 270 340 L 270 350 L 260 350 L 260 360 L 250 360 L 250 350 L 240 350 L 240 340 L 250 340 L 250 330 L 260 330 L 260 320 L 270 320 L 270 310 z M 470 310 L 480 310 L 480 320 L 490 320 L 490 330 L 500 330 L 500 340 L 510 340 L 510 350 L 500 350 L 500 360 L 490 360 L 490 350 L 480 350 L 480 340 L 470 340 L 470 330 L 460 330 L 460 320 L 470 320 L 470 310 z M 520 310 L 530 310 L 530 320 L 540 320 L 540 330 L 530 330 L 530 340 L 520 340 L 520 330 L 510 330 L 510 320 L 520 320 L 520 310 z M 570 310 L 580 310 L 580 320 L 590 320 L 590 330 L 580 330 L 580 340 L 570 340 L 570 350 L 560 350 L 560 360 L 550 360 L 550 350 L 540 350 L 540 340 L 550 340 L 550 330 L 560 330 L 560 320 L 570 320 L 570 310 z M 770 310 L 780 310 L 780 320 L 790 320 L 790 330 L 800 330 L 800 340 L 810 340 L 810 350 L 800 350 L 800 360 L 790 360 L 790 350 L 780 350 L 780 340 L 770 340 L 770 330 L 760 330 L 760 320 L 770 320 L 770 310 z M 820 310 L 830 310 L 830 320 L 840 320 L 840 330 L 830 330 L 830 340 L 820 340 L 820 330 L 810 330 L 810 320 L 820 320 L 820 310 z M 870 310 L 880 310 L 880 320 L 890 320 L 890 330 L 880 330 L 880 340 L 870 340 L 870 350 L 860 350 L 860 360 L 850 360 L 850 350 L 840 350 L 840 340 L 850 340 L 850 330 L 860 330 L 860 320 L 870 320 L 870 310 z M 1070 310 L 1080 310 L 1080 320 L 1090 320 L 1090 330 L 1100 330 L 1100 340 L 1110 340 L 1110 350 L 1100 350 L 1100 360 L 1090 360 L 1090 350 L 1080 350 L 1080 340 L 1070 340 L 1070 330 L 1060 330 L 1060 320 L 1070 320 L 1070 310 z M 1120 310 L 1130 310 L 1130 320 L 1140 320 L 1140 330 L 1130 330 L 1130 340 L 1120 340 L 1120 330 L 1110 330 L 1110 320 L 1120 320 L 1120 310 z M 1170 310 L 1180 310 L 1180 320 L 1190 320 L 1190 330 L 1180 330 L 1180 340 L 1170 340 L 1170 350 L 1160 350 L 1160 360 L 1150 360 L 1150 350 L 1140 350 L 1140 340 L 1150 340 L 1150 330 L 1160 330 L 1160 320 L 1170 320 L 1170 310 z M 170 360 L 180 360 L 180 370 L 190 370 L 190 380 L 180 380 L 180 390 L 170 390 L 170 380 L 160 380 L 160 370 L 170 370 L 170 360 z M 220 360 L 230 360 L 230 370 L 240 370 L 240 380 L 230 380 L 230 390 L 220 390 L 220 380 L 210 380 L 210 370 L 220 370 L 220 360 z M 270 360 L 280 360 L 280 370 L 290 370 L 290 380 L 280 380 L 280 390 L 270 390 L 270 380 L 260 380 L 260 370 L 270 370 L 270 360 z M 470 360 L 480 360 L 480 370 L 490 370 L 490 380 L 480 380 L 480 390 L 470 390 L 470 380 L 460 380 L 460 370 L 470 370 L 470 360 z M 520 360 L 530 360 L 530 370 L 540 370 L 540 380 L 530 380 L 530 390 L 520 390 L 520 380 L 510 380 L 510 370 L 520 370 L 520 360 z M 570 360 L 580 360 L 580 370 L 590 370 L 590 380 L 580 380 L 580 390 L 570 390 L 570 380 L 560 380 L 560 370 L 570 370 L 570 360 z M 770 360 L 780 360 L 780 370 L 790 370 L 790 380 L 780 380 L 780 390 L 770 390 L 770 380 L 760 380 L 760 370 L 770 370 L 770 360 z M 820 360 L 830 360 L 830 370 L 840 370 L 840 380 L 830 380 L 830 390 L 820 390 L 820 380 L 810 380 L 810 370 L 820 370 L 820 360 z M 870 360 L 880 360 L 880 370 L 890 370 L 890 380 L 880 380 L 880 390 L 870 390 L 870 380 L 860 380 L 860 370 L 870 370 L 870 360 z M 1070 360 L 1080 360 L 1080 370 L 1090 370 L 1090 380 L 1080 380 L 1080 390 L 1070 390 L 1070 380 L 1060 380 L 1060 370 L 1070 370 L 1070 360 z M 1120 360 L 1130 360 L 1130 370 L 1140 370 L 1140 380 L 1130 380 L 1130 390 L 1120 390 L 1120 380 L 1110 380 L 1110 370 L 1120 370 L 1120 360 z M 1170 360 L 1180 360 L 1180 370 L 1190 370 L 1190 380 L 1180 380 L 1180 390 L 1170 390 L 1170 380 L 1160 380 L 1160 370 L 1170 370 L 1170 360 z M 190 390 L 200 390 L 200 400 L 210 400 L 210 410 L 200 410 L 200 420 L 190 420 L 190 430 L 180 430 L 180 440 L 170 440 L 170 430 L 160 430 L 160 420 L 170 420 L 170 410 L 180 410 L 180 400 L 190 400 L 190 390 z M 250 390 L 260 390 L 260 400 L 270 400 L 270 410 L 280 410 L 280 420 L 290 420 L 290 430 L 280 430 L 280 440 L 270 440 L 270 430 L 260 430 L 260 420 L 250 420 L 250 410 L 240 410 L 240 400 L 250 400 L 250 390 z M 490 390 L 500 390 L 500 400 L 510 400 L 510 410 L 500 410 L 500 420 L 490 420 L 490 430 L 480 430 L 480 440 L 470 440 L 470 430 L 460 430 L 460 420 L 470 420 L 470 410 L 480 410 L 480 400 L 490 400 L 490 390 z M 550 390 L 560 390 L 560 400 L 570 400 L 570 410 L 580 410 L 580 420 L 590 420 L 590 430 L 580 430 L 580 440 L 570 440 L 570 430 L 560 430 L 560 420 L 550 420 L 550 410 L 540 410 L 540 400 L 550 400 L 550 390 z M 790 390 L 800 390 L 800 400 L 810 400 L 810 410 L 800 410 L 800 420 L 790 420 L 790 430 L 780 430 L 780 440 L 770 440 L 770 430 L 760 430 L 760 420 L 770 420 L 770 410 L 780 410 L 780 400 L 790 400 L 790 390 z M 850 390 L 860 390 L 860 400 L 870 400 L 870 410 L 880 410 L 880 420 L 890 420 L 890 430 L 880 430 L 880 440 L 870 440 L 870 430 L 860 430 L 860 420 L 850 420 L 850 410 L 840 410 L 840 400 L 850 400 L 850 390 z M 1090 390 L 1100 390 L 1100 400 L 1110 400 L 1110 410 L 1100 410 L 1100 420 L 1090 420 L 1090 430 L 1080 430 L 1080 440 L 1070 440 L 1070 430 L 1060 430 L 1060 420 L 1070 420 L 1070 410 L 1080 410 L 1080 400 L 1090 400 L 1090 390 z M 1150 390 L 1160 390 L 1160 400 L 1170 400 L 1170 410 L 1180 410 L 1180 420 L 1190 420 L 1190 430 L 1180 430 L 1180 440 L 1170 440 L 1170 430 L 1160 430 L 1160 420 L 1150 420 L 1150 410 L 1140 410 L 1140 400 L 1150 400 L 1150 390 z M 220 410 L 230 410 L 230 420 L 240 420 L 240 430 L 230 430 L 230 440 L 220 440 L 220 430 L 210 430 L 210 420 L 220 420 L 220 410 z M 520 410 L 530 410 L 530 420 L 540 420 L 540 430 L 530 430 L 530 440 L 520 440 L 520 430 L 510 430 L 510 420 L 520 420 L 520 410 z M 820 410 L 830 410 L 830 420 L 840 420 L 840 430 L 830 430 L 830 440 L 820 440 L 820 430 L 810 430 L 810 420 L 820 420 L 820 410 z M 1120 410 L 1130 410 L 1130 420 L 1140 420 L 1140 430 L 1130 430 L 1130 440 L 1120 440 L 1120 430 L 1110 430 L 1110 420 L 1120 420 L 1120 410 z M 320 460 L 330 460 L 330 470 L 340 470 L 340 480 L 350 480 L 350 490 L 360 490 L 360 500 L 350 500 L 350 510 L 340 510 L 340 500 L 330 500 L 330 490 L 320 490 L 320 480 L 310 480 L 310 470 L 320 470 L 320 460 z M 370 460 L 380 460 L 380 470 L 390 470 L 390 480 L 380 480 L 380 490 L 370 490 L 370 480 L 360 480 L 360 470 L 370 470 L 370 460 z M 420 460 L 430 460 L 430 470 L 440 470 L 440 480 L 430 480 L 430 490 L 420 490 L 420 500 L 410 500 L 410 510 L 400 510 L 400 500 L 390 500 L 390 490 L 400 490 L 400 480 L 410 480 L 410 470 L 420 470 L 420 460 z M 320 510 L 330 510 L 330 520 L 340 520 L 340 530 L 330 530 L 330 540 L 320 540 L 320 530 L 310 530 L 310 520 L 320 520 L 320 510 z M 370 510 L 380 510 L 380 520 L 390 520 L 390 530 L 380 530 L 380 540 L 370 540 L 370 530 L 360 530 L 360 520 L 370 520 L 370 510 z M 420 510 L 430 510 L 430 520 L 440 520 L 440 530 L 430 530 L 430 540 L 420 540 L 420 530 L 410 530 L 410 520 L 420 520 L 420 510 z M 340 540 L 350 540 L 350 550 L 360 550 L 360 560 L 350 560 L 350 570 L 340 570 L 340 580 L 330 580 L 330 590 L 320 590 L 320 580 L 310 580 L 310 570 L 320 570 L 320 560 L 330 560 L 330 550 L 340 550 L 340 540 z M 400 540 L 410 540 L 410 550 L 420 550 L 420 560 L 430 560 L 430 570 L 440 570 L 440 580 L 430 580 L 430 590 L 420 590 L 420 580 L 410 580 L 410 570 L 400 570 L 400 560 L 390 560 L 390 550 L 400 550 L 400 540 z M 370 560 L 380 560 L 380 570 L 390 570 L 390 580 L 380 580 L 380 590 L 370 590 L 370 580 L 360 580 L 360 570 L 370 570 L 370 560 z "
       transform="translate(-572.14287,-71.209247)"
       id="path5539" />
    <path
       style="fill:#ffffff;fill-opacity:1;stroke:none;display:inline"
       d="M 320 10 L 320 20 L 310 20 L 310 30 L 320 30 L 320 40 L 330 40 L 330 50 L 340 50 L 340 60 L 350 60 L 350 50 L 360 50 L 360 40 L 350 40 L 350 30 L 340 30 L 340 20 L 330 20 L 330 10 L 320 10 z M 370 10 L 370 20 L 360 20 L 360 30 L 370 30 L 370 40 L 380 40 L 380 30 L 390 30 L 390 20 L 380 20 L 380 10 L 370 10 z M 420 10 L 420 20 L 410 20 L 410 30 L 400 30 L 400 40 L 390 40 L 390 50 L 400 50 L 400 60 L 410 60 L 410 50 L 420 50 L 420 40 L 430 40 L 430 30 L 440 30 L 440 20 L 430 20 L 430 10 L 420 10 z M 320 60 L 320 70 L 310 70 L 310 80 L 320 80 L 320 90 L 330 90 L 330 80 L 340 80 L 340 70 L 330 70 L 330 60 L 320 60 z M 370 60 L 370 70 L 360 70 L 360 80 L 370 80 L 370 90 L 380 90 L 380 80 L 390 80 L 390 70 L 380 70 L 380 60 L 370 60 z M 420 60 L 420 70 L 410 70 L 410 80 L 420 80 L 420 90 L 430 90 L 430 80 L 440 80 L 440 70 L 430 70 L 430 60 L 420 60 z M 340 90 L 340 100 L 330 100 L 330 110 L 320 110 L 320 120 L 310 120 L 310 130 L 320 130 L 320 140 L 330 140 L 330 130 L 340 130 L 340 120 L 350 120 L 350 110 L 360 110 L 360 100 L 350 100 L 350 90 L 340 90 z M 400 90 L 400 100 L 390 100 L 390 110 L 400 110 L 400 120 L 410 120 L 410 130 L 420 130 L 420 140 L 430 140 L 430 130 L 440 130 L 440 120 L 430 120 L 430 110 L 420 110 L 420 100 L 410 100 L 410 90 L 400 90 z M 370 110 L 370 120 L 360 120 L 360 130 L 370 130 L 370 140 L 380 140 L 380 130 L 390 130 L 390 120 L 380 120 L 380 110 L 370 110 z M 20 310 L 20 320 L 10 320 L 10 330 L 20 330 L 20 340 L 30 340 L 30 350 L 40 350 L 40 360 L 50 360 L 50 350 L 60 350 L 60 340 L 50 340 L 50 330 L 40 330 L 40 320 L 30 320 L 30 310 L 20 310 z M 70 310 L 70 320 L 60 320 L 60 330 L 70 330 L 70 340 L 80 340 L 80 330 L 90 330 L 90 320 L 80 320 L 80 310 L 70 310 z M 120 310 L 120 320 L 110 320 L 110 330 L 100 330 L 100 340 L 90 340 L 90 350 L 100 350 L 100 360 L 110 360 L 110 350 L 120 350 L 120 340 L 130 340 L 130 330 L 140 330 L 140 320 L 130 320 L 130 310 L 120 310 z M 320 310 L 320 320 L 310 320 L 310 330 L 320 330 L 320 340 L 330 340 L 330 350 L 340 350 L 340 360 L 350 360 L 350 350 L 360 350 L 360 340 L 350 340 L 350 330 L 340 330 L 340 320 L 330 320 L 330 310 L 320 310 z M 370 310 L 370 320 L 360 320 L 360 330 L 370 330 L 370 340 L 380 340 L 380 330 L 390 330 L 390 320 L 380 320 L 380 310 L 370 310 z M 420 310 L 420 320 L 410 320 L 410 330 L 400 330 L 400 340 L 390 340 L 390 350 L 400 350 L 400 360 L 410 360 L 410 350 L 420 350 L 420 340 L 430 340 L 430 330 L 440 330 L 440 320 L 430 320 L 430 310 L 420 310 z M 620 310 L 620 320 L 610 320 L 610 330 L 620 330 L 620 340 L 630 340 L 630 350 L 640 350 L 640 360 L 650 360 L 650 350 L 660 350 L 660 340 L 650 340 L 650 330 L 640 330 L 640 320 L 630 320 L 630 310 L 620 310 z M 670 310 L 670 320 L 660 320 L 660 330 L 670 330 L 670 340 L 680 340 L 680 330 L 690 330 L 690 320 L 680 320 L 680 310 L 670 310 z M 720 310 L 720 320 L 710 320 L 710 330 L 700 330 L 700 340 L 690 340 L 690 350 L 700 350 L 700 360 L 710 360 L 710 350 L 720 350 L 720 340 L 730 340 L 730 330 L 740 330 L 740 320 L 730 320 L 730 310 L 720 310 z M 920 310 L 920 320 L 910 320 L 910 330 L 920 330 L 920 340 L 930 340 L 930 350 L 940 350 L 940 360 L 950 360 L 950 350 L 960 350 L 960 340 L 950 340 L 950 330 L 940 330 L 940 320 L 930 320 L 930 310 L 920 310 z M 970 310 L 970 320 L 960 320 L 960 330 L 970 330 L 970 340 L 980 340 L 980 330 L 990 330 L 990 320 L 980 320 L 980 310 L 970 310 z M 1020 310 L 1020 320 L 1010 320 L 1010 330 L 1000 330 L 1000 340 L 990 340 L 990 350 L 1000 350 L 1000 360 L 1010 360 L 1010 350 L 1020 350 L 1020 340 L 1030 340 L 1030 330 L 1040 330 L 1040 320 L 1030 320 L 1030 310 L 1020 310 z M 1220 310 L 1220 320 L 1210 320 L 1210 330 L 1220 330 L 1220 340 L 1230 340 L 1230 350 L 1240 350 L 1240 360 L 1250 360 L 1250 350 L 1260 350 L 1260 340 L 1250 340 L 1250 330 L 1240 330 L 1240 320 L 1230 320 L 1230 310 L 1220 310 z M 1270 310 L 1270 320 L 1260 320 L 1260 330 L 1270 330 L 1270 340 L 1280 340 L 1280 330 L 1290 330 L 1290 320 L 1280 320 L 1280 310 L 1270 310 z M 1320 310 L 1320 320 L 1310 320 L 1310 330 L 1300 330 L 1300 340 L 1290 340 L 1290 350 L 1300 350 L 1300 360 L 1310 360 L 1310 350 L 1320 350 L 1320 340 L 1330 340 L 1330 330 L 1340 330 L 1340 320 L 1330 320 L 1330 310 L 1320 310 z M 20 360 L 20 370 L 10 370 L 10 380 L 20 380 L 20 390 L 30 390 L 30 380 L 40 380 L 40 370 L 30 370 L 30 360 L 20 360 z M 70 360 L 70 370 L 60 370 L 60 380 L 70 380 L 70 390 L 80 390 L 80 380 L 90 380 L 90 370 L 80 370 L 80 360 L 70 360 z M 120 360 L 120 370 L 110 370 L 110 380 L 120 380 L 120 390 L 130 390 L 130 380 L 140 380 L 140 370 L 130 370 L 130 360 L 120 360 z M 320 360 L 320 370 L 310 370 L 310 380 L 320 380 L 320 390 L 330 390 L 330 380 L 340 380 L 340 370 L 330 370 L 330 360 L 320 360 z M 370 360 L 370 370 L 360 370 L 360 380 L 370 380 L 370 390 L 380 390 L 380 380 L 390 380 L 390 370 L 380 370 L 380 360 L 370 360 z M 420 360 L 420 370 L 410 370 L 410 380 L 420 380 L 420 390 L 430 390 L 430 380 L 440 380 L 440 370 L 430 370 L 430 360 L 420 360 z M 620 360 L 620 370 L 610 370 L 610 380 L 620 380 L 620 390 L 630 390 L 630 380 L 640 380 L 640 370 L 630 370 L 630 360 L 620 360 z M 670 360 L 670 370 L 660 370 L 660 380 L 670 380 L 670 390 L 680 390 L 680 380 L 690 380 L 690 370 L 680 370 L 680 360 L 670 360 z M 720 360 L 720 370 L 710 370 L 710 380 L 720 380 L 720 390 L 730 390 L 730 380 L 740 380 L 740 370 L 730 370 L 730 360 L 720 360 z M 920 360 L 920 370 L 910 370 L 910 380 L 920 380 L 920 390 L 930 390 L 930 380 L 940 380 L 940 370 L 930 370 L 930 360 L 920 360 z M 970 360 L 970 370 L 960 370 L 960 380 L 970 380 L 970 390 L 980 390 L 980 380 L 990 380 L 990 370 L 980 370 L 980 360 L 970 360 z M 1020 360 L 1020 370 L 1010 370 L 1010 380 L 1020 380 L 1020 390 L 1030 390 L 1030 380 L 1040 380 L 1040 370 L 1030 370 L 1030 360 L 1020 360 z M 1220 360 L 1220 370 L 1210 370 L 1210 380 L 1220 380 L 1220 390 L 1230 390 L 1230 380 L 1240 380 L 1240 370 L 1230 370 L 1230 360 L 1220 360 z M 1270 360 L 1270 370 L 1260 370 L 1260 380 L 1270 380 L 1270 390 L 1280 390 L 1280 380 L 1290 380 L 1290 370 L 1280 370 L 1280 360 L 1270 360 z M 1320 360 L 1320 370 L 1310 370 L 1310 380 L 1320 380 L 1320 390 L 1330 390 L 1330 380 L 1340 380 L 1340 370 L 1330 370 L 1330 360 L 1320 360 z M 40 390 L 40 400 L 30 400 L 30 410 L 20 410 L 20 420 L 10 420 L 10 430 L 20 430 L 20 440 L 30 440 L 30 430 L 40 430 L 40 420 L 50 420 L 50 410 L 60 410 L 60 400 L 50 400 L 50 390 L 40 390 z M 100 390 L 100 400 L 90 400 L 90 410 L 100 410 L 100 420 L 110 420 L 110 430 L 120 430 L 120 440 L 130 440 L 130 430 L 140 430 L 140 420 L 130 420 L 130 410 L 120 410 L 120 400 L 110 400 L 110 390 L 100 390 z M 340 390 L 340 400 L 330 400 L 330 410 L 320 410 L 320 420 L 310 420 L 310 430 L 320 430 L 320 440 L 330 440 L 330 430 L 340 430 L 340 420 L 350 420 L 350 410 L 360 410 L 360 400 L 350 400 L 350 390 L 340 390 z M 400 390 L 400 400 L 390 400 L 390 410 L 400 410 L 400 420 L 410 420 L 410 430 L 420 430 L 420 440 L 430 440 L 430 430 L 440 430 L 440 420 L 430 420 L 430 410 L 420 410 L 420 400 L 410 400 L 410 390 L 400 390 z M 640 390 L 640 400 L 630 400 L 630 410 L 620 410 L 620 420 L 610 420 L 610 430 L 620 430 L 620 440 L 630 440 L 630 430 L 640 430 L 640 420 L 650 420 L 650 410 L 660 410 L 660 400 L 650 400 L 650 390 L 640 390 z M 700 390 L 700 400 L 690 400 L 690 410 L 700 410 L 700 420 L 710 420 L 710 430 L 720 430 L 720 440 L 730 440 L 730 430 L 740 430 L 740 420 L 730 420 L 730 410 L 720 410 L 720 400 L 710 400 L 710 390 L 700 390 z M 940 390 L 940 400 L 930 400 L 930 410 L 920 410 L 920 420 L 910 420 L 910 430 L 920 430 L 920 440 L 930 440 L 930 430 L 940 430 L 940 420 L 950 420 L 950 410 L 960 410 L 960 400 L 950 400 L 950 390 L 940 390 z M 1000 390 L 1000 400 L 990 400 L 990 410 L 1000 410 L 1000 420 L 1010 420 L 1010 430 L 1020 430 L 1020 440 L 1030 440 L 1030 430 L 1040 430 L 1040 420 L 1030 420 L 1030 410 L 1020 410 L 1020 400 L 1010 400 L 1010 390 L 1000 390 z M 1240 390 L 1240 400 L 1230 400 L 1230 410 L 1220 410 L 1220 420 L 1210 420 L 1210 430 L 1220 430 L 1220 440 L 1230 440 L 1230 430 L 1240 430 L 1240 420 L 1250 420 L 1250 410 L 1260 410 L 1260 400 L 1250 400 L 1250 390 L 1240 390 z M 1300 390 L 1300 400 L 1290 400 L 1290 410 L 1300 410 L 1300 420 L 1310 420 L 1310 430 L 1320 430 L 1320 440 L 1330 440 L 1330 430 L 1340 430 L 1340 420 L 1330 420 L 1330 410 L 1320 410 L 1320 400 L 1310 400 L 1310 390 L 1300 390 z M 70 410 L 70 420 L 60 420 L 60 430 L 70 430 L 70 440 L 80 440 L 80 430 L 90 430 L 90 420 L 80 420 L 80 410 L 70 410 z M 370 410 L 370 420 L 360 420 L 360 430 L 370 430 L 370 440 L 380 440 L 380 430 L 390 430 L 390 420 L 380 420 L 380 410 L 370 410 z M 670 410 L 670 420 L 660 420 L 660 430 L 670 430 L 670 440 L 680 440 L 680 430 L 690 430 L 690 420 L 680 420 L 680 410 L 670 410 z M 970 410 L 970 420 L 960 420 L 960 430 L 970 430 L 970 440 L 980 440 L 980 430 L 990 430 L 990 420 L 980 420 L 980 410 L 970 410 z M 1270 410 L 1270 420 L 1260 420 L 1260 430 L 1270 430 L 1270 440 L 1280 440 L 1280 430 L 1290 430 L 1290 420 L 1280 420 L 1280 410 L 1270 410 z M 320 610 L 320 620 L 310 620 L 310 630 L 320 630 L 320 640 L 330 640 L 330 650 L 340 650 L 340 660 L 350 660 L 350 650 L 360 650 L 360 640 L 350 640 L 350 630 L 340 630 L 340 620 L 330 620 L 330 610 L 320 610 z M 370 610 L 370 620 L 360 620 L 360 630 L 370 630 L 370 640 L 380 640 L 380 630 L 390 630 L 390 620 L 380 620 L 380 610 L 370 610 z M 420 610 L 420 620 L 410 620 L 410 630 L 400 630 L 400 640 L 390 640 L 390 650 L 400 650 L 400 660 L 410 660 L 410 650 L 420 650 L 420 640 L 430 640 L 430 630 L 440 630 L 440 620 L 430 620 L 430 610 L 420 610 z M 320 660 L 320 670 L 310 670 L 310 680 L 320 680 L 320 690 L 330 690 L 330 680 L 340 680 L 340 670 L 330 670 L 330 660 L 320 660 z M 370 660 L 370 670 L 360 670 L 360 680 L 370 680 L 370 690 L 380 690 L 380 680 L 390 680 L 390 670 L 380 670 L 380 660 L 370 660 z M 420 660 L 420 670 L 410 670 L 410 680 L 420 680 L 420 690 L 430 690 L 430 680 L 440 680 L 440 670 L 430 670 L 430 660 L 420 660 z M 340 690 L 340 700 L 330 700 L 330 710 L 320 710 L 320 720 L 310 720 L 310 730 L 320 730 L 320 740 L 330 740 L 330 730 L 340 730 L 340 720 L 350 720 L 350 710 L 360 710 L 360 700 L 350 700 L 350 690 L 340 690 z M 400 690 L 400 700 L 390 700 L 390 710 L 400 710 L 400 720 L 410 720 L 410 730 L 420 730 L 420 740 L 430 740 L 430 730 L 440 730 L 440 720 L 430 720 L 430 710 L 420 710 L 420 700 L 410 700 L 410 690 L 400 690 z M 370 710 L 370 720 L 360 720 L 360 730 L 370 730 L 370 740 L 380 740 L 380 730 L 390 730 L 390 720 L 380 720 L 380 710 L 370 710 z "
       transform="translate(-572.14287,-71.209247)"
       id="path6150" />
    <path
       style="fill:#ffffff;fill-opacity:1;stroke:none;display:inline"
       d="m -272.14284,-71.209245 0,299.999995 -300,0 0,20 320,0 0,-319.999995 -20,0 z m 130,0 0,319.999995 920,0 0,-20 -900,0 0,-299.999995 -20,0 z m -430,429.999995 0,20 300,0 0,300 20,0 0,-320 -320,0 z m 430,0 0,320 20,0 0,-300 900,0 0,-20 -920,0 z"
       id="rect6535"
       sodipodi:nodetypes="cccccccccccccccccccccccccccc" />
    <g
       id="g4433">
      <g
         id="g4247">
        <rect
           y="68.790756"
           x="-132.1429"
           height="10"
           width="10"
           id="rect9830"
           style="fill:#ee0017;fill-opacity:1;stroke:none" />
        <rect
           y="48.790756"
           x="-132.1429"
           height="10"
           width="10"
           id="rect9836"
           style="fill:#ee0017;fill-opacity:1;stroke:none" />
        <rect
           style="fill:#ee0017;fill-opacity:1;stroke:none"
           id="rect9842"
           width="10"
           height="10"
           x="-132.1429"
           y="28.790754" />
        <rect
           y="8.7907553"
           x="-132.1429"
           height="10"
           width="10"
           id="rect9850"
           style="fill:#ee0017;fill-opacity:1;stroke:none" />
        <rect
           style="fill:#ee0017;fill-opacity:1;stroke:none"
           id="rect9860"
           width="10"
           height="10"
           x="-132.1429"
           y="-11.209245" />
        <rect
           style="fill:#ee0017;fill-opacity:1;stroke:none"
           id="rect9932"
           width="10"
           height="10"
           x="-132.1429"
           y="-31.209246" />
        <rect
           y="-71.209244"
           x="-132.1429"
           height="10"
           width="10"
           id="rect9944"
           style="fill:#ee0017;fill-opacity:1;stroke:none" />
        <rect
           style="fill:#ee0017;fill-opacity:1;stroke:none"
           id="rect9966"
           width="10"
           height="10"
           x="-132.1429"
           y="-51.209248" />
        <rect
           style="fill:#ee0017;fill-opacity:1;stroke:none"
           id="rect10158"
           width="10"
           height="10"
           x="-132.1429"
           y="188.79076" />
        <rect
           y="168.79076"
           x="-132.1429"
           height="10"
           width="10"
           id="rect10168"
           style="fill:#ee0017;fill-opacity:1;stroke:none" />
        <rect
           style="fill:#ee0017;fill-opacity:1;stroke:none"
           id="rect10174"
           width="10"
           height="10"
           x="-132.1429"
           y="148.79076" />
        <rect
           style="fill:#ee0017;fill-opacity:1;stroke:none"
           id="rect10250"
           width="10"
           height="10"
           x="-132.1429"
           y="128.79076" />
        <rect
           y="88.790756"
           x="-132.1429"
           height="10"
           width="10"
           id="rect10260"
           style="fill:#ee0017;fill-opacity:1;stroke:none" />
        <rect
           style="fill:#ee0017;fill-opacity:1;stroke:none"
           id="rect10282"
           width="10"
           height="10"
           x="-132.1429"
           y="108.79076" />
        <rect
           y="668.79077"
           x="-132.1429"
           height="10"
           width="10"
           id="rect10454"
           style="fill:#ee0017;fill-opacity:1;stroke:none" />
        <rect
           y="648.79077"
           x="-132.1429"
           height="10"
           width="10"
           id="rect10460"
           style="fill:#ee0017;fill-opacity:1;stroke:none" />
        <rect
           style="fill:#ee0017;fill-opacity:1;stroke:none"
           id="rect10466"
           width="10"
           height="10"
           x="-132.1429"
           y="628.79077" />
        <rect
           y="608.79077"
           x="-132.1429"
           height="10"
           width="10"
           id="rect10474"
           style="fill:#ee0017;fill-opacity:1;stroke:none" />
        <rect
           style="fill:#ee0017;fill-opacity:1;stroke:none"
           id="rect10484"
           width="10"
           height="10"
           x="-132.1429"
           y="588.79077" />
        <rect
           style="fill:#ee0017;fill-opacity:1;stroke:none"
           id="rect10556"
           width="10"
           height="10"
           x="-132.1429"
           y="568.79077" />
        <rect
           y="528.79077"
           x="-132.1429"
           height="10"
           width="10"
           id="rect10568"
           style="fill:#ee0017;fill-opacity:1;stroke:none" />
        <rect
           style="fill:#ee0017;fill-opacity:1;stroke:none"
           id="rect10590"
           width="10"
           height="10"
           x="-132.1429"
           y="548.79077" />
        <rect
           y="508.79074"
           x="-132.1429"
           height="10"
           width="10"
           id="rect10770"
           style="fill:#ee0017;fill-opacity:1;stroke:none" />
        <rect
           style="fill:#ee0017;fill-opacity:1;stroke:none"
           id="rect10782"
           width="10"
           height="10"
           x="-132.1429"
           y="488.79074" />
        <rect
           y="468.79074"
           x="-132.1429"
           height="10"
           width="10"
           id="rect10792"
           style="fill:#ee0017;fill-opacity:1;stroke:none" />
        <rect
           style="fill:#ee0017;fill-opacity:1;stroke:none"
           id="rect10798"
           width="10"
           height="10"
           x="-132.1429"
           y="448.79074" />
        <rect
           style="fill:#ee0017;fill-opacity:1;stroke:none"
           id="rect10874"
           width="10"
           height="10"
           x="-132.1429"
           y="428.79074" />
        <rect
           y="388.79074"
           x="-132.1429"
           height="10"
           width="10"
           id="rect10884"
           style="fill:#ee0017;fill-opacity:1;stroke:none" />
        <rect
           style="fill:#ee0017;fill-opacity:1;stroke:none"
           id="rect10906"
           width="10"
           height="10"
           x="-132.1429"
           y="408.79074" />
        <rect
           y="-71.209244"
           x="-272.14285"
           height="10"
           width="10"
           id="rect9664"
           style="fill:#ee0017;fill-opacity:1;stroke:none" />
        <rect
           style="fill:#ee0017;fill-opacity:1;stroke:none"
           id="rect9672"
           width="10"
           height="10"
           x="-272.14285"
           y="-51.209248" />
        <rect
           y="68.790756"
           x="-272.14285"
           height="10"
           width="10"
           id="rect9678"
           style="fill:#ee0017;fill-opacity:1;stroke:none" />
        <rect
           y="48.790756"
           x="-272.14285"
           height="10"
           width="10"
           id="rect9722"
           style="fill:#ee0017;fill-opacity:1;stroke:none" />
        <rect
           style="fill:#ee0017;fill-opacity:1;stroke:none"
           id="rect9732"
           width="10"
           height="10"
           x="-272.14285"
           y="28.790754" />
        <rect
           y="8.7907553"
           x="-272.14285"
           height="10"
           width="10"
           id="rect9756"
           style="fill:#ee0017;fill-opacity:1;stroke:none" />
        <rect
           style="fill:#ee0017;fill-opacity:1;stroke:none"
           id="rect9796"
           width="10"
           height="10"
           x="-272.14285"
           y="-11.209245" />
        <rect
           style="fill:#ee0017;fill-opacity:1;stroke:none"
           id="rect9864"
           width="10"
           height="10"
           x="-272.14285"
           y="-31.209246" />
        <rect
           y="88.790756"
           x="-272.14285"
           height="10"
           width="10"
           id="rect9974"
           style="fill:#ee0017;fill-opacity:1;stroke:none" />
        <rect
           style="fill:#ee0017;fill-opacity:1;stroke:none"
           id="rect9986"
           width="10"
           height="10"
           x="-272.14285"
           y="108.79076" />
        <rect
           style="fill:#ee0017;fill-opacity:1;stroke:none"
           id="rect10056"
           width="10"
           height="10"
           x="-272.14285"
           y="188.79076" />
        <rect
           y="168.79076"
           x="-272.14285"
           height="10"
           width="10"
           id="rect10088"
           style="fill:#ee0017;fill-opacity:1;stroke:none" />
        <rect
           style="fill:#ee0017;fill-opacity:1;stroke:none"
           id="rect10128"
           width="10"
           height="10"
           x="-272.14285"
           y="148.79076" />
        <rect
           style="fill:#ee0017;fill-opacity:1;stroke:none"
           id="rect10188"
           width="10"
           height="10"
           x="-272.14285"
           y="128.79076" />
        <rect
           y="528.79077"
           x="-272.14285"
           height="10"
           width="10"
           id="rect10288"
           style="fill:#ee0017;fill-opacity:1;stroke:none" />
        <rect
           style="fill:#ee0017;fill-opacity:1;stroke:none"
           id="rect10296"
           width="10"
           height="10"
           x="-272.14285"
           y="548.79077" />
        <rect
           y="668.79077"
           x="-272.14285"
           height="10"
           width="10"
           id="rect10302"
           style="fill:#ee0017;fill-opacity:1;stroke:none" />
        <rect
           y="648.79077"
           x="-272.14285"
           height="10"
           width="10"
           id="rect10346"
           style="fill:#ee0017;fill-opacity:1;stroke:none" />
        <rect
           style="fill:#ee0017;fill-opacity:1;stroke:none"
           id="rect10356"
           width="10"
           height="10"
           x="-272.14285"
           y="628.79077" />
        <rect
           y="608.79077"
           x="-272.14285"
           height="10"
           width="10"
           id="rect10380"
           style="fill:#ee0017;fill-opacity:1;stroke:none" />
        <rect
           style="fill:#ee0017;fill-opacity:1;stroke:none"
           id="rect10420"
           width="10"
           height="10"
           x="-272.14285"
           y="588.79077" />
        <rect
           style="fill:#ee0017;fill-opacity:1;stroke:none"
           id="rect10488"
           width="10"
           height="10"
           x="-272.14285"
           y="568.79077" />
        <rect
           y="388.79074"
           x="-272.14285"
           height="10"
           width="10"
           id="rect10598"
           style="fill:#ee0017;fill-opacity:1;stroke:none" />
        <rect
           style="fill:#ee0017;fill-opacity:1;stroke:none"
           id="rect10610"
           width="10"
           height="10"
           x="-272.14285"
           y="408.79074" />
        <rect
           y="508.79074"
           x="-272.14285"
           height="10"
           width="10"
           id="rect10638"
           style="fill:#ee0017;fill-opacity:1;stroke:none" />
        <rect
           style="fill:#ee0017;fill-opacity:1;stroke:none"
           id="rect10680"
           width="10"
           height="10"
           x="-272.14285"
           y="488.79074" />
        <rect
           y="468.79074"
           x="-272.14285"
           height="10"
           width="10"
           id="rect10712"
           style="fill:#ee0017;fill-opacity:1;stroke:none" />
        <rect
           style="fill:#ee0017;fill-opacity:1;stroke:none"
           id="rect10752"
           width="10"
           height="10"
           x="-272.14285"
           y="448.79074" />
        <rect
           style="fill:#ee0017;fill-opacity:1;stroke:none"
           id="rect10812"
           width="10"
           height="10"
           x="-272.14285"
           y="428.79074" />
        <rect
           y="368.79074"
           x="-112.14323"
           height="10"
           width="10"
           id="rect11240"
           style="fill:#ee0017;fill-opacity:1;stroke:none" />
        <rect
           y="368.79074"
           x="-92.143295"
           height="10"
           width="10"
           id="rect11244"
           style="fill:#ee0017;fill-opacity:1;stroke:none" />
        <rect
           style="fill:#ee0017;fill-opacity:1;stroke:none"
           id="rect11248"
           width="10"
           height="10"
           x="-72.143295"
           y="368.79074" />
        <rect
           style="fill:#ee0017;fill-opacity:1;stroke:none"
           id="rect11252"
           width="10"
           height="10"
           x="-52.14333"
           y="368.79074" />
        <rect
           y="368.79074"
           x="-32.14333"
           height="10"
           width="10"
           id="rect11256"
           style="fill:#ee0017;fill-opacity:1;stroke:none" />
        <rect
           y="368.79074"
           x="-12.143329"
           height="10"
           width="10"
           id="rect11260"
           style="fill:#ee0017;fill-opacity:1;stroke:none" />
        <rect
           y="368.79074"
           x="7.8566718"
           height="10"
           width="10"
           id="rect11388"
           style="fill:#ee0017;fill-opacity:1;stroke:none" />
        <rect
           style="fill:#ee0017;fill-opacity:1;stroke:none"
           id="rect7808"
           width="10"
           height="10"
           x="487.85715"
           y="368.79074" />
        <rect
           style="fill:#ee0017;fill-opacity:1;stroke:none"
           id="rect7812"
           width="10"
           height="10"
           x="507.85715"
           y="368.79074" />
        <rect
           y="368.79074"
           x="527.85718"
           height="10"
           width="10"
           id="rect7816"
           style="fill:#ee0017;fill-opacity:1;stroke:none" />
        <rect
           y="368.79074"
           x="547.85718"
           height="10"
           width="10"
           id="rect7820"
           style="fill:#ee0017;fill-opacity:1;stroke:none" />
        <rect
           style="fill:#ee0017;fill-opacity:1;stroke:none"
           id="rect7824"
           width="10"
           height="10"
           x="567.85718"
           y="368.79074" />
        <rect
           style="fill:#ee0017;fill-opacity:1;stroke:none"
           id="rect7828"
           width="10"
           height="10"
           x="587.85718"
           y="368.79074" />
        <rect
           style="fill:#ee0017;fill-opacity:1;stroke:none"
           id="rect7956"
           width="10"
           height="10"
           x="607.85718"
           y="368.79074" />
        <rect
           style="fill:#ee0017;fill-opacity:1;stroke:none"
           id="rect8118"
           width="10"
           height="10"
           x="327.85715"
           y="368.79074" />
        <rect
           style="fill:#ee0017;fill-opacity:1;stroke:none"
           id="rect8122"
           width="10"
           height="10"
           x="347.85709"
           y="368.79074" />
        <rect
           y="368.79074"
           x="367.85709"
           height="10"
           width="10"
           id="rect8126"
           style="fill:#ee0017;fill-opacity:1;stroke:none" />
        <rect
           y="368.79074"
           x="387.85709"
           height="10"
           width="10"
           id="rect8130"
           style="fill:#ee0017;fill-opacity:1;stroke:none" />
        <rect
           style="fill:#ee0017;fill-opacity:1;stroke:none"
           id="rect8134"
           width="10"
           height="10"
           x="407.85709"
           y="368.79074" />
        <rect
           style="fill:#ee0017;fill-opacity:1;stroke:none"
           id="rect8138"
           width="10"
           height="10"
           x="427.85709"
           y="368.79074" />
        <rect
           style="fill:#ee0017;fill-opacity:1;stroke:none"
           id="rect8266"
           width="10"
           height="10"
           x="447.85703"
           y="368.79074" />
        <rect
           style="fill:#ee0017;fill-opacity:1;stroke:none"
           id="rect8270"
           width="10"
           height="10"
           x="467.85715"
           y="368.79074" />
        <rect
           style="fill:#ee0017;fill-opacity:1;stroke:none"
           id="rect8432"
           width="10"
           height="10"
           x="187.85674"
           y="368.79074" />
        <rect
           style="fill:#ee0017;fill-opacity:1;stroke:none"
           id="rect8436"
           width="10"
           height="10"
           x="207.85667"
           y="368.79074" />
        <rect
           y="368.79074"
           x="227.85667"
           height="10"
           width="10"
           id="rect8440"
           style="fill:#ee0017;fill-opacity:1;stroke:none" />
        <rect
           y="368.79074"
           x="247.85667"
           height="10"
           width="10"
           id="rect8446"
           style="fill:#ee0017;fill-opacity:1;stroke:none" />
        <rect
           style="fill:#ee0017;fill-opacity:1;stroke:none"
           id="rect8448"
           width="10"
           height="10"
           x="267.85666"
           y="368.79074" />
        <rect
           style="fill:#ee0017;fill-opacity:1;stroke:none"
           id="rect8452"
           width="10"
           height="10"
           x="287.85666"
           y="368.79074" />
        <rect
           style="fill:#ee0017;fill-opacity:1;stroke:none"
           id="rect8580"
           width="10"
           height="10"
           x="307.85666"
           y="368.79074" />
        <rect
           style="fill:#ee0017;fill-opacity:1;stroke:none"
           id="rect8742"
           width="10"
           height="10"
           x="27.856733"
           y="368.79074" />
        <rect
           style="fill:#ee0017;fill-opacity:1;stroke:none"
           id="rect8746"
           width="10"
           height="10"
           x="47.85667"
           y="368.79074" />
        <rect
           y="368.79074"
           x="67.856674"
           height="10"
           width="10"
           id="rect8750"
           style="fill:#ee0017;fill-opacity:1;stroke:none" />
        <rect
           y="368.79074"
           x="87.856674"
           height="10"
           width="10"
           id="rect8754"
           style="fill:#ee0017;fill-opacity:1;stroke:none" />
        <rect
           style="fill:#ee0017;fill-opacity:1;stroke:none"
           id="rect8758"
           width="10"
           height="10"
           x="107.85667"
           y="368.79074" />
        <rect
           style="fill:#ee0017;fill-opacity:1;stroke:none"
           id="rect8762"
           width="10"
           height="10"
           x="127.85667"
           y="368.79074" />
        <rect
           style="fill:#ee0017;fill-opacity:1;stroke:none"
           id="rect8890"
           width="10"
           height="10"
           x="147.85667"
           y="368.79074" />
        <rect
           style="fill:#ee0017;fill-opacity:1;stroke:none"
           id="rect8894"
           width="10"
           height="10"
           x="167.85667"
           y="368.79074" />
        <rect
           style="fill:#ee0017;fill-opacity:1;stroke:none"
           id="rect4082"
           width="10"
           height="10"
           x="627.85718"
           y="368.79074" />
        <rect
           style="fill:#ee0017;fill-opacity:1;stroke:none"
           id="rect4086"
           width="10"
           height="10"
           x="647.85718"
           y="368.79074" />
        <rect
           y="368.79074"
           x="667.85718"
           height="10"
           width="10"
           id="rect4090"
           style="fill:#ee0017;fill-opacity:1;stroke:none" />
        <rect
           y="368.79074"
           x="687.85718"
           height="10"
           width="10"
           id="rect4094"
           style="fill:#ee0017;fill-opacity:1;stroke:none" />
        <rect
           style="fill:#ee0017;fill-opacity:1;stroke:none"
           id="rect4098"
           width="10"
           height="10"
           x="707.85718"
           y="368.79074" />
        <rect
           style="fill:#ee0017;fill-opacity:1;stroke:none"
           id="rect4102"
           width="10"
           height="10"
           x="727.85718"
           y="368.79074" />
        <rect
           style="fill:#ee0017;fill-opacity:1;stroke:none"
           id="rect4298"
           width="10"
           height="10"
           x="747.85718"
           y="368.79074" />
        <rect
           style="fill:#ee0017;fill-opacity:1;stroke:none"
           id="rect4302"
           width="10"
           height="10"
           x="767.85718"
           y="368.79074" />
        <rect
           style="fill:#ee0017;fill-opacity:1;stroke:none"
           id="rect9056"
           width="10"
           height="10"
           x="-412.14285"
           y="368.79074" />
        <rect
           style="fill:#ee0017;fill-opacity:1;stroke:none"
           id="rect9060"
           width="10"
           height="10"
           x="-392.14291"
           y="368.79074" />
        <rect
           y="368.79074"
           x="-372.14291"
           height="10"
           width="10"
           id="rect9064"
           style="fill:#ee0017;fill-opacity:1;stroke:none" />
        <rect
           y="368.79074"
           x="-352.14291"
           height="10"
           width="10"
           id="rect9068"
           style="fill:#ee0017;fill-opacity:1;stroke:none" />
        <rect
           y="368.79074"
           x="-332.14291"
           height="10"
           width="10"
           id="rect9070"
           style="fill:#ee0017;fill-opacity:1;stroke:none" />
        <rect
           style="fill:#ee0017;fill-opacity:1;stroke:none"
           id="rect9076"
           width="10"
           height="10"
           x="-312.14291"
           y="368.79074" />
        <rect
           style="fill:#ee0017;fill-opacity:1;stroke:none"
           id="rect9204"
           width="10"
           height="10"
           x="-292.14291"
           y="368.79074" />
        <rect
           style="fill:#ee0017;fill-opacity:1;stroke:none"
           id="rect9366"
           width="10"
           height="10"
           x="-572.14288"
           y="368.79074" />
        <rect
           style="fill:#ee0017;fill-opacity:1;stroke:none"
           id="rect9370"
           width="10"
           height="10"
           x="-552.14294"
           y="368.79074" />
        <rect
           y="368.79074"
           x="-532.14294"
           height="10"
           width="10"
           id="rect9374"
           style="fill:#ee0017;fill-opacity:1;stroke:none" />
        <rect
           y="368.79074"
           x="-512.14294"
           height="10"
           width="10"
           id="rect9378"
           style="fill:#ee0017;fill-opacity:1;stroke:none" />
        <rect
           style="fill:#ee0017;fill-opacity:1;stroke:none"
           id="rect9382"
           width="10"
           height="10"
           x="-492.14294"
           y="368.79074" />
        <rect
           style="fill:#ee0017;fill-opacity:1;stroke:none"
           id="rect9386"
           width="10"
           height="10"
           x="-472.14294"
           y="368.79074" />
        <rect
           style="fill:#ee0017;fill-opacity:1;stroke:none"
           id="rect9514"
           width="10"
           height="10"
           x="-452.14294"
           y="368.79074" />
        <rect
           style="fill:#ee0017;fill-opacity:1;stroke:none"
           id="rect9518"
           width="10"
           height="10"
           x="-432.14294"
           y="368.79074" />
        <rect
           y="368.79074"
           x="-272.14285"
           height="10"
           width="10"
           id="rect10926"
           style="fill:#ee0017;fill-opacity:1;stroke:none" />
        <rect
           y="368.79074"
           x="-132.1429"
           height="10"
           width="10"
           id="rect11078"
           style="fill:#ee0017;fill-opacity:1;stroke:none" />
        <rect
           y="228.79076"
           x="-112.14323"
           height="10"
           width="10"
           id="rect11226"
           style="fill:#ee0017;fill-opacity:1;stroke:none" />
        <rect
           y="228.79076"
           x="-92.143295"
           height="10"
           width="10"
           id="rect11454"
           style="fill:#ee0017;fill-opacity:1;stroke:none" />
        <rect
           style="fill:#ee0017;fill-opacity:1;stroke:none"
           id="rect11458"
           width="10"
           height="10"
           x="-72.143295"
           y="228.79076" />
        <rect
           style="fill:#ee0017;fill-opacity:1;stroke:none"
           id="rect11462"
           width="10"
           height="10"
           x="-52.14333"
           y="228.79076" />
        <rect
           y="228.79076"
           x="-32.14333"
           height="10"
           width="10"
           id="rect11466"
           style="fill:#ee0017;fill-opacity:1;stroke:none" />
        <rect
           y="228.79076"
           x="-12.143329"
           height="10"
           width="10"
           id="rect11470"
           style="fill:#ee0017;fill-opacity:1;stroke:none" />
        <rect
           y="228.79076"
           x="7.8566718"
           height="10"
           width="10"
           id="rect11502"
           style="fill:#ee0017;fill-opacity:1;stroke:none" />
        <rect
           style="fill:#ee0017;fill-opacity:1;stroke:none"
           id="rect7794"
           width="10"
           height="10"
           x="487.85715"
           y="228.79076" />
        <rect
           style="fill:#ee0017;fill-opacity:1;stroke:none"
           id="rect8022"
           width="10"
           height="10"
           x="507.85715"
           y="228.79076" />
        <rect
           y="228.79076"
           x="527.85718"
           height="10"
           width="10"
           id="rect8026"
           style="fill:#ee0017;fill-opacity:1;stroke:none" />
        <rect
           y="228.79076"
           x="547.85718"
           height="10"
           width="10"
           id="rect8030"
           style="fill:#ee0017;fill-opacity:1;stroke:none" />
        <rect
           style="fill:#ee0017;fill-opacity:1;stroke:none"
           id="rect8034"
           width="10"
           height="10"
           x="567.85718"
           y="228.79076" />
        <rect
           style="fill:#ee0017;fill-opacity:1;stroke:none"
           id="rect8038"
           width="10"
           height="10"
           x="587.85718"
           y="228.79076" />
        <rect
           style="fill:#ee0017;fill-opacity:1;stroke:none"
           id="rect8070"
           width="10"
           height="10"
           x="607.85718"
           y="228.79076" />
        <rect
           style="fill:#ee0017;fill-opacity:1;stroke:none"
           id="rect8104"
           width="10"
           height="10"
           x="327.85715"
           y="228.79076" />
        <rect
           style="fill:#ee0017;fill-opacity:1;stroke:none"
           id="rect8108"
           width="10"
           height="10"
           x="347.85709"
           y="228.79076" />
        <rect
           y="228.79076"
           x="367.85709"
           height="10"
           width="10"
           id="rect8336"
           style="fill:#ee0017;fill-opacity:1;stroke:none" />
        <rect
           y="228.79076"
           x="387.85709"
           height="10"
           width="10"
           id="rect8340"
           style="fill:#ee0017;fill-opacity:1;stroke:none" />
        <rect
           style="fill:#ee0017;fill-opacity:1;stroke:none"
           id="rect8344"
           width="10"
           height="10"
           x="407.85709"
           y="228.79076" />
        <rect
           style="fill:#ee0017;fill-opacity:1;stroke:none"
           id="rect8348"
           width="10"
           height="10"
           x="427.85709"
           y="228.79076" />
        <rect
           style="fill:#ee0017;fill-opacity:1;stroke:none"
           id="rect8380"
           width="10"
           height="10"
           x="447.85703"
           y="228.79076" />
        <rect
           style="fill:#ee0017;fill-opacity:1;stroke:none"
           id="rect8384"
           width="10"
           height="10"
           x="467.85715"
           y="228.79076" />
        <rect
           style="fill:#ee0017;fill-opacity:1;stroke:none"
           id="rect8418"
           width="10"
           height="10"
           x="187.85674"
           y="228.79076" />
        <rect
           style="fill:#ee0017;fill-opacity:1;stroke:none"
           id="rect8646"
           width="10"
           height="10"
           x="207.85667"
           y="228.79076" />
        <rect
           y="228.79076"
           x="227.85667"
           height="10"
           width="10"
           id="rect8650"
           style="fill:#ee0017;fill-opacity:1;stroke:none" />
        <rect
           y="228.79076"
           x="247.85667"
           height="10"
           width="10"
           id="rect8654"
           style="fill:#ee0017;fill-opacity:1;stroke:none" />
        <rect
           style="fill:#ee0017;fill-opacity:1;stroke:none"
           id="rect8658"
           width="10"
           height="10"
           x="267.85666"
           y="228.79076" />
        <rect
           style="fill:#ee0017;fill-opacity:1;stroke:none"
           id="rect8662"
           width="10"
           height="10"
           x="287.85666"
           y="228.79076" />
        <rect
           style="fill:#ee0017;fill-opacity:1;stroke:none"
           id="rect8694"
           width="10"
           height="10"
           x="307.85666"
           y="228.79076" />
        <rect
           style="fill:#ee0017;fill-opacity:1;stroke:none"
           id="rect8728"
           width="10"
           height="10"
           x="27.856733"
           y="228.79076" />
        <rect
           style="fill:#ee0017;fill-opacity:1;stroke:none"
           id="rect8732"
           width="10"
           height="10"
           x="47.85667"
           y="228.79076" />
        <rect
           y="228.79076"
           x="67.856674"
           height="10"
           width="10"
           id="rect8960"
           style="fill:#ee0017;fill-opacity:1;stroke:none" />
        <rect
           y="228.79076"
           x="87.856674"
           height="10"
           width="10"
           id="rect8964"
           style="fill:#ee0017;fill-opacity:1;stroke:none" />
        <rect
           style="fill:#ee0017;fill-opacity:1;stroke:none"
           id="rect8968"
           width="10"
           height="10"
           x="107.85667"
           y="228.79076" />
        <rect
           style="fill:#ee0017;fill-opacity:1;stroke:none"
           id="rect8972"
           width="10"
           height="10"
           x="127.85667"
           y="228.79076" />
        <rect
           style="fill:#ee0017;fill-opacity:1;stroke:none"
           id="rect9004"
           width="10"
           height="10"
           x="147.85667"
           y="228.79076" />
        <rect
           style="fill:#ee0017;fill-opacity:1;stroke:none"
           id="rect9008"
           width="10"
           height="10"
           x="167.85667"
           y="228.79076" />
        <rect
           style="fill:#ee0017;fill-opacity:1;stroke:none"
           id="rect4400"
           width="10"
           height="10"
           x="627.85718"
           y="228.79076" />
        <rect
           style="fill:#ee0017;fill-opacity:1;stroke:none"
           id="rect4404"
           width="10"
           height="10"
           x="647.85718"
           y="228.79076" />
        <rect
           y="228.79076"
           x="667.85718"
           height="10"
           width="10"
           id="rect4408"
           style="fill:#ee0017;fill-opacity:1;stroke:none" />
        <rect
           y="228.79076"
           x="687.85718"
           height="10"
           width="10"
           id="rect4412"
           style="fill:#ee0017;fill-opacity:1;stroke:none" />
        <rect
           style="fill:#ee0017;fill-opacity:1;stroke:none"
           id="rect4416"
           width="10"
           height="10"
           x="707.85718"
           y="228.79076" />
        <rect
           style="fill:#ee0017;fill-opacity:1;stroke:none"
           id="rect4420"
           width="10"
           height="10"
           x="727.85718"
           y="228.79076" />
        <rect
           style="fill:#ee0017;fill-opacity:1;stroke:none"
           id="rect4460"
           width="10"
           height="10"
           x="747.85718"
           y="228.79076" />
        <rect
           style="fill:#ee0017;fill-opacity:1;stroke:none"
           id="rect4464"
           width="10"
           height="10"
           x="767.85718"
           y="228.79076" />
        <rect
           style="fill:#ee0017;fill-opacity:1;stroke:none"
           id="rect9042"
           width="10"
           height="10"
           x="-412.14285"
           y="228.79076" />
        <rect
           style="fill:#ee0017;fill-opacity:1;stroke:none"
           id="rect9270"
           width="10"
           height="10"
           x="-392.14291"
           y="228.79076" />
        <rect
           y="228.79076"
           x="-372.14291"
           height="10"
           width="10"
           id="rect9274"
           style="fill:#ee0017;fill-opacity:1;stroke:none" />
        <rect
           y="228.79076"
           x="-352.14291"
           height="10"
           width="10"
           id="rect9278"
           style="fill:#ee0017;fill-opacity:1;stroke:none" />
        <rect
           style="fill:#ee0017;fill-opacity:1;stroke:none"
           id="rect9282"
           width="10"
           height="10"
           x="-332.14291"
           y="228.79076" />
        <rect
           style="fill:#ee0017;fill-opacity:1;stroke:none"
           id="rect9286"
           width="10"
           height="10"
           x="-312.14291"
           y="228.79076" />
        <rect
           style="fill:#ee0017;fill-opacity:1;stroke:none"
           id="rect9318"
           width="10"
           height="10"
           x="-292.14291"
           y="228.79076" />
        <rect
           style="fill:#ee0017;fill-opacity:1;stroke:none"
           id="rect9352"
           width="10"
           height="10"
           x="-572.14288"
           y="228.79076" />
        <rect
           style="fill:#ee0017;fill-opacity:1;stroke:none"
           id="rect9356"
           width="10"
           height="10"
           x="-552.14294"
           y="228.79076" />
        <rect
           y="228.79076"
           x="-532.14294"
           height="10"
           width="10"
           id="rect9584"
           style="fill:#ee0017;fill-opacity:1;stroke:none" />
        <rect
           y="228.79076"
           x="-512.14294"
           height="10"
           width="10"
           id="rect9588"
           style="fill:#ee0017;fill-opacity:1;stroke:none" />
        <rect
           style="fill:#ee0017;fill-opacity:1;stroke:none"
           id="rect9592"
           width="10"
           height="10"
           x="-492.14294"
           y="228.79076" />
        <rect
           style="fill:#ee0017;fill-opacity:1;stroke:none"
           id="rect9596"
           width="10"
           height="10"
           x="-472.14294"
           y="228.79076" />
        <rect
           style="fill:#ee0017;fill-opacity:1;stroke:none"
           id="rect9628"
           width="10"
           height="10"
           x="-452.14294"
           y="228.79076" />
        <rect
           style="fill:#ee0017;fill-opacity:1;stroke:none"
           id="rect9632"
           width="10"
           height="10"
           x="-432.14294"
           y="228.79076" />
        <rect
           y="208.79076"
           x="-272.14285"
           height="10"
           width="10"
           id="rect10014"
           style="fill:#ee0017;fill-opacity:1;stroke:none" />
        <rect
           y="208.79076"
           x="-132.1429"
           height="10"
           width="10"
           id="rect10146"
           style="fill:#ee0017;fill-opacity:1;stroke:none" />
        <rect
           y="228.79076"
           x="-272.14285"
           height="10"
           width="10"
           id="rect10912"
           style="fill:#ee0017;fill-opacity:1;stroke:none" />
        <rect
           y="228.79076"
           x="-132.1429"
           height="10"
           width="10"
           id="rect11192"
           style="fill:#ee0017;fill-opacity:1;stroke:none" />
      </g>
    </g>
    <path
       id="rect11194"
       style="fill:#150068;fill-opacity:1;stroke:none"
       d="m -142.1429,238.79075 10,0 0,10 -10,0 0,-10 z m 0,120 10,0 0,10 -10,0 0,-10 z m 0,40 10,0 0,10 -10,0 0,-10 z m 0,-20 10,0 0,10 -10,0 0,-10 z m 0,40 10,0 0,10 -10,0 0,-10 z m 0,20 10,0 0,10 -10,0 0,-10 z m 0,20 10,0 0,10 -10,0 0,-10 z m 0,40 10,0 0,10 -10,0 0,-10 z m 0,-20 10,0 0,10 -10,0 0,-10 z m 0,40 10,0 0,10 -10,0 0,-10 z m 0,40 10,0 0,10 -10,0 0,-10 z m 0,-20 10,0 0,10 -10,0 0,-10 z m 0,40 10,0 0,10 -10,0 0,-10 z m 0,20 10,0 0,10 -10,0 0,-10 z m 0,20 10,0 0,10 -10,0 0,-10 z m 0,20 10,0 0,10 -10,0 0,-10 z m 0,20 10,0 0,10 -10,0 0,-10 z m 0,-559.999995 10,0 0,10.000005 -10,0 0,-10.000005 z m 0,-20 10,0 0,10 -10,0 0,-10 z m 0,-40 10,0 0,10 -10,0 0,-10 z m 0,20 10,0 0,10 -10,0 0,-10 z m 0,60.000005 10,0 0,9.99999 -10,0 0,-9.99999 z m 0,19.99999 10,0 0,10 -10,0 0,-10 z m 0,20 10,0 0,10 -10,0 0,-10 z m 0,-199.999997 10,0 0,10 -10,0 0,-10 z m 0,-20 10,0 0,10 -10,0 0,-10 z m 0,40.000002 10,0 0,10 -10,0 0,-10 z m 0,40 10,0 0,10 -10,0 0,-10 z m 0,-20 10,0 0,10 -10,0 0,-10 z m 0,179.999995 10,0 0,10 -10,0 0,-10 z m 0,20 10,0 0,10 -10,0 0,-10 z m 0,20 10,0 0,10 -10,0 0,-10 z m 299.99957,140 10,0 0,10 -10,0 0,-10 z m -20,0 10,0 0,10 -10,0 0,-10 z m -20,0 10,0 0,10 -10,0 0,-10 z m -20,0 10,0 0,10 -10,0 0,-10 z m -20,0 10,0 0,10 -10,0 0,-10 z m -20,0 10,0 0,10 -10,0 0,-10 z m -19.99994,0 10,0 0,10 -10,0 0,-10 z m -20.00006,0 10,0 0,10 -10,0 0,-10 z m -20,0 10,0 0,10 -10,0 0,-10 z m 180.00006,0 10,0 0,10 -10,0 0,-10 z m -200.00006,0 10,0 0,10 -10,0 0,-10 z m -20,0 10,0 0,10 -10,0 0,-10 z m -19.99997,0 10,0 0,10 -10,0 0,-10 z m -20,0 10,0 0,10 -10,0 0,-10 z m -19.99994,0 10,0 0,10 -10,0 0,-10 z m -20,0 10,0 0,10 -10,0 0,-10 z m 20,-120 10,0 0,10 -10,0 0,-10 z m 860.0004,120 10,0 0,10 -10,0 0,-10 z m -20,0 10,0 0,10 -10,0 0,-10 z m -20,0 10,0 0,10 -10,0 0,-10 z m -20,0 10,0 0,10 -10,0 0,-10 z m -20,0 10,0 0,10 -10,0 0,-10 z m -20,0 10,0 0,10 -10,0 0,-10 z m -20,0 10,0 0,10 -10,0 0,-10 z m -20,0 10,0 0,10 -10,0 0,-10 z m -20,0 10,0 0,10 -10,0 0,-10 z m -20,0 10,0 0,10 -10,0 0,-10 z m -20,0 10,0 0,10 -10,0 0,-10 z m -240.00049,0 10,0 0,10 -10,0 0,-10 z m -20,0 10,0 0,10 -10,0 0,-10 z m -20,0 10,0 0,10 -10,0 0,-10 z m -20,0 10,0 0,10 -10,0 0,-10 z m -20,0 10,0 0,10 -10,0 0,-10 z m -20,0 10,0 0,10 -10,0 0,-10 z m -19.99994,0 10,0 0,10 -10,0 0,-10 z m 180.00037,0 10,0 0,10 -10,0 0,-10 z m -20,0 10,0 0,10 -10,0 0,-10 z m -19.99994,0 10,0 0,10 -10,0 0,-10 z m 120,0 10,0 0,10 -10,0 0,-10 z m -20.0001,0 10,0 0,10 -10,0 0,-10 z m -19.99996,0 10,0 0,10 -10,0 0,-10 z m -20,0 10,0 0,10 -10,0 0,-10 z m 140.00006,0 10,0 0,10 -10,0 0,-10 z m -20,0 10,0 0,10 -10,0 0,-10 z m -20,0 10,0 0,10 -10,0 0,-10 z m -20,0 10,0 0,10 -10,0 0,-10 z m -740,0 10,0 0,10 -10,0 0,-10 z m -20.00006,0 10,0 0,10 -10,0 0,-10 z m -20,0 10,0 0,10 -10,0 0,-10 z m -20,0 10,0 0,10 -10,0 0,-10 z m -20,0 10,0 0,10 -10,0 0,-10 z m -20,0 10,0 0,10 -10,0 0,-10 z m 100.00006,-120 10,0 0,10 -10,0 0,-10 z m 0,-80 10,0 0,10 -10,0 0,-10 z m 0,20 10,0 0,10 -10,0 0,-10 z m 0,20 10,0 0,10 -10,0 0,-10 z m 0,20 10,0 0,10 -10,0 0,-10 z m 0,-99.99999 10,0 0,9.99999 -10,0 0,-9.99999 z m 0,19.99999 10,0 0,10 -10,0 0,-10 z m 0,-39.999995 10,0 0,10.000005 -10,0 0,-10.000005 z m 0,-20 10,0 0,10 -10,0 0,-10 z m 0,-100 10,0 0,10 -10,0 0,-10 z m 0,40 10,0 0,10 -10,0 0,-10 z m 0,-20 10,0 0,10 -10,0 0,-10 z m 0,40 10,0 0,10 -10,0 0,-10 z m 0,20 10,0 0,10 -10,0 0,-10 z m 0,-100.000002 10,0 0,10 -10,0 0,-10 z m 0,-20 10,0 0,10 -10,0 0,-10 z m -20.00006,299.999997 10,0 0,10 -10,0 0,-10 z m -20,0 10,0 0,10 -10,0 0,-10 z m -20,0 10,0 0,10 -10,0 0,-10 z m -20,0 10,0 0,10 -10,0 0,-10 z m -20,0 10,0 0,10 -10,0 0,-10 z m -20,0 10,0 0,10 -10,0 0,-10 z m 120.00006,180 10,0 0,10 -10,0 0,-10 z m 0,20 10,0 0,10 -10,0 0,-10 z m 0,20 10,0 0,10 -10,0 0,-10 z m 0,40 10,0 0,10 -10,0 0,-10 z m 0,-20 10,0 0,10 -10,0 0,-10 z m 0,40 10,0 0,10 -10,0 0,-10 z m 0,-120 10,0 0,10 -10,0 0,-10 z m 0,-20 10,0 0,10 -10,0 0,-10 z m 0,160 10,0 0,10 -10,0 0,-10 z m 219.99951,-300 10,0 0,10 -10,0 0,-10 z m -19.99997,0 10,0 0,10 -10,0 0,-10 z m -20,0 10,0 0,10 -10,0 0,-10 z m -39.99994,0 10,0 0,10 -10,0 0,-10 z m -139.9996,340 10,0 0,10 -10,0 0,-10 z m 0,20 10,0 0,10 -10,0 0,-10 z m 0,20 10,0 0,10 -10,0 0,-10 z m 0,20 10,0 0,10 -10,0 0,-10 z m 0,20 10,0 0,10 -10,0 0,-10 z m 0,-100 10,0 0,10 -10,0 0,-10 z m -180.00009,-320 10,0 0,10 -10,0 0,-10 z m -20,0 10,0 0,10 -10,0 0,-10 z m -20,0 10,0 0,10 -10,0 0,-10 z m -20,0 10,0 0,10 -10,0 0,-10 z m -20,0 10,0 0,10 -10,0 0,-10 z m -20,0 10,0 0,10 -10,0 0,-10 z m -19.99994,0 10,0 0,10 -10,0 0,-10 z m 160.00003,0 10,0 0,10 -10,0 0,-10 z m -20,0 10,0 0,10 -10,0 0,-10 z m -20.00009,120 10,0 0,10 -10,0 0,-10 z m -20,0 10,0 0,10 -10,0 0,-10 z m -20,0 10,0 0,10 -10,0 0,-10 z m -20,0 10,0 0,10 -10,0 0,-10 z m -20,0 10,0 0,10 -10,0 0,-10 z m -20,0 10,0 0,10 -10,0 0,-10 z m -19.99994,0 10,0 0,10 -10,0 0,-10 z m 179.99997,0 10,0 0,10 -10,0 0,-10 z m -20,0 10,0 0,10 -10,0 0,-10 z m -19.99994,0 10,0 0,10 -10,0 0,-10 z m 1180,-120 10,0 0,10 -10,0 0,-10 z m -20,0 10,0 0,10 -10,0 0,-10 z m -20,0 10,0 0,10 -10,0 0,-10 z m -20,0 10,0 0,10 -10,0 0,-10 z m -20,0 10,0 0,10 -10,0 0,-10 z m -20,0 10,0 0,10 -10,0 0,-10 z m -20,0 10,0 0,10 -10,0 0,-10 z m -480.00049,0 10,0 0,10 -10,0 0,-10 z m -20,0 10,0 0,10 -10,0 0,-10 z m -20,0 10,0 0,10 -10,0 0,-10 z m -20,0 10,0 0,10 -10,0 0,-10 z m -20,0 10,0 0,10 -10,0 0,-10 z m -20,0 10,0 0,10 -10,0 0,-10 z m -19.99994,0 10,0 0,10 -10,0 0,-10 z m 279.99994,0 10,0 0,10 -10,0 0,-10 z m -20,0 10,0 0,10 -10,0 0,-10 z m -20,0 10,0 0,10 -10,0 0,-10 z m -20,0 10,0 0,10 -10,0 0,-10 z m -20,0 10,0 0,10 -10,0 0,-10 z m -20,0 10,0 0,10 -10,0 0,-10 z m -20,0 10,0 0,10 -10,0 0,-10 z m -19.99994,0 10,0 0,10 -10,0 0,-10 z m 280.00043,0 10,0 0,10 -10,0 0,-10 z m -20.0001,0 10,0 0,10 -10,0 0,-10 z m -19.99996,0 10,0 0,10 -10,0 0,-10 z m -20,0 10,0 0,10 -10,0 0,-10 z m -20,0 10,0 0,10 -10,0 0,-10 z m -20,0 10,0 0,10 -10,0 0,-10 z m -19.99994,0 10,0 0,10 -10,0 0,-10 z m 280,0 10,0 0,10 -10,0 0,-10 z m -20,0 10,0 0,10 -10,0 0,-10 z m -20,0 10,0 0,10 -10,0 0,-10 z m -20,0 10,0 0,10 -10,0 0,-10 z m -20,0 10,0 0,10 -10,0 0,-10 z m -20,0 10,0 0,10 -10,0 0,-10 z m -20,0 10,0 0,10 -10,0 0,-10 z m -20,0 10,0 0,10 -10,0 0,-10 z m -460.00049,0 10,0 0,10 -10,0 0,-10 z m -20,0 10,0 0,10 -10,0 0,-10 z m -20,0 10,0 0,10 -10,0 0,-10 z" />
  </g>
</svg>
