<?xml version="1.0" encoding="UTF-8" standalone="no"?>
<!-- Created with Inkscape (http://www.inkscape.org/) -->

<svg
   xmlns:dc="http://purl.org/dc/elements/1.1/"
   xmlns:cc="http://creativecommons.org/ns#"
   xmlns:rdf="http://www.w3.org/1999/02/22-rdf-syntax-ns#"
   xmlns:svg="http://www.w3.org/2000/svg"
   xmlns="http://www.w3.org/2000/svg"
   xmlns:sodipodi="http://sodipodi.sourceforge.net/DTD/sodipodi-0.dtd"
   xmlns:inkscape="http://www.inkscape.org/namespaces/inkscape"
   width="800"
   height="460"
   id="svg2"
   sodipodi:version="0.32"
   inkscape:version="0.47 r22583"
   version="1.0"
   sodipodi:docname="Philippines_flag_1st_official.svg"
   inkscape:output_extension="org.inkscape.output.svg.inkscape">
  <defs
     id="defs4" />
  <sodipodi:namedview
     id="base"
     pagecolor="#ffffff"
     bordercolor="#666666"
     borderopacity="1.0"
     gridtolerance="10000"
     guidetolerance="10"
     objecttolerance="10"
     inkscape:pageopacity="0.0"
     inkscape:pageshadow="2"
     inkscape:zoom="1"
     inkscape:cx="400"
     inkscape:cy="230"
     inkscape:document-units="px"
     inkscape:current-layer="layer1"
     showgrid="false"
     inkscape:window-width="1278"
     inkscape:window-height="720"
     inkscape:window-x="0"
     inkscape:window-y="24"
     inkscape:window-maximized="0">
    <inkscape:grid
       type="xygrid"
       id="grid2383"
       visible="true"
       enabled="true" />
  </sodipodi:namedview>
  <metadata
     id="metadata7">
    <rdf:RDF>
      <cc:Work
         rdf:about="">
        <dc:format>image/svg+xml</dc:format>
        <dc:type
           rdf:resource="http://purl.org/dc/dcmitype/StillImage" />
      </cc:Work>
    </rdf:RDF>
  </metadata>
  <g
     inkscape:label="Layer 1"
     inkscape:groupmode="layer"
     id="layer1">
    <path
       style="fill:#cc0000;fill-opacity:1"
       d="m 0,0 0,230 0,230 400,0 400,0 0,-230 L 800,0 400,0 0,0 z"
       id="path2843" />
    <path
       id="path2510"
       style="fill:#ffffff;fill-opacity:1"
       d="m 400.875,294 c -1.71492,0 -2.55484,0.9 -1.875,2 0.67984,1.1 2.08992,2 3.125,2 1.03508,0 1.875,-0.9 1.875,-2 0,-1.1 -1.41008,-2 -3.125,-2 z M 400,283 c -18.51824,0 -24.95316,1.41596 -16.5,3.625 5.34664,1.39724 26.92972,1.4838 32,0.125 9.20676,-2.4673 3.93382,-3.75 -15.5,-3.75 z m 3.375,-6.71875 c -9.03807,-0.0978 -18.57894,0.29615 -24.59375,1.21875 L 369,279 l 15,1.125 c 8.25,0.6189 16.19127,0.8439 17.65625,0.5 1.46496,-0.3439 8.66496,-0.74486 16,-0.875 10.35288,-0.1837 12.00147,-0.56482 7.34375,-1.75 -4.05379,-1.03152 -12.58693,-1.62098 -21.625,-1.71875 z m 3.6875,-30.125 c -0.84688,0.055 -0.5144,1.12674 0.90625,3.78125 1.29152,2.41322 1.85018,5.65471 1.25,7.21875 -0.60018,1.56404 -0.16641,2.84375 0.96875,2.84375 3.025,0 1.29452,-12.52088 -1.875,-13.5625 -0.54332,-0.17856 -0.96771,-0.2996 -1.25,-0.28125 z M 446,208 c 1.1,0 2,0.9 2,2 0,1.1 -0.9,2 -2,2 -1.1,0 -2,-0.9 -2,-2 0,-1.1 0.9,-2 2,-2 z m -74,0 c 1.10457,0 2,0.89543 2,2 0,1.10457 -0.89543,2 -2,2 -1.10457,0 -2,-0.89543 -2,-2 0,-1.10457 0.89543,-2 2,-2 z m 60,-2 c 1.1,0 2,0.9 2,2 0,1.1 -0.9,2 -2,2 -1.1,0 -2,-0.9 -2,-2 0,-1.1 0.9,-2 2,-2 z m -72,0 c 1.1,0 2,0.9 2,2 0,1.1 -0.9,2 -2,2 -1.1,0 -2,-0.9 -2,-2 0,-1.1 0.9,-2 2,-2 z m 74.90625,-3.71875 c -4.48707,0.10901 -8.3102,1.50134 -12.65625,4.1875 -5.6211,3.47426 -6.44975,4.61811 -3.65625,5.15625 1.97784,0.381 4.81255,-0.28108 6.28125,-1.5 2.0106,-1.66866 2.96221,-1.48476 3.84375,0.8125 0.82424,2.1479 -0.15751,3.10439 -3.28125,3.21875 -3.9064,0.143 -3.7197,0.48757 1.5625,2.90625 8.08926,3.70402 8.22474,3.68432 22.5,-2.375 L 462.03125,209.40625 451.5,205.75 c -6.97918,-2.41102 -12.10668,-3.57776 -16.59375,-3.46875 z M 361.625,202 c -5.16008,-0.005 -9.94516,0.9 -10.625,2 -0.67984,1.1 -2.92984,2 -5,2 -2.07016,0 -4.40156,1.04082 -5.1875,2.3125 -1.02684,1.66146 0.61657,1.97324 5.84375,1.125 4.00088,-0.64926 7.75727,-0.38642 8.34375,0.5625 0.58646,0.94892 -0.97743,2.06214 -3.46875,2.5 L 347,213.3125 l 5,2.21875 c 7.14322,3.17172 15.0016,2.92928 23.5625,-0.6875 l 7.4375,-3.125 -6,-4.84375 c -4.43574,-3.58456 -8.439,-4.86766 -15.375,-4.875 z m 68.25,-9.875 c -3.89561,0.14875 -5.83162,1.02874 -7.90625,2.90625 C 419.77981,197.01221 418,199.97499 418,201.625 c 0,2.4114 0.81781,2.24998 4.21875,-0.8125 3.58856,-3.23145 7.00508,-3.76549 22.5,-3.4375 21.30872,0.45106 17.69628,-2.85866 -5.25,-4.8125 -4.22867,-0.36007 -7.25638,-0.52675 -9.59375,-0.4375 z m -64.6875,-0.375 c -12.32047,0.0481 -26.94777,2.2367 -28.25,4.34375 -0.55006,0.88999 8.97063,1.44192 21.15625,1.25 L 380.25,197 l 6.875,7.46875 c 4.72082,5.1343 6.875,9.39242 6.875,13.625 0,7.17874 -7.60577,26.1702 -11.40625,28.5 -1.43494,0.87966 -2.4623,4.47966 -2.3125,8 0.20018,4.7042 0.48798,5.21357 1.125,1.90625 1.0605,-5.50594 1.64572,-5.54652 7.0625,-0.5 5.98264,5.57368 7.70893,4.9951 4.46875,-1.5 -1.98072,-3.9704 -2.21857,-7.45826 -0.90625,-12.5 6.74912,-25.92902 6.63129,-24.976 3.03125,-32.5625 -5.37456,-11.32609 -14.81986,-17.3971 -27.4375,-17.65625 -0.79627,-0.0164 -1.61614,-0.0345 -2.4375,-0.0312 z M 400,23.1875 408.1875,31.09375 416.375,39 415.15625,54 c -0.66102,8.25 -2.67614,31.424058 -4.5,51.5 -3.06344,33.72064 -2.92947,41.42949 0.71875,37.78125 0.76312,-0.7631 3.83714,-19.45937 6.8125,-41.5625 4.32832,-32.153952 6.18646,-40.967714 9.25,-44.03125 3.67016,-3.670168 3.93312,-3.67252 7,-0.25 2.95034,3.29249 2.54329,6.600052 -5.53125,42.5625 -9.79644,43.63156 -10.11979,46 -5.96875,46 1.61862,0 7.94233,2.21344 14.03125,4.90625 l 11.0625,4.875 9.46875,-15 C 491.55368,86.918342 493.71338,84 498.9375,84 c 9.90038,0 6.07575,8.030238 -20.21875,42.75 -22.30536,29.45243 -27.92098,38.69103 -20.9375,34.375 C 458.90701,160.42924 474.3036,142.80189 492,121.9375 L 524.1875,84 535.09375,84 546,84 l 0,11.71875 0,11.71875 -39,32.78125 C 485.55622,158.24594 468.00622,173.675 468,174.5 c -0.0291,3.86193 6.42672,-0.19861 35.75,-22.5 33.28012,-25.31071 42.25,-29.38341 42.25,-19.15625 0,3.85133 -2.87329,6.63975 -13.96875,13.5 -7.6911,4.75536 -23.82225,14.91383 -35.84375,22.5625 l -21.875,13.90625 3.1875,6.09375 c 1.74746,3.35133 4.24148,9.69375 5.5625,14.09375 1.81394,6.04176 3.34636,7.88113 6.1875,7.46875 2.0691,-0.30032 21.09633,-4.43089 42.28125,-9.15625 35.58582,-7.9375 38.71653,-8.32242 41.46875,-5.28125 2.66216,2.94165 2.5187,3.70132 -1.5,7.34375 -3.6516,3.3097 -11.07982,4.90678 -39.5,8.5 -19.25,2.43382 -37.7,5.15711 -41,6.03125 -5.27428,1.39712 -5.53143,1.7813 -2.15625,3.1875 3.1882,1.3283 51.17603,-1.95782 92.15625,-6.3125 9.63032,-1.02334 10.29308,-0.78093 17.9375,7.09375 l 7.9375,8.1875 -8.0625,8.0625 -8.03125,8.03125 -50.4375,-4.375 c -27.7352,-2.40696 -51.04222,-3.73903 -51.8125,-2.96875 -2.9007,2.9007 4.55832,4.60817 40,9.09375 C 561.32327,252.05649 576,255.83226 576,260.125 c 0,0.69234 -1.575,2.62119 -3.5,4.28125 -3.1504,2.71678 -7.64761,2.07373 -44.96875,-6.34375 l -41.46875,-9.34375 -2.28125,7.125 c -1.26942,3.9288 -3.98955,10.46861 -6.03125,14.53125 l -3.71875,7.40625 35.9375,22.59375 c 32.30486,20.32616 35.96146,23.18128 36,28.125 0.0351,4.4987 -0.8483,5.5 -4.8125,5.5 -2.66562,0 -7.39062,-2.1103 -10.5,-4.6875 C 517.14977,318.11774 471.26967,284 469.71875,284 468.78149,284 468,284.83297 468,285.84375 c 0,1.58586 63.44431,56.26073 74.15625,63.90625 3.04538,2.17362 3.84375,5.18748 3.84375,14.5 l 0,11.75 -11.75,0 c -9.31252,0 -12.32638,-0.79837 -14.5,-3.84375 -1.50916,-2.11446 -16.09203,-19.66446 -32.40625,-39 -26.5926,-31.51746 -35.90214,-40.7522 -32.6875,-32.375 0.98958,2.57882 34.07679,46.88596 44.71875,59.875 2.54754,3.10938 4.625,7.83438 4.625,10.5 0,3.968 -0.997,4.82919 -5.5,4.78125 -4.93822,-0.0526 -7.79125,-3.70494 -28.03125,-35.875 l -22.5625,-35.84375 -10.4375,4.875 c -5.75162,2.67782 -11.53367,4.86426 -12.84375,4.875 -1.31008,0.0107 -2.95573,0.96031 -3.65625,2.09375 -1.13488,1.83628 6.88401,42.58084 14.15625,71.875 2.41034,9.70936 2.37144,11.32706 -0.5,14.5 -1.77764,1.96424 -3.91457,3.5625 -4.71875,3.5625 -3.87724,0 -7.82206,-16.1919 -11.9375,-49 -2.4837,-19.8 -5.21491,-37.35 -6.09375,-39 -3.76966,-7.07754 -4.18166,5.45548 -1.1875,37.5 1.72158,18.42492 3.73515,40.54341 4.46875,49.15625 l 1.34375,15.65625 -7.65625,7.84375 C 404.63305,432.46841 400.6501,436 400,436 c -0.6501,0 -4.48175,-3.50779 -8.53125,-7.78125 l -7.375,-7.75 3.90625,-43.75 c 2.14648,-24.05154 4.16956,-47.09375 4.5,-51.21875 0.75214,-9.38918 -3.58601,-10.2202 -5.21875,-1 -0.63306,3.575 -3.06325,21.35 -5.40625,39.5 -3.70262,28.68194 -4.85364,33.63557 -8.9375,37.84375 l -4.71875,4.84375 -2.25,-4.96875 c -1.86148,-4.08548 -0.8587,-11.41279 5.6875,-40.84375 10.92896,-49.13536 10.82163,-44.96694 1.34375,-47.8125 -4.4,-1.32102 -10.74241,-3.81504 -14.09375,-5.5625 l -6.09375,-3.1875 -13.90625,21.875 c -7.64866,12.0215 -17.80714,28.15265 -22.5625,35.84375 -6.86026,11.09546 -9.64866,13.96875 -13.5,13.96875 -10.22716,0 -6.15447,-8.96988 19.15625,-42.25 22.30138,-29.32328 26.36192,-35.7791 22.5,-35.75 -0.825,0.006 -16.25407,17.55622 -34.28125,39 L 277.4375,376 265.71875,376 254,376 254,365.09375 254,354.1875 291.9375,322 c 20.8644,-17.6964 38.49174,-33.09299 39.1875,-34.21875 4.41474,-7.1432 -5.10066,-1.34913 -34.375,20.90625 -34.67832,26.36366 -42.75,30.19536 -42.75,20.25 0,-5.22412 2.91833,-7.38382 56.78125,-41.4375 l 15,-9.46875 -4.875,-11.0625 C 318.21343,260.87983 316,254.55612 316,252.9375 c 0,-4.38266 -5.22857,-3.71897 -46.78125,5.84375 -36.24998,8.3424 -37.88626,8.55124 -41.3125,5.125 -3.42624,-3.42624 -3.42679,-3.7127 0.34375,-7.125 2.95052,-2.67018 13.90931,-4.92237 43.96875,-8.96875 22.01216,-2.9631 40.54769,-5.92269 41.21875,-6.59375 3.64026,-3.64026 -6.1854,-3.53128 -52.5625,0.5625 l -51.0625,4.5 -8.09375,-8.34375 -8.09375,-8.34375 8.21875,-7.90625 8.21875,-7.875 44.78125,4.09375 C 305.50497,222.54253 314,222.83718 314,220 c 0,-1.1 -0.225,-1.99584 -0.5,-2 -0.275,-0.004 -17.02605,-2.25416 -37.21875,-5 -20.1927,-2.74584 -37.87081,-5 -39.28125,-5 -1.41044,0 -4.62038,-1.65938 -7.125,-3.6875 -4.07448,-3.2993 -4.25289,-4.11073 -1.71875,-7.65625 2.79322,-3.90799 3.42586,-3.81725 44.4375,5.375 22.872,5.1265 41.86021,8.76888 42.21875,8.125 0.35854,-0.6439 1.81779,-4.75625 3.21875,-9.15625 1.40098,-4.4 3.75652,-9.76775 5.25,-11.9375 1.49348,-2.16976 2.71875,-4.53776 2.71875,-5.25 0,-0.71224 -16.20712,-11.54449 -36,-24.0625 -29.20488,-18.47062 -35.9895,-23.59808 -36,-27.25 -0.0103,-3.59793 1.11793,-4.5 5.59375,-4.5 4.06194,0 14.29284,6.58538 37.25,24 17.40116,13.2 32.43629,24 33.40625,24 4.99762,0 -1.52308,-6.33046 -37.25,-36.25 L 254,107.09375 254,95.53125 254,84 l 11.53125,0 11.5625,0 32.65625,39 C 339.70012,158.76345 346,165.23697 346,160.21875 346,159.23849 335.5988,144.74221 322.875,128 294.54864,90.727604 291.26866,83.977308 301.5,84 c 4.9251,0.01092 7.65045,3.408062 26.09375,32.5 28.29032,44.62433 23.83556,40.40801 36.625,34.75 5.9235,-2.62054 12.40541,-5.31883 14.40625,-6 2.34196,-0.7973 3.26208,-2.49047 2.5625,-4.75 -0.59766,-1.93042 -4.76949,-20.0776 -9.28125,-40.34375 -6.9626,-31.27503 -7.83211,-37.551136 -5.71875,-41.5 6.53664,-12.21381 10.64868,-1.265796 16.6875,44.28125 2.91132,21.95822 5.71865,40.31239 6.21875,40.8125 0.50012,0.50011 1.54454,0.2992 2.3125,-0.46875 1.23964,-1.23963 0.0968,-19.20587 -5.40625,-85.0625 l -1.59375,-18.8125 7.8125,-8.09375 L 400,23.1875 z" />
  </g>
</svg>
