<?xml version="1.0" encoding="UTF-8" standalone="no"?>
<svg
   xmlns:dc="http://purl.org/dc/elements/1.1/"
   xmlns:cc="http://creativecommons.org/ns#"
   xmlns:rdf="http://www.w3.org/1999/02/22-rdf-syntax-ns#"
   xmlns:svg="http://www.w3.org/2000/svg"
   xmlns="http://www.w3.org/2000/svg"
   version="1.1"
   id="svg2"
   viewBox="-60 -40 240 160"
   height="600"
   width="900">
  <metadata
     id="metadata21">
    <rdf:RDF>
      <cc:Work
         rdf:about="">
        <dc:format>image/svg+xml</dc:format>
        <dc:type
           rdf:resource="http://purl.org/dc/dcmitype/StillImage" />
        <dc:title></dc:title>
      </cc:Work>
    </rdf:RDF>
  </metadata>
  <defs
     id="defs19" />
  <rect
     id="rect4"
     fill="#fe0000"
     height="100%"
     width="100%"
     y="-40"
     x="-60" />
  <g
     id="g4226">
    <rect
       x="-60"
       y="-40"
       width="120"
       height="80"
       id="rect6"
       style="fill:#ffffff" />
    <g
       id="g4215"
       transform="matrix(1,0,0,0.86377653,6.27e-4,6.4878944)">
      <path
         id="path4155"
         d="m -0.05728662,-53.819354 60.05505862,0 0,92.610548 -60.05505862,0 0,-1.649974 58.40308462,0 0,-89.3106 -58.40308462,0 0,-1.649974 m -59.94306038,0.002 59.94306038,0 0,1.649974 -58.29508638,0 0,89.3106 58.29508638,0 0,1.649974 -59.94306038,0.004 0,-92.610548 z"
         style="fill:#1aae48" />
      <path
         id="path4157"
         d="m -60.000347,-25.442199 35.417045,0 0,-28.377155 -35.417045,0 0,28.377155 z"
         style="fill:#1aae48" />
      <path
         id="path4159"
         d="m -20.514566,-53.819354 -1.649054,0 0,30.797117 -37.837007,0 0,1.649974 39.485781,0 0,0 0,0 0,-32.447091 z"
         style="fill:#1aae48" />
      <path
         id="path4161"
         d="m 24.582327,-25.442199 35.415445,0 0,-28.377155 -35.417045,0 0,28.377155 z"
         style="fill:#1aae48" />
      <path
         id="path4163"
         d="m 20.402393,-53.819354 1.649214,0 0,30.797117 37.947005,0 0,1.649974 -39.596179,0 0,0 0,0 0,-32.447091 z"
         style="fill:#1aae48" />
      <path
         id="path4165"
         d="m 24.582327,38.791194 35.417045,0 0,-28.375155 -35.417045,0 0,28.375155 z"
         style="fill:#1aae48" />
      <path
         id="path4167"
         d="m 20.402393,38.791194 1.649214,0 0,-30.794717 37.947005,0 0,-1.6499741 -39.596179,0 0,0 0,0 0,32.4446911 z"
         style="fill:#1aae48" />
      <path
         id="path4169"
         d="m -60.000347,38.791194 35.417045,0 0,-28.375155 -35.417045,0 0,28.375155 z"
         style="fill:#1aae48" />
      <path
         id="path4171"
         d="m -20.514566,38.791194 -1.649054,0 0,-30.794717 -37.837007,0 0,-1.6499741 39.485781,0 0,0 0,0 0,32.4446911 z"
         style="fill:#1aae48" />
    </g>
  </g>
  <path
     id="path4173"
     d="m 9.4855754,-29.810237 c -0.5222708,-0.953067 -2.0012558,-1.040066 -3.3066836,-0.60637 l -1.8271843,2.33863 -2.8724855,1.386636 -2.4368788,1.559468 c -1.2181308,2.33971 -1.8271845,5.371742 -3.7418477,7.451681 -0.8700267,0.259688 -1.56637,1.472438 -2.088768,3.6384 -0.261435,2.686404 -2.349489,5.4587023 -4.4387625,8.4048392 l -2.175419,2.6864351 -0.783248,5.9779792 c 0.08674,2.425537 0,4.852146 -0.347632,7.3647115 l 2.958667,4.071971 1.566369,4.331608 4.3514144,4.417945 2.1754149,3.727572 -0.2608308,1.558364 0.6963347,1.73214 3.1327071,0.434893 0.4350135,-0.693398 -0.8705016,-3.553639 C -0.7831578,23.129093 0.1741263,21.655396 0.7832116,19.57577 1.218225,18.276129 1.3048812,17.236033 1.914085,16.629665 4.0899826,13.944457 6.0047093,11.085255 6.9617718,7.8794815 7.9190565,6.6655145 8.7023084,4.5867405 9.3986432,1.7275693 9.6595998,-0.95883435 10.355934,-3.7311333 11.399993,-6.4176321 10.96498,-7.8031984 10.704134,-9.2768654 10.877731,-10.662274 l 2.785101,-6.931141 c 0,-0.607471 -0.261432,-1.820241 -0.695836,-3.466676 -0.08741,-0.432497 -0.174657,-1.212763 -0.348231,-1.819133 l 1.914568,-2.685336 -0.957284,-2.252703 c -2.176024,-0.260895 -3.568417,-0.693401 -4.0906239,-1.993164 z"
     style="fill:#1aae48" />
</svg>
