<?xml version="1.0" encoding="UTF-8" standalone="no"?>
<!-- Created with Inkscape (http://www.inkscape.org/) -->
<svg xmlns:svg="http://www.w3.org/2000/svg" xmlns="http://www.w3.org/2000/svg" xmlns:xlink="http://www.w3.org/1999/xlink" version="1.0" width="900" height="500" id="svg548">
  <defs id="defs550">
    <linearGradient x1="0" y1="0" x2="1" y2="0" id="linearGradient604" gradientUnits="objectBoundingBox" spreadMethod="pad">
      <stop id="stop605" style="stop-color: rgb(0, 0, 0); stop-opacity: 1;" offset="0"/>
      <stop id="stop606" style="stop-color: rgb(255, 255, 255); stop-opacity: 1;" offset="1"/>
    </linearGradient>
    <radialGradient cx="0.5" cy="0.5" r="0.5" fx="0.5" fy="0.5" id="radialGradient607" xlink:href="#linearGradient604" gradientUnits="objectBoundingBox" spreadMethod="pad"/>
    <linearGradient x1="1.04e-06" y1="-2e-07" x2="1.0000011" y2="-2e-07" id="linearGradient608" xlink:href="#linearGradient604" gradientUnits="objectBoundingBox" gradientTransform="translate(1.03914e-06, -2.00218e-07)" spreadMethod="pad"/>
  </defs>
  <rect width="900" height="500" x="0" y="-1.6431301e-14" id="rect781" style="font-size: 12px; fill: rgb(218, 45, 28); fill-rule: evenodd; stroke-width: 1pt;"/>
  <rect width="389.76379" height="248.03151" x="0" y="1.4749145e-07" id="rect578" style="font-size: 12px; fill: rgb(32, 66, 161); fill-rule: evenodd; stroke-width: 1pt;"/>
  <path d="M 227.0559,125.31765 C 227.0559,143.13058 212.41808,157.58758 194.38257,157.58758 C 176.34748,157.58758 161.70965,143.13058 161.70965,125.31765 C 161.70965,107.50473 176.34748,93.048137 194.38257,93.048137 C 212.41808,93.048137 227.0559,107.50473 227.0559,125.31765 z M 125.19302,118.09324 L 129.03672,103.16255 L 139.60763,107.49736 L 145.37339,95.456273 L 136.24382,89.676664 L 145.37339,77.15411 L 154.02224,85.823319 L 163.6317,77.15411 L 157.86594,67.521156 L 171.79983,60.296748 L 175.16323,72.337429 L 188.1365,68.484493 L 186.69516,57.406739 L 201.59008,56.925275 L 200.62905,68.484493 L 214.08263,72.819301 L 217.44603,60.778211 L 230.89961,67.521156 L 224.65313,77.635574 L 235.22403,85.823319 L 243.39216,77.15411 L 252.52132,88.713328 L 242.91185,95.456273 L 249.15793,107.49736 L 259.72883,103.64402 L 263.09223,118.57471 L 252.04101,119.53804 L 251.56029,133.02393 L 262.61151,133.98727 L 259.24811,149.39983 L 248.19731,144.58315 L 243.39216,157.10611 L 252.52132,162.88572 L 243.39216,174.9264 L 235.70434,166.2572 L 225.13385,174.9264 L 231.37992,185.04082 L 217.44603,191.78377 L 213.60232,180.22455 L 200.62905,183.59602 L 202.07039,195.15524 L 186.69516,195.63711 L 188.1365,184.07749 L 175.64395,180.70601 L 171.31952,191.78377 L 158.34625,185.04082 L 164.59273,175.40828 L 153.54152,167.22012 L 145.37339,175.40828 L 135.76351,163.84906 L 145.8537,156.62424 L 139.60763,145.06502 L 129.51744,148.91796 L 125.19302,133.98727 L 137.20526,133.02393 L 137.20526,119.53804 L 125.19302,118.09324 z" id="path577" style="font-size: 12px; fill: rgb(255, 255, 255); fill-rule: evenodd; stroke-width: 1pt;"/>
  <polygon points="390.906,29.178 360.233,7.70501 329.44,29.0038 340.384,-6.80287 310.612,-29.5076 348.047,-30.1644 360.441,-65.4955 372.634,-30.0947 410.065,-29.2258 380.165,-6.69013 390.906,29.178" transform="matrix(0.340443, 0, 0, 0.332749, 72.2073, 39.51)" id="polygon579" style="font-size: 12px; fill: rgb(255, 255, 255); fill-rule: evenodd; stroke-width: 1pt;"/>
  <path d="M 240.44344,93.196788 C 247.0174,116.32861 242.4487,128.83783 240.70612,129.06711 C 238.47487,128.09023 238.30651,104.50398 228.80824,98.497056 C 219.85388,92.978321 225.19959,87.619639 227.63572,85.53783 C 230.11847,84.434004 237.64626,83.489975 240.44344,93.196788 z" id="path596" style="font-size: 12px; fill: rgb(255, 255, 255); fill-rule: evenodd; stroke: rgb(32, 66, 161); stroke-width: 1.24378;"/>
  <path d="M 215.47416,123.31636 C 198.6608,161.50668 205.14999,187.38824 198.73923,187.20636 C 192.15238,187.26028 190.41034,163.43379 202.58328,123.57077 C 217.93444,73.462352 237.47489,77.649573 239.84309,91.671191 C 226.92003,97.785251 225.17211,99.30518 215.47416,123.31636 z" id="path594" style="font-size: 12px; fill: rgb(255, 255, 255); fill-rule: evenodd; stroke: rgb(32, 66, 161); stroke-width: 1.47132;"/>
  <path d="M 237.05256,136.01894 C 239.78391,160.74364 231.59634,171.51273 229.47279,171.1789 C 227.03327,169.50912 236.3822,154.27872 222.04432,137.47581 C 213.82373,127.99369 222.76147,131.47997 226.11771,130.22441 C 229.31424,129.9401 235.86056,125.63137 237.05256,136.01894 z" id="path597" style="font-size: 12px; fill: rgb(255, 255, 255); fill-rule: evenodd; stroke: rgb(32, 66, 161); stroke-width: 1.38153;"/>
  <path d="M 209.61951,160.45184 C 203.13072,175.36258 200.30398,193.52671 192.71729,191.29591 C 184.86923,189.23928 192.36645,163.73244 202.41473,145.94452 C 214.81863,124.18897 237.04891,118.66644 236.67393,134.33515 C 221.34712,136.78407 214.61555,148.40072 209.61951,160.45184 z" id="path598" style="font-size: 12px; fill: rgb(255, 255, 255); fill-rule: evenodd; stroke: rgb(32, 66, 161); stroke-width: 1.63428;"/>
  <path d="M 153.40125,120.68924 C 146.92381,148.79879 148.28263,166.14151 150.04721,165.6672 C 152.4632,165.96059 151.74265,138.83355 163.04202,127.77988 C 173.50148,117.10231 167.63425,119.25823 165.24627,115.28514 C 160.37906,113.30641 156.65746,107.53432 153.40125,120.68924 z" id="path599" style="font-size: 12px; fill: rgb(255, 255, 255); fill-rule: evenodd; stroke: rgb(32, 66, 161); stroke-width: 1.60535;"/>
  <path d="M 179.24024,151.00085 C 187.00667,169.97148 191.98656,193.24094 198.37642,190.13373 C 205.02077,187.24229 194.34929,154.95279 183.61331,132.11855 C 174.4469,114.06787 167.65671,111.84112 157.51632,112.41817 C 169.33874,117.12903 173.18241,135.66066 179.24024,151.00085 z" id="path600" style="font-size: 12px; fill: rgb(255, 255, 255); fill-rule: evenodd; stroke: rgb(32, 66, 161); stroke-width: 1.74427;"/>
  <path d="M 180.57559,140.47159 C 186.34563,164.56651 188.83201,193.507 195.62426,190.59597 C 202.64994,187.98145 195.40154,147.31432 187.05487,118.12461 C 179.77055,94.958037 168.55356,95.328153 158.25031,94.658694 C 174.75081,102.90499 176.13428,121.01781 180.57559,140.47159 z" id="path602" style="font-size: 12px; fill: rgb(255, 255, 255); fill-rule: evenodd; stroke: rgb(32, 66, 161); stroke-width: 1.94352;"/>
  <path d="M 156.5098,95.750378 C 141.39552,108.15625 141.4776,133.29242 144.35127,133.69012 C 147.34742,134.1963 148.97026,113.82051 158.21212,106.18806 C 167.99853,98.411467 169.42315,102.64093 180.47683,103.4681 C 177.52449,96.953105 168.90644,85.092223 156.5098,95.750378 z" id="path601" style="font-size: 12px; fill: rgb(255, 255, 255); fill-rule: evenodd; stroke: rgb(32, 66, 161); stroke-width: 1.78873;"/>
  <ellipse cx="372.06726" cy="394.76855" rx="11.774277" ry="25.314713" transform="matrix(0.370821, -0.169127, 0.146834, 0.288646, -11.6428, 21.7975)" id="path672" style="font-size: 12px; fill: rgb(255, 255, 255); fill-rule: evenodd; stroke: rgb(32, 66, 161); stroke-width: 1pt;"/>
  <ellipse cx="372.06726" cy="394.76855" rx="11.774277" ry="25.314713" transform="matrix(0.384462, -0.135099, 0.12041, 0.300686, -6.41801, 15.1013)" id="path670" style="font-size: 12px; fill: rgb(255, 255, 255); fill-rule: evenodd; stroke: rgb(32, 66, 161); stroke-width: 1pt;"/>
  <ellipse cx="372.06726" cy="394.76855" rx="11.774277" ry="25.314713" transform="matrix(0.405971, -0.0341881, 0.0413781, 0.321341, 24.358, -33.6588)" id="path671" style="font-size: 12px; fill: rgb(255, 255, 255); fill-rule: evenodd; stroke: rgb(32, 66, 161); stroke-width: 1pt;"/>
  <ellipse cx="372.06726" cy="394.76855" rx="11.774277" ry="25.314713" transform="matrix(0.40247, -0.0633413, 0.0643061, 0.31753, 11.2087, -8.3407)" id="path668" style="font-size: 12px; fill: rgb(255, 255, 255); fill-rule: evenodd; stroke: rgb(32, 66, 161); stroke-width: 1pt;"/>
  <ellipse cx="372.06726" cy="394.76855" rx="11.774277" ry="25.314713" transform="matrix(0.40247, -0.0633413, 0.0643061, 0.31753, 11.2087, 1.77373)" id="path666" style="font-size: 12px; fill: rgb(255, 255, 255); fill-rule: evenodd; stroke: rgb(32, 66, 161); stroke-width: 1pt;"/>
  <ellipse cx="372.06726" cy="394.76855" rx="11.774277" ry="25.314713" transform="matrix(0.405461, 0.039804, -0.0171465, 0.32355, 50.2569, -50.7337)" id="path669" style="font-size: 12px; fill: rgb(255, 255, 255); fill-rule: evenodd; stroke: rgb(32, 66, 161); stroke-width: 1pt;"/>
  <ellipse cx="372.06726" cy="394.76855" rx="11.774277" ry="25.314713" transform="matrix(0.405461, 0.039804, -0.0171465, 0.32355, 50.2569, -40.6193)" id="path667" style="font-size: 12px; fill: rgb(255, 255, 255); fill-rule: evenodd; stroke: rgb(32, 66, 161); stroke-width: 1pt;"/>
  <ellipse cx="372.06726" cy="394.76855" rx="11.774277" ry="25.314713" transform="matrix(0.406914, 0.0199484, -0.00139467, 0.324003, 30.1188, -21.0913)" id="path638" style="font-size: 12px; fill: rgb(255, 255, 255); fill-rule: evenodd; stroke: rgb(32, 66, 161); stroke-width: 1pt;"/>
  <ellipse cx="372.06726" cy="394.76855" rx="11.774277" ry="25.314713" transform="matrix(0.406914, 0.0199484, -0.00139467, 0.324003, 37.3261, -21.0686)" id="path639" style="font-size: 12px; fill: rgb(255, 255, 255); fill-rule: evenodd; stroke: rgb(32, 66, 161); stroke-width: 1pt;"/>
  <ellipse cx="372.06726" cy="394.76855" rx="11.774277" ry="25.314713" transform="matrix(0.388936, 0.121551, -0.0823689, 0.31331, 84.1524, -54.6247)" id="path640" style="font-size: 12px; fill: rgb(255, 255, 255); fill-rule: evenodd; stroke: rgb(32, 66, 161); stroke-width: 1pt;"/>
  <ellipse cx="372.06726" cy="394.76855" rx="11.774277" ry="25.314713" transform="matrix(0.406914, 0.0199484, -0.00139467, 0.324003, 29.6383, -10.0136)" id="path635" style="font-size: 12px; fill: rgb(255, 255, 255); fill-rule: evenodd; stroke: rgb(32, 66, 161); stroke-width: 1pt;"/>
  <ellipse cx="372.06726" cy="394.76855" rx="11.774277" ry="25.314713" transform="matrix(0.406914, 0.0199484, -0.00139467, 0.324003, 36.8456, -12.8808)" id="path636" style="font-size: 12px; fill: rgb(255, 255, 255); fill-rule: evenodd; stroke: rgb(32, 66, 161); stroke-width: 1pt;"/>
  <ellipse cx="372.06726" cy="394.76855" rx="11.774277" ry="25.314713" transform="matrix(0.388936, 0.121551, -0.0823689, 0.31331, 83.6719, -44.5103)" id="path637" style="font-size: 12px; fill: rgb(255, 255, 255); fill-rule: evenodd; stroke: rgb(32, 66, 161); stroke-width: 1pt;"/>
  <ellipse cx="372.06726" cy="394.76855" rx="11.774277" ry="25.314713" transform="matrix(0.526221, -0.0384912, 0.0497364, 0.407245, -20.08, 36.4272)" id="path603" style="font-size: 12px; fill: rgb(255, 255, 255); fill-rule: evenodd; stroke: rgb(32, 66, 161); stroke-width: 1pt;"/>
  <ellipse cx="372.06726" cy="394.76855" rx="11.774277" ry="25.314713" transform="matrix(0.406914, 0.0199484, -0.00139467, 0.324003, 26.2749, 1.06405)" id="path632" style="font-size: 12px; fill: rgb(255, 255, 255); fill-rule: evenodd; stroke: rgb(32, 66, 161); stroke-width: 1pt;"/>
  <ellipse cx="372.06726" cy="394.76855" rx="11.774277" ry="25.314713" transform="matrix(0.406914, 0.0199484, -0.00139467, 0.324003, 34.9236, -1.32146)" id="path633" style="font-size: 12px; fill: rgb(255, 255, 255); fill-rule: evenodd; stroke: rgb(32, 66, 161); stroke-width: 1pt;"/>
  <ellipse cx="372.06726" cy="394.76855" rx="11.774277" ry="25.314713" transform="matrix(0.388936, 0.121551, -0.0823689, 0.31331, 80.3086, -33.4326)" id="path634" style="font-size: 12px; fill: rgb(255, 255, 255); fill-rule: evenodd; stroke: rgb(32, 66, 161); stroke-width: 1pt;"/>
  <ellipse cx="372.06726" cy="394.76855" rx="11.774277" ry="25.314713" transform="matrix(0.399154, 0.0817523, -0.0505379, 0.320022, 52.3991, -10.4979)" id="path629" style="font-size: 12px; fill: rgb(255, 255, 255); fill-rule: evenodd; stroke: rgb(32, 66, 161); stroke-width: 1pt;"/>
  <ellipse cx="372.06726" cy="394.76855" rx="11.774277" ry="25.314713" transform="matrix(0.399154, 0.0817523, -0.0505379, 0.320022, 59.5191, -9.37674)" id="path630" style="font-size: 12px; fill: rgb(255, 255, 255); fill-rule: evenodd; stroke: rgb(32, 66, 161); stroke-width: 1pt;"/>
  <ellipse cx="372.06726" cy="394.76855" rx="11.774277" ry="25.314713" transform="matrix(0.365969, 0.179432, -0.128948, 0.297108, 111.038, -36.3556)" id="path631" style="font-size: 12px; fill: rgb(255, 255, 255); fill-rule: evenodd; stroke: rgb(32, 66, 161); stroke-width: 1pt;"/>
  <ellipse cx="372.06726" cy="394.76855" rx="11.774277" ry="25.314713" transform="matrix(0.406269, -0.0304069, 0.038399, 0.321712, 22.7794, 55.8666)" id="path609" style="font-size: 12px; fill: rgb(255, 255, 255); fill-rule: evenodd; stroke: rgb(32, 66, 161); stroke-width: 1pt;"/>
  <ellipse cx="372.06726" cy="394.76855" rx="11.774277" ry="25.314713" transform="matrix(0.381121, 0.144297, -0.10063, 0.307904, 100.474, -3.68415)" id="path610" style="font-size: 12px; fill: rgb(255, 255, 255); fill-rule: evenodd; stroke: rgb(32, 66, 161); stroke-width: 1pt;"/>
  <ellipse cx="372.06726" cy="394.76855" rx="11.774277" ry="25.314713" transform="matrix(0.406974, 0.0186681, -0.000380242, 0.324006, 44.5528, 35.2567)" id="path611" style="font-size: 12px; fill: rgb(255, 255, 255); fill-rule: evenodd; stroke: rgb(32, 66, 161); stroke-width: 1pt;"/>
  <ellipse cx="372.06726" cy="394.76855" rx="11.774277" ry="25.314713" transform="matrix(0.406974, 0.0186681, -0.000380242, 0.324006, 34.9431, 23.6974)" id="path612" style="font-size: 12px; fill: rgb(255, 255, 255); fill-rule: evenodd; stroke: rgb(32, 66, 161); stroke-width: 1pt;"/>
  <ellipse cx="372.06726" cy="394.76855" rx="11.774277" ry="25.314713" transform="matrix(0.406974, 0.0186681, -0.000380242, 0.324006, 42.1504, 23.6974)" id="path613" style="font-size: 12px; fill: rgb(255, 255, 255); fill-rule: evenodd; stroke: rgb(32, 66, 161); stroke-width: 1pt;"/>
  <ellipse cx="372.06726" cy="394.76855" rx="11.774277" ry="25.314713" transform="matrix(0.389314, 0.120328, -0.0813875, 0.313567, 86.9464, -21.0834)" id="path616" style="font-size: 12px; fill: rgb(255, 255, 255); fill-rule: evenodd; stroke: rgb(32, 66, 161); stroke-width: 1pt;"/>
  <ellipse cx="372.06726" cy="394.76855" rx="11.774277" ry="25.314713" transform="matrix(0.389314, 0.120328, -0.0813875, 0.313567, 88.8684, -10.969)" id="path614" style="font-size: 12px; fill: rgb(255, 255, 255); fill-rule: evenodd; stroke: rgb(32, 66, 161); stroke-width: 1pt;"/>
  <ellipse cx="372.06726" cy="394.76855" rx="11.774277" ry="25.314713" transform="matrix(0.389314, 0.120328, -0.0813875, 0.313567, 94.6342, -9.04246)" id="path615" style="font-size: 12px; fill: rgb(255, 255, 255); fill-rule: evenodd; stroke: rgb(32, 66, 161); stroke-width: 1pt;"/>
  <ellipse cx="372.06726" cy="394.76855" rx="11.774277" ry="25.314713" transform="matrix(0.389314, 0.120328, -0.0813875, 0.313567, 91.2708, -32.6427)" id="path617" style="font-size: 12px; fill: rgb(255, 255, 255); fill-rule: evenodd; stroke: rgb(32, 66, 161); stroke-width: 1pt;"/>
  <ellipse cx="372.06726" cy="394.76855" rx="11.774277" ry="25.314713" transform="matrix(0.406368, 0.029051, -0.00861161, 0.323892, 63.8838, -47.5498)" id="path628" style="font-size: 12px; fill: rgb(255, 255, 255); fill-rule: evenodd; stroke: rgb(32, 66, 161); stroke-width: 1pt;"/>
  <ellipse cx="372.06726" cy="394.76855" rx="11.774277" ry="25.314713" transform="matrix(0.389314, 0.120328, -0.0813875, 0.313567, 93.6732, -22.0467)" id="path618" style="font-size: 12px; fill: rgb(255, 255, 255); fill-rule: evenodd; stroke: rgb(32, 66, 161); stroke-width: 1pt;"/>
  <ellipse cx="372.06726" cy="394.76855" rx="11.774277" ry="25.314713" transform="matrix(0.389314, 0.120328, -0.0813875, 0.313567, 99.439, -20.6018)" id="path619" style="font-size: 12px; fill: rgb(255, 255, 255); fill-rule: evenodd; stroke: rgb(32, 66, 161); stroke-width: 1pt;"/>
  <ellipse cx="372.06726" cy="394.76855" rx="11.774277" ry="25.314713" transform="matrix(0.406368, 0.029051, -0.00861161, 0.323892, 59.0789, -37.4354)" id="path626" style="font-size: 12px; fill: rgb(255, 255, 255); fill-rule: evenodd; stroke: rgb(32, 66, 161); stroke-width: 1pt;"/>
  <ellipse cx="372.06726" cy="394.76855" rx="11.774277" ry="25.314713" transform="matrix(0.404496, 0.0486769, -0.0241962, 0.323098, 74.0961, -44.4241)" id="path627" style="font-size: 12px; fill: rgb(255, 255, 255); fill-rule: evenodd; stroke: rgb(32, 66, 161); stroke-width: 1pt;"/>
  <ellipse cx="372.06726" cy="394.76855" rx="11.774277" ry="25.314713" transform="matrix(0.406368, 0.029051, -0.00861161, 0.323892, 58.118, -28.2843)" id="path624" style="font-size: 12px; fill: rgb(255, 255, 255); fill-rule: evenodd; stroke: rgb(32, 66, 161); stroke-width: 1pt;"/>
  <ellipse cx="372.06726" cy="394.76855" rx="11.774277" ry="25.314713" transform="matrix(0.404496, 0.0486769, -0.0241962, 0.323098, 73.1351, -34.3097)" id="path625" style="font-size: 12px; fill: rgb(255, 255, 255); fill-rule: evenodd; stroke: rgb(32, 66, 161); stroke-width: 1pt;"/>
  <ellipse cx="372.06726" cy="394.76855" rx="11.774277" ry="25.314713" transform="matrix(0.406368, 0.029051, -0.00861161, 0.323892, 59.0789, -16.2433)" id="path620" style="font-size: 12px; fill: rgb(255, 255, 255); fill-rule: evenodd; stroke: rgb(32, 66, 161); stroke-width: 1pt;"/>
  <ellipse cx="372.06726" cy="394.76855" rx="11.774277" ry="25.314713" transform="matrix(0.389314, 0.120328, -0.0813875, 0.313567, 97.9976, -34.5693)" id="path621" style="font-size: 12px; fill: rgb(255, 255, 255); fill-rule: evenodd; stroke: rgb(32, 66, 161); stroke-width: 1pt;"/>
  <ellipse cx="372.06726" cy="394.76855" rx="11.774277" ry="25.314713" transform="matrix(0.389314, 0.120328, -0.0813875, 0.313567, 104.244, -32.6428)" id="path622" style="font-size: 12px; fill: rgb(255, 255, 255); fill-rule: evenodd; stroke: rgb(32, 66, 161); stroke-width: 1pt;"/>
  <ellipse cx="372.06726" cy="394.76855" rx="11.774277" ry="25.314713" transform="matrix(0.404496, 0.0486769, -0.0241962, 0.323098, 75.057, -23.232)" id="path623" style="font-size: 12px; fill: rgb(255, 255, 255); fill-rule: evenodd; stroke: rgb(32, 66, 161); stroke-width: 1pt;"/>
  <use transform="translate(-40.3607, 8.66952)" id="use2752" x="0" y="0" width="900" height="500" xlink:href="#polygon579"/>
  <use transform="translate(-32.673, 23.1187)" id="use2754" x="0" y="0" width="900" height="500" xlink:href="#use2752"/>
  <use transform="translate(-16.3364, 34.678)" id="use2756" x="0" y="0" width="900" height="500" xlink:href="#use2754"/>
  <use transform="translate(-4.1e-05, 38.5311)" id="use2758" x="0" y="0" width="900" height="500" xlink:href="#use2756"/>
  <use transform="translate(16.3365, 38.531)" id="use2760" x="0" y="0" width="900" height="500" xlink:href="#use2758"/>
  <use transform="translate(31.2315, 27.935)" id="use2762" x="0" y="0" width="900" height="500" xlink:href="#use2760"/>
  <use transform="translate(40.3607, 9.63279)" id="use2764" x="0" y="0" width="900" height="500" xlink:href="#use2762"/>
  <use transform="translate(42.2827, -7.70616)" id="use2766" x="0" y="0" width="900" height="500" xlink:href="#use2764"/>
  <use transform="translate(31.2313, -27.935)" id="use2768" x="0" y="0" width="900" height="500" xlink:href="#use2766"/>
  <use transform="translate(17.2975, -38.531)" id="use2770" x="0" y="0" width="900" height="500" xlink:href="#use2768"/>
  <use transform="translate(-2.883, -37.5678)" id="use2772" x="0" y="0" width="900" height="500" xlink:href="#use2770"/>
  <use transform="translate(-17.2974, -35.6413)" id="use2774" x="0" y="0" width="900" height="500" xlink:href="#use2772"/>
  <use transform="translate(-26.9071, -25.0452)" id="use2776" x="0" y="0" width="900" height="500" xlink:href="#use2774"/>
</svg>