<?xml version="1.0" encoding="utf-8"?>
<!-- Generator: Adobe Illustrator 16.0.0, SVG Export Plug-In . SVG Version: 6.00 Build 0)  -->
<!DOCTYPE svg PUBLIC "-//W3C//DTD SVG 1.1//EN" "http://www.w3.org/Graphics/SVG/1.1/DTD/svg11.dtd">
<svg version="1.1"
	 id="Philippine_Naval_Jack" xmlns:dc="http://purl.org/dc/elements/1.1/" xmlns:cc="http://web.resource.org/cc/" xmlns:rdf="http://www.w3.org/1999/02/22-rdf-syntax-ns#" xmlns:svg="http://www.w3.org/2000/svg" xmlns:sodipodi="http://inkscape.sourceforge.net/DTD/sodipodi-0.dtd" xmlns:inkscape="http://www.inkscape.org/namespaces/inkscape" sodipodi:docbase="C:\Documents and Settings\David Nelson\Archives\Svg" sodipodi:docname="Naval_Jack_of_the_Philippines.svg" inkscape:version="0.43" sodipodi:version="0.32"
	 xmlns="http://www.w3.org/2000/svg" xmlns:xlink="http://www.w3.org/1999/xlink" x="0px" y="0px" width="675px" height="450px"
	 viewBox="-0.0002441 0.0002441 675 450" enable-background="new -0.0002441 0.0002441 675 450" xml:space="preserve">
<rect id="Blue_Field" x="-0.0002441" y="-0.0007324" fill="#0038A8" width="675" height="450"/>
<g id="Sun_and_Stars">
	<g id="Stars">
		<path id="Star_C" fill="#FCD116" d="M90.2624512,341.6623535l-11.1708984,34.375l-36.1455078,0.0019531l29.2412109,21.2460938
			l-11.1679688,34.3769531l29.2431641-21.2451172l29.2421875,21.2451172l-11.1679688-34.3769531l29.2412109-21.2460938
			l-36.1455078-0.0019531L90.2624512,341.6623535z"/>
		<path id="Star_B" fill="#FCD116" d="M584.7380371,180.0002441l11.1708984,34.375l36.1445313,0.0019531l-29.2412109,21.2460938
			l11.1689453,34.3769531l-29.2431641-21.2451172l-29.2421875,21.2451172l11.1679688-34.3769531l-29.2412109-21.2460938
			l36.1445313-0.0019531L584.7380371,180.0002441z"/>
		<path id="Star_A" fill="#FCD116" d="M90.2624512,18.3381348l-11.1708984,34.375l-36.1455078,0.0019531l29.2412109,21.2460938
			l-11.1679688,34.3769531l29.2431641-21.2451172l29.2421875,21.2451172l-11.1679688-34.3769531l29.2412109-21.2460938
			l-36.1455078-0.0019531L90.2624512,18.3381348z"/>
	</g>
	<g id="Philippine_Sun">
		<g id="Rays">
			<g id="NW">
				<path id="Minor_Ray_B" fill="#FCD116" d="M241.119873,105.9699707h11.8017578l79.5341797,119.0302734L241.119873,105.9699707z"
					/>
				<path id="Major_Ray" fill="#FCD116" d="M214.9001465,107.442627v14.4628906l117.5556641,103.0947266l-103.09375-117.5576172
					H214.9001465z"/>
				<path id="Minor_Ray_A" fill="#FCD116" d="M213.4255371,133.6652832v11.8027344l119.0302734,79.5322266L213.4255371,133.6652832z
					"/>
			</g>
			<g id="W">
				<path id="Minor_Ray_B_1_" fill="#FCD116" d="M183.704834,205.4172363l8.3457031-8.3457031l140.4052734,27.9287109
					L183.704834,205.4172363z"/>
				<path id="Major_Ray_1_" fill="#FCD116" d="M166.204834,225.0002441l10.2275391,10.2265625l156.0234375-10.2265625
					L176.432373,214.7727051L166.204834,225.0002441z"/>
				<path id="Minor_Ray_A_1_" fill="#FCD116" d="M183.704834,244.583252l8.3457031,8.3457031l140.4052734-27.9287109
					L183.704834,244.583252z"/>
			</g>
			<g id="SW">
				<path id="Minor_Ray_B_2_" fill="#FCD116" d="M213.4255371,316.3352051v-11.8027344l119.0302734-79.5322266
					L213.4255371,316.3352051z"/>
				<path id="Major_Ray_2_" fill="#FCD116" d="M214.9001465,342.5559082h14.4619141l103.09375-117.5556641L214.9001465,328.0949707
					V342.5559082z"/>
				<path id="Minor_Ray_A_2_" fill="#FCD116" d="M241.119873,344.029541h11.8017578l79.5341797-119.0292969L241.119873,344.029541z"
					/>
			</g>
			<g id="S">
				<path id="Minor_Ray_B_3_" fill="#FCD116" d="M312.8718262,373.7502441l-8.3447266-8.3476563l27.9287109-140.4023438
					L312.8718262,373.7502441z"/>
				<path id="Major_Ray_3_" fill="#FCD116" d="M332.4558105,391.2502441l10.2275391-10.2275391l-10.2275391-156.0224609
					l-10.2275391,156.0224609L332.4558105,391.2502441z"/>
				<path id="Minor_Ray_A_3_" fill="#FCD116" d="M352.0368652,373.7502441l8.3476563-8.3476563l-27.9287109-140.4023438
					L352.0368652,373.7502441z"/>
			</g>
			<g id="SE">
				<path id="Minor_Ray_B_7_" fill="#FCD116" d="M423.7888184,344.029541h-11.8007813l-79.5322266-119.0292969
					L423.7888184,344.029541z"/>
				<path id="Major_Ray_7_" fill="#FCD116" d="M450.0114746,342.5559082v-14.4609375L332.4558105,225.0002441
					l103.0947266,117.5556641H450.0114746z"/>
				<path id="Minor_Ray_A_7_" fill="#FCD116" d="M451.486084,316.3352051v-11.8027344l-119.0302734-79.5322266
					L451.486084,316.3352051z"/>
			</g>
			<g id="E">
				<path id="Minor_Ray_B_6_" fill="#FCD116" d="M481.204834,244.583252l-8.34375,8.3457031l-140.4052734-27.9287109
					L481.204834,244.583252z"/>
				<path id="Major_Ray_6_" fill="#FCD116" d="M498.704834,225.0002441l-10.2265625-10.2275391l-156.0224609,10.2275391
					l156.0224609,10.2265625L498.704834,225.0002441z"/>
				<path id="Minor_Ray_A_6_" fill="#FCD116" d="M481.204834,205.4172363l-8.34375-8.3457031l-140.4052734,27.9287109
					L481.204834,205.4172363z"/>
			</g>
			<g id="NE">
				<path id="Minor_Ray_B_5_" fill="#FCD116" d="M451.486084,133.6652832v11.8027344l-119.0302734,79.5322266
					L451.486084,133.6652832z"/>
				<path id="Major_Ray_5_" fill="#FCD116" d="M450.0114746,107.442627h-14.4609375L332.4558105,225.0002441L450.0114746,121.904541
					V107.442627z"/>
				<path id="Minor_Ray_A_5_" fill="#FCD116" d="M423.7888184,105.9699707h-11.8007813l-79.5322266,119.0302734
					L423.7888184,105.9699707z"/>
			</g>
			<g id="N">
				<path id="Minor_Ray_B_4_" fill="#FCD116" d="M352.0368652,76.2502441l8.3476563,8.3447266l-27.9287109,140.4052734
					L352.0368652,76.2502441z"/>
				<path id="Major_Ray_4_" fill="#FCD116" d="M332.4558105,58.7502441l-10.2275391,10.2265625l10.2275391,156.0234375
					l10.2275391-156.0234375L332.4558105,58.7502441z"/>
				<path id="Minor_Ray_A_4_" fill="#FCD116" d="M312.8718262,76.2502441l-8.3447266,8.3447266l27.9287109,140.4052734
					L312.8718262,76.2502441z"/>
			</g>
		</g>
		<circle id="Sun_Centre" fill="#FCD116" cx="332.4558105" cy="225.0002441" r="78.75"/>
	</g>
</g>
</svg>
