<?xml version="1.0" encoding="UTF-8" standalone="no"?>
<!-- Created with Inkscape (http://www.inkscape.org/) -->
<svg
   xmlns:svg="http://www.w3.org/2000/svg"
   xmlns="http://www.w3.org/2000/svg"
   version="1.0"
   width="600"
   height="400"
   id="svg2">
  <defs
     id="defs4" />
  <g
     id="layer1">
    <rect
       width="600"
       height="70"
       x="0"
       y="330"
       style="opacity:1;fill:#008800;fill-opacity:1;stroke:none"
       id="rect2160" />
    <rect
       width="600"
       height="70"
       x="0"
       y="0"
       style="opacity:1;fill:#008800;fill-opacity:1;stroke:none"
       id="rect3198" />
    <rect
       width="600"
       height="20"
       x="0"
       y="70"
       style="opacity:1;fill:#000000;fill-opacity:1;stroke:none"
       id="rect3200" />
    <rect
       width="600"
       height="20"
       x="0"
       y="310"
       style="opacity:1;fill:#000000;fill-opacity:1;stroke:none"
       id="rect4171" />
    <rect
       width="600"
       height="220"
       x="0"
       y="90"
       style="opacity:1;fill:#0033ff;fill-opacity:1;stroke:none"
       id="rect4173" />
    <path
       d="M 290,95 C 190,125 195,200 227,269 L 189,305 L 258,280 L 258,188 C 280,155 320,155 342,188 L 342,280 L 411,305 L 373,269 C 405,200 410,125 310,95 L 300,138 L 290,95 z "
       style="opacity:1;fill:#ffffff;fill-opacity:1;stroke:none"
       id="path5162" />
    <path
       d="M 147.70136,41.916072 L 141.06587,46.262758 L 143.0885,53.932988 L 136.90408,48.965456 L 130.23428,53.259327 L 133.04759,45.842538 L 126.9028,40.826065 L 134.82595,41.209769 L 137.69805,33.815548 L 139.78151,41.469479 L 147.70136,41.916072 z "
       transform="matrix(3.6439588,-0.1980871,0.1934751,3.8308938,-208.3274,65.732436)"
       style="opacity:1;fill:#ffffff;fill-opacity:1;stroke:none;stroke-opacity:1"
       id="path6829" />
  </g>
</svg>
