<?xml version="1.0" encoding="UTF-8" standalone="no"?>
<svg xmlns="http://www.w3.org/2000/svg" version="1.1" height="231.53" width="300">
 <path fill="#1aae48" d="M149.86,0,300,0v231.53h-150.14v-4.125h146.01v-223.28h-146.01v-4.125m-149.86,0.005h149.86v4.125h-145.74v223.28h145.74v4.125l-149.86,0.01v-231.53z"/>
 <path fill="#1aae48" d="m0,70.944,88.544,0v-70.944h-88.544v70.944z"/>
 <path fill="#1aae48" d="m98.716,0-4.1227,0,0,76.994-94.594,0,0,4.125,98.716,0,0,0,0,0,0-81.119z"/>
 <path fill="#1aae48" d="M211.46,70.944,300,70.944,300,0h-88.544v70.944z"/>
 <path fill="#1aae48" d="m201.01,0,4.1231,0,0,76.994,94.869,0,0,4.125-98.992,0,0,0,0,0,0-81.119z"/>
 <path fill="#1aae48" d="m211.46,231.53,88.544,0,0-70.939-88.544,0,0,70.939z"/>
 <path fill="#1aae48" d="m201.01,231.53,4.1231,0,0-76.988,94.869,0,0-4.125-98.992,0,0,0,0,0,0,81.113z"/>
 <path fill="#1aae48" d="m0,231.53,88.544,0,0-70.939-88.544,0,0,70.939z"/>
 <path fill="#1aae48" d="m98.716,231.53-4.1227,0,0-76.988-94.594,0,0-4.125,98.716,0,0,0,0,0,0,81.113z"/>
 <path fill="#1aae48" d="m179.56,18.7c-1.6502-3.0247-6.3233-3.3008-10.448-1.9244l-5.7733,7.422-9.0761,4.4007-7.6997,4.9492c-3.8489,7.4254-5.7733,17.048-11.823,23.649-2.749,0.82416-4.9492,4.673-6.5998,11.547-0.82605,8.5257-7.4236,17.324-14.025,26.674l-6.8736,8.5258-2.4748,18.972c0.27407,7.6978,0,15.399-1.0984,23.373l9.3484,12.923,4.9492,13.747,13.749,14.021,6.8736,11.83-0.82416,4.9457,2.2002,5.4972,9.8983,1.3802,1.3745-2.2006-2.7505-11.278c-1.3726-10.443,1.6521-15.12,3.5766-21.72,1.3745-4.1246,1.6483-7.4255,3.5732-9.3499,6.8751-8.5219,12.925-17.596,15.949-27.77,3.0247-3.8527,5.4995-10.45,7.6997-19.524,0.82452-8.5257,3.0247-17.324,6.3236-25.85-1.3745-4.3973-2.1987-9.0742-1.6502-13.471l8.8-21.997c0-1.9279-0.82605-5.7768-2.1986-11.002-0.27619-1.3726-0.55187-3.8489-1.1003-5.7733l6.0494-8.5223-3.0247-7.1493c-6.8755-0.82797-11.275-2.2006-12.925-6.3256z"/>
</svg>
