<?xml version="1.0" encoding="UTF-8" standalone="no"?>
<!-- Created using Karbon14, part of koffice: http://www.koffice.org/karbon -->

<svg
   xmlns:dc="http://purl.org/dc/elements/1.1/"
   xmlns:cc="http://creativecommons.org/ns#"
   xmlns:rdf="http://www.w3.org/1999/02/22-rdf-syntax-ns#"
   xmlns:svg="http://www.w3.org/2000/svg"
   xmlns="http://www.w3.org/2000/svg"
   xmlns:sodipodi="http://sodipodi.sourceforge.net/DTD/sodipodi-0.dtd"
   xmlns:inkscape="http://www.inkscape.org/namespaces/inkscape"
   width="750px"
   height="500px"
   id="svg2"
   sodipodi:version="0.32"
   inkscape:version="0.48.2 r9819"
   sodipodi:docname="AJAX.svg"
   version="1.1">
  <metadata
     id="metadata28">
    <rdf:RDF>
      <cc:Work
         rdf:about="">
        <dc:format>image/svg+xml</dc:format>
        <dc:type
           rdf:resource="http://purl.org/dc/dcmitype/StillImage" />
      </cc:Work>
    </rdf:RDF>
  </metadata>
  <sodipodi:namedview
     inkscape:window-height="1004"
     inkscape:window-width="1280"
     inkscape:pageshadow="2"
     inkscape:pageopacity="0.0"
     guidetolerance="10.0"
     gridtolerance="10.0"
     objecttolerance="10.0"
     borderopacity="1.0"
     bordercolor="#666666"
     pagecolor="#ffffff"
     id="base"
     inkscape:zoom="0.70710678"
     inkscape:cx="177.94198"
     inkscape:cy="299.39771"
     inkscape:window-x="-8"
     inkscape:window-y="-8"
     inkscape:current-layer="g1906"
     showgrid="false"
     inkscape:window-maximized="1" />
  <defs
     id="defs4" />
  <g
     transform="scale(1, -1) translate(0, -500)"
     id="g6">
    <g
       id="g1906">
      <path
         d="M 0,0 L 0,500 L 750,500 L 750,0 L 0,0 z "
         id="path9"
         style="fill:#003f82;fill-rule:evenodd;stroke-linecap:square;fill-opacity:1;stroke:none" />
      <path
         d="M 0,429.513 L 0,500 L 317.192,500 L 317.192,429.513 L 0,429.513 z "
         id="path11"
         style="fill:#d81e05;fill-opacity:1;stroke:none" />
      <path
         d="M 0,359.026 L 0,429.513 L 317.192,429.513 L 317.192,359.026 L 0,359.026 z "
         id="path13"
         style="fill:#f7e214;fill-opacity:1;stroke:none" />
      <path
         d="M 0,288.539 L 0,359.026 L 317.192,359.026 L 317.192,288.539 L 0,288.539 z "
         id="path15"
         style="fill:#007a3d;fill-opacity:1;stroke:none" />
      <path
         id="path4133"
         d="M 42.6838,277.536 L 46.9935,264.274 L 60.9385,264.273 L 49.6571,256.076 L 53.9658,242.814 L 42.6838,251.01 L 31.4018,242.814 L 35.7105,256.076 L 24.4291,264.273 L 38.3741,264.274 L 42.6838,277.536 z "
         style="fill:#f7e214;fill-rule:evenodd;stroke-width:0.70693099000000004;stroke-linecap:square;fill-opacity:1;stroke:none" />
      <path
         id="path4135"
         d="M 356.434,277.536 L 360.744,264.274 L 374.688,264.273 L 363.407,256.076 L 367.716,242.814 L 356.434,251.01 L 345.152,242.814 L 349.461,256.076 L 338.179,264.273 L 352.124,264.274 L 356.434,277.536 z "
         style="fill:#f7e214;fill-rule:evenodd;stroke-width:0.70693099000000004;stroke-linecap:square;fill-opacity:1;stroke:none" />
      <path
         id="path4137"
         d="M 105.434,277.536 L 109.744,264.274 L 123.688,264.273 L 112.407,256.076 L 116.716,242.814 L 105.434,251.01 L 94.1518,242.814 L 98.4605,256.076 L 87.1791,264.273 L 101.124,264.274 L 105.434,277.536 z "
         style="fill:#f7e214;fill-rule:evenodd;stroke-width:0.70693099000000004;stroke-linecap:square;fill-opacity:1;stroke:none" />
      <path
         id="path4139"
         d="M 168.184,277.536 L 172.494,264.274 L 186.438,264.273 L 175.157,256.076 L 179.466,242.814 L 168.184,251.01 L 156.902,242.814 L 161.211,256.076 L 149.929,264.273 L 163.874,264.274 L 168.184,277.536 z "
         style="fill:#f7e214;fill-rule:evenodd;stroke-width:0.70693099000000004;stroke-linecap:square;fill-opacity:1;stroke:none" />
      <path
         id="path4141"
         d="M 230.934,277.536 L 235.244,264.274 L 249.188,264.273 L 237.907,256.076 L 242.216,242.814 L 230.934,251.01 L 219.652,242.814 L 223.961,256.076 L 212.679,264.273 L 226.624,264.274 L 230.934,277.536 z "
         style="fill:#f7e214;fill-rule:evenodd;stroke-width:0.70693099000000004;stroke-linecap:square;fill-opacity:1;stroke:none" />
      <path
         id="path4143"
         d="M 293.684,277.536 L 297.994,264.274 L 311.938,264.273 L 300.657,256.076 L 304.966,242.814 L 293.684,251.01 L 282.402,242.814 L 286.711,256.076 L 275.429,264.273 L 289.374,264.274 L 293.684,277.536 z "
         style="fill:#f7e214;fill-rule:evenodd;stroke-width:0.70693099000000004;stroke-linecap:square;fill-opacity:1;stroke:none" />
      <path
         id="path4145"
         d="M 356.434,474.619 L 360.744,461.357 L 374.688,461.357 L 363.407,453.159 L 367.716,439.897 L 356.434,448.093 L 345.152,439.897 L 349.461,453.159 L 338.179,461.357 L 352.124,461.357 L 356.434,474.619 z "
         style="fill:#f7e214;fill-rule:evenodd;stroke-width:0.70693099000000004;stroke-linecap:square;fill-opacity:1;stroke:none" />
      <path
         id="path4147"
         d="M 356.434,340.453 L 360.744,327.19 L 374.688,327.19 L 363.407,318.993 L 367.716,305.73 L 356.434,313.926 L 345.152,305.73 L 349.461,318.993 L 338.179,327.19 L 352.124,327.19 L 356.434,340.453 z "
         style="fill:#f7e214;fill-rule:evenodd;stroke-width:0.70693099000000004;stroke-linecap:square;fill-opacity:1;stroke:none" />
      <path
         id="path4149"
         d="M 356.434,407.536 L 360.744,394.274 L 374.688,394.273 L 363.407,386.076 L 367.716,372.814 L 356.434,381.01 L 345.152,372.814 L 349.461,386.076 L 338.179,394.273 L 352.124,394.274 L 356.434,407.536 z "
         style="fill:#f7e214;fill-rule:evenodd;stroke-width:0.70693099000000004;stroke-linecap:square;fill-opacity:1;stroke:none" />
      <path
         id="path4153"
         d="M 564.129,210.414 L 573.33,182.1 L 603.101,182.099 L 579.016,164.599 L 588.215,136.284 L 564.129,153.783 L 540.043,136.284 L 549.241,164.599 L 525.157,182.099 L 554.928,182.1 L 564.129,210.414 z "
         style="fill:#f7e214;fill-rule:evenodd;stroke-width:0.83333301999999998;stroke-linecap:square;fill-opacity:1;stroke:none" />
    </g>
  </g>
</svg>
