<?xml version="1.0" encoding="UTF-8" standalone="no"?>
<!-- Created with Inkscape (http://www.inkscape.org/) -->
<svg
   xmlns:dc="http://purl.org/dc/elements/1.1/"
   xmlns:cc="http://web.resource.org/cc/"
   xmlns:rdf="http://www.w3.org/1999/02/22-rdf-syntax-ns#"
   xmlns:svg="http://www.w3.org/2000/svg"
   xmlns="http://www.w3.org/2000/svg"
   xmlns:sodipodi="http://sodipodi.sourceforge.net/DTD/sodipodi-0.dtd"
   xmlns:inkscape="http://www.inkscape.org/namespaces/inkscape"
   id="svg2270"
   sodipodi:version="0.32"
   inkscape:version="0.45.1"
   width="900"
   height="600"
   version="1.0"
   sodipodi:docbase="D:\Documenten en settings\Hero of Hyrule\Mijn documenten\Mijn afbeeldingen\Vlaggen\SVG-Nieuw"
   sodipodi:docname="Flag_of_the German_East_Africa_Company.svg"
   inkscape:output_extension="org.inkscape.output.svg.inkscape">
  <metadata
     id="metadata2275">
    <rdf:RDF>
      <cc:Work
         rdf:about="">
        <dc:format>image/svg+xml</dc:format>
        <dc:type
           rdf:resource="http://purl.org/dc/dcmitype/StillImage" />
      </cc:Work>
    </rdf:RDF>
  </metadata>
  <defs
     id="defs2273" />
  <sodipodi:namedview
     inkscape:window-height="718"
     inkscape:window-width="1024"
     inkscape:pageshadow="2"
     inkscape:pageopacity="0.0"
     guidetolerance="10.0"
     gridtolerance="10000"
     objecttolerance="10.0"
     borderopacity="1.0"
     bordercolor="#666666"
     pagecolor="#ffffff"
     id="base"
     showgrid="true"
     width="900px"
     height="600px"
     inkscape:grid-points="true"
     inkscape:zoom="0.38973576"
     inkscape:cx="266.24165"
     inkscape:cy="408.05362"
     inkscape:window-x="-4"
     inkscape:window-y="-4"
     inkscape:current-layer="svg2270" />
  <g
     id="g4489">
    <rect
       y="0"
       x="0"
       height="600"
       width="900"
       id="rect4474"
       style="opacity:1;fill:#ffffff;fill-opacity:1;stroke:none;stroke-width:1;stroke-miterlimit:4;stroke-dasharray:none;stroke-dashoffset:0;stroke-opacity:1" />
    <path
       id="rect4470"
       d="M 420,-4.5741189e-014 L 420,270 L 0,270 L 0,330 L 420,330 L 420,600 L 480,600 L 480,330 L 900,330 L 900,270 L 480,270 L 480,-4.5741189e-014 L 420,-4.5741189e-014 z "
       style="opacity:1;fill:#000000;fill-opacity:1;stroke:none;stroke-width:1;stroke-miterlimit:4;stroke-dasharray:none;stroke-dashoffset:0;stroke-opacity:1" />
    <rect
       y="5.2846616e-014"
       x="0"
       height="270"
       width="420"
       id="rect4476"
       style="opacity:1;fill:#dd0000;fill-opacity:1;stroke:none;stroke-width:1;stroke-miterlimit:4;stroke-dasharray:none;stroke-dashoffset:0;stroke-opacity:1" />
    <path
       transform="matrix(1.9975335,0,0,2.046288,-64.679166,-273.52396)"
       d="M 100,230 L 90.654093,236.78979 L 94.390537,247.72076 L 85.045021,240.93044 L 75.803671,247.86186 L 79.373731,236.87542 L 69.925819,230.22831 L 81.477754,230.22864 L 84.879972,219.18907 L 88.449401,230.17571 L 100,230 z "
       inkscape:randomized="0"
       inkscape:rounded="0"
       inkscape:flatsided="false"
       sodipodi:arg2="0.30656798"
       sodipodi:arg1="-0.32175055"
       sodipodi:r2="5.9306083"
       sodipodi:r1="15.811388"
       sodipodi:cy="235"
       sodipodi:cx="85"
       sodipodi:sides="5"
       id="path4479"
       style="opacity:1;fill:#ffffff;fill-opacity:1;stroke:none;stroke-width:1;stroke-miterlimit:4;stroke-dasharray:none;stroke-dashoffset:0;stroke-opacity:1"
       sodipodi:type="star" />
    <path
       sodipodi:type="star"
       style="opacity:1;fill:#ffffff;fill-opacity:1;stroke:none;stroke-width:1;stroke-miterlimit:4;stroke-dasharray:none;stroke-dashoffset:0;stroke-opacity:1"
       id="path4481"
       sodipodi:sides="5"
       sodipodi:cx="85"
       sodipodi:cy="235"
       sodipodi:r1="15.811388"
       sodipodi:r2="5.9306083"
       sodipodi:arg1="-0.32175055"
       sodipodi:arg2="0.30656798"
       inkscape:flatsided="false"
       inkscape:rounded="0"
       inkscape:randomized="0"
       d="M 100,230 L 90.654093,236.78979 L 94.390537,247.72076 L 85.045021,240.93044 L 75.803671,247.86186 L 79.373731,236.87542 L 69.925819,230.22831 L 81.477754,230.22864 L 84.879972,219.18907 L 88.449401,230.17571 L 100,230 z "
       transform="matrix(1.9975335,0,0,2.046288,-94.679166,-403.52396)" />
    <path
       transform="matrix(1.9975335,0,0,2.046288,80.24665,-427.19676)"
       d="M 100,230 L 90.654093,236.78979 L 94.390537,247.72076 L 85.045021,240.93044 L 75.803671,247.86186 L 79.373731,236.87542 L 69.925819,230.22831 L 81.477754,230.22864 L 84.879972,219.18907 L 88.449401,230.17571 L 100,230 z "
       inkscape:randomized="0"
       inkscape:rounded="0"
       inkscape:flatsided="false"
       sodipodi:arg2="0.30656798"
       sodipodi:arg1="-0.32175055"
       sodipodi:r2="5.9306083"
       sodipodi:r1="15.811388"
       sodipodi:cy="235"
       sodipodi:cx="85"
       sodipodi:sides="5"
       id="path4483"
       style="opacity:1;fill:#ffffff;fill-opacity:1;stroke:none;stroke-width:1;stroke-miterlimit:4;stroke-dasharray:none;stroke-dashoffset:0;stroke-opacity:1"
       sodipodi:type="star" />
    <path
       sodipodi:type="star"
       style="opacity:1;fill:#ffffff;fill-opacity:1;stroke:none;stroke-width:1;stroke-miterlimit:4;stroke-dasharray:none;stroke-dashoffset:0;stroke-opacity:1"
       id="path4485"
       sodipodi:sides="5"
       sodipodi:cx="85"
       sodipodi:cy="235"
       sodipodi:r1="15.811388"
       sodipodi:r2="5.9306083"
       sodipodi:arg1="-0.32175055"
       sodipodi:arg2="0.30656798"
       inkscape:flatsided="false"
       inkscape:rounded="0"
       inkscape:randomized="0"
       d="M 100,230 L 90.654093,236.78979 L 94.390537,247.72076 L 85.045021,240.93044 L 75.803671,247.86186 L 79.373731,236.87542 L 69.925819,230.22831 L 81.477754,230.22864 L 84.879972,219.18907 L 88.449401,230.17571 L 100,230 z "
       transform="matrix(1.9975335,0,0,2.046288,85.320834,-302.19676)" />
    <path
       transform="matrix(1.9975335,0,0,2.046288,195.24665,-253.52396)"
       d="M 100,230 L 90.654093,236.78979 L 94.390537,247.72076 L 85.045021,240.93044 L 75.803671,247.86186 L 79.373731,236.87542 L 69.925819,230.22831 L 81.477754,230.22864 L 84.879972,219.18907 L 88.449401,230.17571 L 100,230 z "
       inkscape:randomized="0"
       inkscape:rounded="0"
       inkscape:flatsided="false"
       sodipodi:arg2="0.30656798"
       sodipodi:arg1="-0.32175055"
       sodipodi:r2="5.9306083"
       sodipodi:r1="15.811388"
       sodipodi:cy="235"
       sodipodi:cx="85"
       sodipodi:sides="5"
       id="path4487"
       style="opacity:1;fill:#ffffff;fill-opacity:1;stroke:none;stroke-width:1;stroke-miterlimit:4;stroke-dasharray:none;stroke-dashoffset:0;stroke-opacity:1"
       sodipodi:type="star" />
  </g>
</svg>
