<?xml version="1.0" encoding="UTF-8" standalone="no"?>
<!-- Created with Inkscape (http://www.inkscape.org/) -->
<svg
   xmlns:dc="http://purl.org/dc/elements/1.1/"
   xmlns:cc="http://web.resource.org/cc/"
   xmlns:rdf="http://www.w3.org/1999/02/22-rdf-syntax-ns#"
   xmlns:svg="http://www.w3.org/2000/svg"
   xmlns="http://www.w3.org/2000/svg"
   xmlns:sodipodi="http://sodipodi.sourceforge.net/DTD/sodipodi-0.dtd"
   xmlns:inkscape="http://www.inkscape.org/namespaces/inkscape"
   id="svg2271"
   sodipodi:version="0.32"
   inkscape:version="0.44"
   width="300"
   height="200"
   version="1.0"
   sodipodi:docbase="C:\flags"
   sodipodi:docname="korea.svg">
  <metadata
     id="metadata2276">
    <rdf:RDF>
      <cc:Work
         rdf:about="">
        <dc:format>image/svg+xml</dc:format>
        <dc:type
           rdf:resource="http://purl.org/dc/dcmitype/StillImage" />
      </cc:Work>
    </rdf:RDF>
  </metadata>
  <defs
     id="defs2274" />
  <sodipodi:namedview
     inkscape:window-height="755"
     inkscape:window-width="1280"
     inkscape:pageshadow="2"
     inkscape:pageopacity="0.0"
     guidetolerance="10.0"
     gridtolerance="10.0"
     objecttolerance="10.0"
     borderopacity="1.0"
     bordercolor="#666666"
     pagecolor="#ffffff"
     id="base"
     height="200px"
     width="300px"
     inkscape:zoom="1.5304941"
     inkscape:cx="133.69067"
     inkscape:cy="93.395616"
     inkscape:window-x="-5"
     inkscape:window-y="-5"
     inkscape:current-layer="svg2271"
     showguides="true"
     inkscape:guide-bbox="true" />
  <rect
     style="opacity:1;fill:white;fill-opacity:1;stroke:none;stroke-width:4;stroke-miterlimit:4;stroke-dasharray:none;stroke-opacity:1"
     id="rect1888"
     width="300"
     height="200"
     x="0"
     y="2.0428104e-014" />
  <path
     style="fill:#d44322"
     d="M 134.80266,151.1198 C 117.50304,146.14873 102.98935,132.29757 97.140451,115.17683 C 94.405111,107.17002 93.946914,91.521174 96.212561,83.486388 C 101.74623,63.861973 117.05422,48.596238 136.348,43.461732 C 143.34626,41.599338 157.25764,41.59896 164.25445,43.460974 C 178.633,47.287446 192.07664,57.979706 198.76062,70.90509 C 204.70125,82.39301 206.82241,98.482238 203.91297,109.98639 C 198.75389,130.38583 183.21261,146.38873 163.59947,151.4973 C 156.04136,153.46594 142.34241,153.28635 134.80266,151.1198 z "
     id="path2374" />
  <path
     style="fill:#363455"
     d="M 129.63001,146.48579 C 118.49796,144.89857 109.20401,137.2688 103.39262,127.92579 C 94.616133,114.86958 92.630891,97.961198 96.453871,82.881185 C 102.57281,60.325005 123.96926,42.474232 147.56187,41.971201 C 162.12446,41.165782 176.14535,45.744852 187.52975,56.397295 C 189.76345,58.255693 193.49622,61.91051 196.6158,66.982801 C 190.20099,60.44164 183.98146,57.420296 178.54678,55.08131 C 162.31152,48.093964 141.62076,48.005581 127.46413,59.557626 C 120.04527,66.066305 114.31194,75.135681 113.05297,85.020076 C 112.50452,93.981686 111.82202,104.06735 117.9543,111.44986 C 122.10117,117.27423 129.19622,120.24887 136.23491,120.00521 C 143.31382,120.32927 151.38407,116.069 152.25503,108.44031 C 152.97662,101.15809 145.81827,96.515668 144.54495,89.827217 C 143.51026,82.702237 149.78475,75.87901 156.94559,76.05725 C 166.5411,74.999801 176.02668,80.085429 181.19439,88.095249 C 189.02444,99.390593 188.61511,114.97695 181.74849,126.62568 C 175.34486,138.27377 163.06983,146.6734 149.66852,147.38614 C 142.99357,148.09876 136.21899,147.74407 129.63001,146.48579 z "
     id="path2314"
     sodipodi:nodetypes="ccccccsccccccccccc" />
  <rect
     y="146.56277"
     x="169.37749"
     height="33.036854"
     width="3.1842747"
     id="rect2652"
     style="fill:#000000;fill-opacity:1;stroke:none;stroke-width:1;stroke-linecap:round;stroke-linejoin:bevel;stroke-miterlimit:4;stroke-dasharray:none;stroke-dashoffset:0;stroke-opacity:1"
     transform="matrix(0.8425641,-0.538596,0.538596,0.8425641,0,0)" />
  <rect
     transform="matrix(0.8425641,-0.538596,0.538596,0.8425641,0,0)"
     style="fill:#000000;fill-opacity:1;stroke:none;stroke-width:1;stroke-linecap:round;stroke-linejoin:bevel;stroke-miterlimit:4;stroke-dasharray:none;stroke-dashoffset:0;stroke-opacity:1"
     id="rect4592"
     width="3.1842744"
     height="33.036854"
     x="176.70395"
     y="146.67947" />
  <rect
     y="146.51035"
     x="183.58324"
     height="33.036854"
     width="3.1842742"
     id="rect4594"
     style="fill:#000000;fill-opacity:1;stroke:none;stroke-width:1;stroke-linecap:round;stroke-linejoin:bevel;stroke-miterlimit:4;stroke-dasharray:none;stroke-dashoffset:0;stroke-opacity:1"
     transform="matrix(0.8425641,-0.538596,0.538596,0.8425641,0,0)" />
  <rect
     transform="matrix(0.8425641,0.538596,0.538596,-0.8425641,0,0)"
     style="fill:#000000;fill-opacity:1;stroke:none;stroke-width:1;stroke-linecap:round;stroke-linejoin:bevel;stroke-miterlimit:4;stroke-dasharray:none;stroke-dashoffset:0;stroke-opacity:1"
     id="rect4596"
     width="3.184274"
     height="33.036854"
     x="277.14264"
     y="-22.119703" />
  <rect
     transform="matrix(0.8425641,0.538596,0.538596,-0.8425641,0,0)"
     style="fill:#000000;fill-opacity:1;stroke:none;stroke-width:1;stroke-linecap:round;stroke-linejoin:bevel;stroke-miterlimit:4;stroke-dasharray:none;stroke-dashoffset:0;stroke-opacity:1"
     id="rect4600"
     width="3.1842735"
     height="33.036854"
     x="291.34839"
     y="-22.172132" />
  <rect
     y="-7.772377"
     x="284.33585"
     height="13.665849"
     width="3.0515971"
     id="rect4614"
     style="fill:#000000;fill-opacity:1;stroke:none;stroke-width:1;stroke-linecap:round;stroke-linejoin:bevel;stroke-miterlimit:4;stroke-dasharray:none;stroke-dashoffset:0;stroke-opacity:1"
     transform="matrix(0.8487434,0.5288049,-0.5288049,0.8487434,0,0)" />
  <rect
     transform="matrix(0.8487434,0.5288049,-0.5288049,0.8487434,0,0)"
     style="fill:#000000;fill-opacity:1;stroke:none;stroke-width:1;stroke-linecap:round;stroke-linejoin:bevel;stroke-miterlimit:4;stroke-dasharray:none;stroke-dashoffset:0;stroke-opacity:1"
     id="rect4616"
     width="3.0515974"
     height="13.66585"
     x="284.37231"
     y="12.134499" />
  <rect
     y="150.13713"
     x="25.452036"
     height="13.665849"
     width="3.0515971"
     id="rect4624"
     style="fill:#000000;fill-opacity:1;stroke:none;stroke-width:1;stroke-linecap:round;stroke-linejoin:bevel;stroke-miterlimit:4;stroke-dasharray:none;stroke-dashoffset:0;stroke-opacity:1"
     transform="matrix(-0.8487434,0.5288049,0.5288049,0.8487434,0,0)" />
  <rect
     transform="matrix(-0.8487434,0.5288049,0.5288049,0.8487434,0,0)"
     style="fill:#000000;fill-opacity:1;stroke:none;stroke-width:1;stroke-linecap:round;stroke-linejoin:bevel;stroke-miterlimit:4;stroke-dasharray:none;stroke-dashoffset:0;stroke-opacity:1"
     id="rect4626"
     width="3.0515974"
     height="13.66585"
     x="25.488504"
     y="170.04401" />
  <rect
     transform="matrix(-0.8487434,0.5288049,0.5288049,0.8487434,0,0)"
     style="fill:#000000;fill-opacity:1;stroke:none;stroke-width:1;stroke-linecap:round;stroke-linejoin:bevel;stroke-miterlimit:4;stroke-dasharray:none;stroke-dashoffset:0;stroke-opacity:1"
     id="rect5599"
     width="3.0515971"
     height="13.665849"
     x="33.257507"
     y="150.11998" />
  <rect
     y="170.02686"
     x="33.293976"
     height="13.66585"
     width="3.0515974"
     id="rect5601"
     style="fill:#000000;fill-opacity:1;stroke:none;stroke-width:1;stroke-linecap:round;stroke-linejoin:bevel;stroke-miterlimit:4;stroke-dasharray:none;stroke-dashoffset:0;stroke-opacity:1"
     transform="matrix(-0.8487434,0.5288049,0.5288049,0.8487434,0,0)" />
  <rect
     y="150.13055"
     x="40.767597"
     height="13.665849"
     width="3.0515971"
     id="rect5605"
     style="fill:#000000;fill-opacity:1;stroke:none;stroke-width:1;stroke-linecap:round;stroke-linejoin:bevel;stroke-miterlimit:4;stroke-dasharray:none;stroke-dashoffset:0;stroke-opacity:1"
     transform="matrix(-0.8487434,0.5288049,0.5288049,0.8487434,0,0)" />
  <rect
     transform="matrix(-0.8487434,0.5288049,0.5288049,0.8487434,0,0)"
     style="fill:#000000;fill-opacity:1;stroke:none;stroke-width:1;stroke-linecap:round;stroke-linejoin:bevel;stroke-miterlimit:4;stroke-dasharray:none;stroke-dashoffset:0;stroke-opacity:1"
     id="rect5607"
     width="3.0515974"
     height="13.66585"
     x="40.804066"
     y="170.03743" />
  <rect
     y="-13.408854"
     x="80.643684"
     height="13.665849"
     width="3.0515971"
     id="rect5611"
     style="fill:#000000;fill-opacity:1;stroke:none;stroke-width:1;stroke-linecap:round;stroke-linejoin:bevel;stroke-miterlimit:4;stroke-dasharray:none;stroke-dashoffset:0;stroke-opacity:1"
     transform="matrix(0.8487434,0.5288049,-0.5288049,0.8487434,0,0)" />
  <rect
     transform="matrix(0.8487434,0.5288049,-0.5288049,0.8487434,0,0)"
     style="fill:#000000;fill-opacity:1;stroke:none;stroke-width:1;stroke-linecap:round;stroke-linejoin:bevel;stroke-miterlimit:4;stroke-dasharray:none;stroke-dashoffset:0;stroke-opacity:1"
     id="rect5613"
     width="3.0515974"
     height="13.66585"
     x="80.680153"
     y="6.4980221" />
  <rect
     y="-13.557342"
     x="65.075195"
     height="13.665849"
     width="3.0515971"
     id="rect5617"
     style="fill:#000000;fill-opacity:1;stroke:none;stroke-width:1;stroke-linecap:round;stroke-linejoin:bevel;stroke-miterlimit:4;stroke-dasharray:none;stroke-dashoffset:0;stroke-opacity:1"
     transform="matrix(0.8487434,0.5288049,-0.5288049,0.8487434,0,0)" />
  <rect
     transform="matrix(0.8487434,0.5288049,-0.5288049,0.8487434,0,0)"
     style="fill:#000000;fill-opacity:1;stroke:none;stroke-width:1;stroke-linecap:round;stroke-linejoin:bevel;stroke-miterlimit:4;stroke-dasharray:none;stroke-dashoffset:0;stroke-opacity:1"
     id="rect5619"
     width="3.0515974"
     height="13.66585"
     x="65.111664"
     y="6.349534" />
  <rect
     transform="matrix(-0.8425641,-0.538596,-0.538596,0.8425641,0,0)"
     style="fill:#000000;fill-opacity:1;stroke:none;stroke-width:1;stroke-linecap:round;stroke-linejoin:bevel;stroke-miterlimit:4;stroke-dasharray:none;stroke-dashoffset:0;stroke-opacity:1"
     id="rect5621"
     width="3.1842735"
     height="33.036854"
     x="-76.303734"
     y="-14.016315" />
</svg>
