<?xml version="1.0" encoding="UTF-8" standalone="no"?>
<!-- Created with Inkscape (http://www.inkscape.org/) -->
<svg
   xmlns:dc="http://purl.org/dc/elements/1.1/"
   xmlns:cc="http://web.resource.org/cc/"
   xmlns:rdf="http://www.w3.org/1999/02/22-rdf-syntax-ns#"
   xmlns:svg="http://www.w3.org/2000/svg"
   xmlns="http://www.w3.org/2000/svg"
   xmlns:sodipodi="http://sodipodi.sourceforge.net/DTD/sodipodi-0.dtd"
   xmlns:inkscape="http://www.inkscape.org/namespaces/inkscape"
   id="svg8208"
   sodipodi:version="0.32"
   inkscape:version="0.44"
   width="576"
   height="288"
   version="1.0"
   sodipodi:docbase="C:\flags"
   sodipodi:docname="Pine Ridge Flag.svg">
  <metadata
     id="metadata8213">
    <rdf:RDF>
      <cc:Work
         rdf:about="">
        <dc:format>image/svg+xml</dc:format>
        <dc:type
           rdf:resource="http://purl.org/dc/dcmitype/StillImage" />
      </cc:Work>
    </rdf:RDF>
  </metadata>
  <defs
     id="defs8211" />
  <sodipodi:namedview
     inkscape:window-height="624"
     inkscape:window-width="949"
     inkscape:pageshadow="2"
     inkscape:pageopacity="0.0"
     guidetolerance="10.0"
     gridtolerance="10.0"
     objecttolerance="10.0"
     borderopacity="1.0"
     bordercolor="#666666"
     pagecolor="#ffffff"
     id="base"
     inkscape:zoom="1.4652778"
     inkscape:cx="288"
     inkscape:cy="144"
     inkscape:window-x="44"
     inkscape:window-y="58"
     inkscape:current-layer="svg8208" />
  <rect
     style="opacity:1;fill:#a50021;fill-opacity:1;stroke:none;stroke-width:1.26699996;stroke-miterlimit:4;stroke-dasharray:none;stroke-opacity:1"
     id="rect9139"
     width="576"
     height="288"
     x="0"
     y="0" />
  <path
     style="fill:white;fill-opacity:1"
     d="M 293,257.98982 C 293,255.30185 293.24039,255.09808 295.80601,255.6112 C 297.7066,255.99132 299.04466,255.65112 299.95279,254.55689 C 301.09749,253.1776 300.97027,252.59726 299.08274,250.58808 L 296.87194,248.23478 L 305.99508,230.00983 C 311.01281,219.98611 314.9282,211.59486 314.69595,211.36262 C 314.4637,211.13037 310.09903,212.02176 304.99668,213.34348 L 295.71967,215.74661 L 292.37235,221.62331 L 289.02503,227.5 L 289.01251,245.28518 C 289.00022,262.76231 289.03464,263.05183 291,262 C 292.30373,261.30227 293,259.90618 293,257.98982 z "
     id="path9135" />
  <path
     style="fill:white;fill-opacity:1"
     d="M 287,243.98485 L 287,225.9697 L 283.90454,220.48485 C 281.64966,216.48942 280.22315,215 278.65136,215 C 277.46461,215 273.3465,214.1 269.5,213 C 265.6535,211.9 262.25548,211 261.94885,211 C 261.64222,211 265.56019,219.26355 270.65547,229.36345 L 279.9196,247.7269 L 277.49847,250.00144 C 275.53467,251.84633 275.27634,252.64783 276.13088,254.24455 C 276.94281,255.76165 277.85128,256.07974 280.09221,255.63156 C 282.76629,255.09674 283,255.28241 283,257.94167 C 283,260.52246 283.944,261.67832 286.25,261.92105 C 286.6625,261.96447 287,253.89318 287,243.98485 z "
     id="path9133" />
  <path
     style="fill:white;fill-opacity:1"
     d="M 221,227.23125 L 221,223.4625 L 240.58914,216.96046 L 260.17828,210.45842 L 251.42567,205.24071 L 242.67306,200.02301 L 237.13304,201.46971 C 232.03598,202.80074 230.55388,203.95555 218.59657,215.91287 C 208.12372,226.38571 205.94008,229.03978 207.35094,229.58117 C 208.46989,230.01056 209.92501,229.47963 211.38286,228.11005 L 213.66396,225.96706 L 214.81054,228.48353 C 215.59428,230.20365 216.75505,231 218.47856,231 C 220.72779,231 221,230.59313 221,227.23125 z "
     id="path9131" />
  <path
     style="fill:white;fill-opacity:1"
     d="M 361.52318,228.92697 C 362.14466,226.96885 362.28474,226.94771 364.05027,228.54549 C 365.35371,229.72509 366.74065,230.03092 368.6329,229.556 C 371.27006,228.89412 370.98562,228.5134 358.5207,216.02075 C 346.20368,203.67633 345.44891,203.10472 339.48929,201.60771 L 333.28355,200.04888 L 324.55263,205.25365 L 315.82172,210.45842 L 335.41086,216.96046 L 355,223.4625 L 355,227.23125 C 355,230.73284 355.20789,231 357.93261,231 C 360.0214,231 361.05454,230.40351 361.52318,228.92697 z "
     id="path9129" />
  <path
     style="fill:white;fill-opacity:1"
     d="M 231.36128,195.61887 C 232.65939,190.46558 232.68411,189.30745 231.52343,188.01951 C 230.77028,187.18378 228.36283,183.43145 226.17353,179.68101 L 222.193,172.86202 L 215.86621,191.93101 L 209.53942,211 L 206.48895,211 C 204.03494,211 203.22251,211.57216 202.33396,213.9262 C 201.30703,216.64685 201.43122,216.93598 204.10203,218.04226 L 206.97462,219.23213 L 204.48988,221.18662 C 202.40594,222.82585 202.18299,223.47341 203.1077,225.20124 C 204.13049,227.11234 205.13689,226.33677 217.02,214.48004 C 229.2367,202.29046 229.90066,201.41724 231.36128,195.61887 z "
     id="path9127" />
  <path
     style="fill:white;fill-opacity:1"
     d="M 374,224.59597 C 374,223.88867 373.07888,222.47637 371.95306,221.45752 L 369.90613,219.60507 L 372.45306,218.2706 C 375.11578,216.87546 375.39652,216.1969 374.39301,213.58179 C 374.01605,212.59945 372.584,212 370.61422,212 L 367.44243,212 L 361,192.5 C 357.45666,181.775 354.31962,173.02175 354.02879,173.04833 C 353.73795,173.07491 351.35165,176.77064 348.72589,181.26105 L 343.95178,189.42545 L 345.14489,194.96273 C 346.26949,200.182 347.08417,201.25859 359.33075,213.70905 C 371.40595,225.98528 374,227.91048 374,224.59597 z "
     id="path9125" />
  <path
     style="fill:white;fill-opacity:1"
     d="M 219.07732,162.77556 C 217.93479,158.70384 217,154.39511 217,153.20061 C 217,151.55052 215.5655,150.30466 211.02852,148.0144 C 205.06287,145.00295 205.03987,145 187.49333,145 C 170.23951,145 169.94852,145.03529 171,147 C 171.70088,148.3096 173.09382,149 175.03518,149 C 178.2468,149 178.50055,149.55325 177.04495,153.38178 C 175.67756,156.97829 179.24113,158.06155 182.46782,155.03023 L 184.7655,152.87168 L 202.63275,161.83026 C 212.45974,166.75748 220.64729,170.65156 220.82732,170.48377 C 221.00735,170.31598 220.21985,166.84728 219.07732,162.77556 z "
     id="path9123" />
  <path
     style="fill:white;fill-opacity:1"
     d="M 393.53231,155.03036 C 395.1485,156.54868 396.4758,156.98376 398.00803,156.49745 C 399.87056,155.90631 400.09369,155.31296 399.54779,152.40306 C 398.9365,149.14461 399.03729,149 401.9195,149 C 403.90618,149 405.29356,148.31999 406,147 C 407.0521,145.03413 406.76049,145 388.91205,145 L 370.75373,145 L 364.87687,148.23082 C 360.71005,150.52155 359,152.05011 359,153.48401 C 359,154.5963 358.1,158.6535 357,162.5 C 355.9,166.3465 355,169.83494 355,170.25209 C 355,170.66923 363.15283,166.92935 373.11739,161.94124 L 391.23478,152.87194 L 393.53231,155.03036 z "
     id="path9121" />
  <path
     style="fill:white;fill-opacity:1"
     d="M 212.03324,140.48315 C 216.16565,138.3891 217,137.50664 217,135.22997 C 217,133.72499 217.9,129.3465 219,125.5 C 220.1,121.6535 221,118.39006 221,118.24791 C 221,118.10577 212.84717,122.07065 202.88261,127.05876 L 184.76522,136.12806 L 182.48865,133.98934 C 180.54866,132.16681 179.91459,132.03639 178.19995,133.1072 C 176.61071,134.0997 176.37305,134.85099 177.06916,136.6819 C 177.86841,138.7841 177.67339,139 174.97525,139 C 173.33886,139 172,139.1882 172,139.41821 C 172,139.64823 171.72686,140.54823 171.39301,141.41821 C 170.85326,142.82477 172.79558,143 188.92625,143 C 206.32594,143 207.26925,142.89725 212.03324,140.48315 z "
     id="path9119" />
  <path
     style="fill:white;fill-opacity:1"
     d="M 406,142.2 C 406,140.66669 403.58421,139 401.36174,139 C 399.56783,139 399.16085,138.48199 399.31174,136.39074 C 399.60418,132.33764 396.67374,131.01842 393.66233,133.8475 L 391.23478,136.12806 L 373.11739,127.05876 C 363.15283,122.07065 355,118.10577 355,118.24791 C 355,118.39006 355.9,121.6535 357,125.5 C 358.1,129.3465 359.00183,133.62007 359.00407,134.99682 C 359.00722,136.93195 360.08513,138.11755 363.75407,140.22133 C 368.45017,142.91408 368.69688,142.94295 387.25,142.97133 C 397.5625,142.9871 406,142.64 406,142.2 z "
     id="path9117" />
  <path
     style="fill:white;fill-opacity:1"
     d="M 370.73125,77 C 373.31382,77 374,76.587545 374,75.035184 C 374,73.954535 373.0577,72.566064 371.906,71.949693 L 369.812,70.829018 L 372.06574,68.430025 C 373.78759,66.597203 374.10477,65.55143 373.40974,63.998852 C 372.59118,62.170355 371.21757,63.252177 359.70492,74.792417 C 347.96951,86.555955 346.79031,88.075936 345.46643,93.145611 L 344.02301,98.67306 L 349.24071,107.42567 L 354.45842,116.17828 L 360.96046,96.589142 L 367.4625,77 L 370.73125,77 z "
     id="path9115" />
  <path
     style="fill:white;fill-opacity:1"
     d="M 231.87467,99.57746 C 232.39507,99.255833 232.15266,96.522769 231.30539,93.159288 C 229.91378,87.634826 229.09668,86.569833 216.95499,74.455092 C 204.52593,62.053617 204.0467,61.693566 203.11186,64.054453 C 202.31216,66.074032 202.55642,66.874928 204.51419,68.652522 L 206.88488,70.805044 L 203.96679,72.013757 C 201.56327,73.009327 201.22097,73.544378 202.02568,75.047976 C 202.58109,76.085773 204.36968,77.008653 206.17072,77.186741 C 209.33869,77.49999 209.33897,77.500557 215.16763,95 C 218.3735,104.625 221.23764,113.13934 221.53238,113.92076 C 221.86316,114.79772 223.77157,112.43181 226.5183,107.73958 C 228.9658,103.5585 231.37617,99.88555 231.87467,99.57746 z "
     id="path9113" />
  <path
     style="fill:white;fill-opacity:1"
     d="M 243.50979,87.984152 C 243.8551,87.425436 247.51134,84.993408 251.63477,82.579647 L 259.13192,78.190989 L 240.06596,71.865203 L 221,65.539418 L 221,62.269709 C 221,59.461132 220.65238,59 218.53518,59 C 217.0611,59 215.62229,59.837246 214.9556,61.082964 C 213.91028,63.036155 213.72632,63.0623 212.00288,61.502607 C 210.99201,60.58778 209.21507,59.987946 208.05412,60.169642 C 206.31391,60.442 208.19948,62.748723 218.79398,73.308283 C 229.94566,84.423194 232.29612,86.295352 236.57232,87.468865 C 242.85633,89.193382 242.76657,89.186715 243.50979,87.984152 z "
     id="path9111" />
  <path
     style="fill:white;fill-opacity:1"
     d="M 341.09358,86.96589 C 345.06563,85.9935 347.43151,84.093117 358.57915,72.920672 C 370.5268,60.946444 371.25822,60 368.56431,60 C 366.96556,60 364.8753,60.707862 363.91931,61.573027 C 362.32528,63.015598 362.12656,62.974131 361.52318,61.073027 C 361.05454,59.596488 360.0214,59 357.93261,59 C 355.28706,59 355,59.320062 355,62.269709 L 355,65.539418 L 335.93404,71.865203 L 316.86808,78.190989 L 324.36523,82.579647 C 328.48866,84.993408 332.15621,87.443741 332.51535,88.024829 C 332.87448,88.605918 333.91794,88.858398 334.83416,88.585895 C 335.75037,88.313393 338.56711,87.58439 341.09358,86.96589 z "
     id="path9109" />
  <path
     style="fill:white;fill-opacity:1"
     d="M 269.5,75 C 273.3465,73.9 277.68981,73 279.1518,73 C 281.23845,73 282.36789,72.047965 284.40498,68.57193 C 286.94768,64.233137 287,63.767265 287,45.464941 C 287,28.843053 286.8258,26.852868 285.41821,27.393011 C 284.54823,27.726855 283.64823,28 283.41821,28 C 283.1882,28 283,29.33875 283,30.975 C 283,33.700175 282.76481,33.902963 280.19931,33.389861 C 277.93824,32.937649 277.19276,33.281518 276.33024,35.174554 C 275.42479,37.161784 275.62115,37.7904 277.61779,39.296466 L 279.97372,41.073547 L 270.98159,59.036773 C 266.03592,68.916548 262.10577,77 262.24791,77 C 262.39006,77 265.6535,76.1 269.5,75 z "
     id="path9107" />
  <path
     style="fill:white;fill-opacity:1"
     d="M 314,76.488892 C 314,76.207782 310.1461,68.280051 305.43577,58.871711 L 296.87154,41.765638 L 299.02145,39.477168 C 300.83409,37.547702 300.98657,36.84343 299.99347,34.987791 C 299.05528,33.234771 298.22384,32.905232 295.90779,33.368442 C 293.22493,33.905015 293,33.722596 293,31.010184 C 293,29.093823 292.30373,27.697734 291,27 C 289.03374,25.947692 289.00016,26.238141 289.00938,44.214816 L 289.01877,62.5 L 292.02961,67.75 C 294.24281,71.609149 295.63118,73.001035 297.27023,73.003905 C 298.4966,73.006053 302.425,73.871658 306,74.927472 C 313.27278,77.075363 314,77.217299 314,76.488892 z "
     id="path8217" />
</svg>
