<?xml version="1.0" encoding="UTF-8" standalone="no"?>
<!-- Generator: Adobe Illustrator 15.0.2, SVG Export Plug-In . SVG Version: 6.00 Build 0)  -->

<svg
   xmlns:dc="http://purl.org/dc/elements/1.1/"
   xmlns:cc="http://creativecommons.org/ns#"
   xmlns:rdf="http://www.w3.org/1999/02/22-rdf-syntax-ns#"
   xmlns:svg="http://www.w3.org/2000/svg"
   xmlns="http://www.w3.org/2000/svg"
   xmlns:sodipodi="http://sodipodi.sourceforge.net/DTD/sodipodi-0.dtd"
   xmlns:inkscape="http://www.inkscape.org/namespaces/inkscape"
   version="1.1"
   id="Layer_1"
   x="0px"
   y="0px"
   width="1024"
   height="803.48236"
   viewBox="0 0 1024 803.48237"
   enable-background="new 0 0 572.972 449.978"
   xml:space="preserve"
   inkscape:version="0.48.4 r9939"
   sodipodi:docname="Flag_of_the_United_States_Coast_Guard.svg"><metadata
   id="metadata391"><rdf:RDF><cc:Work
       rdf:about=""><dc:format>image/svg+xml</dc:format><dc:type
         rdf:resource="http://purl.org/dc/dcmitype/StillImage" /></cc:Work></rdf:RDF></metadata><defs
   id="defs389" /><sodipodi:namedview
   pagecolor="#ffffff"
   bordercolor="#666666"
   borderopacity="1"
   objecttolerance="10"
   gridtolerance="10"
   guidetolerance="10"
   inkscape:pageopacity="0"
   inkscape:pageshadow="2"
   inkscape:window-width="1920"
   inkscape:window-height="1096"
   id="namedview387"
   showgrid="false"
   fit-margin-top="0"
   fit-margin-left="0"
   fit-margin-right="0"
   fit-margin-bottom="0"
   inkscape:zoom="0.7417127"
   inkscape:cx="411.98771"
   inkscape:cy="497.04682"
   inkscape:window-x="-8"
   inkscape:window-y="-8"
   inkscape:window-maximized="1"
   inkscape:current-layer="Layer_1" />
<g
   id="g3"
   transform="matrix(1.7864215,0,0,1.7864215,-3.1423213,-2.6796323)">
	<g
   id="g5">
		<path
   d="M 574.972,451.272 H 1.759 V 1.5 h 573.212 v 449.772 z"
   id="path7"
   inkscape:connector-curvature="0"
   style="fill:#ffffff" />
	</g>
	<g
   id="g9">
		<g
   id="g11">
			<g
   id="g13">
				<path
   d="m 260.008,225.119 c 0,0 -3.488,1.59 -5.709,0.896 -2.22,-0.694 -5.779,-3.572 -7.26,-4.562 -1.48,-0.994 -6.13,-3.638 -6.837,-4.167 -0.704,-0.53 -1.056,-1.854 -0.915,-2.314 0.141,-0.466 2.042,-3.703 1.973,-6.284 -0.069,-2.578 -0.845,-3.835 -0.845,-3.835 0,0 4.44,-2.843 4.016,-8.66 -0.424,-5.821 -6.343,-14.019 -13.039,-19.972 -6.696,-5.95 -15.928,-12.164 -20.723,-14.811 -4.792,-2.645 -11.627,-6.018 -14.519,-7.207 -2.889,-1.19 -12.617,-5.488 -12.617,-5.488 l -0.958,-0.375 c -2.819,-1.059 -2.637,0.441 -5.174,-0.751 -2.538,-1.188 -6.203,-2.379 -10.854,-4.493 -4.653,-2.118 -6.767,-2.25 -8.035,-3.043 -1.27,-0.792 -2.96,-1.719 -3.806,-2.25 -0.846,-0.527 -2.114,-2.114 -2.96,-1.849 -0.846,0.264 -1.692,1.454 -0.985,3.438 0.702,1.983 2.395,6.744 9.725,11.107 7.331,4.365 8.599,5.028 11.419,6.218 0,0 -1.975,0.793 -1.834,2.511 0.143,1.721 1.55,5.555 5.358,8.333 3.805,2.778 8.879,5.289 8.879,5.289 0,0 -1.901,1.586 -1.479,3.869 0.422,2.28 2.537,4.86 5.499,6.447 2.959,1.586 6.343,2.875 6.343,2.875 0,0 -2.114,2.482 -1.375,4.363 0.741,1.886 3.596,4.564 7.401,5.753 0,0 -1.797,1.789 -1.904,3.475 -0.106,1.685 0.847,3.271 2.751,5.255 0,0 -2.434,1.688 -2.01,3.57 0.423,1.886 3.593,4.068 3.593,4.068 0,0 -4.652,0.99 -3.593,4.265 1.057,3.273 4.439,5.652 4.439,5.652 0,0 -7.083,1.586 -5.287,5.557 1.799,3.965 4.441,2.874 4.441,2.874 0,0 -1.796,2.578 -0.317,4.761 1.479,2.183 4.018,2.678 5.921,2.382 0,0 -1.852,3.176 0.264,5.207 2.115,2.034 6.186,0.992 6.186,0.992 0,0 -1.427,2.033 0.053,4.018 1.48,1.983 3.435,1.438 4.545,1.237 0,0 -0.74,2.927 1.165,4.268 1.903,1.337 3.962,1.139 5.126,0.79 0,0 -0.476,2.778 1.904,3.821 2.378,1.043 3.595,0.696 4.811,0.296 0,0 -0.318,2.779 2.54,3.72 2.853,0.943 4.385,-0.444 4.809,-0.694 0,0 0.635,2.826 4.07,2.826 3.435,0 4.493,-1.585 4.493,-1.585 0,0 1.375,2.774 3.912,2.578 2.538,-0.198 4.123,-2.876 5.393,-3.769 1.269,-0.894 3.172,-0.793 3.172,-0.793 l -1.166,-35.809 z"
   id="path15"
   inkscape:connector-curvature="0"
   style="fill:#003162" />
			</g>
			<g
   id="g17">
				<path
   d="m 315.691,224.029 c 0.563,0.53 1.971,2.645 5.075,1.985 3.099,-0.662 5.354,-4.101 7.471,-5.422 2.111,-1.321 5.497,-3.571 5.921,-4.893 0.42,-1.321 0,-3.835 -0.847,-5.29 -0.847,-1.455 -1.129,-3.57 -1.129,-5.29 0,-1.72 -0.422,-2.249 -0.422,-2.249 0,0 -3.665,-3.308 -2.958,-8.991 0.704,-5.688 8.597,-15.474 25.371,-27.112 16.775,-11.639 32.563,-18.382 32.563,-18.382 0,0 4.37,-0.629 7.754,-2.513 3.383,-1.885 12.686,-5.256 16.387,-7.241 3.698,-1.984 6.132,-3.472 7.189,-3.571 1.057,-0.099 1.691,-0.199 2.217,0.495 0.53,0.693 0.214,3.868 -4.013,8.232 -4.229,4.364 -14.485,10.017 -15.437,10.315 -0.953,0.298 0.211,0.2 0.423,1.688 0.21,1.486 1.442,4.148 -3.317,8.214 -4.758,4.066 -13.07,7.258 -13.07,7.258 0,0 5.181,1.585 3.596,4.76 -1.587,3.174 -7.403,6.744 -9.202,7.438 -1.796,0.694 3.389,1.192 2.116,4.067 -1.27,2.875 -5.813,5.255 -6.87,5.655 -1.059,0.396 -0.633,0.593 -0.633,0.89 0,0.298 3.38,0.894 2.853,3.375 -0.53,2.479 -3.384,3.966 -3.384,3.966 0,0 2.221,1.389 2.113,3.274 -0.104,1.885 -2.008,4.363 -2.008,4.363 0,0 2.959,2.581 2.644,3.771 -0.318,1.19 -1.377,3.373 -1.377,3.373 0,0 3.387,1.883 2.961,4.263 -0.422,2.382 -2.852,3.87 -2.852,3.87 0,0 1.796,2.282 1.161,3.771 -0.634,1.484 -3.382,3.469 -4.228,3.469 -0.847,0 2.535,2.579 0.739,4.762 -1.799,2.182 -3.067,2.279 -4.864,2.279 0,0 0.74,3.671 -0.637,4.763 -1.372,1.089 -4.331,0.989 -5.178,0.792 0,0 0.528,2.479 -1.375,4.167 -1.902,1.686 -4.122,1.786 -4.122,1.786 0,0 0.636,2.378 -1.8,3.965 -2.43,1.586 -4.122,0.894 -4.122,0.894 0,0 -0.315,2.58 -2.429,3.373 -2.116,0.794 -4.76,0.1 -4.76,0.1 0,0 -1.162,2.976 -3.064,3.665 -1.908,0.696 -4.55,-0.193 -4.55,-0.193 0,0 -1.267,2.974 -3.486,3.173 -2.221,0.198 -5.288,-1.981 -5.288,-1.981 0,0 -0.739,2.478 -3.805,2.773 -3.067,0.301 -6.237,-2.773 -6.237,-2.773 l -1.09,-39.083 z"
   id="path19"
   inkscape:connector-curvature="0"
   style="fill:#003162" />
			</g>
			<g
   id="g21">
				<path
   d="m 270.679,281.48 c 0,0 1.902,5.6 2.602,6.686 0.701,1.078 1.601,2.356 1.701,2.847 0.102,0.49 -0.1,1.277 -1.4,1.771 -1.301,0.489 -9.605,5.993 -12.709,8.548 -3.102,2.557 -7.003,6.094 -7.905,7.862 -0.901,1.771 -1,5.505 0.501,6.586 1.502,1.08 3.403,1.671 3.403,1.671 0,0 -1.101,4.519 1.769,6.157 2.868,1.639 5.668,0.787 5.668,0.787 0,0 -1.132,4.782 2.001,6.093 3.137,1.312 6.737,0.197 6.737,0.197 0,0 0.669,4.981 5.204,5.11 4.537,0.13 4.602,-1.048 4.602,-1.048 0,0 0.937,3.996 5.273,3.996 4.334,0 6.271,-4.062 6.271,-4.062 0,0 0.999,1.572 4.871,1.05 3.867,-0.524 5.201,-4.979 5.201,-4.979 0,0 5.137,1.047 7.005,-1.313 1.869,-2.358 1.601,-4.909 1.601,-4.909 0,0 5.136,0.323 6.269,-2.887 1.136,-3.211 0.47,-4.915 0.47,-4.915 0,0 4.2,-0.521 4.401,-4.321 0.203,-3.803 -5.937,-9.172 -7.805,-10.745 -1.866,-1.575 -14.141,-9.372 -15.076,-9.827 -0.931,-0.459 -0.801,-1.444 -0.2,-2.164 0.601,-0.719 3,-8.449 3,-8.449 l -33.455,0.258 z"
   id="path23"
   inkscape:connector-curvature="0"
   style="fill:#003162" />
			</g>
			<g
   id="g25">
				<path
   d="m 260.909,226.26 c 0,0 9.273,-8.883 11.433,-10.409 2.162,-1.528 5.021,-4.859 6.416,-6.173 1.395,-1.322 3.558,-6.665 3.908,-7.844 0.352,-1.177 1.739,-4.232 0.275,-5.549 -1.466,-1.319 -3.205,-1.528 -5.159,-2.359 -1.952,-0.834 -0.558,-3.192 -1.185,-3.679 -0.628,-0.486 -4.532,0.417 -4.532,0.417 0,0 -1.395,-0.067 -1.744,1.181 -0.349,1.247 -0.417,1.247 -0.837,1.317 -0.419,0.068 -2.301,-2.706 -0.349,-6.663 1.952,-3.952 5.23,-4.092 7.112,-4.092 1.541,0 4.603,0.694 5.718,0.416 1.114,-0.276 2.372,-0.764 4.325,-0.694 1.953,0.071 3.554,0.764 4.6,0.902 1.047,0.14 4.672,-0.693 7.466,1.39 2.787,2.079 4.04,5.622 4.667,7.771 0.629,2.153 1.394,2.983 1.746,4.164 0.347,1.181 0.695,6.522 0.556,9.783 -0.14,3.261 -0.278,5.551 0.207,7.771 0.489,2.222 2.579,4.233 4.117,5.828 1.534,1.599 5.022,3.609 5.647,4.651 0.629,1.043 0.838,2.288 0.905,2.565 0.071,0.277 -0.35,2.566 -0.35,2.566 l -54.526,0.072 -0.416,-3.332 z"
   id="path27"
   inkscape:connector-curvature="0"
   style="fill:#003162" />
			</g>
			<g
   id="g29">
				<path
   d="m 189.683,261.375 c -0.072,-1.742 0.072,-2.816 -0.503,-2.546 -0.577,0.266 -0.505,1.209 -0.505,1.209 0,1.137 -0.576,1.337 0.074,2.879 0.647,1.548 0.357,1.548 0.935,2.551 0.578,1.008 1.371,0.875 0.866,-1.074 -0.506,-1.943 -0.795,-1.272 -0.867,-3.019 z"
   id="path31"
   inkscape:connector-curvature="0"
   style="fill:none" />
				<path
   d="m 269.477,265.754 -9.571,1.313 c 0,0 -7.473,3.406 -9.873,7.203 -2.402,3.8 -2.77,4.066 -3.869,5.245 -1.101,1.178 -3.403,5.308 -3.904,6.292 -0.5,0.98 -6.103,3.831 -8.004,4.42 -1.902,0.589 -3.704,1.571 -5.504,1.474 -1.801,-0.098 -3.002,0.787 -3.402,-0.59 -0.401,-1.375 -0.201,-1.768 -0.701,-2.358 -0.5,-0.587 -1.6,-0.884 -2.102,-1.277 -0.5,-0.396 -0.6,-1.571 -1.501,-1.769 -0.899,-0.196 -4,0.297 -4.4,1.179 -0.302,0.663 -0.094,1.72 -0.524,2.162 -0.021,-0.037 -0.042,-0.068 -0.065,-0.103 -0.937,-1.408 -2.088,-1.142 -3.313,-1.88 -1.226,-0.736 -1.659,0.137 -2.74,-0.805 -1.081,-0.938 -1.081,-0.399 -2.017,-1.14 -0.938,-0.74 0.216,-0.334 0.575,-1.208 0.361,-0.869 1.009,-0.604 2.019,-0.334 1.01,0.267 0.791,1.14 1.584,1.743 0.793,0.604 0.578,0 1.874,-0.604 1.298,-0.604 0.506,-1.611 0.793,-2.883 0.287,-1.28 1.296,-0.472 2.738,-0.873 1.441,-0.407 2.739,-1.207 4.828,-2.682 2.092,-1.478 4.252,-3.759 5.116,-5.304 0.865,-1.542 1.298,-4.557 1.37,-4.895 0.071,-0.334 -0.216,-0.535 -1.225,-0.468 -1.009,0.067 -1.297,0.669 -2.739,1.141 -1.44,0.467 -2.595,0.671 -4.323,0.937 -1.73,0.271 -2.593,1.68 -2.522,1.479 0.071,-0.205 0.145,-1.14 0.216,-2.687 0.071,-1.542 -0.216,-2.077 -0.287,-3.618 -0.073,-1.545 0.071,-2.887 0.216,-4.292 0.145,-1.413 -0.289,-1.882 -1.585,-1.479 -1.296,0.403 -5.91,5.704 -7.351,8.521 -1.441,2.815 -1.37,6.506 -0.938,8.117 0.433,1.607 0.504,2.883 -0.143,3.217 -0.649,0.337 -1.586,0.067 -2.018,1.141 -0.433,1.073 0.359,1.746 0.722,2.414 0.359,0.673 -0.866,1.141 -0.866,1.141 0,0 -1.369,0 -1.875,-0.871 -0.502,-0.874 -0.36,-0.538 -0.36,-1.811 0,-1.273 0.218,-1.207 0.794,-2.081 0.577,-0.87 0.72,-0.669 0.864,-2.011 0.146,-1.34 -0.864,-1.006 -0.792,-2.548 0.071,-1.544 1.873,-3.624 1.945,-6.24 0.073,-2.615 -1.512,-4.158 -1.802,-5.7 -0.288,-1.542 0,-4.358 -0.073,-5.165 -0.071,-0.805 -1.151,-0.404 -1.151,-0.404 -3.172,0.941 -5.693,7.781 -5.693,11.068 0,3.289 1.515,7.247 2.667,8.989 1.151,1.744 1.224,1.478 1.729,2.683 0.504,1.208 -0.433,1.208 -1.01,0.941 -0.576,-0.273 -1.513,-1.209 -2.161,-2.082 -0.649,-0.873 -1.154,-1.139 -1.874,-2.416 -0.721,-1.274 -0.145,-1.741 -0.794,-2.546 -0.648,-0.804 -0.648,-0.336 -1.656,-0.537 -1.009,-0.2 -0.577,-0.604 -1.514,-1.613 -0.938,-1.003 -1.297,-1.809 -0.649,-2.278 0.649,-0.472 1.731,1.009 1.731,1.009 0,0 1.007,-0.067 0.935,-1.68 -0.027,-0.577 0.362,-0.971 0.144,-2.884 -0.215,-1.911 -0.431,-0.804 0.11,-1.911 0.539,-1.105 0.755,-2.014 1.188,-3.626 0.432,-1.607 -0.108,-5.632 -0.108,-7.543 0,-1.911 0.323,-4.528 0.433,-5.535 0.108,-1.003 -0.542,-1.105 -0.542,-1.105 -4.215,1.311 -6.159,6.944 -6.591,8.151 -0.433,1.203 -0.326,1.511 -1.624,1.91 -1.296,0.404 -0.864,0.908 -0.754,2.515 0.108,1.607 -0.649,1.41 -0.649,1.41 0,0 -0.65,-1.208 -0.541,-2.618 0.107,-1.409 -0.542,-1.912 0.324,-3.926 0.866,-2.009 5.297,-7.041 6.053,-9.15 0.759,-2.114 0.974,-4.229 0.974,-6.644 0,-2.411 -1.19,-4.928 -1.297,-6.436 -0.108,-1.511 0.433,-2.615 -0.973,-2.215 -1.405,0.402 -3.675,3.521 -3.675,3.521 0,0 0,0 -0.649,-1.105 -0.649,-1.108 -1.297,-1.712 -1.403,-2.616 -0.11,-0.909 0.323,-3.021 -1.731,-2.316 -2.053,0.704 -4.216,7.246 -4.541,11.574 -0.324,4.326 2.813,9.154 3.893,12.574 1.081,3.421 0.539,6.538 0.539,6.538 0,0 0.181,0.571 -0.539,0.104 -0.721,-0.47 -0.793,-3.154 -1.441,-4.831 -0.651,-1.676 -2.812,-4.562 -5.691,-7.646 -2.885,-3.088 -6.632,-5.1 -9.08,-5.836 -2.453,-0.739 -2.093,0.204 -1.803,1.07 0.289,0.873 1.442,3.692 5.262,9.393 3.817,5.7 7.277,6.976 8.357,7.714 1.082,0.738 0.36,1.542 1.513,2.147 1.153,0.603 0.722,-1.344 2.017,-1.211 1.297,0.139 2.595,2.283 3.46,3.623 0.865,1.343 2.091,4.496 1.224,3.557 -0.864,-0.939 -2.881,-2.82 -3.817,-3.958 -0.937,-1.141 -2.595,-1.003 -3.893,-1.612 -1.296,-0.6 -3.674,-0.398 -5.402,-0.668 -1.73,-0.268 -2.594,-1.006 -3.606,-1.742 -1.008,-0.736 -1.583,-1.007 -1.44,1.141 0.144,2.143 4.541,6.171 4.541,6.171 0,0 -0.505,0.265 -2.306,0.601 -1.8,0.335 -3.388,-0.267 -4.757,0.204 -1.37,0.467 1.154,2.009 3.171,3.416 2.017,1.413 4.106,2.282 6.918,3.425 2.81,1.14 3.962,0.469 7.638,0.403 3.674,-0.069 2.306,0.132 4.541,-0.806 2.232,-0.941 1.439,0.736 2.592,1.811 1.154,1.071 0.576,1.678 2.164,2.549 1.583,0.871 2.952,3.017 3.602,4.289 0.647,1.28 -0.938,-0.334 -1.586,-1.34 -0.648,-1.003 -1.945,-0.736 -2.953,-1.41 -1.009,-0.668 -5.478,-2.144 -8.217,-2.28 -2.737,-0.132 -4.539,0.34 -6.124,0.94 -1.587,0.604 -1.37,0.136 -3.245,0.205 -1.873,0.064 -1.727,0.534 -0.576,2.278 1.153,1.742 4.397,2.548 4.397,2.548 0,0 -0.146,0.339 -1.298,1.477 -1.152,1.138 -1.153,1.273 -2.666,1.876 -1.514,0.605 -2.018,0.807 -0.505,1.68 1.514,0.87 3.603,1.542 7.062,1.542 3.458,0 6.271,-1.275 8.287,-1.745 2.019,-0.472 2.307,-0.269 4.469,-0.472 2.162,-0.198 1.515,-1.005 3.241,-1.205 1.731,-0.201 1.155,-0.402 2.594,-0.736 1.442,-0.334 0.867,0.198 2.308,1.675 1.439,1.475 1.945,0.941 2.449,1.881 0.506,0.936 0.363,0.468 -1.225,0.402 -1.586,-0.068 -1.369,-0.607 -2.089,-1.075 -0.721,-0.47 -0.36,-0.673 -1.947,-0.873 -1.584,-0.199 -0.863,0.403 -2.016,1.341 -1.154,0.941 -1.225,0.136 -2.449,0.539 -1.226,0.402 0.216,0.535 -1.226,1.275 -1.443,0.734 -2.306,0.734 -4.612,1.61 -2.305,0.866 -5.622,5.029 -6.558,5.498 -0.937,0.469 -1.586,0.334 -2.667,0.808 -1.081,0.468 -0.504,1.208 0.361,2.074 0.866,0.874 2.45,1.208 6.701,1.275 4.253,0.067 4.973,-0.873 5.189,-0.873 0.216,0 0.073,0.539 -0.647,1.613 -0.721,1.07 -1.082,2.213 -1.227,3.757 -0.144,1.542 0.433,3.285 -0.358,4.493 -0.793,1.205 -1.225,1.542 -1.443,2.349 -0.217,0.803 1.514,0.601 4.974,-0.674 3.457,-1.275 6.772,-4.761 7.997,-7.041 1.226,-2.282 2.306,-7.983 2.666,-9.59 0.36,-1.615 1.513,-3.624 2.741,-4.227 1.223,-0.605 2.16,-0.807 3.243,-0.939 0.753,-0.095 1.331,0.466 2.148,0.9 -1.116,0.37 -2.177,0.919 -2.658,1.629 -1,1.475 -1.201,3.733 -0.799,4.72 0.397,0.981 1.301,0.686 1.399,1.372 0.101,0.688 -0.4,3.243 1.702,4.618 2.102,1.379 3.902,0.887 3.902,0.887 0,0 1.002,3.438 5.003,2.851 4.003,-0.59 3.302,-2.263 3.302,-2.263 0,0 1.778,-0.502 3.298,-1.293 1.73,2.066 5.886,7.151 6.908,9.548 1.302,3.051 2.003,6.782 2.003,6.782 0,0 1.682,0.118 3.335,1.311 1.9,1.376 3.935,4.456 3.935,4.456 0,0 -0.969,-7.239 -4.971,-14.218 -3.109,-5.421 -7.125,-9.18 -8.76,-10.589 0.354,-0.983 0.355,-1.499 0.355,-1.499 0,0 1.399,-0.686 2.501,-0.981 1.102,-0.295 5.704,-2.067 7.404,-2.361 1.703,-0.293 3.604,-1.572 5.005,-1.671 1.4,-0.099 2.601,0.689 4.303,0.689 1.7,0 6.004,0.787 12.206,-1.771 6.205,-2.554 8.205,-3.341 10.009,-7.172 1.798,-3.835 -2.205,-19.069 -2.205,-19.069 z m -79.794,-0.286 c -0.577,-1.003 -0.288,-1.003 -0.935,-2.551 -0.65,-1.542 -0.074,-1.742 -0.074,-2.879 0,0 -0.072,-0.943 0.505,-1.209 0.576,-0.271 0.431,0.804 0.503,2.546 0.072,1.747 0.361,1.076 0.866,3.019 0.506,1.949 -0.287,2.082 -0.865,1.074 z"
   id="path33"
   inkscape:connector-curvature="0"
   style="fill:#003162" />
			</g>
			<g
   id="g35">
				<path
   d="m 284.854,186.265 c 0,0 -0.973,0.119 -0.935,0.75 0.042,0.676 1.13,1.867 2.315,1.915 1.593,0.061 3.952,-0.677 4.136,-1.808 0.231,-1.427 2.176,-0.933 2.069,-1.265 -0.107,-0.336 -5.334,0.135 -5.334,0.135 0,0 0.982,1.266 -0.551,1.686 -1.402,0.386 -1.7,-1.413 -1.7,-1.413 z"
   id="path37"
   inkscape:connector-curvature="0"
   style="fill:#ffffff" />
			</g>
			<g
   id="g39">
				<path
   d="m 273.778,189.562 c 0,0 0.208,4.942 -1.101,6.59 -1.307,1.646 -5.165,8.101 -6.197,10.845 -1.034,2.746 -1.239,8.17 2.479,10.982 3.718,2.815 2.477,0.549 2.477,0.549 l 7.369,-7.823 -1.17,-1.1 c 0,0 -1.79,-1.647 -0.965,-4.667 0.826,-3.021 4.337,-7.069 3.993,-10.983 -0.343,-3.91 -0.413,-3.158 -0.413,-3.158 0,0 -1.445,-0.823 -3.512,-1.235 -2.064,-0.413 -2.96,0 -2.96,0 z"
   id="path41"
   inkscape:connector-curvature="0"
   style="fill:#003162" />
			</g>
			<g
   id="g43">
				<path
   d="m 270.044,187.775 c 0,0 -2.436,1.771 -2.135,4.425 0.188,1.658 1.067,5.078 0.666,6.321 0,0 -6.069,5.177 -6.602,6.749 -0.534,1.573 -1.668,-6.093 -0.466,-12.186 1.201,-6.095 5.455,-8.209 10.304,-7.765 2.135,0.196 -1.101,2.064 -1.101,2.064 l -0.666,0.392 z"
   id="path45"
   inkscape:connector-curvature="0"
   style="fill:#003162" />
			</g>
			<g
   id="g47">
				<path
   d="m 260.707,205.535 c 0,0 -0.866,4.193 -4.136,4.849 -3.269,0.656 -5.003,-1.702 -5.138,-6.553 -0.132,-4.846 0.268,-6.288 -2.6,-10.481 -1.798,-2.627 0.8,-4.915 1.734,-4.915 0.933,0 1.667,0.328 1.667,0.328 0,0 -0.4,0.984 0.869,2.295 1.266,1.309 2.4,2.094 2.535,2.816 0.133,0.72 1.265,6.944 3.734,7.208 2.467,0.263 1.4,0.064 1.4,0.064 l -0.065,4.389 z"
   id="path49"
   inkscape:connector-curvature="0"
   style="fill:#003162" />
			</g>
			<g
   id="g51">
				<path
   d="m 256.464,190.045 c 0,0 2.202,-2.16 4.938,-3.734 2.736,-1.571 3.869,-3.341 3.334,-5.765 -0.534,-2.425 -2.935,-4.98 -4.469,-6.292 -1.534,-1.309 -12.874,-10.678 -17.411,-14.084 0,0 -9.672,-6.292 -14.475,-7.797 -4.803,-1.507 -8.939,-2.884 -10.074,-3.933 -1.133,-1.047 -1.468,-1.047 -1.468,-1.047 0,0 1.555,5.45 1.802,7.142 0.334,2.294 0,3.67 0.735,5.175 0.673,1.385 15.741,7.733 20.278,11.272 4.535,3.537 12.074,9.629 14.343,13.037 2.267,3.406 2.467,6.026 2.467,6.026 z"
   id="path53"
   inkscape:connector-curvature="0"
   style="fill:#003162" />
			</g>
			<g
   id="g55">
				<path
   d="m 220.644,147.424 c 0.833,-0.099 1.52,0 3.236,0.883 1.715,0.883 5.883,3.049 7.304,2.852 1.421,-0.198 2.206,-0.589 2.206,-0.589 l -1.373,2.603 c 0,0 -2.304,-1.033 -4.559,-1.769 -2.256,-0.737 -4.461,-1.476 -5.392,-2.016 -0.933,-0.54 -1.692,-0.836 -1.863,-1.081 -0.343,-0.49 0.441,-0.883 0.441,-0.883 z"
   id="path57"
   inkscape:connector-curvature="0"
   style="fill:#003162" />
			</g>
			<g
   id="g59">
				<path
   d="m 232.097,143.249 c -2.333,-0.718 -8.405,0.526 -14.808,0.657 -6.405,0.13 -10.14,-4.98 -10.208,-5.307 0,0 0.428,3.195 0.535,5.109 0.068,1.181 -0.401,4.324 -0.267,4.98 0.133,0.654 1.127,2.83 4.73,4.861 2.235,1.26 4.86,1.558 6.529,1.603 -0.057,-0.337 -0.111,-0.684 -0.153,-0.994 -0.133,-0.983 -1.1,-2.588 -1.334,-5.013 -0.108,-1.11 0.057,-1.736 0.509,-2.226 0.1,-0.196 0.375,-0.369 0.625,-0.542 1.433,-1 3.835,-0.05 4.971,0.476 1.134,0.522 5.51,2.856 7.605,2.881 1.265,0.018 2.414,-0.283 3.286,-0.607 2.441,-2.415 0.078,-5.23 -2.02,-5.878 z"
   id="path61"
   inkscape:connector-curvature="0"
   style="fill:#003162" />
			</g>
			<g
   id="g63">
				<path
   d="m 303.064,195.409 c 0.504,0.196 3.007,0.983 5.708,3.933 2.699,2.947 5,7.172 6.149,8.156 1.153,0.982 1.703,1.326 2.105,0.639 0.396,-0.688 -0.153,-1.082 -1.103,-3.047 -0.951,-1.966 -1.101,-3.49 -0.701,-5.012 0.4,-1.524 1.353,-2.997 2.6,-4.275 1.252,-1.275 2.256,-1.622 2.653,-3.095 0.404,-1.475 1.051,-2.505 -1.051,-2.408 0,0 0.151,-0.246 1.602,-1.622 1.451,-1.374 2.951,-2.31 4.054,-1.033 1.1,1.279 1.601,3.489 0.852,5.454 -0.749,1.966 -3.454,4.18 -2.706,7.765 0.752,3.586 1.054,5.797 0.301,6.88 -0.749,1.08 -2.099,1.375 -3.251,3.095 -1.149,1.719 -2.901,3.637 -3.201,5.208 -0.3,1.574 -0.6,2.115 -2.199,2.263 -1.604,0.146 -2.503,-0.493 -3.704,-1.819 -1.2,-1.327 -2.452,-4.178 -3.301,-5.553 -0.853,-1.376 -2.603,-4.177 -3.703,-4.766 -1.104,-0.59 -1.104,-10.763 -1.104,-10.763 z"
   id="path65"
   inkscape:connector-curvature="0"
   style="fill:#003162" />
			</g>
			<g
   id="g67">
				<path
   d="m 320.112,190.639 c 0,0 -0.954,-0.834 -0.503,-3.096 0.45,-2.26 7.695,-9.557 16.568,-16.567 8.874,-7.011 14.476,-9.412 16.61,-10.137 2.138,-0.717 3.426,-1.001 4.092,-2.707 0.668,-1.704 0.111,-9.499 1.782,-11.334 0,0 -2.806,0.92 -7.74,2.95 -4.938,2.031 -19.015,8.648 -25.614,14.609 -6.606,5.962 -14.211,13.761 -15.013,17.494 -0.799,3.734 0.877,4.628 1.811,4.956 0.935,0.328 3.003,1.243 3.602,1.572 0.602,0.326 4.405,2.26 4.405,2.26 z"
   id="path69"
   inkscape:connector-curvature="0"
   style="fill:#003162" />
			</g>
			<g
   id="g71">
				<path
   d="m 359.139,148.051 c 0,-0.265 0.205,-2.558 -3.929,-2.164 -4.136,0.393 -5.151,3.162 -9.622,3.817 -4.468,0.654 -5.872,0.195 -5.604,-2.098 0.268,-2.293 1.068,-3.538 3.938,-3.67 2.866,-0.131 7.204,0.526 10.205,0.066 3,-0.458 5.737,-0.788 7.805,-1.836 2.068,-1.048 5.669,-3.077 5.936,-3.341 0.268,-0.261 -1.533,3.08 -0.932,5.963 0.599,2.884 1.269,2.751 1.133,3.407 -0.133,0.656 -2.881,3.898 -6.354,5.456 -2.102,0.94 -2.845,1.342 -3.246,1.274 -0.399,-0.064 -0.661,-1.238 -0.306,-2.702 0.372,-1.545 0.976,-4.172 0.976,-4.172 z"
   id="path73"
   inkscape:connector-curvature="0"
   style="fill:#003162" />
			</g>
			<g
   id="g75">
				<path
   d="m 340.663,150.73 c 0.349,0.049 3.501,0.295 6.955,-1.329 3.449,-1.62 5.803,-2.604 6.951,-2.604 1.153,0 1.251,0.443 1.251,0.443 0,0 -6.003,2.113 -8.254,3.341 -2.25,1.231 -4.903,2.162 -4.903,2.162 0,0 -0.348,-0.834 -0.749,-1.178 -0.4,-0.342 -1.251,-0.835 -1.251,-0.835 z"
   id="path77"
   inkscape:connector-curvature="0"
   style="fill:#003162" />
			</g>
			<g
   id="g79">
				<path
   d="m 360.835,138.683 c -0.551,-0.738 -0.9,-4.128 2.751,-4.276 3.656,-0.147 3.401,3.244 3.055,4.03 -0.351,0.786 -0.65,1.817 -0.949,2.604 -0.304,0.786 -0.354,0.689 -1.653,1.032 -1.302,0.344 -1.9,1.178 -1.401,-0.442 0.501,-1.622 0.552,-2.065 -0.151,-2.607 -0.703,-0.539 -1.652,-0.341 -1.652,-0.341 z"
   id="path81"
   inkscape:connector-curvature="0"
   style="fill:#003162" />
			</g>
			<g
   id="g83">
				<path
   d="m 210.531,138.683 c 0.55,-0.738 0.901,-4.128 -2.75,-4.276 -3.653,-0.147 -3.403,3.244 -3.052,4.03 0.35,0.786 0.51,1.979 0.81,2.767 0.3,0.788 1.701,3.588 3.001,3.932 1.301,0.344 1.668,-0.196 0.189,-3.504 -0.692,-1.551 -0.549,-2.065 0.152,-2.607 0.699,-0.54 1.65,-0.342 1.65,-0.342 z"
   id="path85"
   inkscape:connector-curvature="0"
   style="fill:#003162" />
			</g>
			<g
   id="g87">
				<path
   d="m 249.405,192.137 c 0,0 -0.435,-3.663 3.169,-3.473 3.102,0.164 3.002,1.571 4.104,1.342 1.1,-0.23 1.167,-0.197 1.532,-0.817 0.367,-0.622 0.869,-0.984 1.469,-1.214 0.599,-0.229 -0.735,1.542 -1.735,2.066 -1.001,0.523 -2.001,0.654 -2.703,0.228 -0.7,-0.425 -1.533,-0.95 -2.167,-0.492 -0.634,0.459 -1.435,0.918 -1.934,1.311 -0.502,0.394 -1.735,1.049 -1.735,1.049 z"
   id="path89"
   inkscape:connector-curvature="0"
   style="fill:#003162" />
			</g>
			<g
   id="g91">
				<path
   d="m 404.51,238.557 -1.568,-3.773 -6.627,8.493 c 2.338,-1.352 6.11,-3.522 8.195,-4.72 z"
   id="path93"
   inkscape:connector-curvature="0"
   style="fill:none" />
				<polygon
   points="385.012,260.324 383.2,260.084 381.508,262.249 379.964,266.173 "
   id="polygon95"
   style="fill:none" />
				<polygon
   points="375.877,275.175 375.724,275.119 375.061,275.896 "
   id="polygon97"
   style="fill:none" />
				<path
   d="m 384.958,257.833 c 1.385,-0.8 2.979,-1.723 4.394,-2.537 l 8.911,-10.31 -2.973,-0.396 -10.332,13.243 z"
   id="path99"
   inkscape:connector-curvature="0"
   style="fill:none" />
				<path
   d="m 376.016,261.213 2.361,-3.421 -0.961,-1.464 -4.243,6.563 c 0.725,-0.432 1.733,-1.025 2.843,-1.678 z"
   id="path101"
   inkscape:connector-curvature="0"
   style="fill:none" />
				<polygon
   points="384.55,245.297 380.682,251.279 379.441,256.242 386.813,245.557 "
   id="polygon103"
   style="fill:none" />
				<polygon
   points="374.23,254.971 372.958,257.862 372.958,257.87 374.842,255.029 "
   id="polygon105"
   style="fill:none" />
				<polygon
   points="369.234,271.044 374.21,263.829 372.685,263.642 371.082,266.12 "
   id="polygon107"
   style="fill:none" />
				<path
   d="m 387.378,261.435 -10.622,12.471 c 0.259,-0.07 0.536,-0.153 0.821,-0.24 l 10.566,-9.368 -0.765,-2.863 z"
   id="path109"
   inkscape:connector-curvature="0"
   style="fill:none" />
				<path
   d="m 380.605,258.512 c 1.075,-0.633 1.988,-1.173 2.539,-1.493 l 6.858,-9.091 -0.883,-1.411 -8.514,11.995 z"
   id="path111"
   inkscape:connector-curvature="0"
   style="fill:none" />
				<polygon
   points="363.363,262.218 359.875,277.634 362.821,273.186 366.132,264.06 "
   id="polygon113"
   style="fill:none" />
				<polygon
   points="365.672,258.29 366.354,263.445 368.225,258.29 "
   id="polygon115"
   style="fill:none" />
				<path
   d="m 378.381,248.828 -0.988,-1.042 -1.175,2.674 c 0.735,-0.554 1.473,-1.111 2.163,-1.632 z"
   id="path117"
   inkscape:connector-curvature="0"
   style="fill:none" />
				<path
   d="m 391.962,238.352 -1.506,-2.186 -3.979,6.153 c 1.824,-1.322 3.941,-2.853 5.485,-3.967 z"
   id="path119"
   inkscape:connector-curvature="0"
   style="fill:none" />
				<path
   d="m 399.358,261.235 6.771,-11.072 c 0,0 -13.047,5.045 -12.706,4.926 l 3.846,1.118 -8.347,7.402 3.444,-8.483 7.826,-9.093 0.966,3.604 4.854,-11.944 c 0,0 -0.565,0.325 -1.447,0.831 l 3.389,-13.356 c 0,0 -11.284,8.125 -11.589,8.057 l 4.254,0.638 -8.907,11.8 2.411,-8.872 c 0,0 -0.699,0.503 -1.753,1.264 l 2.653,-11.805 c 0,0 -11.379,8.962 -11.074,8.744 l 4.159,0.305 -7.38,11.761 c -0.317,0.241 -0.682,0.516 -1.08,0.813 l 0.437,-9.698 c 0,0 -8.561,8.938 -8.869,8.922 l 3.72,0.178 -2.027,4.782 -0.028,-3.106 c 0,0 -5.094,5.896 -7.343,8.32 l -0.932,-7.039 -7.138,12.873 4.343,-1.376 -5.647,22.186 c -0.214,-0.125 -0.377,-0.213 -0.482,-0.249 -0.604,-0.196 -1.603,0 -3.273,0.591 -1.667,0.589 -1.667,3.077 -2.065,4.126 -0.401,1.047 -1.135,0.916 -1.801,1.114 -0.667,0.197 -1.671,0.197 -3.068,-0.131 -1.403,-0.327 -1.936,-0.327 -3.271,-0.719 -1.336,-0.396 -2.602,-1.313 -3.668,-1.642 -1.067,-0.323 -1.733,-0.391 -2.468,-1.046 -0.733,-0.657 -1.87,-2.163 -2.269,-3.277 -0.401,-1.113 -2.668,-3.273 -3.136,-3.996 -0.464,-0.721 -1.199,-1.568 -1.801,-2.817 -0.601,-1.245 -2.134,-2.097 -2.935,-2.618 -0.8,-0.527 -0.667,-0.985 -1.6,-1.901 -0.937,-0.917 -3.204,-3.277 -4.67,-4.195 -1.467,-0.913 -5.338,-2.033 -5.338,-2.033 0,-0.129 -10.006,0.529 -10.006,0.328 0,-0.192 -0.134,15.726 0.134,17.036 0.267,1.312 1.467,3.607 2.666,4.457 1.205,0.854 2.337,0.983 3.47,1.31 1.134,0.328 3.136,2.295 4.204,2.623 1.065,0.323 1.267,0.458 2.733,0.913 1.467,0.463 3.065,0.791 4.271,0.923 1.199,0.127 3.669,0.194 5.671,0.194 2.001,0 3.734,-0.065 5.935,-0.132 2.202,-0.063 2.401,0.521 4.272,0.719 1.866,0.199 7.136,1.837 7.804,2.033 0.668,0.194 1.268,0.265 2.199,1.179 0.935,0.918 0.869,2.358 0.869,2.358 0,0 0.031,0.045 0.099,0.104 -0.35,0.354 -0.846,0.845 -1.517,1.481 -1.553,1.472 -3.729,1.377 -3.729,1.377 l -13.657,10.91 c 0,0 -1.447,1.078 -0.204,1.178 1.241,0.101 3.104,-0.1 3.104,-0.1 0,0 -1.346,1.671 -0.624,1.572 0.726,-0.1 2.796,0 1.865,0.688 -0.931,0.687 -2.899,2.753 -2.382,2.851 0.517,0.099 1.451,-0.196 3.004,-0.196 1.552,0 0.101,1.768 0.825,2.36 0.727,0.59 0.727,0.194 1.139,-1.083 0.414,-1.277 0.826,-0.786 1.862,-1.081 1.035,-0.296 0.312,2.259 0.312,2.259 0,0 0.724,-0.588 0.827,0.196 0.103,0.79 -0.417,1.771 0.103,1.868 0.519,0.101 1.036,-0.196 1.554,-0.983 0.515,-0.782 0.515,-0.389 1.756,-0.981 1.241,-0.59 1.036,-0.194 1.241,0.981 0.21,1.183 -0.307,0.787 -0.307,1.97 0,1.176 0.723,0.785 1.24,1.372 0.518,0.591 0.518,-0.097 1.448,-0.98 0.931,-0.888 0.931,0.59 1.861,0.685 0.934,0.1 0.206,-1.076 0.206,-1.373 0,-0.291 0.518,-0.291 0.827,0.591 0.312,0.882 0.519,0.782 1.345,1.277 0.829,0.491 0.314,-0.981 1.138,-0.786 0.831,0.196 0.933,1.475 1.243,0.391 0.311,-1.081 1.862,-9.531 2.175,-11.005 0.308,-1.477 1.032,-4.127 0.93,-5.8 -0.104,-1.672 -0.93,-1.866 -1.242,-3.441 -0.295,-1.501 0.823,-1.926 1.192,-2.13 0.012,0.008 0.028,0.019 0.039,0.024 0.599,0.459 1.331,0.525 2.6,0.651 1.268,0.136 2.799,-0.913 3.203,-1.567 0.398,-0.655 1.134,-1.313 1.732,-1.378 0.602,-0.064 1.333,-0.064 2.136,-0.784 0.801,-0.725 1.401,-2.357 1.468,-3.276 0.065,-0.918 -0.066,-1.245 0.534,-1.704 0.6,-0.459 1.6,-1.377 1.866,-2.36 0.267,-0.98 -0.201,-2.096 -0.733,-2.75 -0.076,-0.094 -0.146,-0.176 -0.206,-0.25 l 24.609,-19.2 0.115,3.816 7.482,-10.727 c 0,0 -13.505,4.16 -13.146,4.061 l 3.865,1.388 -8.16,6.276 2.887,-4.386 c 0,0 -1.38,0.403 -3.205,0.938 l 15.74,-14.468 0.357,3.696 z m -24.516,-6.206 -1.884,2.841 v -0.008 l 1.272,-2.892 0.612,0.059 z m 9.708,-9.732 2.264,0.26 -7.372,10.686 1.24,-4.963 3.868,-5.983 z m -13.468,20.823 1.603,-2.479 1.525,0.188 -4.976,7.215 1.848,-4.924 z m 8.882,0.053 1.544,-3.924 1.692,-2.165 1.812,0.24 -5.048,5.849 z m -1.587,-8.381 -2.361,3.421 c -1.109,0.653 -2.117,1.246 -2.843,1.678 l 4.243,-6.563 0.961,1.464 z m -3.316,18.104 0.663,-0.777 0.153,0.056 -0.816,0.721 z m 14.291,-20.6 c -1.414,0.814 -3.009,1.737 -4.394,2.537 l 10.332,-13.242 2.973,0.396 -8.911,10.309 z m 13.589,-20.512 1.568,3.773 c -2.085,1.198 -5.856,3.368 -8.195,4.719 l 6.627,-8.492 z m -19.796,22.235 c -0.551,0.32 -1.464,0.86 -2.539,1.493 l 8.515,-11.995 0.883,1.411 -6.859,9.091 z m 7.311,-20.853 1.506,2.186 c -1.544,1.114 -3.661,2.645 -5.485,3.967 l 3.979,-6.153 z m -12.075,12.662 c -0.689,0.521 -1.428,1.078 -2.163,1.632 l 1.175,-2.674 0.988,1.042 z m -10.156,9.462 -1.87,5.155 -0.683,-5.155 h 2.553 z m -4.862,3.928 2.769,1.842 -3.311,9.126 -2.946,4.448 3.488,-15.416 z m 13.393,11.687 10.622,-12.471 0.766,2.862 -10.566,9.368 c -0.286,0.088 -0.563,0.171 -0.822,0.241 z"
   id="path121"
   inkscape:connector-curvature="0"
   style="fill:#003162" />
			</g>
			<g
   id="g123">
				<path
   d="m 274.987,105.454 c -0.897,0.229 -1.795,0.24 -2.646,0.07 l 6.94,11.806 c 0.607,-1.181 1.451,-2.224 2.468,-3.074 l -3.141,-11.517 c -0.763,1.297 -2.031,2.307 -3.621,2.715 z"
   id="path125"
   inkscape:connector-curvature="0"
   style="fill:#ffffff" />
				<path
   d="m 268.896,160.792 c 0.752,0.75 1.25,1.651 1.503,2.6 l 7.63,-12.981 c -1.07,0.384 -2.229,0.593 -3.435,0.593 -0.428,0 -0.848,-0.025 -1.259,-0.076 l -8.298,8.151 c 1.407,0.081 2.789,0.65 3.859,1.713 z"
   id="path127"
   inkscape:connector-curvature="0"
   style="fill:#ffffff" />
				<path
   d="m 280.604,102.491 2.893,10.597 c 1.173,-0.621 2.486,-1.017 3.883,-1.134 v -10.546 c -1.076,1.051 -2.56,1.699 -4.197,1.688 -0.928,-0.006 -1.802,-0.224 -2.579,-0.605 z"
   id="path129"
   inkscape:connector-curvature="0"
   style="fill:#ffffff" />
				<path
   d="m 255.163,142.493 9.461,-2.489 c 0.181,-1.557 0.735,-3.007 1.57,-4.255 h -11.949 c 1.017,1.048 1.641,2.469 1.629,4.035 -0.006,0.982 -0.266,1.902 -0.711,2.709 z"
   id="path131"
   inkscape:connector-curvature="0"
   style="fill:#ffffff" />
				<path
   d="m 254.322,133.786 h 11.057 c -0.527,-1.2 -0.824,-2.52 -0.824,-3.911 0,-0.119 0.003,-0.24 0.008,-0.362 l -9.427,-2.48 c 0.73,1.282 0.969,2.833 0.541,4.363 -0.261,0.924 -0.735,1.732 -1.355,2.39 z"
   id="path133"
   inkscape:connector-curvature="0"
   style="fill:#ffffff" />
				<path
   d="m 267.689,109.816 c -0.81,0.453 -1.681,0.691 -2.547,0.741 l 9.633,9.463 c 1.231,0.022 2.405,0.257 3.486,0.671 0.035,-0.311 0.085,-0.618 0.148,-0.92 l -7.935,-13.503 c -0.392,1.449 -1.351,2.749 -2.785,3.548 z"
   id="path135"
   inkscape:connector-curvature="0"
   style="fill:#ffffff" />
				<path
   d="m 266.039,146.303 c -0.791,-1.26 -1.3,-2.71 -1.443,-4.263 l -8.905,2.343 c 1.235,0.76 2.188,1.958 2.584,3.451 0.259,0.975 0.245,1.954 0.01,2.864 l 7.754,-4.395 z"
   id="path137"
   inkscape:connector-curvature="0"
   style="fill:#ffffff" />
				<path
   d="m 312.222,142.059 c -0.146,1.556 -0.661,3.009 -1.458,4.269 l 7.239,4.105 c -0.249,-1.319 -0.033,-2.729 0.714,-3.979 0.547,-0.915 1.313,-1.626 2.191,-2.111 l -8.686,-2.284 z"
   id="path139"
   inkscape:connector-curvature="0"
   style="fill:#ffffff" />
				<path
   d="m 264.835,127.556 c 0.357,-1.448 1.037,-2.772 1.964,-3.894 l -8.489,-4.813 c 0.383,1.436 0.207,3.013 -0.616,4.394 -0.484,0.811 -1.139,1.46 -1.892,1.936 l 9.033,2.377 z"
   id="path141"
   inkscape:connector-curvature="0"
   style="fill:#ffffff" />
				<path
   d="m 291.718,102.899 c -0.899,-0.243 -1.69,-0.68 -2.342,-1.25 v 10.324 c 1.409,0.137 2.717,0.531 3.879,1.13 l 2.932,-10.744 c -1.309,0.725 -2.899,0.966 -4.469,0.54 z"
   id="path143"
   inkscape:connector-curvature="0"
   style="fill:#ffffff" />
				<path
   d="m 300.021,104.883 c -0.817,-0.471 -1.474,-1.106 -1.955,-1.835 l -3.055,11.2 c 1.033,0.835 1.883,1.864 2.496,3.027 l 6.919,-11.767 c -1.446,0.352 -3.022,0.176 -4.405,-0.625 z"
   id="path145"
   inkscape:connector-curvature="0"
   style="fill:#ffffff" />
				<path
   d="m 307.513,108.906 c -0.678,-0.672 -1.147,-1.469 -1.422,-2.315 l -7.7,13.103 c 0.073,0.326 0.129,0.66 0.167,0.997 1.063,-0.408 2.216,-0.642 3.422,-0.67 l 9.561,-9.393 c -1.463,-0.04 -2.917,-0.613 -4.028,-1.722 z"
   id="path147"
   inkscape:connector-curvature="0"
   style="fill:#ffffff" />
				<path
   d="m 268.26,122.227 c 1.141,-0.913 2.49,-1.585 3.969,-1.936 l -8.683,-8.528 c -10e-4,1.497 -0.585,2.99 -1.754,4.12 -0.67,0.65 -1.458,1.107 -2.296,1.376 l 8.764,4.968 z"
   id="path149"
   inkscape:connector-curvature="0"
   style="fill:#ffffff" />
				<path
   d="m 322.253,135.749 h -11.627 c 0.839,1.254 1.39,2.708 1.573,4.272 l 8.915,2.347 c -0.604,-1.22 -0.777,-2.651 -0.381,-4.064 0.282,-1.006 0.817,-1.871 1.52,-2.555 z"
   id="path151"
   inkscape:connector-curvature="0"
   style="fill:#ffffff" />
				<path
   d="m 321.296,127.118 -9.036,2.38 c 0.001,0.126 0.005,0.25 0.005,0.377 0,1.391 -0.296,2.711 -0.824,3.911 h 10.571 c -0.928,-1.03 -1.488,-2.386 -1.478,-3.869 0.009,-1.018 0.286,-1.971 0.762,-2.799 z"
   id="path153"
   inkscape:connector-curvature="0"
   style="fill:#ffffff" />
				<path
   d="m 313.692,114.701 c -0.489,-0.843 -0.734,-1.754 -0.763,-2.661 l -8.389,8.24 c 1.486,0.345 2.843,1.014 3.991,1.924 l 8.531,-4.836 c -1.376,-0.421 -2.599,-1.337 -3.37,-2.667 z"
   id="path155"
   inkscape:connector-curvature="0"
   style="fill:#ffffff" />
				<path
   d="m 318.135,121.867 c -0.257,-0.962 -0.244,-1.93 -0.021,-2.832 l -8.115,4.601 c 0.934,1.125 1.621,2.451 1.981,3.905 l 8.649,-2.277 c -1.191,-0.759 -2.11,-1.939 -2.494,-3.397 z"
   id="path157"
   inkscape:connector-curvature="0"
   style="fill:#ffffff" />
				<path
   d="m 276.389,164.818 c 0.941,0.544 1.671,1.305 2.166,2.177 l 3.262,-11.964 c -1.011,-0.82 -1.848,-1.822 -2.46,-2.957 l -7.088,12.057 c 1.363,-0.263 2.827,-0.058 4.12,0.687 z"
   id="path159"
   inkscape:connector-curvature="0"
   style="fill:#ffffff" />
				<path
   d="m 309.537,147.897 c -1.054,1.103 -2.363,1.966 -3.835,2.5 l 7.18,7.053 c 0.117,-1.329 0.692,-2.624 1.736,-3.635 0.783,-0.757 1.728,-1.253 2.721,-1.494 l -7.802,-4.424 z"
   id="path161"
   inkscape:connector-curvature="0"
   style="fill:#ffffff" />
				<path
   d="m 262.716,154.999 c 0.52,0.896 0.764,1.871 0.766,2.833 l 7.588,-7.454 c -1.462,-0.537 -2.764,-1.402 -3.813,-2.503 l -7.879,4.469 c 1.364,0.426 2.575,1.338 3.338,2.655 z"
   id="path163"
   inkscape:connector-curvature="0"
   style="fill:#ffffff" />
				<path
   d="m 308.72,159.883 c 0.965,-0.538 2.019,-0.778 3.055,-0.749 l -8.349,-8.198 c -0.394,0.045 -0.793,0.068 -1.2,0.068 -1.242,0 -2.424,-0.22 -3.519,-0.622 l 7.384,12.562 c 0.463,-1.252 1.359,-2.352 2.629,-3.061 z"
   id="path165"
   inkscape:connector-curvature="0"
   style="fill:#ffffff" />
				<path
   d="m 304.585,164.302 -7.152,-12.167 c -0.621,1.14 -1.465,2.147 -2.475,2.962 l 3.12,11.439 c 0.777,-1.091 1.933,-1.928 3.346,-2.29 1.079,-0.275 2.165,-0.237 3.161,0.056 z"
   id="path167"
   inkscape:connector-curvature="0"
   style="fill:#ffffff" />
				<path
   d="m 296.265,167.46 -3.063,-11.223 c -1.16,0.592 -2.453,0.969 -3.825,1.075 v 10.666 c 1.037,-0.864 2.384,-1.383 3.85,-1.374 1.114,0.008 2.151,0.322 3.038,0.856 z"
   id="path169"
   inkscape:connector-curvature="0"
   style="fill:#ffffff" />
				<path
   d="m 284.688,166.802 c 1.066,0.287 1.98,0.846 2.692,1.58 v -11.1 c -1.384,-0.144 -2.667,-0.526 -3.809,-1.111 l -2.997,10.993 c 1.238,-0.583 2.687,-0.75 4.114,-0.362 z"
   id="path171"
   inkscape:connector-curvature="0"
   style="fill:#ffffff" />
				<path
   d="m 329.525,134.904 c 1.682,-1.011 2.815,-2.823 2.828,-4.906 0.021,-2.641 -1.764,-4.882 -4.222,-5.598 1.358,-1.407 1.972,-3.445 1.439,-5.458 -0.679,-2.559 -2.993,-4.267 -5.555,-4.335 0.943,-1.703 0.999,-3.828 -0.047,-5.638 -1.33,-2.298 -4.015,-3.361 -6.508,-2.777 0.462,-1.881 -0.043,-3.949 -1.53,-5.43 -1.89,-1.884 -4.765,-2.228 -7.02,-1.029 -0.049,-1.938 -1.083,-3.806 -2.911,-4.86 -2.32,-1.337 -5.188,-0.938 -7.048,0.792 -0.56,-1.859 -2.05,-3.401 -4.091,-3.953 -2.596,-0.703 -5.26,0.409 -6.6,2.555 -1.032,-1.652 -2.877,-2.765 -4.995,-2.78 -2.694,-0.018 -4.974,1.735 -5.703,4.149 -1.431,-1.333 -3.506,-1.938 -5.557,-1.415 -2.605,0.666 -4.345,2.939 -4.416,5.457 -1.733,-0.926 -3.898,-0.982 -5.74,0.044 -2.34,1.308 -3.422,3.943 -2.825,6.394 -1.918,-0.455 -4.024,0.042 -5.534,1.502 -1.916,1.859 -2.267,4.679 -1.046,6.894 -1.972,0.049 -3.875,1.062 -4.945,2.858 -1.366,2.281 -0.957,5.097 0.804,6.926 -1.891,0.548 -3.463,2.012 -4.025,4.017 -0.714,2.548 0.42,5.167 2.603,6.481 -1.682,1.015 -2.814,2.828 -2.83,4.908 -0.019,2.644 1.766,4.882 4.223,5.599 -1.357,1.406 -1.974,3.444 -1.44,5.456 0.678,2.56 2.992,4.268 5.557,4.336 -0.943,1.704 -1,3.83 0.046,5.639 1.329,2.298 4.013,3.362 6.508,2.777 -0.462,1.883 0.043,3.952 1.53,5.432 1.888,1.884 4.763,2.228 7.017,1.031 0.052,1.937 1.085,3.805 2.911,4.859 2.322,1.336 5.189,0.938 7.05,-0.792 0.56,1.857 2.05,3.402 4.091,3.952 2.597,0.703 5.261,-0.411 6.602,-2.556 1.033,1.651 2.875,2.764 4.993,2.779 2.69,0.018 4.971,-1.735 5.706,-4.148 1.43,1.334 3.503,1.94 5.553,1.416 2.605,-0.667 4.344,-2.94 4.415,-5.457 1.734,0.925 3.899,0.983 5.742,-0.047 2.338,-1.306 3.42,-3.942 2.823,-6.39 1.922,0.449 4.025,-0.045 5.533,-1.506 1.918,-1.855 2.269,-4.679 1.046,-6.889 1.974,-0.052 3.874,-1.066 4.947,-2.86 1.361,-2.28 0.958,-5.096 -0.807,-6.924 1.892,-0.549 3.463,-2.012 4.025,-4.02 0.72,-2.55 -0.414,-5.166 -2.597,-6.485 z m -10.808,11.55 c -0.747,1.25 -0.963,2.66 -0.714,3.979 l -7.239,-4.105 c 0.797,-1.26 1.313,-2.713 1.458,-4.269 l 8.687,2.284 c -0.88,0.485 -1.645,1.197 -2.192,2.111 z m -10.129,-0.17 -2.626,-1.876 -2.627,1.876 1,-3.036 -2.625,-1.875 h 3.247 l 1.005,-3.034 1.002,3.034 h 3.248 l -2.627,1.875 1.003,3.036 z m -37.731,-1.876 -2.63,1.876 1.008,-3.036 -2.628,-1.875 h 3.245 l 1.005,-3.034 1.003,3.034 h 3.249 l -2.627,1.875 1.004,3.036 -2.629,-1.876 z m -12.582,3.426 c -0.397,-1.493 -1.35,-2.691 -2.584,-3.451 l 8.905,-2.343 c 0.143,1.553 0.652,3.003 1.443,4.263 l -7.753,4.396 c 0.234,-0.911 0.248,-1.89 -0.011,-2.865 z m -0.581,-24.591 c 0.823,-1.381 1,-2.958 0.616,-4.394 l 8.489,4.813 c -0.927,1.122 -1.607,2.446 -1.964,3.894 l -9.032,-2.377 c 0.752,-0.475 1.407,-1.125 1.891,-1.936 z m 13.818,2.402 h 3.249 l -2.627,1.876 1.004,3.036 -2.627,-1.878 -2.628,1.878 1.003,-3.036 -2.629,-1.876 h 3.246 l 1.008,-3.034 1.001,3.034 z m 33.798,0 1.003,-3.034 1.003,3.034 h 3.249 l -2.629,1.876 1.003,3.036 -2.626,-1.878 -2.629,1.878 1.009,-3.036 -2.634,-1.876 h 3.251 z m -1.798,12.774 -2.628,-1.876 -2.628,1.876 1.003,-3.03 -2.627,-1.878 h 3.246 l 1.006,-3.036 1.002,3.036 h 3.251 l -2.627,1.873 1.002,3.035 z m -13.478,12.795 1.003,3.034 -2.628,-1.875 -2.627,1.875 1.005,-3.034 -2.63,-1.875 h 3.249 l 1.004,-3.036 1.005,3.036 h 3.249 l -2.63,1.875 z m -1.625,-14.671 -2.627,1.876 1.005,-3.036 -2.63,-1.873 h 3.249 l 1.004,-3.036 1.005,3.036 h 3.249 l -2.629,1.878 1.003,3.03 -2.629,-1.875 z m -12.471,0 -2.631,1.876 1.005,-3.036 -2.628,-1.873 h 3.249 l 1.005,-3.036 1,3.036 h 3.25 l -2.628,1.878 1.002,3.03 -2.624,-1.875 z m 10.849,-17.869 -2.63,-1.872 h 3.249 l 1.004,-3.034 1.005,3.034 h 3.249 l -2.629,1.872 1.003,3.038 -2.628,-1.876 -2.627,1.876 1.004,-3.038 z m 10.219,11.883 -2.628,-1.878 -2.627,1.878 0.999,-3.036 -2.625,-1.876 h 3.249 l 1.004,-3.034 1.004,3.034 h 3.246 l -2.624,1.876 1.002,3.036 z m 4.973,-10.536 c -1.206,0.028 -2.358,0.262 -3.422,0.67 -0.038,-0.337 -0.094,-0.671 -0.167,-0.997 l 7.7,-13.103 c 0.274,0.846 0.744,1.644 1.422,2.315 1.111,1.108 2.565,1.682 4.027,1.722 l -9.56,9.393 z m -4.472,-2.746 c -0.613,-1.164 -1.463,-2.192 -2.496,-3.027 l 3.055,-11.2 c 0.481,0.729 1.138,1.364 1.955,1.835 1.384,0.8 2.96,0.977 4.405,0.625 l -6.919,11.767 z m -4.252,-4.172 c -1.162,-0.599 -2.47,-0.993 -3.879,-1.13 v -10.324 c 0.651,0.57 1.442,1.007 2.342,1.25 1.57,0.426 3.16,0.185 4.469,-0.541 l -2.932,10.745 z m -5.875,-1.149 c -1.397,0.117 -2.71,0.513 -3.883,1.134 l -2.893,-10.597 c 0.777,0.381 1.651,0.599 2.579,0.604 1.637,0.011 3.121,-0.637 4.197,-1.688 v 10.547 z m -8.773,-9.215 3.141,11.517 c -1.017,0.85 -1.86,1.893 -2.468,3.074 l -6.94,-11.806 c 0.851,0.17 1.75,0.16 2.646,-0.07 1.591,-0.408 2.859,-1.418 3.621,-2.715 z m -8.133,3.529 7.935,13.503 c -0.063,0.302 -0.113,0.609 -0.148,0.92 -1.081,-0.414 -2.254,-0.649 -3.486,-0.671 l -9.633,-9.463 c 0.867,-0.049 1.738,-0.288 2.547,-0.741 1.434,-0.799 2.393,-2.099 2.785,-3.548 z m 7.718,19.377 h 3.242 l 1.008,-3.034 1.001,3.034 h 3.253 l -2.63,1.876 1.004,3.036 -2.628,-1.878 -2.63,1.878 1.006,-3.036 -2.626,-1.876 z m -23.057,1.389 9.427,2.48 c -0.005,0.122 -0.008,0.243 -0.008,0.362 0,1.391 0.296,2.711 0.824,3.911 h -11.057 c 0.621,-0.658 1.094,-1.466 1.354,-2.389 0.429,-1.531 0.19,-3.082 -0.54,-4.364 z m 11.058,8.715 c -0.834,1.249 -1.389,2.698 -1.57,4.255 l -9.461,2.489 c 0.446,-0.807 0.705,-1.727 0.71,-2.709 0.012,-1.566 -0.612,-2.987 -1.629,-4.035 h 11.95 z m 12.114,5.623 h 3.247 l 1.008,-3.034 1,3.034 h 3.25 l -2.625,1.875 1.003,3.036 -2.627,-1.876 -2.632,1.876 1.008,-3.036 -2.632,-1.875 z m -3.712,9.632 c 1.206,0 2.364,-0.208 3.435,-0.593 l -7.63,12.981 c -0.252,-0.949 -0.751,-1.851 -1.503,-2.6 -1.07,-1.063 -2.452,-1.632 -3.858,-1.713 l 8.298,-8.151 c 0.41,0.051 0.83,0.076 1.258,0.076 z m 4.761,1.071 c 0.612,1.134 1.449,2.136 2.46,2.957 l -3.262,11.964 c -0.495,-0.872 -1.225,-1.633 -2.166,-2.177 -1.293,-0.745 -2.756,-0.95 -4.12,-0.686 l 7.088,-12.058 z m 4.215,4.096 c 1.142,0.584 2.424,0.967 3.809,1.111 v 11.1 c -0.712,-0.734 -1.626,-1.293 -2.692,-1.58 -1.426,-0.388 -2.876,-0.221 -4.113,0.362 l 2.996,-10.993 z m 5.805,1.141 c 1.372,-0.106 2.665,-0.482 3.825,-1.075 l 3.063,11.223 c -0.887,-0.535 -1.924,-0.848 -3.039,-0.856 -1.466,-0.009 -2.813,0.51 -3.85,1.374 v -10.666 z m 8.702,9.224 -3.12,-11.439 c 1.01,-0.815 1.854,-1.822 2.475,-2.962 l 7.152,12.167 c -0.996,-0.292 -2.082,-0.331 -3.161,-0.056 -1.413,0.362 -2.569,1.198 -3.346,2.29 z m 8.013,-3.593 -7.384,-12.562 c 1.095,0.402 2.276,0.622 3.519,0.622 0.407,0 0.807,-0.023 1.2,-0.068 l 8.349,8.198 c -1.036,-0.029 -2.09,0.211 -3.055,0.749 -1.27,0.71 -2.166,1.81 -2.629,3.061 z m -9.201,-16.659 -2.627,-1.876 -2.632,1.876 1.006,-3.036 -2.628,-1.875 h 3.246 l 1.008,-3.034 1.002,3.034 h 3.251 l -2.628,1.875 1.002,3.036 z m 24.224,-3.916 -8.915,-2.347 c -0.184,-1.564 -0.734,-3.018 -1.573,-4.272 h 11.627 c -0.703,0.685 -1.238,1.55 -1.52,2.555 -0.396,1.413 -0.223,2.843 0.381,4.064 z m -9.674,-8.582 c 0.528,-1.2 0.824,-2.52 0.824,-3.911 0,-0.127 -0.004,-0.251 -0.005,-0.377 l 9.036,-2.38 c -0.476,0.828 -0.753,1.781 -0.762,2.799 -0.011,1.483 0.55,2.839 1.478,3.869 H 311.44 z m 0.54,-6.245 c -0.36,-1.454 -1.048,-2.78 -1.981,-3.905 l 8.115,-4.601 c -0.224,0.902 -0.236,1.87 0.021,2.832 0.384,1.458 1.303,2.638 2.495,3.396 l -8.65,2.278 z m -3.448,-5.337 c -1.148,-0.911 -2.505,-1.58 -3.991,-1.924 l 8.389,-8.24 c 0.028,0.907 0.273,1.818 0.763,2.661 0.771,1.33 1.993,2.246 3.371,2.667 l -8.532,4.836 z m -44.986,-10.441 8.683,8.528 c -1.479,0.351 -2.828,1.023 -3.969,1.936 l -8.765,-4.968 c 0.838,-0.269 1.626,-0.726 2.296,-1.376 1.17,-1.13 1.753,-2.623 1.755,-4.12 z m 3.711,36.112 c 1.049,1.101 2.351,1.966 3.813,2.503 l -7.588,7.454 c -0.002,-0.962 -0.246,-1.938 -0.766,-2.833 -0.763,-1.317 -1.974,-2.229 -3.337,-2.655 l 7.878,-4.469 z m 47.361,5.94 c -1.044,1.011 -1.619,2.307 -1.736,3.635 l -7.18,-7.053 c 1.472,-0.534 2.781,-1.397 3.835,-2.5 l 7.802,4.424 c -0.993,0.241 -1.938,0.737 -2.721,1.494 z"
   id="path173"
   inkscape:connector-curvature="0"
   style="fill:#003162" />
				<polygon
   points="289.414,116.802 288.409,113.768 287.405,116.802 284.157,116.802 286.787,118.674 285.782,121.712 288.409,119.836 291.037,121.712 290.034,118.674 292.663,116.802 "
   id="polygon175"
   style="fill:#fbfbfb" />
				<polygon
   points="286.787,151.214 285.782,154.248 288.409,152.373 291.037,154.248 290.034,151.214 292.663,149.339 289.414,149.339 288.409,146.303 287.405,149.339 284.157,149.339 "
   id="polygon177"
   style="fill:#fbfbfb" />
				<polygon
   points="288.409,130.475 287.405,133.511 284.157,133.511 286.787,135.384 285.782,138.419 288.409,136.543 291.037,138.419 290.034,135.39 292.663,133.511 289.414,133.511 "
   id="polygon179"
   style="fill:#fbfbfb" />
				<polygon
   points="275.938,130.475 274.933,133.511 271.684,133.511 274.312,135.384 273.306,138.419 275.938,136.543 278.563,138.419 277.561,135.39 280.188,133.511 276.938,133.511 "
   id="polygon181"
   style="fill:#fbfbfb" />
				<polygon
   points="296.632,133.511 299.259,135.39 298.256,138.419 300.884,136.543 303.512,138.419 302.51,135.384 305.137,133.511 301.886,133.511 300.884,130.475 299.878,133.511 "
   id="polygon183"
   style="fill:#fbfbfb" />
				<polygon
   points="286.697,125.645 283.444,125.645 282.443,122.611 281.435,125.645 278.192,125.645 280.818,127.521 279.813,130.557 282.443,128.679 285.071,130.557 284.067,127.521 "
   id="polygon185"
   style="fill:#fbfbfb" />
				<polygon
   points="270.51,128.679 273.137,130.557 272.133,127.521 274.761,125.645 271.512,125.645 270.51,122.611 269.502,125.645 266.256,125.645 268.885,127.521 267.881,130.557 "
   id="polygon187"
   style="fill:#fbfbfb" />
				<polygon
   points="290.125,125.645 292.75,127.521 291.751,130.557 294.378,128.679 297.006,130.557 296.004,127.521 298.628,125.645 295.382,125.645 294.378,122.611 293.374,125.645 "
   id="polygon189"
   style="fill:#fbfbfb" />
				<polygon
   points="307.936,127.521 310.564,125.645 307.315,125.645 306.313,122.611 305.31,125.645 302.059,125.645 304.692,127.521 303.684,130.557 306.313,128.679 308.938,130.557 "
   id="polygon191"
   style="fill:#fbfbfb" />
				<polygon
   points="286.811,141.372 283.561,141.372 282.562,138.338 281.554,141.372 278.307,141.372 280.937,143.248 279.929,146.284 282.562,144.408 285.188,146.284 284.186,143.248 "
   id="polygon193"
   style="fill:#fbfbfb" />
				<polygon
   points="269.852,141.372 266.607,141.372 269.235,143.248 268.227,146.284 270.857,144.408 273.486,146.284 272.482,143.248 275.109,141.372 271.86,141.372 270.857,138.338 "
   id="polygon195"
   style="fill:#fbfbfb" />
				<polygon
   points="290.009,141.372 292.637,143.248 291.631,146.284 294.263,144.408 296.89,146.284 295.888,143.248 298.516,141.372 295.265,141.372 294.263,138.338 293.255,141.372 "
   id="polygon197"
   style="fill:#fbfbfb" />
				<polygon
   points="301.71,141.372 304.335,143.248 303.335,146.284 305.962,144.408 308.588,146.284 307.585,143.248 310.212,141.372 306.964,141.372 305.962,138.338 304.957,141.372 "
   id="polygon199"
   style="fill:#fbfbfb" />
			</g>
			<g
   id="g201">
				<g
   id="g203">
					<rect
   x="257.39401"
   y="224.479"
   width="8.9399996"
   height="5.5700002"
   id="rect205"
   style="fill:#003162" />
				</g>
				<g
   id="g207">
					<rect
   x="310.51099"
   y="224.479"
   width="8.9399996"
   height="5.5700002"
   id="rect209"
   style="fill:#003162" />
				</g>
				<g
   id="g211">
					<g
   id="g213">
						<path
   d="m 317.979,225.609 v 52.989 c 0,0 -0.4,6.158 -7.473,6.813 h -18.144 c 0,0 -3.277,0.493 -3.777,3.441 h -0.203 c -0.5,-2.948 -3.898,-3.441 -3.898,-3.441 h -18.142 c -7.073,-0.654 -7.473,-6.813 -7.473,-6.813 v -52.989 h 59.11 z"
   id="path215"
   inkscape:connector-curvature="0"
   style="fill:#ffffff" />
					</g>
					<g
   id="g217">
						<g
   id="g219">
							<path
   d="m 281.61,283.708 c 0,0 3.668,-0.197 4.867,1.248 v -41.802 h -4.894 l 0.027,40.554 z"
   id="path221"
   inkscape:connector-curvature="0"
   style="fill:#ca0e43" />
						</g>
						<g
   id="g223">
							<rect
   x="272.34201"
   y="243.41499"
   width="4.6609998"
   height="40.424"
   id="rect225"
   style="fill:#ca0e43" />
						</g>
						<g
   id="g227">
							<path
   d="m 267.591,283.971 c 0,0 -3.644,-0.652 -4.579,-2.418 v -37.614 h 4.603 l -0.024,40.032 z"
   id="path229"
   inkscape:connector-curvature="0"
   style="fill:#ca0e43" />
						</g>
						<g
   id="g231">
							<path
   d="m 295.813,283.708 c 0,0 -3.671,-0.197 -4.87,1.248 v -41.802 h 4.891 l -0.021,40.554 z"
   id="path233"
   inkscape:connector-curvature="0"
   style="fill:#ca0e43" />
						</g>
						<g
   id="g235">
							<rect
   x="300.41599"
   y="243.41499"
   width="4.6630001"
   height="40.424"
   id="rect237"
   style="fill:#ca0e43" />
						</g>
						<g
   id="g239">
							<path
   d="m 309.83,283.971 c 0,0 3.646,-0.652 4.58,-2.418 v -37.614 h -4.604 l 0.024,40.032 z"
   id="path241"
   inkscape:connector-curvature="0"
   style="fill:#ca0e43" />
						</g>
					</g>
					<g
   id="g243">
						<rect
   x="260.86499"
   y="227.228"
   width="54.936001"
   height="17.964001"
   id="rect245"
   style="fill:#003162" />
					</g>
				</g>
			</g>
		</g>
		<g
   id="g247">
			<g
   id="g249">
				<path
   d="m 229.323,157.128 -2.35,-1.186 -0.572,1.099 2.156,1.088 -0.482,0.922 -2.157,-1.089 -0.708,1.352 2.454,1.237 -0.482,0.923 -3.359,-1.696 2.73,-5.216 3.254,1.642 -0.484,0.924 z"
   id="path251"
   inkscape:connector-curvature="0"
   style="fill:#ffffff" />
			</g>
			<g
   id="g253">
				<path
   d="m 230.264,163.004 -0.925,-0.465 2.73,-5.217 2.022,1.021 c 0.857,0.432 1.036,1.34 0.5,2.362 -0.248,0.474 -1.091,1.552 -2.281,0.953 l -1.06,-0.535 -0.986,1.881 z m 2.313,-2.35 c 0.69,0.35 0.994,-0.233 1.116,-0.465 0.267,-0.508 0.136,-0.84 -0.437,-1.128 l -0.734,-0.371 -0.802,1.533 0.857,0.431 z"
   id="path255"
   inkscape:connector-curvature="0"
   style="fill:#ffffff" />
			</g>
			<g
   id="g257">
				<path
   d="m 234.647,164.059 2.174,1.165 -0.518,0.931 -3.086,-1.652 2.856,-5.15 0.913,0.489 -2.339,4.217 z"
   id="path259"
   inkscape:connector-curvature="0"
   style="fill:#ffffff" />
			</g>
			<g
   id="g261">
				<path
   d="m 241.26,166.79 c -0.853,1.298 -1.881,1.434 -2.935,0.766 -0.383,-0.242 -0.882,-0.714 -0.935,-1.438 -0.028,-0.446 0.145,-0.9 0.458,-1.4 l 2.145,-3.271 0.892,0.565 -2.102,3.2 c -0.45,0.685 -0.31,1.203 0.097,1.461 0.6,0.38 1.07,0.191 1.461,-0.409 l 2.133,-3.245 0.889,0.564 -2.103,3.207 z"
   id="path263"
   inkscape:connector-curvature="0"
   style="fill:#ffffff" />
			</g>
			<g
   id="g265">
				<path
   d="m 244.614,164.61 1.954,1.556 c 1.028,0.823 0.476,1.864 0.151,2.259 -0.415,0.502 -0.986,0.762 -1.495,0.608 0.182,0.418 0.238,0.695 -0.467,1.544 -0.55,0.668 -0.686,0.833 -0.576,1.045 l -0.101,0.12 -0.892,-0.71 c 0.125,-0.26 0.286,-0.52 0.675,-0.988 0.514,-0.623 0.681,-0.889 0.084,-1.367 l -0.835,-0.665 -1.472,1.78 -0.792,-0.629 3.766,-4.553 z m 0.08,3.39 c 0.421,0.334 0.766,0.325 1.138,-0.123 0.2,-0.243 0.402,-0.669 -0.073,-1.046 l -1.005,-0.803 -1.006,1.217 0.946,0.755 z"
   id="path267"
   inkscape:connector-curvature="0"
   style="fill:#ffffff" />
			</g>
			<g
   id="g269">
				<path
   d="m 245.347,172.798 -0.794,-0.655 3.843,-4.49 0.796,0.655 -3.845,4.49 z"
   id="path271"
   inkscape:connector-curvature="0"
   style="fill:#ffffff" />
			</g>
			<g
   id="g273">
				<path
   d="m 249.938,168.914 1.816,1.568 c 0.916,0.793 0.546,1.669 0.139,2.121 -0.564,0.634 -1.026,0.55 -1.265,0.509 0.277,0.597 0.013,1.129 -0.378,1.566 -0.311,0.35 -0.733,0.572 -1.136,0.629 -0.432,0.061 -0.774,0.039 -1.539,-0.623 l -1.583,-1.368 3.946,-4.402 z m -2.515,4.291 0.958,0.827 c 0.378,0.33 0.775,0.321 1.173,-0.125 0.348,-0.386 0.198,-0.777 -0.083,-1.022 l -0.993,-0.856 -1.055,1.176 z m 1.719,-1.92 0.919,0.792 c 0.305,0.266 0.677,0.336 0.99,-0.013 0.324,-0.361 0.205,-0.661 -0.15,-0.967 l -0.894,-0.773 -0.865,0.961 z"
   id="path275"
   inkscape:connector-curvature="0"
   style="fill:#ffffff" />
			</g>
			<g
   id="g277">
				<path
   d="m 253.924,177.755 c -1.104,1.098 -2.14,1.023 -3.032,0.157 -0.327,-0.316 -0.716,-0.877 -0.617,-1.597 0.065,-0.44 0.331,-0.852 0.741,-1.278 l 2.784,-2.767 0.753,0.733 -2.723,2.707 c -0.585,0.582 -0.556,1.114 -0.21,1.45 0.507,0.494 1.007,0.404 1.515,-0.103 l 2.764,-2.747 0.755,0.729 -2.73,2.716 z"
   id="path279"
   inkscape:connector-curvature="0"
   style="fill:#ffffff" />
			</g>
			<g
   id="g281">
				<path
   d="m 255.07,179.433 c -0.264,0.199 -0.693,0.679 -0.152,1.397 0.292,0.387 0.731,0.738 1.24,0.37 0.375,-0.271 0.251,-0.639 0.06,-1.143 l -0.195,-0.509 c -0.296,-0.767 -0.583,-1.507 0.474,-2.273 0.534,-0.387 1.654,-0.833 2.613,0.441 0.905,1.207 0.185,2.225 -0.401,2.657 l -0.591,-0.788 c 0.196,-0.179 0.657,-0.612 0.117,-1.329 -0.233,-0.312 -0.654,-0.582 -1.088,-0.268 -0.376,0.27 -0.266,0.582 -0.19,0.778 l 0.434,1.167 c 0.24,0.653 0.343,1.342 -0.52,1.966 -1.446,1.047 -2.478,-0.065 -2.736,-0.411 -1.078,-1.433 -0.253,-2.414 0.343,-2.846 l 0.592,0.791 z"
   id="path283"
   inkscape:connector-curvature="0"
   style="fill:#ffffff" />
			</g>
		</g>
		<g
   id="g285">
			<g
   id="g287">
				<path
   d="m 328.392,171.523 c 1.046,1.152 0.817,2.239 -0.26,3.183 -0.393,0.345 -1.063,0.757 -1.839,0.66 -0.474,-0.064 -0.884,-0.34 -1.293,-0.77 l -2.636,-2.9 0.911,-0.797 2.58,2.839 c 0.554,0.61 1.141,0.576 1.559,0.212 0.613,-0.538 0.583,-1.062 0.102,-1.592 l -2.618,-2.88 0.911,-0.799 2.583,2.844 z"
   id="path289"
   inkscape:connector-curvature="0"
   style="fill:#ffffff" />
			</g>
			<g
   id="g291">
				<path
   d="m 329.436,165.707 0.86,-0.697 3.804,4.521 -0.923,0.748 -4.511,-1.765 -0.016,0.01 2.717,3.225 -0.859,0.697 -3.807,-4.52 0.969,-0.788 4.404,1.726 0.011,-0.011 -2.649,-3.146 z"
   id="path293"
   inkscape:connector-curvature="0"
   style="fill:#ffffff" />
			</g>
			<g
   id="g295">
				<path
   d="m 337.243,164.559 c 0.956,1.225 0.645,2.294 -0.501,3.155 -0.416,0.313 -1.121,0.675 -1.882,0.52 -0.471,-0.098 -0.86,-0.404 -1.234,-0.861 l -2.411,-3.086 0.969,-0.729 2.359,3.023 c 0.504,0.646 1.094,0.655 1.537,0.322 0.651,-0.49 0.665,-1.013 0.223,-1.578 l -2.392,-3.068 0.969,-0.729 2.363,3.031 z"
   id="path297"
   inkscape:connector-curvature="0"
   style="fill:#ffffff" />
			</g>
			<g
   id="g299">
				<path
   d="m 343.856,162.536 -0.922,0.618 -2.826,-4.041 -0.01,0.01 1.941,4.635 -0.965,0.647 -3.687,-3.458 -0.014,0.008 2.824,4.04 -0.921,0.619 -3.379,-4.834 1.439,-0.968 3.521,3.235 0.012,-0.009 -1.824,-4.378 1.426,-0.96 3.385,4.836 z"
   id="path301"
   inkscape:connector-curvature="0"
   style="fill:#ffffff" />
			</g>
		</g>
	</g>
	<g
   id="g303">
		<path
   d="m 103.044,156.377 9.478,5.593 c 0.862,0.51 1.778,0.978 2.658,1 1.176,0.026 2.104,-0.588 2.635,-1.487 1.375,-2.329 -0.717,-3.984 -2.307,-4.922 l -9.324,-5.502 2.109,-3.576 9.237,5.451 c 1.766,1.042 3.57,2.38 4.253,3.896 1.143,2.405 0.122,4.992 -0.863,6.661 -3.691,6.252 -8.386,3.507 -10.991,1.968 l -9.07,-5.381 2.185,-3.701 z"
   id="path305"
   inkscape:connector-curvature="0"
   style="fill:#003162" />
		<path
   d="m 111.079,143.214 3.442,-4.762 14.23,3.87 -11.214,-8.047 2.182,-3.021 15.016,10.846 -3.365,4.662 -14.774,-4.13 11.694,8.394 -2.195,3.037 -15.016,-10.849 z"
   id="path307"
   inkscape:connector-curvature="0"
   style="fill:#003162" />
		<path
   d="m 122.725,127.643 2.8,-3.377 14.26,11.82 -2.798,3.376 -14.262,-11.819 z"
   id="path309"
   inkscape:connector-curvature="0"
   style="fill:#003162" />
		<path
   d="m 133.403,120.849 -3.188,3.43 -2.686,-2.499 9.381,-10.088 2.686,2.497 -3.262,3.508 10.877,10.118 -2.929,3.149 -10.879,-10.115 z"
   id="path311"
   inkscape:connector-curvature="0"
   style="fill:#003162" />
		<path
   d="m 139.457,109.288 8.47,-7.841 2.405,2.599 -5.376,4.977 2.614,2.824 5.063,-4.686 2.405,2.596 -5.063,4.687 2.684,2.899 5.5,-5.091 2.441,2.639 -8.597,7.953 -12.546,-13.556 z"
   id="path313"
   inkscape:connector-curvature="0"
   style="fill:#003162" />
		<path
   d="m 151.52,98.25 5.122,-3.993 c 1.445,-1.126 3.501,-2.435 5.565,-2.385 2.949,0.077 5.313,2.104 7,4.27 2.523,3.239 3.527,6.295 1.974,9.357 -0.802,1.536 -2.28,2.688 -3.118,3.342 l -5.158,4.018 L 151.52,98.25 z m 12.637,9.113 1.444,-1.125 c 2.218,-1.763 2.746,-4.028 0.096,-7.426 -3.452,-4.432 -6.207,-2.286 -7.232,-1.487 l -1.341,1.013 7.033,9.025 z"
   id="path315"
   inkscape:connector-curvature="0"
   style="fill:#003162" />
		<path
   d="m 198.767,82.457 c 0.343,0.659 1.307,2.558 3.589,1.458 0.326,-0.158 2.052,-0.989 1.139,-2.885 -0.378,-0.786 -0.905,-1.187 -1.971,-1.044 l -3.906,0.576 c -1.105,0.162 -3.957,0.569 -5.641,-2.919 -1.303,-2.704 -0.832,-6.037 3.312,-8.035 5.408,-2.609 7.343,0.814 8.221,2.585 l -3.894,1.879 c -0.246,-0.51 -1.096,-2.319 -2.938,-1.433 -1.11,0.537 -1.453,1.642 -0.972,2.636 0.589,1.226 1.578,1.118 2.223,1.034 l 2.98,-0.442 c 2.12,-0.31 4.641,-0.67 6.345,2.865 1.794,3.719 -0.049,6.66 -3.521,8.336 -1.439,0.692 -3.892,1.537 -5.983,0.438 -1.663,-0.853 -2.475,-2.481 -2.839,-3.189 l 3.856,-1.86 z"
   id="path317"
   inkscape:connector-curvature="0"
   style="fill:#003162" />
		<path
   d="m 210.039,67.591 -4.365,1.702 -1.333,-3.417 12.838,-5.003 1.332,3.418 -4.465,1.74 5.396,13.84 -4.007,1.562 -5.396,-13.842 z"
   id="path319"
   inkscape:connector-curvature="0"
   style="fill:#003162" />
		<path
   d="m 223.211,58.938 4.965,-1.526 11.24,15.925 -4.599,1.415 -2.11,-3.245 -5.883,1.807 0.095,3.863 -4.07,1.249 0.362,-19.488 z m 7.557,9.597 -4.175,-6.851 -0.06,0.018 0.248,8.057 3.987,-1.224 z"
   id="path321"
   inkscape:connector-curvature="0"
   style="fill:#003162" />
		<path
   d="m 239.716,58.135 -4.566,1.045 -0.817,-3.578 13.429,-3.075 0.817,3.577 -4.668,1.069 3.313,14.481 -4.194,0.96 -3.314,-14.479 z"
   id="path323"
   inkscape:connector-curvature="0"
   style="fill:#003162" />
		<path
   d="m 251.208,51.973 11.41,-1.732 0.532,3.501 -7.241,1.099 0.577,3.804 6.821,-1.035 0.529,3.5 -6.82,1.034 0.595,3.906 7.41,-1.124 0.539,3.551 -11.578,1.756 -2.774,-18.26 z"
   id="path325"
   inkscape:connector-curvature="0"
   style="fill:#003162" />
		<path
   d="m 271.647,61.999 c 0.077,0.742 0.273,2.863 2.8,2.678 0.362,-0.029 2.272,-0.167 2.12,-2.265 -0.063,-0.872 -0.403,-1.438 -1.447,-1.695 l -3.844,-0.902 c -1.086,-0.253 -3.89,-0.924 -4.174,-4.788 -0.218,-2.996 1.447,-5.92 6.035,-6.256 5.988,-0.436 6.528,3.458 6.694,5.429 l -4.311,0.313 c -0.041,-0.561 -0.165,-2.559 -2.205,-2.41 -1.231,0.091 -1.955,0.992 -1.875,2.092 0.099,1.357 1.057,1.621 1.688,1.782 l 2.933,0.684 c 2.086,0.491 4.561,1.083 4.85,4.997 0.3,4.12 -2.498,6.177 -6.34,6.457 -1.593,0.116 -4.184,-0.003 -5.726,-1.792 -1.232,-1.401 -1.387,-3.217 -1.466,-4.008 l 4.268,-0.316 z"
   id="path327"
   inkscape:connector-curvature="0"
   style="fill:#003162" />
		<path
   d="m 319.719,56.805 c 0.063,-1.882 -0.918,-2.716 -2.12,-2.882 -2.552,-0.35 -3.724,2.362 -4.185,5.718 -0.153,1.12 -0.767,5.747 2.504,6.198 2.234,0.307 2.735,-1.619 2.918,-2.318 l 4.389,0.604 c -0.813,5.741 -5.727,5.556 -7.709,5.283 -1.479,-0.202 -4.051,-0.867 -5.448,-3.235 -1.373,-2.362 -1.268,-5.326 -1.005,-7.234 0.346,-2.516 1.177,-4.963 2.881,-6.724 1.854,-1.921 3.934,-2.204 6.152,-1.898 2.466,0.338 4.245,1.308 5.238,2.998 1.007,1.743 0.802,3.399 0.728,4.087 l -4.343,-0.597 z"
   id="path329"
   inkscape:connector-curvature="0"
   style="fill:#003162" />
		<path
   d="m 330.105,54.744 c 2.418,-1.869 5.326,-1.407 6.428,-1.157 5.976,1.377 6.404,6.92 5.394,11.324 -1.658,7.199 -6.396,8.427 -9.964,7.605 -3.985,-0.916 -7.091,-4.419 -5.545,-11.144 0.276,-1.201 1.269,-4.764 3.687,-6.628 z m 2.744,14.107 c 2.967,0.684 4.227,-2.502 4.8,-5.004 0.581,-2.523 0.367,-3.888 0.096,-4.795 -0.371,-1.137 -1.278,-1.663 -2.193,-1.87 -2.737,-0.631 -4.137,2.049 -4.848,5.147 -0.665,2.875 -0.614,5.887 2.145,6.522 z"
   id="path331"
   inkscape:connector-curvature="0"
   style="fill:#003162" />
		<path
   d="m 352.049,58.302 4.939,1.606 0.041,19.493 -4.576,-1.49 0.136,-3.865 -5.85,-1.905 -2.144,3.215 -4.05,-1.318 11.504,-15.736 z m 0.667,12.195 0.522,-8.006 -0.062,-0.017 -4.43,6.732 3.97,1.291 z"
   id="path333"
   inkscape:connector-curvature="0"
   style="fill:#003162" />
		<path
   d="m 364.291,76.093 c -0.265,0.693 -1.056,2.674 1.279,3.656 0.333,0.143 2.098,0.886 2.917,-1.051 0.337,-0.803 0.297,-1.464 -0.518,-2.168 l -3.016,-2.552 c -0.853,-0.72 -3.044,-2.591 -1.54,-6.163 1.167,-2.764 3.981,-4.612 8.219,-2.825 5.533,2.333 4.244,6.049 3.495,7.877 l -3.982,-1.679 c 0.22,-0.52 1.018,-2.354 -0.866,-3.151 -1.139,-0.479 -2.193,-0.005 -2.625,1.009 -0.527,1.254 0.207,1.925 0.697,2.355 l 2.3,1.945 c 1.633,1.385 3.572,3.037 2.045,6.654 -1.604,3.806 -5.029,4.366 -8.58,2.868 -1.471,-0.621 -3.726,-1.905 -4.284,-4.198 -0.462,-1.811 0.229,-3.497 0.515,-4.238 l 3.944,1.661 z"
   id="path335"
   inkscape:connector-curvature="0"
   style="fill:#003162" />
		<path
   d="m 382.897,74.721 -4.164,-2.147 1.683,-3.261 12.242,6.317 -1.68,3.261 -4.259,-2.199 -6.81,13.201 -3.824,-1.972 6.812,-13.2 z"
   id="path337"
   inkscape:connector-curvature="0"
   style="fill:#003162" />
		<path
   d="m 422.547,103.022 c 1.032,-1.64 0.399,-2.851 -0.51,-3.59 -2.264,-1.844 -5.031,-0.129 -6.992,2.279 -2.736,3.364 -2.352,6.023 -0.354,7.653 0.61,0.497 1.303,0.894 2.026,1.253 l 2.27,-2.787 -2.526,-2.057 2.22,-2.726 5.63,4.584 -6.252,7.68 c -2.141,-0.913 -4.15,-2.052 -5.916,-3.492 -1.29,-1.049 -2.877,-2.739 -3.243,-5.124 -0.401,-2.609 0.752,-5.44 2.616,-7.728 1.406,-1.732 3.798,-3.789 6.428,-4.257 2.734,-0.456 5.058,0.94 6.496,2.109 1.866,1.518 3.011,3.246 2.997,5.219 -0.031,1.794 -0.989,3.001 -1.538,3.71 l -3.352,-2.726 z"
   id="path339"
   inkscape:connector-curvature="0"
   style="fill:#003162" />
		<path
   d="m 436.167,107.772 -7.702,7.86 c -0.702,0.716 -1.372,1.493 -1.61,2.34 -0.309,1.136 0.064,2.184 0.813,2.914 1.931,1.894 4.04,0.26 5.332,-1.06 l 7.577,-7.731 2.968,2.906 -7.509,7.658 c -1.438,1.466 -3.166,2.897 -4.8,3.196 -2.609,0.531 -4.878,-1.078 -6.26,-2.435 -5.188,-5.083 -1.395,-8.982 0.725,-11.144 l 7.394,-7.517 3.072,3.013 z"
   id="path341"
   inkscape:connector-curvature="0"
   style="fill:#003162" />
		<path
   d="m 449.509,121.693 3.373,3.95 -10.142,16.646 -3.128,-3.661 2.139,-3.225 -3.996,-4.68 -3.505,1.625 -2.768,-3.239 18.027,-7.416 z m -5.799,10.748 4.625,-6.553 -0.042,-0.049 -7.294,3.43 2.711,3.172 z"
   id="path343"
   inkscape:connector-curvature="0"
   style="fill:#003162" />
		<path
   d="m 459.001,133.21 4.127,5.791 c 1.609,2.252 2.05,3.221 1.66,4.624 -0.189,0.708 -0.676,1.79 -2.309,2.95 -1.65,1.176 -2.754,1.129 -3.616,0.853 -1.17,-0.367 -1.82,-1.056 -2.131,-1.357 l -0.082,0.061 c 1.647,2.486 0.451,3.548 -1.671,5.478 -0.938,0.851 -2.444,2.188 -3.297,3.24 L 449,151.086 c 0.771,-0.862 1.856,-1.767 3.106,-2.842 1.708,-1.452 2.338,-1.98 1.226,-3.542 l -1.039,-1.455 -5.89,4.2 -2.487,-3.485 15.085,-10.752 z m -3.991,8.101 0.927,1.299 c 0.542,0.763 0.817,1.146 1.151,1.351 0.837,0.555 1.887,0.042 2.369,-0.303 1.858,-1.324 0.894,-2.677 0.176,-3.682 l -0.927,-1.302 -3.696,2.637 z"
   id="path345"
   inkscape:connector-curvature="0"
   style="fill:#003162" />
		<path
   d="m 469.103,147.686 3.29,5.596 c 0.93,1.579 1.958,3.79 1.642,5.828 -0.459,2.914 -2.779,4.994 -5.146,6.386 -3.537,2.08 -6.697,2.676 -9.533,0.735 -1.42,-0.993 -2.368,-2.607 -2.909,-3.526 l -3.313,-5.633 15.969,-9.386 z m -10.682,11.341 0.928,1.58 c 1.457,2.427 3.637,3.245 7.349,1.06 4.847,-2.845 3.076,-5.855 2.416,-6.977 l -0.829,-1.463 -9.864,5.8 z"
   id="path347"
   inkscape:connector-curvature="0"
   style="fill:#003162" />
	</g>
	<g
   id="g349">
		<path
   d="m 182.422,350.397 c -0.254,0.7 -1,2.694 1.357,3.628 0.337,0.135 2.118,0.839 2.892,-1.12 0.322,-0.808 0.261,-1.468 -0.565,-2.152 l -3.069,-2.488 c -0.868,-0.698 -3.101,-2.525 -1.674,-6.123 1.104,-2.792 3.878,-4.7 8.152,-3.005 5.584,2.207 4.376,5.95 3.669,7.796 l -4.021,-1.593 c 0.209,-0.522 0.966,-2.378 -0.935,-3.129 -1.148,-0.457 -2.193,0.045 -2.598,1.069 -0.501,1.262 0.247,1.919 0.746,2.337 l 2.342,1.893 c 1.664,1.351 3.638,2.96 2.193,6.608 -1.522,3.839 -4.933,4.473 -8.518,3.056 -1.485,-0.59 -3.766,-1.823 -4.375,-4.103 -0.501,-1.804 0.151,-3.504 0.423,-4.252 l 3.981,1.578 z"
   id="path351"
   inkscape:connector-curvature="0"
   style="fill:#003162" />
		<path
   d="m 198.244,343.025 10.953,3.636 -1.114,3.359 -6.953,-2.309 -1.213,3.654 6.548,2.177 -1.116,3.356 -6.548,-2.172 -1.245,3.749 7.113,2.361 -1.131,3.41 -11.114,-3.693 5.82,-17.528 z"
   id="path353"
   inkscape:connector-curvature="0"
   style="fill:#003162" />
		<path
   d="m 212.036,347.566 6.493,1.674 -0.657,12.786 5.482,-11.546 6.482,1.648 -4.611,17.965 -3.898,-1.003 4.068,-15.009 -7.408,14.148 -3.711,-0.96 0.512,-16.055 -3.811,15.203 -3.567,-0.919 4.626,-17.932 z"
   id="path355"
   inkscape:connector-curvature="0"
   style="fill:#003162" />
		<path
   d="m 233.141,352.777 6.953,1.29 c 1.171,0.213 2.701,0.497 3.763,1.66 1.104,1.17 1.659,2.965 1.222,5.339 -0.592,3.202 -2.545,4.276 -3.201,4.547 -1.317,0.567 -3.139,0.231 -3.956,0.077 l -2.726,-0.479 -1.213,6.562 -4.207,-0.78 3.365,-18.216 z m 2.696,8.955 1.865,0.345 c 1.025,0.188 2.679,0.495 3.132,-1.952 0.412,-2.224 -1.053,-2.621 -2.268,-2.843 l -1.843,-0.343 -0.886,4.793 z"
   id="path357"
   inkscape:connector-curvature="0"
   style="fill:#003162" />
		<path
   d="m 248.298,355.531 11.446,1.463 -0.447,3.512 -7.267,-0.929 -0.487,3.819 6.843,0.872 -0.449,3.514 -6.844,-0.878 -0.501,3.92 7.435,0.949 -0.456,3.563 -11.616,-1.484 2.343,-18.321 z"
   id="path359"
   inkscape:connector-curvature="0"
   style="fill:#003162" />
		<path
   d="m 262.818,357.259 7.094,0.501 c 2.763,0.194 3.787,0.472 4.62,1.663 0.429,0.596 0.952,1.66 0.813,3.659 -0.144,2.018 -0.884,2.843 -1.646,3.329 -1.03,0.671 -1.974,0.736 -2.404,0.783 l -0.007,0.101 c 2.968,0.312 3.025,1.911 3.166,4.774 0.059,1.265 0.131,3.276 0.402,4.607 l -4.611,-0.324 c -0.177,-1.144 -0.184,-2.559 -0.215,-4.208 -0.035,-2.239 -0.042,-3.064 -1.953,-3.197 l -1.783,-0.129 -0.51,7.217 -4.272,-0.298 1.306,-18.478 z m 3.711,8.234 1.592,0.111 c 0.936,0.067 1.403,0.103 1.773,-0.028 0.961,-0.29 1.233,-1.428 1.275,-2.017 0.158,-2.28 -1.496,-2.396 -2.729,-2.483 l -1.594,-0.116 -0.317,4.533 z"
   id="path361"
   inkscape:connector-curvature="0"
   style="fill:#003162" />
		<path
   d="m 286.929,358.366 7.068,-0.037 c 1.191,-0.009 2.746,-0.017 4.007,0.927 1.305,0.94 2.187,2.605 2.201,5.018 0.018,3.255 -1.7,4.676 -2.296,5.065 -1.187,0.803 -3.038,0.812 -3.87,0.816 l -2.768,0.041 0.038,6.669 -4.277,0.025 -0.103,-18.524 z m 4.325,8.291 1.897,-0.012 c 1.041,-0.006 2.722,-0.014 2.709,-2.505 -0.016,-2.258 -1.526,-2.377 -2.76,-2.369 l -1.874,0.01 0.028,4.876 z"
   id="path363"
   inkscape:connector-curvature="0"
   style="fill:#003162" />
		<path
   d="m 305.737,357.83 5.182,-0.383 7.412,18.028 -4.8,0.354 -1.335,-3.634 -6.138,0.453 -0.767,3.787 -4.246,0.31 4.692,-18.915 z m 5.232,11.037 -2.545,-7.608 -0.063,0.004 -1.553,7.911 4.161,-0.307 z"
   id="path365"
   inkscape:connector-curvature="0"
   style="fill:#003162" />
		<path
   d="m 318.884,356.73 7.049,-0.965 c 2.741,-0.372 3.804,-0.311 4.863,0.681 0.541,0.496 1.271,1.435 1.539,3.416 0.276,2.008 -0.281,2.966 -0.925,3.599 -0.868,0.868 -1.78,1.122 -2.193,1.259 l 0.014,0.097 c 2.971,-0.299 3.353,1.252 4.075,4.028 0.32,1.225 0.801,3.181 1.338,4.426 l -4.58,0.626 c -0.406,-1.083 -0.701,-2.469 -1.071,-4.073 -0.492,-2.186 -0.666,-2.991 -2.565,-2.735 l -1.771,0.246 0.977,7.17 -4.242,0.575 -2.508,-18.35 z m 5.316,7.299 1.586,-0.215 c 0.926,-0.127 1.39,-0.193 1.729,-0.394 0.882,-0.479 0.911,-1.653 0.833,-2.237 -0.309,-2.261 -1.954,-2.038 -3.179,-1.869 l -1.581,0.218 0.612,4.497 z"
   id="path367"
   inkscape:connector-curvature="0"
   style="fill:#003162" />
		<path
   d="m 339.6,353.511 5.093,-1.035 9.628,16.945 -4.714,0.956 -1.784,-3.433 -6.031,1.225 -0.283,3.853 -4.173,0.848 2.264,-19.359 z m 6.583,10.284 -3.484,-7.224 -0.063,0.013 -0.542,8.042 4.089,-0.831 z"
   id="path369"
   inkscape:connector-curvature="0"
   style="fill:#003162" />
		<path
   d="m 354.996,353.852 -4.533,1.175 -0.925,-3.551 13.338,-3.463 0.919,3.552 -4.636,1.206 3.732,14.377 -4.163,1.078 -3.732,-14.374 z"
   id="path371"
   inkscape:connector-curvature="0"
   style="fill:#003162" />
		<path
   d="m 368.876,346.138 3.408,10.466 c 0.311,0.947 0.688,1.905 1.331,2.504 0.865,0.8 1.967,0.952 2.96,0.63 2.571,-0.837 2.099,-3.463 1.528,-5.218 l -3.354,-10.296 3.947,-1.287 3.321,10.199 c 0.635,1.952 1.104,4.146 0.613,5.734 -0.734,2.56 -3.213,3.824 -5.055,4.428 -6.903,2.247 -8.608,-2.919 -9.545,-5.796 l -3.247,-10.034 4.093,-1.33 z"
   id="path373"
   inkscape:connector-curvature="0"
   style="fill:#003162" />
		<path
   d="m 389.753,352.206 c 0.298,0.68 1.12,2.648 3.477,1.713 0.335,-0.131 2.116,-0.839 1.343,-2.797 -0.321,-0.806 -0.817,-1.245 -1.89,-1.183 l -3.939,0.295 c -1.111,0.082 -3.988,0.284 -5.416,-3.321 -1.104,-2.792 -0.392,-6.078 3.882,-7.775 5.585,-2.211 7.268,1.347 8.014,3.17 l -4.017,1.598 c -0.209,-0.524 -0.927,-2.396 -2.827,-1.645 -1.147,0.456 -1.567,1.537 -1.162,2.559 0.502,1.265 1.496,1.23 2.146,1.197 l 3.004,-0.225 c 2.137,-0.16 4.674,-0.339 6.122,3.312 1.521,3.839 -0.532,6.639 -4.111,8.06 -1.489,0.586 -3.994,1.249 -6.001,0.005 -1.596,-0.969 -2.287,-2.654 -2.601,-3.385 l 3.976,-1.578 z"
   id="path375"
   inkscape:connector-curvature="0"
   style="fill:#003162" />
	</g>
	<g
   id="g377">
		<path
   d="m 261.409,388.549 c -1.443,1.215 -3.609,2.031 -4.459,2.229 l 0.403,-4.646 c 2.071,-0.581 3.283,-1.145 5.303,-2.915 l 4.06,0.351 -1.824,20.951 -4.836,-0.422 1.353,-15.548 z"
   id="path379"
   inkscape:connector-curvature="0"
   style="fill:#003162" />
		<path
   d="m 270.982,384.018 13.851,0.498 -0.154,4.241 -7.16,16.445 -5.605,-0.198 7.813,-16.397 -8.897,-0.316 0.152,-4.273 z"
   id="path381"
   inkscape:connector-curvature="0"
   style="fill:#003162" />
		<path
   d="m 292.453,400.001 c 0.05,1.183 0.95,2.073 2.357,2.043 2.667,-0.059 2.935,-2.729 2.905,-6.489 -0.826,1.202 -1.914,2.193 -4.025,2.237 -2.336,0.052 -3.538,-0.711 -4.492,-1.813 -1.033,-1.22 -1.646,-2.905 -1.686,-4.814 -0.091,-4.269 2.713,-7.36 7.111,-7.451 4.625,-0.101 6.099,2.898 6.764,4.674 0.749,1.983 1.045,4.16 1.093,6.341 0.053,2.425 -0.234,5.614 -1.721,7.979 -1.578,2.516 -3.831,3.079 -5.993,3.128 -2.239,0.045 -4.287,-0.459 -5.785,-2.243 -0.978,-1.191 -1.084,-2.615 -1.153,-3.491 l 4.625,-0.101 z m 5.014,-9.167 c -0.028,-1.393 -0.65,-3.319 -2.787,-3.275 -1.86,0.041 -2.685,1.508 -2.647,3.33 0.035,1.575 0.752,3.318 2.738,3.275 1.884,-0.04 2.736,-1.45 2.696,-3.33 z"
   id="path383"
   inkscape:connector-curvature="0"
   style="fill:#003162" />
		<path
   d="m 306.964,385.987 c 1.354,-2.358 3.546,-2.989 5.126,-3.119 3.308,-0.265 4.914,1.184 5.757,2.273 1.287,1.568 2.383,3.884 2.718,8.051 0.483,6.009 -1.068,11.181 -6.63,11.629 -2.006,0.163 -4.07,-0.399 -5.52,-2.109 -2.119,-2.477 -2.696,-6.197 -2.866,-8.28 -0.16,-1.993 -0.18,-5.701 1.415,-8.445 z m 6.623,14.852 c 0.774,-0.064 1.518,-0.58 1.829,-1.396 0.621,-1.692 0.344,-5.165 0.307,-5.615 -0.086,-1.059 -0.358,-3.502 -0.834,-5.012 -0.236,-0.74 -0.751,-2.098 -2.353,-1.969 -1.404,0.111 -2.574,0.938 -2.064,7.28 0.36,4.47 1.058,6.875 3.115,6.712 z"
   id="path385"
   inkscape:connector-curvature="0"
   style="fill:#003162" />
	</g>
</g>
</svg>