<?xml version="1.0" encoding="UTF-8"?>
<svg xmlns="http://www.w3.org/2000/svg" xmlns:xlink="http://www.w3.org/1999/xlink" width="800" height="400">
<rect width="800" height="400" fill="#00247d"/>
<path id="half" fill="#fff" d="m402.064,253.359c-1.94413-1.71266-4.76494-0.23079-5.67421,1.85569-2.13862,4.47297-0.71671,9.53773-0.72991,14.2724-0.11979,4.2136,0.69074,8.72524-1.30648,12.6391-2.16887,4.96281-7.13912,8.46035-12.4524,9.16607-11.3544-1.28978-23.9852-1.8318-33.7036,5.25423,0.48218-4.62491-0.43137-9.45297-3.22939-13.2404-2.66348-4.14801-8.10236-6.08717-9.38551-11.1712-2.13563-7.81951-3.50858-17.2115,1.46853-24.2648,5.80691-8.03978,16.0809-11.6285,25.7248-11.4714,0.96669-2.43927,2.43511-5.17183,1.40179-7.81907-1.13056-1.86048-3.55298-1.86783-5.46874-1.8233-2.35787-0.0849-3.95031,1.96649-5.83498,3.06241-8.05179,5.72013-18.2456,8.01383-27.9997,6.83725-6.834-1.47643-12.5086-6.0679-17.1935-11.0536-1.62998-1.64138-2.18765-3.9363-2.96308-6.03614-4.06158-11.406-10.4418-21.7791-17.218-31.7438,9.37292-7.11731,18.4904-14.6264,26.6523-23.1253,2.17265-2.19813,3.91786-5.07505,6.92048-6.23206,5.92616-2.58583,12.7191-2.97667,18.9732-1.46618,2.69761,0.85941,5.78692,1.50642,7.5987,3.89039,8.48621,10.2349,17.0172,20.4346,25.5146,30.6605,1.59214,2.03653,4.24623,3.17781,6.82299,2.82482,2.61886-1.81773,2.57202-6.23684,0.33967-8.35275-9.20389-10.915-18.2376-21.9725-27.4367-32.8911-2.77048-3.15131-3.49048-7.49078-3.99659-11.5149-0.99055-8.41348,4.79882-16.968,12.9297-19.2495,4.60016-1.57486,8.58127-4.47732,12.3856-7.4312,9.469-7.567,17.67-16.548,25.795-25.5007l10,12.5078-10,12.5078c-6.07019,7.66524-13.2636,14.5957-21.9787,19.18-3.0342,1.75542-6.97388,2.70284-8.60969,6.13488-1.61427,2.62926-1.05364,6.04605,0.96064,8.29108,7.66839,8.60153,14.8844,17.5974,22.4045,26.3301,8.08839,8.64096,8.02836,23.2819,0.42302,32.1997-4.28738,4.18065-10.7279,4.14496-16.3142,3.88066-7.72956-0.39413-14.6681-4.76838-19.569-10.5671-6.06461-6.87485-12.144-13.737-18.1557-20.6575-0.79326-0.7329-1.45444-1.97408-2.69309-1.8958-5.02497-0.0799-10.2543,0.63526-14.6042,3.31573-4.05194,2.48107-7.42141,6.21501-9.27209,10.604,0.0289,8.43935,3.55846,16.6316,8.6834,23.2407,1.87089,2.70038,4.99693,4.113,8.03232,5.0782,2.84681,0.71897,6.37972,0.91328,8.57998-1.40088,3.68702-3.67396,8.01773-7.21899,13.3335-7.99093,6.40938-0.54527,13.1066,0.33036,18.8281,3.40382,4.62113,2.4827,7.48846,7.11162,9.95097,11.5673,3.57054,6.70369,3.7801,15.5359-0.95627,21.737-1.64552,2.20251-4.40014,3.34886-7.12665,3.05363-3.88287,0.14865-6.76701-3.58755-10.7205-2.92804-6.39329,0.72744-13.7414,6.92324-11.1907,13.942,2.10491,5.18464,5.89325,9.46727,8.92602,14.1253,5.14409-0.0216,10.2909,0.0908,15.4345-0.0241,2.88044,0.01,5.90495-1.99129,6.19067-5.02337,0.84412-5.64993,0.59025-11.3874,0.65937-17.0797,0.0631-4.28701,1.20276-8.84033,4.30114-11.9625,2.79206-2.78892,6.88356-3.29896,10.4746-4.47605,1.81647-0.40449,3.68425-1.50848,5.55533-0.73742z"/>
<use xlink:href="#half" transform="matrix(-1,0,0,1,800,0)"/>
</svg>
