<?xml version="1.0" encoding="UTF-8" standalone="no"?>
<!-- Created with Inkscape (http://www.inkscape.org/) -->

<svg
   xmlns:dc="http://purl.org/dc/elements/1.1/"
   xmlns:cc="http://creativecommons.org/ns#"
   xmlns:rdf="http://www.w3.org/1999/02/22-rdf-syntax-ns#"
   xmlns:svg="http://www.w3.org/2000/svg"
   xmlns="http://www.w3.org/2000/svg"
   xmlns:sodipodi="http://sodipodi.sourceforge.net/DTD/sodipodi-0.dtd"
   xmlns:inkscape="http://www.inkscape.org/namespaces/inkscape"
   width="600"
   height="400"
   id="svg2"
   sodipodi:version="0.32"
   inkscape:version="0.48.1 "
   version="1.0"
   sodipodi:docname="ZZ1.svg"
   inkscape:output_extension="org.inkscape.output.svg.inkscape">
  <defs
     id="defs4" />
  <sodipodi:namedview
     id="base"
     pagecolor="#ffffff"
     bordercolor="#666666"
     borderopacity="1.0"
     gridtolerance="10000"
     guidetolerance="10"
     objecttolerance="10"
     inkscape:pageopacity="0.0"
     inkscape:pageshadow="2"
     inkscape:zoom="2"
     inkscape:cx="192.65748"
     inkscape:cy="177.00172"
     inkscape:document-units="px"
     inkscape:current-layer="g2377"
     height="400px"
     width="600px"
     showguides="true"
     inkscape:guide-bbox="true"
     inkscape:window-width="1280"
     inkscape:window-height="1004"
     inkscape:window-x="-8"
     inkscape:window-y="-8"
     showgrid="false"
     inkscape:window-maximized="1" />
  <metadata
     id="metadata7">
    <rdf:RDF>
      <cc:Work
         rdf:about="">
        <dc:format>image/svg+xml</dc:format>
        <dc:type
           rdf:resource="http://purl.org/dc/dcmitype/StillImage" />
      </cc:Work>
    </rdf:RDF>
  </metadata>
  <g
     inkscape:label="Layer 1"
     inkscape:groupmode="layer"
     id="layer1">
    <g
       id="g2377"
       transform="matrix(1.6561403,0,0,1.6561403,-224.76512,-417.9215)">
      <rect
         style="fill:#39ad00;fill-opacity:1;fill-rule:nonzero;stroke:none;stroke-width:10;stroke-linejoin:round;stroke-miterlimit:4;stroke-dasharray:none;stroke-opacity:1"
         id="rect2394"
         width="362.28815"
         height="241.52544"
         x="135.71623"
         y="252.34666" />
      <g
         id="g2388"
         transform="matrix(1.06,0,0,1.06,-7.5352044,-21.439674)">
        <path
           id="path2385"
           d="M 202.18901,369.88042 C 209.0339,361.5321 210.00746,358.68227 205.12118,361.29733 C 204.02685,361.883 201.3019,362.36218 199.06574,362.36218 C 195.54346,362.36218 195,362.06811 195,360.16218 C 195,358.45107 194.73333,358.22885 193.8,359.16218 C 193.14,359.82218 191.10643,360.36218 189.28095,360.36218 C 186.18644,360.36218 186.00708,360.18216 186.62975,357.70125 C 187.28877,355.07551 187.26624,355.06229 184.92629,356.70125 C 183.62207,357.61476 181.25503,358.36218 179.6662,358.36218 C 176.87033,358.36218 176.79992,358.24157 177.47712,354.61218 L 178.17681,350.86218 L 175.77396,353.11218 C 173.1997,355.52268 168,356.18712 168,354.10558 C 168,353.41445 168.41859,351.38945 168.93019,349.60558 C 169.67001,347.02598 169.56768,346.36218 168.43019,346.36218 C 165.44625,346.36218 167.7764,339.93611 171.95411,336.64398 C 173.30538,335.57915 173.24192,335.42178 171.45,335.39398 C 168.9093,335.35457 167,333.53888 167,331.16218 C 167,330.03811 167.73961,329.36218 168.96958,329.36218 C 170.05285,329.36218 172.54154,328.46218 174.5,327.36218 C 176.45846,326.26218 178.4961,325.36218 179.0281,325.36218 C 179.5601,325.36218 182.18766,323.78718 184.86712,321.86218 C 188.9095,318.95802 190.6059,318.36218 194.83192,318.36218 C 201.77262,318.36218 210.19267,321.67865 213.86188,325.85766 C 216.2243,328.54829 217.06998,328.98279 217.92927,327.9474 C 219.77352,325.72522 214.32577,314.96964 207.55904,307.4733 C 204.52921,304.11678 204.52387,304.09124 207,304.79871 C 208.375,305.19157 211.50139,305.93208 213.94752,306.44429 C 220.0832,307.72907 225.20184,309.53186 227.07874,311.06912 C 234.74154,315.28633 236.08207,325.1343 237,333.32163 C 237,336.86182 241.54466,339.21142 244.90927,337.41074 C 247.43869,336.05704 247.53796,333.64526 245.32118,327.40377 C 243.67918,322.78063 243.69194,322.5967 245.90264,319.01972 C 248.70062,314.49248 258.44114,308.60604 265.28099,307.30889 C 273.68111,305.71584 292.50983,306.12014 296.78212,307.9853 L 300.5,309.60842 L 297.37576,310.4813 C 293.70244,311.5076 290.74611,314.36218 293.35656,314.36218 C 296.39233,314.36218 307.92467,318.62146 309.44877,320.30557 C 310.28888,321.23389 311.27191,323.47172 311.63327,325.27854 L 312.2903,328.56366 L 309.19481,326.96292 C 307.49229,326.08251 305.06447,325.3907 303.79966,325.42557 L 301.5,325.48895 L 303.6917,326.37178 C 308.37293,328.25739 310.76977,336.311 306.25493,334.98445 C 305.28972,334.70085 302.7,334.15859 300.5,333.77942 L 296.5,333.09003 L 299.45646,335.86969 L 302.41291,338.64936 L 297.58709,340.18954 C 293.44912,341.5102 293.06336,341.84147 294.88064,342.51373 C 297.85937,343.61563 297.61507,346.99099 294.5,347.77282 C 286.63566,353.70351 281.09037,374.8979 273.82669,379.75829 C 266.56302,384.61868 257.58097,373.14506 250.08888,372.91346 C 241.80612,372.65742 237.74916,375.62464 238.92455,383.57454 C 239.8018,389.50791 218.05949,394.32348 200.37757,392.52343"
           style="fill:#ffce10;fill-opacity:1"
           sodipodi:nodetypes="csssssssscccssssssssssssssssccsssscccssccccccscccccscsssc" />
        <path
           id="path2383"
           d="M 224.46896,334.54249 C 219.4765,331.77483 216.94985,329.12753 218.04331,327.81 C 219.76813,325.73171 214.07896,314.69623 207.55904,307.4733 C 204.53107,304.11884 204.5254,304.09178 207,304.80868 C 208.375,305.20702 211.975,306.04926 215,306.68033 C 219.86919,307.69612 220.12725,307.86564 217.25,308.15831 C 215.34519,308.35207 214,309.04968 214,309.84375 C 214.08791,316.49712 222.40159,314.98013 225.05945,319.86218 C 226.77068,321.05932 226.68693,324.50644 227.8924,326.51609 C 229.83928,329.76176 229.9398,330.50812 228.79208,333.1964 L 227.5,336.2228 L 224.46896,334.54249 z "
           style="fill:#00bdbd;fill-opacity:1"
           sodipodi:nodetypes="csssssccsccc" />
        <path
           id="path2381"
           d="M 211.5,454.33583 C 206.01759,453.22945 201.23472,451.22233 202.74433,450.66154 C 203.42871,450.4073 207.11754,450.91094 210.94174,451.78074 C 223.3436,454.60148 231.01042,453.66091 240.74135,448.12491 L 244.98269,445.71197 L 239.24135,444.63109 C 232.06073,443.27924 222.80264,439.83342 219.791,437.39175 C 216.16837,434.45473 218.39638,433.95604 222.77934,436.72288 C 226.54323,439.09892 236.95397,442.60719 243.51873,443.71175 C 245.53094,444.05032 247.34943,443.60721 248.97268,442.38278 L 251.4079,440.54589 L 246.45395,439.84322 C 240.89862,439.05524 234.38341,436.48344 229.95601,433.33086 C 228.33021,432.17318 227,431.70663 227,432.29409 C 227,432.88154 226.14662,433.36218 225.10359,433.36218 C 222.91588,433.36218 218.94383,429.09965 214.14575,421.60297 C 212.30092,418.72054 210.18894,416.36218 209.45246,416.36218 C 206.49389,416.36218 205,412.09353 205,403.63967 C 205,395.40643 204.37674,393.99838 202,396.86218 C 201.31531,397.68718 200.36021,398.36218 199.87756,398.36218 C 198.58937,398.36218 198.80773,381.34772 200.17175,375.43847 C 201.52488,369.57638 203.51221,368.50288 202.62706,374.11218 C 201.09369,383.82929 200.76357,390.36218 201.80593,390.36218 C 202.39979,390.36218 204.51297,389.40205 206.50188,388.22857 C 209.5437,386.43385 210.5245,386.28013 212.67679,387.26078 C 214.79079,388.22398 215.95367,388.08493 219.36774,386.46073 C 222.28291,385.07387 224.8254,384.63132 228,384.9582 C 235.51556,385.73204 239.95597,380.11851 235.90351,374.96665 C 233.58498,372.01911 233.7595,370.94893 236.39386,371.95982 C 240.4969,373.53431 242.09029,383.12851 240.35335,395.80089 C 239.81163,399.75317 239.40595,400.4401 237.85335,400.03408 C 235.07497,399.30752 235.56483,401.26693 240,408.62054 C 242.2,412.26819 244,415.50228 244,415.80741 C 244,416.11253 243.1,416.36218 242,416.36218 C 240.9,416.36218 240,416.93465 240,417.63434 C 240,419.63483 245.30734,425.54602 250.33695,429.14739 L 254.92502,432.4326 L 257.42359,428.64739 C 262.62593,420.76609 264.48613,402.48778 260.96371,393.86218 C 255.47136,380.41268 254.81635,379.27825 248.87793,372.93041 L 243.25587,366.92073 L 242.54848,370.14145 C 241.85667,373.29126 240.65868,374.23696 239.57717,372.48704 C 239.14954,371.79513 241.57494,362.77627 242.51033,361.58004 C 242.63167,361.42486 244.81649,361.85569 247.36548,362.53744 C 252.81826,363.99584 254.04451,366.93763 248.75,365.85895 C 245.50363,365.19754 245.50614,365.20285 251,370.61339 C 255.53118,375.07586 256.61744,375.73127 257.16668,374.3342 C 258.17316,371.7741 262.97268,368.36218 265.56747,368.36218 C 269.83212,368.36218 269.55335,364.87723 264.84172,359.28952 L 260.55296,354.2033 L 259.69315,356.78274 C 259.22025,358.20143 258.14769,359.36218 257.30968,359.36218 C 256.33115,359.36218 256.00319,358.79626 256.39301,357.78039 C 256.72686,356.91041 257.00689,355.22291 257.01531,354.03039 C 257.04618,349.65937 258.23565,349.06171 264.36957,350.3351 C 270.52497,351.61296 272.38189,354.01039 266.47363,353.05161 L 262.94725,352.47936 L 264.8657,355.17077 C 268.62241,360.4411 270.80788,361.8153 273.78028,360.77617 C 275.6597,360.11913 276.59466,359.01352 276.80639,357.19773 C 277.34306,352.59522 280.15978,351.09058 288.99404,350.68735 C 296.04367,350.36557 297.60906,350.6326 302.24406,352.94756 C 307.92056,355.7827 314,360.98568 314,363.00866 C 314,363.69844 313.28945,364.66045 312.42099,365.14646 C 311.19425,365.83298 311.91929,366.43159 315.67099,367.82972 C 323.85588,370.87995 331,377.06275 331,381.09605 C 331,383.27481 330.71677,383.40095 327.25,382.76622 C 323.64071,382.10539 323.56128,382.15059 325.13313,383.9709 C 328.20141,387.5242 332,397.01752 332,401.13238 C 332,409.88065 329.94417,415.06122 323.0685,423.63924 C 314.81392,433.93756 313.48429,434.34343 312.70598,426.80238 C 312.38522,423.69446 311.88864,420.91749 311.60249,420.63133 C 311.31633,420.34517 309.8987,421.51755 308.4522,423.23661 C 305.47204,426.77834 302,427.42864 302,424.44509 C 302,422.69275 298.49772,413.52657 297.41416,412.443 C 297.16107,412.18992 296.26383,412.9682 295.4203,414.17251 C 293.45746,416.97485 292.22318,416.95417 291.81955,414.11218 C 291.33981,410.73425 289.73298,411.40368 288.81917,415.36218 C 286.70156,424.53548 280.85402,434.97205 275.45037,439.22256 C 271.34805,442.44945 262.15685,445.46621 254.50124,446.09854 C 249.62068,446.50166 246.36151,447.39187 243.74137,449.0375 C 234.2787,454.98068 223.48495,456.75446 211.5,454.33583 z M 262.28946,442.875 C 270.25961,440.79904 275.5049,437.17499 279.43773,431.02697 C 284.51251,423.09383 286.12685,418.48547 286.17706,411.7887 L 286.2226,405.71522 L 280.3613,399.81563 C 277.13759,396.57086 273.97269,394.02808 273.32819,394.165 C 272.6837,394.30192 270.6587,392.53784 268.82819,390.24483 C 264.61317,384.96481 256.71614,376.53944 257.22203,377.86218 C 257.43239,378.41218 259.03191,381.86428 260.77654,385.53351 C 263.35089,390.94782 264.0733,393.97929 264.61055,401.62223 C 265.35398,412.19835 263.37507,423.91729 259.83156,429.9231 C 257.55618,433.77957 258.05882,435.36218 261.55902,435.36218 C 264.51536,435.36218 264.83282,437.8461 262.06574,439.327 C 261.0019,439.89635 258.76773,440.36218 257.10093,440.36218 C 255.09382,440.36218 253.70889,441.0376 253,442.36218 C 252.07229,444.09563 252.23951,444.36218 254.25472,444.36218 C 255.53351,444.36218 259.14915,443.69295 262.28946,442.875 z M 217.62018,323.36218 C 216.40915,319.73331 211.13921,311.39565 207.57739,307.4733 C 204.53954,304.12796 204.53212,304.09373 207,304.80868 C 208.375,305.20702 211.975,306.04926 215,306.68033 C 219.86919,307.69612 220.12725,307.86564 217.25,308.15831 C 213.25916,308.56425 213.13098,310.02316 216.57047,315.89221 C 218.14133,318.57268 219.00746,321.36409 218.79771,323.07028 L 218.45448,325.86218 L 217.62018,323.36218 z M 221.44615,319.27505 C 220.41563,317.60763 222.73336,315.69554 224.11287,317.07505 C 225.26679,318.22897 224.54459,320.36218 223,320.36218 C 222.51492,320.36218 221.81569,319.87297 221.44615,319.27505 z "
           style="fill:#ce1021;fill-opacity:1" />
        <path
           id="path2379"
           d="M 211.5,454.33583 C 206.01759,453.22945 201.23472,451.22233 202.74433,450.66154 C 203.42871,450.4073 207.11754,450.91094 210.94174,451.78074 C 223.3436,454.60148 231.01042,453.66091 240.74135,448.12491 L 244.98269,445.71197 L 239.24135,444.63109 C 232.06073,443.27924 222.80264,439.83342 219.791,437.39175 C 216.16837,434.45473 218.39638,433.95604 222.77934,436.72288 C 226.54323,439.09892 236.95397,442.60719 243.51873,443.71175 C 245.53094,444.05032 247.34943,443.60721 248.97268,442.38278 L 251.4079,440.54589 L 246.45395,439.84322 C 240.89862,439.05524 234.38341,436.48344 229.95601,433.33086 C 228.33021,432.17318 227,431.70663 227,432.29409 C 227,432.88154 226.14662,433.36218 225.10359,433.36218 C 222.91588,433.36218 218.94383,429.09965 214.14575,421.60297 C 212.30092,418.72054 210.18894,416.36218 209.45246,416.36218 C 206.49389,416.36218 205,412.09353 205,403.63967 C 205,395.40643 204.37674,393.99838 202,396.86218 C 201.31531,397.68718 200.36021,398.36218 199.87756,398.36218 C 198.58937,398.36218 198.80773,381.34772 200.17175,375.43847 C 201.52486,369.57645 203.53036,368.48018 202.59804,374.11218 C 202.25661,376.17468 201.69707,381.64866 201.3546,386.27657 L 200.73194,394.69097 L 204.11597,392.59834 L 207.5,390.5057 L 207.15256,399.96075 C 206.87661,407.47006 207.14289,409.93131 208.44649,411.92086 C 209.34925,413.29864 210.47754,414.18508 210.95382,413.89072 C 211.43009,413.59637 213.71738,416.16953 216.03668,419.60886 C 221.94498,428.37039 224.17334,430.69283 225.16532,429.12288 C 225.78353,428.14447 226.6939,428.29103 229.23095,429.77738 C 241.33681,436.86972 242.76501,437.40683 251.15569,438.02284 L 259.5,438.63545 L 252.5,433.89431 C 243.66325,427.90914 238.06971,421.79631 238.02984,418.0808 C 238.0133,416.53895 238.65238,415.04907 239.46386,414.73768 C 240.62205,414.29323 240.20445,413.10195 237.46386,409.03241 C 234.82216,405.10971 234,402.84927 234,399.5089 C 234,395.69889 234.24712,395.19354 235.89901,395.62552 C 238.13181,396.20941 239,393.20005 239,384.87673 C 239,380.91423 238.38013,378.72784 236.45058,375.88449 C 233.7255,371.86887 233.71195,370.93068 236.39386,371.95982 C 240.4969,373.53431 242.09029,383.12851 240.35335,395.80089 C 239.81163,399.75317 239.40595,400.4401 237.85335,400.03408 C 235.07497,399.30752 235.56483,401.26693 240,408.62054 C 242.2,412.26819 244,415.50228 244,415.80741 C 244,416.11253 243.1,416.36218 242,416.36218 C 240.9,416.36218 240,416.93465 240,417.63434 C 240,419.63483 245.30734,425.54602 250.33695,429.14739 L 254.92502,432.4326 L 257.42359,428.64739 C 262.62593,420.76609 264.48613,402.48778 260.96371,393.86218 C 255.47136,380.41268 254.81635,379.27825 248.87793,372.93041 L 243.25587,366.92073 L 242.54848,370.14145 C 241.85667,373.29126 240.65868,374.23696 239.57717,372.48704 C 239.14954,371.79513 241.57494,362.77627 242.51033,361.58004 C 242.63167,361.42486 244.81649,361.85569 247.36548,362.53744 C 252.81826,363.99584 254.04451,366.93763 248.75,365.85895 C 245.50216,365.19724 245.50365,365.20041 251,370.62849 C 254.025,373.61592 257.07926,375.84855 257.78725,375.5899 C 259.44558,374.98405 262.16486,377.46398 267.68029,384.61218 C 270.93525,388.83072 272.76718,390.36218 274.55845,390.36218 C 275.9013,390.36218 277,390.81088 277,391.3593 C 277,392.53377 283.90695,400.36218 284.94317,400.36218 C 286.11586,400.36218 284.95837,394.14726 282.96161,389.72253 C 281.93415,387.44572 280.7782,384.29572 280.39283,382.72253 C 279.40909,378.70659 274.61178,370.39951 270.9153,366.31113 C 269.20021,364.41421 266.172,360.89911 264.18594,358.49981 L 260.57491,354.13744 L 259.70412,356.74981 C 259.22519,358.18661 258.14769,359.36218 257.30968,359.36218 C 256.33115,359.36218 256.00319,358.79626 256.39301,357.78039 C 256.72686,356.91041 257.00689,355.22291 257.01531,354.03039 C 257.04618,349.65937 258.23565,349.06171 264.36957,350.3351 C 270.52497,351.61296 272.38189,354.01039 266.47363,353.05161 L 262.94725,352.47936 L 265.01294,355.17077 C 266.14906,356.65105 269.51996,360.78718 272.50383,364.36218 C 279.62058,372.88883 283.5529,380.83512 286.11256,391.86218 C 288.50007,402.14759 290.64383,407.82496 292.81709,409.61793 C 294.0204,410.61068 294.41028,410.60952 294.74595,409.61218 C 295.42184,407.60403 297.82684,408.16828 299.50442,410.72858 C 300.35721,412.03011 301.87965,415.43682 302.88763,418.29906 L 304.72031,423.50313 L 307.94418,419.43266 C 309.71731,417.19389 311.50837,415.36218 311.92431,415.36218 C 312.54053,415.36218 313.65632,419.32861 315.41249,427.76197 C 315.51554,428.25686 318.15952,425.57799 321.288,421.80892 C 326.99594,414.93222 330.01171,407.96632 329.99023,401.70827 C 329.97929,398.51987 326.28781,390.02305 322.9552,385.51546 C 320.35814,382.00275 321.0279,380.36218 325.05902,380.36218 C 326.67656,380.36218 328,379.93279 328,379.40799 C 328,377.45503 318.6538,371.41003 312.43437,369.34034 C 308.89547,368.16267 306,366.77616 306,366.25921 C 306,365.74226 307.13241,364.80334 308.51647,364.17272 L 311.03294,363.02614 L 308.76647,360.59393 C 305.65233,357.25205 295.70955,352.36218 292.02852,352.36218 C 290.36283,352.36218 289,351.91218 289,351.36218 C 289,349.39291 297.0811,350.36948 302.28324,352.96742 C 307.92603,355.78541 314,360.99079 314,363.00866 C 314,363.69844 313.28945,364.66045 312.42099,365.14646 C 311.19425,365.83298 311.91929,366.43159 315.67099,367.82972 C 323.85588,370.87995 331,377.06275 331,381.09605 C 331,383.27481 330.71677,383.40095 327.25,382.76622 C 323.64071,382.10539 323.56128,382.15059 325.13313,383.9709 C 328.20141,387.5242 332,397.01752 332,401.13238 C 332,409.88065 329.94417,415.06122 323.0685,423.63924 C 314.81392,433.93756 313.48429,434.34343 312.70598,426.80238 C 312.38522,423.69446 311.88864,420.91749 311.60249,420.63133 C 311.31633,420.34517 309.8987,421.51755 308.4522,423.23661 C 305.47204,426.77834 302,427.42864 302,424.44509 C 302,422.69275 298.49772,413.52657 297.41416,412.443 C 297.16107,412.18992 296.26383,412.9682 295.4203,414.17251 C 293.45746,416.97485 292.22318,416.95417 291.81955,414.11218 C 291.33981,410.73425 289.73298,411.40368 288.81917,415.36218 C 286.70156,424.53548 280.85402,434.97205 275.45037,439.22256 C 271.34805,442.44945 262.15685,445.46621 254.50124,446.09854 C 249.62068,446.50166 246.36151,447.39187 243.74137,449.0375 C 234.2787,454.98068 223.48495,456.75446 211.5,454.33583 z M 262.28946,442.875 C 270.25961,440.79904 275.5049,437.17499 279.43773,431.02697 C 284.51251,423.09383 286.12685,418.48547 286.17706,411.7887 L 286.2226,405.71522 L 280.3613,399.81563 C 277.13759,396.57086 273.97269,394.02808 273.32819,394.165 C 272.6837,394.30192 270.6587,392.53784 268.82819,390.24483 C 264.61317,384.96481 256.71614,376.53944 257.22203,377.86218 C 257.43239,378.41218 259.03191,381.86428 260.77654,385.53351 C 263.35089,390.94782 264.0733,393.97929 264.61055,401.62223 C 265.35398,412.19835 263.37507,423.91729 259.83156,429.9231 C 257.55618,433.77957 258.05882,435.36218 261.55902,435.36218 C 264.51536,435.36218 264.83282,437.8461 262.06574,439.327 C 261.0019,439.89635 258.76773,440.36218 257.10093,440.36218 C 255.09382,440.36218 253.70889,441.0376 253,442.36218 C 252.07229,444.09563 252.23951,444.36218 254.25472,444.36218 C 255.53351,444.36218 259.14915,443.69295 262.28946,442.875 z M 217.62018,323.36218 C 216.40915,319.73331 211.13921,311.39565 207.57739,307.4733 C 204.53954,304.12796 204.53212,304.09373 207,304.80868 C 208.375,305.20702 211.975,306.04926 215,306.68033 C 219.86919,307.69612 220.12725,307.86564 217.25,308.15831 C 213.25916,308.56425 213.13098,310.02316 216.57047,315.89221 C 218.14133,318.57268 219.00746,321.36409 218.79771,323.07028 L 218.45448,325.86218 L 217.62018,323.36218 z M 221.44615,319.27505 C 220.41563,317.60763 222.73336,315.69554 224.11287,317.07505 C 225.26679,318.22897 224.54459,320.36218 223,320.36218 C 222.51492,320.36218 221.81569,319.87297 221.44615,319.27505 z "
           style="fill:#000000;fill-opacity:1;stroke:none" />
      </g>
    </g>
  </g>
</svg>
