<?xml version="1.0" encoding="UTF-8" standalone="no"?>
<!-- Created with Inkscape (http://www.inkscape.org/) -->
<svg
   xmlns:svg="http://www.w3.org/2000/svg"
   xmlns="http://www.w3.org/2000/svg"
   xmlns:xlink="http://www.w3.org/1999/xlink"
   version="1.0"
   width="1200"
   height="600"
   id="svg1399">
  <defs
     id="defs1413" />
  <rect
     width="1200"
     height="600"
     x="0"
     y="0"
     id="rect4890"
     style="fill:#ffffff" />
  <path
     d="M 900.10154,272.67587 L 900.10154,402.02225 L 920.81131,352.00749 L 900.10154,272.67587 z"
     id="path3787"
     style="fill:#ed2939;fill-opacity:1;fill-rule:evenodd;stroke:#ffffff;stroke-width:1.17247093;stroke-linecap:butt;stroke-linejoin:miter;stroke-miterlimit:4;stroke-dasharray:none;stroke-opacity:1" />
  <path
     d="M 900.10154,272.67587 L 900.10154,402.02225 L 879.39178,352.00749 L 900.10154,272.67587 z"
     id="path4662"
     style="fill:#ed2939;fill-opacity:1;fill-rule:evenodd;stroke:#ffffff;stroke-width:1.17247093;stroke-linecap:butt;stroke-linejoin:miter;stroke-miterlimit:4;stroke-dasharray:none;stroke-opacity:1" />
  <path
     d="M 900.10154,531.36862 L 900.10154,402.02225 L 879.39178,452.037 L 900.10154,531.36862 z"
     id="path4676"
     style="fill:#ed2939;fill-opacity:1;fill-rule:evenodd;stroke:#ffffff;stroke-width:1.17247093;stroke-linecap:butt;stroke-linejoin:miter;stroke-miterlimit:4;stroke-dasharray:none;stroke-opacity:1" />
  <path
     d="M 900.10154,531.36862 L 900.10154,402.02225 L 920.81131,452.037 L 900.10154,531.36862 z"
     id="path4678"
     style="fill:#ed2939;fill-opacity:1;fill-rule:evenodd;stroke:#ffffff;stroke-width:1.17247093;stroke-linecap:butt;stroke-linejoin:miter;stroke-miterlimit:4;stroke-dasharray:none;stroke-opacity:1" />
  <path
     d="M 770.79898,402.02198 L 900.10147,402.02198 L 850.10368,381.30519 L 770.79898,402.02198 z"
     id="path4740"
     style="fill:#ed2939;fill-opacity:1;fill-rule:evenodd;stroke:#ffffff;stroke-width:1.17247093;stroke-linecap:butt;stroke-linejoin:miter;stroke-miterlimit:4;stroke-dasharray:none;stroke-opacity:1" />
  <path
     d="M 770.79898,402.02198 L 900.10147,402.02198 L 850.10368,422.73878 L 770.79898,402.02198 z"
     id="path4742"
     style="fill:#ed2939;fill-opacity:1;fill-rule:evenodd;stroke:#ffffff;stroke-width:1.17247093;stroke-linecap:butt;stroke-linejoin:miter;stroke-miterlimit:4;stroke-dasharray:none;stroke-opacity:1" />
  <path
     d="M 1029.4039,402.02198 L 900.10147,402.02198 L 950.09925,422.73878 L 1029.4039,402.02198 z"
     id="path4744"
     style="fill:#ed2939;fill-opacity:1;fill-rule:evenodd;stroke:#ffffff;stroke-width:1.17247093;stroke-linecap:butt;stroke-linejoin:miter;stroke-miterlimit:4;stroke-dasharray:none;stroke-opacity:1" />
  <path
     d="M 1029.4039,402.02198 L 900.10147,402.02198 L 950.09925,381.30519 L 1029.4039,402.02198 z"
     id="path4746"
     style="fill:#ed2939;fill-opacity:1;fill-rule:evenodd;stroke:#ffffff;stroke-width:1.17247093;stroke-linecap:butt;stroke-linejoin:miter;stroke-miterlimit:4;stroke-dasharray:none;stroke-opacity:1" />
  <path
     d="M 830.58626,471.56064 L 900.10126,402.02204 L 850.10347,422.73883 L 830.58626,471.56064 z"
     id="path4750"
     style="fill:#ed2939;fill-opacity:1;fill-rule:evenodd;stroke:#ffffff;stroke-width:1.17247093;stroke-linecap:butt;stroke-linejoin:miter;stroke-miterlimit:4;stroke-dasharray:none;stroke-opacity:1" />
  <path
     d="M 830.58626,471.56064 L 900.10126,402.02204 L 879.3915,452.03681 L 830.58626,471.56064 z"
     id="path4752"
     style="fill:#ed2939;fill-opacity:1;fill-rule:evenodd;stroke:#ffffff;stroke-width:1.17247093;stroke-linecap:butt;stroke-linejoin:miter;stroke-miterlimit:4;stroke-dasharray:none;stroke-opacity:1" />
  <path
     d="M 969.61625,332.48345 L 900.10126,402.02204 L 950.09904,381.30526 L 969.61625,332.48345 z"
     id="path4754"
     style="fill:#ed2939;fill-opacity:1;fill-rule:evenodd;stroke:#ffffff;stroke-width:1.17247093;stroke-linecap:butt;stroke-linejoin:miter;stroke-miterlimit:4;stroke-dasharray:none;stroke-opacity:1" />
  <path
     d="M 969.61625,332.48345 L 900.10126,402.02204 L 920.81101,352.00728 L 969.61625,332.48345 z"
     id="path4756"
     style="fill:#ed2939;fill-opacity:1;fill-rule:evenodd;stroke:#ffffff;stroke-width:1.17247093;stroke-linecap:butt;stroke-linejoin:miter;stroke-miterlimit:4;stroke-dasharray:none;stroke-opacity:1" />
  <path
     d="M 830.58619,332.48327 L 900.10118,402.02186 L 879.39142,352.0071 L 830.58619,332.48327 z"
     id="path4760"
     style="fill:#ed2939;fill-opacity:1;fill-rule:evenodd;stroke:#ffffff;stroke-width:1.17247093;stroke-linecap:butt;stroke-linejoin:miter;stroke-miterlimit:4;stroke-dasharray:none;stroke-opacity:1" />
  <path
     d="M 830.58619,332.48327 L 900.10118,402.02186 L 850.10339,381.30507 L 830.58619,332.48327 z"
     id="path4762"
     style="fill:#ed2939;fill-opacity:1;fill-rule:evenodd;stroke:#ffffff;stroke-width:1.17247093;stroke-linecap:butt;stroke-linejoin:miter;stroke-miterlimit:4;stroke-dasharray:none;stroke-opacity:1" />
  <path
     d="M 969.61618,471.56046 L 900.10118,402.02186 L 920.81094,452.03662 L 969.61618,471.56046 z"
     id="path4764"
     style="fill:#ed2939;fill-opacity:1;fill-rule:evenodd;stroke:#ffffff;stroke-width:1.17247093;stroke-linecap:butt;stroke-linejoin:miter;stroke-miterlimit:4;stroke-dasharray:none;stroke-opacity:1" />
  <path
     d="M 969.61618,471.56046 L 900.10118,402.02186 L 950.09897,422.73865 L 969.61618,471.56046 z"
     id="path4766"
     style="fill:#ed2939;fill-opacity:1;fill-rule:evenodd;stroke:#ffffff;stroke-width:1.17247093;stroke-linecap:butt;stroke-linejoin:miter;stroke-miterlimit:4;stroke-dasharray:none;stroke-opacity:1" />
  <rect
     width="600"
     height="300"
     x="0"
     y="0"
     id="red stripe"
     style="fill:#ed2939" />
  <path
     d="M 380.92202,150 C 380.92202,201.71237 339.00087,243.63351 287.28851,243.63351 C 235.57615,243.63351 193.655,201.71237 193.655,150 C 193.655,98.287658 235.57615,56.366506 287.28851,56.366506 C 339.00087,56.366506 380.92202,98.287658 380.92202,150 L 380.92202,150 z"
     id="path2626"
     style="fill:#ffffff" />
  <path
     d="M 410.34437,150 C 410.34437,198.86985 370.72752,238.4867 321.85768,238.4867 C 272.98783,238.4867 233.371,198.86985 233.371,150 C 233.371,101.13016 272.98783,61.513316 321.85768,61.513316 C 370.72752,61.513316 410.34437,101.13016 410.34437,150 z"
     id="path2628"
     style="fill:#ed2939" />
  <path
     d="M 346.88817,115.1754 L 334.15259,105.40557 L 321.42022,115.18 L 326.32208,99.426102 L 313.546,89.71491 L 329.3111,89.748283 L 334.14744,73.972 L 338.98894,89.74653 L 354.75403,89.707444 L 341.98113,99.423266 L 346.88817,115.1754 z"
     id="star"
     style="fill:#ffffff" />
  <use
     transform="matrix(0.9801245,0,0,0.9801245,-25.085116,98.716263)"
     id="use11"
     x="0"
     y="0"
     width="1200"
     height="600"
     xlink:href="#star" />
  <use
     transform="matrix(0.9801245,0,0,0.9801245,37.447884,98.716263)"
     id="use13"
     x="0"
     y="0"
     width="1200"
     height="600"
     xlink:href="#star" />
  <use
     transform="matrix(0.9801251,0,0,0.9801251,56.145695,39.375186)"
     id="use15"
     x="0"
     y="0"
     width="1200"
     height="600"
     xlink:href="#star" />
  <use
     transform="matrix(0.9801245,0,0,0.9801245,-43.783116,39.37526)"
     id="use17"
     x="0"
     y="0"
     width="1200"
     height="600"
     xlink:href="#star" />
</svg>
