<?xml version="1.0" encoding="UTF-8"?><svg xmlns="http://www.w3.org/2000/svg" xmlns:xlink="http://www.w3.org/1999/xlink" width="4320" height="2880"><rect fill="#ed2939" width="4320" height="2880"/><path fill="#fff" d="M 2918.5953,1440 C 2918.5953,1937.0563 2515.6516,2340 2018.5953,2340 C 1521.539,2340 1118.5953,1937.0563 1118.5953,1440 C 1118.5953,942.94375 1521.539,540.00002 2018.5953,540.00002 C 2515.6516,540.00002 2918.5953,942.94375 2918.5953,1440 L 2918.5953,1440 z"/><path fill="#ed2939" d="M 3201.4047,1440 C 3201.4047,1909.7342 2820.6098,2290.5291 2350.8756,2290.5291 C 1881.1414,2290.5291 1500.3466,1909.7342 1500.3466,1440 C 1500.3466,970.26578 1881.1414,589.47094 2350.8756,589.47094 C 2820.6098,589.47096 3201.4047,970.26578 3201.4047,1440 z"/><path fill="#fff" id="star" d="M 2129.9811,1461.7137 L 2007.72,1367.924 L 1885.4897,1461.7582 L 1932.5475,1310.5211 L 1809.8975,1217.2942 L 1961.242,1217.6146 L 2007.6705,1066.1629 L 2054.1488,1217.5978 L 2205.4931,1217.2229 L 2082.8738,1310.4944 L 2129.9811,1461.7137 z"/><use xlink:href="#star" transform="translate(959.31608,0)"/><use xlink:href="#star" transform="translate(480.14712,-356.02963)"/><use xlink:href="#star" transform="translate(179.5006,569.66562)"/><use xlink:href="#star" transform="translate(779.8147,569.66562)"/></svg>