<?xml version="1.0" encoding="UTF-8" standalone="no"?>
<!-- Created with Inkscape (http://www.inkscape.org/) -->

<svg
   xmlns:dc="http://purl.org/dc/elements/1.1/"
   xmlns:cc="http://creativecommons.org/ns#"
   xmlns:rdf="http://www.w3.org/1999/02/22-rdf-syntax-ns#"
   xmlns:svg="http://www.w3.org/2000/svg"
   xmlns="http://www.w3.org/2000/svg"
   xmlns:sodipodi="http://sodipodi.sourceforge.net/DTD/sodipodi-0.dtd"
   xmlns:inkscape="http://www.inkscape.org/namespaces/inkscape"
   version="1.0"
   width="600"
   height="400"
   id="Flag of Pakistan"
   sodipodi:version="0.32"
   inkscape:version="0.48.2 r9819"
   sodipodi:docname="AJAX.svg"
   inkscape:output_extension="org.inkscape.output.svg.inkscape">
  <metadata
     id="metadata2172">
    <rdf:RDF>
      <cc:Work
         rdf:about="">
        <dc:format>image/svg+xml</dc:format>
        <dc:type
           rdf:resource="http://purl.org/dc/dcmitype/StillImage" />
        <dc:title>Civil Air Ensign of Pakistan</dc:title>
        <dc:rights>
          <cc:Agent>
            <dc:title>Public Domain</dc:title>
          </cc:Agent>
        </dc:rights>
        <cc:license
           rdf:resource="http://web.resource.org/cc/PublicDomain" />
      </cc:Work>
      <cc:License
         rdf:about="http://web.resource.org/cc/PublicDomain">
        <cc:permits
           rdf:resource="http://web.resource.org/cc/Reproduction" />
        <cc:permits
           rdf:resource="http://web.resource.org/cc/Distribution" />
        <cc:permits
           rdf:resource="http://web.resource.org/cc/DerivativeWorks" />
      </cc:License>
    </rdf:RDF>
  </metadata>
  <sodipodi:namedview
     inkscape:window-height="1004"
     inkscape:window-width="1280"
     inkscape:pageshadow="2"
     inkscape:pageopacity="0.0"
     guidetolerance="10.0"
     gridtolerance="10.0"
     objecttolerance="10.0"
     borderopacity="1.0"
     bordercolor="#666666"
     pagecolor="#ffffff"
     id="base"
     inkscape:zoom="0.94499999"
     inkscape:cx="136.75687"
     inkscape:cy="303.3622"
     inkscape:window-x="-8"
     inkscape:window-y="-8"
     inkscape:current-layer="Flag of Pakistan"
     showgrid="false"
     showguides="true"
     inkscape:guide-bbox="true"
     inkscape:window-maximized="1" />
  <defs
     id="defs1335" />
  <rect
     width="600"
     height="400"
     x="0"
     y="2.2888184e-005"
     style="opacity:1;fill:#7cc2e9;fill-opacity:1;fill-rule:nonzero;stroke:none;stroke-width:0;stroke-miterlimit:4;stroke-dasharray:none;stroke-opacity:1"
     id="rect1346" />
  <g
     id="g2239"
     transform="matrix(0.9,0,0,0.9,0,4.636e-2)">
    <rect
       id="white"
       style="fill:#ffffff"
       y="0"
       x="0"
       height="200"
       width="75" />
    <rect
       id="green"
       style="fill:#01411c;stroke:none;fill-opacity:1"
       y="0"
       x="75"
       height="200"
       width="225" />
    <circle
       id="Outer arc of crescent"
       style="fill:#ffffff"
       transform="scale(0.5,0.5)"
       r="120"
       cy="200"
       cx="375"
       sodipodi:cx="375"
       sodipodi:cy="200"
       sodipodi:rx="120"
       sodipodi:ry="120"
       d="m 495,200 c 0,66.27417 -53.72583,120 -120,120 -66.27417,0 -120,-53.72583 -120,-120 0,-66.27417 53.72583,-120 120,-120 66.27417,0 120,53.72583 120,120 z" />
    <circle
       id="Inner arc of crescent"
       style="fill:#01411c;stroke:none;fill-opacity:1"
       transform="scale(0.5,0.5)"
       r="110"
       cy="172.7346"
       cx="405.67358"
       sodipodi:cx="405.67358"
       sodipodi:cy="172.7346"
       sodipodi:rx="110"
       sodipodi:ry="110"
       d="m 515.67358,172.7346 c 0,60.75133 -49.24867,110 -110,110 -60.75132,0 -110,-49.24867 -110,-110 0,-60.75132 49.24868,-109.999996 110,-109.999996 60.75133,0 110,49.248676 110,109.999996 z" />
    <polygon
       id="White star"
       style="fill:#ffffff"
       transform="matrix(13.28727,14.94819,-14.94819,13.28727,217.7849,73.08)"
       points="0,-1 0.58778525,0.80901699 -0.95105652,-0.30901699 0.95105652,-0.30901699 -0.58778525,0.80901699 0,-1 " />
  </g>
  <rect
     style="fill:#ffffff;fill-opacity:1;stroke:none"
     id="rect2217"
     width="600"
     height="40"
     x="0"
     y="180" />
  <rect
     style="fill:#000055;fill-opacity:1;stroke:none"
     id="rect2219"
     width="600"
     height="28"
     x="0"
     y="186" />
</svg>
