<?xml version="1.0" encoding="UTF-8"?><svg xmlns="http://www.w3.org/2000/svg" width="3600" height="2400"><rect fill="#de2910" width="3600" height="2400"/><path fill="#ffde00" d="M 812.12121,300 C 1018.5286,377.41449 1137.5999,613.52029 1030.303,813.93939 L 763.63636,561.13694 L 872.72727,456.89451 L 812.12121,399.14357 C 777.64924,432.92636 727.88208,435.42739 690.90909,420.53088 L 472.72727,638.7127 L 581.81818,736.65219 L 661.81818,658.10664 L 933.33333,930.30303 C 805.23125,1000.6298 615.90112,981.55704 484.84848,845.45454 L 424.34504,905.37937 C 443.35471,931.7304 459.2897,950.00654 479.06887,970.03466 C 477.37164,972.09648 471.91561,976.58763 471.80853,976.72581 C 468.46836,976.15975 464.54184,974.8686 461.0448,974.8686 C 427.27438,974.8686 400,1004.2771 400,1038.032 C 400,1071.7888 427.54279,1099.3188 461.31321,1099.3188 C 495.08318,1099.3188 523.96781,1071.5188 523.96781,1037.7639 C 523.96781,1033.8322 523.09379,1030.2347 522.38017,1026.505 L 532.16034,1016.9399 C 682.83741,1118.5685 852.62109,1132.8984 1030.303,1026.5915 L 1103.0303,1099.3188 L 1200,1002.3491 L 1127.2727,929.62179 C 1331.368,614.91748 1066.7909,292.35049 812.12121,300 z"/></svg>