<?xml version="1.0" encoding="UTF-8" standalone="no"?>
<svg
   xmlns:dc="http://purl.org/dc/elements/1.1/"
   xmlns:cc="http://creativecommons.org/ns#"
   xmlns:rdf="http://www.w3.org/1999/02/22-rdf-syntax-ns#"
   xmlns:svg="http://www.w3.org/2000/svg"
   xmlns="http://www.w3.org/2000/svg"
   xmlns:sodipodi="http://sodipodi.sourceforge.net/DTD/sodipodi-0.dtd"
   xmlns:inkscape="http://www.inkscape.org/namespaces/inkscape"
   width="1146px"
   height="812px"
   id="svg2"
   version="1.1"
   inkscape:version="0.48.3.1 r9886"
   sodipodi:docname="Chinese_soviet_flag.svg">
  <defs
     id="defs30" />
  <sodipodi:namedview
     pagecolor="#ffffff"
     bordercolor="#666666"
     borderopacity="1"
     objecttolerance="10"
     gridtolerance="10"
     guidetolerance="10"
     inkscape:pageopacity="0"
     inkscape:pageshadow="2"
     inkscape:window-width="1600"
     inkscape:window-height="848"
     id="namedview28"
     showgrid="false"
     inkscape:zoom="0.29064039"
     inkscape:cx="115.38983"
     inkscape:cy="406"
     inkscape:window-x="-8"
     inkscape:window-y="-8"
     inkscape:window-maximized="1"
     inkscape:current-layer="svg2" />
  <metadata
     id="metadata4">
    <rdf:RDF>
      <cc:Work
         rdf:about="">
        <dc:format>image/svg+xml</dc:format>
        <dc:type
           rdf:resource="http://purl.org/dc/dcmitype/StillImage" />
        <dc:rights>
          <cc:Agent>
            <dc:title />
          </cc:Agent>
        </dc:rights>
        <dc:creator>
          <cc:Agent>
            <dc:title>ske </dc:title>
          </cc:Agent>
        </dc:creator>
        <dc:publisher>
          <cc:Agent>
            <dc:title>commons.wikimedia.org</dc:title>
          </cc:Agent>
        </dc:publisher>
        <dc:title>soviet republic of china flag</dc:title>
        <cc:license
           rdf:resource="http://web.resource.org/cc/PublicDomain" />
      </cc:Work>
      <cc:License
         rdf:about="http://web.resource.org/cc/PublicDomain">
        <cc:permits
           rdf:resource="http://web.resource.org/cc/Reproduction" />
        <cc:permits
           rdf:resource="http://web.resource.org/cc/Distribution" />
        <cc:permits
           rdf:resource="http://web.resource.org/cc/DerivativeWorks" />
      </cc:License>
    </rdf:RDF>
  </metadata>
  <rect
     style="fill:#d4000e;stroke:none;fill-opacity:1"
     width="1146"
     height="812"
     id="rect6" />
  <g
     transform="translate(175,22.63780)"
     id="g8">
    <path
       d="M 361,473.36218 L 361,425.36218 L 410,425.36218 L 410,390.36218 L 455,391.36218 L 455,425.36218 L 505,425.36218 L 505,392.36218 L 549,391.36218 L 550,425.36218 L 595,425.36218 L 596,474.36218 L 549,475.36218 L 550,545.36218 L 599,544.36218 L 599,600.36218 L 557,599.36218 L 607,655.36218 L 550,656.36218 L 499,597.36218 L 456,598.36218 L 409,654.36218 L 352,654.36218 L 402,599.36218 L 363,598.36218 L 363,546.36218 L 410,546.36218 L 410,473.36218 L 361,473.36218 z"
       style="fill:#ffde00;fill-rule:evenodd;stroke:none;stroke-width:1px;stroke-linecap:butt;stroke-linejoin:miter;stroke-opacity:1;fill-opacity:1"
       id="path10" />
    <rect
       y="471.36218"
       x="450"
       height="72"
       width="55"
       style="fill:#d4000e;fill-opacity:1"
       id="rect12" />
    <rect
       y="426.36218"
       x="667"
       height="172"
       width="242"
       style="fill:#ffde00;stroke:none;fill-opacity:1"
       id="rect14" />
    <rect
       y="475.36218"
       x="711"
       height="73"
       width="152"
       style="fill:#d4000e;stroke:none;fill-opacity:1"
       id="rect16" />
    <rect
       y="390.36218"
       x="765"
       height="272"
       width="42"
       style="fill:#ffde00;stroke:none;fill-opacity:1"
       id="rect18" />
  </g>
  <g
     transform="matrix(0.512254,0,0,0.442143,1080.778,-93.66090)"
     id="g20">
    <path
       d="M -1980,920 L -1899,1002 L -1833,934 L -1406,1361 L -1345,1303 L -1785,886 L -1693,805 L -1826,768 L -1980,920 z"
       style="fill:#ffde00;stroke:#ffde00;stroke-width:14;stroke-linecap:round;stroke-linejoin:bevel;fill-opacity:1;stroke-opacity:1"
       id="path22" />
    <path
       d="M -1647,721 C -1488,828 -1408,936 -1401,1046 C -1405,1290 -1671,1403 -1847,1203 L -1846,1241 L -1880,1240 C -1903,1284 -1927,1326 -1947,1352 C -2000,1368 -2026,1351 -2012,1287 C -1985,1258 -1943,1238 -1909,1214 L -1907,1183 L -1865,1181 L -1861,1169 L -1835,1169 C -1662,1340 -1466,1155 -1479,1020 C -1491,885 -1538,839 -1647,721 z"
       style="fill:#ffde00;stroke:#ffde00;stroke-width:14;stroke-linecap:round;stroke-linejoin:bevel;stroke-opacity:1;fill-opacity:1"
       id="path24" />
    <path
       d="M -1750,542 L -1836,481 L -1731,481 L -1700,377 L -1664,481 L -1555,481 L -1642,545 L -1607,642 L -1693,582 L -1781,646 L -1750,542 z"
       style="fill:none;stroke:#ffde00;stroke-width:28;stroke-linecap:square;stroke-opacity:1"
       id="path26" />
  </g>
</svg>
