<svg xmlns:svg="http://www.w3.org/2000/svg" xmlns="http://www.w3.org/2000/svg" width="480" height="240">
  <g>
    <g>
      <rect width="480" height="240" fill="#fff"/>
      <rect
         width="120"
         height="240"
         fill="#000"/>
      <rect
         width="348"
         height="80"
         x="132"
         fill="#de2010"/>
      <rect
         width="348"
         height="80"
         x="132"
         y="160"
         fill="#2a700d"/>
      <g>
        <path
           d="M 47.875,20.15625 C 44.510155,20.12732 41.956225,20.178605 40.34375,21.875 C 39.929376,22.31094 39.275553,24.378819 38.869299,24.615491 C 37.867547,25.199083 36.726006,24.913909 35.5,25.0625 C 33.150311,25.347281 31.505544,26.021531 32.15625,28.625 C 32.462411,28.573479 35.427715,27.588611 36.9375,27.96875 C 36.82368,28.160284 36.75,28.357015 36.75,28.5625 C 36.75,29.767489 38.835519,30.75802 41.625,31.03125 C 41.611242,31.326845 41.660725,31.723355 41.78125,32.21875 C 42.371468,34.644721 42.069412,42.673219 41.25,45.625 C 39.371135,52.393267 39.337956,57.538253 40.71875,61.1875 C 41.340001,62.82938 41.19411,65.015797 40.843825,66.146152 C 39.461764,70.605994 35.343752,74.443113 35.34375,78.65625 C 35.34375,79.393086 35.741624,80.875 36.71875,80.875 C 37.060682,83.208588 39.78125,99.84375 39.78125,99.84375 L 78.78125,99.84375 C 80.59375,89.979167 82.364038,77.710897 85.46875,70 C 86.64197,70.179211 87.521638,70.140787 87.84375,70.1875 C 92.154675,70.47395 66.909898,49.032572 60.34375,44.28125 C 55.455545,40.744102 54.625,38.40625 54.625,38.40625 C 54.625,38.40625 53.361088,29.546063 53.21875,26.625 C 53.072145,23.616398 51.24592,20.15625 47.875,20.15625 z"
           style="fill:#ffc618;stroke-width:0.8"/>
        <g>
          <g
             transform="matrix(0.2931239,0,0,0.3684225,32.01775,19.980253)"
             style="fill:none;stroke:#000;stroke-width:2.43439651">
            <circle cx="30.05" cy="16.5" r="4" transform="matrix(1.2793225,0,0,1.0178531,0.7286108,-4.5267395)" style="stroke-width:2.13"/>
          </g>
          <g
             transform="matrix(1.3843706,0,0,1.7399923,9.9208783,-42.695826)"
             style="fill:none;stroke:#000;stroke-width:0.515">
            <path
               d="M 31.344222,53.816212 C 25.802035,55.729617 31.102792,59.695695 36.046234,61.390941 C 40.986468,63.085087 53.950603,64.905969 55.326899,65.064769"
               style="stroke-width:0.515"/>
            <path
               d="M 19.028385,71.384758 C 19.028385,71.384758 19.274859,70.688499 19.46553,70.904593 C 19.628141,71.088886 20.041572,71.508937 20.178874,71.501082 C 20.540457,71.480398 20.608854,70.833761 21.323451,70.792846 C 21.625277,70.775565 21.654536,71.521508 22.219906,71.682499 C 22.467935,71.753127 22.852774,70.947537 23.262727,70.874717 C 23.692224,70.798427 24.144881,71.452804 24.298127,71.44463 C 24.918842,71.411522 24.629734,70.698059 25.166606,70.674249 C 26.134308,70.631331 26.535897,70.636881 27.012225,70.636881 C 28.63541,70.636881 43.74613,70.655501 52.176976,72.604761"
               style="stroke-width:0.515"/>
            <path
               d="M 21.508178,70.870751 C 21.508178,70.870751 20.907084,70.142691 21.2952,68.695891 C 21.579486,67.636145 25.914063,64.555315 27.150093,61.32542 C 27.601543,60.145728 25.918177,59.415447 25.918177,57.999353"
               style="stroke-width:0.515"/>
            <path
               d="M 25.141736,70.636881 C 25.141736,70.636881 24.64775,68.272411 30.047065,66.260901 C 31.564587,65.802071 35.905007,63.367091 36.046234,61.390941"
               style="stroke-width:0.515"/>
            <path
               d="M 29.473056,66.485261 C 29.473056,66.485261 42.71639,66.543151 53.197205,68.660531"
               style="stroke-width:0.515"/>
            <path
               d="M 32.792626,64.905291 C 32.792626,64.905291 37.343128,65.060991 38.084211,64.849251 C 38.089042,64.847871 38.093898,64.846476 38.098777,64.845066 C 38.842363,64.630292 40.140479,64.07697 40.658976,62.536061"
               style="stroke-width:0.515"/>
            <path
               d="M 35.490423,64.959261 C 35.490423,64.959261 37.969729,63.729711 38.446551,62.084201"
               style="stroke-width:0.515"/>
            <path
               d="M 28.141424,81.894131 C 28.141424,81.894131 27.010018,75.036878 26.798281,70.996078 L 29.696307,72.871474 L 32.571103,70.932009 L 35.042686,72.995124 L 37.900321,71.144989 L 40.371284,73.347884 L 43.201212,71.515949 L 45.723873,73.918821 L 48.817032,72.308987 L 51.991578,74.994792"
               style="stroke-width:0.515"/>
            <path
               d="M 50.9508,77.345081 C 40.870302,75.901381 27.380491,75.995051 27.380491,75.995051"
               style="stroke-width:0.515"/>
            <path
               d="M 19.804531,51.626906 C 19.317634,51.239522 29.544286,46.060094 32.340822,46.586881"
               style="stroke-width:0.515"/>
          </g>
        </g>
        <path
           d="M 58,76.5 A 1.5,1.5 0 1 1 55,76.5 A 1.5,1.5 0 1 1 58,76.5 z"
           transform="matrix(1,0,0,1.3333333,2,-25)"
           style="fill:#ffc618;stroke:#000;stroke-width:0.8"/>
        <path
           d="M 58,76.5 A 1.5,1.5 0 1 1 55,76.5 A 1.5,1.5 0 1 1 58,76.5 z"
           transform="matrix(1,0,0,1.3333333,13,-24)"
           style="fill:#ffc618;stroke:#000;stroke-width:0.8"/>
        <path
           d="M 31.75,29 C 33.171289,28.143556 39.408755,27.831226 40.5,28.625"
           style="fill:none;stroke:#000;stroke-width:0.8"/>
        <path
           d="M 47.427043,85.502749 L 51.239871,88.774719 L 55.022137,85.390969 L 58.27391,88.990449 L 62.033597,85.762552 L 65.284555,89.605903 L 69.007789,86.409758 L 72.326763,90.602007 L 76.396321,87.793358 L 80.447957,91.729234"
           style="fill:none;stroke:#000;stroke-width:0.78"/>
        <path
           d="M 57.266312,70.188791 C 57.266312,70.188791 60.82359,67.674383 61.483688,64.811208"
           style="fill:none;stroke:#000;stroke-width:0.8"/>
        <path
           d="M 61.360062,70.282541 C 61.360062,70.282541 64.04234,68.455633 64.921188,65.811208"
           style="fill:none;stroke:#000;stroke-width:0.8"/>
        <path
           d="M 59.875,64.46875 C 59.583862,66.139487 63.001234,68.597619 64.34375,69.15625"
           style="fill:none;stroke:#000;stroke-width:0.8"/>
        <path
           d="M 61.77438,64.90625 C 62.046534,65.66009 62.918186,66.392531 63.889983,66.975338 C 64.510177,67.347281 65.171158,67.658279 65.74313,67.875"
           style="fill:none;stroke:#000;stroke-width:0.8"/>
        <path
           d="M 58.328125,66.953125 C 58.600279,67.706965 59.471931,68.439406 60.443728,69.022213 C 61.063922,69.394156 61.724903,69.705154 62.296875,69.921875"
           style="fill:none;stroke:#000;stroke-width:0.8"/>
        <path
           d="M 57.078125,68.578125 C 57.713296,69.509769 57.81908,69.679183 59.359375,70.359375"
           style="fill:none;stroke:#000;stroke-width:0.8"/>
      </g>
    </g>
  </g>
</svg>
