<?xml version="1.0" encoding="UTF-8" standalone="no"?>
<!-- Created with Inkscape (http://www.inkscape.org/) -->

<svg
   xmlns:dc="http://purl.org/dc/elements/1.1/"
   xmlns:cc="http://creativecommons.org/ns#"
   xmlns:rdf="http://www.w3.org/1999/02/22-rdf-syntax-ns#"
   xmlns:svg="http://www.w3.org/2000/svg"
   xmlns="http://www.w3.org/2000/svg"
   xmlns:sodipodi="http://sodipodi.sourceforge.net/DTD/sodipodi-0.dtd"
   xmlns:inkscape="http://www.inkscape.org/namespaces/inkscape"
   width="375"
   height="250"
   viewBox="0 0 375.00001 250"
   id="svg8709"
   version="1.1"
   inkscape:version="0.91 r13725"
   sodipodi:docname="Scotland.svg">
  <defs
     id="defs8711" />
  <sodipodi:namedview
     id="base"
     pagecolor="#ffffff"
     bordercolor="#666666"
     borderopacity="1.0"
     inkscape:pageopacity="0.0"
     inkscape:pageshadow="2"
     inkscape:zoom="2.0115617"
     inkscape:cx="236.14888"
     inkscape:cy="116.37218"
     inkscape:document-units="px"
     inkscape:current-layer="layer1"
     showgrid="false"
     units="px"
     fit-margin-top="0"
     fit-margin-left="0"
     fit-margin-right="0"
     fit-margin-bottom="0"
     inkscape:window-width="1920"
     inkscape:window-height="1057"
     inkscape:window-x="-8"
     inkscape:window-y="-8"
     inkscape:window-maximized="1" />
  <metadata
     id="metadata8714">
    <rdf:RDF>
      <cc:Work
         rdf:about="">
        <dc:format>image/svg+xml</dc:format>
        <dc:type
           rdf:resource="http://purl.org/dc/dcmitype/StillImage" />
        <dc:title></dc:title>
      </cc:Work>
    </rdf:RDF>
  </metadata>
  <g
     inkscape:label="Layer 1"
     inkscape:groupmode="layer"
     id="layer1"
     transform="translate(-69.499939,-726.36224)">
    <rect
       style="opacity:1;fill:#ffd228;fill-opacity:1;stroke:none;stroke-width:2;stroke-linecap:butt;stroke-linejoin:round;stroke-miterlimit:4;stroke-dasharray:none;stroke-dashoffset:0;stroke-opacity:1"
       id="rect6914"
       width="375"
       height="250"
       x="-444.49994"
       y="-976.36224"
       transform="scale(-1,-1)" />
    <path
       inkscape:connector-curvature="0"
       d="m 404.01233,853.75712 c -11.30066,0 -15.5725,9.8913 -11.7366,13.7262 2.75002,2.748 10.70049,1.8612 11.61219,-7.0089 -1.48898,1.5537 -3.38204,2.333 -4.33355,1.3825 -1.70595,-1.705 1.53606,-7.0109 5.44561,-7.0109 l 0,-6.9672 c -3.90955,0 -7.15056,-5.3059 -5.44561,-7.0109 0.95051,-0.9505 2.84358,-0.1712 4.33355,1.3815 -0.9117,-8.8691 -8.86217,-9.7559 -11.61219,-7.0079 -3.8359,3.8349 0.43594,13.7262 11.7366,13.7262 z"
       id="path8574"
       style="fill:#b4001e;fill-opacity:1;stroke:#000000;stroke-width:0.6;stroke-miterlimit:4;stroke-dasharray:none;stroke-opacity:1"
       sodipodi:nodetypes="ccccccccccc" />
    <path
       inkscape:connector-curvature="0"
       d="m 404.99998,853.36042 c 0,0 -11.07891,3.997 -17.26073,4.002 -3.3966,0 -6.71425,-1.5584 -11.69926,-6 4.98401,-4.4416 8.30166,-6.004 11.69926,-6 6.18182,0 17.26073,4.002 17.26073,4.002 z"
       id="path8576"
       style="fill:#b4001e;fill-opacity:1;stroke:#000000;stroke-width:0.6;stroke-miterlimit:4;stroke-dasharray:none;stroke-opacity:1"
       sodipodi:nodetypes="cccccc" />
    <path
       style="fill:#b4001e;fill-opacity:1;stroke:#000000;stroke-width:0.6;stroke-miterlimit:4;stroke-dasharray:none;stroke-opacity:1"
       d="m 430.49996,851.36241 c -1.74459,-1.9465 -4.5018,-2.5195 -7.32819,-2.5195 0.93279,-1.7326 1.63819,-4.0509 1.48829,-5.9805 -1.6526,2.2035 -3.2291,4.4278 -6.8262,4.4278 -1.5397,0 -3.6432,-0.7358 -4.8339,-1.7286 l 0,11.6016 c 1.1907,-0.9928 3.2942,-1.7285 4.8339,-1.7285 3.5971,0 5.1736,2.2242 6.8262,4.4277 0.1499,-1.9295 -0.5555,-4.2479 -1.4883,-5.9804 2.8264,0 5.5836,-0.573 7.3282,-2.5196 z"
       id="path8572"
       inkscape:connector-curvature="0"
       sodipodi:nodetypes="cccsccsccc" />
    <path
       sodipodi:nodetypes="cccsccsccc"
       inkscape:connector-curvature="0"
       id="path8599"
       d="m 181.49993,742.36253 c -1.94654,1.7446 -2.51954,4.5018 -2.51954,7.3282 -1.73258,-0.9328 -4.05091,-1.6382 -5.98046,-1.4883 2.20348,1.6526 4.42772,3.2291 4.42772,6.8262 0,1.5397 -0.73573,3.6432 -1.7285,4.8339 l 11.60156,0 c -0.99278,-1.1907 -1.72853,-3.2942 -1.72853,-4.8339 0,-3.5971 2.22426,-5.1736 4.42775,-6.8262 -1.92956,-0.1499 -4.24789,0.5555 -5.98047,1.4883 0,-2.8264 -0.573,-5.5836 -2.51953,-7.3282 z"
       style="fill:#b4001e;fill-opacity:1;stroke:#000000;stroke-width:0.6;stroke-miterlimit:4;stroke-dasharray:none;stroke-opacity:1" />
    <path
       sodipodi:nodetypes="ccccccccccc"
       style="fill:#b4001e;fill-opacity:1;stroke:#000000;stroke-width:0.6;stroke-miterlimit:4;stroke-dasharray:none;stroke-opacity:1"
       id="path8605"
       d="m 183.89463,768.85013 c 0,11.30062 9.8913,15.57246 13.7262,11.73656 2.748,-2.75006 1.8612,-10.70046 -7.0089,-11.61216 1.5537,1.489 2.333,3.382 1.3825,4.3335 -1.705,1.706 -7.0109,-1.536 -7.0109,-5.4456 l -6.9672,0 c 0,3.9096 -5.3059,7.1506 -7.0109,5.4456 -0.9505,-0.9505 -0.1712,-2.8436 1.3815,-4.3335 -8.8691,0.9117 -9.7559,8.8621 -7.0079,11.61216 3.8349,3.8359 13.7262,-0.43594 13.7262,-11.73656 z"
       inkscape:connector-curvature="0" />
    <path
       sodipodi:nodetypes="cccccc"
       style="fill:#b4001e;fill-opacity:1;stroke:#000000;stroke-width:0.6;stroke-miterlimit:4;stroke-dasharray:none;stroke-opacity:1"
       id="path8607"
       d="m 183.49793,767.86243 c 0,0 3.997,11.07892 4.002,17.26074 0,3.3966 -1.5584,6.71425 -6,11.69926 -4.4416,-4.98401 -6.004,-8.30166 -6,-11.69926 0,-6.18182 4.002,-17.26074 4.002,-17.26074 z"
       inkscape:connector-curvature="0" />
    <path
       inkscape:connector-curvature="0"
       d="m 330.1052,768.85013 c 0,11.30062 -9.8913,15.57246 -13.7262,11.73656 -2.748,-2.75006 -1.8612,-10.70046 7.0089,-11.61216 -1.5537,1.489 -2.333,3.382 -1.3825,4.3335 1.705,1.706 7.0109,-1.536 7.0109,-5.4456 l 6.9672,0 c 0,3.9096 5.3059,7.1506 7.0109,5.4456 0.9505,-0.9505 0.1712,-2.8436 -1.3815,-4.3335 8.8691,0.9117 9.7559,8.8621 7.0079,11.61216 -3.8349,3.8359 -13.7262,-0.43594 -13.7262,-11.73656 z"
       id="path8611"
       style="fill:#b4001e;fill-opacity:1;stroke:#000000;stroke-width:0.6;stroke-miterlimit:4;stroke-dasharray:none;stroke-opacity:1"
       sodipodi:nodetypes="ccccccccccc" />
    <path
       inkscape:connector-curvature="0"
       d="m 330.5019,767.86243 c 0,0 -3.997,11.07892 -4.002,17.26074 0,3.3966 1.5584,6.71425 6,11.69926 4.4416,-4.98401 6.004,-8.30166 6,-11.69926 0,-6.18182 -4.002,-17.26074 -4.002,-17.26074 z"
       id="path8613"
       style="fill:#b4001e;fill-opacity:1;stroke:#000000;stroke-width:0.6;stroke-miterlimit:4;stroke-dasharray:none;stroke-opacity:1"
       sodipodi:nodetypes="cccccc" />
    <path
       sodipodi:nodetypes="ccccccccccc"
       inkscape:connector-curvature="0"
       id="path8621"
       d="m 260.48427,756.86225 c 0,-2.764 5.3047,-5.6867 7.0097,-4.4804 0.9505,0.6728 0.1709,2.1432 -1.38279,3.1972 8.87009,-0.645 9.75779,-6.2691 7.00979,-8.2129 -3.8349,-2.7132 -13.7266,0.5108 -13.7266,8.5 l -4.78899,0 c 0,-7.9892 -9.8917,-11.2132 -13.7266,-8.5 -2.748,1.9438 -1.8603,7.5679 7.0098,8.2129 -1.5537,-1.054 -2.3333,-2.5244 -1.3828,-3.1972 1.705,-1.2063 7.0097,1.7164 7.0097,4.4804 z"
       style="fill:#b4001e;fill-opacity:1;stroke:#000000;stroke-width:0.6;stroke-miterlimit:4;stroke-dasharray:none;stroke-opacity:1" />
    <path
       inkscape:connector-curvature="0"
       d="m 255.00187,756.86243 c 0,0 -3.997,-7.8487 -4.002,-12.2193 0,-2.4016 1.5584,-4.7563 6,-8.2807 4.4416,3.5244 6.004,5.8791 6,8.2807 0,4.3706 -4.002,12.2193 -4.002,12.2193 z"
       id="path8623"
       style="fill:#b4001e;fill-opacity:1;stroke:#000000;stroke-width:0.6;stroke-miterlimit:4;stroke-dasharray:none;stroke-opacity:1"
       sodipodi:nodetypes="cccccc" />
    <path
       style="fill:#b4001e;fill-opacity:1;stroke:#000000;stroke-width:0.6;stroke-miterlimit:4;stroke-dasharray:none;stroke-opacity:1"
       d="m 256.99971,782.36236 c -1.94654,-1.7446 -2.51953,-4.50183 -2.51953,-7.32813 -1.73259,0.9328 -4.05092,1.6382 -5.98047,1.4883 2.20348,-1.6526 4.42773,-3.2291 4.42773,-6.8262 0,-1.5397 -0.73574,-3.6432 -1.72851,-4.8339 l 11.60156,0 c -0.99277,1.1907 -1.72852,3.2942 -1.72852,4.8339 0,3.5971 2.22426,5.1736 4.42774,6.8262 -1.92955,0.1499 -4.24788,-0.5555 -5.98047,-1.4883 0,2.8263 -0.57299,5.58353 -2.51953,7.32813 z"
       id="path8625"
       inkscape:connector-curvature="0"
       sodipodi:nodetypes="cccsccsccc" />
    <path
       style="fill:#b4001e;fill-opacity:1;stroke:#000000;stroke-width:0.6;stroke-miterlimit:4;stroke-dasharray:none;stroke-opacity:1"
       d="m 332.4998,742.36253 c 1.94654,1.7446 2.51953,4.5018 2.51953,7.3282 1.73259,-0.9328 4.05092,-1.6382 5.98047,-1.4883 -2.20348,1.6526 -4.42773,3.2291 -4.42773,6.8262 0,1.5397 0.73574,3.6432 1.72851,4.8339 l -11.60156,0 c 0.99277,-1.1907 1.72852,-3.2942 1.72852,-4.8339 0,-3.5971 -2.22426,-5.1736 -4.42774,-6.8262 1.92955,-0.1499 4.24788,0.5555 5.98047,1.4883 0,-2.8264 0.57299,-5.5836 2.51953,-7.3282 z"
       id="path8635"
       inkscape:connector-curvature="0"
       sodipodi:nodetypes="cccsccsccc" />
    <path
       sodipodi:nodetypes="ccccccccccc"
       style="fill:#b4001e;fill-opacity:1;stroke:#000000;stroke-width:0.6;stroke-miterlimit:4;stroke-dasharray:none;stroke-opacity:1"
       id="path8637"
       d="m 416.41379,759.83523 c 7.9908,-7.9908 18.0056,-4.0172 18.0049,1.4069 0,3.8877 -6.25029,8.8825 -13.1671,3.255 2.1516,0.046 4.0412,-0.7418 4.0419,-2.0867 6.1e-4,-2.4119 -6.0437,-3.8713 -8.8081,-1.1068 l -4.9265,-4.9266 c 2.76441,-2.7645 1.3043,-8.808 -1.1069,-8.8081 -1.3442,0 -2.1318,1.8897 -2.0874,4.0412 -5.6268,-6.9161 -0.632,-13.165 3.2557,-13.1664 5.4241,-7e-4 9.3977,10.0141 1.4069,18.0049 z"
       inkscape:connector-curvature="0" />
    <path
       sodipodi:nodetypes="cccccc"
       style="fill:#b4001e;fill-opacity:1;stroke:#000000;stroke-width:0.6;stroke-miterlimit:4;stroke-dasharray:none;stroke-opacity:1"
       id="path8639"
       d="m 415.43489,760.25313 c 0,0 10.6603,-5.0077 15.035,-9.3753 2.4018,-2.4018 3.6458,-5.8497 4.03,-12.5153 -6.6649,0.3835 -10.1156,1.6247 -12.5153,4.03 -4.3711,4.3712 -9.3753,15.035 -9.3753,15.035 z"
       inkscape:connector-curvature="0" />
    <path
       sodipodi:nodetypes="cccsccscccc"
       inkscape:connector-curvature="0"
       id="path8643"
       d="m 390.7839,782.0786 c -0.14283,-2.6101 1.40171,-4.96477 3.4003,-6.96337 -1.88484,-0.5656 -4.02292,-1.7061 -5.28127,-3.1764 2.72669,0.3895 5.41417,0.8475 7.95774,-1.6961 1.08872,-1.0887 2.05592,-3.0963 2.19583,-4.6403 l 8.2036,8.2036 c -1.544,0.1399 -3.55159,1.1071 -4.64042,2.1958 -2.54346,2.54357 -2.08549,5.23107 -1.6959,7.95767 -1.47037,-1.2583 -2.61096,-3.3964 -3.17649,-5.2812 -1.99858,1.9986 -4.35339,3.5431 -6.96338,3.4003 z"
       style="fill:#b4001e;fill-opacity:1;stroke:#000000;stroke-width:0.6;stroke-miterlimit:4;stroke-dasharray:none;stroke-opacity:1" />
    <path
       inkscape:connector-curvature="0"
       d="m 97.586038,759.83513 c -7.9908,-7.9908 -18.0056,-4.0172 -18.0049,1.4069 0,3.8877 6.25029,8.8825 13.1671,3.255 -2.1516,0.046 -4.0412,-0.7418 -4.0419,-2.0867 -6.1e-4,-2.4119 6.0437,-3.8713 8.8081,-1.1068 l 4.926502,-4.9266 c -2.764412,-2.7645 -1.3043,-8.808 1.1069,-8.8081 1.3442,0 2.1318,1.8897 2.0874,4.0412 5.6268,-6.9161 0.632,-13.165 -3.2557,-13.1664 -5.424102,-7e-4 -9.397702,10.0141 -1.4069,18.0049 z"
       id="path4426"
       style="fill:#b4001e;fill-opacity:1;stroke:#000000;stroke-width:0.6;stroke-miterlimit:4;stroke-dasharray:none;stroke-opacity:1"
       sodipodi:nodetypes="ccccccccccc" />
    <path
       inkscape:connector-curvature="0"
       d="m 98.564938,760.25303 c 0,0 -10.6603,-5.0077 -15.035,-9.3753 -2.4018,-2.4018 -3.6458,-5.8497 -4.03,-12.5153 6.6649,0.3835 10.1156,1.6247 12.5153,4.03 4.3711,4.3712 9.375302,15.035 9.375302,15.035 z"
       id="path4428"
       style="fill:#b4001e;fill-opacity:1;stroke:#000000;stroke-width:0.6;stroke-miterlimit:4;stroke-dasharray:none;stroke-opacity:1"
       sodipodi:nodetypes="cccccc" />
    <path
       style="fill:#b4001e;fill-opacity:1;stroke:#000000;stroke-width:0.6;stroke-miterlimit:4;stroke-dasharray:none;stroke-opacity:1"
       d="m 123.21593,782.0785 c 0.14283,-2.6101 -1.40171,-4.96477 -3.4003,-6.96337 1.88484,-0.5656 4.02292,-1.7061 5.28127,-3.1764 -2.72669,0.3895 -5.41417,0.8475 -7.95774,-1.6961 -1.08872,-1.0887 -2.05592,-3.0963 -2.19583,-4.6403 l -8.2036,8.2036 c 1.544,0.1399 3.55159,1.1071 4.64042,2.1958 2.54346,2.54357 2.08549,5.23107 1.6959,7.95767 1.47037,-1.2583 2.61096,-3.3964 3.17649,-5.2812 1.99858,1.9986 4.35339,3.5431 6.96339,3.4003 z"
       id="path4430"
       inkscape:connector-curvature="0"
       sodipodi:nodetypes="cccsccsccc" />
    <path
       sodipodi:nodetypes="ccccccccccc"
       style="fill:#b4001e;fill-opacity:1;stroke:#000000;stroke-width:0.6;stroke-miterlimit:4;stroke-dasharray:none;stroke-opacity:1"
       id="path4446"
       d="m 109.9875,853.75712 c 11.30066,0 15.5725,9.8913 11.7366,13.7262 -2.75002,2.748 -10.70049,1.8612 -11.61219,-7.0089 1.48898,1.5537 3.38204,2.333 4.33355,1.3825 1.70595,-1.705 -1.53606,-7.0109 -5.44561,-7.0109 l 0,-6.9672 c 3.90955,0 7.15056,-5.3059 5.44561,-7.0109 -0.95051,-0.9505 -2.84358,-0.1712 -4.33355,1.3815 0.9117,-8.8691 8.86217,-9.7559 11.61219,-7.0079 3.8359,3.8349 -0.43594,13.7262 -11.7366,13.7262 z"
       inkscape:connector-curvature="0" />
    <path
       sodipodi:nodetypes="cccccc"
       style="fill:#b4001e;fill-opacity:1;stroke:#000000;stroke-width:0.6;stroke-miterlimit:4;stroke-dasharray:none;stroke-opacity:1"
       id="path4448"
       d="m 108.99985,853.36042 c 0,0 11.07891,3.997 17.26073,4.002 3.3966,0 6.71425,-1.5584 11.69926,-6 -4.98401,-4.4416 -8.30166,-6.004 -11.69926,-6 -6.18182,0 -17.26073,4.002 -17.26073,4.002 z"
       inkscape:connector-curvature="0" />
    <path
       sodipodi:nodetypes="cccsccsccc"
       inkscape:connector-curvature="0"
       id="path4450"
       d="m 83.499868,851.36241 c 1.74459,-1.9465 4.5018,-2.5195 7.32819,-2.5195 -0.93279,-1.7326 -1.63819,-4.0509 -1.48829,-5.9805 1.6526,2.2035 3.2291,4.4278 6.8262,4.4278 1.5397,0 3.6432,-0.7358 4.833902,-1.7286 l 0,11.6016 c -1.190702,-0.9928 -3.294202,-1.7285 -4.833902,-1.7285 -3.5971,0 -5.1736,2.2242 -6.8262,4.4277 -0.1499,-1.9295 0.5555,-4.2479 1.4883,-5.9804 -2.8264,0 -5.5836,-0.573 -7.3282,-2.5196 z"
       style="fill:#b4001e;fill-opacity:1;stroke:#000000;stroke-width:0.6;stroke-miterlimit:4;stroke-dasharray:none;stroke-opacity:1" />
    <path
       style="fill:#b4001e;fill-opacity:1;stroke:#000000;stroke-width:0.6;stroke-miterlimit:4;stroke-dasharray:none;stroke-opacity:1"
       d="m 181.49993,960.36214 c -1.94654,-1.7446 -2.51954,-4.5018 -2.51954,-7.3282 -1.73258,0.9328 -4.05091,1.6382 -5.98046,1.4883 2.20348,-1.6526 4.42772,-3.2291 4.42772,-6.8262 0,-1.5397 -0.73573,-3.6432 -1.7285,-4.8339 l 11.60156,0 c -0.99278,1.1907 -1.72853,3.2942 -1.72853,4.8339 0,3.5971 2.22426,5.1736 4.42775,6.8262 -1.92956,0.1499 -4.24789,-0.5555 -5.98047,-1.4883 0,2.8264 -0.573,5.5836 -2.51953,7.3282 z"
       id="path4473"
       inkscape:connector-curvature="0"
       sodipodi:nodetypes="cccsccsccc" />
    <path
       inkscape:connector-curvature="0"
       d="m 183.89463,933.87454 c 0,-11.30062 9.8913,-15.57246 13.7262,-11.73656 2.748,2.75006 1.8612,10.70046 -7.0089,11.61216 1.5537,-1.489 2.333,-3.382 1.3825,-4.3335 -1.705,-1.706 -7.0109,1.536 -7.0109,5.4456 l -6.9672,0 c 0,-3.9096 -5.3059,-7.1506 -7.0109,-5.4456 -0.9505,0.9505 -0.1712,2.8436 1.3815,4.3335 -8.8691,-0.9117 -9.7559,-8.8621 -7.0079,-11.61216 3.8349,-3.8359 13.7262,0.43594 13.7262,11.73656 z"
       id="path4475"
       style="fill:#b4001e;fill-opacity:1;stroke:#000000;stroke-width:0.6;stroke-miterlimit:4;stroke-dasharray:none;stroke-opacity:1"
       sodipodi:nodetypes="ccccccccccc" />
    <path
       inkscape:connector-curvature="0"
       d="m 183.49793,934.86224 c 0,0 3.997,-11.07892 4.002,-17.26074 0,-3.3966 -1.5584,-6.71425 -6,-11.69926 -4.4416,4.98401 -6.004,8.30166 -6,11.69926 0,6.18182 4.002,17.26074 4.002,17.26074 z"
       id="path4477"
       style="fill:#b4001e;fill-opacity:1;stroke:#000000;stroke-width:0.6;stroke-miterlimit:4;stroke-dasharray:none;stroke-opacity:1"
       sodipodi:nodetypes="cccccc" />
    <path
       sodipodi:nodetypes="ccccccccccc"
       style="fill:#b4001e;fill-opacity:1;stroke:#000000;stroke-width:0.6;stroke-miterlimit:4;stroke-dasharray:none;stroke-opacity:1"
       id="path4479"
       d="m 330.1052,933.87454 c 0,-11.30062 -9.8913,-15.57246 -13.7262,-11.73656 -2.748,2.75006 -1.8612,10.70046 7.0089,11.61216 -1.5537,-1.489 -2.333,-3.382 -1.3825,-4.3335 1.705,-1.706 7.0109,1.536 7.0109,5.4456 l 6.9672,0 c 0,-3.9096 5.3059,-7.1506 7.0109,-5.4456 0.9505,0.9505 0.1712,2.8436 -1.3815,4.3335 8.8691,-0.9117 9.7559,-8.8621 7.0079,-11.61216 -3.8349,-3.8359 -13.7262,0.43594 -13.7262,11.73656 z"
       inkscape:connector-curvature="0" />
    <path
       sodipodi:nodetypes="cccccc"
       style="fill:#b4001e;fill-opacity:1;stroke:#000000;stroke-width:0.6;stroke-miterlimit:4;stroke-dasharray:none;stroke-opacity:1"
       id="path4481"
       d="m 330.5019,934.86224 c 0,0 -3.997,-11.07892 -4.002,-17.26074 0,-3.3966 1.5584,-6.71425 6,-11.69926 4.4416,4.98401 6.004,8.30166 6,11.69926 0,6.18182 -4.002,17.26074 -4.002,17.26074 z"
       inkscape:connector-curvature="0" />
    <path
       style="fill:#b4001e;fill-opacity:1;stroke:#000000;stroke-width:0.6;stroke-miterlimit:4;stroke-dasharray:none;stroke-opacity:1"
       d="m 260.48427,945.86184 c 0,2.764 5.3047,5.6867 7.0097,4.4804 0.9505,-0.6728 0.1709,-2.1432 -1.38279,-3.1972 8.87009,0.645 9.75779,6.2691 7.00979,8.2129 -3.8349,2.7132 -13.7266,-0.5108 -13.7266,-8.5 l -4.78899,0 c 0,7.9892 -9.8917,11.2132 -13.7266,8.5 -2.748,-1.9438 -1.8603,-7.5679 7.0098,-8.2129 -1.5537,1.054 -2.3333,2.5244 -1.3828,3.1972 1.705,1.2063 7.0097,-1.7164 7.0097,-4.4804 z"
       id="path4483"
       inkscape:connector-curvature="0"
       sodipodi:nodetypes="ccccccccccc" />
    <path
       sodipodi:nodetypes="cccccc"
       style="fill:#b4001e;fill-opacity:1;stroke:#000000;stroke-width:0.6;stroke-miterlimit:4;stroke-dasharray:none;stroke-opacity:1"
       id="path4485"
       d="m 255.00187,945.86224 c 0,0 -3.997,7.8487 -4.002,12.2193 0,2.4016 1.5584,4.7563 6,8.2807 4.4416,-3.5244 6.004,-5.8791 6,-8.2807 0,-4.3706 -4.002,-12.2193 -4.002,-12.2193 z"
       inkscape:connector-curvature="0" />
    <path
       sodipodi:nodetypes="cccsccsccc"
       inkscape:connector-curvature="0"
       id="path4487"
       d="m 256.99971,920.36231 c -1.94654,1.7446 -2.51953,4.50183 -2.51953,7.32813 -1.73259,-0.9328 -4.05092,-1.6382 -5.98047,-1.4883 2.20348,1.6526 4.42773,3.2291 4.42773,6.8262 0,1.5397 -0.73574,3.6432 -1.72851,4.8339 l 11.60156,0 c -0.99277,-1.1907 -1.72852,-3.2942 -1.72852,-4.8339 0,-3.5971 2.22426,-5.1736 4.42774,-6.8262 -1.92955,-0.1499 -4.24788,0.5555 -5.98047,1.4883 0,-2.8263 -0.57299,-5.58353 -2.51953,-7.32813 z"
       style="fill:#b4001e;fill-opacity:1;stroke:#000000;stroke-width:0.6;stroke-miterlimit:4;stroke-dasharray:none;stroke-opacity:1" />
    <path
       sodipodi:nodetypes="cccsccsccc"
       inkscape:connector-curvature="0"
       id="path4489"
       d="m 332.4998,960.36214 c 1.94654,-1.7446 2.51953,-4.5018 2.51953,-7.3282 1.73259,0.9328 4.05092,1.6382 5.98047,1.4883 -2.20348,-1.6526 -4.42773,-3.2291 -4.42773,-6.8262 0,-1.5397 0.73574,-3.6432 1.72851,-4.8339 l -11.60156,0 c 0.99277,1.1907 1.72852,3.2942 1.72852,4.8339 0,3.5971 -2.22426,5.1736 -4.42774,6.8262 1.92955,0.1499 4.24788,-0.5555 5.98047,-1.4883 0,2.8264 0.57299,5.5836 2.51953,7.3282 z"
       style="fill:#b4001e;fill-opacity:1;stroke:#000000;stroke-width:0.6;stroke-miterlimit:4;stroke-dasharray:none;stroke-opacity:1" />
    <path
       inkscape:connector-curvature="0"
       d="m 416.41379,942.88944 c 7.9908,7.9908 18.0056,4.0172 18.0049,-1.4069 0,-3.8877 -6.25029,-8.8825 -13.1671,-3.255 2.1516,-0.046 4.0412,0.7418 4.0419,2.0867 6.1e-4,2.4119 -6.0437,3.8713 -8.8081,1.1068 l -4.9265,4.9266 c 2.76441,2.7645 1.3043,8.808 -1.1069,8.8081 -1.3442,0 -2.1318,-1.8897 -2.0874,-4.0412 -5.6268,6.9161 -0.632,13.165 3.2557,13.1664 5.4241,7e-4 9.3977,-10.0141 1.4069,-18.0049 z"
       id="path4491"
       style="fill:#b4001e;fill-opacity:1;stroke:#000000;stroke-width:0.6;stroke-miterlimit:4;stroke-dasharray:none;stroke-opacity:1"
       sodipodi:nodetypes="ccccccccccc" />
    <path
       inkscape:connector-curvature="0"
       d="m 415.43489,942.47154 c 0,0 10.6603,5.0077 15.035,9.3753 2.4018,2.4018 3.6458,5.8497 4.03,12.5153 -6.6649,-0.3835 -10.1156,-1.6247 -12.5153,-4.03 -4.3711,-4.3712 -9.3753,-15.035 -9.3753,-15.035 z"
       id="path4493"
       style="fill:#b4001e;fill-opacity:1;stroke:#000000;stroke-width:0.6;stroke-miterlimit:4;stroke-dasharray:none;stroke-opacity:1"
       sodipodi:nodetypes="cccccc" />
    <path
       style="fill:#b4001e;fill-opacity:1;stroke:#000000;stroke-width:0.6;stroke-miterlimit:4;stroke-dasharray:none;stroke-opacity:1"
       d="m 390.7839,920.64607 c -0.14283,2.6101 1.40171,4.96477 3.4003,6.96337 -1.88484,0.5656 -4.02292,1.7061 -5.28127,3.1764 2.72669,-0.3895 5.41417,-0.8475 7.95774,1.6961 1.08872,1.0887 2.05592,3.0963 2.19583,4.6403 l 8.2036,-8.2036 c -1.544,-0.1399 -3.55159,-1.1071 -4.64042,-2.1958 -2.54346,-2.54357 -2.08549,-5.23107 -1.6959,-7.95767 -1.47037,1.2583 -2.61096,3.3964 -3.17649,5.2812 -1.99858,-1.9986 -4.35339,-3.5431 -6.96338,-3.4003 z"
       id="path4495"
       inkscape:connector-curvature="0"
       sodipodi:nodetypes="cccsccscccc" />
    <path
       sodipodi:nodetypes="ccccccccccc"
       style="fill:#b4001e;fill-opacity:1;stroke:#000000;stroke-width:0.6;stroke-miterlimit:4;stroke-dasharray:none;stroke-opacity:1"
       id="path4501"
       d="m 97.586038,942.88954 c -7.9908,7.9908 -18.0056,4.0172 -18.0049,-1.4069 0,-3.8877 6.25029,-8.8825 13.1671,-3.255 -2.1516,-0.046 -4.0412,0.7418 -4.0419,2.0867 -6.1e-4,2.4119 6.0437,3.8713 8.8081,1.1068 l 4.926502,4.9266 c -2.764412,2.7645 -1.3043,8.808 1.1069,8.8081 1.3442,0 2.1318,-1.8897 2.0874,-4.0412 5.6268,6.9161 0.632,13.165 -3.2557,13.1664 -5.424102,7e-4 -9.397702,-10.0141 -1.4069,-18.0049 z"
       inkscape:connector-curvature="0" />
    <path
       sodipodi:nodetypes="cccccc"
       style="fill:#b4001e;fill-opacity:1;stroke:#000000;stroke-width:0.6;stroke-miterlimit:4;stroke-dasharray:none;stroke-opacity:1"
       id="path4503"
       d="m 98.564938,942.47164 c 0,0 -10.6603,5.0077 -15.035,9.3753 -2.4018,2.4018 -3.6458,5.8497 -4.03,12.5153 6.6649,-0.3835 10.1156,-1.6247 12.5153,-4.03 4.3711,-4.3712 9.375302,-15.035 9.375302,-15.035 z"
       inkscape:connector-curvature="0" />
    <path
       sodipodi:nodetypes="cccsccsccc"
       inkscape:connector-curvature="0"
       id="path4505"
       d="m 123.21593,920.64617 c 0.14283,2.6101 -1.40171,4.96477 -3.4003,6.96337 1.88484,0.5656 4.02292,1.7061 5.28127,3.1764 -2.72669,-0.3895 -5.41417,-0.8475 -7.95774,1.6961 -1.08872,1.0887 -2.05592,3.0963 -2.19583,4.6403 l -8.2036,-8.2036 c 1.544,-0.1399 3.55159,-1.1071 4.64042,-2.1958 2.54346,-2.54357 2.08549,-5.23107 1.6959,-7.95767 1.47037,1.2583 2.61096,3.3964 3.17649,5.2812 1.99858,-1.9986 4.35339,-3.5431 6.96339,-3.4003 z"
       style="fill:#b4001e;fill-opacity:1;stroke:#000000;stroke-width:0.6;stroke-miterlimit:4;stroke-dasharray:none;stroke-opacity:1" />
    <path
       sodipodi:nodetypes="cccccccccc"
       style="fill:#b4001e;fill-opacity:1;stroke:#000000;stroke-width:0.6;stroke-miterlimit:4;stroke-dasharray:none;stroke-opacity:1"
       id="path4517"
       d="m 407.99992,764.86243 -301.99998,0 0,172.99981 301.99998,0 z m -296.99998,5 291.99998,0 0,162.99981 -291.99998,0 z"
       inkscape:connector-curvature="0" />
    <path
       sodipodi:nodetypes="cccccccccc"
       inkscape:connector-curvature="0"
       d="m 417.99992,754.86243 -321.999982,0 0,192.99981 321.999982,0 z m -316.99998,5 311.99998,0 0,182.99981 -311.99998,0 z"
       id="path4519"
       style="fill:#b4001e;fill-opacity:1;stroke:#000000;stroke-width:0.6;stroke-miterlimit:4;stroke-dasharray:none;stroke-opacity:1" />
    <g
       id="g13890"
       style="fill:#b4001e;fill-opacity:1;stroke-width:1.80372131;stroke-miterlimit:4;stroke-dasharray:none"
       transform="matrix(0.54564221,0,0,0.54455934,52.052078,602.61669)">
      <path
         inkscape:connector-curvature="0"
         sodipodi:nodetypes="cccc"
         id="path8484"
         d="m 291.51895,367.8708 -2.60203,-6.93137 c -2.8009,2.83255 -7.64321,3.01191 -11.94245,1.26523 3.01369,7.08795 10.25045,6.78838 14.54448,5.66614 z"
         style="fill:#1e82d2;fill-opacity:1;fill-rule:evenodd;stroke:#000000;stroke-width:1.46763563;stroke-linecap:butt;stroke-linejoin:miter;stroke-miterlimit:4;stroke-dasharray:none;stroke-opacity:1" />
      <path
         inkscape:connector-curvature="0"
         sodipodi:nodetypes="cccc"
         id="path8482"
         d="m 309.51675,337.83123 -7.70491,0.1863 c 1.74367,-3.69568 0.15795,-8.29925 -3.10841,-11.66513 8.00725,0.14001 10.34637,7.03192 10.81332,11.47883 z"
         style="fill:#1e82d2;fill-opacity:1;fill-rule:evenodd;stroke:#000000;stroke-width:1.46763563;stroke-linecap:butt;stroke-linejoin:miter;stroke-miterlimit:4;stroke-dasharray:none;stroke-opacity:1" />
      <path
         inkscape:connector-curvature="0"
         sodipodi:nodetypes="csssscccccsccccccssccssc"
         id="path8486"
         d="m 296.875,355.21875 c -3.98252,5.53819 -6.73302,0.73692 -10.03125,5.875 -0.69287,1.07938 1.48704,1.66431 2.4375,3.0625 1.01154,1.488 1.14862,6.10849 2.09375,5.15625 6.29894,-6.3463 5.9764,-6.88186 11.1875,-3.9375 4.86643,2.74961 4.77432,12.47347 7.15625,16.90625 0.34392,-4.71592 2.38876,-5.93342 3.04501,-3.47248 0.65625,2.46094 -1.1875,11.26563 -0.28125,13.59375 2.43262,-3.91611 3.76749,-4.55877 3.76749,-4.55877 0,0 -2.61461,13.66055 -1.40367,15.59805 1.83536,-5.1393 5.13734,-6.46044 6.24742,-7.84805 1.11008,-1.38761 -3.98104,9.89857 -2.7824,15.34317 3.22239,-6.37941 5.12615,-7.28067 5.12615,-7.28067 0,0 -2.24219,9.22851 -0.75058,14.22563 1.9079,-5.5487 3.52553,-5.33801 4.21933,-6.72563 -1.45698,10.75396 12.78126,21.37501 12.78125,21.375 l 25.65625,-22.0625 C 352.65463,400.61343 341.62563,400.03269 333.3125,377.15625 330.50578,369.4326 321.66121,360.011 313.40625,354.5625 303.2602,347.86583 314.40543,341.11168 309.4375,336 c -0.38597,-0.19832 -0.64079,-0.2609 -0.875,-0.25 -0.70264,0.0327 -1.04761,0.74408 -2.84375,0.75 -2.52079,0.008 -5.66398,-1.74 -5.25,1.34375 0.48452,3.60917 -0.0153,6.32194 1.59375,8.34375"
         style="fill:#b4001e;fill-opacity:1;fill-rule:evenodd;stroke:#000000;stroke-width:1.65109003;stroke-linecap:butt;stroke-linejoin:miter;stroke-miterlimit:4;stroke-dasharray:none;stroke-opacity:1" />
      <path
         inkscape:connector-curvature="0"
         style="fill:#1e82d2;fill-opacity:1;fill-rule:evenodd;stroke:#000000;stroke-width:1.46763563;stroke-linecap:butt;stroke-linejoin:miter;stroke-miterlimit:4;stroke-dasharray:none;stroke-opacity:1"
         d="m 296.22287,334.98681 -4.84167,6.00839 c -1.09082,-3.93808 -4.03136,-5.80509 -8.70287,-6.22356 5.41685,-5.63812 10.28852,-2.84935 13.54454,0.21517 z"
         id="path8488"
         sodipodi:nodetypes="cccc" />
      <path
         inkscape:connector-curvature="0"
         sodipodi:nodetypes="csssc"
         id="path8490"
         d="m 303.6535,347.99911 c -4.80992,-4.7068 0.24225,-10.00367 -7.66571,-14.40216 -1.87609,-1.04351 -0.97118,2.79322 -2.46474,4.35006 -1.3191,1.37499 -5.59676,2.74318 -3.56865,4.14451 4.39785,3.03869 5.0789,2.46031 9.26626,8.75243"
         style="fill:#b4001e;fill-opacity:1;fill-rule:evenodd;stroke:#000000;stroke-width:1.65107167;stroke-linecap:butt;stroke-linejoin:miter;stroke-miterlimit:4;stroke-dasharray:none;stroke-opacity:1" />
      <path
         inkscape:connector-curvature="0"
         style="fill:#1e82d2;fill-opacity:1;fill-rule:evenodd;stroke:#000000;stroke-width:1.46763563;stroke-linecap:butt;stroke-linejoin:miter;stroke-miterlimit:4;stroke-dasharray:none;stroke-opacity:1"
         d="m 288.70025,341.55178 -2.08363,7.42017 c -3.02103,-2.75169 -7.88728,-2.58717 -12.06368,-0.45275 2.48431,-7.61339 9.75923,-7.82639 14.14731,-6.96742 z"
         id="path8492"
         sodipodi:nodetypes="cccc" />
      <path
         inkscape:connector-curvature="0"
         style="fill:#b4001e;fill-opacity:1;fill-rule:evenodd;stroke:#000000;stroke-width:1.65107167;stroke-linecap:butt;stroke-linejoin:miter;stroke-miterlimit:4;stroke-dasharray:none;stroke-opacity:1"
         d="m 300.98251,350.10673 c -4.24193,-2.173 -13.27155,-12.93001 -14.55439,-10.15595 -0.90107,1.94853 0.4554,3.3364 0.0754,4.9635 -0.43332,1.85549 -2.51423,4.66623 -0.41817,5.96371 2.6019,1.61059 5.68298,-4.59555 10.77688,4.3435"
         id="path8494"
         sodipodi:nodetypes="csssc" />
    </g>
    <g
       id="g10292"
       style="fill:#b4001e;fill-opacity:1;stroke-width:1.80372131;stroke-miterlimit:4;stroke-dasharray:none"
       transform="matrix(0.54564221,0,0,0.54455934,52.052078,602.61669)">
      <path
         inkscape:connector-curvature="0"
         sodipodi:nodetypes="cccc"
         id="path8465"
         d="m 276.13406,451.11148 -1.80389,7.49308 c -3.12211,-2.63646 -7.97875,-2.28955 -12.07219,0 2.19705,-7.70122 9.45886,-8.18689 13.87608,-7.49308 z"
         style="fill:#1e82d2;fill-opacity:1;fill-rule:evenodd;stroke:#000000;stroke-width:1.46763563;stroke-linecap:butt;stroke-linejoin:miter;stroke-miterlimit:4;stroke-dasharray:none;stroke-opacity:1" />
      <path
         inkscape:connector-curvature="0"
         style="fill:#1e82d2;fill-opacity:1;fill-rule:evenodd;stroke:#000000;stroke-width:1.46763563;stroke-linecap:butt;stroke-linejoin:miter;stroke-miterlimit:4;stroke-dasharray:none;stroke-opacity:1"
         d="m 268.68329,467.38598 4.0254,6.5724 c -4.07179,0.34497 -7.25924,4.02566 -8.53304,8.53961 -3.89473,-6.99763 0.89462,-12.47778 4.50764,-15.11201 z"
         id="path8467"
         sodipodi:nodetypes="cccc" />
      <path
         inkscape:connector-curvature="0"
         sodipodi:nodetypes="cccc"
         id="path8469"
         d="m 282.43597,476.84877 6.39132,4.30714 c -3.5608,2.00479 -4.93185,6.67679 -4.21601,11.31207 -6.44903,-4.74823 -4.36806,-11.72243 -2.17531,-15.61921 z"
         style="fill:#1e82d2;fill-opacity:1;fill-rule:evenodd;stroke:#000000;stroke-width:1.46763563;stroke-linecap:butt;stroke-linejoin:miter;stroke-miterlimit:4;stroke-dasharray:none;stroke-opacity:1" />
      <path
         inkscape:connector-curvature="0"
         sodipodi:nodetypes="cssssscssscssssccccccccccccccccccsccc"
         id="path7564"
         d="m 362.99835,407.40181 c -30.57364,21.87796 -42.72191,29.11899 -62.16486,43.43214 -3.97961,2.92963 -10.46508,5.06199 -15.12492,4.57911 -4.26711,-0.44219 -9.95912,-8.37461 -13.04352,-6.03609 -1.38316,1.04868 0.62742,2.30698 0.49193,4.91826 -0.13548,2.61128 -3.50403,3.64843 -1.6714,4.93376 2.90693,2.03878 8.53379,0.64754 11.51715,1.17946 -5.52731,3.83905 -17.90743,4.51275 -18.1083,7.56247 -0.14108,2.14214 3.52782,1.95554 4.44036,3.46902 0.98386,1.63176 0.99142,4.98635 3.12211,3.74655 4.25529,-2.47607 7.09993,-9.32011 14.36175,-9.36636 0.43941,7.40058 -6.49797,9.6956 -6.79928,13.04352 -0.11497,1.27744 4.02244,-0.0616 5.41167,0.90194 1.47849,1.02541 3.02859,4.55535 3.81592,3.46902 2.8667,-3.95532 -0.58385,-15.52701 7.28495,-18.94085 4.14749,-1.79937 1.75763,10.17579 2.63645,15.12493 3.60778,-3.37651 6.45238,-7.58559 8.32565,-13.4598 0.99445,1.94265 1.22572,3.8853 1.11009,5.82795 1.68826,-2.86772 2.19705,-5.73545 2.77522,-8.60317 0,0 2.15079,3.67716 2.22017,5.55043 1.38761,-1.31823 1.66513,-8.88069 1.66513,-8.88069 0,0 1.11009,5.55044 4.71787,7.07681 -0.41628,-2.4977 0.55504,-7.90937 0.55504,-7.90937 0,0 3.81593,7.49309 9.43574,8.32565 -2.8446,-3.12212 -3.33026,-9.15822 -3.33026,-9.15822 0,0 5.13415,5.48106 7.21556,6.10548 -1.80389,-4.44035 1.11009,-7.49309 1.11009,-7.49309 0,0 2.08141,4.44034 7.90936,4.50973 -3.95468,-3.05274 -2.91397,-5.61981 -2.91397,-5.61981 0,0 6.45238,4.30158 9.71326,4.16282 -1.59575,-3.88531 3.33026,-4.71787 3.33026,-4.71787 0,0 1.94265,2.08141 1.17946,5.41168 2.77522,-2.28956 7.70123,-8.18689 7.70123,-8.18689 3.00649,5.4348 9.32589,14.52941 19.22705,15.70599 5.90862,0.70213 11.38128,-0.56951 17.89148,4.62246 l -6.0361,-67.22962 -29.97234,1.94265 z"
         style="fill:#b4001e;fill-opacity:1;fill-rule:evenodd;stroke:#000000;stroke-width:1.65109003;stroke-linecap:butt;stroke-linejoin:miter;stroke-miterlimit:4;stroke-dasharray:none;stroke-opacity:1" />
    </g>
    <g
       id="g10298"
       style="fill:#b4001e;fill-opacity:1;stroke-width:1.80372131;stroke-miterlimit:4;stroke-dasharray:none"
       transform="matrix(0.54564221,0,0,0.54455934,52.052078,602.61669)">
      <path
         inkscape:connector-curvature="0"
         style="fill:#1e82d2;fill-opacity:1;fill-rule:evenodd;stroke:#000000;stroke-width:1.46763563;stroke-linecap:butt;stroke-linejoin:miter;stroke-miterlimit:4;stroke-dasharray:none;stroke-opacity:1"
         d="m 315.11745,507.74975 -5.07522,5.80022 c -1.54204,-3.78425 -6.00503,-5.73081 -10.6935,-5.60238 5.52007,-5.80212 12.17795,-2.86231 15.76872,-0.19784 z"
         id="path8471"
         sodipodi:nodetypes="cccc" />
      <path
         inkscape:connector-curvature="0"
         style="fill:#1e82d2;fill-opacity:1;fill-rule:evenodd;stroke:#000000;stroke-width:1.46763563;stroke-linecap:butt;stroke-linejoin:miter;stroke-miterlimit:4;stroke-dasharray:none;stroke-opacity:1"
         d="m 313.37669,535.23662 5.45565,5.44392 c -3.87705,1.29108 -6.11151,5.61712 -6.29018,10.30394 -5.42844,-5.88794 -2.05922,-12.33916 0.83453,-15.74786 z"
         id="path8477"
         sodipodi:nodetypes="cccc" />
      <path
         inkscape:connector-curvature="0"
         sodipodi:nodetypes="csssscccccccccsccsssccccccccccssssc"
         id="path8457"
         d="m 319.3125,528.25 c -0.33662,7.40596 -5.67635,1.2785 -9.65625,8.53125 -0.61702,1.12445 4.28161,-0.1972 5.5625,0.90625 1.36321,1.17432 2.47942,5.55839 3.5,4.6875 6.94164,-5.92352 2.12265,-12.37933 8.0625,-11.4375 3.75908,0.59605 2.83506,8.77733 7.82568,11.39679 0.25469,-4.18615 1.96637,-5.25019 3.95557,-7.14679 2.17833,4.30543 4.07913,8.26395 8.61639,11.04301 0.18779,-3.25688 1.48568,-5.68119 3.47736,-8.10551 0,0 5.43377,10.5696 8.3125,11.78125 -0.31277,-3.71436 4.3125,-11.375 4.3125,-11.375 0,0 3.02112,5.53266 4.01491,8.1207 1.65284,-1.3921 5.77322,-7.21015 5.77322,-7.21015 7.00458,2.28764 11.51146,0.75935 13.24312,-5.34805 -24.10272,8.27926 -19.68089,-27.71755 -0.0138,-27.26691 6.50603,0.1496 12.92001,1.32941 12.92001,1.32941 L 400.3125,478.875 c 0,0 -9.97843,0.91091 -17.12185,0.28125 -7.3875,-0.65117 -3.78125,-3.7017 -11.9375,-4.1875 -8.32361,-0.50002 -16.16933,11.87468 -22.00573,10.50058 -4.63174,-1.09049 -11.79182,-3.04801 -5.68492,-14.25058 -6.56831,4.46264 -9.80635,8.71713 -4.71875,16.09375 -5.59337,-0.20041 -11.74178,-2.89852 -15.53125,-8.71875 1.59367,9.53037 6.30946,14.55101 15.8125,14.4375 -2.61631,5.435 -6.27333,8.92735 -13.46875,8.1875 7.17593,4.01918 10.74408,2.62669 17.78125,-4.59375 0.18673,2.42355 -0.59786,4.70833 -1.9375,7.0625 3.375,-0.89526 6.75,-1.30485 10.125,-0.8125 -1.71233,7.1659 4.69284,12.181 4.4375,19 l -25.125,-0.9375 c -6.20671,-0.13888 -7.52853,-3.23193 -11.375,-5.90625 -2.67114,-1.85716 -2.09429,-11.25328 -5.40625,-9.25 -1.48519,0.89835 -0.32239,2.84359 -1.96875,4.875 -1.58719,1.95838 -5.32546,-0.37051 -4.125,2.5 1.405,3.35959 4.20241,4.74657 6.28125,6.28125"
         style="fill:#b4001e;fill-opacity:1;fill-rule:evenodd;stroke:#000000;stroke-width:1.65107167;stroke-linecap:butt;stroke-linejoin:miter;stroke-miterlimit:4;stroke-dasharray:none;stroke-opacity:1" />
      <path
         inkscape:connector-curvature="0"
         sodipodi:nodetypes="cccc"
         id="path8473"
         d="m 307.59392,513.06691 -1.11397,7.63554 c -2.94169,-2.83634 -6.42304,-2.9488 -10.65836,-0.9338 1.79751,-7.60918 7.41041,-7.68494 11.77233,-6.70174 z"
         style="fill:#1e82d2;fill-opacity:1;fill-rule:evenodd;stroke:#000000;stroke-width:1.46763563;stroke-linecap:butt;stroke-linejoin:miter;stroke-miterlimit:4;stroke-dasharray:none;stroke-opacity:1" />
      <path
         inkscape:connector-curvature="0"
         style="fill:#b4001e;fill-opacity:1;fill-rule:evenodd;stroke:#000000;stroke-width:1.65107167;stroke-linecap:butt;stroke-linejoin:miter;stroke-miterlimit:4;stroke-dasharray:none;stroke-opacity:1"
         d="m 319.75673,521.93928 c -6.36456,-2.18671 -6.59755,-10.245 -15.62795,-10.82354 -2.14238,-0.13725 1.55015,3.58498 0.86938,5.63218 -0.60125,1.80807 -3.39985,4.26874 -0.96659,4.66393 5.2764,0.85694 5.86598,1.3191 12.34868,5.20488"
         id="path8459"
         sodipodi:nodetypes="csssc" />
      <path
         inkscape:connector-curvature="0"
         sodipodi:nodetypes="cccc"
         id="path8475"
         d="m 304.73225,521.2581 -0.0856,7.70669 c -3.63188,-1.87292 -8.28852,-0.45055 -11.7675,2.69506 0.42233,-7.99733 7.39245,-10.09192 11.85306,-10.40175 z"
         style="fill:#1e82d2;fill-opacity:1;fill-rule:evenodd;stroke:#000000;stroke-width:1.46763563;stroke-linecap:butt;stroke-linejoin:miter;stroke-miterlimit:4;stroke-dasharray:none;stroke-opacity:1" />
      <path
         inkscape:connector-curvature="0"
         sodipodi:nodetypes="csssc"
         id="path8453"
         d="m 318.12343,524.4583 c -4.75357,-0.54102 -15.19364,-7.96447 -15.71221,-4.95246 -0.36424,2.11566 0.94514,3.63184 1.00065,5.3018 0.0633,1.90437 -2.19978,5.66016 -0.13124,7.00108 2.13188,1.38197 2.34614,-3.80898 16.02537,-3.54683"
         style="fill:#b4001e;fill-opacity:1;fill-rule:evenodd;stroke:#000000;stroke-width:1.65107167;stroke-linecap:butt;stroke-linejoin:miter;stroke-miterlimit:4;stroke-dasharray:none;stroke-opacity:1" />
    </g>
    <path
       inkscape:connector-curvature="0"
       sodipodi:nodetypes="cccc"
       id="path8496"
       d="m 275.66965,909.04282 0.55867,4.15981 c -2.10812,-0.72476 -4.51089,0.40647 -6.14256,2.37417 -0.39962,-4.34287 3.19961,-6.01761 5.58389,-6.53398 z"
       style="fill:#1e82d2;fill-opacity:1;fill-rule:evenodd;stroke:#000000;stroke-width:0.80000001;stroke-linecap:butt;stroke-linejoin:miter;stroke-miterlimit:4;stroke-dasharray:none;stroke-opacity:1" />
    <path
       inkscape:connector-curvature="0"
       sodipodi:nodetypes="cccc"
       id="path8498"
       d="m 292.46593,914.26272 -3.66221,2.06309 c 1.85041,1.24151 2.39472,3.8368 1.80548,6.32227 3.7126,-2.30001 2.88141,-6.17561 1.85673,-8.38536 z"
       style="fill:#1e82d2;fill-opacity:1;fill-rule:evenodd;stroke:#000000;stroke-width:0.80000001;stroke-linecap:butt;stroke-linejoin:miter;stroke-miterlimit:4;stroke-dasharray:none;stroke-opacity:1" />
    <path
       inkscape:connector-curvature="0"
       style="fill:#b4001e;fill-opacity:1;fill-rule:evenodd;stroke:#000000;stroke-width:0.89999998;stroke-linecap:butt;stroke-linejoin:miter;stroke-miterlimit:4;stroke-dasharray:none;stroke-opacity:1"
       d="m 280.82967,911.84128 c -1.32203,0.4891 -3.31534,3.15332 -5.26888,2.79093 -1.66913,-0.30967 0.40231,-2.1812 -0.017,-3.48855 -0.43499,-1.35615 -0.98887,-1.89737 -0.95487,-2.84194 0.0758,-2.10646 4.15118,0.50947 5.79746,-0.15318 2.37066,-0.95421 1.98891,-1.19625 3.02183,-3.83872 0.97527,-2.49519 2.82688,-2.10144 3.08896,-5.26561 0.26204,-3.16413 -2.07855,-7.80666 -2.07855,-7.80666 -3.96159,6.46867 -7.96105,5.94777 -11.27907,2.13983 0,0 -2.49641,4.91894 3.29402,7.26165 -2.57589,2.15372 -6.32914,-2.1224 -6.32914,-2.1224 0,0 -0.81224,2.61741 -0.17834,5.36659 -2.31895,-0.61336 -2.73744,-6.76202 -2.73744,-6.76202 -1.25455,0.61026 -1.94126,2.80729 -2.2872,4.77778 -1.63311,-3.92356 0.14089,-8.30049 5.47344,-10.33502 0.023,-4.58402 -5.37412,-11.45362 -5.23067,-15.67882 0.29677,-8.587 6.87221,-12.48611 -4.41802,-23.45182 l 2.11434,-24.7094 c 9.16137,7.80192 16.24204,22.02698 18.17673,26.13888 10.52834,22.37636 29.84977,4.98614 25.20184,-4.98613 -4.17629,-8.9604 -17.09241,-4.90836 -8.25283,1.51452 -5.69744,3.13593 -6.95694,-2.41647 -6.95694,-2.41647 0,0 -4.42644,1.36082 -1.73925,9.35963 -7.79915,-5.716 -0.68611,-12.27475 -0.68611,-12.27475 0,0 -5.2065,-0.87209 -4.08825,-6.08712 1.76184,3.21033 6.1385,3.77788 6.1385,3.77788 0.23761,-2.3417 2.06522,-3.02097 3.325,-3.62472 0,0 -4.31181,-7.05382 2.6051,-9.10325 -3.11518,5.73358 0.98552,8.00833 0.98552,8.00833 3.85152,0.45346 7.24874,2.22929 9.28312,6.23419 0,4e-5 -0.13764,-12.01835 -12.1917,-20.77835 -13.4392,-9.76657 -13.77843,-27.97772 -4.31399,-36.41739 1.09575,-0.97714 4.09745,-2.57952 7.78684,-2.65475 5.1658,-0.52858 7.68028,-3.30563 7.5764,-6.10926 3.41683,2.63695 -0.0797,6.41824 -0.0797,6.41824 3.19335,2.19299 4.03957,6.12386 6.36217,7.71235 2.68748,0.40823 5.11261,0.35484 6.88874,-1.82087 -0.28717,2.32103 -2.27791,5.35994 -4.7986,4.65841 0.34188,2.10059 0.19167,4.20109 -1.54857,5.65934 0.57741,1.82622 1.23051,3.84136 4.00363,4.34524 -2.92651,2.69493 -5.62589,0.47825 -6.73527,-2.56965 0,0 -4.71283,5.44645 -2.04208,10.77174 -5.20349,0.86709 -4.38625,-8.81475 -4.38625,-8.81475 0,0 -0.80699,5.05844 -0.0387,8.02136 -4.17876,-1.44813 -4.90636,-6.8123 -2.46649,-10.47012 1.46343,-2.19403 5.02841,-7.2454 5.02841,-7.2454 0,0 -3.95818,3.93831 -6.02146,6.63961 -1.60901,-3.79714 -0.32166,-7.78172 1.2133,-10.98483 0.41641,-0.86901 -0.24955,-3.99366 -3.51838,-3.81974 -2.04921,0.10904 -13.17216,7.91704 -8.05947,22.77722 2.04362,5.93991 12.11456,12.93743 19.54082,23.34797 6.49838,9.1098 3.52639,27.55842 -4.55271,33.40531 -6.44003,4.66068 -17.46857,3.3894 -22.03033,0.44245 -0.54892,4.45824 -0.15346,8.9172 -0.15346,8.9172 2.63723,5.04097 10.23373,3.54587 14.30951,-2.70989 -0.78429,4.51879 0.5514,6.01499 3.62848,6.11329 -2.88733,2.20475 -0.96684,6.10957 3.71722,6.50071 -0.99925,2.49249 -3.73994,1.50893 -5.6099,2.26336 0,0 0.10282,1.82473 4.02412,2.1272 -0.24301,1.28481 -4.99604,3.01205 -4.99604,3.01205 0,0 0.32431,1.89448 4.46744,3.0291 -0.74039,1.13473 -5.76335,2.41655 -5.76335,2.41655 0,0 0.76133,1.43479 4.09232,1.73575 -0.37899,1.96339 -8.03117,2.94404 -8.03117,2.94404 0,0 3.61485,2.54988 5.5287,2.9844 -2.55327,2.02141 -6.80755,1.47417 -6.80755,1.47417 -0.34478,0.78759 -0.0501,0.14438 -0.25578,2.16118 -0.42281,4.14828 3.91385,2.08782 3.44438,5.58178 -0.0974,0.72405 -1.85284,0.18886 -2.79642,0.45946 -0.88663,0.25428 -1.63448,3.51701 -2.4554,2.82491 -3.44824,-2.90737 0.82437,-4.05242 -2.45538,-6.41555"
       id="path11197"
       sodipodi:nodetypes="cssssssccccccccsccssccccccccccssccccccccccccsccsssssccccccccccccccssssc" />
    <path
       inkscape:connector-curvature="0"
       style="fill:#1e82d2;fill-opacity:1;fill-rule:evenodd;stroke:#000000;stroke-width:0.80000001;stroke-linecap:butt;stroke-linejoin:miter;stroke-miterlimit:4;stroke-dasharray:none;stroke-opacity:1"
       d="m 274.75532,916.4295 2.82909,2.50822 c -1.95131,0.44453 -2.93155,1.84206 -3.24254,4.12052 -2.63485,-2.78151 -1.15977,-5.10388 0.41345,-6.62874 z"
       id="path8502"
       sodipodi:nodetypes="cccc" />
    <path
       inkscape:connector-curvature="0"
       sodipodi:nodetypes="csssc"
       id="path8504"
       d="m 280.31095,911.05119 c -2.90092,2.24683 -4.94005,1.89345 -6.82123,5.71303 -0.37765,0.76684 1.38052,0.13686 2.1114,1.05789 0.64552,0.81334 1.00769,2.67133 1.91555,1.68076 1.96866,-2.14793 2.68484,-5.5848 6.39663,-7.37847"
       style="fill:#b4001e;fill-opacity:1;fill-rule:evenodd;stroke:#000000;stroke-width:0.89999998;stroke-linecap:butt;stroke-linejoin:miter;stroke-miterlimit:4;stroke-dasharray:none;stroke-opacity:1" />
    <path
       inkscape:connector-curvature="0"
       style="fill:#1e82d2;fill-opacity:1;fill-rule:evenodd;stroke:#000000;stroke-width:0.80000001;stroke-linecap:butt;stroke-linejoin:miter;stroke-miterlimit:4;stroke-dasharray:none;stroke-opacity:1"
       d="m 278.29788,918.11897 3.65567,2.07469 c -1.85433,1.23563 -2.40683,3.82921 -1.82541,6.31658 -3.70536,-2.31174 -2.86193,-6.18462 -1.83026,-8.39127 z"
       id="path8506"
       sodipodi:nodetypes="cccc" />
    <path
       inkscape:connector-curvature="0"
       style="fill:#b4001e;fill-opacity:1;fill-rule:evenodd;stroke:#000000;stroke-width:0.89999998;stroke-linecap:butt;stroke-linejoin:miter;stroke-miterlimit:4;stroke-dasharray:none;stroke-opacity:1"
       d="m 283.36176,911.75031 c -1.66814,2.00396 -7.54859,6.33359 -6.32882,7.46852 0.85677,0.79731 2.05387,-0.10299 2.83272,0.37061 0.88816,0.5394 1.28227,2.16196 2.51276,1.61984 1.26816,-0.55884 -1.52927,-5.49233 3.96728,-9.00082"
       id="path8508"
       sodipodi:nodetypes="csssc" />
    <path
       inkscape:connector-curvature="0"
       style="fill:none;fill-opacity:1;fill-rule:evenodd;stroke:#000000;stroke-width:0.89999998;stroke-linecap:butt;stroke-linejoin:miter;stroke-miterlimit:4;stroke-dasharray:none;stroke-opacity:1"
       d="m 270.71349,880.53924 c 2.42283,4.60946 5.98137,4.08058 5.98137,4.08058"
       id="path11199" />
    <path
       inkscape:connector-curvature="0"
       style="fill:none;fill-opacity:1;fill-rule:evenodd;stroke:#000000;stroke-width:0.89999998;stroke-linecap:butt;stroke-linejoin:miter;stroke-miterlimit:4;stroke-dasharray:none;stroke-opacity:1"
       d="m 286.91623,882.65501 c 1.96856,0.83127 4.84569,-1.51124 4.84569,-1.51124 l 0,5.06282"
       id="path11201" />
    <rect
       style="fill:#b4001e;fill-opacity:1;fill-rule:nonzero;stroke:none;stroke-width:1;stroke-linecap:round;stroke-linejoin:miter;stroke-miterlimit:4;stroke-dasharray:none;stroke-dashoffset:0;stroke-opacity:1"
       id="rect11205"
       width="6.7992849"
       height="28.372126"
       x="257.74387"
       y="825.23352" />
    <path
       inkscape:connector-curvature="0"
       sodipodi:nodetypes="cccc"
       id="path14804"
       d="m 249.83421,813.75923 c 0,0 0.62896,-3.83291 1.43341,-3.90691 -0.42418,2.08666 1.36799,4.6657 1.36799,4.6657 l -2.8014,-0.75879 z"
       style="fill:#ffffff;fill-opacity:1;fill-rule:evenodd;stroke:#000000;stroke-width:0.40000001;stroke-linecap:butt;stroke-linejoin:miter;stroke-miterlimit:4;stroke-dasharray:none;stroke-opacity:1" />
    <path
       inkscape:connector-curvature="0"
       style="fill:#1e82d2;fill-opacity:1;fill-rule:evenodd;stroke:#000000;stroke-width:0.60000002;stroke-linecap:butt;stroke-linejoin:miter;stroke-miterlimit:4;stroke-dasharray:none;stroke-opacity:1"
       d="m 260.11353,806.67596 c -18.25647,0.42341 -17.61288,-3.26811 -17.14915,-8.27423 -3.81409,0.58566 -3.37754,10.39323 2.15784,10.50335 5.12089,0.10187 14.68848,0 14.68848,0 l 0.30283,-2.22912 z"
       id="path14806"
       sodipodi:nodetypes="ccscc" />
    <path
       inkscape:connector-curvature="0"
       style="fill:#ffffff;fill-opacity:1;fill-rule:evenodd;stroke:#000000;stroke-width:0.40000001;stroke-linecap:butt;stroke-linejoin:miter;stroke-miterlimit:4;stroke-dasharray:none;stroke-opacity:1"
       d="m 249.27307,800.6658 c 0,0 0.81392,4.8927 1.85498,4.98718 -0.54892,-2.66362 1.47642,-4.79829 1.47642,-4.79829 l -3.3314,-0.18889 z"
       id="path14802"
       sodipodi:nodetypes="cccc" />
    <path
       inkscape:connector-curvature="0"
       style="fill:#b4001e;fill-opacity:1;fill-rule:evenodd;stroke:#000000;stroke-width:0.89999998;stroke-linecap:butt;stroke-linejoin:miter;stroke-miterlimit:4;stroke-dasharray:none;stroke-opacity:1"
       d="m 235.90065,824.75244 c 2.41483,6.06698 10.92168,2.84971 16.38254,4.27452 l 17.56037,-2.77845 7.51095,2.88758 c -0.70939,-4.41703 0.12636,-10.34609 0.0676,-14.87563 -0.0752,-5.7977 -0.60572,-9.59659 -0.60572,-9.59659 -0.0713,-2.17285 -0.95874,-4.18709 -2.31501,-5.50506 0,0 3.27919,-1.32244 2.40919,-3.36619 -1.13767,1.32242 -4.979,1.65638 -4.979,1.65638 0.49968,-2.76065 -2.15936,-5.46784 -5.67501,-6.6255 0,0 1.78013,-2.93876 -0.80304,-3.95395 -0.70938,2.03039 -3.3729,4.22107 -3.3729,4.22107 0,0 -3.49844,-0.4551 -6.42453,1.28236 -1.10901,0.65853 -2.63091,1.84294 -5.523,2.08348 -1.02866,0.0864 -2.67966,-0.0915 -2.9895,0.40109 -0.20342,0.32348 -0.80304,0.0535 0.0134,1.83004 0.5682,1.23642 0.46845,4.6886 0.14723,6.10454 0,0 1.17485,0.78726 4.17592,0.53434 3.01151,-0.25383 7.50867,-0.46756 7.50867,-0.46756 0,0 -1.99177,1.61758 -0.69598,4.00737 2.90047,5.34936 -5.11732,8.10823 -9.70372,4.84891 0.62463,2.29756 0.12492,3.68678 -1.49904,4.96911 4.39007,-1.37138 9.15494,-0.0179 12.68844,-1.8701 0,0 2.3636,5.53565 -4.06889,4.86229 -3.82794,-0.40078 -13.19139,6.05807 -19.80894,5.07595 z"
       id="path14798"
       sodipodi:nodetypes="ccccscccccccsssscscscccsc" />
    <path
       inkscape:connector-curvature="0"
       style="fill:#b4001e;fill-opacity:1;fill-rule:evenodd;stroke:#000000;stroke-width:0.89999998;stroke-linecap:butt;stroke-linejoin:miter;stroke-miterlimit:4;stroke-dasharray:none;stroke-opacity:1"
       d="m 276.81636,804.66387 c 0.27816,2.20515 0.92545,4.65524 4.03059,4.23307 -4.1549,5.78202 -7.48937,0.11578 -8.81636,-1.58754"
       id="path12989"
       sodipodi:nodetypes="ccc" />
    <path
       inkscape:connector-curvature="0"
       style="fill:#b4001e;fill-opacity:1;fill-rule:evenodd;stroke:#000000;stroke-width:0.89999998;stroke-linecap:butt;stroke-linejoin:miter;stroke-miterlimit:4;stroke-dasharray:none;stroke-opacity:1"
       d="m 277.42206,814.26046 c 0.27817,2.20516 1.75829,5.14636 4.86343,4.72423 -4.0413,4.57299 -8.32219,-0.37539 -9.64918,-2.07871"
       id="path14789" />
    <path
       inkscape:connector-curvature="0"
       style="fill:#000000;fill-opacity:1;fill-rule:nonzero;stroke:#000000;stroke-width:0.89999998;stroke-linecap:round;stroke-linejoin:miter;stroke-miterlimit:4;stroke-dasharray:none;stroke-dashoffset:0;stroke-opacity:1"
       d="m 258.82859,796.03509 c 0,0.7015 -0.98414,1.27085 -2.19676,1.27085 -1.21261,0 -2.19676,-0.56935 -2.19676,-1.27085 0,-0.70152 1.69741,-1.52501 2.91001,-1.52501 1.21259,0 1.54058,0.45637 1.48351,1.52501 z"
       id="path14808"
       sodipodi:nodetypes="csssc" />
    <path
       inkscape:connector-curvature="0"
       sodipodi:nodetypes="ccc"
       id="path14811"
       d="m 273.37137,822.45907 c 0.27818,2.20517 4.06759,7.11105 7.17273,6.68889 -4.57133,3.66627 -12.18362,-0.60205 -13.51059,-2.30539"
       style="fill:#b4001e;fill-opacity:1;fill-rule:evenodd;stroke:#000000;stroke-width:0.89999998;stroke-linecap:butt;stroke-linejoin:miter;stroke-miterlimit:4;stroke-dasharray:none;stroke-opacity:1" />
    <path
       inkscape:connector-curvature="0"
       style="fill:#b4001e;fill-opacity:1;fill-rule:evenodd;stroke:#000000;stroke-width:0.89999998;stroke-linecap:butt;stroke-linejoin:miter;stroke-miterlimit:4;stroke-dasharray:none;stroke-opacity:1"
       d="m 257.00927,822.20426 c -3.88031,0.4723 -6.98476,0.67784 -10.63303,3.65541 -3.19418,2.60692 -9.34827,4.54593 -12.42181,10.81498 5.2586,-1.10004 13.32564,-8.1986 13.32564,-8.1986 0,0 -2.50802,4.81719 -6.24639,7.25408 3.64372,0.77452 10.22134,-5.06275 10.22134,-5.06275 0,0 -0.51104,5.78059 -3.33139,7.78306 2.17676,2.98476 7.19281,-3.70264 7.19281,-3.70264 0,0 -1.41961,4.28821 -4.69424,8.46313 6.1139,1.53017 8.8585,-10.50335 8.8585,-10.50335 0,0 0.3218,6.70625 -1.66571,10.12552 6.41676,0.39669 5.52711,-11.25895 5.52711,-11.25895 0,0 0.2082,13.24251 5.14853,11.78788 -1.57105,-2.73919 -2.95282,-10.04993 -2.95282,-10.04993 0,0 2.7825,10.39 8.17708,8.61425 -3.53962,-4.34489 -2.67836,-12.59077 -2.27141,-14.13037 -0.88017,2.38971 1.55213,13.45029 7.53352,7.97192 -3.74782,-0.90675 -3.5964,-7.51855 -3.5964,-7.51855"
       id="path14813"
       sodipodi:nodetypes="cscccccccccccccccc" />
  </g>
</svg>
