<?xml version="1.0" encoding="UTF-8"?>
<svg xmlns="http://www.w3.org/2000/svg" xmlns:xlink="http://www.w3.org/1999/xlink" width="1200" height="600" viewBox="0 0 120 60">
<clipPath id="r">
<path d="M0,0V15H60V30zM60,0H30V30H0z"/>
</clipPath>
<clipPath id="w">
<path d="M0,0H60V30H0z"/>
</clipPath>
<path d="M0,0H120V60H0z" fill="#00247d"/>
<path d="M0,0 60,30M60,0 0,30" stroke="#fff" stroke-width="6" clip-path="url(#w)"/>
<path d="M0,0 60,30M60,0 0,30" stroke="#cf142b" stroke-width="4" clip-path="url(#r)"/>
<path d="M30,0V30M0,15H60" stroke="#fff" stroke-width="10"/>
<path d="M30,0V30M0,15H60" stroke="#cf142b" stroke-width="6"/>
<path id="a" fill="#F9DD16" d="M86,12h8l-2,2v32l2,2h-8l2,-2v-32z"/>
<use xlink:href="#a" transform="rotate(90,90,30)"/>
</svg>