<svg xmlns="http://www.w3.org/2000/svg" width="1200" height="600" viewBox="0 0 120 60" xmlns:xlink="http://www.w3.org/1999/xlink">
<clipPath id="border">
<rect width="60" height="30"/>
</clipPath>
<rect fill="#CF142B" width="120" height="60"/>
<g clip-path="url(#border)">
<rect fill="#00247D" width="60" height="30"/>
<path stroke-width="6" stroke="white" d="M 0,0 L 60,30 M 0,30 L 60,0"/>
<path stroke-width="4" stroke="#CF142B" d="M 0,0 L 60,30 M 0,30 L 60,0"/>
<path fill="white" d="M0,0 5,0 35,15 65,0 60,0 30,15 M-5,30 25,15 55,30 60,30 30,15 0,30"/>
<path stroke-width="10" stroke="#FFF" d="M 0,15 H 60 M 30,0 V 30"/>
<path stroke-width="6" stroke="#CF142B" d="M 0,15 H 60 M 30,0 V 30"/>
</g>
<path id="arm" fill="#F9DD16" d="M86,12 h8 l-2,2 v32 l2,2 h-8 l2,-2 v-32z"/>
<use xlink:href="#arm" transform="rotate(90, 90, 30)"/>
</svg>