<?xml version="1.0" encoding="UTF-8"?>
<svg version="1.0" xmlns="http://www.w3.org/2000/svg" xmlns:xlink="http://www.w3.org/1999/xlink" width="600" height="600">
	<rect width="600" height="600" fill="#00247d"/>
	<g transform="translate(-8.572319,-56.19062) scale(2.732601)">
		<g id="rose">
			<path id="barb" d="M 112.92226,44.40404 C 114.00807,40.134236 115.62941,35.815749 112.92225,31.890761 C 112.92225,31.890761 115.62941,35.815749 112.92226,31.890761 C 110.2151,35.815749 111.83644,40.134236 112.92226,44.40404 z" fill="#f7e017" stroke="#ae9908" stroke-width=".5"/>
			<use xlink:href="#barb" transform="rotate(72 112.922265,44.403846)"/>
			<use xlink:href="#barb" transform="rotate(144 112.922265,44.403846)"/>
			<use xlink:href="#barb" transform="rotate(216 112.922265,44.403846)"/>
			<use xlink:href="#barb" transform="rotate(288 112.922265,44.403846)"/>
			<path d="M 126.11991,88.024182 C 123.84897,88.988352 120.50988,89.543179 119.88418,86.783136 C 121.48069,84.658012 123.35117,85.552078 126.11991,88.024182 z" transform="matrix(1.928266,0,0,1.928266,-107.5101,-122.3423)" fill="#f7e017" stroke="#ae9908" stroke-width=".5"/>
			<path d="M 128.04161,88.827974 C 127.15432,92.178829 123.16589,92.686593 122.68588,92.540367 C 122.83827,89.573749 125.10874,88.975815 126.48981,88.127385 C 125.49254,87.220493 124.42327,84.728065 124.34141,82.930248 C 124.61267,83.012807 129.28688,84.125182 128.04161,88.827974 z" transform="matrix(1.928266,0,0,1.928266,-107.5101,-122.3423)" fill="#f7e017" stroke="#ae9908" stroke-width=".5"/>
			<path d="M 132.64576,90.373752 C 133.73447,87.372462 130.81025,84.436419 129.18219,83.872209 C 127.82041,85.855089 129.41747,88.304413 130.63862,89.527532 C 128.11073,89.56224 125.55577,93.218756 125.87083,93.351267 C 127.76929,94.198211 131.52105,93.47427 132.64576,90.373752 z" transform="matrix(1.928266,0,0,1.928266,-107.5101,-122.3423)" fill="#f7e017" stroke="#ae9908" stroke-width=".5"/>
			<path d="M 107.13662,52.360944 C 107.13725,52.361092 108.78338,56.323226 112.92221,56.323226 C 117.16998,56.323226 118.70718,52.361104 118.70731,52.360936 C 118.70738,52.360709 122.98427,52.01951 124.26325,48.083244 C 125.57588,44.04338 122.28269,41.357049 122.28262,41.356906 C 122.28248,41.3568 123.27962,37.183794 119.93123,34.751051 C 116.49472,32.254279 112.92222,34.556159 112.92196,34.556108 C 112.92172,34.556141 109.26108,32.318278 105.9127,34.751022 C 102.47618,37.247793 103.56144,41.356762 103.56133,41.356997 C 103.56129,41.357246 100.30177,44.147177 101.58073,48.083439 C 102.89336,52.123299 107.13659,52.360901 107.13662,52.360944 z" fill="#f7e017" stroke="#ae9908" stroke-width=".75"/>
			<path d="M 103.96486,41.488213 C 103.96491,41.488378 102.58323,42.943566 102.58323,44.398751 C 102.58323,45.853939 103.96491,47.309126 103.96491,47.309099 C 103.96492,47.309071 103.70246,49.298471 104.55779,50.475741 C 105.41312,51.653012 107.38627,52.018156 107.38635,52.018125 C 107.38642,52.018095 108.34342,53.781824 109.72739,54.231501 C 111.11134,54.681179 112.92227,53.816805 112.92219,53.816811 C 112.92211,53.816817 114.73303,54.68119 116.117,54.231513 C 117.50097,53.781835 118.45797,52.018106 118.45801,52.018088 C 118.45805,52.018069 120.43119,51.652926 121.28652,50.475657 C 122.14187,49.298385 121.8794,47.308985 121.87934,47.30891 C 121.87927,47.308836 123.26094,45.853647 123.26094,44.398463 C 123.26094,42.943274 121.87927,41.488086 121.87926,41.488107 C 121.87925,41.488127 122.1417,39.498726 121.28637,38.321457 C 120.43104,37.144186 118.4579,36.779042 118.4579,36.779072 C 118.4579,36.779103 117.50089,35.015374 116.11693,34.565697 C 114.73297,34.116018 112.92204,34.980393 112.922,34.980447 C 112.92197,34.980502 111.11105,34.116128 109.72708,34.565806 C 108.34312,35.015484 107.38612,36.779213 107.38617,36.77917 C 107.38621,36.779129 105.41306,37.144271 104.55773,38.321541 C 103.70239,39.498812 103.96486,41.488213 103.96486,41.488213 z" fill="none" stroke="#ae9908" stroke-width=".75" stroke-linejoin="round"/>
			<path id="line" d="M 112.92243,47.24336 V 49.527887 M 112.922265,41.564392 V 34.71634" stroke="#ae9908" stroke-width=".5" stroke-linecap="round"/>
			<use xlink:href="#line" transform="rotate(72 112.922265,44.403846)"/>
			<use xlink:href="#line" transform="rotate(144 112.922265,44.403846)"/>
			<use xlink:href="#line" transform="rotate(216 112.922265,44.403846)"/>
			<use xlink:href="#line" transform="rotate(288 112.922265,44.403846)"/>
			<circle cx="112.922265" cy="44.403846" r="2.975797" fill="#f7e017" stroke="#ae9908" stroke-width="1"/>
		</g>
		<use xlink:href="#rose" transform="rotate(32.727273 112.922567,130.348565)"/>
		<use xlink:href="#rose" transform="rotate(65.454545 112.922567,130.348565)"/>
		<use xlink:href="#rose" transform="rotate(98.181818 112.922567,130.348565)"/>
		<use xlink:href="#rose" transform="rotate(130.909091 112.922567,130.348565)"/>
		<use xlink:href="#rose" transform="rotate(163.636364 112.922567,130.348565)"/>
		<use xlink:href="#rose" transform="rotate(196.363636 112.922567,130.348565)"/>
		<use xlink:href="#rose" transform="rotate(229.090909 112.922567,130.348565)"/>
		<use xlink:href="#rose" transform="rotate(261.818182 112.922567,130.348565)"/>
		<use xlink:href="#rose" transform="rotate(294.545455 112.922567,130.348565)"/>
		<use xlink:href="#rose" transform="rotate(327.272727 112.922567,130.348565)"/>
		<circle cx="112.9225942776" cy="73.34362507655" r="5.213868552568" fill="#f7e017"/>
		<rect x="108.75666" y="76.046967" width="8.3317347" height="14.684995" fill="#f7e017"/>
		<circle id="cpearl" cx="112.922531" cy="88.208467" r="1.7659869" fill="#00247d"/>
		<use xlink:href="#cpearl" y="-9.280992"/>
		<use xlink:href="#cpearl" y="-6.690878"/>
		<use xlink:href="#cpearl" y="-3.525348"/>
		<circle id="lpearl" cx="106.5647" cy="77.727722" r="1.9136198" transform="translate(-.119601,.239202)" fill="#f7e017"/>
		<use xlink:href="#lpearl" x="-4.186043" y="-2.033221"/>
		<use xlink:href="#lpearl" x="-8.73089" y="-3.229233"/>
		<use xlink:href="#lpearl" x="-13.27574" y="-2.750828"/>
		<use xlink:href="#lpearl" x="-17.94019" y="-.837208"/>
		<use xlink:href="#lpearl" x="-21.28902" y="2.750829"/>
		<use xlink:href="#lpearl" x="-22.72423" y="6.817271"/>
		<use xlink:href="#lpearl" x="-22.84383" y="11.48172"/>
		<use xlink:href="#lpearl" x="-20.57141" y="15.78736"/>
		<path id="arch" d="M 109.73413,81.794162 C 97.423964,73.819046 80.28765,75.420687 87.794781,94.763421" fill="none" stroke="#f7e017" stroke-width="2"/>
		<path d="M 109.77,74.434889 C 109.77,74.434889 110.37609,73.404241 112.92257,73.404241 C 115.34781,73.404241 116.07514,74.556142 116.07514,74.556142" fill="none" stroke="#00247d" stroke-width="1" stroke-linecap="square"/>
		<path d="M 112.92253,70.062859 V 73.11186" stroke="#00247d" stroke-width="1"/>
		<path id="cross" d="M 114.78015,61.372252 H 111.06504 L 114.78015,68.854804 H 111.06504 z" fill="#f7e017"/>
		<use xlink:href="#cross" transform="matrix(0,1,-1,0,178.0361,-47.80902)"/>
		<g transform="matrix(-1,0,0,1,225.8451,0)">
			<use xlink:href="#lpearl"/>
			<use xlink:href="#lpearl" x="-4.186043" y="-2.033221"/>
			<use xlink:href="#lpearl" x="-8.73089" y="-3.229233"/>
			<use xlink:href="#lpearl" x="-13.27574" y="-2.750828"/>
			<use xlink:href="#lpearl" x="-17.94019" y="-.837208"/>
			<use xlink:href="#lpearl" x="-21.28902" y="2.750829"/>
			<use xlink:href="#lpearl" x="-22.72423" y="6.817271"/>
			<use xlink:href="#lpearl" x="-22.84383" y="11.48172"/>
			<use xlink:href="#lpearl" x="-20.57141" y="15.78736"/>
		</g>
		<use xlink:href="#arch" transform="matrix(-1,0,0,1,225.8452,0)" />
		<path d="M 98.4375,90.15625 C 98.360357,90.170768 98.265504,90.205675 98.1875,90.21875 C 95.42032,90.682589 96.610448,93.579196 97.71875,95.5625 C 96.479225,95.729621 95.641731,96.092016 95.125,96.5625 C 95.079048,96.605623 95.009679,96.673949 94.96875,96.71875 C 93.418992,98.469445 95.55928,101.42359 96.9375,101.65625 C 97.211066,100.64999 97.73614,99.992306 98.21875,99.71875 C 98.283555,99.683899 98.374572,99.645952 98.4375,99.625 C 98.464309,99.616877 98.50499,99.599298 98.53125,99.59375 C 98.541968,99.590481 98.580473,99.567761 98.59375,99.5625 C 98.59777,99.56115 98.621474,99.563394 98.625,99.5625 C 98.647509,99.561055 98.696833,99.561838 98.71875,99.5625 C 98.729611,99.562296 98.770464,99.562469 98.78125,99.5625 C 98.792144,99.568066 98.832938,99.587947 98.84375,99.59375 C 98.870772,99.601247 98.911961,99.613685 98.9375,99.625 C 98.946929,99.629603 98.983658,99.647901 99,99.65625 C 99.038826,99.680883 99.087091,99.712781 99.125,99.75 C 99.129648,99.754809 99.15171,99.776293 99.15625,99.78125 C 99.178326,99.806726 99.20107,99.846724 99.21875,99.875 C 99.265053,99.954279 99.316567,100.07804 99.34375,100.1875 C 99.359834,100.25892 99.367914,100.35365 99.375,100.4375 C 99.546199,102.46323 99.213157,105.96875 95.875,105.96875 C 93.347766,105.96875 91.56214,103.59744 91.5625,102.4375 C 91.563209,102.40991 91.559668,102.36986 91.5625,102.34375 C 91.562278,102.33284 91.562557,102.29203 91.5625,102.28125 C 91.568074,102.27029 91.588009,102.22958 91.59375,102.21875 C 91.593676,102.21601 91.594004,102.19062 91.59375,102.1875 C 91.608742,102.15167 91.638833,102.08996 91.65625,102.0625 C 91.661864,102.05693 91.681843,102.03678 91.6875,102.03125 C 91.695404,102.02321 91.71246,102.00668 91.71875,102 C 91.731474,101.98617 91.767971,101.94882 91.78125,101.9375 C 91.786752,101.93183 91.806953,101.91188 91.8125,101.90625 C 91.836696,101.89602 91.883986,101.88333 91.90625,101.875 C 91.917034,101.8693 91.95778,101.84926 91.96875,101.84375 C 91.979463,101.84383 92.020349,101.84347 92.03125,101.84375 C 92.063861,101.84193 92.126749,101.84447 92.15625,101.84375 C 92.171875,101.84376 92.202492,101.84303 92.21875,101.84375 C 92.724302,101.87665 93.53586,102.24809 94.6875,103.125 L 92,94.96875 C 90.984879,97.561411 90.314309,98.710177 89.9375,98.96875 C 89.934867,98.971583 89.908864,98.996838 89.90625,99 C 89.903467,98.999956 89.878293,99.000262 89.875,99 C 89.872211,98.999978 89.847069,99.000175 89.84375,99 C 89.840954,98.999998 89.815845,99.000091 89.8125,99 C 89.80816,99.000224 89.78549,99.000105 89.78125,99 C 89.778439,99.000048 89.753407,98.999886 89.75,99 C 89.74718,99.000077 89.722194,98.999768 89.71875,99 C 89.710272,98.991499 89.690093,98.970716 89.6875,98.96875 C 89.684325,98.965238 89.659332,98.941303 89.65625,98.9375 C 89.650707,98.932328 89.630451,98.911704 89.625,98.90625 C 89.625334,98.902977 89.624911,98.877788 89.625,98.875 C 89.621193,98.866784 89.602014,98.829201 89.59375,98.8125 C 89.591048,98.805054 89.596332,98.789061 89.59375,98.78125 C 89.283453,97.75185 89.89757,93.877132 90.40625,92.625 L 85.96875,94.78125 L 90.8125,106.96875 L 90.84375,106.9375 L 94.75,107.5625 L 92.0625,110.15625 L 93.03125,112.625 C 98.769591,111.76569 104.88126,110.21875 112.9375,110.21875 C 120.85232,110.21875 127.07416,111.76569 132.8125,112.625 L 133.78125,110.15625 L 131.09375,107.5625 L 135,106.9375 L 135.03125,106.96875 L 139.875,94.78125 L 135.4375,92.625 C 135.94619,93.877131 136.5603,97.75185 136.25,98.78125 C 136.24742,98.789061 136.2527,98.805054 136.25,98.8125 C 136.24174,98.829201 136.22256,98.866784 136.21875,98.875 C 136.21884,98.877788 136.21842,98.902977 136.21875,98.90625 C 136.2133,98.911704 136.19304,98.932328 136.1875,98.9375 C 136.17938,98.94585 136.16116,98.963922 136.15625,98.96875 C 136.15366,98.970717 136.13348,98.991499 136.125,99 C 136.12157,98.999807 136.09657,99.000068 136.09375,99 C 136.09034,98.999886 136.06531,99.000048 136.0625,99 C 136.05826,99.000105 136.03559,99.000224 136.03125,99 C 136.02791,99.000091 136.0028,98.999998 136,99 C 135.99668,99.000175 135.97154,98.999978 135.96875,99 C 135.9576,98.994899 135.92257,98.977351 135.90625,98.96875 C 135.52944,98.710177 134.89012,97.561411 133.875,94.96875 L 131.15625,103.125 C 132.23172,102.30609 133.02126,101.91684 133.53125,101.84375 C 133.567,101.8393 133.62318,101.84519 133.65625,101.84375 C 133.67245,101.8434 133.70321,101.84337 133.71875,101.84375 C 133.73111,101.84437 133.76378,101.84429 133.78125,101.84375 C 133.78522,101.84377 133.80899,101.84357 133.8125,101.84375 C 133.8234,101.84347 133.86429,101.84383 133.875,101.84375 C 133.88597,101.84926 133.92672,101.8693 133.9375,101.875 C 133.95406,101.88317 133.99101,101.90213 134,101.90625 C 134.00276,101.90614 134.02806,101.90663 134.03125,101.90625 C 134.0368,101.91188 134.057,101.93183 134.0625,101.9375 C 134.07578,101.94882 134.11228,101.98617 134.125,102 C 134.13889,102.01277 134.17631,102.04927 134.1875,102.0625 C 134.19318,102.06801 134.21311,102.0882 134.21875,102.09375 C 134.22879,102.11794 134.24199,102.16619 134.25,102.1875 C 134.24975,102.19062 134.25007,102.21601 134.25,102.21875 C 134.25574,102.22958 134.27568,102.27029 134.28125,102.28125 C 134.28119,102.29203 134.28147,102.33284 134.28125,102.34375 C 134.28408,102.36986 134.28054,102.40991 134.28125,102.4375 C 134.28161,103.59744 132.49599,105.96875 129.96875,105.96875 C 126.63059,105.96875 126.29755,102.46323 126.46875,100.4375 C 126.47584,100.35365 126.48392,100.25892 126.5,100.1875 C 126.51997,100.11982 126.57004,100.02255 126.59375,99.96875 C 126.60159,99.94688 126.61641,99.895616 126.625,99.875 C 126.64268,99.846724 126.66542,99.806726 126.6875,99.78125 C 126.69204,99.776293 126.7141,99.754809 126.71875,99.75 C 126.75666,99.712781 126.80493,99.680884 126.84375,99.65625 C 126.86009,99.647901 126.89682,99.629603 126.90625,99.625 C 126.91711,99.619345 126.95779,99.599166 126.96875,99.59375 C 126.97182,99.593999 126.99727,99.593673 127,99.59375 C 127.01081,99.587947 127.05161,99.568066 127.0625,99.5625 C 127.06596,99.562327 127.08971,99.562539 127.09375,99.5625 C 127.11179,99.56293 127.14529,99.562831 127.15625,99.5625 C 127.16731,99.562521 127.20252,99.562371 127.21875,99.5625 C 127.22228,99.563394 127.24598,99.56115 127.25,99.5625 C 127.26328,99.567761 127.30178,99.590481 127.3125,99.59375 C 127.4117,99.61471 127.54449,99.65938 127.65625,99.71875 C 127.6839,99.734299 127.72372,99.763669 127.75,99.78125 C 128.19549,100.09119 128.65373,100.7274 128.90625,101.65625 C 130.21342,101.43559 132.21303,98.767257 131.09375,97 C 131.03734,96.914037 130.9469,96.799968 130.875,96.71875 C 130.83407,96.673949 130.7647,96.605623 130.71875,96.5625 C 130.20202,96.092016 129.36452,95.729621 128.125,95.5625 C 129.23329,93.579197 130.42343,90.682588 127.65625,90.21875 C 125.43748,89.846838 124.84253,91.778608 125.125,94.96875 C 121.17024,92.619695 120.05548,95.05416 120.3125,99.8125 C 121.61676,98.906928 122.91806,98.125707 123.65625,98.375 C 123.66892,98.379649 123.70642,98.400968 123.71875,98.40625 C 123.73699,98.414653 123.7638,98.427635 123.78125,98.4375 C 123.80988,98.454766 123.84865,98.478524 123.875,98.5 C 123.89142,98.516093 123.92742,98.552131 123.9375,98.5625 C 123.94383,98.569526 123.9626,98.586394 123.96875,98.59375 C 123.9986,98.632192 124.0373,98.703066 124.0625,98.75 C 124.1789,98.983608 124.25,99.33075 124.25,99.78125 C 124.25,101.42239 122.23893,104.03125 119.21875,104.03125 C 116.89103,104.03125 114.555,101.12072 114.34375,99.75 C 114.33813,99.708149 114.3199,99.641237 114.3125,99.59375 C 114.31089,99.580228 114.31274,99.543022 114.3125,99.53125 C 114.31336,99.527586 114.31114,99.504075 114.3125,99.5 C 114.31919,99.482754 114.33952,99.451527 114.34375,99.4375 C 114.34343,99.426589 114.34384,99.385713 114.34375,99.375 C 114.3492,99.364009 114.36931,99.323284 114.375,99.3125 C 114.38148,99.300373 114.39776,99.262258 114.40625,99.25 C 114.41196,99.242444 114.43242,99.22515 114.4375,99.21875 C 114.44181,99.213861 114.46418,99.192154 114.46875,99.1875 C 114.47718,99.179771 114.49033,99.165031 114.5,99.15625 C 114.50509,99.151824 114.52594,99.12931 114.53125,99.125 C 114.54497,99.114893 114.57931,99.10053 114.59375,99.09375 C 114.61187,99.087443 114.66217,99.069491 114.6875,99.0625 C 114.72025,99.060107 114.7807,99.063153 114.8125,99.0625 C 115.47735,99.069945 116.86942,99.825914 119.21875,101.875 L 119.21875,92.375 C 117.06129,94.289424 115.84329,95.119713 115.3125,95.1875 C 115.29582,95.188911 115.26524,95.187696 115.25,95.1875 C 115.24756,95.187382 115.22536,95.187419 115.21875,95.1875 C 115.21646,95.18721 115.19419,95.187334 115.1875,95.1875 C 115.18207,95.181881 115.16154,95.162036 115.15625,95.15625 C 115.15342,95.156313 115.12845,95.156041 115.125,95.15625 C 115.11946,95.150752 115.09915,95.13066 115.09375,95.125 C 115.0909,95.125093 115.06606,95.124669 115.0625,95.125 C 115.06281,95.121464 115.06241,95.096597 115.0625,95.09375 C 115.05684,95.088388 115.03677,95.068018 115.03125,95.0625 C 115.03146,95.059081 115.03119,95.034067 115.03125,95.03125 C 115.02546,95.025672 115.00575,95.005616 115,95 C 114.86029,94.399597 115.84349,92.490995 117.09375,90.28125 L 108.75,90.28125 C 110.00026,92.490994 110.98346,94.399598 110.84375,95 C 110.838,95.005616 110.81829,95.025672 110.8125,95.03125 C 110.81256,95.034067 110.81229,95.059081 110.8125,95.0625 C 110.80698,95.068018 110.78691,95.088388 110.78125,95.09375 C 110.78134,95.096597 110.78094,95.121464 110.78125,95.125 C 110.77769,95.124669 110.75285,95.125093 110.75,95.125 C 110.7501,95.127867 110.74962,95.152634 110.75,95.15625 C 110.74651,95.156 110.72158,95.156323 110.71875,95.15625 C 110.70793,95.162046 110.6674,95.182079 110.65625,95.1875 C 110.64956,95.187334 110.62729,95.18721 110.625,95.1875 C 110.61839,95.187419 110.59619,95.187382 110.59375,95.1875 C 110.57851,95.187696 110.54793,95.188911 110.53125,95.1875 C 110.00046,95.119712 108.78246,94.289425 106.625,92.375 L 106.625,101.875 C 108.97433,99.825913 110.3664,99.069945 111.03125,99.0625 C 111.06305,99.063153 111.1235,99.060107 111.15625,99.0625 C 111.18158,99.069491 111.23188,99.087443 111.25,99.09375 C 111.25743,99.097242 111.27395,99.120656 111.28125,99.125 C 111.29567,99.134406 111.33038,99.144874 111.34375,99.15625 C 111.36273,99.173982 111.39169,99.20225 111.40625,99.21875 C 111.41133,99.22515 111.43179,99.242444 111.4375,99.25 C 111.44599,99.262258 111.46227,99.300373 111.46875,99.3125 C 111.47444,99.323284 111.49455,99.364009 111.5,99.375 C 111.49991,99.385713 111.50032,99.426589 111.5,99.4375 C 111.50423,99.451527 111.52456,99.482754 111.53125,99.5 C 111.53261,99.504075 111.53039,99.527586 111.53125,99.53125 C 111.53101,99.543022 111.53286,99.580228 111.53125,99.59375 C 111.52385,99.641237 111.50562,99.708149 111.5,99.75 C 111.28875,101.12072 108.95272,104.03125 106.625,104.03125 C 103.60482,104.03125 101.59375,101.42239 101.59375,99.78125 C 101.59375,99.33075 101.66485,98.983608 101.78125,98.75 C 101.80645,98.703066 101.84515,98.632192 101.875,98.59375 C 101.88115,98.586394 101.89992,98.569526 101.90625,98.5625 C 101.91633,98.552131 101.95233,98.516093 101.96875,98.5 C 101.99296,98.482184 102.0421,98.450467 102.0625,98.4375 C 102.11411,98.407455 102.18535,98.366214 102.25,98.34375 C 102.28269,98.333336 102.34188,98.318879 102.375,98.3125 C 102.39149,98.30991 102.4213,98.313775 102.4375,98.3125 C 103.19575,98.274104 104.36052,98.999646 105.53125,99.8125 C 105.78827,95.054157 104.67351,92.619695 100.71875,94.96875 C 100.90805,92.830825 100.6952,91.231777 99.875,90.53125 C 99.532125,90.251344 99.069641,90.113366 98.5,90.15625 C 98.493943,90.156706 98.474916,90.155568 98.46875,90.15625 C 98.456221,90.158015 98.450357,90.15383 98.4375,90.15625 z M 135.03125,106.96875 L 133.78125,110.15625 L 133.9375,110.3125 L 137.84375,109.65625 L 135.03125,106.96875 z M 92.0625,110.15625 L 90.8125,106.96875 L 88,109.65625 L 91.90625,110.3125 L 92.0625,110.15625 z" fill="#f7e017"/>
		<path d="M 146.40499,176.97806 C 140.10617,181.47298 137.04044,187.61275 121.26829,187.61275 C 117.20966,187.61275 114.19577,187.61275 111.11889,187.61275 C 107.47235,187.61275 104.38385,185.98752 104.38385,181.50982 L 104.38385,157.90038 C 123.27793,157.90038 124.64837,159.4071 126.15155,166.9813 L 127.95763,166.9813 L 127.95763,143.88776 L 126.82544,143.88776 C 123.02087,148.81869 128.09763,151.68053 104.38385,151.34773 L 104.38385,124.11618 C 133.35356,124.11618 129.40168,124.25011 138.29453,134.0001 L 141.02667,133.10122 L 136.99013,117.96419 L 81.94483,117.96419 L 81.94483,119.8751 C 88.885607,119.8751 91.816372,122.78206 91.816372,129.57299 C 91.816372,137.00164 91.816372,162.94872 91.816372,178.66556 C 91.816372,187.11454 84.252233,191.13772 80.936397,191.13772 L 80.936397,193.12797 L 139.98016,193.12797 z" fill="#f7e017"/>
		<rect x="-56.891399" y="178.83377" width="3.9508338" height="3.9508338" transform="matrix(.894194,-.44768,.894194,.44768,0,0)" fill="#00247d"/>
		<ellipse id="jewel" cx="101.32654" cy="106.63197" rx="2.7564347" ry="1.6538608" transform="matrix(.965926,-.258819,.258819,.965926,-24.14577,29.85863)" fill="#00247d"/>
		<use xlink:href="#jewel" transform="matrix(-1,0,0,1,225.8452,0)" />
	</g>
</svg>