<?xml version="1.0" encoding="UTF-8" standalone="no"?>
<!-- Created with Inkscape (http://www.inkscape.org/) -->

<svg
   xmlns:i="http://ns.adobe.com/AdobeIllustrator/10.0/"
   xmlns:dc="http://purl.org/dc/elements/1.1/"
   xmlns:cc="http://creativecommons.org/ns#"
   xmlns:rdf="http://www.w3.org/1999/02/22-rdf-syntax-ns#"
   xmlns:svg="http://www.w3.org/2000/svg"
   xmlns="http://www.w3.org/2000/svg"
   xmlns:sodipodi="http://sodipodi.sourceforge.net/DTD/sodipodi-0.dtd"
   xmlns:inkscape="http://www.inkscape.org/namespaces/inkscape"
   width="375"
   height="250"
   viewBox="0 0 375 249.99999"
   id="svg8709"
   version="1.1"
   inkscape:version="0.91 r13725"
   sodipodi:docname="Scotland.svg">
  <defs
     id="defs8711" />
  <sodipodi:namedview
     id="base"
     pagecolor="#ffffff"
     bordercolor="#666666"
     borderopacity="1.0"
     inkscape:pageopacity="0.0"
     inkscape:pageshadow="2"
     inkscape:zoom="2.0115617"
     inkscape:cx="220.46609"
     inkscape:cy="100.7712"
     inkscape:document-units="px"
     inkscape:current-layer="layer1"
     showgrid="false"
     units="px"
     fit-margin-top="0"
     fit-margin-left="0"
     fit-margin-right="0"
     fit-margin-bottom="0"
     inkscape:window-width="1920"
     inkscape:window-height="1057"
     inkscape:window-x="-8"
     inkscape:window-y="-8"
     inkscape:window-maximized="1" />
  <metadata
     id="metadata8714">
    <rdf:RDF>
      <cc:Work
         rdf:about="">
        <dc:format>image/svg+xml</dc:format>
        <dc:type
           rdf:resource="http://purl.org/dc/dcmitype/StillImage" />
        <dc:title></dc:title>
      </cc:Work>
    </rdf:RDF>
  </metadata>
  <g
     inkscape:label="Layer 1"
     inkscape:groupmode="layer"
     id="layer1"
     transform="translate(-69.499939,-726.36224)">
    <rect
       style="opacity:1;fill:#ffd228;fill-opacity:1;stroke:none;stroke-width:2;stroke-linecap:butt;stroke-linejoin:round;stroke-miterlimit:4;stroke-dasharray:none;stroke-dashoffset:0;stroke-opacity:1"
       id="rect6914"
       width="375"
       height="250"
       x="-444.49994"
       y="-976.36224"
       transform="scale(-1,-1)" />
    <path
       inkscape:connector-curvature="0"
       d="m 404.01233,848.96748 c -11.30066,0 -15.5725,-9.8913 -11.7366,-13.7262 2.75002,-2.748 10.70049,-1.8612 11.61219,7.0089 -1.48898,-1.5537 -3.38204,-2.333 -4.33355,-1.3825 -1.70595,1.705 1.53606,7.0109 5.44561,7.0109 l 0,6.9672 c -3.90955,0 -7.15056,5.3059 -5.44561,7.0109 0.95051,0.9505 2.84358,0.1712 4.33355,-1.3815 -0.9117,8.8691 -8.86217,9.7559 -11.61219,7.0079 -3.8359,-3.8349 0.43594,-13.7262 11.7366,-13.7262 z"
       id="path8574"
       style="fill:#b4001e;fill-opacity:1;stroke:#000000;stroke-width:0.60000002;stroke-miterlimit:4;stroke-dasharray:none;stroke-opacity:1"
       sodipodi:nodetypes="ccccccccccc" />
    <path
       inkscape:connector-curvature="0"
       d="m 404.99998,849.36418 c 0,0 -11.07891,-3.997 -17.26073,-4.002 -3.3966,0 -6.71425,1.5584 -11.69926,6 4.98401,4.4416 8.30166,6.004 11.69926,6 6.18182,0 17.26073,-4.002 17.26073,-4.002 z"
       id="path8576"
       style="fill:#b4001e;fill-opacity:1;stroke:#000000;stroke-width:0.60000002;stroke-miterlimit:4;stroke-dasharray:none;stroke-opacity:1"
       sodipodi:nodetypes="cccccc" />
    <path
       style="fill:#b4001e;fill-opacity:1;stroke:#000000;stroke-width:0.60000002;stroke-miterlimit:4;stroke-dasharray:none;stroke-opacity:1"
       d="m 430.49996,851.36219 c -1.74459,1.9465 -4.5018,2.5195 -7.32819,2.5195 0.93279,1.7326 1.63819,4.0509 1.48829,5.9805 -1.6526,-2.2035 -3.2291,-4.4278 -6.8262,-4.4278 -1.5397,0 -3.6432,0.7358 -4.8339,1.7286 l 0,-11.6016 c 1.1907,0.9928 3.2942,1.7285 4.8339,1.7285 3.5971,0 5.1736,-2.2242 6.8262,-4.4277 0.1499,1.9295 -0.5555,4.2479 -1.4883,5.9804 2.8264,0 5.5836,0.573 7.3282,2.5196 z"
       id="path8572"
       inkscape:connector-curvature="0"
       sodipodi:nodetypes="cccsccsccc" />
    <path
       sodipodi:nodetypes="ccccccccccc"
       inkscape:connector-curvature="0"
       id="path8621"
       d="m 260.48427,765.86241 c 0,2.764 5.3047,5.6867 7.0097,4.4804 0.9505,-0.6728 0.1709,-2.1432 -1.38279,-3.1972 8.87009,0.645 9.75779,6.2691 7.00979,8.2129 -3.8349,2.7132 -13.7266,-0.5108 -13.7266,-8.5 l -4.78899,0 c 0,7.9892 -9.8917,11.2132 -13.7266,8.5 -2.748,-1.9438 -1.8603,-7.5679 7.0098,-8.2129 -1.5537,1.054 -2.3333,2.5244 -1.3828,3.1972 1.705,1.2063 7.0097,-1.7164 7.0097,-4.4804 z"
       style="fill:#b4001e;fill-opacity:1;stroke:#000000;stroke-width:0.60000002;stroke-miterlimit:4;stroke-dasharray:none;stroke-opacity:1" />
    <path
       inkscape:connector-curvature="0"
       d="m 255.00187,765.86223 c 0,0 -3.997,7.8487 -4.002,12.2193 0,2.4016 1.5584,4.7563 6,8.2807 4.4416,-3.5244 6.004,-5.8791 6,-8.2807 0,-4.3706 -4.002,-12.2193 -4.002,-12.2193 z"
       id="path8623"
       style="fill:#b4001e;fill-opacity:1;stroke:#000000;stroke-width:0.60000002;stroke-miterlimit:4;stroke-dasharray:none;stroke-opacity:1"
       sodipodi:nodetypes="cccccc" />
    <path
       style="fill:#b4001e;fill-opacity:1;stroke:#000000;stroke-width:0.60000002;stroke-miterlimit:4;stroke-dasharray:none;stroke-opacity:1"
       d="m 256.99971,740.36223 c -1.94654,1.7446 -2.51953,4.50183 -2.51953,7.32813 -1.73259,-0.9328 -4.05092,-1.6382 -5.98047,-1.4883 2.20348,1.6526 4.42773,3.2291 4.42773,6.8262 0,1.5397 -0.73574,3.6432 -1.72851,4.8339 l 11.60156,0 c -0.99277,-1.1907 -1.72852,-3.2942 -1.72852,-4.8339 0,-3.5971 2.22426,-5.1736 4.42774,-6.8262 -1.92955,-0.1499 -4.24788,0.5555 -5.98047,1.4883 0,-2.8263 -0.57299,-5.58353 -2.51953,-7.32813 z"
       id="path8625"
       inkscape:connector-curvature="0"
       sodipodi:nodetypes="cccsccsccc" />
    <path
       sodipodi:nodetypes="ccccccccccc"
       style="fill:#b4001e;fill-opacity:1;stroke:#000000;stroke-width:0.60000002;stroke-miterlimit:4;stroke-dasharray:none;stroke-opacity:1"
       id="path8637"
       d="m 416.41379,944.88943 c 7.9908,7.9908 18.0056,4.0172 18.0049,-1.4069 0,-3.8877 -6.25029,-8.8825 -13.1671,-3.255 2.1516,-0.046 4.0412,0.7418 4.0419,2.0867 6.1e-4,2.4119 -6.0437,3.8713 -8.8081,1.1068 l -4.9265,4.9266 c 2.76441,2.7645 1.3043,8.808 -1.1069,8.8081 -1.3442,0 -2.1318,-1.8897 -2.0874,-4.0412 -5.6268,6.9161 -0.632,13.165 3.2557,13.1664 5.4241,7e-4 9.3977,-10.0141 1.4069,-18.0049 z"
       inkscape:connector-curvature="0" />
    <path
       sodipodi:nodetypes="cccccc"
       style="fill:#b4001e;fill-opacity:1;stroke:#000000;stroke-width:0.60000002;stroke-miterlimit:4;stroke-dasharray:none;stroke-opacity:1"
       id="path8639"
       d="m 415.43489,944.47153 c 0,0 10.6603,5.0077 15.035,9.3753 2.4018,2.4018 3.6458,5.8497 4.03,12.5153 -6.6649,-0.3835 -10.1156,-1.6247 -12.5153,-4.03 -4.3711,-4.3712 -9.3753,-15.035 -9.3753,-15.035 z"
       inkscape:connector-curvature="0" />
    <path
       sodipodi:nodetypes="cccsccscccc"
       inkscape:connector-curvature="0"
       id="path8643"
       d="m 390.7839,922.64606 c -0.14283,2.6101 1.40171,4.96477 3.4003,6.96337 -1.88484,0.5656 -4.02292,1.7061 -5.28127,3.1764 2.72669,-0.3895 5.41417,-0.8475 7.95774,1.6961 1.08872,1.0887 2.05592,3.0963 2.19583,4.6403 l 8.2036,-8.2036 c -1.544,-0.1399 -3.55159,-1.1071 -4.64042,-2.1958 -2.54346,-2.54357 -2.08549,-5.23107 -1.6959,-7.95767 -1.47037,1.2583 -2.61096,3.3964 -3.17649,5.2812 -1.99858,-1.9986 -4.35339,-3.5431 -6.96338,-3.4003 z"
       style="fill:#b4001e;fill-opacity:1;stroke:#000000;stroke-width:0.60000002;stroke-miterlimit:4;stroke-dasharray:none;stroke-opacity:1" />
    <path
       inkscape:connector-curvature="0"
       d="m 97.586038,944.88953 c -7.9908,7.9908 -18.0056,4.0172 -18.0049,-1.4069 0,-3.8877 6.25029,-8.8825 13.1671,-3.255 -2.1516,-0.046 -4.0412,0.7418 -4.0419,2.0867 -6.1e-4,2.4119 6.0437,3.8713 8.8081,1.1068 l 4.926502,4.9266 c -2.764412,2.7645 -1.3043,8.808 1.1069,8.8081 1.3442,0 2.1318,-1.8897 2.0874,-4.0412 5.6268,6.9161 0.632,13.165 -3.2557,13.1664 -5.424102,7e-4 -9.397702,-10.0141 -1.4069,-18.0049 z"
       id="path4426"
       style="fill:#b4001e;fill-opacity:1;stroke:#000000;stroke-width:0.60000002;stroke-miterlimit:4;stroke-dasharray:none;stroke-opacity:1"
       sodipodi:nodetypes="ccccccccccc" />
    <path
       inkscape:connector-curvature="0"
       d="m 98.564938,944.47163 c 0,0 -10.6603,5.0077 -15.035,9.3753 -2.4018,2.4018 -3.6458,5.8497 -4.03,12.5153 6.6649,-0.3835 10.1156,-1.6247 12.5153,-4.03 4.3711,-4.3712 9.375302,-15.035 9.375302,-15.035 z"
       id="path4428"
       style="fill:#b4001e;fill-opacity:1;stroke:#000000;stroke-width:0.60000002;stroke-miterlimit:4;stroke-dasharray:none;stroke-opacity:1"
       sodipodi:nodetypes="cccccc" />
    <path
       style="fill:#b4001e;fill-opacity:1;stroke:#000000;stroke-width:0.60000002;stroke-miterlimit:4;stroke-dasharray:none;stroke-opacity:1"
       d="m 123.21593,922.64616 c 0.14283,2.6101 -1.40171,4.96477 -3.4003,6.96337 1.88484,0.5656 4.02292,1.7061 5.28127,3.1764 -2.72669,-0.3895 -5.41417,-0.8475 -7.95774,1.6961 -1.08872,1.0887 -2.05592,3.0963 -2.19583,4.6403 l -8.2036,-8.2036 c 1.544,-0.1399 3.55159,-1.1071 4.64042,-2.1958 2.54346,-2.54357 2.08549,-5.23107 1.6959,-7.95767 1.47037,1.2583 2.61096,3.3964 3.17649,5.2812 1.99858,-1.9986 4.35339,-3.5431 6.96339,-3.4003 z"
       id="path4430"
       inkscape:connector-curvature="0"
       sodipodi:nodetypes="cccsccsccc" />
    <path
       sodipodi:nodetypes="ccccccccccc"
       style="fill:#b4001e;fill-opacity:1;stroke:#000000;stroke-width:0.60000002;stroke-miterlimit:4;stroke-dasharray:none;stroke-opacity:1"
       id="path4446"
       d="m 109.9875,848.96748 c 11.30066,0 15.5725,-9.8913 11.7366,-13.7262 -2.75002,-2.748 -10.70049,-1.8612 -11.61219,7.0089 1.48898,-1.5537 3.38204,-2.333 4.33355,-1.3825 1.70595,1.705 -1.53606,7.0109 -5.44561,7.0109 l 0,6.9672 c 3.90955,0 7.15056,5.3059 5.44561,7.0109 -0.95051,0.9505 -2.84358,0.1712 -4.33355,-1.3815 0.9117,8.8691 8.86217,9.7559 11.61219,7.0079 3.8359,-3.8349 -0.43594,-13.7262 -11.7366,-13.7262 z"
       inkscape:connector-curvature="0" />
    <path
       sodipodi:nodetypes="cccccc"
       style="fill:#b4001e;fill-opacity:1;stroke:#000000;stroke-width:0.60000002;stroke-miterlimit:4;stroke-dasharray:none;stroke-opacity:1"
       id="path4448"
       d="m 108.99985,849.36418 c 0,0 11.07891,-3.997 17.26073,-4.002 3.3966,0 6.71425,1.5584 11.69926,6 -4.98401,4.4416 -8.30166,6.004 -11.69926,6 -6.18182,0 -17.26073,-4.002 -17.26073,-4.002 z"
       inkscape:connector-curvature="0" />
    <path
       sodipodi:nodetypes="cccsccsccc"
       inkscape:connector-curvature="0"
       id="path4450"
       d="m 83.499868,851.36219 c 1.74459,1.9465 4.5018,2.5195 7.32819,2.5195 -0.93279,1.7326 -1.63819,4.0509 -1.48829,5.9805 1.6526,-2.2035 3.2291,-4.4278 6.8262,-4.4278 1.5397,0 3.6432,0.7358 4.833902,1.7286 l 0,-11.6016 c -1.190702,0.9928 -3.294202,1.7285 -4.833902,1.7285 -3.5971,0 -5.1736,-2.2242 -6.8262,-4.4277 -0.1499,1.9295 0.5555,4.2479 1.4883,5.9804 -2.8264,0 -5.5836,0.573 -7.3282,2.5196 z"
       style="fill:#b4001e;fill-opacity:1;stroke:#000000;stroke-width:0.60000002;stroke-miterlimit:4;stroke-dasharray:none;stroke-opacity:1" />
    <path
       inkscape:connector-curvature="0"
       d="m 416.41379,757.83502 c 7.9908,-7.9908 18.0056,-4.0172 18.0049,1.4069 0,3.8877 -6.25029,8.8825 -13.1671,3.255 2.1516,0.046 4.0412,-0.7418 4.0419,-2.0867 6.1e-4,-2.4119 -6.0437,-3.8713 -8.8081,-1.1068 l -4.9265,-4.9266 c 2.76441,-2.7645 1.3043,-8.808 -1.1069,-8.8081 -1.3442,0 -2.1318,1.8897 -2.0874,4.0412 -5.6268,-6.9161 -0.632,-13.165 3.2557,-13.1664 5.4241,-7e-4 9.3977,10.0141 1.4069,18.0049 z"
       id="path4491"
       style="fill:#b4001e;fill-opacity:1;stroke:#000000;stroke-width:0.60000002;stroke-miterlimit:4;stroke-dasharray:none;stroke-opacity:1"
       sodipodi:nodetypes="ccccccccccc" />
    <path
       inkscape:connector-curvature="0"
       d="m 415.43489,758.25292 c 0,0 10.6603,-5.0077 15.035,-9.3753 2.4018,-2.4018 3.6458,-5.8497 4.03,-12.5153 -6.6649,0.3835 -10.1156,1.6247 -12.5153,4.03 -4.3711,4.3712 -9.3753,15.035 -9.3753,15.035 z"
       id="path4493"
       style="fill:#b4001e;fill-opacity:1;stroke:#000000;stroke-width:0.60000002;stroke-miterlimit:4;stroke-dasharray:none;stroke-opacity:1"
       sodipodi:nodetypes="cccccc" />
    <path
       style="fill:#b4001e;fill-opacity:1;stroke:#000000;stroke-width:0.60000002;stroke-miterlimit:4;stroke-dasharray:none;stroke-opacity:1"
       d="m 390.7839,780.07839 c -0.14283,-2.6101 1.40171,-4.96477 3.4003,-6.96337 -1.88484,-0.5656 -4.02292,-1.7061 -5.28127,-3.1764 2.72669,0.3895 5.41417,0.8475 7.95774,-1.6961 1.08872,-1.0887 2.05592,-3.0963 2.19583,-4.6403 l 8.2036,8.2036 c -1.544,0.1399 -3.55159,1.1071 -4.64042,2.1958 -2.54346,2.54357 -2.08549,5.23107 -1.6959,7.95767 -1.47037,-1.2583 -2.61096,-3.3964 -3.17649,-5.2812 -1.99858,1.9986 -4.35339,3.5431 -6.96338,3.4003 z"
       id="path4495"
       inkscape:connector-curvature="0"
       sodipodi:nodetypes="cccsccscccc" />
    <path
       sodipodi:nodetypes="ccccccccccc"
       style="fill:#b4001e;fill-opacity:1;stroke:#000000;stroke-width:0.60000002;stroke-miterlimit:4;stroke-dasharray:none;stroke-opacity:1"
       id="path4501"
       d="m 97.586038,757.83492 c -7.9908,-7.9908 -18.0056,-4.0172 -18.0049,1.4069 0,3.8877 6.25029,8.8825 13.1671,3.255 -2.1516,0.046 -4.0412,-0.7418 -4.0419,-2.0867 -6.1e-4,-2.4119 6.0437,-3.8713 8.8081,-1.1068 l 4.926502,-4.9266 c -2.764412,-2.7645 -1.3043,-8.808 1.1069,-8.8081 1.3442,0 2.1318,1.8897 2.0874,4.0412 5.6268,-6.9161 0.632,-13.165 -3.2557,-13.1664 -5.424102,-7e-4 -9.397702,10.0141 -1.4069,18.0049 z"
       inkscape:connector-curvature="0" />
    <path
       sodipodi:nodetypes="cccccc"
       style="fill:#b4001e;fill-opacity:1;stroke:#000000;stroke-width:0.60000002;stroke-miterlimit:4;stroke-dasharray:none;stroke-opacity:1"
       id="path4503"
       d="m 98.564938,758.25282 c 0,0 -10.6603,-5.0077 -15.035,-9.3753 -2.4018,-2.4018 -3.6458,-5.8497 -4.03,-12.5153 6.6649,0.3835 10.1156,1.6247 12.5153,4.03 4.3711,4.3712 9.375302,15.035 9.375302,15.035 z"
       inkscape:connector-curvature="0" />
    <path
       sodipodi:nodetypes="cccsccsccc"
       inkscape:connector-curvature="0"
       id="path4505"
       d="m 123.21593,780.07829 c 0.14283,-2.6101 -1.40171,-4.96477 -3.4003,-6.96337 1.88484,-0.5656 4.02292,-1.7061 5.28127,-3.1764 -2.72669,0.3895 -5.41417,0.8475 -7.95774,-1.6961 -1.08872,-1.0887 -2.05592,-3.0963 -2.19583,-4.6403 l -8.2036,8.2036 c 1.544,0.1399 3.55159,1.1071 4.64042,2.1958 2.54346,2.54357 2.08549,5.23107 1.6959,7.95767 1.47037,-1.2583 2.61096,-3.3964 3.17649,-5.2812 1.99858,1.9986 4.35339,3.5431 6.96339,3.4003 z"
       style="fill:#b4001e;fill-opacity:1;stroke:#000000;stroke-width:0.60000002;stroke-miterlimit:4;stroke-dasharray:none;stroke-opacity:1" />
    <path
       style="fill:#b4001e;fill-opacity:1;stroke:#000000;stroke-width:0.60000002;stroke-miterlimit:4;stroke-dasharray:none;stroke-opacity:1"
       d="m 260.48427,936.86203 c 0,-2.764 5.3047,-5.6867 7.0097,-4.4804 0.9505,0.6728 0.1709,2.1432 -1.38279,3.1972 8.87009,-0.645 9.75779,-6.2691 7.00979,-8.2129 -3.8349,-2.7132 -13.7266,0.5108 -13.7266,8.5 l -4.78899,0 c 0,-7.9892 -9.8917,-11.2132 -13.7266,-8.5 -2.748,1.9438 -1.8603,7.5679 7.0098,8.2129 -1.5537,-1.054 -2.3333,-2.5244 -1.3828,-3.1972 1.705,-1.2063 7.0097,1.7164 7.0097,4.4804 z"
       id="path4332"
       inkscape:connector-curvature="0"
       sodipodi:nodetypes="ccccccccccc" />
    <path
       sodipodi:nodetypes="cccccc"
       style="fill:#b4001e;fill-opacity:1;stroke:#000000;stroke-width:0.60000002;stroke-miterlimit:4;stroke-dasharray:none;stroke-opacity:1"
       id="path4334"
       d="m 255.00187,936.86221 c 0,0 -3.997,-7.8487 -4.002,-12.2193 0,-2.4016 1.5584,-4.7563 6,-8.2807 4.4416,3.5244 6.004,5.8791 6,8.2807 0,4.3706 -4.002,12.2193 -4.002,12.2193 z"
       inkscape:connector-curvature="0" />
    <path
       sodipodi:nodetypes="cccsccsccc"
       inkscape:connector-curvature="0"
       id="path4336"
       d="m 256.99971,962.36221 c -1.94654,-1.7446 -2.51953,-4.50183 -2.51953,-7.32813 -1.73259,0.9328 -4.05092,1.6382 -5.98047,1.4883 2.20348,-1.6526 4.42773,-3.2291 4.42773,-6.8262 0,-1.5397 -0.73574,-3.6432 -1.72851,-4.8339 l 11.60156,0 c -0.99277,1.1907 -1.72852,3.2942 -1.72852,4.8339 0,3.5971 2.22426,5.1736 4.42774,6.8262 -1.92955,0.1499 -4.24788,-0.5555 -5.98047,-1.4883 0,2.8263 -0.57299,5.58353 -2.51953,7.32813 z"
       style="fill:#b4001e;fill-opacity:1;stroke:#000000;stroke-width:0.60000002;stroke-miterlimit:4;stroke-dasharray:none;stroke-opacity:1" />
    <path
       inkscape:connector-curvature="0"
       d="m 407.99992,939.86223 -301.99998,0 0,-177.00001 301.99998,0 z m -296.99998,-5 291.99998,0 0,-167.00001 -291.99998,0 z"
       id="path4349"
       style="fill:#b4001e;fill-opacity:1;stroke:#000000;stroke-width:0.60000002;stroke-miterlimit:4;stroke-dasharray:none;stroke-opacity:1"
       sodipodi:nodetypes="cccccccccc" />
    <path
       style="fill:#b4001e;fill-opacity:1;stroke:#000000;stroke-width:0.60000002;stroke-miterlimit:4;stroke-dasharray:none;stroke-opacity:1"
       id="path4351"
       d="m 417.99992,949.86223 -321.999982,0 0,-197.00001 321.999982,0 z m -316.99998,-5 311.99998,0 0,-187.00001 -311.99998,0 z"
       inkscape:connector-curvature="0"
       sodipodi:nodetypes="cccccccccc" />
    <path
       inkscape:connector-curvature="0"
       sodipodi:nodetypes="ccccccccccccc"
       d="m 165.49993,798.3622 22.00002,0 0,-7.1579 58.5,0 0,7.1579 21.99999,0 0,-7.1579 58.5,0 0,7.1579 22.00001,0 -4e-5,-9.9996 -182.99998,-4e-4 z"
       style="display:inline;fill:#1e82d2;fill-opacity:1;fill-rule:evenodd;stroke:none;stroke-width:0;stroke-linecap:butt;stroke-linejoin:miter;stroke-miterlimit:4;stroke-dasharray:none;stroke-opacity:1"
       id="path4427" />
    <g
       style="opacity:1"
       transform="matrix(0.45983435,0,0,0.35724813,381.95032,699.23847)"
       id="g2717">
      <g
         id="g2719"
         transform="matrix(2.2803737,0,0,2.3339879,-489.84465,198.4491)">
        <path
           id="path2721"
           style="fill:#b4001e;fill-opacity:1"
           d="m 79.315,89.49 c 3.583,-3.667 7.354,-5.083 7.354,-5.083 0,0 -2.5,1.813 -3.938,4.188 -1.438,2.375 -3,3.063 -3,3.063 4.25,0.875 5.25,-1.188 6.5,-2.563 0.259,-0.285 0.611,-0.572 1.004,-0.849 -0.002,-0.014 -0.004,-0.026 -0.004,-0.026 0,0 0.002,0.013 0.004,0.026 1.502,-1.06 3.621,-1.964 3.621,-1.964 0,0 -2.119,0.904 -3.621,1.964 0.044,0.263 0.478,2.969 0.121,4.099 -0.375,1.188 -1.688,2.5 -0.313,3.563 1.375,1.063 2.813,0.75 2.813,0.75 0,0 -0.656,-2.406 2.563,-5 -3.219,2.594 -2.563,5 -2.563,5 0.25,1.75 -0.938,3.375 -0.938,3.375 5.375,-0.5 8.438,-5.875 8.438,-5.875 0,1.438 -0.563,5.313 -0.563,5.313 2.125,-0.438 3.438,-1.5 3.938,-2.688 0.5,-1.188 1.063,-3.313 1.938,-0.25 0.875,3.063 3.938,3.438 3.938,3.438 l -0.188,-5.063 c 1.313,2.675 4.32,2.662 5.595,2.525 l -0.597,-0.723 0.597,0.723 c 0.363,-0.039 0.593,-0.088 0.593,-0.088 -2.563,-2.25 -3.375,-13.5 -1,-7.813 2.375,5.687 5.938,1.75 5.938,1.75 -3.188,-0.438 -1.75,-5.125 -1.75,-5.125 2.75,1.063 3.688,-2.063 3.688,-2.063 -4.313,-0.938 -2.75,-7.75 -2.75,-7.75 3.625,0.938 4.438,-1.938 4.438,-1.938 -4.313,-0.063 -3.875,-4.688 -4.5,-6 -0.625,-1.312 -0.188,-2.063 -0.188,-2.063 3.188,0.313 3.813,-1.813 3.813,-1.813 -4.375,0 -4.625,-3.938 -4.625,-5.688 0,-1.75 -0.868,-3.399 -0.938,-4.625 -0.084,-1.479 0.813,-4.125 0.813,-4.125 0,0 -1.75,2 -3.313,2.188 -1.563,0.188 -1.125,-2.625 -2.25,-3.688 -1.125,-1.063 -2.375,-2.375 -4.125,-2.438 -1.75,-0.063 -1.25,-3.875 -1.25,-3.875 0,0 -1.813,1.75 -2.938,2.75 -1.125,1 -1.875,1.063 -3.438,1.125 -1.563,0.062 -2.625,-0.75 -5,1.188 -2.375,1.938 -4.438,1.5 -7,1.5 -2.562,0 -1.938,1.563 -1.375,2.313 0.563,0.75 -0.063,2.688 -0.063,4.625 0,1.937 1.375,1.75 2.875,2.875 1.5,1.125 3.188,0.063 4.25,-0.813 1.017,-0.837 4.597,-0.759 4.907,-0.751 -0.243,-0.45 -0.41,-0.933 -0.428,-1.437 0.018,0.504 0.185,0.986 0.428,1.437 0.014,0 0.03,10e-4 0.03,10e-4 l 0.428,0.027 0.026,-0.328 -0.026,0.328 0.557,0.036 -0.557,-0.036 -0.05,0.613 c 0.963,1.292 2.414,2.172 2.414,2.172 0,0 -1.451,-0.88 -2.414,-2.172 l -10e-4,0.01 c -0.084,4.167 1.255,6.746 1.248,8.162 -0.006,1.236 -1.5,1.25 -1.5,1.25 0,0 -7,0 -9,-0.083 -2,-0.083 -1.583,0.917 -1.583,2.75 0,1.833 -1.167,2.417 -1.167,2.417 2.083,0.25 2.584,-0.5 3.084,-1.167 0.5,-0.667 1.916,-1.083 3.75,-0.333 1.833,0.75 4.25,-0.083 5.583,-0.333 1.333,-0.25 0.667,1.667 0.667,1.667 0,0 -1.417,2.667 -3.667,2.833 -2.25,0.166 -3.917,-0.167 -5.333,1.417 -0.954,1.067 -2.656,1.455 -4.028,1.924 l 0.897,0.401 -0.897,-0.401 c -0.664,0.228 -1.258,0.472 -1.639,0.826 -1.167,1.083 -6.333,2.5 -9.25,0.75 0,0 -0.25,3.5 3.25,4 0,0 2.083,0.333 -0.667,2.583 -1.443,1.182 -2.327,3.257 -3.516,4.059 0.049,0.041 0.078,0.066 0.078,0.066 l 0.485,0.359 0.529,-0.255 -0.529,0.255 0.043,0.032 -0.043,-0.032 -0.395,0.19 c 1.125,0.407 3.385,0.761 5.682,-1.589 z"
           inkscape:connector-curvature="0" />
        <path
           id="path2723"
           style="fill:#b4001e;fill-opacity:1;stroke-width:0.88497984;stroke-miterlimit:4;stroke-dasharray:none"
           d="m 76.981,86.407 c 2.75,-2.25 0.667,-2.583 0.667,-2.583 -3.5,-0.5 -3.25,-4 -3.25,-4 2.917,1.75 8.083,0.333 9.25,-0.75 0.381,-0.354 0.975,-0.598 1.639,-0.826 l -0.061,-0.027 c 0,0 -9.127,-3.811 -12.938,-13.646 -3.811,-9.835 -12.405,-14.8 -12.405,-14.8 0,0 -2.66,-1.152 -0.976,-5.406 1.684,-4.254 -0.089,-5.405 -0.798,-4.874 -0.709,0.531 -1.595,1.063 -2.393,0.709 -0.797,-0.354 -1.594,1.772 -2.835,0.443 -1.241,-1.329 -1.507,-2.038 -2.659,-0.709 -1.151,1.329 -2.569,2.039 -2.037,2.659 0.154,0.181 0.163,0.294 0.089,0.359 0.416,0.097 2.873,0.796 5.357,4.307 -2.484,-3.511 -4.941,-4.21 -5.357,-4.307 -0.181,0.158 -0.905,-0.008 -1.596,-0.448 -0.975,-0.62 -2.393,0.709 -1.684,1.595 0.709,0.886 -0.531,4.253 1.418,3.899 1.949,-0.354 3.987,-1.596 4.076,0.088 0.089,1.684 2.836,3.545 0,3.722 -2.836,0.177 -4.253,0.62 -4.076,2.126 0.177,1.506 1.595,6.469 3.101,3.722 1.508,-2.747 4.52,-2.659 5.406,-0.177 0.886,2.482 2.127,5.229 2.127,5.229 l 0.496,-0.806 c 0,0 0.938,2.938 0.875,4.813 l 0.938,-0.563 0.688,5.563 1.063,-1.063 0.313,6.813 1.75,-1.5 c 0,0 0.188,3.313 0.438,4.438 l 0.938,-0.688 c 0,0 0.313,2 1.813,4 1.399,1.866 6.439,6.176 7.109,6.747 1.187,-0.802 2.071,-2.878 3.514,-4.059 z m -23.363,-45.293 2.147,4.432 -2.147,-4.432 z"
           inkscape:connector-curvature="0" />
        <path
           id="path2725"
           style="fill:#ed312e"
           d="m 96.856,57.094 c 0,0 -0.017,0 -0.03,-10e-4 0.12,0.223 0.256,0.438 0.408,0.641 l 0.05,-0.613 -0.428,-0.027 z"
           inkscape:connector-curvature="0" />
        <path
           id="path2727"
           style="fill:#ed312e"
           d="m 73.543,90.532 c 0,0 -0.029,-0.025 -0.078,-0.066 -0.181,0.123 -0.369,0.219 -0.567,0.274 0,0 0.274,0.174 0.736,0.34 l 0.395,-0.19 -0.486,-0.358 z"
           inkscape:connector-curvature="0" />
        <path
           id="path2729"
           style="fill:#b4001e;fill-opacity:1"
           d="m 106.148,122.074 c 0.133,-0.654 0.156,-1.307 0.129,-1.954 -0.264,0.011 -7.401,0.292 -9.679,-0.95 -2.32,-1.266 -6.434,-1.16 -9.07,1.266 -2.636,2.426 -7.383,5.168 -9.703,1.898 -0.601,-0.847 -0.912,-1.602 -1.042,-2.255 -0.374,-1.87 0.726,-2.912 0.726,-2.912 0,0 -6.748,2.108 -2.214,7.276 -4.957,1.477 -7.699,-3.691 -7.699,-3.691 0,0 -1.35,5.479 2.386,6.28 3.366,0.722 6.263,0.364 6.263,0.364 0,0 -3.325,5.261 -7.325,4.948 0,0 1.75,2.938 7.563,-1.188 0,0 -0.313,1.375 0.313,2.938 0,0 4.813,-3.75 5.25,1 0.437,4.75 0.5,4.25 1.313,5 0.813,0.75 2.063,3.75 -0.375,3.688 -2.438,-0.062 -5.25,-0.938 -7.188,-1 -1.938,-0.062 -8.063,1.188 -9.375,-0.313 -1.312,-1.501 -3,-2.5 -3.25,-4.313 -0.25,-1.813 -1.188,-2.063 -1.938,-2 -0.75,0.063 -2.063,0.625 -1.625,2.313 0,0 -0.19,0.998 -0.737,0.838 l 4.583,4.388 -4.583,-4.388 c -0.08,-0.023 -0.167,-0.07 -0.263,-0.15 -0.75,-0.625 -2.563,-1.563 -2.813,-0.063 -0.25,1.5 0.188,2.813 -0.188,3.563 -0.376,0.75 -0.875,1 -0.813,2.188 0.062,1.188 -0.688,4.438 0.75,4.5 1.438,0.062 1.563,-1.375 3.813,-1.25 2.25,0.125 6.063,-0.375 4.375,0.938 -1.688,1.313 -3.625,1.75 -3.813,2.875 -0.188,1.125 0.625,0.813 1.438,0.875 0.813,0.062 1.563,1 1.75,1.875 0.187,0.875 1.5,1.563 1.875,-0.188 0.375,-1.751 0.688,-4.484 2.313,-4.625 1.843,-0.159 2.592,1.501 2.592,1.501 1.198,2.115 2.15,3.102 2.715,3.278 0,0 0.105,-1.55 1.551,-2.009 1.446,-0.459 2.291,0.81 2.68,1.621 0.387,0.812 1.198,2.327 2.891,2.645 0,0 -0.142,-2.292 1.304,-2.257 1.446,0.035 2.081,2.786 4.831,3.35 0,0 0.07,-1.41 1.092,-1.798 1.023,-0.388 1.551,-1.339 1.587,-1.833 0,0 0.317,2.925 2.927,3.489 0,0 0.139,-0.828 1.057,-1.868 1.059,-1.198 1.461,-1.78 4.15,-1.807 2.699,-0.026 4.688,-2.75 4.688,-2.75 0,0 -3.313,1.375 -5.688,-0.25 -2.375,-1.625 -5.875,-11.75 3.563,-15.188 2.815,-0.922 4.313,-0.837 4.77,-0.776 -0.091,-3.28 1.121,-8.074 2.143,-13.119 z m -47.936,20.573 c -1.44,-1.113 -2.489,-0.328 -2.489,-0.328 0,0 1.049,-0.785 2.489,0.328 1.44,1.113 3.21,2.554 3.21,2.554 0,0 -1.769,-1.441 -3.21,-2.554 z"
           inkscape:connector-curvature="0" />
        <path
           id="path2731"
           style="fill:#b4001e;fill-opacity:1;stroke-width:0.88497984;stroke-miterlimit:4;stroke-dasharray:none"
           d="m 151.564,46.157 c -1.416,-2.667 -2.834,-6.167 -5.917,-6.167 0,0 4.167,-4.25 0.583,-7.5 0,0 -1.063,5.667 -7.166,5.667 -11.979,0 -15.313,7.639 -14.271,22.938 0.813,11.938 9.813,17.938 15.938,24.063 5.24,5.24 6.312,15 6.312,15 -0.033,-0.056 -0.066,-0.112 -0.099,-0.167 -2.605,-4.274 -5.703,-4.423 -9.775,-6.583 -4.125,-2.188 -0.938,-7.375 -0.938,-7.375 -8.563,2.875 -2.875,9.25 -2.875,9.25 l -2.25,2.375 c -3.375,3 -7,-2.563 -7,-2.563 -0.375,5.875 4.313,6 4.313,6 -8.75,7.313 0.625,11.563 0.625,11.563 -3.75,-4.375 1.813,-8.313 1.813,-8.313 1.438,5.875 6.188,2 6.188,2 -2.313,-0.063 -6.063,-5.875 1.875,-7 7.938,-1.125 10.875,14.125 1.813,19.813 -9.063,5.688 -18.875,-3 -20.688,-8.438 -1.813,-5.438 -8,-13.25 -8,-13.25 l -0.03,-0.037 c -1.274,0.137 -4.281,0.149 -5.595,-2.525 l 0.188,5.063 c 0,0 -3.063,-0.375 -3.938,-3.438 -0.875,-3.063 -1.438,-0.938 -1.938,0.25 -0.5,1.188 -1.813,2.25 -3.938,2.688 0,0 0.563,-3.875 0.563,-5.313 0,0 -3.063,5.375 -8.438,5.875 0,0 1.188,-1.625 0.938,-3.375 0,0 -1.438,0.313 -2.813,-0.75 -1.375,-1.063 -0.063,-2.375 0.313,-3.563 0.356,-1.129 -0.077,-3.835 -0.121,-4.099 -0.393,0.277 -0.745,0.563 -1.004,0.849 -1.25,1.375 -2.25,3.438 -6.5,2.563 0,0 1.563,-0.688 3,-3.063 1.437,-2.375 3.938,-4.188 3.938,-4.188 0,0 -3.771,1.417 -7.354,5.083 -2.297,2.35 -4.557,1.996 -5.681,1.59 l -0.028,0.014 c -3.333,1.5 -12.813,8.813 -12.813,8.813 -4.125,3.063 -7.25,5.75 -11.625,6.625 -4.375,0.875 -6.75,-0.563 -9,-2.125 -2.25,-1.562 -1.875,1.5 -1.875,1.5 l 0,1.938 c 0,1.938 2.75,0.688 4.375,1.188 1.625,0.5 -3.875,3.438 -6.875,3.813 -3,0.375 -1.438,2.625 -0.75,2.625 0.688,0 0.875,-0.313 1.813,1.188 0.938,1.501 2.063,1.313 3.063,-0.375 1,-1.688 3.125,-2.188 4.438,-3.063 1.313,-0.875 1.375,-0.063 1.375,1.625 0,1.688 -0.875,2.5 -2.25,3.563 -1.375,1.063 0.438,1.5 1.188,1.813 0.75,0.313 1.188,0.625 1.75,1.625 0.562,1 1.813,0.188 1.813,-3.688 0,-3.876 1.75,-3.938 3.188,-5.625 1.438,-1.687 1.438,0.688 1.375,2.875 -0.063,2.187 0.375,2.5 1.375,2.625 1,0.125 2.063,-0.313 2.75,-3 0.687,-2.687 2.875,-1.75 2.875,-1.75 0.563,0.5 1.375,0.25 1.375,0.25 -0.438,-1.5 0.5,-2.813 0.5,-2.813 0.875,2.188 3.438,2.25 3.438,2.25 -0.563,-1.375 0.313,-2.688 0.313,-2.688 1.438,3.188 4.313,2.688 4.313,2.688 -0.625,-1.188 -0.313,-3 -0.313,-3 1,1.75 2.813,1.063 2.813,1.063 -0.938,-1.5 -0.063,-3.5 -0.063,-3.5 1.438,3.063 3.938,2.5 3.938,2.5 -1.25,-2.688 0.688,-3.063 1.875,-2.188 1.187,0.875 2.938,0 2.938,0 1.688,-0.5 2,1.438 2,1.438 0,0 1.957,-1.434 3.375,-2.25 0.719,-0.414 1.542,-0.566 2.312,-0.594 l -0.541,-1.34 0.541,1.34 c 1.44,-0.051 2.688,0.344 2.688,0.344 0,0 -1.248,-0.395 -2.688,-0.344 l 0.063,0.156 c 2.563,5.75 8.75,6.875 11.813,7.438 3.063,0.563 5.125,3.063 5.125,3.063 l 0.15,0.226 c -1.548,-4.666 -5.858,-8.413 -5.858,-8.413 0,0 4.311,3.747 5.858,8.413 l 0.982,1.473 -0.982,-1.473 c 0.301,0.905 0.479,1.846 0.521,2.8 0.005,0 0.024,-0.001 0.024,-0.001 l 0.949,0 -0.949,0 c 0,0 -0.02,0.001 -0.024,0.001 0.027,0.647 0.004,1.3 -0.129,1.954 -1.021,5.045 -2.234,9.839 -2.147,13.119 0.101,0.014 0.168,0.026 0.168,0.026 l 0.895,0.063 -0.895,-0.063 c 0,0 -0.067,-0.013 -0.168,-0.026 0.026,1.001 0.169,1.865 0.48,2.547 1.334,2.917 6.417,8.334 3.167,12.417 -3.25,4.083 -4.083,4.417 -3.75,8.417 0,0 0.396,-3.167 2.771,-4.167 0,0 -0.625,4.313 1.125,6.375 0,0 -0.438,-3.25 1.438,-4.625 0,0 1.688,3.438 4.625,2.25 0,0 -2.188,-2 -2.188,-4.625 0,-2.625 0.938,-3.813 2.25,-1.813 1.312,2 3.563,2 5.25,0.813 1.687,-1.187 5.125,-5.063 5.125,-1.938 0,3.125 0.563,4.063 1.188,4.5 0.625,0.437 0.5,1.688 -0.563,3.063 -1.063,1.375 -2,3.5 -2.5,4.938 -0.5,1.438 -3,4.75 -4.063,3.5 -1.063,-1.25 -3.125,-2.063 -3.75,-1.25 -0.625,0.813 -2.188,1.063 -1.313,1.813 0.875,0.75 0.875,2.125 0.688,3.25 -0.187,1.125 1,1.25 0.5,2.5 0,0 0.992,-1.757 3.094,-3.108 -2.102,1.352 -3.094,3.108 -3.094,3.108 -0.5,1.25 -1.563,1.188 -0.125,2.313 1.438,1.125 1.625,2.5 3.188,1.938 1.563,-0.562 2.063,-0.063 2.125,1.063 0.062,1.126 1.75,3 2.438,0.75 0.688,-2.25 0.5,-5.375 0.438,-6.188 -0.062,-0.813 0.688,-1 1.75,-1.75 1.062,-0.75 2.875,-1.438 3,0.188 0.125,1.626 -0.25,4.938 0.5,5.313 0.75,0.375 1.75,0.563 1.813,-0.875 0.063,-1.438 0.5,-1.813 1.688,-2.063 1.188,-0.25 2.125,-0.438 2.188,-1.75 0.063,-1.312 -0.063,-2.313 -1.938,-2.313 -1.875,0 -2.063,-0.25 -2.063,-1.5 0,-1.25 -0.375,-2.75 2,-2.938 2.375,-0.188 4.792,-0.583 5.542,-1.396 0,0 -1.876,-0.375 -2.667,-1.667 -0.791,-1.292 -2,-1.125 -2,-1.125 0,0 0.042,-0.417 1.292,-0.625 1.25,-0.208 5.292,-0.875 6.167,-3.417 0,0 -1.543,0.625 -2.834,-0.458 -1.291,-1.083 -1.791,-1.042 -1.791,-1.042 0,0 0.625,-0.583 2.458,-0.583 1.833,0 3.833,-2 3.833,-2 0,0 -1.709,-0.084 -2.334,-0.834 -0.625,-0.75 -1.416,-1.375 -2.541,-1.458 0,0 1.333,-1.291 3.041,-1.458 1.709,-0.167 2.75,-2.042 2.75,-2.042 0,0 -1.291,0.334 -2.541,-0.458 -1.25,-0.792 -3.209,-0.459 -3.209,-0.459 0,0 0.918,-1.291 3.043,-1.416 2.125,-0.125 4.291,-1.834 4.291,-1.834 0,0 -1.791,0.083 -2.875,-0.875 0,0 -2.292,-1.749 -2.584,-3.416 -0.291,-1.667 0.334,-2 -0.104,-2.813 -0.557,-1.034 -2.688,-2.688 -2.375,-5.5 0,0 -0.688,-0.438 -2.688,1.688 -2,2.126 -5.513,5.076 -8.613,3.707 0,0 -4.469,-1.55 -2.887,-12.395 0,0 30.292,12.021 30.458,-17.813 0.166,-27.167 -20.917,-27.167 -23.583,-42.167 0,0 -4.416,-23.167 11.084,-21 0,0 1.75,0.333 0.333,3.083 -1.417,2.75 -1.583,9.667 -1.583,9.667 0,0 1.365,0.193 2.365,-0.307 0,0 0.384,0.89 -0.699,2.224 -1.083,1.334 -1.833,5.333 0.417,8 2.25,2.667 7.167,2.917 7.167,2.917 0,0 -2,-2.417 -0.917,-5 1.083,-2.583 2.167,-3.167 2.5,-5.333 0,0 2.334,6.75 6.916,3.5 0,0 -3.084,-2.167 -2.416,-5.083 0.666,-2.917 1.166,-3.833 1.166,-5.25 0,0 3.58981,-0.333 3.58981,-5.417 -0.007,-0.004 -5.67881,3.329 -7.09681,0.663 z m -33.275,127.945 c -0.976,0.901 -0.976,3.34 -0.976,3.34 0,0 0,-2.439 0.976,-3.34 0.976,-0.901 1.989,-2.027 1.989,-2.027 0,0 -1.014,1.126 -1.989,2.027 z"
           inkscape:connector-curvature="0"
           sodipodi:nodetypes="cccssscccccccccccscsccccssccccsccccscccccsscssssssssssssssssccccccccccscccccccccsccccccccccccccccccscccccssssssssssscccsssssssssssssscscscscscscccscscccccscccccsccsscsccccccccscc" />
      </g>
      <path
         id="path2733"
         style="fill:none;stroke:#000000;stroke-width:2.0374763;stroke-miterlimit:4;stroke-dasharray:none;stroke-opacity:1"
         d="m -168.08831,327.37758 c 0,0 0.12086,-1.83685 2.63155,-3.79507 2.5107,-1.95821 5.86284,-5.87698 6.69974,-8.93917"
         inkscape:connector-curvature="0" />
      <path
         id="path2735"
         style="fill:none;stroke:#000000;stroke-width:2.0374763;stroke-miterlimit:4;stroke-dasharray:none;stroke-opacity:1"
         d="m -154.48833,354.23307 c 0,0 -9.81017,-0.4878 -7.89466,-15.42766"
         inkscape:connector-curvature="0" />
      <path
         id="path2737"
         style="fill:none;fill-opacity:1;stroke:#000000;stroke-width:2.44497156;stroke-miterlimit:4;stroke-dasharray:none;stroke-opacity:1"
         d="m -240.48579,519.73887 c 0,0 2.56542,9.33595 12.25701,8.75246"
         inkscape:connector-curvature="0" />
      <path
         id="path2739"
         style="fill:none;fill-opacity:1;stroke:#000000;stroke-width:2.44497156;stroke-miterlimit:4;stroke-dasharray:none;stroke-opacity:1"
         d="m -199.15401,523.82335 4.84579,-0.5835 c 0,0 2.56542,-0.29174 2.56542,2.62574 0,2.91749 0,5.83497 0,5.83497"
         inkscape:connector-curvature="0" />
      <line
         style="fill:none;fill-opacity:1;stroke:#000000;stroke-width:2.0374763;stroke-miterlimit:4;stroke-dasharray:none;stroke-opacity:1"
         i:knockout="Off"
         x1="-355.61957"
         y1="523.58765"
         x2="-345.16406"
         y2="533.83148"
         id="line2741" />
      <path
         id="path2743"
         style="fill:#1e82d2;fill-opacity:1;stroke:#000000;stroke-width:1.42531359;stroke-miterlimit:4;stroke-dasharray:none;stroke-opacity:1"
         d="m -353.37797,517.62895 c 0,0 -6.2733,-8.86682 -14.18848,-1.83452 0,0 6.27331,0.002 8.21618,5.8093 l 4.14344,2.48103 1.33858,-2.28498 c -0.002,0 -1.02845,-2.8568 0.49028,-4.17083 z"
         inkscape:connector-curvature="0" />
      <path
         sodipodi:nodetypes="cc"
         id="path2745"
         style="fill:none;fill-opacity:1;stroke:#000000;stroke-width:2.0374763;stroke-miterlimit:4;stroke-dasharray:none;stroke-opacity:1"
         d="m -362.78907,530.61992 c 4.49374,0.44163 9.18096,3.93068 12.99357,6.72656"
         inkscape:connector-curvature="0" />
      <path
         id="path2747"
         style="fill:#1e82d2;fill-opacity:1;stroke:#000000;stroke-width:1.42531359;stroke-miterlimit:4;stroke-dasharray:none;stroke-opacity:1"
         d="m -364.72967,533.98553 c -2.23932,-5.3495 -11.3517,-5.04374 -11.3517,-5.04374 3.43425,-7.94723 13.44281,-4.89204 13.44281,-4.89204 0,0 -0.15735,3.46364 0.0639,5.13944 0.22119,1.6758 -2.15496,4.79634 -2.15496,4.79634 z"
         inkscape:connector-curvature="0" />
      <path
         id="path2749"
         style="fill:#1e82d2;fill-opacity:1;stroke:#000000;stroke-width:1.42531359;stroke-miterlimit:4;stroke-dasharray:none;stroke-opacity:1"
         d="m -345.46279,560.73537 c -6.42153,2.44602 -6.72026,11.61859 -6.72026,11.61859 -7.61645,-11.31284 -0.74796,-17.88301 -0.74796,-17.88301 0,0 0.47431,0.60917 2.7068,0.53448 2.23249,-0.0747 3.34759,1.67814 3.79454,3.04819 0.44696,1.37005 0.96688,2.68175 0.96688,2.68175 z"
         inkscape:connector-curvature="0" />
      <path
         id="path2751"
         style="fill:#1e82d2;fill-opacity:1;stroke:#000000;stroke-width:1.42531359;stroke-miterlimit:4;stroke-dasharray:none;stroke-opacity:1"
         d="m -365.0284,536.1258 c 0,0 -13.4428,-3.51732 -12.99356,10.39325 0,0 5.82407,-7.18168 12.54433,-3.82074"
         inkscape:connector-curvature="0" />
      <path
         id="path2753"
         style="fill:none;fill-opacity:1;stroke:#000000;stroke-width:2.0374763;stroke-miterlimit:4;stroke-dasharray:none;stroke-opacity:1"
         d="m -228.79887,602.59544 c 0,0 2.26441,-4.10081 7.05548,-7.25403"
         inkscape:connector-curvature="0" />
      <path
         sodipodi:nodetypes="csc"
         id="path2755"
         style="fill:none;fill-opacity:1;stroke:#000000;stroke-width:2.0374763;stroke-miterlimit:4;stroke-dasharray:none;stroke-opacity:1"
         d="m -222.34313,612.59658 c 0,0 1.10446,-4.26865 3.3301,-6.37391 2.22565,-2.10526 3.43121,-6.1526 3.43121,-6.1526"
         inkscape:connector-curvature="0" />
      <path
         id="path2757"
         style="fill:#1e82d2;fill-opacity:1;stroke:#000000;stroke-width:1.42531359;stroke-miterlimit:4;stroke-dasharray:none;stroke-opacity:1"
         d="m -229.87521,597.35564 c -6.76131,-0.3501 -9.75544,5.16978 -9.75544,5.16978 -2.31001,-12.26277 7.95851,-13.84288 7.95851,-13.84288 0,0 2.10022,2.71209 2.10022,4.19184 0,1.47975 -0.30329,4.48126 -0.30329,4.48126 z"
         inkscape:connector-curvature="0" />
      <path
         id="path2759"
         style="fill:#1e82d2;fill-opacity:1;stroke:#000000;stroke-width:1.42531359;stroke-miterlimit:4;stroke-dasharray:none;stroke-opacity:1"
         d="m -230.81472,606.29015 c 0,0 -9.15798,8.41169 2.05234,16.46861 0,0 -1.1972,-8.23197 3.08306,-10.86004"
         inkscape:connector-curvature="0" />
      <path
         id="path2761"
         style="fill:#1e82d2;fill-opacity:1;stroke:#000000;stroke-width:1.42531359;stroke-miterlimit:4;stroke-dasharray:none;stroke-opacity:1"
         d="m -214.87541,617.59132 c -5.99054,2.36666 -2.99413,11.30116 -2.99413,11.30116 -12.49417,-5.25614 -5.39309,-16.38226 -5.39309,-16.38226 0,0 2.05462,0.49014 4.05451,-0.42011 1.99989,-0.91026 3.66456,0.56482 3.7763,2.15893 0.11174,1.59412 0.55641,3.34228 0.55641,3.34228 z"
         inkscape:connector-curvature="0" />
      <path
         id="path2763"
         style="fill:#1e82d2;fill-opacity:1;stroke:#000000;stroke-width:1.42531359;stroke-miterlimit:4;stroke-dasharray:none;stroke-opacity:1"
         d="m -186.56635,602.87319 c 2.65436,12.78792 -7.01899,16.29357 -7.01899,16.29357 3.59387,-4.81735 -1.3705,-7.97057 -1.3705,-7.97057 0,0 0.82093,-1.72015 0.82093,-3.88142 0,-2.16128 1.44576,-2.95717 2.99869,-3.18356 1.55294,-0.2264 4.56987,-1.25802 4.56987,-1.25802 z"
         inkscape:connector-curvature="0" />
      <path
         id="path2765"
         style="fill:none;stroke:#000000;stroke-width:2.44497156;stroke-miterlimit:4;stroke-dasharray:none;stroke-opacity:1"
         d="m -249.03719,471.74508 c 0,0 -4.70441,-5.83497 -11.68691,-7.14901 -6.98251,-1.31403 -21.09346,-3.93977 -26.93806,-17.3602"
         inkscape:connector-curvature="0" />
      <path
         id="path2769"
         style="fill:none;stroke:#000000;stroke-width:2.44497156;stroke-miterlimit:4;stroke-dasharray:none;stroke-opacity:1"
         d="m -312.53191,394.13998 c 0,0 9.47723,1.60579 17.03211,-5.25147 7.55488,-6.85726 14.96609,-8.46071 22.66235,-8.46071"
         inkscape:connector-curvature="0" />
      <path
         id="path2771"
         style="fill:none;stroke:#000000;stroke-width:2.03518343;stroke-miterlimit:4;stroke-dasharray:none;stroke-opacity:1"
         d="m -284.95307,424.04537 c 0,0 -1.49593,-5.61558 5.84459,-11.66994"
         inkscape:connector-curvature="0" />
      <path
         id="path2773"
         style="fill:none;stroke:#000000;stroke-width:2.24122381;stroke-miterlimit:4;stroke-dasharray:none;stroke-opacity:1"
         d="m -246.94608,420.44636 c 0,0 -2.46965,-5.54322 -2.46965,-14.4894"
         inkscape:connector-curvature="0" />
      <line
         style="fill:none;stroke:#000000;stroke-width:2.24122381;stroke-miterlimit:4;stroke-dasharray:none;stroke-opacity:1"
         i:knockout="Off"
         x1="-257.68436"
         y1="419.96088"
         x2="-257.68436"
         y2="405.95697"
         id="line2775" />
      <path
         id="path2777"
         style="fill:none;stroke:#000000;stroke-width:2.24122381;stroke-miterlimit:4;stroke-dasharray:none;stroke-opacity:1"
         d="m -267.85027,418.2104 c 0,0 2.6612,-9.14223 2.6612,-14.58743"
         inkscape:connector-curvature="0" />
      <path
         id="path2779"
         style="fill:#1e82d2;fill-opacity:1;stroke:#000000;stroke-width:1.42531359;stroke-miterlimit:4;stroke-dasharray:none;stroke-opacity:1"
         d="m -404.53131,472.47562 c -5.55955,1.02228 -9.40654,11.66994 -9.40654,11.66994 -4.98946,-10.2112 2.56542,-16.77671 2.56542,-16.77671 0,0 0.96004,0.74921 2.1846,0.43879 1.22456,-0.31042 2.14127,0.75388 2.75241,1.75516 0.61114,1.00128 1.90411,2.91282 1.90411,2.91282 z"
         inkscape:connector-curvature="0" />
      <path
         id="path2781"
         style="fill:#1e82d2;fill-opacity:1;stroke:#000000;stroke-width:1.42531359;stroke-miterlimit:4;stroke-dasharray:none;stroke-opacity:1"
         d="m -384.00795,482.83152 c -5.84459,2.04224 -7.69626,11.52523 -7.69626,11.52523 -4.13431,-7.87721 0.85514,-16.1932 0.85514,-16.1932 0,0 1.78554,0.16104 3.4981,1.10164 1.71256,0.9406 2.46508,2.50203 3.34302,3.56633"
         inkscape:connector-curvature="0" />
      <path
         id="path2783"
         style="fill:#1e82d2;fill-opacity:1;stroke:#000000;stroke-width:1.42531359;stroke-miterlimit:4;stroke-dasharray:none;stroke-opacity:1"
         d="m -402.53598,443.00902 c 0,0 -11.11682,-3.06453 -12.25701,8.75245 0,0 7.12617,-3.35627 12.25701,-1.16699"
         inkscape:connector-curvature="0" />
      <path
         id="path2785"
         style="fill:#1e82d2;fill-opacity:1;stroke:#000000;stroke-width:1.42531359;stroke-miterlimit:4;stroke-dasharray:none;stroke-opacity:1"
         d="m -368.90047,472.18387 -1.99533,10.64999 c 0,0 4.8458,-3.79273 6.55608,-8.8995"
         inkscape:connector-curvature="0" />
      <path
         id="path2787"
         style="fill:none;stroke:#000000;stroke-width:2.24122381;stroke-miterlimit:4;stroke-dasharray:none;stroke-opacity:1"
         d="m -238.11192,404.01042 c 0,0 2.28038,-7.48744 0.38083,-17.50491"
         inkscape:connector-curvature="0" />
      <path
         id="path2789"
         style="fill:none;stroke:#000000;stroke-width:2.24122381;stroke-miterlimit:4;stroke-dasharray:none;stroke-opacity:1"
         d="m -225.9484,399.83024 c 0,0 2.85046,-10.69666 -6.55608,-18.0884"
         inkscape:connector-curvature="0" />
      <path
         id="path2791"
         style="fill:none;stroke:#000000;stroke-width:2.24122381;stroke-miterlimit:4;stroke-dasharray:none;stroke-opacity:1"
         d="m -223.76381,376.68409 c 0,0 -5.03734,-2.23596 -8.36213,-7.19569"
         inkscape:connector-curvature="0" />
      <path
         id="path2793"
         style="fill:none;stroke:#000000;stroke-width:2.24122381;stroke-miterlimit:4;stroke-dasharray:none;stroke-opacity:1"
         d="m -224.41827,353.26018 c 0,0 -2.48105,-0.30342 -5.04647,-3.8044 -2.10935,-2.88014 -5.79671,-4.56995 -7.79204,-8.36268"
         inkscape:connector-curvature="0" />
      <path
         id="path2795"
         style="fill:none;stroke:#000000;stroke-width:2.24122381;stroke-miterlimit:4;stroke-dasharray:none;stroke-opacity:1"
         d="m -235.61719,319.95184 c 0,0 -3.89488,-2.04224 -10.1659,-3.1112"
         inkscape:connector-curvature="0" />
      <path
         id="path2797"
         style="fill:#000000;fill-opacity:1;stroke:#000000;stroke-width:0.81407338;stroke-miterlimit:4;stroke-dasharray:none;stroke-opacity:1"
         d="m -267.79098,316.07275 c 0,0 -4.40112,-5.51988 -6.88445,-2.61406 -2.48333,2.90581 -6.10228,4.57461 -3.19252,6.02869 2.90975,1.45407 4.15484,0.81923 6.77955,0.89158 2.62471,0.0724 6.34856,-1.18333 3.29742,-4.30621 z"
         inkscape:connector-curvature="0" />
      <path
         id="path2799"
         style="fill:#1e82d2;fill-opacity:1;stroke:#000000;stroke-width:1.42623341;stroke-linejoin:round;stroke-miterlimit:4;stroke-dasharray:none;stroke-opacity:1"
         d="m -265.34855,348.8816 -29.96198,-0.61848 c 0,0 -19.2874,0.80289 -10.16591,-23.41224 0,0 -0.6271,19.74787 15.14397,19.74787 15.77106,0 23.05229,0.27308 23.05229,0.27308"
         inkscape:connector-curvature="0"
         sodipodi:nodetypes="cccsc" />
      <polyline
         style="fill:#ffffff;stroke:#000000;stroke-width:0.35326469;stroke-miterlimit:4;stroke-dasharray:none;stroke-opacity:1"
         i:knockout="Off"
         points="88.475,67.073 89.266,65.429        90.308,67.115 "
         id="polyline2801"
         transform="matrix(2.2803737,0,0,2.3339879,-489.84465,197.75847)" />
      <polyline
         style="fill:#ffffff;stroke:#000000;stroke-width:0.35326469;stroke-miterlimit:4;stroke-dasharray:none;stroke-opacity:1"
         i:knockout="Off"
         points="87.808,58.823 88.933,61.09        89.891,59.115 "
         id="polyline2803"
         transform="matrix(2.2803737,0,0,2.3339879,-489.84465,198.85021)" />
      <path
         id="path2806"
         style="fill:#1e82d2;fill-opacity:1;stroke:#000000;stroke-width:1.42531359;stroke-miterlimit:4;stroke-dasharray:none;stroke-opacity:1"
         d="m -380.25673,334.61862 c 0,0 -12.02213,3.59668 -17.15753,-7.32872 0,0 7.83536,2.76578 13.91484,0.27541"
         inkscape:connector-curvature="0" />
      <path
         id="path2808"
         style="fill:#1e82d2;fill-opacity:1;stroke:#000000;stroke-width:1.42531359;stroke-miterlimit:4;stroke-dasharray:none;stroke-opacity:1"
         d="m -386.74211,306.68779 c 0,0 -9.18763,-3.4543 -13.3744,-0.27541 0,0 2.83679,-8.43503 12.56486,-7.05098"
         inkscape:connector-curvature="0" />
      <path
         id="path2810"
         style="fill:#1e82d2;fill-opacity:1;stroke:#000000;stroke-width:1.42531359;stroke-miterlimit:4;stroke-dasharray:none;stroke-opacity:1"
         d="m -379.04129,295.21157 c 0,0 -4.05451,-7.19102 -11.2126,-4.70065 0,0 6.48538,-9.12589 16.48254,-0.27775"
         inkscape:connector-curvature="0" />
      <path
         id="path2812"
         style="fill:#1e82d2;fill-opacity:1;stroke:#000000;stroke-width:1.42531359;stroke-miterlimit:4;stroke-dasharray:none;stroke-opacity:1"
         d="m -361.88376,292.72354 c 0,0 -1.21772,-8.98819 -7.56628,-12.16708 0,0 7.83764,-1.65947 12.97077,9.81675"
         inkscape:connector-curvature="0" />
      <path
         id="path2814"
         style="fill:none;fill-opacity:1;stroke:#000000;stroke-width:2.0374763;stroke-miterlimit:4;stroke-dasharray:none;stroke-opacity:1"
         d="m -379.93064,298.67287 c 0,0 6.15929,1.09931 12.37331,10.0875"
         inkscape:connector-curvature="0" />
      <line
         style="fill:none;fill-opacity:1;stroke:#000000;stroke-width:2.0374763;stroke-miterlimit:4;stroke-dasharray:none;stroke-opacity:1"
         i:knockout="Off"
         x1="-367.59152"
         y1="294.40866"
         x2="-362.6933"
         y2="304.75293"
         id="line2816" />
      <path
         id="path2818"
         style="fill:none;stroke:#000000;stroke-width:2.44497156;stroke-miterlimit:4;stroke-dasharray:none;stroke-opacity:1"
         d="m -267.03348,332.44349 c 0,0 -10.79343,-1.02943 -13.21746,1.01281 -2.42404,2.04224 -6.27103,4.52326 -9.69159,1.89753 -3.42056,-2.62574 -6.55608,-2.18928 -6.55608,-6.71022 0,-4.52093 1.42524,-9.0442 0.14367,-10.79469 -1.28157,-1.75049 -2.70909,-5.39852 3.13551,-5.39852 5.8446,0 10.54673,1.02229 15.96262,-3.50098 5.41589,-4.52327 7.83992,-2.62573 11.40187,-2.77277 3.56194,-0.14705 5.2745,-0.29175 7.83992,-2.62574 2.56542,-2.33399 6.69974,-6.41847 6.69974,-6.41847 0,0 -1.14019,8.8995 2.85047,9.04421 3.99065,0.1447 6.84112,3.20923 9.40654,5.69026 2.56542,2.48103 1.5689,9.0442 5.13084,8.60775 3.56194,-0.43646 7.55488,-5.10677 7.55488,-5.10677 0,0 -2.04322,6.17573 -1.85395,9.6277 0.15735,2.86147 2.13899,6.71022 2.13899,10.79469 0,4.08448 0.5701,13.27573 10.54673,13.27573 0,0 -1.42523,4.95972 -8.69506,4.23152 0,0 -0.99881,1.75049 0.42871,4.81501 1.42751,3.06453 0.42871,13.85922 10.26168,14.00393 0,0 -1.85394,6.71022 -10.1203,4.52327 0,0 -3.56422,15.90146 6.27103,18.08841 0,0 -2.13899,7.29371 -8.41002,4.81501 0,0 -3.27918,10.94174 3.99065,11.96169 0,0 -8.12497,9.19125 -13.54086,-4.08448 -5.41588,-13.27572 -3.56422,12.98398 2.28038,18.23545 0,0 -10.26168,2.33399 -14.11095,-5.69026 l 0.42871,11.81698 c 0,0 -6.98479,-0.87525 -8.98012,-8.02425 -1.99532,-7.14901 -3.27917,-2.18928 -4.41936,0.58349 -1.14019,2.77278 -4.13432,5.25148 -8.98011,6.27376 0,0 1.28385,-9.0442 1.28385,-12.40047 0,0 -6.98479,12.54518 -19.24179,13.71218 0,0 2.70908,-3.79273 2.13899,-7.87721 0,0 -3.27918,0.73053 -6.41469,-1.75049 -3.13552,-2.48103 -0.14367,-5.54323 0.71375,-8.316 0.85742,-2.77278 -0.28504,-9.6277 -0.28504,-9.6277"
         inkscape:connector-curvature="0"
         sodipodi:nodetypes="csssssssscsssccsccscccccscccssccccssc" />
      <path
         id="path2820"
         style="fill:none;stroke:#000000;stroke-width:2.44497156;stroke-miterlimit:4;stroke-dasharray:none;stroke-opacity:1"
         d="m -282.6727,399.83024 c 0,0 -7.69626,3.35628 -10.54673,6.56551 -2.85046,3.20924 -5.13084,8.02425 -14.82243,5.98201 0,0 3.56423,-1.60578 6.84112,-7.149 3.2769,-5.54322 8.98012,-9.77474 8.98012,-9.77474 0,0 -8.59929,3.30726 -16.76987,11.86366 -7.38613,7.73483 -13.05169,3.93528 -13.05169,3.93528 1.83909,-1.99107 3.93247,-7.95441 7.7293,-11.13097 6.27102,-5.25147 1.521,-6.02869 1.521,-6.02869 -7.9813,-1.16699 -7.41121,-9.33595 -7.41121,-9.33595 6.65185,4.08448 18.43226,0.77722 21.09346,-1.75049 2.66119,-2.52771 9.69159,-2.72376 12.92287,-6.41847 3.23129,-3.6947 7.0304,-2.91748 12.16124,-3.30726 5.13084,-0.38977 8.36213,-6.61219 8.36213,-6.61219 0,0 1.52101,-4.47425 -1.52101,-3.89075 -3.04202,0.58349 -8.5514,2.5277 -12.73133,0.77721 -4.17992,-1.75049 -7.41121,-0.77955 -8.5514,0.77722 -1.14019,1.55677 -2.28037,3.30726 -7.03039,2.72377 0,0 2.6612,-1.36305 2.6612,-5.64125 0,-4.2782 -0.95092,-6.61219 3.60983,-6.41847 4.56074,0.19372 20.52336,0.19372 20.52336,0.19372 0,0 3.40688,-0.0327 3.42056,-2.91748 0.016,-3.30726 -3.03746,-9.32429 -2.84591,-19.05001"
         inkscape:connector-curvature="0"
         sodipodi:nodetypes="cscscsccccssscssscssccc" />
      <path
         id="path2822"
         style="fill:none;stroke:#000000;stroke-width:2.44497156;stroke-miterlimit:4;stroke-dasharray:none;stroke-opacity:1"
         d="m -295.5112,381.01363 c 0,0 -20.81297,-8.89482 -29.50348,-31.8496 -8.6905,-22.95477 -28.29031,-34.54068 -28.29031,-34.54068 0,0 -6.06352,-2.68876 -2.22337,-12.61754 3.84015,-9.92879 -0.20067,-12.61521 -1.81746,-11.37586 -1.61678,1.23935 -3.63719,2.48103 -5.45693,1.6548 -1.81974,-0.82623 -3.6372,4.13583 -6.46486,1.03396 -2.82766,-3.10187 -3.43652,-4.75667 -6.06351,-1.6548 -2.62699,3.10187 -5.86056,4.759 -4.64741,6.20607 1.21316,1.44708 -1.21315,1.23935 -3.43424,-0.20772 -2.22108,-1.44707 -5.45693,1.6548 -3.84015,3.72271 1.61679,2.06791 -1.21088,9.92645 3.23357,9.10022 4.44445,-0.82623 9.09413,-3.72505 9.29481,0.20539 0.20067,3.93043 6.46714,8.27399 0,8.6871 -6.46714,0.41312 -9.69843,1.44707 -9.29481,4.96206 0.40363,3.51499 3.63492,15.09857 7.07144,8.6871 3.43652,-6.41146 10.30729,-6.20607 12.3277,-0.41311 2.02041,5.79295 4.84808,12.20442 4.84808,12.20442 l 1.13334,-1.8812 c 0,0 2.13899,6.85726 1.99533,11.23349 l 2.13899,-1.31404 1.5689,12.98398 2.42403,-2.48103 0.71376,15.90146 3.99065,-3.50098 c 0,0 0.42871,7.7325 0.99881,10.35824 l 2.13899,-1.60579 c 0,0 0.71376,4.66798 4.13432,9.33595 3.42056,4.66798 16.39132,15.90146 16.39132,15.90146"
         inkscape:connector-curvature="0" />
      <path
         id="path2824"
         style="fill:none;stroke:#000000;stroke-width:2.44497156;stroke-miterlimit:4;stroke-dasharray:none;stroke-opacity:1"
         d="m -252.31636,514.04861 c 0,0 -3.42057,-0.87525 -11.26049,1.75049 -21.52217,8.02425 -13.54086,31.65588 -8.12497,35.44861 5.41589,3.79273 12.97076,0.5835 12.97076,0.5835 0,0 -4.53566,6.35778 -10.69039,6.41846 -6.13192,0.0607 -7.05091,1.41907 -9.46355,4.21752 -2.09338,2.42735 -2.41263,4.35989 -2.41263,4.35989 -5.9495,-1.31637 -6.67238,-8.14329 -6.67238,-8.14329 -0.0821,1.15299 -1.28613,3.37262 -3.61667,4.2782 -2.33054,0.90559 -2.49245,4.19651 -2.49245,4.19651 -6.27103,-1.31403 -7.71906,-7.73483 -11.01648,-7.81885 -3.29742,-0.084 -2.97361,5.26781 -2.97361,5.26781 -3.85839,-0.73988 -5.70778,-4.2782 -6.59256,-6.1734 -0.88479,-1.8952 -2.81398,-4.8547 -6.10912,-3.7834 -3.29514,1.0713 -3.53686,4.68899 -3.53686,4.68899 -1.28613,-0.41312 -3.45705,-2.71443 -6.18894,-7.65082 0,0 -1.63502,-3.89776 -5.91073,-3.50331 -3.70104,0.34076 -4.41936,6.71021 -5.2745,10.79469 -0.85514,4.08448 -3.84927,2.48103 -4.2757,0.43879 -0.42643,-2.04224 -2.13899,-4.23152 -3.99065,-4.37623 -1.85167,-0.1447 -3.70561,0.5835 -3.27918,-2.04224 0.42643,-2.62573 4.84579,-3.64802 8.69506,-6.71021 3.84927,-3.06219 -4.84579,-1.89753 -9.97663,-2.18928 -5.13084,-0.29175 -5.41589,3.06452 -8.69507,2.91748 -3.27917,-0.14704 -1.56889,-7.7325 -1.71028,-10.50294 -0.14138,-2.77045 0.99881,-3.35628 1.85395,-5.10677 0.85514,-1.75049 -0.14367,-4.81502 0.42871,-8.316 0.57237,-3.50098 4.70441,-1.31403 6.41469,0.14704 1.71028,1.46108 2.28037,-1.60578 2.28037,-1.60578 -0.9988,-3.93977 1.99533,-5.25147 3.70561,-5.39851 1.71028,-0.14704 3.84927,0.43879 4.41936,4.66797 0.5701,4.22919 4.41937,6.56551 7.41122,10.06649 2.99185,3.50098 16.96142,0.5835 21.3785,0.73054 4.41709,0.14704 10.83178,2.18928 16.39133,2.33399 5.55955,0.14471 2.70908,-6.85726 0.85514,-8.60775 -1.85395,-1.75049 -1.99533,-0.5835 -2.99413,-11.66994 -0.99881,-11.08644 -11.97196,-2.33399 -11.97196,-2.33399 -1.42524,-3.64802 -0.71376,-6.85725 -0.71376,-6.85725 -13.25581,9.6277 -17.24647,2.77277 -17.24647,2.77277 9.1215,0.73054 16.70374,-11.54857 16.70374,-11.54857 0,0 -6.60396,0.83324 -14.28198,-0.84957 -8.5172,-1.86952 -5.44097,-14.65744 -5.44097,-14.65744 0,0 6.25278,12.06205 17.55659,8.61475 -10.34149,-12.06205 5.04875,-16.9821 5.04875,-16.9821 0,0 -2.50841,2.43202 -1.65555,6.79657 0.29645,1.5241 1.00565,3.28626 2.37615,5.26315 5.29047,7.63214 16.11312,1.23001 22.12647,-4.42991 6.01334,-5.65992 15.39252,-5.90733 20.68299,-2.95483 5.29046,2.95249 22.12646,2.21495 22.12646,2.21495"
         inkscape:connector-curvature="0" />
      <path
         id="path2826"
         style="fill:none;stroke:#000000;stroke-width:2.44497156;stroke-miterlimit:4;stroke-dasharray:none;stroke-opacity:1"
         d="m -281.67618,447.677 c 0,0 -6.69973,-2.18928 -11.40186,0.58349 -3.23129,1.90454 -7.69627,5.25148 -7.69627,5.25148 0,0 -0.71375,-4.52327 -4.56074,-3.35628 0,0 -3.99066,2.04224 -6.69974,0 -2.70909,-2.04224 -7.12617,-1.16699 -4.2757,5.10677 0,0 -5.70094,1.31403 -8.98011,-5.83497 0,0 -1.99533,4.66797 0.14366,8.16895 0,0 -4.13432,1.60579 -6.41469,-2.48102 0,0 -0.71376,4.23152 0.71376,7.00196 0,0 -6.55608,1.16699 -9.83526,-6.27376 0,0 -1.99532,3.06453 -0.71375,6.27376 0,0 -5.8446,-0.14704 -7.83993,-5.25147 0,0 -2.13899,3.06452 -1.14018,6.5655 0,0 -1.85395,0.5835 -3.13552,-0.58349 0,0 -4.98946,-2.18928 -6.55607,4.08448 -1.56662,6.27376 -3.99066,7.29371 -6.27103,7.00196 -2.28037,-0.29175 -3.27918,-1.02229 -3.13551,-6.12672 0.14366,-5.10443 0.14366,-10.64999 -3.13552,-6.71021 -3.27918,3.93977 -7.26983,4.08448 -7.26983,13.12868 0,9.0442 -2.85047,10.94173 -4.13432,8.60775 -1.28385,-2.33399 -2.28037,-3.06453 -3.99065,-3.79273 -1.71028,-0.72821 -5.8446,-1.7505 -2.70908,-4.23152 3.13551,-2.48103 5.13084,-4.37623 5.13084,-8.316 0,-3.93978 -0.14367,-5.83497 -3.13552,-3.79273 -2.99185,2.04224 -7.83992,3.20923 -10.1203,7.149 -2.28037,3.93977 -4.84579,4.37623 -6.98478,0.87525 -2.13899,-3.50099 -2.56542,-2.77278 -4.13432,-2.77278 -1.5689,0 -5.13084,-5.25147 1.71028,-6.12672 6.84112,-0.87524 19.38318,-7.7325 15.67757,-8.8995 -3.70561,-1.16699 -9.97663,1.7505 -9.97663,-2.77277 0,-4.52327 0,-4.52327 0,-4.52327 0,0 -0.85514,-7.14901 4.2757,-3.50098 5.13084,3.64802 10.54673,7.00196 20.52336,4.95972 9.97663,-2.04224 17.1028,-8.316 26.50934,-15.46267 0,0 21.61567,-17.06845 29.21843,-20.56943"
         inkscape:connector-curvature="0" />
      <path
         id="path2828"
         style="fill:none;stroke:#000000;stroke-width:2.44497156;stroke-miterlimit:4;stroke-dasharray:none;stroke-opacity:1"
         d="m -234.35842,425.94057 c 0,0 14.11095,18.23544 18.24299,30.92534 4.13203,12.68989 26.50934,32.96758 47.17637,19.69419 20.66703,-13.27339 13.96729,-48.86904 -4.13432,-46.24331 -18.10161,2.62574 -9.5502,16.19321 -4.2757,16.33792 0,0 -10.83177,9.0442 -14.11095,-4.66798 0,0 -12.68572,9.19125 -4.13432,19.40244 0,0 -21.3785,-9.91944 -1.42523,-26.9879 0,0 -10.69039,-0.29175 -9.83525,-14.00392 0,0 8.26635,12.98397 15.96261,5.98201 l 5.13084,-5.54322 c 0,0 -12.97076,-14.87918 6.55608,-21.58939 0,0 -7.26983,12.10873 2.13899,17.21316 9.28796,5.04141 16.35028,5.38918 22.29065,15.36464 0.0775,0.12837 0.15279,0.25907 0.22804,0.38978 0,0 -2.44684,-22.77973 -14.396,-35.00982 -13.96729,-14.29568 -34.49065,-28.29961 -36.3446,-56.16275 -2.37615,-35.70768 5.22662,-53.53702 32.54322,-53.53702 13.9194,0 16.34343,-13.22671 16.34343,-13.22671 8.17058,7.58546 -1.32945,17.50491 -1.32945,17.50491 7.03039,0 10.26168,8.16896 13.49297,14.39371 3.23129,6.22474 16.16513,-1.55677 16.16513,-1.55677 0,11.86366 -8.18383,12.64321 -8.18383,12.64321 0,3.30726 -1.14018,5.44519 -2.66119,12.25343 -1.52101,6.80825 5.51166,11.86367 5.51166,11.86367 -10.45095,7.58546 -15.77334,-8.16896 -15.77334,-8.16896 -0.75937,5.05775 -3.23129,6.41846 -5.70094,12.44715 -2.46964,6.0287 2.09111,11.66994 2.09111,11.66994 0,0 -11.2126,-0.58349 -16.34344,-6.80824 -5.13084,-6.22474 -3.42056,-15.5607 -0.95092,-18.6719 2.46965,-3.11121 1.59398,-5.19079 1.59398,-5.19079 -2.28037,1.16699 -5.39308,0.71653 -5.39308,0.71653 0,0 0.38082,-16.14419 3.60983,-22.56266 3.22901,-6.41846 -0.75936,-7.19568 -0.75936,-7.19568 -35.3458,-5.05775 -25.27339,49.01374 -25.27339,49.01374 6.08176,35.00982 54.15888,35.00982 53.78034,98.41727 -0.37854,69.62986 -69.45791,41.57533 -69.45791,41.57533 -3.60983,25.3121 6.58344,28.92978 6.58344,28.92978 7.06916,3.19523 15.08012,-3.69237 19.64086,-8.6521 4.56075,-4.95972 6.12965,-3.93977 6.12965,-3.93977 -0.71376,6.56551 4.14572,10.42359 5.41588,12.83694 0.99881,1.89753 -0.42871,2.67475 0.23716,6.5655 0.66587,3.89076 5.89021,7.97291 5.89021,7.97291 2.46964,2.23596 6.55607,2.04224 6.55607,2.04224 0,0 -4.94157,3.98878 -9.78736,4.28053 -4.84579,0.29175 -6.9369,3.30493 -6.9369,3.30493 0,0 4.46497,-0.77722 7.31544,1.0713 2.85047,1.84852 5.79671,1.06896 5.79671,1.06896 0,0 -2.37615,4.37623 -6.27103,4.76601 -3.89487,0.38977 -6.93689,3.40295 -6.93689,3.40295 2.56542,0.19372 4.37147,1.65247 5.79671,3.40296 1.42523,1.75049 5.32011,1.94654 5.32011,1.94654 0,0 -4.56075,4.66798 -8.74067,4.66798 -4.17993,0 -5.60516,1.36071 -5.60516,1.36071 0,0 1.14018,-0.0957 4.08643,2.43202 2.94624,2.52771 6.4603,1.06896 6.4603,1.06896 -1.99533,5.933 -11.2126,7.48977 -14.06307,7.97524 -2.85047,0.48547 -2.94624,1.45874 -2.94624,1.45874 0,0 2.75469,-0.38977 4.56075,2.62574 1.80605,3.01551 6.08175,3.89076 6.08175,3.89076 -1.71028,1.89753 -7.22194,2.81946 -12.63783,3.25825 -5.41589,0.43879 -4.56075,3.93977 -4.56075,6.85725 0,2.91749 0.42871,3.50098 4.70442,3.50098 4.2757,0 4.56074,2.33399 4.41936,5.39852 -0.14138,3.06452 -2.28037,3.50098 -4.98946,4.08448 -2.70908,0.58349 -3.70561,1.45874 -3.84927,4.81501 -0.14366,3.35628 -2.42404,2.91749 -4.13432,2.04224 -1.71028,-0.87524 -0.85514,-8.60774 -1.14018,-12.40047 -0.28505,-3.79274 -4.41937,-2.18929 -6.84112,-0.43879 -2.42176,1.75049 -4.13432,2.18928 -3.99066,4.08447 0.14366,1.8952 0.57009,9.19125 -0.9988,14.44272 -1.5689,5.25147 -5.41589,0.87525 -5.55955,-1.75049 -0.14367,-2.62574 -1.28385,-3.79273 -4.8458,-2.48103 -3.56194,1.3117 -3.99065,-1.89753 -7.26983,-4.52327 -3.27918,-2.62573 -0.85514,-2.48103 0.28505,-5.39851 1.14018,-2.91749 -1.5689,-3.20923 -1.14019,-5.83497 0.42871,-2.62574 0.42871,-5.83497 -1.5689,-7.58546 -1.9976,-1.75049 1.5689,-2.33399 2.99413,-4.23152 1.42524,-1.89753 6.12965,0 8.55141,2.91748 2.42175,2.91749 8.12497,-4.81501 9.26515,-8.16895 1.14019,-3.35395 3.27918,-8.316 5.70094,-11.52524 2.42176,-3.20923 2.70908,-6.12671 1.28385,-7.149 -1.42523,-1.02229 -2.70909,-3.20924 -2.70909,-10.50295 0,-7.29371 -7.83992,1.75049 -11.68691,4.52327 -3.84699,2.77278 -8.98011,2.77278 -11.97196,-1.89753 -2.99185,-4.67031 -5.13084,-1.89753 -5.13084,4.23152 0,6.12905 4.98945,10.79469 4.98945,10.79469 -6.69973,2.77278 -10.54672,-5.25147 -10.54672,-5.25147 -4.2757,3.20923 -3.27918,10.79469 -3.27918,10.79469 -3.99066,-4.81501 -2.56542,-14.87917 -2.56542,-14.87917 -5.41589,2.33399 -6.31892,9.72573 -6.31892,9.72573 -0.75936,-9.33595 1.14019,-10.1155 8.5514,-19.64518 7.41122,-9.52967 -4.17992,-22.17288 -7.22194,-28.98112 -3.04202,-6.80825 0.75937,-21.19962 3.80138,-36.56426 3.04202,-15.36464 -14.25233,-30.73162 -14.25233,-30.73162"
         inkscape:connector-curvature="0"
         sodipodi:nodetypes="cssscccccccccccsssccsccsccscssccscccccsccsccscscscscscscscscsssssssssssssssssssssssssscccccsssc" />
    </g>
  </g>
</svg>
