<?xml version="1.0" encoding="UTF-8" standalone="no"?>
<svg
   xmlns:dc="http://purl.org/dc/elements/1.1/"
   xmlns:cc="http://creativecommons.org/ns#"
   xmlns:rdf="http://www.w3.org/1999/02/22-rdf-syntax-ns#"
   xmlns:svg="http://www.w3.org/2000/svg"
   xmlns="http://www.w3.org/2000/svg"
   version="1.0" width="800" height="400">
  <rect width="800" height="400" id="rect3137" style="fill:#d40000"/>
  <path
     d="m 440.5,112.3125 c 0,0 46.65283,13.51054 56.90625,40.65625 0,0 1.25782,12.88438 -7.21875,15.90625 l -1.46875,-1.5625 -74.25,68.65625 0,-103.40625 -23.1875,0 0,104.03125 -71.6875,-66.34375 28.34375,-30.625 -12.28125,-11.375 -33.25,11.375 -7.34375,7.9375 -6.21875,-5.78125 -15.78125,17 6.25,5.78125 -19.875,21.5 24.5,22.6875 19.90625,-21.5 81.625,75.53125 -44.25,40.90625 15.75,17.03125 34.3125,-31.71875 0,41.4375 23.1875,0 0,-40.78125 33.4375,30.9375 15.78125,-17.03125 -44.0625,-40.78125 84.8125,-78.4375 -3.15625,-3.40625 c 5.90352,0.7058 24.27881,1.06304 24.1875,-22.0625 0,0 -5.97893,-47.26983 -84.96875,-46.5625 z"
     id="rect2213"
     style="fill:#ff0;fill-opacity:1;fill-rule:evenodd;stroke:none" />
  <path
     d="m 401.26,66.35329 c -9.34388,15.738796 -11.12974,33.000698 -11.12974,33.000698 -2.91996,19.292712 3.50396,33.000702 3.50396,33.000702 12.84784,0.0927 18.10378,0 18.10378,0 10.96896,-33.310738 -6.97404,-61.939776 -10.478,-66.0014 z" id="path2227" style="fill:#ff0"/></svg>
