<?xml version="1.0" encoding="UTF-8" standalone="no"?>
<!-- Created with Inkscape (http://www.inkscape.org/) -->

<svg
   xmlns:dc="http://purl.org/dc/elements/1.1/"
   xmlns:cc="http://creativecommons.org/ns#"
   xmlns:rdf="http://www.w3.org/1999/02/22-rdf-syntax-ns#"
   xmlns:svg="http://www.w3.org/2000/svg"
   xmlns="http://www.w3.org/2000/svg"
   xmlns:xlink="http://www.w3.org/1999/xlink"
   version="1.1"
   width="600"
   height="300"
   viewBox="0 0 2000 1000"
   id="svg2">
  <title
     id="title4">Flag of Kazakhstan</title>
  <metadata
     id="metadata117">
    <rdf:RDF>
      <cc:Work
         rdf:about="">
        <dc:format>image/svg+xml</dc:format>
        <dc:type
           rdf:resource="http://purl.org/dc/dcmitype/StillImage" />
        <dc:title>Flag of Kazakhstan</dc:title>
      </cc:Work>
    </rdf:RDF>
  </metadata>
  <defs
     id="defs6">
    <path
       d="M 0,-76.45 C 4,-76.5 5.5,-79 5.5,-82 C 5.5,-86 0,-105.05 0,-105.05 C 0,-105.05 -5.5,-86 -5.5,-82 C -5.5,-79 -4,-76.45 0,-76.45 z"
       id="be" />
    <path
       d="M -1,15 C -1,5 8,-0.14 15.072,-0.14 C 24.6,-0.14 29.673,5.543 29.673,12.982 C 29.673,17.1989 28.89847,19.845 26.9493,23.881 C 26.9493,23.881 11.2323,56.487 5.1133,69.098 C 4.35021,70.6709 4.104,72.4614 4.104,75.0865 C 4.104,79.1404 8.0456,82.4538 12.1784,82.5553 C 15.9459,82.6493 20.0509,79.0514 20.0509,74.952 C 20.0509,69.9724 17.4615,67.7524 14.8026,67.7524 C 11.5308,67.7524 10.2271,69.0942 10.2271,71.3859 C 10.2271,72.9827 11.00018,73.6736 12.1111,73.6736 C 14.9174,73.6736 14.1297,69.9056 14.1297,69.9056 C 15.5235,70.21 16.6685,71.6306 16.0137,73.4045 C 17.0333,73.63097 17.9884,74.1649 18.7388,75.0194 C 17.98652,75.74696 17.1236,76.3086 16.0137,76.4997 C 16.67092,78.6641 15.7927,79.7217 13.8942,80.1668 C 14.27731,79.3342 14.29049,78.5683 14.16334,77.8454 C 11.17444,78.69328 6.59364,77.344 6.59364,72.1934 C 6.59364,67.0796 10.15124,62.7738 16.82164,63.8499 C 15.23474,63.09303 14.42764,61.5444 14.26474,59.8127 C 15.47594,60.2837 16.82164,60.35099 16.82164,60.35099 C 16.04175,58.97909 14.95854,57.79659 15.00494,55.10269 C 16.24164,55.66355 17.39004,56.70209 18.97484,56.0447 C 16.48754,51.1621 19.54343,44.4457 27.31834,42.8567 C 24.47284,46.184 23.07934,49.7768 23.07934,53.3537 C 23.07934,64.9457 26.30904,66.8937 26.30904,74.9527 C 26.30904,78.3244 24.57154,81.9657 21.12804,84.4401 V 84.30553 C 23.40404,84.91353 24.86204,86.03153 25.70004,87.55053 C 20.50004,89.02153 12.94104,88.99453 8.88204,87.40153 C 4.21644,86.86253 0.95994,83.29153 2.4e-4,81.47953 C -0.95948,79.66853 -2.82346,73.11553 2.4e-4,67.21553 C 3.09054,60.75853 17.66124,29.93853 22.20424,20.24953 C 23.16784,18.19453 23.75184,16.01523 23.75184,13.65543 C 23.75184,7.72053 18.30164,5.64833 15.20644,5.64833 C 11.50574,5.64833 7.73764,8.46083 7.73764,11.97323 C 7.73764,14.19883 8.94884,15.53943 10.69824,15.53943 C 14.88154,15.53943 14.62744,11.98943 13.79344,9.75283 C 16.39694,10.92043 17.91024,13.00483 17.49414,15.20303 C 18.96814,15.40443 20.37114,16.10191 21.66584,17.55803 C 20.64714,18.84123 19.40464,19.81123 17.49414,19.84573 C 18.32858,23.25573 16.03984,24.69793 13.79344,25.49773 C 14.50412,22.99503 14.97064,20.11483 10.69824,20.11483 C 7.58324,20.11483 5.13034,19.57654 3.70044,17.55793 C 3.616332,20.24933 3.36401,30.88093 3.36401,30.88093 C 3.18458,34.87593 8.72451,34.76173 12.24581,33.57233 C 10.91691,38.17413 8.19151,40.66213 1.88381,40.03183 C 3.41461,40.67105 5.04631,42.10803 5.04631,44.87643 C 5.04531,48.62243 1.99881,52.77243 -0.00119,53.99943 L -1.00119,14.99943 z"
       id="orn" />
    <path
       d="M 0,-35.599 C 0,-35.599 4.7531,-39.5834 6.3671,-37.5849 C 8.9632,-34.3705 -1.6149,-18.3599 -1.6149,-12.7219 C -1.6149,-3.4669 4.5753,-0.9499 12.2191,0.3711 C 17.3481,1.2582 25.7001,1e-4 25.7001,1e-4 C 24.1276,-2.1078 23.1048,-2.7289 20.4551,-2.8974 C 23.405,-4.4252 26.4089,-7.7415 26.4089,-12.9044 C 26.4089,-20.8661 23.1234,-24.1474 23.1234,-33.1234 C 23.1234,-38.1026 27.2163,-44.4414 27.2163,-44.4414 C 19.982,-43.71912 16.3963,-37.0367 18.4364,-31.6964 C 17.2848,-31.53092 16.2392,-31.78951 15.3412,-32.63841 C 14.81175,-31.15811 15.64755,-29.43991 16.7672,-27.95961 C 15.86547,-27.47893 15.2032,-27.76719 13.7672,-28.06293 C 13.90338,-26.53773 14.8195,-24.91743 17.0608,-23.39233 C 10.5567,-25.07683 6.5548,-20.55473 6.5548,-15.82083 C 6.5548,-12.24503 9.0667,-9.68223 11.5219,-9.68223 C 12.31537,-9.68223 13.4809,-10.00823 14.1385,-10.49783 C 14.60202,-9.51369 14.36317,-8.19653 13.88568,-7.21233 C 15.68528,-7.68687 16.82748,-8.75303 16.01438,-10.97223 C 17.39658,-11.0989 18.49608,-11.5648 19.24408,-12.45253 C 18.48627,-13.42067 17.33668,-13.97833 16.01438,-13.93283 C 17.02078,-16.00463 15.89923,-17.16453 14.26498,-18.10463 C 14.26498,-18.10463 15.30428,-13.93293 12.65008,-13.93293 C 11.45658,-13.93293 10.36908,-14.32051 10.36908,-16.07513 C 10.36908,-17.60303 11.70808,-19.71953 14.80318,-19.58493 C 17.89838,-19.45036 20.40768,-17.45603 20.40768,-12.52723 C 20.40768,-7.98043 16.73148,-5.71913 11.88718,-5.57303 C 7.51838,-5.43846 4.22098,-7.79933 4.22098,-12.29493 C 4.22098,-18.27843 12.87978,-31.91693 12.87978,-37.24893 C 12.87978,-41.24953 9.27338,-43.48263 5.74468,-43.48263 C 1.16918,-43.48263 -2.69122,-38.96293 -2.69122,-38.96293 L -0.00322,-35.60093 z"
       id="uorn" />
    <clipPath
       id="b">
      <circle
         cx="200"
         cy="196.82001"
         r="187.99001"
         id="e"
         style="stroke:#000000;stroke-width:0.72000003" />
    </clipPath>
  </defs>
  <rect
     width="2000"
     height="1000"
     x="0"
     y="0"
     id="rect11"
     style="fill:#00afca" />
  <g
     transform="matrix(1.6547208,0,0,1.6547208,749.3393,159.05721)"
     id="g10"
     style="stroke-linecap:round;stroke-linejoin:round">
    <g
       clip-path="url(#b)"
       id="g12">
      <use
         transform="matrix(-1,0,0,1,400.02,0)"
         id="use14"
         x="0"
         y="0"
         width="390"
         height="390"
         xlink:href="#d" />
      <g
         id="d"
         style="fill:#fed100;stroke:#000000">
        <path
           d="M 193.8,223.44 L 184.87,210.044 C 176.944,214.649 169.314,218.977 156.475,219.967 L 150.944,226.608 L 158.624,233.16 L 164.009,226.693 L 160.46,223.611 L 158.764,225.502 L 160.252,226.762 L 158.179,229.28 L 154.961,226.532 L 157.963,222.983 C 169.178,221.451 176.822,217.972 184.945,213.481 L 191.853,224.472 L 193.793,223.452 z"
           transform="matrix(1.3333,0,0,1.3333,-0.99664,0.62548)"
           id="path17"
           style="stroke-width:0.54000002" />
        <path
           d="M 216.67,212.04 L 387.25,213.62 C 387.39,212.08 387.48,210.52 387.58,208.96 L 217.08,210.54 L 388,197.21 V 196.83 C 388,195.38 387.99,193.95 387.96,192.5 L 216.83,209.08 L 387.29,180.63 C 387.16,179.06 387,177.51 386.83,175.96 L 216.42,207.67 L 385.12,164.08 C 384.85,162.54 384.56,160.99 384.25,159.46 L 216.08,206.25 L 381.5,147.75 C 381.08,146.22 380.66,144.69 380.21,143.17 L 215.58,204.88 L 376.42,131.71 C 375.86,130.21 375.26,128.73 374.67,127.25 L 214.67,203.67 L 369.79,116.04 C 369.1,114.6 368.39,113.21 367.67,111.79 L 214.5,202.08 L 361.71,101 C 360.88,99.615 360.06,98.237 359.21,96.875 L 213.5,200.915 L 352.33,86.695 C 351.39,85.398 350.43,84.099 349.46,82.824 L 212.42,199.954 L 341.58,73.244 C 340.51,72.012 339.44,70.779 338.33,69.576 L 211.33,198.956 L 329.58,60.706 C 328.41,59.587 327.24,58.502 326.04,57.414 L 210.5,197.614 L 316.46,49.284 C 315.19,48.283 313.92,47.295 312.62,46.326 L 209,197.206 L 302.25,39.076 C 300.89,38.195 299.51,37.351 298.12,36.499 L 207.83,196.289 L 287.17,30.249 C 285.73,29.497 284.29,28.762 282.83,28.044 L 206.5,195.624 L 271.25,22.844 C 269.72,22.214 268.18,21.597 266.62,21.009 L 205.25,194.729 L 254.75,17.149 L 250,15.89 L 203.75,194.55 L 237.5,13.09 L 232.67,12.262 L 202.25,194.432 L 220.08,10.592 L 215.25,10.181 L 200.75,194.801 L 202.5,9.591 L 197.58,9.594 L 199.33,194.554"
           id="l"
           style="stroke-width:0.72000003" />
        <use
           transform="matrix(1,0,0,-1,0,422.59)"
           id="use20"
           x="0"
           y="0"
           width="390"
           height="390"
           xlink:href="#l" />
      </g>
    </g>
    <g
       id="g22"
       style="fill:#fed100;stroke:#000000;stroke-width:0.72000003">
      <path
         d="M 199.55,28.974 C 199.735,28.534 200.302,28.591 200.449,28.97 L 203.015,36.901 L 211.343,36.873 C 211.821,36.912 211.936,37.443 211.655,37.706 L 204.88,42.618 L 207.467,50.486 C 207.633,50.963 207.129,51.294 206.769,51.075 L 200.02,46.158 L 193.325,51.058 C 192.929,51.339 192.465,50.984 192.563,50.562 L 195.152,42.63 L 188.361,37.731 C 188.079,37.462 188.218,36.93 188.674,36.901 L 197.004,36.908 L 199.554,28.974 z"
         id="path24" />
      <circle
         cx="200"
         cy="211.49001"
         r="54.529999"
         id="circle26" />
      <circle
         cx="200"
         cy="211.49001"
         r="50.221001"
         id="circle28" />
      <circle
         cx="200"
         cy="211.49001"
         r="44.445"
         id="circle30" />
      <circle
         cx="200"
         cy="211.49001"
         r="40.034"
         id="circle32"
         style="stroke-width:4.4000001" />
      <circle
         cx="200"
         cy="211.49001"
         r="36.695"
         id="circle34"
         style="fill:#00b0ca" />
    </g>
    <use
       id="use36"
       style="fill:none"
       x="0"
       y="0"
       width="390"
       height="390"
       xlink:href="#e" />
    <g
       transform="scale(0.8,0.8)"
       id="g38">
      <g
         id="c"
         style="fill:none;stroke:#000000;stroke-width:0.89999998">
        <g
           id="g41"
           style="fill:#fed100">
          <path
             d="M 481.84,208.39 L 437.55,180.17 L 435.9,183.45 L 482.79,214.95 L 481.84,208.39 z"
             id="path43" />
          <path
             d="M 484.21,228.34 L 431.5,190.1 L 429.22,193 L 484.59,234.5 L 484.21,228.34 z"
             id="path45" />
          <path
             d="M 484.83,249.05 L 424.7,199.69 L 422.29,202.84 L 484.6,255.97 L 484.83,249.05 z"
             id="path47" />
          <path
             d="M 483.64,269.02 L 418.65,210.05 L 416.18,213.27 L 482.82,276.62 L 483.64,269.02 z"
             id="path49" />
          <path
             d="M 480.76,289.52 L 410.83,217.49 L 408.35,220.72 L 479.37,296.59 L 480.76,289.52 z"
             id="path51" />
          <path
             d="M 475.89,309.79 L 403.39,226.09 L 400.91,229.3 L 474,316.69 L 475.89,309.79 z"
             id="path53" />
          <path
             d="M 469.96,328.56 L 394.8,236.57 L 392.32,239.79 L 467.33,335.21 L 469.96,328.56 z"
             id="path55" />
          <path
             d="M 462.14,346.82 L 389.65,247.27 L 387.17,250.49 L 459.05,353.06 L 462.14,346.82 z"
             id="path57" />
          <path
             d="M 452.83,364.42 L 383.54,262.52 L 381.07,265.75 L 449.48,370.07 L 452.83,364.42 z"
             id="path59" />
          <path
             d="M 477.29,186.87 L 440.98,167.39 L 439.33,170.67 L 478.99,193.6 L 477.29,186.87 z"
             id="path61" />
          <path
             d="M 471.02,166.62 L 435.33,152.02 L 433.68,155.3 L 473.46,173.54 L 471.02,166.62 z"
             id="path63" />
          <path
             d="M 463.24,147.64 L 427.55,133.03 L 425.9,136.31 L 466.42,154.73 L 463.24,147.64 z"
             id="path65" />
          <path
             d="M 453.34,128.47 L 417.64,113.87 L 416,117.14 L 457.53,135.94 L 453.34,128.47 z"
             id="path67" />
          <path
             d="M 250,488.96 C 250.226,488.959 250.45,488.961 250.676,488.96 C 289.973,488.673 331.977,479.42 368.386,458.075 L 380.99,450.783 C 395.333,441.84 407.748,431.042 419.74,420.419 L 434.584,412.033 C 441.692,407.724 440.039,402.909 437.605,401.2 L 430.834,395.991 C 450.561,371.668 451.919,353.552 443.126,325.991 C 436.631,308.485 433.077,295.969 442.657,278.075 C 445.451,279.822 449.605,285.441 445.782,291.773 C 442.091,299.023 445.125,303.388 450.208,306.877 L 453.073,306.252 L 454.532,308.648 L 466.355,309.325 C 474.041,303.923 470.341,297.618 467.293,292.501 L 467.866,274.585 L 473.075,267.554 L 471.148,254.22 C 476.52,254.357 478.502,251.293 479.742,248.804 L 475.523,246.408 C 481.431,245.325 480.173,236.006 474.273,236.252 C 476.735,227.356 476.564,218.481 475.263,209.585 C 478.049,208.149 478.287,204.149 474.794,202.919 C 476.938,198.991 476.408,192.26 472.815,187.815 C 474.707,186.946 475.016,183.368 471.877,182.659 C 472.252,178.365 472.434,174.05 468.178,168.388 C 469.59,166.145 468.104,163.548 465.627,163.492 C 465.406,157.531 465.092,152.873 460.783,149.638 C 462.604,147.538 460.784,144.663 458.543,144.638 C 457.314,139.82 457.159,136.448 452.084,130.94 C 453.072,129.747 452.327,126.618 449.74,126.773 C 448.348,122.585 447.43,118.244 442.032,113.388 C 442.055,112.189 441.397,110.396 439.688,110.107 C 436.998,104.95 433.517,100.419 429.427,96.409 C 428.791,94.867 427.93,93.803 426.823,93.18 C 411.812,75.075 394.067,59.058 371.407,45.159 C 360.162,39.581 348.469,36.878 337.605,36.826 C 305.015,36.668 279.941,60.352 297.501,101.461 C 301.26,97.513 305.096,93.847 309.167,90.992 L 310.157,100.054 L 318.49,101.252 C 307.44,112.909 304.591,126.177 312.657,142.554 C 317.663,137.912 322.259,133.368 328.751,130.21 L 329.427,138.752 L 337.708,140.419 C 328.377,148.271 327.455,156.704 327.188,166.408 C 350.193,152.155 370.519,164.026 369.219,196.147 C 369.145,197.966 368.7,205.191 368.385,209.012 C 369.178,194.259 356.339,186.496 359.687,174.585 C 351.699,173.062 345.864,174.44 345.103,182.658 C 339.88,181.567 335.998,182.054 333.228,183.908 C 326.106,189.907 326.972,200.809 336.093,204.377 C 340.016,205.615 344.505,204.461 347.551,200.627 C 349.099,202.733 350.28,206.261 350.728,210.627 C 344.018,206.349 337.298,210.41 337.447,216.616 C 337.68,224.689 345.698,226.194 351.093,222.085 C 351.158,225.196 350.937,227.855 349.687,230.262 C 347.835,226.458 341.13,226.369 339.999,231.408 C 338.689,236.811 344.024,239.084 346.718,237.502 L 346.405,239.794 C 337.344,252.367 333.665,263.441 333.175,273.96 C 332.639,285.491 336.058,295.919 340.78,305.522 C 332.189,310.86 319.795,312.791 304.581,312.137 L 295.675,321.356 L 330.624,365.054 C 311.049,382.483 276.922,390.801 250.675,390.419 C 250.452,390.415 250.221,390.424 249.999,390.419 M 444.519,158.559 C 444.598,161.996 444.756,165.422 446.498,168.194 C 444.994,170.544 445.698,174.02 447.592,175.225 C 446.316,178.237 447.009,182.948 448.53,185.121 C 446.373,186.675 446.208,191.321 449.051,193.246 C 447.132,196.448 447.185,199.627 448.999,202.829 C 446.337,204.789 446.841,210.19 449.312,211.006 C 447.94,214.481 447.851,218.457 449.103,221.423 C 411.764,212.427 409.433,251.701 383.895,275.537 C 380.465,231.747 434.535,219.717 444.525,158.547 z"
             id="path69" />
          <circle
             cx="462.10001"
             cy="264.57001"
             r="1.6720001"
             transform="matrix(-0.8117,0.584,-0.584,-0.8117,991.72,209.46)"
             id="circle71"
             style="fill:#fed100" />
        </g>
        <path
           d="M 337.05,365.2 C 334.513,372.396 339.981,375.205 346.973,369.841 C 353.594,364.544 352.753,352.196 342.233,352.175 L 328.933,353.853 C 320.775,354.363 317.872,347.58 320.115,342.793 L 322.758,336.876 C 325.65,330.913 321.36,329.353 318.678,329.924 L 310.463,332.28 C 304.087,334.614 302.128,329.68 304.632,325.759 L 307.026,321.412"
           id="path73" />
        <path
           d="M 429.39,341.19 L 434.95,333.382 C 415.532,271.436 428.973,256.558 440.866,241.576 C 449.943,252.819 463.023,262.891 472.573,264.123"
           id="path75" />
        <path
           d="M 468.62,263.24 C 460.353,272.012 456.048,276.319 456.87,293.084 C 456.695,284.953 455.037,273.675 449.712,269.325 C 433.612,283.506 427.523,251.387 446.403,257.273 C 446.841,251.74 443.664,245.982 441.017,241.775"
           id="path77" />
        <path
           d="M 446.23,256.8 C 444.973,254.77 443.043,252.879 440.463,251.746 C 429.002,258.636 429.486,272.576 442.669,278.521 C 447.001,276.573 449.191,272.964 449.739,269.281"
           id="path79" />
        <path
           d="M 460.16,259.12 C 457.448,262.333 455.724,267.982 460.853,271.703"
           id="path81-1" />
        <path
           d="M 440.84,241.93 V 251.77"
           id="path83-7" />
        <path
           d="M 467.36,292.74 C 459.616,293.402 451.89,294.035 446.302,291.616"
           id="path85-4" />
        <path
           d="M 466.12,298.46 C 462.465,300.246 461.983,303.254 464.346,306.345 C 468.156,304.085 467.666,301.515 466.116,298.465 z"
           id="path87-0" />
        <path
           d="M 467.01,300.36 C 464.423,301.7 464.448,303.397 465.917,305.225"
           id="path89-9" />
        <path
           d="M 451.55,306.23 L 455.462,298.795 L 454.389,308.813"
           id="path91-4" />
        <path
           d="M 345.03,310.72 C 337.462,314.104 325.25,317.419 306.304,314.045"
           id="path93-8" />
        <path
           d="M 430.65,344.99 L 448.079,355.348"
           id="path95" />
        <path
           d="M 324.89,315.65 C 327.828,321.678 329.243,328.542 329.322,335.267"
           id="path97" />
        <path
           d="M 304.66,312.1 L 419.71,420.42"
           id="path99" />
        <path
           d="M 329.68,315.29 C 333.513,324.332 336.059,331.772 338.5,343.591"
           id="path101" />
        <path
           d="M 332.88,314.76 C 338.487,325.044 344.344,337.985 347.848,352.465"
           id="path103" />
        <path
           d="M 336.43,313.87 C 347.221,330.434 355.256,347.351 357.725,360.898"
           id="path105" />
        <path
           d="M 340.12,312.81 C 352.246,327.77 361.302,343.632 365.451,360.937 L 374.003,368.535 L 381.144,361.787"
           id="path107" />
        <path
           d="M 343.17,311.92 C 362.312,330.326 369.602,348.412 374.048,367.997"
           id="path109" />
        <path
           d="M 364.29,309.61 C 369.456,321.827 380.008,329.241 390.884,333.216 L 390.888,353.553 L 393.527,352.476 L 394.732,364.515 L 396.81,364.246 L 396.924,374.579"
           id="path111" />
        <path
           d="M 351.51,281.58 C 347.108,300.83 366.296,315.528 384.518,316.007"
           id="path113" />
        <path
           d="M 355.95,254.42 C 341.077,271.007 355.119,297.596 375.47,301.269"
           id="path115" />
        <path
           d="M 391.08,333.39 L 403.15,333.479"
           id="path117" />
        <path
           d="M 393.39,352.42 L 410.604,343.863"
           id="path119" />
        <path
           d="M 396.94,364.27 L 412.912,349.896"
           id="path121" />
        <path
           d="M 383.99,275.54 C 389.383,313.721 423.945,316.663 431.461,348.304 L 414.217,354.692 L 396.945,374.74"
           id="path123" />
        <path
           d="M 422.15,158.18 C 421.33,169.113 417.958,178.383 414.151,186.4 C 398.143,220.116 372.103,233.236 368.693,262.809 C 367.394,273.29 369.484,283.638 372.686,293.578 C 384.404,328.058 409.211,326.589 414.08,354.706"
           id="path125" />
        <path
           d="M 366.66,235.87 C 350.239,249.016 353.017,275.105 370.095,285.792"
           id="path127" />
        <path
           d="M 359.12,175.06 C 352.871,177.305 352.077,183.414 358.037,194.308 C 371.544,231.972 337.308,245.581 337.766,277.347 C 339.248,310.485 358.938,314.342 370.268,331.927 C 381.585,346.099 377.983,364.991 396.712,374.271"
           id="path129" />
        <path
           d="M 368.31,209.62 C 368.216,213.053 367.606,215.864 367.183,217.905 C 362.19,242.046 346.949,247.901 344.65,275.653 C 347.215,306.544 362.234,311.764 377.731,331.202 C 387.235,343.123 383.636,357.76 397.193,373.79"
           id="path131" />
        <path
           d="M 345.16,182.64 C 352.897,187.465 356.494,199.546 356.698,210.089 C 356.918,221.54 353.644,231.092 346.305,239.941"
           id="path133" />
        <path
           d="M 349.86,210.21 C 354.181,213.434 355.746,221.036 353.931,227.141"
           id="path135" />
        <path
           d="M 349.8,190 C 350.228,193.011 349.907,197.296 347.638,200.612"
           id="path137" />
        <path
           d="M 353.87,194.71 C 352.134,190.347 347.632,187.723 344.267,188.171 C 342.944,188.347 341.439,189.141 340.685,190.356 C 339.64,192.478 340.46,194.339 342.025,195.126 C 343.126,195.671 344.418,195.442 345.134,195.233 C 347.097,194.662 348.02,191.487 348.017,189.165"
           id="path139" />
        <path
           d="M 351.06,222.48 C 351.089,220.394 351.111,216.124 347.792,216.141 C 346.265,216.278 345.559,217.478 345.861,218.57 C 346.573,220.835 349.379,221.006 350.668,219.08"
           id="path141" />
        <path
           d="M 349.52,229.87 C 350.626,231.976 350.418,233.943 349.731,235.45"
           id="path143" />
        <path
           d="M 347.33,238.29 C 348.348,236.787 348.608,233.607 345.791,233.305 C 343.207,233.083 342.495,238.202 347.198,237.206"
           id="path145" />
        <path
           d="M 340.55,305.09 C 347.088,314.723 358.088,322.336 365.86,332.263 C 376.232,345.51 376.451,366.99 397.149,374.22"
           id="path147" />
        <path
           d="M 369.63,338 C 371.713,342.351 373.224,349.885 372.663,355.356 C 376.542,357.064 378.502,358.978 380.925,361.699"
           id="path149" />
        <path
           d="M 474.41,236.17 C 452.403,241.55 446.178,220.287 424.256,232.097 C 408.663,240.493 406.004,260.965 385.527,282.53"
           id="path151" />
        <path
           d="M 471.3,254.31 C 452.638,252.464 448.645,231.233 438.308,228.496"
           id="path153" />
        <path
           d="M 479.66,248.92 C 471.754,254.775 457.223,248.448 453.792,244.309"
           id="path155" />
        <path
           d="M 412.88,312.11 L 434.634,332.899"
           id="path157" />
        <path
           d="M 475.98,246.32 C 459.569,250.035 452.282,236.56 442.225,230.259"
           id="path159" />
        <path
           d="M 440.69,229.02 C 446.308,230.231 451.67,236.891 460.624,238.644 C 464.442,239.392 467.615,239.428 470.183,238.977 C 474.557,238.209 476.879,238.277 477.298,241.18 C 477.868,245.833 468.322,246.827 457.313,242.558"
           id="path161" />
        <path
           d="M 472.75,245.07 C 475.823,243.898 475.788,241.824 475.267,241.213 C 473.722,239.406 471.523,241.382 466.424,241.137 C 462.856,240.964 456.204,238.697 450.331,234.211"
           id="path163" />
        <path
           d="M 424.58,232.15 C 424.034,236.01 425.189,244.872 426.368,249.905 L 424.106,256.745 L 419.364,255.865"
           id="path165" />
        <path
           d="M 415.55,239.53 C 415.666,245.156 419.351,257.975 422.198,266.737 L 420.117,273.841 L 413.642,273.422"
           id="path167" />
        <path
           d="M 406.9,252.25 C 409.565,264.748 414.232,276.137 419.595,284.455 L 418.515,292.768 L 411.862,292.631"
           id="path169" />
        <path
           d="M 399.35,264.8 C 403.665,281.345 411.95,294.363 422.359,305.492 L 421.591,312.786 L 412.708,310.906"
           id="path171" />
        <path
           d="M 392.52,274.52 C 395.866,288.524 403.687,300.16 412.757,311.135 L 412.093,314.873 L 407.659,315.028"
           id="path173" />
        <path
           d="M 388.83,278.84 C 393.225,293.559 400.168,304.459 411.601,314.641"
           id="path175" />
        <path
           d="M 395.96,269.94 C 400.643,286.417 410.589,301.975 421.276,312.611"
           id="path177" />
        <path
           d="M 403.21,258.61 C 406.079,271.548 411.741,282.25 417.967,292.504"
           id="path179" />
        <path
           d="M 411.35,245.38 C 413.387,255.566 415.819,265.424 419.874,273.93"
           id="path181" />
        <path
           d="M 420.25,235.08 C 420.619,242.365 421.545,249.558 423.939,256.505"
           id="path183" />
        <path
           d="M 399.75,372.34 L 430.608,395.893"
           id="path185" />
        <path
           d="M 338.92,372.63 L 374.352,415.023 L 394.641,396.854"
           id="path187" />
        <path
           d="M 362.82,401.54 L 352.706,409.353"
           id="path189" />
        <path
           d="M 363.74,354.76 L 357.507,361.556"
           id="path191" />
        <path
           d="M 249.97,398.3 C 275.46,398.3 299.493,392.027 320.608,380.942"
           id="path193" />
        <path
           d="M 308.61,77.895 C 340.9,40.484 406.392,61.879 432.36,139.165"
           id="path195" />
        <path
           d="M 308.78,78.099 C 339.847,65.858 368.723,71.92 389.83,89.349 C 398.391,96.417 405.851,105.709 411.748,115.614"
           id="path197" />
        <path
           d="M 309.05,91.11 C 319.294,82.594 338.596,76.803 359.099,79.933 C 381.18,83.693 399.204,95.621 410.619,113.761 C 419.826,127.813 423.483,144.174 421.887,160.613"
           id="path199" />
        <path
           d="M 308.98,78.099 C 313.431,56.242 329.284,48.587 347.338,48.826 C 385.004,48.941 410.169,72.081 428.683,101.701 C 437.824,117.565 444.673,137.249 444.608,159.365"
           id="path201" />
        <path
           d="M 318.83,101.09 C 339.907,87.591 361.108,89.699 378.131,98.061 C 388.949,103.375 402.233,114.218 407.953,125.894"
           id="path203" />
        <path
           d="M 440.16,128.72 L 422.302,152.992"
           id="path205" />
        <path
           d="M 441.51,132.78 L 422.328,159.039"
           id="path207" />
        <path
           d="M 311,99.641 C 344.773,72.083 393.825,86.971 411.91,123.578 C 424.022,149.1 419.288,171.126 408.549,191.787 C 400.273,207.71 385.746,223.418 377.98,238.099"
           id="path209" />
        <path
           d="M 321.34,126.01 C 329.635,95.188 369.184,92.975 394.22,110.606 C 407.483,120.08 413.964,135.153 415.515,150.959 C 418.413,185.828 391.139,210.254 376.756,238.646"
           id="path211" />
        <path
           d="M 321.34,126.21 C 342.476,114.231 373.706,117.953 388.441,137.108 C 395.213,145.913 399.828,160.276 394.045,179.375"
           id="path213" />
        <path
           d="M 328.82,130.22 C 340.664,124.5 353.915,124.981 363.245,127.437 C 384.132,132.937 394.523,150.996 395.428,164.605 C 397.196,191.225 373.127,213.816 376.407,239.542"
           id="path215" />
        <path
           d="M 330.04,137.8 C 360.279,121.037 386.546,142.072 389.828,159.011 C 396,190.882 366.439,211.125 372.351,247.275"
           id="path217" />
        <path
           d="M 337.76,140.31 C 359.495,130.051 379.624,142.885 385.37,161.282 C 393.792,188.25 358.098,212.356 369.252,257.319"
           id="path219" />
        <path
           d="M 321.73,126.01 C 359.339,93.13 392.525,115.232 401.381,133.234 C 409.422,149.579 407.474,166.042 398.875,187.687 C 393.582,201.012 380.601,222.66 377.406,237.118"
           id="path221" />
        <path
           d="M 341.43,154.41 C 356.743,133.712 402.584,153.776 368.801,208.178"
           id="path223" />
        <path
           d="M 445.82,220.75 C 451.602,222.964 458.757,227.352 465.783,236.778"
           id="path225" />
        <path
           d="M 249.97,407.73 C 275.059,407.73 298.819,402.007 320.015,391.795"
           id="path227" />
        <path
           d="M 249.97,455.29 C 286.976,455.29 321.746,445.668 351.92,428.793"
           id="path229" />
        <path
           d="M 249.97,468.57 C 281.535,468.57 311.572,461.988 338.781,450.122"
           id="path231" />
        <path
           d="M 315.56,383.6 L 338.841,426.525"
           id="path233" />
        <path
           d="M 330.66,364.99 C 335.194,360.888 337.784,363.225 336.945,365.49"
           id="path235" />
        <path
           d="M 455.37,225.41 C 462.427,226.258 466.674,230.552 468.855,236.658"
           id="path237" />
        <path
           d="M 468.72,235.59 C 470.196,232.124 472.907,229.585 475.716,227.12"
           id="path239" />
        <path
           d="M 475.21,209.76 C 470.951,214.164 468.064,220.989 472.156,230.422"
           id="path241" />
        <path
           d="M 475.34,209.64 C 468.743,211.646 459.074,212.595 449.515,211.22"
           id="path243" />
        <path
           d="M 474.83,202.89 C 470.149,205.603 455.935,206.454 449.132,202.689"
           id="path245" />
        <path
           d="M 475.21,209.76 C 467.278,210.531 453.314,209.181 447.731,206.378"
           id="path247" />
        <path
           d="M 449.77,211.54 C 452.34,214.556 453.304,218.375 451.806,223.424"
           id="path249" />
        <path
           d="M 449.13,192.97 C 452.082,194.205 453.936,201.077 449.894,202.819"
           id="path251" />
        <path
           d="M 472.67,188.14 C 469.302,192.417 470.105,200.005 473.942,203.078"
           id="path253" />
        <path
           d="M 472.79,187.88 C 467.855,189.958 454.786,190.809 447.347,188.57"
           id="path255" />
        <path
           d="M 472.03,188.39 C 466.578,191.286 455.255,192.872 449.004,193.023"
           id="path257" />
        <path
           d="M 471.78,182.67 C 468.626,184.875 457.083,188.524 448.626,185.14"
           id="path259" />
        <path
           d="M 467.58,168.93 C 465.693,173.238 466.841,179.348 471.269,182.723"
           id="path261" />
        <path
           d="M 468.22,168.42 C 463.178,171.304 457.096,174.202 447.611,174.961"
           id="path263" />
        <path
           d="M 465.67,163.84 C 460.63,166.724 455.31,168.477 446.715,168.218"
           id="path265" />
        <path
           d="M 467.71,168.8 C 461.27,171.175 451.879,172.291 446.21,171.652"
           id="path267" />
        <path
           d="M 447.86,175.16 C 450.81,176.395 452.665,183.267 448.623,185.009"
           id="path269" />
        <path
           d="M 460.58,149.59 C 458.693,153.898 460.733,161.026 464.905,163.51"
           id="path271" />
        <path
           d="M 460.58,149.84 C 456.428,152.724 453.018,155.071 444.932,155.236"
           id="path273" />
        <path
           d="M 458.42,144.63 C 456.051,147.768 451.494,151.047 444.808,150.917"
           id="path275" />
        <path
           d="M 452.06,131.52 C 451.445,135.955 453.485,142.32 457.658,144.804"
           id="path277" />
        <path
           d="M 451.97,131.06 C 449.685,133.605 446.231,135.103 442.09,134.972"
           id="path279" />
        <path
           d="M 449.77,127.07 C 447.486,129.615 445.134,130.858 441.247,131.067"
           id="path281" />
        <path
           d="M 442.14,113.42 C 440.619,114.608 438.861,116.021 435.991,116.06"
           id="path283" />
        <path
           d="M 439.59,110.11 C 438.493,111.213 437.499,112.372 434.713,112.919"
           id="path285" />
        <path
           d="M 429.33,96.709 C 428.742,97.557 428.002,98.123 426.659,98.162"
           id="path287" />
        <path
           d="M 426.7,93.317 C 426.112,94.165 425.797,94.731 424.453,94.77"
           id="path289" />
        <path
           d="M 442.26,113.84 C 442.154,118.911 445.21,124.385 449.384,126.869"
           id="path291" />
        <path
           d="M 333.87,61.341 C 330.9,61.615 328.11,60.536 325.57,57.511 C 329.15,57.153 331.97,58.333 333.87,61.341 z"
           id="path293" />
        <path
           d="M 334.04,62.033 C 334.35,65 333.62,67.533 330.62,69.403 C 330.34,65.66 331.05,63.966 334.04,62.033 z"
           id="path295" />
        <path
           d="M 325.79,65.101 C 327.2,67.555 326.83,68.875 325.26,71.002 C 324.15,68.375 323.83,67.285 325.8,65.101 z"
           id="path297" />
        <path
           d="M 325.47,64.391 C 323,65.52 321.4,65.151 319.39,63.436 C 321.84,62.385 323.19,62.176 325.47,64.391 z"
           id="path299" />
        <path
           d="M 343.71,59.396 C 340.79,58.79 338.43,56.943 336.89,53.306 C 340.42,54.01 342.77,55.962 343.71,59.394 z"
           id="path301" />
        <path
           d="M 343.67,60.107 C 343.1,63.034 341.66,65.243 338.25,66.156 C 339.07,62.492 340.25,61.083 343.67,60.106 z"
           id="path303" />
        <path
           d="M 353.91,60.026 C 350.76,59.098 348.19,56.676 347.57,52.491 C 351.08,53.498 353.57,56.256 353.92,60.026 z"
           id="path305" />
        <path
           d="M 353.76,60.726 C 352.74,63.531 350.04,66.79 346.24,67.112 C 347.32,62.851 350.24,61.166 353.75,60.726 z"
           id="path307" />
        <path
           d="M 363.43,61.554 C 360.39,60.312 358.07,57.642 357.88,53.419 C 361.27,54.772 363.47,57.767 363.43,61.555 z"
           id="path309" />
        <path
           d="M 363.21,62.234 C 361.91,64.922 358.9,67.89 355.08,67.826 C 356.58,63.698 359.66,62.316 363.2,62.233 z"
           id="path311" />
        <path
           d="M 370.78,64.386 C 367.95,62.727 366.03,59.754 366.44,55.545 C 369.61,57.368 371.36,60.643 370.79,64.388 z"
           id="path313" />
        <path
           d="M 370.47,65.028 C 368.81,67.506 365.4,70.017 361.63,69.411 C 363.7,65.539 366.94,64.606 370.46,65.026 z"
           id="path315" />
        <path
           d="M 377.77,67.686 C 375.13,65.736 373.54,62.579 374.38,58.436 C 377.35,60.581 378.75,64.029 377.78,67.688 z"
           id="path317" />
        <path
           d="M 377.39,68.291 C 375.48,70.58 371.82,72.717 368.14,71.717 C 370.61,68.086 373.93,67.499 377.38,68.288 z"
           id="path319" />
        <path
           d="M 384.54,71.422 C 381.98,69.369 380.51,66.151 381.52,62.045 C 384.4,64.308 385.65,67.802 384.54,71.425 z"
           id="path321" />
        <path
           d="M 384.13,72.012 C 382.13,74.222 378.39,76.213 374.75,75.066 C 377.37,71.537 380.71,71.083 384.13,72.01 z"
           id="path323" />
        <path
           d="M 390.84,75.495 C 388.57,73.126 387.53,69.743 389.07,65.804 C 391.63,68.424 392.41,72.051 390.84,75.499 z"
           id="path325" />
        <path
           d="M 390.36,76.027 C 388.08,77.957 384.12,79.441 380.66,77.83 C 383.71,74.672 387.08,74.659 390.35,76.024 z"
           id="path327" />
        <path
           d="M 396.53,80.304 C 394.53,77.702 393.87,74.229 395.82,70.479 C 398.08,73.358 398.47,77.05 396.53,80.308 z"
           id="path329" />
        <path
           d="M 395.99,80.781 C 393.53,82.454 389.42,83.502 386.16,81.526 C 389.54,78.717 392.89,79.067 395.99,80.778 z"
           id="path331" />
        <path
           d="M 401.15,85.266 C 399.34,82.53 398.92,79.016 401.14,75.416 C 403.19,78.449 403.31,82.158 401.15,85.27 z"
           id="path333" />
        <path
           d="M 400.58,85.704 C 398,87.197 393.83,87.951 390.71,85.748 C 394.29,83.185 397.6,83.773 400.58,85.699 z"
           id="path335" />
        <path
           d="M 405.92,90.221 C 404.19,87.436 403.87,83.913 406.18,80.373 C 408.14,83.46 408.17,87.173 405.93,90.224 z"
           id="path337" />
        <path
           d="M 405.35,90.643 C 402.73,92.067 398.54,92.707 395.48,90.422 C 399.12,87.956 402.42,88.633 405.34,90.639 z"
           id="path339" />
        <path
           d="M 410.42,95.53 C 408.87,92.638 408.78,89.103 411.32,85.722 C 413.08,88.931 412.86,92.636 410.42,95.535 z"
           id="path341" />
        <path
           d="M 409.81,95.914 C 407.11,97.163 402.89,97.529 399.98,95.048 C 403.78,92.825 407.03,93.717 409.81,95.91 z"
           id="path343" />
        <path
           d="M 414.41,101.47 C 413.11,98.459 413.32,94.928 416.13,91.771 C 417.61,95.114 417.09,98.788 414.42,101.47 z"
           id="path345" />
        <path
           d="M 413.78,101.8 C 410.98,102.82 406.74,102.83 404.06,100.12 C 408.02,98.22 411.19,99.379 413.78,101.8 z"
           id="path347" />
        <path
           d="M 418.32,107.4 C 417.17,104.33 417.56,100.81 420.52,97.799 C 421.84,101.21 421.14,104.87 418.32,107.4 z"
           id="path349" />
        <path
           d="M 417.67,107.7 C 414.82,108.58 410.59,108.38 408.05,105.53 C 412.1,103.83 415.2,105.15 417.67,107.69 z"
           id="path351" />
        <path
           d="M 421.59,113.41 C 420.58,110.29 421.13,106.8 424.23,103.93 C 425.39,107.4 424.51,111 421.59,113.42 z"
           id="path353" />
        <path
           d="M 420.92,113.68 C 418.04,114.43 413.82,114.03 411.41,111.07 C 415.54,109.56 418.57,111.02 420.92,113.68 z"
           id="path355" />
        <path
           d="M 424.87,119.52 C 424,116.36 424.69,112.89 427.92,110.15 C 428.92,113.67 427.89,117.24 424.88,119.53 z"
           id="path357" />
        <path
           d="M 424.2,119.76 C 421.28,120.38 417.09,119.81 414.8,116.75 C 418.99,115.42 421.96,117.01 424.19,119.76 z"
           id="path359" />
        <path
           d="M 427.8,125.81 C 427.07,122.61 427.91,119.18 431.25,116.58 C 432.11,120.14 430.92,123.66 427.81,125.81 z"
           id="path361" />
        <path
           d="M 427.12,126.02 C 424.18,126.51 420.01,125.76 417.87,122.6 C 422.11,121.45 425.01,123.17 427.12,126.01 z"
           id="path363" />
        <path
           d="M 430.54,132.36 C 429.8,129.16 430.65,125.72 433.99,123.13 C 434.84,126.69 433.66,130.21 430.54,132.36 z"
           id="path365" />
        <path
           d="M 429.86,132.57 C 426.91,133.06 422.75,132.31 420.6,129.15 C 424.84,128 427.74,129.72 429.85,132.56 z"
           id="path367" />
        <path
           d="M 350.75,110.55 C 351.03,113.37 350.15,114.42 347.85,115.72 C 347.91,112.87 348.07,111.74 350.76,110.56 z"
           id="path369" />
        <path
           d="M 350.75,109.78 C 348.03,109.79 346.73,108.8 345.6,106.41 C 348.26,106.46 349.59,106.83 350.75,109.78 z"
           id="path371" />
        <path
           d="M 343.53,113.08 C 344.31,115.38 343.79,116.43 342.12,117.96 C 341.6,115.57 341.52,114.6 343.53,113.08 z"
           id="path373" />
        <path
           d="M 343.36,112.43 C 341.09,112.97 339.81,112.4 338.39,110.63 C 340.64,110.15 341.81,110.19 343.36,112.43 z"
           id="path375" />
        <path
           d="M 358.93,109.7 C 358.6,112.51 357.52,113.35 354.99,114.12 C 355.66,111.35 356.05,110.28 358.93,109.7 z"
           id="path377" />
        <path
           d="M 359.1,108.94 C 356.44,108.37 355.38,107.12 354.78,104.55 C 357.37,105.16 358.6,105.81 359.1,108.94 z"
           id="path379" />
        <path
           d="M 366.21,110.16 C 365.23,112.81 363.81,113.73 361.17,113.89 C 362.46,111.33 363.27,110.04 366.21,110.15 z"
           id="path381" />
        <path
           d="M 366.47,109.18 C 364.02,108 363.02,106.09 363.05,103.45 C 365.29,104.4 366.72,106.02 366.48,109.18 z"
           id="path383" />
        <path
           d="M 372.94,111.33 C 371.78,113.92 370.3,114.74 367.66,114.72 C 369.11,112.26 370.01,111.02 372.94,111.33 z"
           id="path385" />
        <path
           d="M 373.26,110.38 C 370.89,109.03 370.03,107.06 370.23,104.42 C 372.4,105.53 373.72,107.24 373.27,110.38 z"
           id="path387" />
        <path
           d="M 378.89,113.46 C 377.44,115.88 375.87,116.52 373.24,116.18 C 374.98,113.91 376.02,112.8 378.89,113.45 z"
           id="path389" />
        <path
           d="M 379.33,112.54 C 377.14,110.93 376.51,108.87 377.03,106.27 C 379.05,107.63 380.16,109.49 379.33,112.55 z"
           id="path391" />
        <path
           d="M 384.01,116.04 C 382.27,118.27 380.63,118.71 378.07,118.06 C 380.07,116.02 381.24,115.04 384,116.03 z"
           id="path393" />
        <path
           d="M 384.55,115.19 C 382.57,113.32 382.21,111.19 383.03,108.68 C 384.88,110.27 385.75,112.26 384.55,115.19 z"
           id="path395" />
        <path
           d="M 388.66,119.14 C 386.62,121.1 384.94,121.3 382.49,120.3 C 384.77,118.56 386.06,117.75 388.66,119.13 z"
           id="path397" />
        <path
           d="M 389.32,118.37 C 387.62,116.24 387.56,114.09 388.73,111.72 C 390.33,113.55 390.92,115.64 389.32,118.38 z"
           id="path399" />
        <path
           d="M 392.88,122.81 C 390.57,124.44 388.88,124.39 386.61,123.03 C 389.12,121.65 390.52,121.05 392.88,122.81 z"
           id="path401" />
        <path
           d="M 393.65,122.15 C 392.29,119.79 392.56,117.65 394.08,115.49 C 395.38,117.54 395.64,119.69 393.65,122.16 z"
           id="path403" />
        <path
           d="M 396.64,127.01 C 394.15,128.35 392.48,128.09 390.4,126.46 C 393.05,125.4 394.52,124.98 396.65,127.01 z"
           id="path405" />
        <path
           d="M 397.49,126.45 C 396.43,123.94 396.96,121.85 398.73,119.89 C 399.77,122.09 399.77,124.25 397.49,126.46 z"
           id="path407" />
        <path
           d="M 399.77,131.37 C 397.18,132.53 395.53,132.14 393.57,130.37 C 396.3,129.51 397.8,129.19 399.77,131.37 z"
           id="path409" />
        <path
           d="M 400.65,130.88 C 399.78,128.3 400.45,126.25 402.36,124.42 C 403.24,126.69 403.08,128.85 400.65,130.88 z"
           id="path411" />
        <path
           d="M 402.55,136.67 C 399.84,137.48 398.25,136.9 396.53,134.89 C 399.35,134.38 400.87,134.25 402.55,136.66 z"
           id="path413" />
        <path
           d="M 403.49,136.29 C 402.95,133.62 403.88,131.67 406,130.1 C 406.59,132.46 406.15,134.59 403.48,136.29 z"
           id="path415" />
        <path
           d="M 404.24,142.11 C 401.44,142.49 399.96,141.65 398.59,139.4 C 401.45,139.34 402.97,139.46 404.24,142.11 z"
           id="path417" />
        <path
           d="M 405.23,141.89 C 405.12,139.16 406.35,137.39 408.69,136.18 C 408.9,138.61 408.13,140.63 405.22,141.89 z"
           id="path419" />
        <path
           d="M 405.34,147.29 C 402.51,147.3 401.15,146.28 400.08,143.87 C 402.93,144.18 404.42,144.5 405.34,147.29 z"
           id="path421" />
        <path
           d="M 406.35,147.19 C 406.59,144.48 408.04,142.88 410.53,141.98 C 410.41,144.41 409.39,146.32 406.34,147.2 z"
           id="path423" />
        <path
           d="M 405.76,153.01 C 402.97,152.53 401.81,151.3 401.18,148.73 C 403.92,149.54 405.34,150.1 405.76,153.01 z"
           id="path425" />
        <path
           d="M 406.77,153.09 C 407.48,150.47 409.18,149.14 411.79,148.69 C 411.26,151.06 409.92,152.77 406.77,153.1 z"
           id="path427" />
        <path
           d="M 405.65,158.93 C 402.92,158.18 401.89,156.84 401.5,154.22 C 404.16,155.29 405.51,155.99 405.65,158.93 z"
           id="path429" />
        <path
           d="M 406.64,159.11 C 407.61,156.56 409.43,155.41 412.07,155.21 C 411.31,157.52 409.81,159.09 406.64,159.11 z"
           id="path431" />
        <path
           d="M 405.01,165.42 C 402.33,164.53 401.37,163.13 401.13,160.5 C 403.72,161.71 405.04,162.48 405.02,165.42 z"
           id="path433" />
        <path
           d="M 406,165.65 C 407.1,163.16 408.98,162.11 411.63,162.06 C 410.74,164.33 409.16,165.81 405.99,165.66 z"
           id="path435" />
        <path
           d="M 403.57,171.61 C 401.08,170.27 400.37,168.73 400.58,166.1 C 402.93,167.73 404.09,168.71 403.58,171.61 z"
           id="path437" />
        <path
           d="M 404.51,172 C 406.01,169.74 408.05,169.02 410.66,169.41 C 409.41,171.49 407.6,172.69 404.5,172.01 z"
           id="path439" />
        <path
           d="M 401.4,178.64 C 398.99,177.15 398.37,175.57 398.74,172.95 C 400.99,174.73 402.09,175.78 401.4,178.64 z"
           id="path441" />
        <path
           d="M 402.3,179.09 C 403.95,176.92 406.02,176.32 408.6,176.87 C 407.22,178.88 405.34,179.96 402.3,179.09 z"
           id="path443" />
        <path
           d="M 399.19,185 C 396.84,183.42 396.29,181.81 396.76,179.21 C 398.94,181.07 399.99,182.17 399.19,185 z"
           id="path445" />
        <path
           d="M 400.07,185.48 C 401.8,183.38 403.89,182.87 406.46,183.52 C 405,185.47 403.08,186.48 400.07,185.49 z"
           id="path447" />
        <path
           d="M 396.54,191.71 C 394.19,190.13 393.64,188.52 394.12,185.92 C 396.29,187.78 397.35,188.88 396.55,191.71 z"
           id="path449" />
        <path
           d="M 397.43,192.19 C 399.16,190.09 401.25,189.58 403.81,190.23 C 402.35,192.18 400.43,193.19 397.42,192.2 z"
           id="path451" />
        <path
           d="M 393.96,198.02 C 391.87,196.11 391.56,194.45 392.41,191.94 C 394.28,194.09 395.16,195.33 393.95,198.01 z"
           id="path453" />
        <path
           d="M 394.81,198.48 C 396.25,196.17 398.26,195.39 400.88,195.71 C 399.71,197.82 397.93,199.07 394.81,198.48 z"
           id="path455" />
        <path
           d="M 390.96,204.46 C 389.11,202.33 388.99,200.63 390.12,198.25 C 391.74,200.61 392.48,201.95 390.96,204.46 z"
           id="path457" />
        <path
           d="M 391.77,204.91 C 392.99,202.48 394.91,201.51 397.56,201.57 C 396.59,203.8 394.93,205.21 391.78,204.91 z"
           id="path459" />
        <path
           d="M 387.91,210.1 C 386.28,207.78 386.35,206.09 387.72,203.83 C 389.08,206.34 389.68,207.75 387.91,210.1 z"
           id="path461" />
        <path
           d="M 388.65,210.57 C 389.87,208.13 391.79,207.16 394.44,207.23 C 393.47,209.45 391.81,210.86 388.65,210.57 z"
           id="path463" />
        <path
           d="M 384.78,216.94 C 382.9,214.82 382.77,213.13 383.88,210.73 C 385.52,213.07 386.27,214.4 384.77,216.93 z"
           id="path465" />
        <path
           d="M 385.42,217.09 C 386.63,214.65 387.68,213.8 390.32,213.87 C 389.34,216.08 388.57,217.37 385.42,217.09 z"
           id="path467" />
        <path
           d="M 352.21,151.5 C 350.62,151.63 350.04,151.12 349.33,149.81 C 350.95,149.87 351.58,149.97 352.22,151.5 z"
           id="path469" />
        <path
           d="M 352.28,152.43 C 351.54,153.84 350.8,154.06 349.31,153.96 C 350.23,152.63 350.65,152.15 352.28,152.43 z"
           id="path471" />
        <path
           d="M 359.29,151.98 C 357.7,151.8 357.23,151.19 356.79,149.77 C 358.35,150.13 358.95,150.36 359.28,151.98 z"
           id="path473" />
        <path
           d="M 359.17,152.9 C 358.18,154.14 357.41,154.22 355.97,153.84 C 357.13,152.7 357.63,152.32 359.18,152.9 z"
           id="path475" />
        <path
           d="M 365.76,154.74 C 364.28,154.14 363.99,153.42 363.95,151.94 C 365.36,152.71 365.88,153.09 365.75,154.74 z"
           id="path477" />
        <path
           d="M 365.4,155.6 C 364.11,156.52 363.35,156.39 362.07,155.63 C 363.49,154.85 364.07,154.62 365.41,155.6 z"
           id="path479" />
        <path
           d="M 371.3,160.04 C 370.22,158.86 370.26,158.09 370.86,156.73 C 371.8,158.03 372.11,158.59 371.29,160.03 z"
           id="path481" />
        <path
           d="M 370.61,160.66 C 369.04,160.94 368.41,160.5 367.58,159.27 C 369.19,159.17 369.83,159.2 370.61,160.66 z"
           id="path483" />
        <path
           d="M 374.83,166.84 C 374.04,165.45 374.26,164.71 375.16,163.52 C 375.77,165 375.94,165.62 374.82,166.84 z"
           id="path485" />
        <path
           d="M 374.01,167.29 C 372.42,167.21 371.91,166.64 371.38,165.25 C 372.97,165.52 373.58,165.7 374.02,167.3 z"
           id="path487" />
        <path
           d="M 376.39,174.71 C 375.94,173.18 376.32,172.5 377.46,171.55 C 377.73,173.12 377.76,173.77 376.39,174.7 z"
           id="path489" />
        <path
           d="M 375.5,174.96 C 373.97,174.52 373.59,173.85 373.39,172.37 C 374.88,173 375.44,173.31 375.5,174.96 z"
           id="path491" />
        <path
           d="M 376.19,182.58 C 376.06,180.99 376.57,180.4 377.88,179.7 C 377.82,181.3 377.72,181.94 376.19,182.57 z"
           id="path493" />
        <path
           d="M 375.26,182.64 C 373.85,181.9 373.63,181.16 373.73,179.68 C 375.06,180.6 375.54,181.01 375.26,182.65 z"
           id="path495" />
        <path
           d="M 341.43,155.19 C 358.785,154.837 377.692,162.55 368.456,206.682"
           id="path497" />
        <path
           d="M 342.79,154.41 C 367.281,143.814 386.773,168.624 368.647,206.728"
           id="path499" />
        <path
           d="M 421.5,167.22 L 432.35,166.16 L 440.85,172.28 L 429.66,173.3 L 421.51,167.22 z"
           id="path501" />
        <path
           d="M 417.51,179.85 L 427.48,179.59 L 435.1,186.85 L 423.91,186.38 L 417.52,179.84 z"
           id="path503" />
        <path
           d="M 412.04,191.69 L 421.49,192.13 L 427.25,200.45 L 417.65,199 L 412.03,191.7 z"
           id="path505" />
        <path
           d="M 404.86,203.17 L 414.01,204.61 L 418.48,212.52 L 409.72,210.65 L 404.85,203.16 z"
           id="path507" />
        <path
           d="M 396.71,214.39 L 405.58,215.87 L 408.71,223.47 L 400.9,221.67 L 396.71,214.38 z"
           id="path509" />
        <path
           d="M 387.99,225.25 L 396.55,226.58 L 399.92,233.98 L 391.4,232.49 L 388,225.24 z"
           id="path511" />
        <path
           d="M 378.88,237.59 L 387.36,237.77 L 391.63,244.74 L 382.95,244.4 L 378.88,237.59 z"
           id="path513" />
        <path
           d="M 371.58,251.79 L 380.12,250.21 L 386.09,255.53 L 377.53,257.71 L 371.58,251.8 z"
           id="path515" />
        <path
           d="M 368.81,267.02 L 376.6,264.66 L 383.44,268.25 L 376.18,270.75 L 368.83,267.01 z"
           id="path517" />
        <path
           d="M 370.49,283.39 L 376.52,278.78 L 384.5,280.53 L 377.51,284.68 L 370.48,283.38 z"
           id="path519" />
        <path
           d="M 374.99,298.35 L 380.34,293.12 L 388.4,292.2 L 382.93,298.49 L 374.98,298.34 z"
           id="path521" />
        <path
           d="M 382.66,311.92 L 386.83,305.04 L 394.89,302.82 L 390.77,310.24 L 382.65,311.92 z"
           id="path523" />
        <path
           d="M 392.93,322.94 L 396.15,316.06 L 404.51,312.95 L 400.92,320.37 L 392.92,322.94 z"
           id="path525" />
        <path
           d="M 403.14,332.54 L 406.25,325.37 L 414.96,322.79 L 410.9,329.91 L 403.15,332.53 z"
           id="path527" />
        <path
           d="M 410.71,342.72 L 415.64,335.43 L 425,334.68 L 419.82,341.98 L 410.72,342.73 z"
           id="path529" />
        <path
           d="M 429.74,173.19 C 428.92,175.37 428.1,177.47 427.27,179.47 M 424.32,186.19 C 423.34,188.28 422.35,190.26 421.36,192.14 M 417.65,198.92 C 416.45,200.97 415.25,202.89 414.06,204.69 M 409.95,210.54 C 409.15,211.6 408.36,212.61 407.57,213.59 C 406.87,214.46 406.17,215.32 405.47,216.17 M 400.99,221.52 C 399.43,223.35 397.91,225.13 396.43,226.88 M 391.73,232.53 C 390.22,234.39 388.79,236.22 387.45,238.04 M 383.27,244.22 C 382.06,246.2 381,248.19 380.09,250.21 M 377.61,257.45 C 377.34,258.59 377.13,259.76 376.98,260.95 C 376.8,262.3 376.65,263.62 376.53,264.92 M 376.16,270.81 C 376.09,273.56 376.19,276.23 376.48,278.87 M 377.42,284.5 C 378.08,287.38 379.01,290.26 380.28,293.2 M 382.85,298.45 C 383.6,299.83 384.43,301.22 385.34,302.64 C 385.87,303.48 386.41,304.28 386.96,305.07 M 390.76,310.07 C 392.53,312.22 394.34,314.18 396.16,316.03 M 400.74,320.46 C 402.6,322.19 404.43,323.84 406.19,325.49 M 410.7,329.86 C 412.48,331.69 414.15,333.58 415.65,335.62 M 419.6,342.13 C 420.86,344.76 421.87,347.65 422.57,350.93 M 441.11,133.95 C 438.27,146.37 435.29,157.03 432.19,166.23"
           id="path531" />
        <path
           d="M 423.57,335.44 L 412.18,341.87"
           id="path533" />
        <path
           d="M 413.61,323.72 L 404.05,331.69"
           id="path535" />
        <path
           d="M 403.07,314.4 L 393.57,322.25"
           id="path537" />
        <path
           d="M 393.71,303.75 L 383.97,311.07"
           id="path539" />
        <path
           d="M 386.7,293.05 L 376.57,297.74"
           id="path541" />
        <path
           d="M 382.6,280.82 L 372.16,282.95"
           id="path543" />
        <path
           d="M 381.8,268.07 L 370.73,267.18"
           id="path545" />
        <path
           d="M 384.64,255.14 L 373.06,252.2"
           id="path547" />
        <path
           d="M 390.32,244.02 L 380.16,238.3"
           id="path549" />
        <path
           d="M 398.68,232.99 L 389.1,226.13"
           id="path551" />
        <path
           d="M 407.56,222.52 L 398.02,215.19"
           id="path553" />
        <path
           d="M 417.11,211.5 L 406.28,204.09"
           id="path555" />
        <path
           d="M 425.72,199.5 L 413.43,192.37"
           id="path557" />
        <path
           d="M 433.22,186.07 L 419.08,180.54"
           id="path559" />
        <path
           d="M 439.03,171.82 L 423.21,167.67"
           id="path561" />
        <path
           d="M 413.57,414.7 C 371.257,455.74 313.57,481.016 250.01,481.016"
           id="path563" />
        <g
           id="g565"
           style="fill:#fed100">
          <path
             d="M 322.91,370.99 L 316.27,375.16 L 351.65,432.13 L 352.52,441.63 L 378.16,467.38 L 385.41,462.92 L 372.3,429.57 L 362.79,423.64 L 322.91,370.99 z"
             id="path567" />
          <path
             d="M 365.86,433.67 L 359.12,438.17 L 378.74,463.95 L 381.88,462.01 L 365.86,433.67 z"
             id="path569" />
          <path
             d="M 364.6,439.47 L 355.09,438.05 L 347.06,449.13 L 349.02,452.65 L 358.88,454.36 L 357.11,451.09 L 360.1,449.21 L 368.73,457.88 L 361.06,461.98 L 344.27,459.04 L 338.96,448.02 L 351.83,431.95 L 360.21,432.29 L 362.62,423.41 L 385.48,420.07 L 392.68,429.89 L 387.37,446.62 L 380.7,450.94 L 376.25,439.56 L 379.75,437.47 L 381.84,440.69 L 384.9,431.15 L 382.83,427.77 L 366.66,430.43 L 364.6,439.48 z"
             id="path571" />
          <path
             d="M 386.1,447.24 L 381.71,440.51"
             id="path573" />
          <path
             d="M 362.71,461.29 L 358.76,454.14"
             id="path575" />
          <path
             d="M 319.78,373.32 L 364.47,439.28"
             id="path577" />
          <path
             d="M 294.8,318.29 C 294.8,321.91 297.73,324.84 301.37,324.84 C 304.98,324.84 307.92,321.91 307.92,318.29 C 307.92,314.68 304.98,311.74 301.37,311.74 C 297.73,311.74 294.8,314.68 294.8,318.29 z"
             id="path579" />
          <path
             d="M 299.41,318.29 C 299.41,319.37 300.28,320.24 301.36,320.24 C 302.43,320.24 303.3,319.37 303.3,318.29 C 303.3,317.22 302.43,316.35 301.36,316.35 C 300.28,316.35 299.41,317.22 299.41,318.29 z"
             id="path581" />
        </g>
        <path
           d="M 249.97,447.58 C 281.92,447.58 312.14,440.13 339,426.88"
           id="path583" />
        <g
           transform="scale(1.25,1.25)"
           id="a"
           style="fill:#fed100;stroke-width:0.72000003">
          <path
             d="M 210.69,208.22 L 207.44,211.5 L 210.69,214.75 L 213.97,211.5 L 210.69,208.22 z"
             id="path586" />
          <path
             d="M 196.76,211.49 L 200.03,208.22 L 203.3,211.49 L 200.03,214.76 z"
             id="path588" />
          <path
             d="M 199.09,170.76 L 199.14,174.02 H 200.95 L 200.99,170.76 z M 202.64,170.84 L 202.35,174.1 C 202.98,174.14 203.59,174.2 204.21,174.27 L 204.5,171.01 C 203.88,170.94 203.26,170.88 202.64,170.84 z M 206.15,171.26 L 205.62,174.47 C 206.22,174.57 206.83,174.64 207.43,174.76 L 208.01,171.54 C 207.4,171.42 206.77,171.35 206.15,171.26 z M 209.62,171.91 L 208.79,175.1 C 209.4,175.24 210.02,175.37 210.61,175.54 L 211.47,172.41 C 210.86,172.23 210.24,172.06 209.62,171.91 z M 212.96,172.9 L 211.89,175.96 C 212.47,176.16 213.05,176.35 213.62,176.58 L 214.74,173.53 C 214.15,173.3 213.55,173.1 212.96,172.9 z M 216.3,174.18 L 214.94,177.12 C 215.5,177.36 216.05,177.67 216.59,177.94 L 218,174.97 C 217.44,174.7 216.87,174.43 216.3,174.18 z M 219.48,175.71 L 217.87,178.56 C 218.41,178.85 218.93,179.15 219.44,179.47 H 219.48 L 221.14,176.66 C 220.6,176.34 220.03,176.02 219.48,175.71 z M 222.5,177.57 L 220.68,180.26 C 221.18,180.59 221.68,180.97 222.17,181.33 L 224.06,178.64 C 223.54,178.26 223.03,177.93 222.5,177.57 z M 225.34,179.63 L 223.28,182.15 C 223.76,182.54 224.22,182.94 224.69,183.35 L 226.79,180.87 C 226.31,180.46 225.84,180.03 225.34,179.63 z M 228.03,181.98 L 225.76,184.3 C 226.19,184.71 226.62,185.14 227.04,185.58 L 229.39,183.31 C 228.95,182.85 228.49,182.42 228.03,181.98 z M 230.46,184.54 L 228.02,186.65 C 228.43,187.1 228.8,187.58 229.18,188.06 L 231.7,185.95 C 231.31,185.46 230.87,185.01 230.46,184.54 z M 232.69,187.23 L 230.05,189.13 C 230.42,189.62 230.82,190.14 231.17,190.66 L 233.85,188.8 C 233.48,188.25 233.09,187.76 232.69,187.23 z M 234.71,190.2 L 231.9,191.86 C 232.22,192.37 232.52,192.89 232.82,193.42 L 235.66,191.81 C 235.36,191.26 235.04,190.73 234.71,190.2 z M 236.41,193.3 L 233.47,194.7 C 233.75,195.25 234.06,195.79 234.3,196.35 L 237.23,195.03 C 236.98,194.45 236.7,193.87 236.41,193.3 z M 237.9,196.56 L 234.84,197.67 C 235.06,198.25 235.26,198.82 235.46,199.41 L 238.51,198.29 C 238.31,197.71 238.12,197.13 237.9,196.56 z M 239.01,199.86 L 235.91,200.73 C 236.09,201.31 236.22,201.9 236.37,202.5 L 239.54,201.72 C 239.39,201.09 239.19,200.47 239.01,199.86 z M 239.91,203.33 L 236.7,203.9 C 236.82,204.49 236.94,205.09 237.02,205.68 L 240.21,205.14 C 240.11,204.54 240.03,203.92 239.91,203.33 z M 240.45,206.83 L 237.19,207.13 C 237.26,207.74 237.35,208.35 237.4,208.98 L 240.66,208.7 C 240.62,208.06 240.52,207.46 240.45,206.83 z M 240.7,210.51 L 237.44,210.55 L 237.48,212.24 L 240.74,212.29 z"
             id="path590"
             style="stroke:none" />
          <path
             d="M 218.32,179.2 L 215.05,182.47 L 215.82,183.24 L 206.12,192.93 L 205.36,192.16 L 202.09,195.43 L 205.33,198.68 L 208.6,195.41 L 207.83,194.64 L 217.53,184.95 L 218.29,185.71 L 221.56,182.44 L 218.31,179.2 z M 223.69,184.56 L 220.42,187.83 L 221.21,188.63 L 211.52,198.32 L 210.72,197.52 L 207.45,200.79 L 210.72,204.06 L 213.99,200.79 L 213.2,200 L 222.89,190.3 L 223.69,191.1 L 226.96,187.83 L 223.68,184.56 z M 229.02,189.9 L 225.75,193.17 L 226.55,193.96 L 216.86,203.66 L 216.06,202.86 L 212.79,206.13 L 216.06,209.4 L 219.33,206.13 L 218.53,205.33 L 228.23,195.64 L 229.02,196.44 L 232.29,193.17 L 229.02,189.89 z"
             id="path592" />
          <path
             d="M 213.97,211.49 L 216.06,209.39 L 202.1,195.43 L 200,197.52"
             id="path594"
             style="fill:none" />
          <path
             d="M 203.24,200.76 L 199.97,204.03 L 196.73,200.79 L 200,197.52 z"
             id="path596" />
          <path
             d="M 202.1,206.15 L 205.37,202.88 L 208.64,206.15 L 205.37,209.42 z"
             id="path598" />
        </g>
        <use
           transform="matrix(1,0,0,-1,0,528.73)"
           id="use600"
           x="0"
           y="0"
           width="390"
           height="390"
           xlink:href="#a" />
      </g>
      <use
         transform="matrix(-1,0,0,1,500.02,0)"
         id="use602"
         x="0"
         y="0"
         width="390"
         height="390"
         xlink:href="#c" />
    </g>
    <path
       d="M 255.71,319.67 L 253.21,320.753 L 255.96,328.17 L 252.043,329.712 L 249.085,322.17 L 246.502,323.17 L 253.752,341.587 L 256.377,340.587 L 252.918,332.045 L 256.877,330.628 L 260.46,339.128 L 263.002,338.087 L 255.712,319.667 z M 145.38,320.25 L 142.546,322.709 L 144.796,323.584 L 138.588,336.667 L 137.255,336.167 L 136.546,338.084 L 141.13,339.875 L 141.963,337.917 L 140.671,337.375 L 143.671,331.459 L 145.171,341.167 L 146.63,341.792 L 146,343.632 L 147.958,344.341 L 149.416,340.299 L 147.041,339.299 L 145.833,330.549 L 152.125,326.049 L 153.791,326.591 L 154.916,323.757 L 152.416,322.841 L 144.958,328.632 L 148.166,321.216 L 145.376,320.266 z M 239.96,324.96 L 236.502,326.043 L 237.502,345.96 L 239.877,345.46 L 239.787,341 L 245.121,339.667 L 247.162,343.584 L 249.621,342.834 L 239.961,324.954 z M 160.21,325.25 L 151.335,343.167 L 153.668,343.875 L 155.752,339.959 L 161.085,341.417 L 160.918,345.792 L 163.418,346.334 L 163.793,326.042 L 160.223,325.242 z M 231.79,327.08 L 222.54,328.871 L 223.082,331.663 L 226.415,330.996 L 229.582,347.705 L 232.207,347.205 L 229.007,330.505 L 232.34,329.88 L 231.8,327.08 z M 238.96,327.58 L 244.085,337.663 L 239.627,338.788 L 238.967,327.588 z M 161.58,327.83 L 161.163,339.121 L 156.705,337.913 L 161.585,327.833 z M 173.58,328.5 C 170.693,328.536 169.042,330.406 168.83,333.417 L 171.122,333.917 C 171.403,332.528 171.716,330.879 174.372,331.167 C 176.576,331.432 176.98,332.726 177.163,334.125 C 176.709,337.291 174.309,337.285 172.497,336.709 L 172.038,338.917 C 174.261,339.006 175.99,340.998 175.705,342.834 C 175.286,345.088 173.192,345.604 171.872,345.417 C 169.905,345.165 169.044,343.293 169.705,341.417 L 167.247,340.667 C 166.993,342.102 165.232,346.256 171.288,347.834 C 173.81,348.289 176.598,348.039 177.913,344.5 C 178.29,342.443 178.788,340.808 176.83,338.792 C 178.85,338.123 179.244,336.42 179.538,334.542 C 179.875,332.731 179.302,329.381 174.913,328.584 C 174.463,328.504 174.013,328.494 173.593,328.494 z M 216.54,329.79 C 216.137,329.775 215.671,329.769 215.207,329.832 C 211.16,330.516 210.619,333.931 210.915,335.748 L 211.957,345.373 C 212.444,348.195 215.176,349.73 217.707,349.332 C 223.169,348.574 222.262,344.146 222.04,342.707 L 219.499,343.04 C 219.877,344.881 219.388,346.665 217.415,346.873 C 216.091,347.031 214.659,346.386 214.29,344.123 L 213.332,335.707 C 213.199,334.566 213.443,332.795 215.707,332.457 C 218.368,332.228 218.332,333.895 218.582,335.29 L 220.874,334.832 C 220.714,331.822 219.354,329.902 216.524,329.792 z M 185.71,329.92 L 179.918,349.045 L 182.335,349.378 L 183.71,345.17 L 189.21,345.712 L 189.793,350.087 L 192.377,350.212 L 189.335,330.128 L 185.705,329.928 z M 207.29,330.25 L 204.665,330.334 L 199.415,338.417 L 199.374,330.459 L 196.54,330.417 L 194.79,333.75 L 197.207,333.709 L 197.249,348.292 H 195.832 L 195.874,350.334 L 200.915,350.375 L 200.957,348.292 L 199.374,348.25 L 199.457,341.5 L 205.54,350.209 H 207.082 L 207.165,352.042 L 209.207,352 L 209.017,347.93 L 206.767,348.055 L 201.35,339.93 L 205.558,333.43 L 207.308,333.347 V 330.257 z M 187.5,332.25 L 188.916,343.459 L 184.326,342.999 L 187.496,332.249 z"
       id="path604"
       style="fill:none;stroke:#000000;stroke-width:0.72000003" />
  </g>
  <use
     transform="matrix(-1,0,0,1,240,0)"
     id="use13"
     x="0"
     y="0"
     width="2000"
     height="1000"
     xlink:href="#use4303" />
  <use
     transform="matrix(1,0,0,-1,0,1000)"
     id="use95"
     x="0"
     y="0"
     width="2000"
     height="1000"
     xlink:href="#use4321" />
  <use
     transform="matrix(-1,0,0,-1,240,1000)"
     id="use97"
     x="0"
     y="0"
     width="2000"
     height="1000"
     xlink:href="#use4303" />
  <use
     transform="matrix(1,0,0,-1,0,1000)"
     id="use99"
     x="0"
     y="0"
     width="2000"
     height="1000"
     xlink:href="#use4303" />
  <use
     transform="matrix(-1,0,0,-1,240,1000)"
     id="use101"
     x="0"
     y="0"
     width="2000"
     height="1000"
     xlink:href="#use4321" />
  <use
     transform="matrix(-1,0,0,-1,240,645.07996)"
     id="use103"
     x="0"
     y="0"
     width="2000"
     height="1000"
     xlink:href="#use4303" />
  <use
     transform="matrix(1,0,0,-1,0,645.07996)"
     id="use105"
     x="0"
     y="0"
     width="2000"
     height="1000"
     xlink:href="#use4303" />
  <use
     transform="matrix(-2.0220238,0,0,-2.0269562,120,322.53998)"
     id="use4303"
     style="fill:#fec50c"
     x="0"
     y="0"
     width="1000"
     height="500"
     xlink:href="#orn" />
  <use
     transform="translate(0,354.92004)"
     id="use108"
     x="0"
     y="0"
     width="2000"
     height="1000"
     xlink:href="#use4303" />
  <use
     transform="matrix(-1,0,0,1,240,354.92004)"
     id="use110"
     x="0"
     y="0"
     width="2000"
     height="1000"
     xlink:href="#use4303" />
  <use
     transform="matrix(-1,0,0,1,240,0)"
     id="use112"
     x="0"
     y="0"
     width="2000"
     height="1000"
     xlink:href="#use4321" />
  <use
     transform="matrix(-2.0220238,0,0,2.0269562,120,145.07997)"
     id="use4321"
     style="fill:#fec50c"
     x="0"
     y="0"
     width="1000"
     height="500"
     xlink:href="#uorn" />
</svg>
