<?xml version="1.0" encoding="UTF-8" standalone="no"?>
<!-- Created with Inkscape (http://www.inkscape.org/) -->
<svg
   xmlns:dc="http://purl.org/dc/elements/1.1/"
   xmlns:cc="http://web.resource.org/cc/"
   xmlns:rdf="http://www.w3.org/1999/02/22-rdf-syntax-ns#"
   xmlns:svg="http://www.w3.org/2000/svg"
   xmlns="http://www.w3.org/2000/svg"
   xmlns:sodipodi="http://sodipodi.sourceforge.net/DTD/sodipodi-0.dtd"
   xmlns:inkscape="http://www.inkscape.org/namespaces/inkscape"
   version="1.0"
   width="432"
   height="216"
   id="svg2"
   sodipodi:version="0.32"
   inkscape:version="0.44"
   sodipodi:docname="Flag_of_Ottawa,_Ontario.svg"
   sodipodi:docbase="C:\Documents and Settings\Zachary\Desktop\My Pictures\SVG">
  <metadata
     id="metadata1920">
    <rdf:RDF>
      <cc:Work
         rdf:about="">
        <dc:format>image/svg+xml</dc:format>
        <dc:type
           rdf:resource="http://purl.org/dc/dcmitype/StillImage" />
      </cc:Work>
    </rdf:RDF>
  </metadata>
  <sodipodi:namedview
     inkscape:window-height="712"
     inkscape:window-width="1024"
     inkscape:pageshadow="2"
     inkscape:pageopacity="0.0"
     guidetolerance="10.0"
     gridtolerance="10.0"
     objecttolerance="10.0"
     borderopacity="1.0"
     bordercolor="#666666"
     pagecolor="#ffffff"
     id="base"
     width="432px"
     height="216px"
     showguides="true"
     inkscape:guide-bbox="true"
     inkscape:zoom="0.73236059"
     inkscape:cx="230.81115"
     inkscape:cy="105.10284"
     inkscape:window-x="-4"
     inkscape:window-y="-4"
     inkscape:current-layer="svg2" />
  <defs
     id="defs5" />
  <rect
     width="432"
     height="216"
     x="0"
     y="0"
     style="fill:#00a78d;fill-opacity:1"
     id="rect6556" />
  <path
     d="M 231.55783,215.90671 C 231.55783,215.90671 143.50491,222.89091 140.72336,104.93428 C 138.60988,15.479477 239.56843,0.023770869 239.56843,0.023770869 L -0.00041878086,-0.27765556 L 0,216 L 231.55783,215.90671 z "
     style="fill:#004890;fill-opacity:1;fill-rule:evenodd;stroke:none;stroke-width:0.30000007;stroke-linecap:butt;stroke-linejoin:miter;stroke-miterlimit:4;stroke-dasharray:none;stroke-opacity:1"
     id="path5681"
     sodipodi:nodetypes="cscccc" />
  <g
     transform="matrix(2.372843,0,0,2.372843,51.50252,0.20701)"
     id="g1896">
    <path
       d="M 79.248183,-0.044981032 C 79.248183,-0.044981032 71.046981,1.485589 67.034768,1.845249 C 63.022556,2.204919 63.199328,1.393679 63.199328,1.393679 C 48.188586,9.5716857 39.679429,23.674065 36.097762,40.013229 C 33.556919,55.308696 38.865994,71.853189 49.684261,80.04856 C 49.684261,80.04856 33.283947,65.079569 41.314528,37.120419 C 46.479053,23.210428 57.062218,12.415277 70.941653,7.090099 C 69.565806,3.027053 76.329741,1.1555506 79.248183,-0.044981032 z "
       style="fill:white;fill-opacity:1;fill-rule:evenodd;stroke:white;stroke-width:0.08428708;stroke-linecap:butt;stroke-linejoin:miter;stroke-miterlimit:4;stroke-dasharray:none;stroke-opacity:1"
       id="path1308" />
    <path
       d="M 38.453466,71.350989 C 30.213282,55.968388 30.212455,37.387569 37.942705,21.841589 C 36.918388,23.314169 32.482118,30.489745 30.061574,29.878609 C 25.44154,44.827444 30.801072,59.00231 38.453466,71.350989 z "
       style="fill:white;fill-opacity:1;fill-rule:evenodd;stroke:white;stroke-width:0.16857414;stroke-linecap:round;stroke-linejoin:miter;stroke-miterlimit:4;stroke-dasharray:none;stroke-opacity:1"
       id="path1310" />
    <path
       d="M 66.602022,16.097389 C 69.940969,14.038054 63.726586,19.848889 62.936301,22.486429 C 62.146021,25.123969 63.752931,26.647559 63.752931,26.647559 C 45.185677,34.573998 41.530331,57.227541 50.310006,73.404029 C 39.826514,60.080706 41.177814,44.220207 49.580513,30.723769 C 55.387554,21.396483 63.263075,18.156724 66.602022,16.097389 z "
       style="fill:white;fill-opacity:1;fill-rule:evenodd;stroke:white;stroke-width:0.04214355;stroke-linecap:butt;stroke-linejoin:miter;marker-start:none;marker-mid:none;stroke-miterlimit:4;stroke-dasharray:none;stroke-opacity:1"
       id="path1312" />
    <path
       d="M 53.59001,83.928719 C 52.994119,83.585099 59.890795,88.874249 66.608829,90.063069 C 91.290863,94.430789 111.23967,81.548897 110.31488,55.339879 C 109.48109,31.709767 76.645862,18.811702 59.700673,34.703459 C 41.617586,51.662375 49.592613,82.179394 75.415436,84.847389 C 47.348147,80.740596 44.07782,39.227248 71.798509,32.755829 C 103.31782,29.375769 112.64012,66.720808 90.75886,83.478229 C 81.205019,90.794888 65.319418,90.692329 53.59001,83.928719 z "
       style="fill:white;fill-opacity:1;fill-rule:evenodd;stroke:white;stroke-width:0.08428708;stroke-linecap:butt;stroke-linejoin:miter;stroke-miterlimit:4;stroke-dasharray:none;stroke-opacity:1"
       id="path1314" />
  </g>
</svg>
