<?xml version="1.0" encoding="utf-8"?>
<!-- Generator: Adobe Illustrator 16.0.0, SVG Export Plug-In . SVG Version: 6.00 Build 0)  -->
<!DOCTYPE svg PUBLIC "-//W3C//DTD SVG 1.1//EN" "http://www.w3.org/Graphics/SVG/1.1/DTD/svg11.dtd">
<svg version="1.1"
	 id="svg2" inkscape:version="0.48.2 r9819" sodipodi:version="0.32" sodipodi:docname="AJAX1.svg" xmlns:inkscape="http://www.inkscape.org/namespaces/inkscape" xmlns:sodipodi="http://sodipodi.sourceforge.net/DTD/sodipodi-0.dtd" xmlns:dc="http://purl.org/dc/elements/1.1/" xmlns:cc="http://creativecommons.org/ns#" xmlns:rdf="http://www.w3.org/1999/02/22-rdf-syntax-ns#" xmlns:svg="http://www.w3.org/2000/svg"
	 xmlns="http://www.w3.org/2000/svg" xmlns:xlink="http://www.w3.org/1999/xlink" x="0px" y="0px" width="1000px" height="500px"
	 viewBox="0 0 1000 500" enable-background="new 0 0 1000 500" xml:space="preserve">
<sodipodi:namedview  inkscape:grid-points="false" inkscape:grid-bbox="false" inkscape:window-maximized="1" inkscape:pageshadow="2" inkscape:pageopacity="0.0" inkscape:window-y="-8" inkscape:guide-bbox="true" inkscape:window-height="1004" inkscape:window-x="-8" inkscape:window-width="1280" inkscape:document-units="px" fit-margin-right="0" inkscape:current-layer="svg2" fit-margin-bottom="0" gridtolerance="25px" id="base" inkscape:cx="406.19746" borderopacity="1.0" inkscape:zoom="0.67208904" bordercolor="#666666" fit-margin-top="0" inkscape:cy="211.53824" fit-margin-left="0" showguides="true" showgrid="false" pagecolor="#ffffff">
	
		<inkscape:grid  type="xygrid" color="#0000ff" snapvisiblegridlinesonly="true" visible="true" enabled="true" spacingy="100px" originy="0px" opacity="0.2" empcolor="#0000ff" empspacing="5" spacingx="100px" originx="0px" empopacity="0.4" id="GridFromPre046Settings">
		</inkscape:grid>
</sodipodi:namedview>
<path id="path4861" sodipodi:nodetypes="ccccc" inkscape:connector-curvature="0" fill="#002369" d="M1000,0v500H0V0H1000z"/>
<rect id="rect1320" x="0" fill="none" width="1000" height="500"/>
<g id="g1690">
	<rect id="rect3207" x="0" fill="#002369" width="500" height="250"/>
	<g id="g878" transform="matrix(8.333338,0,0,8.333343,0,-2.256992e-4)">
		<path id="path879" inkscape:connector-curvature="0" fill="#FFFFFF" d="M0,0v3.354L53.292,30H60v-3.354L6.708,0H0z M60,0v3.354
			L6.708,30H0v-3.354L53.292,0H60z"/>
		<path id="path880" inkscape:connector-curvature="0" fill="#FFFFFF" d="M25,0v30h10V0H25z M0,10v10h60V10H0z"/>
		<path id="path881" inkscape:connector-curvature="0" fill="#CE1126" d="M0,12v6h60v-6H0z M27,0v30h6V0H27z"/>
		<path id="path882" inkscape:connector-curvature="0" fill="#CE1126" d="M0,30l20-10h4.472l-20,10H0z M0,0l20,10h-4.472L0,2.236V0z
			 M35.528,10l20-10H60L40,10H35.528z M60,30L40,20h4.472L60,27.764V30z"/>
	</g>
</g>
<g id="g4063" transform="translate(-0.23327,20.51668)">
</g>
<circle fill="#4B6FA3" cx="748.729" cy="249.533" r="101.007"/>
<path fill="#336633" d="M657.591,283.573h183.741C841.332,283.573,757.349,432.957,657.591,283.573z"/>
<path fill="#C8A58D" stroke="#000000" stroke-miterlimit="10" d="M780.679,258.934c-3.845-19.795-18.468-34.526-35.92-34.526
	s-32.073,14.731-35.919,34.526H780.679z"/>
<path fill="#AA8871" d="M752.013,258.038c0,0-0.639-23.274-9.572-33.631l10.697,1.06c0,0,14.78,5.207,22.68,32.571H752.013z"/>
<polygon fill="#C8A58D" stroke="#000000" stroke-miterlimit="10" points="744.354,202.947 750.508,202.947 747.431,185.055 
	744.354,167.162 741.278,185.055 738.202,202.947 "/>
<path fill="#AA8871" d="M744.521,199.575l0.612-20.118l2.557,19.933C747.69,199.39,746.411,199.383,744.521,199.575z"/>
<line fill="none" stroke="#000000" stroke-miterlimit="10" x1="741.71" y1="182.546" x2="743.589" y2="182.546"/>
<line fill="none" stroke="#000000" stroke-miterlimit="10" x1="741.063" y1="186.306" x2="743.844" y2="186.306"/>
<line fill="none" stroke="#000000" stroke-miterlimit="10" x1="740.365" y1="190.366" x2="743.589" y2="190.366"/>
<line fill="none" stroke="#000000" stroke-miterlimit="10" x1="741.426" y1="184.199" x2="742.65" y2="184.199"/>
<line fill="none" stroke="#000000" stroke-miterlimit="10" x1="740.744" y1="188.161" x2="742.453" y2="188.161"/>
<rect x="738.202" y="204.324" fill="#C8A58D" stroke="#000000" stroke-miterlimit="10" width="12.306" height="8.378"/>
<rect x="733.633" y="213.301" fill="#C8A58D" stroke="#000000" stroke-miterlimit="10" width="22.081" height="10.319"/>
<path fill="#C8A58D" stroke="#000000" stroke-miterlimit="10" d="M737.462,202.947c0,0-1.839,1.518,0.74,2.316
	c0,0,5.813-0.958,12.875,0c0,0,2.382-0.961,0.426-2.316C751.503,202.947,744.61,201.03,737.462,202.947z"/>
<path fill="#AA8871" d="M745.12,202.648c0,0,0.639,1.316,0,1.616c0,0,3.447-0.239,5.743,0.359c0,0,1.341-0.718,0-1.256
	C749.525,202.828,747.865,202.589,745.12,202.648z"/>
<path fill="#C8A58D" stroke="#000000" stroke-miterlimit="10" d="M732.425,211.45c0,0-3.146,2.596,1.266,3.961
	c0,0,9.943-1.638,22.024,0c0,0,4.074-1.644,0.728-3.961C756.443,211.45,744.653,208.171,732.425,211.45z"/>
<path fill="#AA8871" d="M745.526,210.938c0,0,1.093,2.252,0,2.764c0,0,5.895-0.409,9.825,0.614c0,0,2.293-1.229,0-2.15
	S750.221,210.836,745.526,210.938z"/>
<path fill="#C8A58D" stroke="#000000" stroke-miterlimit="10" d="M732.425,222.449c0,0-3.146,2.596,1.266,3.961
	c0,0,9.943-1.637,22.024,0c0,0,4.074-1.644,0.728-3.961C756.443,222.449,744.653,219.171,732.425,222.449z"/>
<path fill="#AA8871" d="M745.526,221.938c0,0,1.093,2.252,0,2.764c0,0,5.895-0.41,9.825,0.614c0,0,2.293-1.229,0-2.149
	C753.058,222.245,750.221,221.835,745.526,221.938z"/>
<rect x="746.406" y="216.375" transform="matrix(0.9989 0.0466 -0.0466 0.9989 10.9803 -34.5812)" fill="#AA8871" stroke="#000000" stroke-miterlimit="10" width="2.233" height="3.89"/>
<rect x="749.39" y="216.515" transform="matrix(0.9989 0.047 -0.047 0.9989 11.1007 -35.0431)" fill="#AA8871" stroke="#000000" stroke-miterlimit="10" width="2.233" height="3.89"/>
<rect x="752.374" y="216.655" transform="matrix(0.9989 0.047 -0.047 0.9989 11.1053 -35.168)" fill="#AA8871" stroke="#000000" stroke-miterlimit="10" width="2.234" height="3.889"/>
<g>
	<rect x="710.276" y="261.517" fill="#C8A58D" width="70.584" height="4.75"/>
	<rect x="724.345" y="261.517" fill="#AA8871" width="53.085" height="4.75"/>
	<rect x="710.276" y="261.517" fill="none" stroke="#000000" stroke-miterlimit="10" width="70.584" height="4.75"/>
</g>
<g>
	<rect x="707.467" y="257.53" fill="#C8A58D" width="76.2" height="4.75"/>
	<rect x="722.656" y="257.53" fill="#AA8871" width="57.31" height="4.75"/>
	<rect x="707.467" y="257.53" fill="none" stroke="#000000" stroke-miterlimit="10" width="76.2" height="4.75"/>
</g>
<g>
	<rect x="707.467" y="265.784" fill="#C8A58D" width="76.2" height="4.751"/>
	<rect x="722.656" y="265.784" fill="#AA8871" width="57.31" height="4.751"/>
	<rect x="707.467" y="265.784" fill="none" stroke="#000000" stroke-miterlimit="10" width="76.2" height="4.751"/>
</g>
<g>
	<rect x="708.924" y="270.535" fill="#C8A58D" width="73.287" height="4.751"/>
	<rect x="723.532" y="270.535" fill="#AA8871" width="55.118" height="4.751"/>
	<rect x="708.924" y="270.535" fill="none" stroke="#000000" stroke-miterlimit="10" width="73.287" height="4.751"/>
</g>
<g>
	<rect x="708.924" y="275.286" fill="#C8A58D" width="73.287" height="4.752"/>
	<rect x="723.532" y="275.286" fill="#AA8871" width="55.118" height="4.752"/>
	<rect x="708.924" y="275.286" fill="none" stroke="#000000" stroke-miterlimit="10" width="73.287" height="4.752"/>
</g>
<g>
	<rect x="703.553" y="280.038" fill="#C8A58D" width="84.028" height="4.752"/>
	<rect x="720.303" y="280.038" fill="#AA8871" width="63.198" height="4.752"/>
	<rect x="703.553" y="280.038" fill="none" stroke="#000000" stroke-miterlimit="10" width="84.028" height="4.752"/>
</g>
<g>
	<rect x="695.555" y="289.541" fill="#C8A58D" width="100.025" height="4.751"/>
	<rect x="715.492" y="289.541" fill="#AA8871" width="75.229" height="4.751"/>
	<rect x="695.555" y="289.541" fill="none" stroke="#000000" stroke-miterlimit="10" width="100.025" height="4.751"/>
</g>
<g>
	<rect x="690.363" y="294.292" fill="#C8A58D" width="110.409" height="9.4"/>
	<rect x="712.37" y="294.292" fill="#AA8871" width="83.039" height="9.4"/>
	<rect x="690.363" y="294.292" fill="none" stroke="#000000" stroke-miterlimit="10" width="110.409" height="9.4"/>
</g>
<g>
	<rect x="699.469" y="284.79" fill="#C8A58D" width="92.197" height="4.751"/>
	<rect x="717.847" y="284.79" fill="#AA8871" width="69.341" height="4.751"/>
	<rect x="699.469" y="284.79" fill="none" stroke="#000000" stroke-miterlimit="10" width="92.197" height="4.751"/>
</g>
<path fill="#CC9933" stroke="#000000" stroke-miterlimit="10" d="M749.46,151.582c-54.097,0-97.95,43.854-97.95,97.95
	c0,54.096,43.854,97.95,97.95,97.95c54.096,0,97.95-43.854,97.95-97.95C847.41,195.436,803.556,151.582,749.46,151.582z
	 M749.46,339.646c-49.769,0-90.114-40.346-90.114-90.114s40.346-90.114,90.114-90.114s90.114,40.346,90.114,90.114
	S799.229,339.646,749.46,339.646z"/>
<path fill="#B71C1C" stroke="#000000" stroke-miterlimit="10" d="M749.46,134.296c-63.644,0-115.234,51.593-115.234,115.236
	s51.591,115.235,115.234,115.235s115.234-51.593,115.234-115.235S813.104,134.296,749.46,134.296z M749.46,347.482
	c-54.097,0-97.95-43.854-97.95-97.95c0-54.096,43.854-97.95,97.95-97.95c54.096,0,97.95,43.854,97.95,97.95
	C847.41,303.628,803.556,347.482,749.46,347.482z"/>
<path fill="#CC9933" stroke="#000000" stroke-miterlimit="10" d="M749.46,124.277c-69.177,0-125.256,56.079-125.256,125.255
	c0,69.178,56.079,125.257,125.256,125.257s125.257-56.079,125.257-125.257C874.717,180.355,818.637,124.277,749.46,124.277z
	 M749.46,364.768c-63.644,0-115.234-51.593-115.234-115.235s51.591-115.236,115.234-115.236s115.234,51.593,115.234,115.236
	S813.104,364.768,749.46,364.768z"/>
<g>
	<path fill="#6C6645" d="M749.277,254.851c0,0-18.72-19.742-27.229,16.848c-8.51,36.589,3.743,36.249,5.275,36.42
		c0,0,6.468,0.34,5.447-6.637c0,0-1.73-2.344-1.874,1.7c0,0-5.956,8.68-6.295-7.148c0,0,1.19-14.636,14.636-12.763
		c0,0,4.424,22.804-2.214,32.676c0,0,7.148,5.104,10.893-2.554c0,0,6.297,2.894,9.53-1.871c0,0,1.871-15.657,3.403-19.23
		c0,0,16.169,1.701,20.082-0.511c0,0,3.574,6.298,7.318,9.02c0,0,2.893,9.02,0.852,11.571c0,0-0.852,2.043,3.743,1.874
		c0,0,6.126,5.445,10.381,0.85c0,0-2.042-21.102,0.851-27.06c0,0,2.894-28.079-23.145-33.016
		C780.931,255.02,767.316,253.148,749.277,254.851z"/>
	<path fill="#494328" d="M752.34,285.481c0,0-2.213,6.637-4.425,7.487C747.915,292.969,755.405,292.8,752.34,285.481z"/>
	<path fill="#494328" d="M781.951,279.015c0,0-0.34,13.104,14.296,19.57c0,0,2.553,0.702-0.851-2.371
		c0,0-10.211-8.521-11.232-15.668C784.164,280.546,782.122,274.078,781.951,279.015z"/>
	<path fill="#494328" d="M727.493,262.335c0,0-1.532,0.341,0,2.384c0,0-1.872,1.872-0.34,3.063c0,0,1.02-2.554,2.722-2.724
		C729.875,265.059,733.959,261.825,727.493,262.335z"/>
	<path fill="#494328" d="M754.935,265.762c0.383-10.53-11.87-12.827-14.295-12.827c0,0-3.446,0.639-2.681,6.127
		c0,0,2.298,19.527-12.636,22.719c0,0-4.724,5.233-2.17,19.784c0,0,1.276,7.021,7.021,4.021c0,0,2.296-1.468,1.723-4.402
		l0.172-0.309c-0.498-0.226-1.092,0.011-1.173,2.308c0,0-5.956,8.68-6.295-7.148c0,0,1.19-14.636,14.636-12.763
		c0,0,0.42,2.168,0.806,5.454l0.79-0.818C740.832,287.906,754.552,276.293,754.935,265.762z M741.98,277.505
		c5.041-1.852,6.317-7.275,6.317-7.275c2.937-6.638-5.487-11.871-5.487-11.871c-5.105-5.743,1.595-2.488,1.595-2.488
		c18.125,11.424,1.915,22.337,1.915,22.337C738.086,280.313,741.98,277.505,741.98,277.505z"/>
	<path fill="#494328" d="M794.164,308.19c0.029,0.068,0.058,0.138,0.083,0.203v-7.723c0,0-11.998-4.595-15.379-22.018
		c0,0-8.298,5.234-21.892,6.19c0,0,1.086,3.446-2.042,7.212c0,0,1.063,16.56,0.203,20.293l-0.163,0.489
		c-0.013,0.028-0.026,0.064-0.04,0.087c0,0,0.011-0.005,0.013-0.007l-0.294,0.88c1.023-0.404,2-1.109,2.792-2.276
		c0,0,1.871-15.657,3.403-19.23c0,0,16.169,1.701,20.082-0.511c0,0,3.574,6.298,7.318,9.02c0,0,1.42,4.436,1.566,7.965
		L794.164,308.19L794.164,308.19z"/>
	<path fill="none" stroke="#000000" stroke-miterlimit="10" d="M749.277,254.851c0,0-18.72-19.742-27.229,16.848
		c-8.51,36.589,3.743,36.249,5.275,36.42c0,0,6.468,0.34,5.447-6.637c0,0-1.73-2.344-1.874,1.7c0,0-5.956,8.68-6.295-7.148
		c0,0,1.19-14.636,14.636-12.763c0,0,4.424,22.804-2.214,32.676c0,0,7.148,5.104,10.893-2.554c0,0,6.297,2.894,9.53-1.871
		c0,0,1.871-15.657,3.403-19.23c0,0,16.169,1.701,20.082-0.511c0,0,3.574,6.298,7.318,9.02c0,0,2.893,9.02,0.852,11.571
		c0,0-0.852,2.043,3.743,1.874c0,0,6.126,5.445,10.381,0.85c0,0-2.042-21.102,0.851-27.06c0,0,2.894-28.079-23.145-33.016
		C780.931,255.02,767.316,253.148,749.277,254.851z"/>
	<path fill="none" stroke="#000000" stroke-miterlimit="10" d="M747.915,313.393c0,0,1.306-9.753,1.148-15.146
		c0,0,9.445-7.212,7.913-13.403"/>
	<path fill="none" stroke="#000000" stroke-miterlimit="10" d="M778.74,275.91c0,0,0.191,16.273,15.508,24.761
		c0,0,0.447,11.574-1.403,13.574"/>
	<path fill="#6C6645" stroke="#000000" stroke-miterlimit="10" d="M730.21,274.852c-1.763,1.735-7.708,6.654-21.642,10.625
		c0,0,13.315,0.478,24.44-7.666"/>
</g>
<polygon fill="#CC9933" stroke="#000000" stroke-miterlimit="10" points="858.803,246.766 863.313,249.233 858.803,251.7 
	856.336,256.21 853.869,251.7 849.359,249.233 853.869,246.766 856.336,242.255 "/>
<polygon fill="#CC9933" stroke="#000000" stroke-miterlimit="10" points="849.365,205.145 854.475,205.698 851.252,209.703 
	850.698,214.814 846.694,211.591 841.582,211.038 844.806,207.033 845.36,201.921 "/>
<polygon fill="#CC9933" stroke="#000000" stroke-miterlimit="10" points="824.716,170.304 829.649,168.859 828.204,173.792 
	829.649,178.727 824.715,177.281 819.781,178.727 821.226,173.792 819.781,168.859 "/>
<polygon fill="#CC9933" stroke="#000000" stroke-miterlimit="10" points="788.611,147.547 792.615,144.325 793.169,149.436 
	796.391,153.441 791.281,153.995 787.276,157.217 786.722,152.106 783.499,148.101 "/>
<polygon fill="#CC9933" stroke="#000000" stroke-miterlimit="10" points="746.544,140.339 749.012,135.83 751.479,140.341 
	755.99,142.808 751.479,145.274 749.012,149.785 746.544,145.274 742.033,142.808 "/>
<polygon fill="#CC9933" stroke="#000000" stroke-miterlimit="10" points="704.923,149.779 705.477,144.668 709.483,147.892 
	714.594,148.445 711.37,152.45 710.818,157.561 706.812,154.338 701.7,153.785 "/>
<polygon fill="#CC9933" stroke="#000000" stroke-miterlimit="10" points="670.082,174.427 668.637,169.494 673.572,170.939 
	678.505,169.494 677.06,174.429 678.505,179.361 673.571,177.917 668.637,179.362 "/>
<polygon fill="#CC9933" stroke="#000000" stroke-miterlimit="10" points="647.325,210.533 644.104,206.528 649.215,205.975 
	653.22,202.752 653.773,207.863 656.996,211.868 651.884,212.421 647.879,215.645 "/>
<polygon fill="#CC9933" stroke="#000000" stroke-miterlimit="10" points="640.118,252.599 635.609,250.131 640.119,247.665 
	642.587,243.154 645.053,247.665 649.563,250.131 645.052,252.599 642.586,257.109 "/>
<polygon fill="#CC9933" stroke="#000000" stroke-miterlimit="10" points="649.556,294.221 644.447,293.666 647.671,289.661 
	648.224,284.55 652.23,287.772 657.339,288.326 654.116,292.332 653.563,297.443 "/>
<polygon fill="#CC9933" stroke="#000000" stroke-miterlimit="10" points="674.205,329.061 669.273,330.506 670.718,325.571 
	669.273,320.638 674.207,322.082 679.14,320.638 677.696,325.572 679.142,330.506 "/>
<polygon fill="#CC9933" stroke="#000000" stroke-miterlimit="10" points="710.311,351.818 706.307,355.041 705.753,349.93 
	702.531,345.924 707.642,345.371 711.647,342.146 712.199,347.26 715.423,351.264 "/>
<polygon fill="#CC9933" stroke="#000000" stroke-miterlimit="10" points="752.376,359.025 749.91,363.535 747.444,359.023 
	742.932,356.559 747.444,354.09 749.909,349.58 752.376,354.092 756.888,356.559 "/>
<polygon fill="#CC9933" stroke="#000000" stroke-miterlimit="10" points="793.999,349.588 793.446,354.697 789.44,351.473 
	784.328,350.92 787.552,346.914 788.105,341.805 792.111,345.029 797.221,345.58 "/>
<polygon fill="#CC9933" stroke="#000000" stroke-miterlimit="10" points="828.84,324.938 830.284,329.871 825.35,328.426 
	820.416,329.871 821.861,324.936 820.415,320.004 825.35,321.448 830.283,320.002 "/>
<polygon fill="#CC9933" stroke="#000000" stroke-miterlimit="10" points="851.597,288.834 854.819,292.837 849.707,293.39 
	845.701,296.613 845.149,291.501 841.925,287.496 847.037,286.943 851.042,283.72 "/>
<circle fill="#CC9933" stroke="#000000" stroke-miterlimit="10" cx="854.474" cy="227.79" r="4.244"/>
<circle fill="#CC9933" stroke="#000000" stroke-miterlimit="10" cx="838.104" cy="189.269" r="4.243"/>
<circle fill="#CC9933" stroke="#000000" stroke-miterlimit="10" cx="808.237" cy="159.946" r="4.244"/>
<circle fill="#CC9933" stroke="#000000" stroke-miterlimit="10" cx="769.423" cy="144.284" r="4.243"/>
<circle fill="#CC9933" stroke="#000000" stroke-miterlimit="10" cx="727.569" cy="144.669" r="4.243"/>
<circle fill="#CC9933" stroke="#000000" stroke-miterlimit="10" cx="689.049" cy="161.04" r="4.244"/>
<circle fill="#CC9933" stroke="#000000" stroke-miterlimit="10" cx="659.725" cy="190.907" r="4.243"/>
<circle fill="#CC9933" stroke="#000000" stroke-miterlimit="10" cx="644.063" cy="229.721" r="4.244"/>
<circle fill="#CC9933" stroke="#000000" stroke-miterlimit="10" cx="644.447" cy="271.574" r="4.244"/>
<path fill="#CC9933" stroke="#000000" stroke-miterlimit="10" d="M656.898,311.718c-0.896-2.163,0.132-4.646,2.297-5.543
	s4.647,0.131,5.545,2.296c0.897,2.168-0.132,4.649-2.296,5.546C660.278,314.913,657.796,313.884,656.898,311.718z"/>
<circle fill="#CC9933" stroke="#000000" stroke-miterlimit="10" cx="690.685" cy="339.419" r="4.244"/>
<path fill="#CC9933" stroke="#000000" stroke-miterlimit="10" d="M727.875,359c-2.163-0.896-3.192-3.377-2.298-5.545
	c0.898-2.164,3.381-3.193,5.546-2.295c2.166,0.898,3.194,3.381,2.298,5.543C732.525,358.869,730.041,359.896,727.875,359z"/>
<path fill="#CC9933" stroke="#000000" stroke-miterlimit="10" d="M771.353,358.939c-2.342,0-4.243-1.898-4.246-4.242
	c0.003-2.344,1.902-4.244,4.247-4.242c2.344,0,4.244,1.898,4.244,4.242S773.698,358.939,771.353,358.939z"/>
<path fill="#CC9933" stroke="#000000" stroke-miterlimit="10" d="M811.497,342.246c-2.163,0.896-4.646-0.131-5.546-2.297
	c-0.895-2.166,0.132-4.646,2.299-5.545c2.166-0.896,4.648,0.131,5.545,2.297C814.692,338.865,813.662,341.348,811.497,342.246z"/>
<circle fill="#CC9933" stroke="#000000" stroke-miterlimit="10" cx="839.198" cy="308.458" r="4.243"/>
<path fill="#CC9933" stroke="#000000" stroke-miterlimit="10" d="M858.78,271.269c-0.896,2.162-3.378,3.193-5.546,2.296
	c-2.163-0.896-3.193-3.379-2.295-5.545c0.896-2.166,3.379-3.194,5.544-2.298C858.649,266.618,859.676,269.103,858.78,271.269z"/>
</svg>
