<?xml version="1.0" encoding="UTF-8" standalone="no"?>
<!-- Created with Inkscape (http://www.inkscape.org/) -->
<svg
   xmlns:dc="http://purl.org/dc/elements/1.1/"
   xmlns:cc="http://web.resource.org/cc/"
   xmlns:rdf="http://www.w3.org/1999/02/22-rdf-syntax-ns#"
   xmlns:svg="http://www.w3.org/2000/svg"
   xmlns="http://www.w3.org/2000/svg"
   xmlns:sodipodi="http://sodipodi.sourceforge.net/DTD/sodipodi-0.dtd"
   xmlns:inkscape="http://www.inkscape.org/namespaces/inkscape"
   id="svg2"
   sodipodi:version="0.32"
   inkscape:version="0.44"
   width="390"
   height="216"
   version="1.0"
   sodipodi:docbase="C:\Documents and Settings\Zachary\Desktop\Zach"
   sodipodi:docname="sri lanka previous flag.svg">
  <metadata
     id="metadata7">
    <rdf:RDF>
      <cc:Work
         rdf:about="">
        <dc:format>image/svg+xml</dc:format>
        <dc:type
           rdf:resource="http://purl.org/dc/dcmitype/StillImage" />
      </cc:Work>
    </rdf:RDF>
  </metadata>
  <defs
     id="defs5" />
  <sodipodi:namedview
     inkscape:window-height="573"
     inkscape:window-width="853"
     inkscape:pageshadow="2"
     inkscape:pageopacity="0.0"
     guidetolerance="10.0"
     gridtolerance="10.0"
     objecttolerance="10.0"
     borderopacity="1.0"
     bordercolor="#666666"
     pagecolor="#ffffff"
     id="base"
     inkscape:zoom="1.3227434"
     inkscape:cx="91.569989"
     inkscape:cy="103.44272"
     inkscape:window-x="44"
     inkscape:window-y="58"
     inkscape:current-layer="svg2" />
  <rect
     y="0"
     x="0"
     width="390"
     style="font-size:12px;fill:#ffce00;fill-opacity:1;fill-rule:evenodd;stroke-width:1pt"
     id="rect3701"
     height="216" />
  <rect
     height="172.00006"
     id="rect627"
     style="font-size:12px;fill:#9c1e3d;fill-opacity:1;fill-rule:evenodd;stroke:black;stroke-width:3.99999118;stroke-miterlimit:4;stroke-dasharray:none;stroke-opacity:1"
     width="344.00006"
     x="22.99999"
     y="22.000004" />
  <path
     style="fill:#ffce00;fill-opacity:1;fill-rule:evenodd;stroke:black;stroke-width:1px;stroke-linecap:butt;stroke-linejoin:miter;stroke-opacity:1"
     d="M 40.679045,33.803714 C 40.679045,33.803714 38.387268,30.151194 36.095491,28.933687 C 33.803714,27.71618 31.511936,28.933687 31.511936,28.933687 C 31.511936,28.933687 30.437665,31.583554 31.798408,33.517241 C 33.159151,35.450928 36.954907,36.668435 36.954907,36.668435 C 38.506824,41.052728 41.163969,43.594976 44.689655,44.689655 C 46.046872,47.370036 46.657752,50.410718 54.143236,50.132626 C 54.99321,45.840102 53.903337,42.484056 48.413793,41.251989 C 47.07955,37.152023 44.19814,35.063373 40.679045,33.803714 z "
     id="path1873"
     sodipodi:nodetypes="cscsccccc" />
  <path
     sodipodi:nodetypes="cscsccccc"
     id="path1896"
     d="M 40.679045,180.43886 C 40.679045,180.43886 38.387268,184.09138 36.095491,185.30889 C 33.803714,186.52639 31.511936,185.30889 31.511936,185.30889 C 31.511936,185.30889 30.437665,182.65902 31.798408,180.72533 C 33.159151,178.79164 36.954907,177.57414 36.954907,177.57414 C 38.506824,173.18984 41.163969,170.6476 44.689655,169.55292 C 46.046872,166.87254 46.657752,163.83185 54.143236,164.10995 C 54.99321,168.40247 53.903337,171.75852 48.413793,172.99058 C 47.07955,177.09055 44.19814,179.1792 40.679045,180.43886 z "
     style="fill:#ffce00;fill-opacity:1;fill-rule:evenodd;stroke:black;stroke-width:1px;stroke-linecap:butt;stroke-linejoin:miter;stroke-opacity:1" />
  <path
     style="fill:#ffce00;fill-opacity:1;fill-rule:evenodd;stroke:black;stroke-width:1px;stroke-linecap:butt;stroke-linejoin:miter;stroke-opacity:1"
     d="M 350.8309,180.43886 C 350.8309,180.43886 353.12268,184.09138 355.41445,185.30889 C 357.70623,186.52639 359.99801,185.30889 359.99801,185.30889 C 359.99801,185.30889 361.07228,182.65902 359.71154,180.72533 C 358.35079,178.79164 354.55504,177.57414 354.55504,177.57414 C 353.00312,173.18984 350.34597,170.6476 346.82029,169.55292 C 345.46307,166.87254 344.85219,163.83185 337.36671,164.10995 C 336.51673,168.40247 337.60661,171.75852 343.09615,172.99058 C 344.43039,177.09055 347.3118,179.1792 350.8309,180.43886 z "
     id="path1898"
     sodipodi:nodetypes="cscsccccc" />
  <path
     sodipodi:nodetypes="cscsccccc"
     id="path1900"
     d="M 350.8309,33.803332 C 350.8309,33.803332 353.12268,30.150812 355.41445,28.933302 C 357.70623,27.715802 359.99801,28.933302 359.99801,28.933302 C 359.99801,28.933302 361.07228,31.583172 359.71154,33.516862 C 358.35079,35.450552 354.55504,36.668052 354.55504,36.668052 C 353.00312,41.052352 350.34597,43.594592 346.82029,44.689272 C 345.46307,47.369652 344.85219,50.410342 337.36671,50.132242 C 336.51673,45.839722 337.60661,42.483672 343.09615,41.251612 C 344.43039,37.151642 347.3118,35.062992 350.8309,33.803332 z "
     style="fill:#ffce00;fill-opacity:1;fill-rule:evenodd;stroke:black;stroke-width:1px;stroke-linecap:butt;stroke-linejoin:miter;stroke-opacity:1" />
  <g
     id="g1917"
     transform="matrix(0.504584,0,0,0.504584,-147.34,-16.82949)">
    <path
       d="M 620.17076,234.56749 L 628.39897,234.77812 C 628.39897,234.77812 619.11764,242.58276 621.22619,253.13014 C 630.93108,238.78691 634.51631,241.52733 634.51631,241.52733 C 631.56295,244.69131 625.86686,249.12135 630.29689,258.82624 C 634.09506,248.91073 641.89971,241.3167 641.89971,241.3167 C 641.89971,241.3167 639.78884,252.28533 644.42951,262.41147 C 647.80411,252.28533 653.50021,243.63819 653.50021,243.63819 C 653.50021,243.63819 652.65771,254.60682 657.509,258.6133 C 661.30485,255.23869 663.83697,246.58924 663.83697,246.58924 C 663.83697,246.58924 671.00974,259.24749 675.43978,261.14541 C 679.02501,252.49596 679.02501,245.74674 679.02501,245.74674 C 679.02501,245.74674 693.79181,256.29413 705.60293,250.17678 C 695.05555,246.38093 691.47032,237.52085 691.47032,237.52085 C 691.47032,237.52085 710.66715,245.95737 718.89305,242.16151 C 710.87546,236.04186 692.1045,226.97278 692.1045,226.97278 C 692.1045,226.97278 706.02649,232.03538 710.03297,230.76979 C 708.13504,228.02751 702.0177,224.65221 702.0177,224.65221"
       id="path579"
       style="fill:#ffce00;fill-opacity:1;fill-rule:evenodd;stroke:#9c1e3d;stroke-width:4.58701744pt;stroke-linecap:round;stroke-linejoin:round;stroke-opacity:1" />
    <path
       d="M 735.37724,131.65125 C 760.81409,129.3367 800.11506,150.12132 820.94597,163.98544 C 820.94597,159.35635 820.94597,154.75041 825.55191,152.43586 C 830.181,150.12132 837.12464,154.75041 834.81009,161.6709 C 827.86646,177.82642 800.11506,159.35635 790.88003,154.75041 C 790.88003,154.75041 795.50912,163.98544 795.50912,163.98544 C 781.62185,161.6709 779.3073,159.35635 770.07227,147.80677 C 767.75772,157.04181 767.75772,159.35635 756.185,159.35635 C 760.53634,152.5053 761.9945,150.2139 756.185,143.20083 C 756.185,143.20083 753.87045,157.04181 753.87045,157.04181 C 753.87045,157.04181 742.32087,140.88628 742.32087,140.88628 C 742.32087,140.88628 742.32087,157.04181 742.32087,157.04181 C 740.00633,154.75041 730.74815,147.80677 726.11906,147.80677 C 719.19857,145.49223 714.56948,159.35635 712.25493,166.29999 C 719.19857,159.35635 721.48997,154.75041 733.06269,159.35635 C 726.79028,165.28159 728.61877,172.38724 735.37724,177.82642 C 735.37724,177.82642 736.5808,168.22106 737.32146,166.02224 C 741.00158,168.77655 748.8016,179.12257 758.49954,180.14097 C 765.44318,180.14097 772.38681,177.82642 779.3073,175.53502 C 802.42961,173.22048 853.30331,177.82642 841.75373,212.47516 C 839.43918,219.41879 837.12464,224.02474 832.49555,228.65383 C 864.87603,240.20341 837.12464,281.77264 830.181,302.55725 C 825.55191,321.02732 828.76913,335.74783 851.5674,333.36384 C 846.96145,342.59888 839.43918,344.12648 830.181,344.12648 C 830.181,344.12648 831.33827,349.68139 837.28665,352.29682 C 827.40355,361.16153 840.71218,374.44702 834.81009,381.08976 C 824.85755,385.85773 811.68779,378.77522 811.68779,378.77522 C 811.68779,378.77522 811.03971,385.32538 811.03971,385.32538 C 811.03971,385.32538 793.5649,384.12182 793.19457,383.38116 C 793.19457,383.38116 798.17084,374.07669 797.80052,373.89153 C 793.17143,380.81202 788.75065,384.86247 779.3073,383.38116 C 779.3073,383.38116 780.04796,379.02982 785.20939,373.5212 C 778.19632,380.51113 777.43252,383.56633 770.07227,383.38116 C 770.07227,371.83158 776.99276,357.9906 790.88003,362.59655 C 793.19457,362.59655 800.48539,368.33662 803.91091,364.63335 C 806.68837,360.65233 805.04504,347.18168 805.04504,342.55259 C 806.50321,322.1383 802.42961,323.34187 790.88003,311.79229 C 781.62185,304.8718 774.85875,294.26192 763.30917,291.94738 C 751.73644,289.63283 733.06269,302.55725 723.80451,307.1632 C 700.68221,321.02732 679.87445,330.26235 654.4376,334.89144 C 654.4376,334.89144 654.93986,333.71103 654.93986,331.40111 C 654.93986,329.84342 679.90685,310.4105 684.2744,276.29179 C 677.43955,309.96611 653.1646,327.7557 652.25035,334.01192 C 651.33842,340.27045 646.38067,350.94744 645.77889,351.64644 C 648.78085,349.84572 658.41167,345.12636 670.61627,344.12648 C 667.98463,358.59007 654.4376,355.67606 652.12305,362.59655 C 652.12305,369.54018 661.38123,378.77522 652.12305,383.38116 C 652.12305,383.38116 615.13662,383.38116 615.13662,383.38116 C 615.13662,383.38116 620.82809,375.50245 621.09889,373.33141 C 616.12031,376.35189 612.96095,384.27921 602.05713,383.4668 C 602.45523,380.48567 607.67685,375.81723 606.79963,373.98411 C 600.56193,379.77047 597.63404,384.64722 589.67663,383.38116 C 591.99117,376.46067 591.99117,367.22564 601.24935,367.22564 C 608.19299,364.91109 615.13662,369.54018 619.74257,362.59655 C 629.00075,351.04697 618.05527,325.7814 615.76387,311.91727 C 615.76387,300.36769 615.79858,298.17813 612.82208,284.08718 C 612.82208,284.08718 615.13662,325.65641 615.13662,325.65641 C 605.87844,318.71278 596.62026,314.10683 589.67663,304.8718 C 573.49796,284.08718 578.12705,260.98802 598.93481,247.1239 C 608.19299,240.20341 613.19241,236.59272 624.76513,231.98677 C 622.45059,225.04314 628.05179,219.92799 619.8583,217.77547 C 617.40488,222.05738 614.99775,226.73276 610.32237,226.33928 C 610.32237,226.33928 612.82208,214.7897 612.82208,214.7897 C 612.82208,214.7897 604.48972,215.2989 606.13304,230.20457 C 596.55083,225.59863 601.24935,214.7897 601.24935,214.7897 C 601.24935,214.7897 596.62026,214.7897 596.62026,214.7897 C 596.62026,214.7897 596.59712,228.5381 589.0517,231.31556 C 591.0885,224.85798 591.99117,214.7897 591.99117,214.7897 C 591.99117,214.7897 579.60836,229.5565 572.41012,224.76539 C 576.64574,219.97429 579.9324,219.18734 579.35376,213.40098 C 578.79827,207.63776 575.81251,200.20228 575.2709,199.02696 C 577.89097,200.29278 595.33569,205.50028 606.27655,200.07568 C 605.55209,203.69216 605.87844,207.86922 605.87844,207.86922 C 617.42802,205.55467 619.74257,205.55467 631.31529,210.16061 C 629.00075,194.00509 619.74257,191.69055 610.50753,180.14097 C 610.50753,180.14097 610.50753,189.376 610.50753,189.376 C 601.24935,187.0846 598.93481,184.77006 594.30572,175.53502 C 594.30572,175.53502 587.38523,180.14097 587.38523,180.14097 C 575.18758,172.94273 566.184,155.86139 583.49679,156.85664 C 593.81967,158.15279 585.07069,166.29999 585.07069,166.29999 C 585.07069,166.29999 611.54908,157.96762 622.05711,157.04181 C 622.05711,157.04181 619.00191,150.58423 609.23453,149.47324 C 617.33544,143.38599 625.48264,141.41863 631.31529,154.24121 C 637.1248,154.56524 642.54084,147.57532 639.09217,138.5023 C 647.67913,138.36343 651.91474,143.80261 655.82633,149.51954 C 659.0204,150.09817 662.23762,146.74208 661.47382,135.26194 C 669.57472,142.18243 673.55574,144.31181 674.08809,150.14446 C 680.98543,151.67206 685.66081,150.12132 696.05312,145.49223 C 693.76172,154.75041 693.76172,157.04181 684.50354,161.6709 C 691.03056,169.73709 691.71798,179.47137 690.35008,183.01008 C 688.08414,182.35344 687.51939,182.20461 685.91078,181.76531 C 686.41304,185.33365 687.13749,195.15079 686.81808,200.92558 C 686.81808,200.92558 682.18899,200.92558 682.18899,200.92558 C 682.18899,200.92558 689.13263,221.71019 689.13263,221.71019 C 689.13263,221.71019 684.50354,228.65383 684.50354,228.65383 C 700.68221,221.71019 716.88402,224.02474 733.06269,219.41879 C 751.55591,217.10425 770.07227,210.16061 790.88003,210.16061 C 804.74415,210.16061 804.74415,217.10425 823.26051,217.10425 C 823.26051,212.47516 823.26051,210.16061 823.26051,205.55467 C 823.26051,196.31964 816.31688,187.0846 804.74415,184.77006 C 797.82366,184.77006 786.25094,189.376 779.3073,191.69055 C 770.07227,194.00509 756.185,194.00509 746.92682,194.00509 C 716.88402,189.376 721.67513,186.45967 711.19024,180.83533 C 704.91783,182.5018 701.39972,187.82526 698.27508,197.22231 C 692.46557,188.70478 693.76172,177.82642 700.68221,173.22048 C 693.76172,147.80677 712.25493,136.25719 735.37724,131.65125 z "
       id="selection_to_path#1"
       style="fill:#ffce00;fill-opacity:1;stroke:none;stroke-width:1;stroke-linejoin:round;stroke-opacity:1" />
    <path
       d="M 742.32087,339.52053 C 737.69178,332.5769 721.48997,321.02732 726.11906,309.47774 C 733.06269,297.92816 772.38681,279.45809 779.3073,304.8718 C 781.62185,311.79229 774.48842,330.16283 772.17387,337.10646 C 775.67578,336.20611 779.56885,330.8271 790.96566,332.77595 C 788.84323,341.84897 774.9791,348.84584 774.9791,348.84584 C 776.38635,354.98401 765.44318,383.38116 765.44318,383.38116 C 765.44318,383.38116 735.37724,383.38116 735.37724,383.38116 C 735.37724,383.38116 740.00633,374.14613 740.00633,374.14613 C 740.00633,374.14613 733.06269,383.38116 733.06269,383.38116 C 733.06269,383.38116 721.48997,383.38116 721.48997,383.38116 C 721.48997,383.38116 730.74815,371.83158 730.74815,371.83158 C 730.74815,371.83158 719.79804,384.65879 710.46579,384.14728 C 712.78033,365.67721 723.80451,362.59655 740.00633,369.54018 C 742.32087,360.30515 746.92682,348.75557 742.32087,339.52053 z "
       id="selection_to_path"
       style="fill:#ffce00;fill-opacity:1;stroke:#9c1e3d;stroke-width:4.58701849;stroke-linejoin:round;stroke-opacity:1" />
    <path
       d="M 618.48577,165.58826 C 615.36808,167.5061 617.91408,180.19397 622.70287,178.03404 C 628.67208,175.34245 620.85355,164.13103 618.48577,165.58826 z "
       id="path577"
       style="fill:#ffce00;fill-opacity:1;fill-rule:evenodd;stroke:#9c1e3d;stroke-width:4.58701744pt;stroke-linecap:butt;stroke-linejoin:miter;stroke-opacity:1" />
    <path
       d="M 621.43682,161.5804 C 627.13291,165.58826 636.20361,176.3465 647.38287,175.7137 C 638.94403,168.75248 640.63365,163.68987 640.63365,163.68987 C 645.06369,168.96333 659.82817,173.81508 664.67946,171.70538 C 658.98568,167.48665 657.93025,167.06471 656.66419,163.05708 C 663.41572,163.90096 671.85224,165.37764 678.60145,162.42428"
       id="path578"
       style="fill:#ffce00;fill-opacity:1;fill-rule:evenodd;stroke:#9c1e3d;stroke-width:4.58701744pt;stroke-linecap:round;stroke-linejoin:round;stroke-opacity:1" />
    <path
       d="M 632.40776,232.03538 L 633.03963,222.33188 C 633.03963,222.33188 639.3676,237.09729 644.00826,237.30791 C 641.0549,226.55176 642.32096,217.90207 642.32096,217.90207"
       id="path580"
       style="fill:#ffce00;fill-opacity:1;fill-rule:evenodd;stroke:#9c1e3d;stroke-width:4.58701744pt;stroke-linecap:round;stroke-linejoin:round;stroke-opacity:1" />
    <path
       d="M 647.17224,220.22264 C 647.17224,220.22264 659.82817,243.42526 665.94552,239.6294 C 656.66419,231.40143 657.71962,220.64435 657.71962,220.64435 C 657.71962,220.64435 661.93904,234.98874 674.38435,239.41878 C 675.22684,231.40235 669.53306,218.32401 669.53306,218.32401 C 669.53306,218.32401 679.8675,236.46542 685.14235,236.88667 C 688.51696,232.66956 687.2509,228.23837 687.2509,228.23837"
       id="path581"
       style="fill:#ffce00;fill-opacity:1;fill-rule:evenodd;stroke:#9c1e3d;stroke-width:4.58701744pt;stroke-linecap:round;stroke-linejoin:round;stroke-opacity:1" />
    <path
       d="M 637.25905,204.19094 L 646.54037,216.00368 L 648.01705,200.18307 C 648.01705,200.18307 657.08775,207.35492 658.77506,207.14407 C 660.46236,206.93321 656.24294,190.26872 656.24294,190.26872 C 656.24294,190.26872 668.47763,208.83183 669.32244,208.40966 C 670.16493,207.98772 670.58618,190.05763 670.58618,190.05763 C 670.58618,190.05763 679.86982,215.58174 683.0338,215.37089 C 686.19779,215.16003 685.35298,211.78496 685.35298,211.78496"
       id="path582"
       style="fill:#ffce00;fill-opacity:1;fill-rule:evenodd;stroke:#9c1e3d;stroke-width:4.58701744pt;stroke-linecap:round;stroke-linejoin:round;stroke-opacity:1" />
    <path
       d="M 630.29689,183.51858 C 630.29689,183.51858 644.64013,196.59692 646.11681,195.75327 C 647.59349,194.90938 640.21241,180.56522 640.21241,180.56522 C 640.21241,180.56522 648.4383,188.3701 651.60228,189.0029 C 654.76626,189.63569 652.65771,178.87769 652.65771,178.87769 C 652.65771,178.87769 662.36029,187.10451 664.04759,186.68256 C 665.73489,186.26062 664.8924,178.87769 664.8924,178.87769 C 664.8924,178.87769 671.22036,185.20612 671.64161,185.20612 C 672.06286,185.20612 670.37556,167.06494 670.37556,167.06494 C 670.37556,167.06494 684.51048,182.0419 685.5636,181.83105"
       id="path583"
       style="fill:#ffce00;fill-opacity:1;fill-rule:evenodd;stroke:#9c1e3d;stroke-width:4.58701744pt;stroke-linecap:round;stroke-linejoin:round;stroke-opacity:1" />
    <path
       d="M 572.92164,188.15924 C 573.55351,189.21398 575.90277,207.86759 604.80218,200.27357 C 607.54492,198.79689 606.33904,205.48662 606.21868,207.44542 C 607.48474,207.23457 621.2586,202.32264 630.75055,209.28386 C 629.63493,201.56833 627.55416,196.38606 619.32827,191.95626 C 615.32179,191.1126 612.3962,193.16144 612.3962,193.16144 C 612.3962,193.16144 577.5623,193.43294 572.92164,188.15924 z "
       id="path584"
       style="fill:#ffce00;fill-opacity:1;fill-rule:evenodd;stroke:#9c1e3d;stroke-width:4.58701744pt;stroke-linecap:round;stroke-linejoin:round;stroke-opacity:1" />
    <path
       d="M 557.1619,306.92248 C 556.68279,309.08195 555.17139,309.70457 550.85477,315.94226 C 552.77352,318.58085 561.6012,322.70537 563.99907,320.54821 C 566.15854,319.34696 566.31361,313.62772 566.31361,313.62772 C 570.9427,320.54821 579.08527,331.46129 588.34345,333.77583 C 595.26394,336.09038 602.20758,331.46129 602.20758,324.5408 C 602.20758,317.62031 591.75046,306.44337 587.14452,301.83743 C 575.57179,287.9733 576.59251,261.78886 554.71543,265.43195 C 554.60201,265.631 553.72712,268.60982 551.63014,269.14216 C 553.38688,272.5052 554.37287,275.34746 550.16735,276.40521 C 553.4378,279.6178 553.95163,281.95086 549.74841,283.56409 C 552.2921,286.97573 555.27092,288.2279 549.41512,291.14654 C 555.54172,297.11807 556.86101,305.90408 557.1619,306.92248"
       id="selection_to_path#2"
       style="fill:#ffce00;fill-opacity:1;stroke:#9c1e3d;stroke-width:4.58701849;stroke-linecap:round;stroke-linejoin:round;stroke-opacity:1" />
    <path
       d="M 551.46581,111.19298 C 544.5106,121.26751 543.78846,232.08861 545.94793,254.3962 C 538.99272,258.95354 526.04053,257.03478 522.44141,255.59513 C 524.12177,247.67939 530.11644,119.10827 551.46581,111.19298 z "
       id="path585"
       style="fill:#ffce00;fill-opacity:1;fill-rule:evenodd;stroke:#9c1e3d;stroke-width:4.58701744pt;stroke-linecap:butt;stroke-linejoin:miter;stroke-opacity:1" />
    <path
       d="M 531.7968,338.35169 C 531.7968,338.35169 501.09205,342.66832 514.04424,324.44127 C 525.07999,319.64322 524.83928,330.91737 520.76105,334.75489 C 525.79982,335.31501 529.15822,332.0353 529.87573,327.07754 C 523.64035,318.68269 532.51431,313.16481 532.0352,313.16481 C 510.68815,317.96286 507.80886,303.33031 515.7246,300.93244 C 525.72112,301.49025 522.52242,304.68895 526.51964,307.64925 C 533.71556,301.01345 538.0345,300.37464 542.35113,307.17014 C 546.66775,300.45333 552.90545,301.17315 553.14385,301.89298 C 560.10137,313.64392 544.749,314.36375 538.51361,312.9241 C 543.79078,318.68269 541.6313,324.19825 539.95094,328.27879 C 540.11065,332.27601 543.15196,332.91482 548.1074,334.51417 C 537.55539,305.40877 585.28825,342.2679 537.31236,338.5924 C 537.39337,339.87003 537.47438,341.14997 537.55308,342.42992 C 541.4716,343.14974 544.18888,344.10796 545.46651,348.18619 C 543.79078,350.42436 541.15219,350.74376 537.07397,349.14673 C 537.07397,349.14673 539.47183,355.86354 535.15521,357.78229 C 531.55609,355.62282 531.07698,350.34566 531.07698,350.34566 C 529.07721,352.82454 526.11922,351.22287 523.64035,349.14673 C 525.88083,343.62885 532.19722,346.26512 531.7968,338.35169 z "
       id="path586"
       style="fill:#ffce00;fill-opacity:1;fill-rule:evenodd;stroke:none;stroke-width:0.25;stroke-linecap:butt;stroke-linejoin:round;stroke-opacity:1" />
    <path
       d="M 505.41099,249.60046 C 507.24874,241.28199 526.59833,242.32122 517.40496,251.27851 C 523.55934,261.11301 542.42982,259.67568 549.54705,254.1578 C 543.54775,242.72163 559.86298,245.20051 559.14315,253.91709 C 557.14339,269.34584 503.33253,267.2697 505.41099,249.60046 z "
       id="path587"
       style="fill:#ffce00;fill-opacity:1;fill-rule:evenodd;stroke:none;stroke-width:1pt;stroke-linecap:butt;stroke-linejoin:round;stroke-opacity:1" />
    <path
       d="M 514.07202,268.56121 C 513.61837,272.07469 522.00396,273.60461 530.60018,273.64627 C 539.1964,273.69025 548.00788,272.24597 548.40366,269.80875 C 548.51708,265.44584 540.89759,269.15605 532.22962,269.0843 C 523.56165,269.01486 516.33796,265.6148 514.07202,268.56121 z "
       id="path596"
       style="fill:#ffce00;fill-opacity:1;fill-rule:evenodd;stroke:#ffce00;stroke-width:4.58701744pt;stroke-linecap:butt;stroke-linejoin:round;stroke-opacity:1" />
    <path
       d="M 514.75018,278.30545 C 514.86128,281.5921 523.19132,282.38368 530.55621,282.6105 C 537.9234,282.83733 545.34383,281.36528 546.70247,278.98592 C 545.39707,275.24562 537.21284,278.36331 530.55389,278.53227 C 523.89726,278.70355 516.5046,275.24562 514.75018,278.30545 z "
       id="path597"
       style="fill:#ffce00;fill-opacity:1;fill-rule:evenodd;stroke:#ffce00;stroke-width:4.58701744pt;stroke-linecap:butt;stroke-linejoin:round;stroke-opacity:1" />
    <path
       d="M 517.12953,287.03128 C 516.56247,289.52405 523.89958,291.30856 530.65573,291.35022 C 537.41189,291.39189 546.98716,288.78571 547.04271,286.12398 C 546.64692,284.02932 537.18506,286.86001 530.82701,287.07294 C 524.46664,287.28588 517.12953,284.76534 517.12953,287.03128 z "
       id="path598"
       style="fill:#ffce00;fill-opacity:1;fill-rule:evenodd;stroke:#ffce00;stroke-width:4.58701744pt;stroke-linecap:butt;stroke-linejoin:round;stroke-opacity:1" />
    <path
       d="M 516.33796,295.98163 C 516.90502,298.41653 525.23507,299.24051 532.55597,298.68733 C 539.87919,298.13647 547.3274,295.86822 547.95001,293.26204 C 547.61209,291.61871 539.19872,294.53735 532.22962,294.89148 C 525.26053,295.2456 516.22454,294.05361 516.33796,295.98163 z "
       id="path599"
       style="fill:#ffce00;fill-opacity:1;fill-rule:evenodd;stroke:#ffce00;stroke-width:4.58701744pt;stroke-linecap:butt;stroke-linejoin:round;stroke-opacity:1" />
  </g>
</svg>
