<?xml version="1.0" encoding="UTF-8" standalone="no"?>
<svg xmlns="http://www.w3.org/2000/svg"
   xmlns:dc="http://purl.org/dc/elements/1.1/"
   xmlns:cc="http://creativecommons.org/ns#"
   xmlns:rdf="http://www.w3.org/1999/02/22-rdf-syntax-ns#"
   version="1.0" width="600" height="300">
  <metadata>
    <rdf:RDF>
      <cc:Work rdf:about="">
        <dc:format>image/svg+xml</dc:format>
        <dc:type rdf:resource="http://purl.org/dc/dcmitype/StillImage" />
      </cc:Work>
    </rdf:RDF>
  </metadata>
  <rect width="600" height="300" style="fill:#6399ab"/>
  <rect width="300" height="150" style="fill:#007a3d"/>
  <rect width="300" height="100" style="fill:#ffffff"/>
  <rect width="300" height="50"/>
  <g transform="matrix(1.17188,0,0,1.17188,0,0)">
    <path d="M 0,0 L128,64 L0,128z" style="fill:#ce1126"/>
    <path style="fill:#ffffff"
      d="m 39.552023,54.857208 -1.983473,5.024157 -5.16471,-1.581772 2.691361,4.683255 -4.456823,3.051718 5.339549,0.815764 -0.392851,5.387202 3.966947,-3.66601 3.966948,3.66601 -0.392851,-5.387202 5.339549,-0.815764 -4.456823,-3.051718 2.691361,-4.683255 -5.16471,1.581772 -1.983474,-5.024157 z"/>
  </g>
  <g transform="matrix(0.3008681,0,0,0.3008681,457.99788,153.18231)">
    <circle r="300"/>
    <circle r="200" style="fill:#ffffff"/>
    <circle r="100" style="fill:#008d46"/>
  </g>
  <path style="fill:#ce1126"
     d="m 394.1741,89.358542 a 90.260428,90.260428 0 0 1 127.64753,0 l -63.82375,63.823768 z"/>
  <path style="fill:#ffffff"
     d="m 457.99788,76.460939 5.22165,13.226518 13.59658,-4.16413 -7.08526,12.329091 11.73299,8.033922 -14.05683,2.14757 1.03419,14.1823 -10.44332,-9.65109 -10.44335,9.65109 1.03419,-14.1823 -14.05681,-2.14757 11.73298,-8.033922 -7.08527,-12.329091 13.59659,4.16413 z"/>
</svg>
